G04 ================== begin FILE IDENTIFICATION RECORD ==================*
G04 Layout Name:  C:/userdata/Boards/TSW14J50_B/TSW14J50_B.brd*
G04 Film Name:    LYR08_PWR2*
G04 File Format:  Gerber RS274X*
G04 File Origin:  Cadence Allegro 16.6-S019*
G04 Origin Date:  Tue Apr 01 14:59:11 2014*
G04 *
G04 Layer:  VIA CLASS/L8-PWR2*
G04 Layer:  PIN/L8-PWR2*
G04 Layer:  ETCH/L8-PWR2*
G04 Layer:  BOARD GEOMETRY/TOOLING_CORNERS*
G04 *
G04 Offset:    (0.000 0.000)*
G04 Mirror:    No*
G04 Mode:      Positive*
G04 Rotation:  0*
G04 FullContactRelief:  No*
G04 UndefLineWidth:     7.000*
G04 ================== end FILE IDENTIFICATION RECORD ====================*
%FSLAX55Y55*MOIN*%
%IR0*IPPOS*OFA0.00000B0.00000*MIA0B0*SFA1.00000B1.00000*%
%ADD18C,.15*%
%ADD16C,.17*%
%ADD14C,.01*%
%ADD10C,.02*%
%ADD11C,.022*%
%ADD17C,.08*%
%ADD12C,.018*%
%ADD13C,.092*%
%ADD15C,.058*%
%ADD19C,.006*%
%ADD34C,.110004*%
%ADD27C,.104004*%
%ADD23C,.122004*%
%ADD26C,.162004*%
%ADD32C,.127004*%
%ADD22C,.030004*%
%ADD25C,.022004*%
%ADD20C,.032004*%
%ADD28C,.042004*%
%ADD21C,.060004*%
%ADD30C,.070004*%
%ADD24C,.034004*%
%ADD35C,.062004*%
%ADD29C,.028004*%
%ADD33C,.092004*%
%ADD31C,.088004*%
G75*
%LPD*%
G75*
G36*
G01X-12760Y7886D02*
G02X-13500Y8097I-340J210D01*
G01Y361903D01*
G02X-12760Y362114I400J0D01*
G03X-7000Y356733I12760J7887D01*
G01Y258000D01*
X19380D01*
G02X19684Y257340I0J-400D01*
G03X22116I1216J-1040D01*
G02X22420Y258000I304J260D01*
G01X39380D01*
G02X39684Y257340I0J-400D01*
G03X40367Y254791I1216J-1040D01*
G01X40500Y254744D01*
Y252856D01*
X40367Y252809D01*
G03Y249791I533J-1509D01*
G01X40500Y249744D01*
Y112856D01*
X40367Y112809D01*
G03Y109791I533J-1509D01*
G01X40500Y109744D01*
Y102856D01*
X40367Y102809D01*
G03Y99791I533J-1509D01*
G01X40500Y99744D01*
Y92856D01*
X40367Y92809D01*
G03Y89791I533J-1509D01*
G01X40500Y89744D01*
Y73000D01*
X162000D01*
Y74530D01*
X162139Y74575D01*
G03X162806Y75014I-461J1427D01*
G02X163472Y74915I301J-263D01*
G03X165045Y74044I1368J615D01*
G02X165500Y73648I55J-396D01*
G01Y68921D01*
G02X165042Y68525I-400J0D01*
G03Y65556I-215J-1485D01*
G02X165500Y65160I57J-396D01*
G01Y64780D01*
X165389Y64724D01*
G03Y62038I668J-1343D01*
G01X165500Y61983D01*
Y57017D01*
G02X165042Y56621I-400J0D01*
G03X166315Y54945I-215J-1485D01*
G02X166994Y55177I397J-51D01*
G01X182429Y39742D01*
G02X182433Y39464I-141J-141D01*
G03X184918Y37875I1094J-1026D01*
G01X184969Y38000D01*
X188386D01*
X188436Y37875D01*
G03X191217I1391J563D01*
G01X191268Y38000D01*
X219882D01*
X219932Y37875D01*
G03X222713I1391J563D01*
G01X222764Y38000D01*
X226181D01*
X226231Y37875D01*
G03X229013I1391J563D01*
G01X229063Y38000D01*
X286705D01*
G02X286988Y37317I0J-400D01*
G01X285054Y35383D01*
G02X284488I-283J283D01*
G03X284205Y35500I-283J-283D01*
G01X230725D01*
G03X230576Y35471I0J-400D01*
G02X230095Y35618I-149J371D01*
G03X227355Y34875I-1243J-840D01*
G02X226956Y34500I-399J26D01*
G01X224449D01*
G02X224050Y34875I0J400D01*
G03X221056I-1497J-96D01*
G02X220656Y34500I-399J26D01*
G01X212190D01*
G02X211792Y34942I0J400D01*
G03X208808I-1492J158D01*
G02X208410Y34500I-398J-42D01*
G01X200400D01*
G03X199274Y34783I-900J-1200D01*
G02X198822Y35094I-60J395D01*
G03X195857Y34709I-1467J-316D01*
G01X195858Y34705D01*
Y34500D01*
X195365D01*
Y34724D01*
X195371Y34746D01*
G03X193202Y34927I-1071J254D01*
G02X192803Y34500I-399J-27D01*
G01X192555D01*
Y34705D01*
X192555Y34709D01*
G03X189558I-1499J69D01*
G01X189558Y34705D01*
Y34500D01*
X189085D01*
Y34716D01*
X189087Y34731D01*
G03X186900Y34900I-1087J169D01*
G02X186500Y34500I-400J0D01*
G01X186256D01*
Y34705D01*
X186256Y34709D01*
G03X183260Y34875I-1499J69D01*
G02X182861Y34500I-399J26D01*
G01X180828D01*
X160019Y55310D01*
X160009Y55374D01*
G03X158765Y56618I-1481J-237D01*
G01X158701Y56628D01*
X156574Y58755D01*
G02X156804Y59434I283J283D01*
G03X155121Y61118I-197J1487D01*
G02X154441Y60888I-397J52D01*
G01X148329Y67000D01*
X25900D01*
G03X15100I-5400J-7200D01*
G01X-4500D01*
Y14309D01*
G03X-12760Y7886I4500J-14309D01*
G37*
G36*
G01X7886Y-12760D02*
G03X13267Y-7000I-7887J12760D01*
G01X456733D01*
G03X462114Y-12760I13267J7000D01*
G02X461903Y-13500I-210J-340D01*
G01X8097D01*
G02X7886Y-12760I0J400D01*
G37*
G36*
G01X14697Y-5000D02*
G02X14315Y-4480I0J400D01*
G03X-2045Y14860I-14315J4481D01*
G02X-2500Y15256I-55J396D01*
G01Y65000D01*
X12418D01*
G02X12762Y64396I0J-400D01*
G03X28238I7738J-4596D01*
G02X28582Y65000I344J204D01*
G01X109211D01*
G02X109552Y64390I0J-400D01*
G03X112448I1448J-890D01*
G02X112789Y65000I341J209D01*
G01X115068D01*
G02X115414Y64400I0J-400D01*
G03X118186I1386J-800D01*
G02X118532Y65000I346J200D01*
G01X147500D01*
X154326Y58174D01*
G03X156447Y56053I1052J-1069D01*
G01X157056Y55444D01*
X157042Y55345D01*
G03X158737Y53651I1486J-209D01*
G01X158836Y53665D01*
X180107Y32393D01*
X180108Y32311D01*
G03X183108Y32302I1500J8D01*
G01X183110Y32500D01*
X183735D01*
Y32277D01*
X183730Y32254D01*
G03X185870I1070J-254D01*
G01X185865Y32277D01*
Y32500D01*
X186405D01*
X186407Y32302D01*
G03X189407I1500J17D01*
G01X189409Y32500D01*
X189900D01*
G02X190100Y32300I0J-200D01*
G03X192300I1100J0D01*
G02X192500Y32500I200J0D01*
G01X192704D01*
X192706Y32302D01*
G03X195706I1500J17D01*
G01X195709Y32500D01*
X196200D01*
G02X196400Y32300I0J-200D01*
G03X198447Y31740I1100J0D01*
G02X198941Y31908I344J-203D01*
G03X200769Y32500I559J1392D01*
G01X205302D01*
X205305Y32302D01*
G03X206838Y30819I1500J17D01*
G02X207237Y30331I9J-400D01*
G03X207208Y30156I1463J-331D01*
G02X206787Y29798I-398J42D01*
G03X208192Y28144I-87J-1498D01*
G02X208613Y28502I398J-42D01*
G03X210003Y29256I87J1498D01*
G02X210697I347J-198D01*
G03X213434Y30440I1303J744D01*
G02X213667Y30928I382J117D01*
G03X214604Y32302I-563J1391D01*
G01X214606Y32500D01*
X217901D01*
X217903Y32302D01*
G03X220903I1500J17D01*
G01X220905Y32500D01*
X224200D01*
X224202Y32302D01*
G03X227203I1500J17D01*
G01X227205Y32500D01*
X241474D01*
X241526Y32378D01*
G03X244474I1474J622D01*
G01X244526Y32500D01*
X256474D01*
X256526Y32378D01*
G03X259474I1474J622D01*
G01X259526Y32500D01*
X271474D01*
X271526Y32378D01*
G03X274474I1474J622D01*
G01X274526Y32500D01*
X285000D01*
X290000Y37500D01*
X292851D01*
G02X293251Y37115I0J-400D01*
G03X293864Y35915I1599J60D01*
G02Y35285I-247J-315D01*
G03X296110Y33039I986J-1260D01*
G02X296740I315J-247D01*
G03X299260I1260J986D01*
G02X299890I315J-247D01*
G03X302136Y35285I1260J986D01*
G02Y35915I247J315D01*
G03X302749Y37115I-986J1260D01*
G02X303149Y37500I400J-15D01*
G01X307138D01*
G02X307531Y37024I0J-400D01*
G03X310729Y35957I1669J-324D01*
G02X311415Y36014I360J-175D01*
G03X314498Y37081I1385J986D01*
G02X314898Y37500I400J19D01*
G01X335503D01*
G02X335903Y37088I0J-400D01*
G03X348097I6097J-188D01*
G02X348497Y37500I400J12D01*
G01X348698D01*
X348740Y37479D01*
G03X349450Y37300I760J1521D01*
G02X349831Y36824I-12J-400D01*
G03X351626Y34805I1669J-324D01*
G02X351837Y34647I15J-199D01*
G03X353626Y33304I1663J353D01*
G02X353837Y33147I15J-199D01*
G03X355374Y35196I1663J353D01*
G02X355163Y35353I-15J199D01*
G03X353374Y36696I-1663J-353D01*
G02X353163Y36853I-15J199D01*
G03X353129Y36986I-1663J-354D01*
G02X353513Y37500I383J114D01*
G01X354198D01*
X354240Y37479D01*
G03X355800Y37500I760J1521D01*
G01X365369D01*
X365419Y37374D01*
G03X368581I1581J626D01*
G01X368631Y37500D01*
X404390D01*
X404410Y37322D01*
G03X407590I1590J178D01*
G01X407610Y37500D01*
X421372D01*
G02X421731Y36923I0J-400D01*
G03X439669I8969J-4423D01*
G02X440028Y37500I359J177D01*
G01X447102D01*
G02X447451Y36904I0J-400D01*
G03X463149I7849J-4404D01*
G02X463498Y37500I349J196D01*
G01X475000D01*
Y14697D01*
G02X474481Y14315I-400J0D01*
G03X455685Y-4480I-4481J-14315D01*
G02X455303Y-5000I-382J-119D01*
G01X14697D01*
G37*
G36*
G01X297600Y42500D02*
Y43700D01*
G02X297800Y43900I200J0D01*
G03Y47100I0J1600D01*
G02X297600Y47300I0J200D01*
G01Y65000D01*
X275058D01*
X275026Y65011D01*
G03X273974I-526J-1511D01*
G01X273942Y65000D01*
X260058D01*
X260026Y65011D01*
G03X258974I-526J-1511D01*
G01X258942Y65000D01*
X245058D01*
X245026Y65011D01*
G03X243974I-526J-1511D01*
G01X243942Y65000D01*
X237500D01*
X205000Y97500D01*
Y110000D01*
X189000Y126000D01*
Y128199D01*
G02X189446Y128596I400J0D01*
G03Y131379I160J1391D01*
G02X189000Y131776I-46J397D01*
G01Y132136D01*
G02X189446Y132533I400J0D01*
G03Y135316I160J1391D01*
G02X189000Y135713I-46J397D01*
G01Y136073D01*
G02X189446Y136470I400J0D01*
G03Y139252I160J1391D01*
G02X189000Y139650I-46J397D01*
G01Y147884D01*
G02X189446Y148281I400J0D01*
G03Y151064I160J1391D01*
G02X189000Y151461I-46J397D01*
G01Y155758D01*
G02X189446Y156155I400J0D01*
G03X188389Y158240I160J1391D01*
G02X187759Y158156I-347J198D01*
G01X186414Y159500D01*
X185086D01*
X183634Y158049D01*
G02X182992Y158157I-283J283D01*
G03X181121Y156286I-1260J-611D01*
G02X181229Y155644I-174J-360D01*
G01X181086Y155500D01*
X169086D01*
X166500Y152914D01*
Y151469D01*
G02X166074Y151070I-400J0D01*
G03Y148275I-90J-1397D01*
G02X166500Y147876I26J-399D01*
G01Y147532D01*
G02X166074Y147133I-400J0D01*
G03Y144338I-90J-1397D01*
G02X166500Y143939I26J-399D01*
G01Y143595D01*
G02X166074Y143196I-400J0D01*
G03X165308Y143025I-90J-1397D01*
G01X165263Y143000D01*
X162767D01*
X162722Y143025D01*
G03X161371I-676J-1226D01*
G01X161326Y143000D01*
X158830D01*
X158785Y143025D01*
G03X157434I-676J-1226D01*
G01X157389Y143000D01*
X150956D01*
X150911Y143025D01*
G03X149560I-676J-1226D01*
G01X149515Y143000D01*
X147019D01*
X146974Y143025D01*
G03X145623I-676J-1226D01*
G01X145578Y143000D01*
X143082D01*
X143037Y143025D01*
G03X141686I-676J-1226D01*
G01X141641Y143000D01*
X135208D01*
X135163Y143025D01*
G03X133812I-676J-1226D01*
G01X133767Y143000D01*
X97500D01*
Y154700D01*
X115000Y172200D01*
Y230000D01*
X124000Y239000D01*
X186928D01*
X186929Y239000D01*
X188700D01*
X192700Y243000D01*
X249500D01*
X265000Y227500D01*
X287500D01*
Y231085D01*
G02X288024Y231465I400J0D01*
G03X285541Y242021I1976J6035D01*
G02X284977Y242023I-281J285D01*
G01X282999Y244001D01*
X283000Y244085D01*
G03X281385Y245700I-1600J15D01*
G01X281301Y245699D01*
X280558Y246442D01*
X280625Y246571D01*
G03X278471Y248725I-1425J729D01*
G01X278342Y248658D01*
X277979Y249021D01*
X277990Y249117D01*
G03X276217Y250890I-1590J183D01*
G01X276121Y250879D01*
X275266Y251734D01*
X275253Y251788D01*
G03X274088Y252952I-1553J-388D01*
G01X274034Y252966D01*
X268192Y258808D01*
X268228Y258924D01*
G03X266224Y260928I-1528J476D01*
G01X266108Y260892D01*
X261336Y265664D01*
G02X261523Y266335I283J283D01*
G03X266098Y270728I-1523J6165D01*
G03X266206Y273848I-298J1572D01*
G03X257091Y266856I-6205J-1348D01*
G02X256907Y266100I-183J-356D01*
G01X243093D01*
G02X242909Y266856I0J400D01*
G03X239811Y278847I-2909J5644D01*
G02X239400Y279238I-12J400D01*
G03X236489Y278282I-1600J-38D01*
G02X236389Y277724I-328J-230D01*
G03X237090Y266856I3611J-5224D01*
G02X236907Y266100I-183J-356D01*
G01X183600D01*
X183500Y266000D01*
X183172D01*
X181697Y264525D01*
X181587Y264553D01*
G03X179647Y262613I-387J-1553D01*
G01X179675Y262503D01*
X177171Y260000D01*
X149498D01*
G02X149098Y260420I0J400D01*
G03X145902I-1598J80D01*
G02X145502Y260000I-399J-20D01*
G01X134498D01*
G02X134098Y260420I0J400D01*
G03X130902I-1598J80D01*
G02X130502Y260000I-399J-20D01*
G01X103526D01*
X103474Y260122D01*
G03X100526I-1474J-622D01*
G01X100474Y260000D01*
X52686D01*
G02X52329Y260580I0J400D01*
G03X49471I-1429J720D01*
G02X49114Y260000I-357J-180D01*
G01X42686D01*
G02X42329Y260580I0J400D01*
G03X39471I-1429J720D01*
G02X39114Y260000I-357J-180D01*
G01X37686D01*
G02X37329Y260580I0J400D01*
G03X34471I-1429J720D01*
G02X34114Y260000I-357J-180D01*
G01X32686D01*
G02X32329Y260580I0J400D01*
G03X29471I-1429J720D01*
G02X29114Y260000I-357J-180D01*
G01X22686D01*
G02X22329Y260580I0J400D01*
G03X19471I-1429J720D01*
G02X19114Y260000I-357J-180D01*
G01X17686D01*
G02X17329Y260580I0J400D01*
G03X14471I-1429J720D01*
G02X14114Y260000I-357J-180D01*
G01X12686D01*
G02X12329Y260580I0J400D01*
G03X9471I-1429J720D01*
G02X9114Y260000I-357J-180D01*
G01X7686D01*
G02X7329Y260580I0J400D01*
G03X4471I-1429J720D01*
G02X4114Y260000I-357J-180D01*
G01X-5000D01*
Y355303D01*
G02X-4480Y355685I400J0D01*
G03X14315Y374480I4480J14315D01*
G02X14697Y375000I382J119D01*
G01X116918D01*
X116938Y374822D01*
G03X129062I6062J678D01*
G01X129082Y375000D01*
X455303D01*
G02X455685Y374480I0J-400D01*
G03X474481Y355685I14315J-4480D01*
G02X475000Y355303I119J-382D01*
G01Y352210D01*
X474822Y352190D01*
G03Y349010I178J-1590D01*
G01X475000Y348990D01*
Y347110D01*
X474822Y347090D01*
G03Y343910I178J-1590D01*
G01X475000Y343890D01*
Y341810D01*
X474822Y341790D01*
G03Y338610I178J-1590D01*
G01X475000Y338590D01*
Y317110D01*
X474822Y317090D01*
G03Y313910I178J-1590D01*
G01X475000Y313890D01*
Y311910D01*
X474822Y311890D01*
G03Y308710I178J-1590D01*
G01X475000Y308690D01*
Y306910D01*
X474822Y306890D01*
G03Y303710I178J-1590D01*
G01X475000Y303690D01*
Y255742D01*
G02X474487Y255358I-400J0D01*
G03Y248642I-987J-3358D01*
G02X475000Y248258I113J-384D01*
G01Y245742D01*
G02X474487Y245358I-400J0D01*
G03Y238642I-987J-3358D01*
G02X475000Y238258I113J-384D01*
G01Y235742D01*
G02X474487Y235358I-400J0D01*
G03Y228642I-987J-3358D01*
G02X475000Y228258I113J-384D01*
G01Y225610D01*
X474822Y225590D01*
G03Y222410I178J-1590D01*
G01X475000Y222390D01*
Y110498D01*
G02X474580Y110098I-400J0D01*
G03Y106902I-80J-1598D01*
G02X475000Y106502I20J-399D01*
G01Y103406D01*
G02X474532Y103012I-400J0D01*
G03Y90988I-1032J-6012D01*
G02X475000Y90594I68J-394D01*
G01Y89749D01*
G03Y87251I1000J-1249D01*
G01Y76068D01*
G02X474557Y75670I-400J0D01*
G03Y65330I-557J-5170D01*
G02X475000Y64932I43J-398D01*
G01Y42500D01*
X446514D01*
G02X446343Y43262I0J400D01*
G03X438657I-3843J8138D01*
G02X438486Y42500I-171J-362D01*
G01X352631D01*
X352581Y42626D01*
G03X349419I-1581J-626D01*
G01X349369Y42500D01*
X347131D01*
X347081Y42626D01*
G03X343919I-1581J-626D01*
G01X343869Y42500D01*
X331671D01*
G02X331336Y43120I0J400D01*
G03X328664I-1336J880D01*
G02X328329Y42500I-334J-220D01*
G01X316671D01*
G02X316336Y43120I0J400D01*
G03X313664I-1336J880D01*
G02X313329Y42500I-334J-220D01*
G01X311296D01*
G03X308704I-1296J-1100D01*
G01X297600D01*
G37*
G36*
G01X13267Y377000D02*
G03X7886Y382760I-13267J-7000D01*
G02X8097Y383500I210J340D01*
G01X461903D01*
G02X462114Y382760I0J-400D01*
G03X456733Y377000I7887J-12760D01*
G01X13267D01*
G37*
G36*
G01X42500Y75000D02*
Y86276D01*
G03Y86324I-1600J24D01*
G01Y91276D01*
G03Y91324I-1600J24D01*
G01Y96276D01*
G03Y96324I-1600J24D01*
G01Y101276D01*
G03Y101324I-1600J24D01*
G01Y106276D01*
G03Y106324I-1600J24D01*
G01Y111276D01*
G03Y111324I-1600J24D01*
G01Y121276D01*
G03Y121324I-1600J24D01*
G01Y126276D01*
G03Y126324I-1600J24D01*
G01Y141276D01*
G03Y141324I-1600J24D01*
G01Y146276D01*
G03Y146324I-1600J24D01*
G01Y161276D01*
G03Y161324I-1600J24D01*
G01Y166276D01*
G03Y166324I-1600J24D01*
G01Y181276D01*
G03Y181324I-1600J24D01*
G01Y186276D01*
G03Y186324I-1600J24D01*
G01Y201276D01*
G03Y201324I-1600J24D01*
G01Y206276D01*
G03Y206324I-1600J24D01*
G01Y221276D01*
G03Y221324I-1600J24D01*
G01Y226276D01*
G03Y226324I-1600J24D01*
G01Y241276D01*
G03Y241324I-1600J24D01*
G01Y246276D01*
G03Y246324I-1600J24D01*
G01Y251276D01*
G03Y251324I-1600J24D01*
G01Y255000D01*
X44967D01*
G03X46833I933J1300D01*
G01X49967D01*
G03X51833I933J1300D01*
G01X92500D01*
Y252500D01*
X85416Y245416D01*
G02X84786Y245499I-283J283D01*
G03X84360Y243420I-1386J-799D01*
G02X85000Y243100I240J-320D01*
G01Y227500D01*
X65000Y207500D01*
Y207458D01*
G02X64815Y207259I-200J0D01*
G03Y204067I122J-1596D01*
G02X65000Y203868I-15J-199D01*
G01Y192500D01*
X90000D01*
X91054Y193554D01*
G02X91710Y193417I283J-283D01*
G03X93783Y195490I1490J583D01*
G02X93646Y196146I146J373D01*
G01X100000Y202500D01*
X107500D01*
Y175200D01*
X106019Y173719D01*
G02X105456Y173716I-283J283D01*
G03X103052Y171311I-1189J-1216D01*
G02X103049Y170749I-286J-280D01*
G01X100166Y167866D01*
X100147Y167854D01*
G03X99646Y167353I853J-1354D01*
G01X99634Y167334D01*
X97984Y165684D01*
X97890Y165693D01*
G03X96040Y163842I-158J-1693D01*
G01X96048Y163748D01*
X92500Y160200D01*
Y144408D01*
G02X91980Y144026I-400J0D01*
G03Y140974I-480J-1527D01*
G02X92500Y140592I120J-382D01*
G01Y135000D01*
X132819D01*
G02X133190Y134450I0J-400D01*
G03X135785I1298J-526D01*
G02X136156Y135000I371J150D01*
G01X136756D01*
G02X137127Y134450I0J-400D01*
G03X139722I1298J-526D01*
G02X140093Y135000I371J150D01*
G01X140693D01*
G02X141064Y134450I0J-400D01*
G03X143659I1298J-526D01*
G02X144030Y135000I371J150D01*
G01X144630D01*
G02X145001Y134450I0J-400D01*
G03X147596I1298J-526D01*
G02X147967Y135000I371J150D01*
G01X148567D01*
G02X148938Y134450I0J-400D01*
G03X151533I1298J-526D01*
G02X151904Y135000I371J150D01*
G01X152504D01*
G02X152874Y134450I0J-400D01*
G03X155470I1298J-526D01*
G02X155841Y135000I371J150D01*
G01X156441D01*
G02X156812Y134450I0J-400D01*
G03X159407I1298J-526D01*
G02X159778Y135000I371J150D01*
G01X160000D01*
Y87507D01*
G02X159374Y87176I-400J0D01*
G03Y84699I-847J-1238D01*
G02X160000Y84369I226J-330D01*
G01Y84172D01*
G02X159633Y83774I-400J0D01*
G03Y80784I124J-1495D01*
G02X160000Y80385I-33J-399D01*
G01Y76980D01*
G02X159375Y76650I-400J0D01*
G03X157434Y76435I-845J-1240D01*
G02X156771Y76560I-292J273D01*
G03X153955Y75527I-1393J-557D01*
G02X153576Y75000I-379J-127D01*
G01X116559D01*
G03X114441I-1059J-1200D01*
G01X100200D01*
G02X99960Y75720I0J400D01*
G03X98040I-960J1280D01*
G02X97800Y75000I-240J-320D01*
G01X42500D01*
G37*
G36*
G01X67500Y196500D02*
Y200171D01*
G02X68180Y200457I400J0D01*
G03Y202743I1120J1143D01*
G02X67500Y203029I-280J286D01*
G01Y205000D01*
X69814Y207314D01*
X69928Y207280D01*
G03X71920Y209272I459J1533D01*
G01X71886Y209386D01*
X80661Y218161D01*
G02X81275Y218103I283J-283D01*
G03X83497Y220325I1325J897D01*
G02X83439Y220939I224J331D01*
G01X87000Y224500D01*
Y240000D01*
G02X87640Y240320I400J0D01*
G03X87842Y240191I961J1280D01*
G02X87931Y239935I-95J-176D01*
G03X90158Y240710I1469J-635D01*
G02X90069Y240965I95J176D01*
G03X87640Y242880I-1469J635D01*
G02X87000Y243200I-240J320D01*
G01Y243500D01*
X101000Y257500D01*
X173000D01*
Y257100D01*
G03X177354Y256065I2300J0D01*
G02X178029Y256128I357J-180D01*
G03X179570Y258677I1271J972D01*
G02X179354Y259354I67J394D01*
G01X181413Y261413D01*
X181475Y261424D01*
G03X182776Y262725I-275J1576D01*
G01X182787Y262787D01*
X184000Y264000D01*
X208829D01*
G02X209164Y263380I0J-400D01*
G03X211836I1336J-880D01*
G02X212171Y264000I334J220D01*
G01X223592D01*
G02X223974Y263480I0J-400D01*
G03X227026I1526J-480D01*
G02X227408Y264000I382J120D01*
G01X244526D01*
G02X244901Y263460I0J-400D01*
G03X247899I1499J-560D01*
G02X248274Y264000I375J140D01*
G01X259000D01*
X266161Y256839D01*
X266050Y256699D01*
G03X268299Y254450I1250J-999D01*
G01X268439Y254561D01*
X268738Y254262D01*
X268695Y254143D01*
G03X270743Y252095I1505J-543D01*
G01X270862Y252138D01*
X272228Y250772D01*
X272243Y250739D01*
G03X273039Y249943I1457J661D01*
G01X273072Y249928D01*
X281238Y241762D01*
X281221Y241661D01*
G03X283061Y239821I1579J-261D01*
G01X283162Y239838D01*
X283500Y239500D01*
Y230000D01*
X267500D01*
X252500Y245000D01*
X190100D01*
X186100Y241000D01*
X150171D01*
G02X149836Y241620I0J400D01*
G03X147164I-1336J880D01*
G02X146829Y241000I-334J-220D01*
G01X133498D01*
G02X133098Y241420I0J400D01*
G03X129902I-1598J80D01*
G02X129502Y241000I-399J-20D01*
G01X122998D01*
G02X122598Y241420I0J400D01*
G03X119452Y241093I-1598J80D01*
G01X119482Y240982D01*
X107800Y229300D01*
Y216300D01*
X102792Y211292D01*
X102676Y211328D01*
G03X100672Y209324I-476J-1528D01*
G01X100708Y209208D01*
X88000Y196500D01*
X67500D01*
G37*
G36*
G01X94500Y137000D02*
Y159372D01*
X97450Y162321D01*
X97545Y162310D01*
G03X99422Y164187I187J1690D01*
G01X99412Y164283D01*
X109500Y174372D01*
Y204500D01*
X108000D01*
Y207590D01*
X108178Y207610D01*
G03Y210790I-178J1590D01*
G01X108000Y210810D01*
Y212190D01*
X108178Y212210D01*
G03X108968Y212526I-177J1590D01*
G02X109568Y212386I242J-318D01*
G03X112280Y212140I1432J714D01*
G02X113000Y211899I320J-240D01*
G01Y208986D01*
G02X112420Y208629I-400J0D01*
G03Y205771I-720J-1429D01*
G02X113000Y205414I180J-357D01*
G01Y173028D01*
X105318Y165347D01*
X105182Y165433D01*
G03X102835Y163085I-915J-1433D01*
G01X102921Y162950D01*
X95500Y155528D01*
Y141000D01*
X133337D01*
G03X135638I1150J799D01*
G01X146837D01*
G02X147154Y140357I0J-400D01*
G03X146951Y139674I794J-608D01*
G02X146496Y139248I-399J-30D01*
G03X144945Y137503I-197J-1386D01*
G02X144558Y137000I-387J-103D01*
G01X144102D01*
G02X143715Y137503I0J400D01*
G03X141008I-1353J359D01*
G02X140621Y137000I-387J-103D01*
G01X94500D01*
G37*
G36*
G01X188570Y40000D02*
G02X188172Y40434I0J400D01*
G03X185186Y40732I-1495J129D01*
G02X184506Y40494I-397J45D01*
G01X169004Y55996D01*
X169122Y56137D01*
G03X167916Y58604I-1146J968D01*
G02X167500Y59003I-16J400D01*
G01Y62971D01*
X167507Y62996D01*
G03Y63766I-1450J385D01*
G01X167500Y63791D01*
Y74104D01*
G02X167916Y74503I400J0D01*
G03Y77501I60J1499D01*
G02X167500Y77901I-16J400D01*
G01Y78439D01*
G02X168175Y78729I400J0D01*
G03Y80908I1031J1089D01*
G02X167500Y81199I-275J290D01*
G01Y81869D01*
X167507Y81894D01*
G03Y82664I-1450J385D01*
G01X167500Y82689D01*
Y86165D01*
G02X167916Y86565I400J0D01*
G03Y89563I60J1499D01*
G02X167500Y89962I-16J400D01*
G01Y125442D01*
X167511Y125474D01*
G03Y126526I-1511J526D01*
G01X167500Y126558D01*
Y152500D01*
X169500Y154500D01*
X172125D01*
G02X172510Y153991I0J-400D01*
G03X175205I1347J-382D01*
G02X175590Y154500I385J109D01*
G01X176062D01*
G02X176447Y153991I0J-400D01*
G03X179142I1347J-382D01*
G02X179527Y154500I385J109D01*
G01X181500D01*
X185500Y158500D01*
X186000D01*
X188000Y156500D01*
Y123500D01*
X200000Y111500D01*
Y96000D01*
X236000Y60000D01*
X292251D01*
G03X293411Y59402I1249J1000D01*
G02X293600Y59203I-11J-200D01*
G01Y56060D01*
G02X292895Y55801I-400J0D01*
G03Y53599I-1295J-1101D01*
G02X293600Y53340I305J-259D01*
G01Y41100D01*
X292500Y40000D01*
X226366D01*
G02X225967Y40434I0J400D01*
G03X222978I-1495J129D01*
G02X222579Y40000I-399J-34D01*
G01X220066D01*
G02X219668Y40434I0J400D01*
G03X216679I-1495J129D01*
G02X216280Y40000I-399J-34D01*
G01X213767D01*
G02X213369Y40434I0J400D01*
G03X210379I-1495J129D01*
G02X209981Y40000I-399J-34D01*
G01X201169D01*
G02X200770Y40434I0J400D01*
G03X200248Y41706I-1495J129D01*
G02X200186Y42248I259J305D01*
G03X198401Y42266I-886J652D01*
G02X198327Y41726I-327J-230D01*
G03X197781Y40434I949J-1162D01*
G02X197383Y40000I-399J-34D01*
G01X194870D01*
G02X194471Y40434I0J400D01*
G03X191482I-1495J129D01*
G02X191083Y40000I-399J-34D01*
G01X188570D01*
G37*
G36*
G01X482760Y7886D02*
G03X477000Y13267I-12760J-7887D01*
G01Y39500D01*
X437842D01*
G03X437527Y39808I-7141J-7001D01*
G02X437800Y40500I273J292D01*
G01X477000D01*
Y65189D01*
G03Y75811I-3000J5311D01*
G01Y229334D01*
G03Y234667I-3500J2666D01*
G01Y239334D01*
G03Y244666I-3500J2666D01*
G01Y249334D01*
G03Y254666I-3500J2666D01*
G01Y356733D01*
G03X482760Y362114I-7000J13267D01*
G02X483500Y361903I340J-210D01*
G01Y8097D01*
G02X482760Y7886I-400J0D01*
G37*
%LPC*%
G75*
G36*
G01X166570Y32267D02*
G03X165970Y32227I-282J-283D01*
G02X165830Y34333I-1270J973D01*
G03X166430Y34373I282J283D01*
G02X166570Y32267I1270J-973D01*
G37*
G36*
G01X193971Y27379D02*
G03X193933Y26818I265J-299D01*
G02X192198Y26729I-833J-719D01*
G03X192102Y27283I-328J229D01*
G02X193971Y27379I874J1219D01*
G37*
G36*
G01X200230Y27345D02*
G03X200195Y26760I255J-309D01*
G02X198533Y26678I-795J-760D01*
G03X198441Y27256I-315J246D01*
G02X200230Y27345I835J1246D01*
G37*
G36*
G01X203385Y25381D02*
G03X203337Y24814I256J-307D01*
G02X201621Y24761I-837J-714D01*
G03X201538Y25324I-320J240D01*
G02X203385Y25381I887J1210D01*
G37*
G36*
G01X371510Y23081D02*
G02X369812Y23070I-856J1108D01*
G02X367800Y24976I-872J1096D01*
G02X369782Y26907I1141J811D01*
G02X371510Y26919I872J-1096D01*
G02X373222I856J-1108D01*
G02X375220Y25000I856J-1108D01*
G02X373222Y23081I-1141J-811D01*
G02X371510I-856J1108D01*
G37*
G36*
G01X100889Y35309D02*
G03X101330Y34863I397J-48D01*
G02X96373Y26444I670J-6063D01*
G02X94848Y29111I-373J1556D01*
G03Y29389I-144J139D01*
G02Y31611I1151J1111D01*
G03Y31889I-144J139D01*
G02Y34111I1151J1111D01*
G03Y34389I-144J139D01*
G02X96051Y37099I1152J1111D01*
G03X96451Y37599I13J400D01*
G02X97512Y39524I1549J401D01*
G03X97772Y40024I-122J381D01*
G02X98740Y41999I1528J476D01*
G03X98980Y42499I-140J375D01*
G02X101060Y41501I1520J501D01*
G03X100820Y41001I140J-375D01*
G02Y39999I-1520J-501D01*
G03X101060Y39499I380J-125D01*
G02Y36501I-560J-1499D01*
G03X100820Y36001I140J-375D01*
G02X100889Y35309I-1520J-501D01*
G37*
G36*
G01X165935Y24517D02*
G03X166535Y24497I309J254D01*
G02X166465Y22383I1165J-1097D01*
G03X165865Y22403I-309J-254D01*
G02X165935Y24517I-1165J1097D01*
G37*
G36*
G01X355163Y23353D02*
G03X355374Y23196I196J42D01*
G02X353837Y21147I126J-1696D01*
G03X353626Y21304I-196J-42D01*
G02X351837Y22647I-126J1696D01*
G03X351626Y22804I-196J-42D01*
G02X353163Y24853I-126J1696D01*
G03X353374Y24696I196J42D01*
G02X355163Y23353I126J-1696D01*
G37*
G36*
G01X307618Y20343D02*
G03X307142Y20058I-90J-390D01*
G02X303970Y19759I-1642J442D01*
G03X303707Y19854I-180J-87D01*
G02X302656Y23065I-707J1546D01*
G03X302847Y23751I-81J392D01*
G02X302369Y24520I1153J1249D01*
G03X301808Y24765I-384J-113D01*
G02X299860Y25189I-708J1435D01*
G03X299240I-310J-253D01*
G02X296802Y25139I-1240J1011D01*
G03X296222Y25159I-299J-265D01*
G02X296298Y27361I-1122J1141D01*
G03X296878Y27341I299J265D01*
G02X299240Y27211I1122J-1141D01*
G03X299860I310J253D01*
G02X302615Y26715I1240J-1011D01*
G03X303186Y26492I379J129D01*
G02X305663Y25353I815J-1492D01*
G03X305874Y25196I196J42D01*
G02X306905Y24939I126J-1696D01*
G03X307515Y25225I213J339D01*
G02X309723Y23382I1685J-225D01*
G03X309494Y22811I123J-381D01*
G02X307618Y20343I-1494J-811D01*
G37*
G36*
G01X166635Y18603D02*
G03X166035Y18583I-291J-274D01*
G02X165965Y20697I-1235J1017D01*
G03X166565Y20717I291J274D01*
G02X166635Y18603I1235J-1017D01*
G37*
G36*
G01X387663Y19853D02*
G03X387874Y19696I196J42D01*
G02X386337Y17647I126J-1696D01*
G03X386126Y17804I-196J-42D01*
G02X384337Y19147I-126J1696D01*
G03X384126Y19304I-196J-42D01*
G02X385663Y21353I-126J1696D01*
G03X385874Y21196I196J42D01*
G02X387663Y19853I126J-1696D01*
G37*
G36*
G01X204461Y17651D02*
G03X204544Y17089I320J-240D01*
G02X202454Y16780I-889J-1208D01*
G03X202371Y17342I-320J240D01*
G02X204461Y17651I889J1208D01*
G37*
G36*
G01X199047Y17000D02*
G03X198743Y16453I66J-395D01*
G02X197109Y17361I-1387J-572D01*
G03X197413Y17908I-66J395D01*
G02X199047Y17000I1387J572D01*
G37*
G36*
G01X191985Y14703D02*
G03X191957Y14098I248J-314D01*
G02X190359Y14010I-757J-798D01*
G03X190265Y14607I-306J258D01*
G02X191985Y14703I792J1274D01*
G37*
G36*
G01X185641Y14669D02*
G03X185589Y14066I236J-323D01*
G02X183986Y14040I-789J-766D01*
G03X183915Y14640I-296J269D01*
G02X185641Y14669I843J1241D01*
G37*
G36*
G01X182475Y15219D02*
G03X182515Y14616I282J-284D01*
G02X180789Y14678I-907J-1195D01*
G03X180871Y15276I-218J335D01*
G02X182475Y15219I829J724D01*
G37*
G36*
G01X276058Y20642D02*
G03X276343Y21118I-104J386D01*
G02X277921Y23198I1657J382D01*
G03X278302Y23579I-19J400D01*
G02X279921Y25198I1698J-79D01*
G03X280302Y25579I-19J400D01*
G02X283175Y26729I1698J-79D01*
G03X283746Y26748I276J289D01*
G02X283825Y24371I1254J-1148D01*
G03X283254Y24352I-276J-289D01*
G02X282079Y23802I-1254J1148D01*
G03X281698Y23421I19J-400D01*
G02X281669Y23176I-1698J80D01*
G03X282132Y22706I393J-76D01*
G02X277632Y14208I1068J-6006D01*
G03X277121Y14417I-365J-163D01*
G02X275310Y17214I-621J1583D01*
G03Y17786I-280J286D01*
G02X276058Y20642I1190J1214D01*
G37*
G36*
G01X200498Y8736D02*
G03X200540Y8223I326J-232D01*
G02X198155Y8105I-1140J-1123D01*
G03X198145Y8619I-311J251D01*
G02X200498Y8736I1131J986D01*
G37*
G36*
G01X113808Y51724D02*
G02X112391Y51593I-576J-1493D01*
G03X112324Y52306I-210J340D01*
G02X113742Y52438I576J1493D01*
G03X113808Y51724I210J-340D01*
G37*
G36*
G01X126698Y47584D02*
G02X125731Y49035I-1698J-84D01*
G03X126302Y49416I172J361D01*
G02X127269Y47965I1698J84D01*
G03X126698Y47584I-172J-361D01*
G37*
G36*
G01X120535Y40730D02*
G02X119084Y41698I-1535J-731D01*
G03X119465Y42270I20J400D01*
G02X120916Y41302I1535J731D01*
G03X120535Y40730I-20J-400D01*
G37*
G36*
G01X69214Y37810D02*
G02X67060Y40417I-1214J1190D01*
G03Y41083I-221J333D01*
G02X69214Y43690I940J1417D01*
G03X69786I286J280D01*
G02X72417Y43440I1214J-1190D01*
G03X73083I333J221D01*
G02X75917I1417J-940D01*
G03X76583I333J221D01*
G02X79417I1417J-940D01*
G03X80083I333J221D01*
G02X82440Y41083I1417J-940D01*
G03Y40417I221J-333D01*
G02X80083Y38060I-940J-1417D01*
G03X79417I-333J-221D01*
G02X76583I-1417J940D01*
G03X75917I-333J-221D01*
G02X73083I-1417J940D01*
G03X72417I-333J-221D01*
G02X69786Y37810I-1417J940D01*
G03X69214I-286J-280D01*
G37*
G36*
G01X187604Y22846D02*
G02X185776Y22865I-927J-1180D01*
G03X185816Y23144I-120J160D01*
G02X186040Y24680I884J655D01*
G03Y25320I-240J320D01*
G02X185790Y26819I660J880D01*
G03X185716Y27351I-331J225D01*
G02X187661Y27370I961J1152D01*
G03X187597Y26837I262J-302D01*
G02X187360Y25320I-897J-637D01*
G03Y24680I240J-320D01*
G02X187569Y23126I-660J-880D01*
G03X187604Y22846I158J-123D01*
G37*
G36*
G01X191296Y21202D02*
G02X189575Y20316I-336J-1462D01*
G03X189391Y20825I-369J154D01*
G02X189240Y22680I509J975D01*
G03Y23320I-240J320D01*
G02X188987Y24814I660J880D01*
G03X188902Y25353I-332J223D01*
G02X190824Y25413I925J1181D01*
G03X190772Y24870I266J-299D01*
G02X190560Y23320I-872J-670D01*
G03Y22680I240J-320D01*
G02X190990Y21647I-660J-880D01*
G03X191296Y21202I396J-55D01*
G37*
G36*
G01X183195Y20067D02*
G02X182050Y21046I-1415J-497D01*
G03X182517Y21509I72J393D01*
G02X182940Y22580I1083J191D01*
G03Y23220I-240J320D01*
G02X182721Y24762I660J880D01*
G03X182639Y25325I-319J241D01*
G02X184486Y25380I889J1209D01*
G03X184438Y24813I256J-308D01*
G02X184260Y23220I-838J-713D01*
G03Y22580I240J-320D01*
G02X183580Y20600I-660J-880D01*
G03X183195Y20067I-7J-400D01*
G37*
G36*
G01X195747Y20138D02*
G02X194679Y20990I-1367J-618D01*
G03X195143Y21493I80J392D01*
G02X195540Y22680I1057J307D01*
G03Y23320I-240J320D01*
G02X195287Y24814I660J880D01*
G03X195202Y25352I-332J223D01*
G02X197123Y25413I924J1182D01*
G03X197072Y24871I266J-299D01*
G02X196860Y23320I-872J-671D01*
G03Y22680I240J-320D01*
G02X196135Y20702I-660J-880D01*
G03X195747Y20138I-24J-399D01*
G37*
G36*
G01X371046Y17794D02*
G02X370787Y19611I-1547J706D01*
G03X371454Y19706I303J261D01*
G02X371713Y17889I1547J-706D01*
G03X371046Y17794I-303J-261D01*
G37*
G36*
G01X220871Y13112D02*
G02X219670Y14898I-1468J309D01*
G03X220132Y15209I71J394D01*
G02X220543Y15964I1468J-309D01*
G03X220459Y16596I-282J284D01*
G02X222503Y18644I742J1304D01*
G03X223197I347J198D01*
G02Y17156I1303J-744D01*
G03X222503I-347J-198D01*
G02X222257Y16836I-1303J744D01*
G03X222342Y16204I282J-284D01*
G02X221334Y13424I-741J-1304D01*
G03X220871Y13112I-71J-394D01*
G37*
G36*
G01X188767Y14651D02*
G02X187134Y14707I-860J-1229D01*
G03X187214Y15330I-206J343D01*
G02X188731Y15277I786J770D01*
G03X188767Y14651I266J-299D01*
G37*
G36*
G01X169829Y10171D02*
G02X166835Y9057I-1529J-471D01*
G03X166135Y9117I-366J-161D01*
G02X166265Y10643I-1335J883D01*
G03X166965Y10583I366J161D01*
G02X168771Y11229I1335J-883D01*
G03X169271Y11729I118J382D01*
G02X170329Y10671I1529J471D01*
G03X169829Y10171I-118J-382D01*
G37*
G36*
G01X373802Y367700D02*
G03X373406Y367244I0J-400D01*
G02X371820Y368622I-1585J-223D01*
G03X372215Y369077I0J400D01*
G02X373802Y367700I1585J223D01*
G37*
G36*
G01X303640Y356320D02*
G03X303080Y356240I-240J-320D01*
G02X300599Y356143I-1280J960D01*
G03X300039Y356183I-300J-264D01*
G02X300201Y358457I-1039J1217D01*
G03X300761Y358417I300J264D01*
G02X302760Y358480I1039J-1217D01*
G03X303320Y358560I240J320D01*
G02X305798Y358661I1280J-960D01*
G03X306378Y358641I299J265D01*
G02X306302Y356439I1122J-1141D01*
G03X305722Y356459I-299J-265D01*
G02X303640Y356320I-1122J1141D01*
G37*
G36*
G01X276517Y355364D02*
G03X275998Y355006I-121J-381D01*
G02X274883Y356626I-1597J94D01*
G03X275402Y356984I121J381D01*
G02X276517Y355364I1597J-94D01*
G37*
G36*
G01X115692Y357039D02*
G03X116072Y356599I398J-40D01*
G02X114408Y355162I-72J-1599D01*
G03X114028Y355601I-398J40D01*
G02X115692Y357039I72J1599D01*
G37*
G36*
G01X46214Y353490D02*
G03X46786I286J280D01*
G02Y351110I1214J-1190D01*
G03X46214I-286J-280D01*
G02Y353490I-1214J1190D01*
G37*
G36*
G01X33337Y347947D02*
G03X33126Y348104I-196J-42D01*
G02X31337Y349447I-126J1696D01*
G03X31126Y349604I-196J-42D01*
G02X32663Y351653I-126J1696D01*
G03X32874Y351496I196J42D01*
G02X34663Y350153I126J-1696D01*
G03X34874Y349996I196J42D01*
G02X33337Y347947I126J-1696D01*
G37*
G36*
G01X42780Y346300D02*
G02X44778Y348219I1141J811D01*
G02X46490I856J-1108D01*
G02X48188Y348230I856J-1108D01*
G02X50200Y346324I872J-1096D01*
G02X48218Y344393I-1141J-811D01*
G02X46490Y344381I-872J1096D01*
G02X44778I-856J1108D01*
G02X42780Y346300I-856J1108D01*
G37*
G36*
G01X338157Y342439D02*
G03X338368Y341905I364J-165D01*
G02X336297Y341088I-614J-1478D01*
G03X336086Y341622I-364J165D01*
G02X338157Y342439I614J1478D01*
G37*
G36*
G01X119810Y340714D02*
G03Y341286I-280J286D01*
G02X121871Y343960I1190J1214D01*
G03X122134Y344013I102J172D01*
G02X124714Y344190I1366J-1013D01*
G03X125286I286J280D01*
G02X127859Y341978I1214J-1190D01*
G03X127954Y341407I320J-240D01*
G02X125786Y338810I-954J-1407D01*
G03X125214I-286J-280D01*
G02X122979Y338641I-1214J1190D01*
G03X122407Y338546I-240J-320D01*
G02X122190Y338286I-1407J954D01*
G03Y337714I280J-286D01*
G02Y335286I-1190J-1214D01*
G03Y334714I280J-286D01*
G02X119810I-1190J-1214D01*
G03Y335286I-280J286D01*
G02Y337714I1190J1214D01*
G03Y338286I-280J286D01*
G02Y340714I1190J1214D01*
G37*
G36*
G01X30286Y331610D02*
G03X29714I-286J-280D01*
G02X27310Y334014I-1214J1190D01*
G03Y334586I-280J286D01*
G02Y337014I1190J1214D01*
G03Y337586I-280J286D01*
G02X29544Y337458I1190J1214D01*
G03Y337142I123J-158D01*
G02X29675Y337029I-1044J-1342D01*
G03X29990Y337082I138J145D01*
G02X32162Y334734I1510J-782D01*
G03Y334366I78J-184D01*
G02X32360Y334266I-663J-1566D01*
G03X32932Y334457I202J345D01*
G02X33640Y332334I1568J-657D01*
G03X33068Y332143I-202J-345D01*
G02X30286Y331610I-1568J657D01*
G37*
G36*
G01X402373Y326327D02*
G02X404627Y324073I1227J-1027D01*
G02X402373Y326327I-1227J1027D01*
G37*
G36*
G01X71232Y317258D02*
G03X71421Y317743I-189J353D01*
G02X72290Y319838I1605J562D01*
G03X72387Y320098I-86J180D01*
G02X74680Y319247I1558J681D01*
G03X74583Y318986I86J-180D01*
G02X73828Y316806I-1558J-681D01*
G03X73640Y316322I189J-353D01*
G02X71232Y317258I-1605J-562D01*
G37*
G36*
G01X386798Y304400D02*
G03X386398Y303980I0J-400D01*
G02X383202I-1598J-80D01*
G03X382802Y304400I-399J20D01*
G01X345500D01*
Y310776D01*
G03X345031Y311170I-400J0D01*
G02Y314322I-276J1576D01*
G03X345500Y314716I69J394D01*
G01Y347000D01*
X364739D01*
G02X367092I1177J-1084D01*
G01X374347D01*
G02X377170I1411J-754D01*
G01X394040D01*
G03X394432Y347480I0J400D01*
G02X397568I1568J320D01*
G03X397960Y347000I392J-80D01*
G01X399500D01*
Y310398D01*
G03X399920Y309998I400J0D01*
G02Y306802I80J-1598D01*
G03X399500Y306402I-20J-399D01*
G01Y304400D01*
X386798D01*
G37*
G36*
G01X239391Y286179D02*
G03X239175Y286016I-19J-199D01*
G02X236244Y287150I-1575J284D01*
G03X236195Y287416I-169J106D01*
G02X239391Y286179I3805J5084D01*
G37*
G36*
G01X294662Y286292D02*
G03X294182Y285961I-84J-391D01*
G02X291532Y287392I-1582J239D01*
G03X291545Y287974I-267J298D01*
G02X294662Y286292I4455J4526D01*
G37*
G36*
G01X162018Y268769D02*
G03X161498Y268410I-121J-381D01*
G02X159202Y269940I-1598J90D01*
G03Y270660I-174J360D01*
G02X161498Y272182I698J1440D01*
G03X162018Y271821I399J20D01*
G02X163538Y271513I482J-1526D01*
G03X164058Y271514I259J305D01*
G02X164062Y269082I1042J-1214D01*
G03X163542Y269081I-259J-305D01*
G02X162018Y268769I-1042J1214D01*
G37*
G36*
G01X294000Y279046D02*
G03X294494Y278669I400J12D01*
G02X291570Y277049I1506J-6169D01*
G03X291512Y277669I-279J287D01*
G02X294000Y279046I888J1331D01*
G37*
G36*
G01X459500Y258000D02*
X444589D01*
X444533Y257889D01*
G02X441667I-1433J711D01*
G01X441611Y258000D01*
X405500D01*
Y259002D01*
G03X405080Y259402I-400J0D01*
G02Y262598I-80J1598D01*
G03X405500Y262998I20J399D01*
G01Y299500D01*
X411767D01*
G02X413633I933J-1300D01*
G01X421442D01*
X421474Y299511D01*
G02X422526I526J-1511D01*
G01X422558Y299500D01*
X436751D01*
G02X439249I1249J-1000D01*
G01X444500D01*
Y287000D01*
X459500D01*
Y258000D01*
G37*
G36*
G01X352158Y249608D02*
G02X350158I-1000J1249D01*
G02X347908Y251857I-1000J1249D01*
G02Y253857I1249J1000D01*
G02Y255857I1249J1000D01*
G02X350158Y258107I1249J1000D01*
G02X352158I1000J-1249D01*
G02X354158I1000J-1249D01*
G02X356407Y255857I1000J-1249D01*
G02Y253857I-1249J-1000D01*
G02Y251857I-1249J-1000D01*
G02X354158Y249608I-1249J-1000D01*
G02X352158I-1000J1249D01*
G37*
G36*
G01X249433Y224207D02*
G03X249167I-133J-149D01*
G02Y226593I-1067J1193D01*
G03X249433I133J149D01*
G02Y224207I1067J-1193D01*
G37*
G36*
G01X438128Y194705D02*
G03X437604I-262J-302D01*
G02X435205Y197104I-1116J1284D01*
G03Y197628I-302J262D01*
G02Y199860I1284J1116D01*
G03Y200384I-302J262D01*
G02Y202616I1284J1116D01*
G03Y203140I-302J262D01*
G02Y205372I1284J1116D01*
G03Y205896I-302J262D01*
G02X437604Y208295I1284J1116D01*
G03X438128I262J302D01*
G02X440360I1116J-1284D01*
G03X440884I262J302D01*
G02X443116I1116J-1284D01*
G03X443640I262J302D01*
G02X445872I1116J-1284D01*
G03X446396I262J302D01*
G02X448795Y205896I1116J-1284D01*
G03Y205372I302J-262D01*
G02Y203140I-1284J-1116D01*
G03Y202616I302J-262D01*
G02Y200384I-1284J-1116D01*
G03Y199860I302J-262D01*
G02Y197628I-1284J-1116D01*
G03Y197104I302J-262D01*
G02X446396Y194705I-1284J-1116D01*
G03X445872I-262J-302D01*
G02X443640I-1116J1284D01*
G03X443116I-262J-302D01*
G02X440884I-1116J1284D01*
G03X440360I-262J-302D01*
G02X438128I-1116J1284D01*
G37*
G36*
G01X185519Y164028D02*
G02X185950Y166792I150J1392D01*
G02X185519Y164028I-150J-1392D01*
G37*
G36*
G01X219702Y145684D02*
G02X222499Y145651I1399J51D01*
G02X219702Y145684I-1399J-51D01*
G37*
G36*
G01X227804Y138629D02*
G02X230171Y137133I1196J-729D01*
G02X227804Y138629I-1196J729D01*
G37*
G36*
G01X466912Y117698D02*
G03X466745Y117920I-198J25D01*
G02X465405Y119629I255J1580D01*
G03X465105Y120049I-399J32D01*
G02X467095Y121471I395J1551D01*
G03X467395Y121051I399J-32D01*
G02X468588Y119302I-395J-1551D01*
G03X468755Y119080I198J-25D01*
G02X466912Y117698I-255J-1580D01*
G37*
G36*
G01X381690Y106786D02*
G03Y106214I280J-286D01*
G02X378858Y104558I-1190J-1214D01*
G03X378382Y104843I-386J-104D01*
G02X376810Y107714I-382J1657D01*
G03Y108286I-280J286D01*
G02Y110714I1190J1214D01*
G03Y111286I-280J286D01*
G02Y113714I1190J1214D01*
G03Y114286I-280J286D01*
G02X379642Y115942I1190J1214D01*
G03X380118Y115657I386J104D01*
G02X381690Y112786I382J-1657D01*
G03Y112214I280J-286D01*
G02Y109786I-1190J-1214D01*
G03Y109214I280J-286D01*
G02Y106786I-1190J-1214D01*
G37*
G36*
G01X298126Y93973D02*
G03X298680Y94380I156J368D01*
G02X299572Y91704I6320J620D01*
G03X298884Y91697I-342J-208D01*
G02X298126Y93973I-1384J803D01*
G37*
G36*
G01X291116Y91697D02*
G03X290428Y91704I-346J-201D01*
G02X291320Y94380I-5428J3296D01*
G03X291874Y93973I398J-39D01*
G02X291116Y91697I626J-1473D01*
G37*
G36*
G01X244548Y90196D02*
G03X244908Y89696I387J-101D01*
G02X243252Y88504I-108J-1597D01*
G03X242892Y89004I-387J101D01*
G02X244548Y90196I108J1597D01*
G37*
G36*
G01X404960Y77989D02*
G03X404340I-310J-253D01*
G02Y80011I-1240J1011D01*
G03X404960I310J253D01*
G02Y77989I1240J-1011D01*
G37*
G36*
G01X358286Y76310D02*
G03X357714I-286J-280D01*
G02X355310Y78714I-1214J1190D01*
G03Y79286I-280J286D01*
G02X357714Y81690I1190J1214D01*
G03X358286I286J280D01*
G02X360714I1214J-1190D01*
G03X361286I286J280D01*
G02X363714I1214J-1190D01*
G03X364286I286J280D01*
G02X366690Y79286I1214J-1190D01*
G03Y78714I280J-286D01*
G02X364286Y76310I-1190J-1214D01*
G03X363714I-286J-280D01*
G02X361286I-1214J1190D01*
G03X360714I-286J-280D01*
G02X358286I-1214J1190D01*
G37*
G36*
G01X288534Y80276D02*
G02X290654Y77891I966J-1276D01*
G02X288534Y80276I-5654J-2891D01*
G37*
G36*
G01X441742Y71241D02*
G03X441952Y71094I193J52D01*
G02X440458Y68959I147J-1694D01*
G03X440248Y69106I-193J-52D01*
G02X438435Y70456I-147J1694D01*
G03X438214Y70613I-196J-41D01*
G02X439665Y72645I-214J1687D01*
G03X439886Y72487I196J41D01*
G02X441742Y71241I214J-1687D01*
G37*
G36*
G01X356892Y51406D02*
G03X356645Y50930I139J-375D01*
G02X354408Y52094I-1645J-430D01*
G03X354655Y52570I-139J375D01*
G02X355634Y54565I1645J430D01*
G03X355863Y55041I-157J368D01*
G02X358166Y53936I1637J459D01*
G03X357937Y53459I157J-368D01*
G02X356892Y51406I-1637J-459D01*
G37*
G36*
G01X338083Y49560D02*
G03X337417I-333J-221D01*
G02X334355Y50930I-1417J940D01*
G03X334108Y51406I-387J101D01*
G02X333063Y53459I592J1594D01*
G03X332834Y53936I-385J108D01*
G02X334917Y56440I665J1565D01*
G03X335583I333J221D01*
G02X338417I1417J-940D01*
G03X339083I333J221D01*
G02X342137Y55041I1417J-940D01*
G03X342366Y54565I385J-108D01*
G02X343345Y52570I-665J-1565D01*
G03X343592Y52094I387J-101D01*
G02X341583Y49560I-592J-1594D01*
G03X340917I-333J-221D01*
G02X338083I-1417J940D01*
G37*
G36*
G01X377142Y358929D02*
G02X375760Y360092I-1542J-429D01*
G03X376185Y360598I40J398D01*
G02X377567Y359435I1542J429D01*
G03X377142Y358929I-40J-398D01*
G37*
G36*
G01X367522Y358092D02*
G02X364442Y357964I-1523J-493D01*
G03X364031Y358455I-389J91D01*
G02X365505Y359689I-84J1598D01*
G03X365916Y359198I389J-91D01*
G02X365985Y359200I83J-1598D01*
G03X366362Y359723I-4J400D01*
G02X367899Y358616I1523J493D01*
G03X367522Y358092I4J-400D01*
G37*
G36*
G01X250279Y350361D02*
G02X248961Y351679I-1579J-261D01*
G03X249421Y352139I65J395D01*
G02X250739Y350821I1579J261D01*
G03X250279Y350361I-65J-395D01*
G37*
G36*
G01X145034Y334882D02*
G02X142801Y332434I-834J-1481D01*
G03X142172Y332472I-329J-227D01*
G02X139721Y332375I-1272J1128D01*
G03X139188Y332394I-277J-288D01*
G02X139279Y334925I-1088J1306D01*
G03X139812Y334906I277J288D01*
G02X142299Y334566I1088J-1306D01*
G03X142928Y334528I329J227D01*
G02X143285Y334833I1272J-1128D01*
G03X143266Y335518I-215J337D01*
G02X142607Y336187I834J1481D01*
G03X141997Y336301I-351J-191D01*
G02X142393Y338413I-1097J1299D01*
G03X143003Y338299I351J191D01*
G02X143266Y338482I1097J-1299D01*
G03X143285Y339167I-196J349D01*
G02X142586Y340066I915J1433D01*
G03X141938Y340237I-380J-126D01*
G02X142414Y342034I-1138J1263D01*
G03X143062Y341863I380J126D01*
G02X145034Y339118I1138J-1263D01*
G03X145015Y338433I196J-349D01*
G02Y335567I-915J-1433D01*
G03X145034Y334882I215J-337D01*
G37*
G36*
G01X332440Y332259D02*
G02X331202Y330623I360J-1559D01*
G03X330712Y330994I-400J-19D01*
G02X328753Y332585I-360J1559D01*
G03X328247Y332979I-400J8D01*
G02X329421Y334489I-425J1543D01*
G03X329927Y334095I400J-8D01*
G02X331951Y332630I425J-1543D01*
G03X332440Y332259I400J19D01*
G37*
G36*
G01X335920Y321798D02*
G02X334400Y320202I80J-1598D01*
G03X333980Y320602I-400J1D01*
G02X333202Y323640I-80J1598D01*
G03Y324360I-174J360D01*
G02X334598I698J1440D01*
G03Y323640I174J-360D01*
G02X335500Y322198I-698J-1440D01*
G03X335920Y321798I400J-1D01*
G37*
G36*
G01X57351Y316663D02*
G02X56053Y317961I-1661J-363D01*
G03X56529Y318437I85J391D01*
G02X59851I1661J363D01*
G03X60327Y317961I391J-85D01*
G02X61053I363J-1661D01*
G03X61529Y318437I85J391D01*
G02X64851I1661J363D01*
G03X65327Y317961I391J-85D01*
G02X64029Y316663I363J-1661D01*
G03X63553Y317139I-391J85D01*
G02X62827I-363J1661D01*
G03X62351Y316663I-85J-391D01*
G02X59029I-1661J-363D01*
G03X58553Y317139I-391J85D01*
G02X57827I-363J1661D01*
G03X57351Y316663I-85J-391D01*
G37*
G36*
G01X97228Y316692D02*
G02X94863Y317732I-1628J-492D01*
G03X95072Y318208I-173J360D01*
G02X95963Y320232I1628J492D01*
G03X96172Y320708I-173J360D01*
G02X96860Y322617I1628J492D01*
G03Y323283I-221J333D01*
G02Y326117I940J1417D01*
G03Y326783I-221J333D01*
G02X98740I940J1417D01*
G03Y326117I221J-333D01*
G02Y323283I-940J-1417D01*
G03Y322617I221J-333D01*
G02X98537Y319668I-940J-1417D01*
G03X98328Y319192I173J-360D01*
G02X97437Y317168I-1628J-492D01*
G03X97228Y316692I173J-360D01*
G37*
G36*
G01X92728D02*
G02X90363Y317732I-1628J-492D01*
G03X90572Y318208I-173J360D01*
G02X91463Y320232I1628J492D01*
G03X91672Y320708I-173J360D01*
G02X92360Y322617I1628J492D01*
G03Y323283I-221J333D01*
G02Y326117I940J1417D01*
G03Y326783I-221J333D01*
G02X94240I940J1417D01*
G03Y326117I221J-333D01*
G02Y323283I-940J-1417D01*
G03Y322617I221J-333D01*
G02X94037Y319668I-940J-1417D01*
G03X93828Y319192I173J-360D01*
G02X92937Y317168I-1628J-492D01*
G03X92728Y316692I173J-360D01*
G37*
G36*
G01X88228D02*
G02X85863Y317732I-1628J-492D01*
G03X86073Y318208I-173J360D01*
G02X86963Y320232I1628J492D01*
G03X87173Y320708I-173J360D01*
G02X87860Y322617I1628J492D01*
G03Y323283I-221J333D01*
G02X89740I940J1417D01*
G03Y322617I221J-333D01*
G02X89537Y319668I-940J-1417D01*
G03X89328Y319192I173J-360D01*
G02X88437Y317168I-1628J-492D01*
G03X88228Y316692I173J-360D01*
G37*
G36*
G01X359489Y299925D02*
G02X356519Y299732I-1447J-683D01*
G03X356125Y300255I-381J123D01*
G02X355906Y300263I-52J1599D01*
G03X355686Y300090I-21J-199D01*
G02X354268Y301891I-1586J210D01*
G03X354487Y302064I21J199D01*
G02X357596Y301364I1586J-210D01*
G03X357990Y300841I381J-123D01*
G02X358170Y300837I52J-1599D01*
G03X358563Y301406I32J399D01*
G02X359882Y300495I1447J683D01*
G03X359489Y299925I-32J-399D01*
G37*
G36*
G01X204724Y270665D02*
G02X204476Y269211I1276J-965D01*
G03X203776Y269330I-381J-122D01*
G02X204024Y270784I-1276J965D01*
G03X204724Y270665I381J122D01*
G37*
G36*
G01X125798Y270040D02*
G02X123509Y268432I-698J-1440D01*
G03X122989Y268771I-398J-42D01*
G02X121418Y269116I-489J1524D01*
G03X120878Y269117I-271J-295D01*
G02X120882Y271479I-1078J1183D01*
G03X121422Y271478I271J295D01*
G02X122980Y271822I1078J-1183D01*
G03X123500Y272203I120J382D01*
G02X125798Y270760I1600J-2D01*
G03Y270040I174J-360D01*
G37*
G36*
G01X351670Y266094D02*
G02X350283Y267086I-1481J-605D01*
G03X350676Y267637I23J399D01*
G02X352064Y266645I1481J605D01*
G03X351670Y266094I-23J-399D01*
G37*
G36*
G01X348417Y232560D02*
G02Y234440I-1417J940D01*
G03X349083I333J221D01*
G02Y232560I1417J-940D01*
G03X348417I-333J-221D01*
G37*
G36*
G01X355838Y232676D02*
G02Y234124I-1538J724D01*
G03X356562I362J170D01*
G02Y232676I1538J-724D01*
G03X355838I-362J-170D01*
G37*
G36*
G01X404638Y209576D02*
G02X402009Y211604I-1538J724D01*
G03X401990Y212232I-257J307D01*
G02X402060Y215017I1010J1368D01*
G03Y215683I-221J333D01*
G02X403940I940J1417D01*
G03Y215017I221J-333D01*
G02X404091Y212296I-940J-1417D01*
G03X404110Y211668I257J-307D01*
G02X404638Y211024I-1010J-1368D01*
G03X405362I362J170D01*
G02X405840Y211630I1538J-725D01*
G03X405859Y212239I-249J313D01*
G02X406060Y214917I1141J1261D01*
G03Y215583I-221J333D01*
G02X408433Y217915I940J1417D01*
G03X409119Y217934I337J215D01*
G02X411540Y215683I1481J-834D01*
G03Y215017I221J-333D01*
G02X411691Y212296I-940J-1417D01*
G03X411710Y211668I257J-307D01*
G02X409162Y209576I-1010J-1368D01*
G03X408438I-362J-170D01*
G02X405362I-1538J725D01*
G03X404638I-362J-170D01*
G37*
G36*
G01X400110Y211668D02*
G02X398009Y211604I-1010J-1368D01*
G03X397990Y212232I-257J307D01*
G02X398060Y215017I1010J1368D01*
G03Y215683I-221J333D01*
G02X399940I940J1417D01*
G03Y215017I221J-333D01*
G02X400091Y212296I-940J-1417D01*
G03X400110Y211668I257J-307D01*
G37*
G36*
G01X274370Y208212D02*
G02X273119Y209317I-1529J-472D01*
G03X273571Y209828I69J394D01*
G02X274822Y208724I1529J472D01*
G03X274370Y208212I-69J-394D01*
G37*
G36*
G01X408340Y198802D02*
G02Y200198I-1440J698D01*
G03X409060I360J174D01*
G02Y198802I1440J-698D01*
G03X408340I-360J-174D01*
G37*
G36*
G01X430206Y181790D02*
G02X427181Y180237I-1506J-790D01*
G03X426476Y180256I-357J-180D01*
G02X423308Y181264I-1476J844D01*
G03X422889Y181702I-398J39D01*
G02X421166Y182929I-89J1698D01*
G03X420519Y183120I-384J-111D01*
G02X419840Y186042I-1119J1280D01*
G03X420336Y186347I104J386D01*
G02X423562Y185329I1664J-347D01*
G03X423714Y184833I367J-158D01*
G02X424175Y184400I-914J-1433D01*
G03X424880Y184514I323J235D01*
G02X427917Y184940I1620J-515D01*
G03X428583I333J221D01*
G02X430453Y182361I1417J-940D01*
G03X430206Y181790I107J-386D01*
G37*
G36*
G01X450000Y174625D02*
G02Y176175I-1400J775D01*
G03X450700I350J194D01*
G02X453500I1400J-775D01*
G03X454200I350J194D01*
G02Y174625I1400J-775D01*
G03X453500I-350J-194D01*
G02X450700I-1400J775D01*
G03X450000I-350J-194D01*
G37*
G36*
G01X413440Y151417D02*
G02X411560I-940J-1417D01*
G03Y152083I-221J333D01*
G02X413440I940J1417D01*
G03Y151417I221J-333D01*
G37*
G36*
G01X456354Y148853D02*
G02X454646I-854J-1353D01*
G03X454636Y149536I-214J338D01*
G02X456364I864J1464D01*
G03X456354Y148853I203J-344D01*
G37*
G36*
G01X434354D02*
G02X432646I-854J-1353D01*
G03X432636Y149536I-214J338D01*
G02X434364I864J1464D01*
G03X434354Y148853I203J-344D01*
G37*
G36*
G01X202330Y146797D02*
G02X200503I-913J-1061D01*
G03X200242Y147500I-261J303D01*
G01X199500D01*
Y150414D01*
X200834Y151748D01*
G03X200743Y152382I-283J283D01*
G02X202644Y154283I673J1228D01*
G03X203278Y154192I351J192D01*
G01X204586Y155500D01*
X211000D01*
Y152586D01*
X209921Y151507D01*
G03X210001Y150879I283J-283D01*
G02X208084Y148962I-710J-1207D01*
G03X207456Y149042I-345J-203D01*
G01X205914Y147500D01*
X205490D01*
Y147138D01*
X205648Y147104D01*
G02X204440Y146797I-294J-1369D01*
G03X204179Y147500I-261J303D01*
G01X202591D01*
G03X202330Y146797I0J-400D01*
G37*
G36*
G01X385000Y122500D02*
X357500D01*
Y150700D01*
X355933D01*
G02X355514Y150484I-933J1300D01*
G01X355470Y150470D01*
X355000Y150000D01*
X316558D01*
X316526Y149989D01*
G02X315474I-526J1511D01*
G01X315442Y150000D01*
X311353D01*
X311347Y149806D01*
G02X298653I-6347J194D01*
G01X298647Y150000D01*
X291353D01*
X291347Y149806D01*
G02X278653I-6347J194D01*
G01X278647Y150000D01*
X274908D01*
G03X274526Y149480I0J-400D01*
G02X271474I-1526J-480D01*
G03X271092Y150000I-382J120D01*
G01X259908D01*
G03X259526Y149480I0J-400D01*
G02X256474I-1526J-480D01*
G03X256092Y150000I-382J120D01*
G01X241724D01*
G02X241676I-24J1600D01*
G01X235000D01*
Y172500D01*
X234066D01*
G02X231760I-1153J794D01*
G01X218318D01*
G02X216012I-1153J794D01*
G01X214381D01*
G02X212075I-1153J794D01*
G01X210444D01*
G02X209465Y171905I-1153J795D01*
G01X209397Y171897D01*
X208939Y171439D01*
G03X209237Y170757I283J-283D01*
G02X209996Y170567I53J-1399D01*
G02X208694Y168090I-596J-1267D01*
G02X207891Y169411I596J1267D01*
G03X207209Y169709I-400J15D01*
G01X206751Y169251D01*
X206743Y169183D01*
G02X205528Y167968I-1389J174D01*
G01X205460Y167960D01*
X205000Y167500D01*
X202414D01*
X172086Y167500D01*
X167414Y167500D01*
X160414Y167500D01*
X159212Y166298D01*
X159297Y166163D01*
G02X157367Y164233I-1187J-742D01*
G01X157232Y164318D01*
X155275Y162361D01*
X155360Y162226D01*
G02X152775Y161574I-1187J-742D01*
G03X152376Y162000I-399J26D01*
G01X152032D01*
G03X151633Y161574I0J-400D01*
G02X150130Y162880I-1397J-91D01*
G03X150500Y163279I-30J399D01*
G01Y163625D01*
G03X150130Y164024I-400J0D01*
G02Y166817I106J1396D01*
G03X150500Y167216I-30J399D01*
G01Y167562D01*
G03X150130Y167961I-400J0D01*
G02Y170754I106J1396D01*
G03X150500Y171153I-30J399D01*
G01Y171499D01*
G03X150130Y171898I-400J0D01*
G02Y174691I106J1396D01*
G03X150500Y175090I-30J399D01*
G01Y175436D01*
G03X150130Y175835I-400J0D01*
G02Y178628I106J1396D01*
G03X150500Y179027I-30J399D01*
G01Y179373D01*
G03X150130Y179772I-400J0D01*
G02Y182565I106J1396D01*
G03X150500Y182964I-30J399D01*
G01Y183310D01*
G03X150130Y183709I-400J0D01*
G02Y186502I106J1396D01*
G03X150500Y186901I-30J399D01*
G01Y187247D01*
G03X150130Y187646I-400J0D01*
G02Y190439I106J1396D01*
G03X150500Y190838I-30J399D01*
G01Y191184D01*
G03X150130Y191583I-400J0D01*
G02Y194376I106J1396D01*
G03X150500Y194775I-30J399D01*
G01Y195121D01*
G03X150130Y195520I-400J0D01*
G02Y198313I106J1396D01*
G03X150500Y198712I-30J399D01*
G01Y199058D01*
G03X150130Y199457I-400J0D01*
G02X151590Y200501I106J1396D01*
G03X151978Y200000I387J-101D01*
G01X156367D01*
G03X156754Y200501I0J400D01*
G02X159464I1355J353D01*
G03X159852Y200000I387J-101D01*
G01X161914D01*
X164235Y197679D01*
G03X164844Y197730I283J283D01*
G02X167384Y196904I1140J-813D01*
G03X167784Y196500I400J-4D01*
G01X170586D01*
X171000Y196914D01*
Y199186D01*
G03X170449Y199557I-400J0D01*
G02X170690Y202023I-528J1297D01*
G03X171000Y202190I110J167D01*
G01Y202414D01*
X172651Y204066D01*
X172591Y204193D01*
G02X175224Y204487I1266J598D01*
G03X175615Y204000I390J-87D01*
G01X178914D01*
X180914Y202000D01*
X181046Y202075D01*
G02X182953Y200168I685J-1221D01*
G01X182878Y200036D01*
X184851Y198063D01*
X184983Y198138D01*
G02X186941Y197500I685J-1221D01*
G01X188333D01*
G02X190947Y196515I1273J-583D01*
G03X191330Y196000I383J-115D01*
G01X191818D01*
G03X192201Y196515I0J400D01*
G02X194884I1341J402D01*
G03X195267Y196000I383J-115D01*
G01X207566D01*
G03X207949Y196515I0J400D01*
G02X210632I1341J402D01*
G03X211015Y196000I383J-115D01*
G01X211503D01*
G03X211886Y196515I0J400D01*
G02X214569I1341J402D01*
G03X214952Y196000I383J-115D01*
G01X215440D01*
G03X215823Y196515I0J400D01*
G02X218506I1341J402D01*
G03X218889Y196000I383J-115D01*
G01X223314D01*
G03X223697Y196515I0J400D01*
G02X226380I1341J402D01*
G03X226763Y196000I383J-115D01*
G01X230500D01*
X232000Y197500D01*
X253180D01*
G03X253484Y198160I0J400D01*
G02X255916I1216J1040D01*
G03X256220Y197500I304J-260D01*
G01X384592D01*
G03X384974Y198020I0J400D01*
G02X388026I1526J480D01*
G03X388408Y197500I382J-120D01*
G01X396092D01*
G03X396474Y198020I0J400D01*
G02X397920Y196902I1527J480D01*
G03X397500Y196502I-20J-399D01*
G01Y172500D01*
X391262D01*
G02X390046Y172001I-1162J1100D01*
G03X389666Y171441I-13J-400D01*
G02X386984Y171840I-1466J-641D01*
G03X386680Y172500I-304J260D01*
G01X385000D01*
Y161026D01*
X385122Y160974D01*
G02Y158026I-622J-1474D01*
G01X385000Y157974D01*
Y122500D01*
G37*
G36*
G01X450440Y111417D02*
G02X448560I-940J-1417D01*
G03Y112083I-221J333D01*
G02X450440I940J1417D01*
G03Y111417I221J-333D01*
G37*
G36*
G01X354982Y99166D02*
G02X354933Y100915I-1481J834D01*
G03X355618Y100934I337J215D01*
G02X358533Y101015I1482J-834D01*
G03X359218Y101034I337J215D01*
G02X360105Y101792I1481J-834D01*
G03X360257Y102440I-140J375D01*
G02X362095Y102008I1243J1160D01*
G03X361943Y101360I140J-375D01*
G02X362157Y101076I-1243J-1160D01*
G03X362843I343J206D01*
G02Y99324I1457J-876D01*
G03X362157I-343J-206D01*
G02X359267Y99285I-1457J876D01*
G03X358582Y99266I-337J-215D01*
G02X355667Y99185I-1482J834D01*
G03X354982Y99166I-337J-215D01*
G37*
G36*
G01X449340Y98317D02*
G02X446856Y96189I-940J-1417D01*
G03X446208Y96304I-363J-167D01*
G02X446544Y98211I-1208J1197D01*
G03X447192Y98097I363J167D01*
G02X447460Y98317I1208J-1196D01*
G03Y98983I-221J333D01*
G02X449340I940J1417D01*
G03Y98317I221J-333D01*
G37*
G36*
G01X460059Y94609D02*
G02X458469Y94567I-759J-1409D01*
G03X458451Y95261I-208J342D01*
G02X458453Y98080I759J1409D01*
G03X458451Y98786I-189J352D01*
G02X459957Y98790I749J1414D01*
G03X459959Y98084I189J-352D01*
G02X460041Y95303I-749J-1414D01*
G03X460059Y94609I208J-342D01*
G37*
G36*
G01X449601Y82395D02*
G02X446978Y80342I-1101J-1295D01*
G03X446312Y80418I-358J-178D01*
G02X446522Y82258I-1312J1082D01*
G03X447188Y82182I358J178D01*
G02X447399Y82395I1311J-1082D01*
G03Y83005I-259J305D01*
G02X446822Y84024I1101J1295D01*
G03X446156Y84253I-395J-65D01*
G02X444258Y83970I-1156J1247D01*
G03X443706Y83742I-174J-360D01*
G02X441974Y82604I-1606J558D01*
G03X441763Y82447I-15J-199D01*
G02X439952Y81106I-1663J353D01*
G03X439742Y80959I-17J-199D01*
G02X438248Y83094I-1642J441D01*
G03X438458Y83241I17J199D01*
G02X440226Y84496I1642J-441D01*
G03X440437Y84653I15J199D01*
G02X442842Y85830I1663J-353D01*
G03X443394Y86058I174J360D01*
G02X446678Y85776I1606J-558D01*
G03X447344Y85547I395J65D01*
G02X449601Y83005I1156J-1247D01*
G03Y82395I259J-305D01*
G37*
G36*
G01X459975Y82200D02*
G02X458425I-775J-1400D01*
G03Y82900I-194J350D01*
G02X459975I775J1400D01*
G03Y82200I194J-350D01*
G37*
G36*
G01X77761Y240302D02*
G03X77741Y239722I265J-299D01*
G02X75539Y239798I-1141J-1122D01*
G03X75559Y240378I-265J299D01*
G02X77761Y240302I1141J1122D01*
G37*
G36*
G01X104989Y87948D02*
G03X104711I-139J-144D01*
G02Y90252I-1111J1151D01*
G03X104989I139J144D01*
G02X107300Y90159I1111J-1152D01*
G03X107900I300J265D01*
G02X110211Y90252I1200J-1059D01*
G03X110489I139J144D01*
G02Y87948I1111J-1151D01*
G03X110211I-139J-144D01*
G02X107900Y88041I-1111J1152D01*
G03X107300I-300J-265D01*
G02X104989Y87948I-1200J1059D01*
G37*
G36*
G01X189145Y257860D02*
G02X188215Y256620I655J-1460D01*
G03X187655Y257040I-396J55D01*
G02X188585Y258280I-655J1460D01*
G03X189145Y257860I396J-55D01*
G37*
G36*
G01X92949Y229701D02*
G02X91451Y230899I-1549J-401D01*
G03X91851Y231399I13J400D01*
G02X93349Y230201I1549J401D01*
G03X92949Y229701I-13J-400D01*
G37*
G36*
G01X173810Y78918D02*
G03X174063Y79406I-131J378D01*
G02X175996Y78401I1442J413D01*
G03X175742Y77913I131J-378D01*
G02X173810Y78918I-1442J-413D01*
G37*
G36*
G01X199060Y78800D02*
G03X199292Y79309I-144J373D01*
G02X201243Y78419I1411J510D01*
G03X201011Y77910I144J-373D01*
G02X199060Y78800I-1411J-510D01*
G37*
G36*
G01X188354Y78423D02*
G02X186240Y78830I-1254J-823D01*
G03X186346Y79377I-229J328D01*
G02X186125Y80472I1254J823D01*
G03X185568Y80910I-393J73D01*
G02X186430Y82007I-614J1369D01*
G03X186986Y81569I393J-73D01*
G02X188460Y78970I614J-1369D01*
G03X188354Y78423I229J-328D01*
G37*
G36*
G01X182074Y75954D02*
G02X181306Y77312I-1499J49D01*
G03X181901Y77649I195J349D01*
G02X181924Y77867I1499J-49D01*
G03X181588Y78334I-394J71D01*
G02X183281Y79552I217J1484D01*
G03X183617Y79084I394J-71D01*
G02X182669Y76290I-217J-1484D01*
G03X182074Y75954I-195J-349D01*
G37*
G36*
G01X173659Y61930D02*
G02X171590Y61587I-859J-1230D01*
G03X171497Y62151I-323J237D01*
G02X172492Y64875I859J1230D01*
G03X172922Y65342I36J398D01*
G02X175624Y66468I1478J258D01*
G03X176276I326J231D01*
G02X178958Y65246I1224J-868D01*
G03X179201Y64778I389J-94D01*
G02X177197Y63736I-546J-1397D01*
G03X176954Y64203I-389J94D01*
G02X176276Y64732I546J1397D01*
G03X175624I-326J-231D01*
G02X174264Y64106I-1224J868D01*
G03X173834Y63639I-36J-398D01*
G02X173566Y62494I-1478J-258D01*
G03X173659Y61930I323J-237D01*
G37*
G54D34*
X438500Y163800D03*
X460000D03*
G54D27*
X90500Y343000D03*
X250000Y282500D03*
X295000Y85000D03*
Y140000D03*
X300000Y227500D03*
X306000Y282500D03*
X327100Y110400D03*
X346300D03*
X392500Y247500D03*
X419100Y216000D03*
G54D23*
X103500Y2700D03*
X121000D03*
X126800Y28100D03*
X138500Y2700D03*
X156000D03*
X324100Y17400D03*
X346400Y131500D03*
X343300Y280400D03*
X393700Y65800D03*
X405800Y188600D03*
X428600Y364100D03*
G54D26*
X20500Y307800D03*
G54D32*
X260000Y292500D03*
X285000Y130000D03*
X290000Y217500D03*
X305000Y75000D03*
Y130000D03*
X310000Y217500D03*
Y237500D03*
X316000Y272500D03*
Y292500D03*
G54D22*
X158528Y67040D03*
X161677Y69166D03*
X162907Y60921D03*
X159758Y63381D03*
X186677Y9605D03*
X180378D03*
X183528Y7636D03*
X178250Y28500D03*
X192976Y9605D03*
X189827Y7636D03*
X194206Y13421D03*
X200506D03*
X211874Y9605D03*
X208724Y7636D03*
X205575Y9605D03*
X215024Y7636D03*
X216254Y15881D03*
X209954D03*
X215024Y19540D03*
Y26534D03*
X211874Y21666D03*
X213104Y13421D03*
X206805D03*
X205575Y21666D03*
X208724Y19540D03*
X227622Y7636D03*
X224472Y9605D03*
X221323Y7636D03*
X218173Y9605D03*
Y21666D03*
X221323Y26534D03*
X227622Y19540D03*
X225702Y13421D03*
X227622Y26534D03*
X229900Y16700D03*
X224472Y28502D03*
X218173D03*
X125600Y208900D03*
X156608Y79819D03*
X155378Y88064D03*
X171126Y67040D03*
Y74034D03*
X172700Y82600D03*
X183724Y55136D03*
X186874Y57105D03*
X184954Y63381D03*
X174276Y57105D03*
X186874Y69166D03*
X188104Y60921D03*
X181805D03*
X180575Y69166D03*
X183724Y67040D03*
X180575Y57105D03*
X178655Y82279D03*
X177425Y74034D03*
X183724Y85938D03*
X174276Y88064D03*
X186874D03*
X202622Y55136D03*
X196323D03*
X190024D03*
X199472Y57105D03*
X194403Y60921D03*
X191254Y63381D03*
X190024Y67040D03*
X199472Y69166D03*
X196323Y67040D03*
X193173Y69166D03*
X197553Y63381D03*
X202622Y67040D03*
X200702Y60921D03*
X193173Y57105D03*
X191254Y82279D03*
X193173Y76002D03*
X190024Y74034D03*
X196323D03*
X197900Y82600D03*
X202622Y74034D03*
X194403Y79819D03*
X199472Y88064D03*
X193100Y89200D03*
X190024Y85938D03*
X202622D03*
X196323D03*
X203852Y63381D03*
Y82279D03*
G54D25*
X180400Y26100D03*
G54D20*
X5900Y176300D03*
Y186300D03*
X20900Y91300D03*
X15900Y86300D03*
Y126300D03*
Y131300D03*
X10900Y181300D03*
Y176300D03*
X15900Y201300D03*
X20900Y211300D03*
Y206300D03*
X15900D03*
X20900Y221300D03*
Y226300D03*
Y241300D03*
Y236300D03*
Y251300D03*
X35900Y96300D03*
Y86300D03*
X30900Y91300D03*
X25900Y86300D03*
X35900Y106300D03*
Y171300D03*
Y166300D03*
Y186300D03*
Y181300D03*
X25900Y186300D03*
X35900Y201300D03*
Y196300D03*
X25900Y191300D03*
X35900Y226300D03*
Y231300D03*
X25900D03*
X35900Y246300D03*
Y241300D03*
X25900Y236300D03*
X8000Y24500D03*
Y39000D03*
X8500Y54500D03*
X25000Y10000D03*
Y24500D03*
Y39000D03*
X36000Y62000D03*
X44000Y10000D03*
X47500Y24500D03*
X49500Y39500D03*
X50000Y47500D03*
X53000Y62000D03*
X63000Y10000D03*
Y24500D03*
X66500Y48500D03*
X77500Y10000D03*
X76500Y25000D03*
X78000Y58000D03*
X90500Y11000D03*
X89500Y25500D03*
X89000Y48000D03*
X91500Y58500D03*
X108000Y11000D03*
X111000Y40000D03*
X99000Y49000D03*
X108000D03*
X103500D03*
X113000Y43000D03*
X114000Y22000D03*
X116500Y34000D03*
Y47700D03*
X136000Y22500D03*
X130500Y13500D03*
X134500Y44500D03*
X137500Y59000D03*
X144000Y14000D03*
X155500Y22000D03*
X145000Y33000D03*
X164500Y-2000D03*
X161000Y17400D03*
X160900Y12200D03*
X161100Y25800D03*
X170600D03*
Y17400D03*
X161000Y31000D03*
X170600D03*
X232249Y14052D03*
X236500Y3500D03*
X240000Y19500D03*
X251500Y3500D03*
X255000Y19500D03*
X266500Y3500D03*
X270000Y19500D03*
X281500Y3500D03*
X296500D03*
X311500D03*
X318000Y26500D03*
X326500Y3500D03*
X333500Y14000D03*
X333000Y26500D03*
X341500Y3500D03*
X348500Y14000D03*
X353500Y3500D03*
X360000Y13000D03*
Y30000D03*
X368500Y3500D03*
X375100Y4400D03*
X386000Y4000D03*
X401000D03*
X396000Y15000D03*
X416000Y4000D03*
X411000Y15000D03*
X431000Y4000D03*
X426000Y15000D03*
X446000Y4000D03*
X441000Y15000D03*
X469500Y25000D03*
X456000Y15000D03*
X5900Y276300D03*
Y271300D03*
Y266300D03*
X6000Y294500D03*
Y310000D03*
X6500Y324500D03*
X7000Y339500D03*
X20900Y266300D03*
X15900Y271300D03*
X10900Y266300D03*
X15900D03*
X20900Y276300D03*
Y271300D03*
X15900Y276300D03*
X10900D03*
Y271300D03*
X20900Y281300D03*
X10900D03*
X21500Y324500D03*
X22000Y339500D03*
X14500Y355500D03*
X23500Y369000D03*
X35900Y276300D03*
Y271300D03*
X30900Y266300D03*
X25900Y276300D03*
Y271300D03*
X35900Y266300D03*
X30900Y281300D03*
X25900D03*
X31000Y294500D03*
X36500Y310000D03*
X50900Y266300D03*
X45900Y276300D03*
Y271300D03*
X40900Y266300D03*
X50900Y276300D03*
Y271300D03*
X40900Y276300D03*
Y271300D03*
X50900Y281300D03*
X40900D03*
X51500Y293500D03*
Y310000D03*
X41200Y352500D03*
X67500Y279000D03*
X67000Y293500D03*
X66000Y310000D03*
X57500Y342300D03*
Y358300D03*
X82500Y279500D03*
Y293500D03*
X98300Y280100D03*
X100300Y150400D03*
X103500Y293500D03*
X110500Y310000D03*
X100800Y333500D03*
X111000Y355000D03*
X117500Y165500D03*
X119500Y184000D03*
X126800Y184100D03*
X123500Y284000D03*
X125700Y354000D03*
X140800Y233900D03*
X136000Y293000D03*
Y310000D03*
X138500Y349500D03*
X132500Y360000D03*
X151000Y310000D03*
X148300Y323700D03*
X171800Y263000D03*
X162400D03*
X166000Y310000D03*
Y356890D03*
X161000Y371600D03*
X181000Y310000D03*
X173700Y340600D03*
X183400Y371600D03*
X189500Y232600D03*
X198700Y270100D03*
X202500Y274800D03*
X191500Y269500D03*
Y293000D03*
X196000Y310000D03*
X195000Y328000D03*
X195500Y350500D03*
X188000Y356890D03*
X211000Y293000D03*
X203500Y282500D03*
X211000Y310000D03*
X212000Y328000D03*
X217500Y335000D03*
X210500Y350500D03*
X210000Y356890D03*
X205000Y371600D03*
X231300Y124900D03*
X226700Y268600D03*
Y275700D03*
X221500Y269500D03*
X227200Y281800D03*
X220000Y287500D03*
X227500Y310000D03*
X225200Y321500D03*
X226000Y350500D03*
X226400Y343300D03*
X232000Y356890D03*
X227000Y371600D03*
X244500Y79000D03*
Y95000D03*
X243800Y125000D03*
X246000Y119000D03*
X236500D03*
X240500D03*
X243000Y134000D03*
X246500Y201700D03*
X245900Y205700D03*
X238200Y204900D03*
X242000Y205800D03*
X246900Y220500D03*
X240600Y233200D03*
X245800Y230438D03*
X246400Y237300D03*
X240600Y237200D03*
X241000Y310000D03*
X238500Y350500D03*
X259500Y79000D03*
X259000Y95500D03*
X257000Y119000D03*
X251600D03*
X260100Y125100D03*
X254800Y125000D03*
X250000D03*
X258000Y134000D03*
X254800Y215100D03*
X249500Y204500D03*
X258332Y225632D03*
X251700Y220600D03*
X249400Y268700D03*
X257900Y281900D03*
X258000Y302500D03*
Y316500D03*
X255500Y348900D03*
X254000Y356890D03*
X249000Y371600D03*
X274500Y79000D03*
X273500Y95500D03*
X266000Y115000D03*
X272000Y109500D03*
X262000Y119000D03*
X273500Y116000D03*
X269500Y120500D03*
X266000Y124000D03*
X273000Y134000D03*
X265700Y218400D03*
X276000Y266400D03*
X276400Y282400D03*
X276500Y303500D03*
X269000Y316500D03*
X266100Y352900D03*
X272000Y371600D03*
X285000Y109500D03*
X278000D03*
X280600Y115800D03*
X286900Y115700D03*
X278500Y204000D03*
X278400Y271000D03*
X282300Y278200D03*
X280300Y266400D03*
X282200Y286200D03*
X286500Y278800D03*
Y304000D03*
X284100Y358800D03*
X286150Y362750D03*
X290000Y367700D03*
X288100Y371600D03*
X292500Y101000D03*
Y109500D03*
X297500Y100500D03*
Y108000D03*
Y115500D03*
Y124500D03*
X292000D03*
Y116000D03*
Y255500D03*
X294000Y316500D03*
X294100Y371600D03*
X310500Y56500D03*
X311000Y66000D03*
X321000Y95500D03*
X315500Y135000D03*
X311000Y316500D03*
X320300Y347200D03*
X319500Y357500D03*
X311800Y357400D03*
X314500Y371600D03*
X325500Y56500D03*
X331000Y76000D03*
X321500Y80000D03*
X334000Y85000D03*
X324500Y126500D03*
Y143500D03*
X335500Y204000D03*
X332600Y216300D03*
X329600Y210900D03*
X324050Y205700D03*
X331400Y231800D03*
X325700Y233700D03*
X333800Y226600D03*
X336000Y241500D03*
X328100Y236400D03*
X331900Y235400D03*
X333100Y316100D03*
X336000Y351500D03*
X333800Y346600D03*
X328800Y344900D03*
X325400Y352800D03*
X339000Y66000D03*
X342000Y82500D03*
X350000Y75500D03*
X342000Y93500D03*
X349500Y100000D03*
X337000Y118000D03*
X336500Y135000D03*
X336900Y212600D03*
X341474Y255826D03*
X341700Y259900D03*
X345100Y265700D03*
X343500Y289000D03*
Y302000D03*
X339600Y316800D03*
X336200Y311900D03*
X338100Y325800D03*
Y331300D03*
Y336300D03*
X349300Y351900D03*
X356000Y65500D03*
X355000Y135000D03*
X362500Y236000D03*
X361000Y268000D03*
X354000Y284900D03*
Y289400D03*
Y280400D03*
X362900Y296900D03*
X353600Y357600D03*
X359800Y358000D03*
X358042Y361742D03*
X355900Y365400D03*
X361979Y368179D03*
X375500Y65500D03*
X375000Y83500D03*
Y236000D03*
X373000Y265500D03*
X372600Y284800D03*
X372400Y289800D03*
X377600Y296300D03*
X379695Y301405D03*
Y364305D03*
X369853Y363353D03*
X389000Y56000D03*
X388000Y77000D03*
X390500Y99500D03*
X382400Y230700D03*
X387000Y256500D03*
X388100Y274900D03*
X381000Y283000D03*
X388100Y284800D03*
X388233Y279800D03*
Y289800D03*
X386500Y298000D03*
X388000Y353500D03*
X381664Y367464D03*
X403000Y57500D03*
X398500Y89000D03*
X405500Y99500D03*
X399500Y131000D03*
X401500Y159500D03*
Y146500D03*
Y175500D03*
X403200Y199500D03*
X399000Y232000D03*
X400000Y275500D03*
X399500Y291000D03*
X406100Y312100D03*
X409600Y322800D03*
Y327400D03*
Y332700D03*
Y337700D03*
Y342600D03*
X403300Y340200D03*
X408500Y357500D03*
X399000Y368000D03*
X412000Y90000D03*
X420500Y99500D03*
X418300Y110800D03*
Y105800D03*
X424800D03*
Y110800D03*
X418300Y120800D03*
Y115800D03*
X424800D03*
Y120800D03*
X414500Y131000D03*
X416500Y157100D03*
X419200Y173200D03*
X413000Y175500D03*
X425100Y175000D03*
X417000Y192500D03*
X420000Y202800D03*
X415500Y201600D03*
X422600Y306100D03*
X414900Y305400D03*
X414400Y325200D03*
X424500Y324900D03*
X424700Y330200D03*
X417000Y347100D03*
X414400Y340100D03*
X423500Y353000D03*
X416000Y367500D03*
X437000Y100000D03*
X436500Y113000D03*
X431000Y131500D03*
X426000Y146000D03*
X433200Y157000D03*
X426500Y166000D03*
X428800Y175000D03*
X427000Y223600D03*
X429000Y247500D03*
X426500Y302700D03*
X434500Y312500D03*
X437400Y319300D03*
X427600Y316300D03*
X435000Y341000D03*
X427600Y338800D03*
X438000Y353000D03*
X438500Y367500D03*
X453500Y110000D03*
X446000Y131500D03*
X449500Y146500D03*
X452400Y154500D03*
X450500Y169000D03*
X444600Y173200D03*
X453000Y215500D03*
X442500Y248000D03*
X451400Y291000D03*
X453500Y304900D03*
X447800Y297900D03*
X453500Y310300D03*
X447100D03*
X453500Y315600D03*
X453000Y334100D03*
X446900D03*
X446100Y350300D03*
X453400Y345500D03*
X447400D03*
X453400Y340400D03*
Y350600D03*
X451000Y368000D03*
X455500Y53000D03*
X465000Y88500D03*
X459200Y88100D03*
X462000Y108500D03*
X455100Y105500D03*
X459000Y127500D03*
X465000Y147000D03*
X468500Y169000D03*
Y185000D03*
X455859Y204059D03*
X467900Y201300D03*
Y196300D03*
X467000Y215500D03*
X467900Y206300D03*
X468100Y211300D03*
X459000Y223500D03*
X465000Y249500D03*
X460500Y298500D03*
X468900Y303200D03*
X459500Y310300D03*
X468820Y310280D03*
X458700Y334100D03*
X468800Y345500D03*
X459400D03*
X470500Y53000D03*
X472000Y127500D03*
X472500Y157000D03*
X470500Y282500D03*
X54000Y81500D03*
X50900Y86300D03*
X45900Y96300D03*
Y91300D03*
X50900Y96300D03*
Y91300D03*
Y106300D03*
Y101300D03*
X45900Y111300D03*
X50900D03*
X45900Y106300D03*
Y101300D03*
X50900Y126300D03*
Y121300D03*
X45900Y116300D03*
X50900D03*
X45900Y126300D03*
Y121300D03*
X50900Y141300D03*
X45900Y136300D03*
Y131300D03*
X50900Y136300D03*
Y131300D03*
Y146300D03*
X45900Y156300D03*
Y151300D03*
X50900Y156300D03*
Y151300D03*
Y166300D03*
Y161300D03*
X45900Y171300D03*
X50900D03*
Y186300D03*
Y181300D03*
X45900Y176300D03*
Y186300D03*
Y181300D03*
X50900Y176300D03*
Y201300D03*
X45900Y196300D03*
Y191300D03*
X50900Y196300D03*
Y191300D03*
X45900Y201300D03*
X50900Y206300D03*
X45900Y216300D03*
Y211300D03*
X50900Y216300D03*
Y211300D03*
X45900Y206300D03*
X50900Y226300D03*
Y221300D03*
X45900Y231300D03*
X50900D03*
X45900Y226300D03*
Y221300D03*
X50900Y246300D03*
Y241300D03*
X45900Y236300D03*
X50900D03*
X45900Y251300D03*
X50900D03*
X66000Y109500D03*
X57500Y117500D03*
Y129000D03*
X68000Y139000D03*
X57500D03*
X59500Y161000D03*
X61312Y204088D03*
X67000Y227000D03*
X64000Y251500D03*
X72000Y82500D03*
X81800Y87100D03*
Y91100D03*
X72500Y111100D03*
X81800D03*
Y106600D03*
X75000Y128500D03*
X76800Y116800D03*
X76000Y144500D03*
X82000Y167000D03*
X71000Y182000D03*
X72600Y219400D03*
X79000Y229200D03*
X78200Y233500D03*
X73000Y244000D03*
X76600Y250400D03*
X91800Y94100D03*
X91000Y111100D03*
X91800Y104100D03*
X95500Y120500D03*
X89500Y129000D03*
X85800Y116800D03*
X92000Y182000D03*
X86600Y250400D03*
X105000Y128500D03*
X101000Y175000D03*
Y184000D03*
X115500Y77800D03*
Y81800D03*
Y85800D03*
X127500Y102500D03*
Y114500D03*
X128500Y129000D03*
X126000Y119500D03*
X132500Y85500D03*
X139000Y119500D03*
X142400Y125900D03*
X138500D03*
X134800D03*
X83100Y203900D03*
X86500Y206500D03*
X90200Y204700D03*
X92000Y219700D03*
X97500Y225800D03*
Y229800D03*
X93000Y246200D03*
X97500Y245500D03*
X95100Y240100D03*
X102000Y214200D03*
X104850Y219050D03*
X143000Y250000D03*
X194600Y261000D03*
X204500Y260400D03*
X232500Y260500D03*
X249000Y254700D03*
X259500Y253700D03*
X206900Y60400D03*
X244000Y48500D03*
X259000D03*
G54D28*
X113839Y278957D03*
X114232Y287618D03*
X115020Y274232D03*
X118563Y291161D03*
X126437D03*
X131161Y278957D03*
X129980Y274232D03*
X130768Y287618D03*
X153839Y278957D03*
X155020Y274232D03*
X154232Y287618D03*
X158563Y291161D03*
X171161Y278957D03*
X169980Y274232D03*
X166437Y291161D03*
X170768Y287618D03*
X193839Y278957D03*
X195020Y274232D03*
X194232Y287618D03*
X198563Y291161D03*
X211161Y278957D03*
X209980Y274232D03*
X206437Y291161D03*
X210768Y287618D03*
G54D21*
X28400Y76749D03*
X40408Y290843D03*
G54D30*
X239500Y329900D03*
X249500D03*
X259500D03*
Y339900D03*
X269500Y329900D03*
Y339900D03*
X279500Y329900D03*
X388773Y210500D03*
Y220500D03*
Y230500D03*
X413500Y232000D03*
Y242000D03*
Y252000D03*
X433500Y232000D03*
Y242000D03*
Y252000D03*
X453500Y232000D03*
Y242000D03*
Y252000D03*
X466000Y277500D03*
Y287500D03*
G54D24*
X119500Y50000D03*
X303000Y15200D03*
X297900D03*
X292800D03*
Y21400D03*
X297900D03*
X360000Y24500D03*
Y34000D03*
X371500Y7000D03*
X367000Y30000D03*
X35000Y338800D03*
X50690Y316300D03*
X53190Y321300D03*
X50690Y326300D03*
X52000Y333800D03*
X42000Y340800D03*
X51000D03*
X65690Y321800D03*
X60690D03*
X55690Y326300D03*
X64000Y336800D03*
X66000Y350300D03*
X62000Y347300D03*
X57500Y346800D03*
Y338300D03*
X114500Y158000D03*
X126500D03*
X123532Y181600D03*
X130068D03*
X135800Y337400D03*
X138500Y345500D03*
X244800Y110100D03*
X257000Y110500D03*
X336000Y250400D03*
Y256600D03*
X341389Y251889D03*
X356700Y95300D03*
X363000Y96500D03*
X356094Y264594D03*
X373000Y246500D03*
X376100Y251000D03*
Y256000D03*
Y261000D03*
X405400Y347100D03*
X414216Y67734D03*
X418153D03*
X422090D03*
X419500Y84400D03*
X424700D03*
X414600Y82800D03*
X422129Y71750D03*
X414216Y75609D03*
X418153D03*
X422090D03*
X414216Y71671D03*
X418153D03*
X420000Y206800D03*
X415500Y207800D03*
X426027Y67734D03*
X429964D03*
X434500Y84500D03*
X429600Y84400D03*
X426027Y75609D03*
X429964D03*
X426027Y71671D03*
X429964D03*
X439700Y88400D03*
X426300Y238000D03*
X442000Y93000D03*
X445000Y90000D03*
X448500Y93000D03*
X448400Y88200D03*
X445000Y102500D03*
Y107000D03*
Y111500D03*
X440300Y172300D03*
X97732Y172500D03*
Y181500D03*
X104268D03*
X197900Y253900D03*
X211400D03*
X224700D03*
X237900D03*
G54D35*
X464041Y319139D03*
Y336461D03*
G54D29*
X142361Y157546D03*
X134487Y153609D03*
X138424D03*
X142361Y149672D03*
X134487Y145735D03*
X138424D03*
X134487Y149672D03*
X138424D03*
X134487Y157546D03*
X138424D03*
X142361Y153609D03*
Y145735D03*
Y173294D03*
X134487Y169358D03*
X138424D03*
X142361Y165420D03*
X134487Y161484D03*
X138424D03*
X134487Y165420D03*
X138424D03*
X134487Y173294D03*
X138424D03*
X142361Y161484D03*
Y169358D03*
Y189042D03*
X134487Y185106D03*
X138424D03*
X142361Y181168D03*
X134487Y177232D03*
X138424D03*
X134487Y181168D03*
X138424D03*
X134487Y189042D03*
X138424D03*
X142361Y177232D03*
Y185106D03*
X134487Y200854D03*
X138424D03*
X142361Y196916D03*
X134487Y192980D03*
X138424D03*
X142361Y200854D03*
X134487Y196916D03*
X138424D03*
X142361Y192980D03*
X134487Y216602D03*
X138424D03*
X142361D03*
Y212665D03*
X134487Y208728D03*
X138424D03*
X142361Y204791D03*
X138424D03*
X134487D03*
Y212665D03*
X138424D03*
X142361Y208728D03*
X134487Y224476D03*
X142361Y220539D03*
Y224476D03*
X134487Y220539D03*
X158109Y145735D03*
Y153609D03*
Y157546D03*
X146298D03*
X150235Y153609D03*
X146298Y149672D03*
X150235Y145735D03*
Y157546D03*
X154172D03*
Y153609D03*
Y149672D03*
X150235D03*
X146298Y153609D03*
Y145735D03*
X154172D03*
X146298Y173294D03*
Y165420D03*
X158109Y161484D03*
X146298D03*
Y169358D03*
Y189042D03*
Y181168D03*
Y177232D03*
Y185106D03*
Y196916D03*
Y200854D03*
Y192980D03*
X158109Y204791D03*
Y212665D03*
X146298D03*
X150235Y208728D03*
X146298Y204791D03*
X154172D03*
X158109Y216602D03*
X154172Y208728D03*
X150235Y204791D03*
X146298Y208728D03*
Y216602D03*
X154172Y212665D03*
Y216602D03*
X158109Y208728D03*
X150235Y224476D03*
X158109D03*
X150235Y228413D03*
X146298D03*
Y220539D03*
Y224476D03*
X158109Y220539D03*
X169920Y157546D03*
X162046Y149672D03*
Y145735D03*
Y153609D03*
Y165420D03*
X165984Y161484D03*
X169920Y165420D03*
Y161484D03*
X165984Y165420D03*
Y200854D03*
X169920Y212665D03*
X162046D03*
X169920Y216602D03*
X165984Y212665D03*
Y208728D03*
X169920D03*
Y204791D03*
X165984D03*
X162046D03*
Y216602D03*
X169920Y224476D03*
Y220539D03*
X165984D03*
Y224476D03*
X162046D03*
Y220539D03*
X165984Y228413D03*
X177794Y157546D03*
X173858D03*
Y165420D03*
Y161484D03*
X177794D03*
X181732D03*
X177794Y165420D03*
X185668Y200854D03*
X181732Y212665D03*
Y208728D03*
Y204791D03*
X185668Y212665D03*
Y216602D03*
X173858Y212665D03*
Y216602D03*
X177794Y208728D03*
Y212665D03*
X173858Y208728D03*
X181732Y224476D03*
X177794D03*
Y220539D03*
X173858Y228413D03*
X177794D03*
X173858Y220539D03*
Y224476D03*
X185668Y228413D03*
X197480Y129987D03*
X193542D03*
Y133924D03*
X197480Y141798D03*
X201417D03*
X197480Y133924D03*
Y137861D03*
X193542D03*
Y157546D03*
Y145735D03*
X197480Y149672D03*
Y157546D03*
Y153609D03*
Y145735D03*
X201417Y157546D03*
X193542Y149672D03*
Y165420D03*
X201417D03*
X197480Y161484D03*
X201417D03*
X193542D03*
X189606Y165420D03*
Y161484D03*
X193542Y200854D03*
X189606D03*
X193542Y212665D03*
X189606Y208728D03*
Y216602D03*
X197480Y212665D03*
X189606Y204791D03*
X197480Y208728D03*
Y204791D03*
X193542Y224476D03*
X189606Y220539D03*
Y224476D03*
Y228413D03*
X193542D03*
X197480D03*
X201417Y224476D03*
Y220539D03*
X209291Y129987D03*
X205354D03*
X217165D03*
X213228D03*
X205354Y133924D03*
X217165D03*
X209291Y141798D03*
X205354D03*
Y137861D03*
X213228D03*
Y133924D03*
X217165Y137861D03*
X213228Y141798D03*
X205354Y157546D03*
X217165D03*
Y153609D03*
Y145735D03*
X209291D03*
X213228D03*
Y153609D03*
X217165Y165420D03*
Y169358D03*
X209291Y161484D03*
X213228Y169358D03*
X205354Y200854D03*
X217165D03*
X205354Y212665D03*
X217165D03*
X205354Y204791D03*
X209291Y212665D03*
X205354Y224476D03*
X217165D03*
X209291D03*
X228976Y133924D03*
X221102Y137861D03*
X225039D03*
Y129987D03*
X228976Y157546D03*
Y145735D03*
X221102Y157546D03*
X228976Y169358D03*
X225039Y165420D03*
X228976D03*
Y216602D03*
Y204791D03*
X221102Y216602D03*
X225039D03*
X228976Y212665D03*
X221102Y204791D03*
X228976Y228413D03*
Y224476D03*
X221102Y228413D03*
X225039Y220539D03*
X232913Y153609D03*
Y157546D03*
Y165420D03*
Y161484D03*
Y216602D03*
Y224476D03*
X142361Y129987D03*
X138424D03*
X146298D03*
X169920D03*
Y133924D03*
Y137861D03*
Y141798D03*
Y145735D03*
Y149672D03*
X173858Y129987D03*
X181732D03*
X177794D03*
X185668D03*
X181732Y133924D03*
X173858Y137861D03*
X185668D03*
X177794Y141798D03*
Y137861D03*
X173858Y133924D03*
Y141798D03*
X177794Y133924D03*
X185668Y141798D03*
X181732Y137861D03*
X185668Y133924D03*
X181732Y145735D03*
X177794Y149672D03*
X185668D03*
X177794Y145735D03*
X173858D03*
Y149672D03*
X181732D03*
X185668Y145735D03*
Y153609D03*
G54D33*
X417000Y138200D03*
Y163800D03*
X438500Y138200D03*
X460000D03*
G54D31*
X239500Y339900D03*
X279500D03*
X466000Y267500D03*
%LPD*%
G75*
G36*
G01X152000Y163000D02*
X151500Y163500D01*
Y164818D01*
X151517Y164856D01*
G03Y165985I-1282J564D01*
G01X151500Y166023D01*
Y168755D01*
X151517Y168793D01*
G03Y169922I-1282J564D01*
G01X151500Y169960D01*
Y172692D01*
X151517Y172730D01*
G03Y173859I-1282J564D01*
G01X151500Y173897D01*
Y176629D01*
X151517Y176667D01*
G03Y177796I-1282J564D01*
G01X151500Y177834D01*
Y180566D01*
X151517Y180604D01*
G03Y181733I-1282J564D01*
G01X151500Y181771D01*
Y184503D01*
X151517Y184541D01*
G03Y185670I-1282J564D01*
G01X151500Y185708D01*
Y188440D01*
X151517Y188478D01*
G03Y189607I-1282J564D01*
G01X151500Y189645D01*
Y192377D01*
X151517Y192415D01*
G03Y193544I-1282J564D01*
G01X151500Y193582D01*
Y196314D01*
X151517Y196352D01*
G03Y197481I-1282J564D01*
G01X151500Y197519D01*
Y199000D01*
X161500D01*
X161638Y198862D01*
G02X161509Y198209I-283J-283D01*
G03X163339Y196379I537J-1293D01*
G02X163992Y196508I369J-154D01*
G01X164082Y196418D01*
G02X163957Y195768I-283J-283D01*
G03X164276Y193851I395J-919D01*
G02X164632Y193347I-30J-399D01*
G03X165801Y194368I1351J-368D01*
G02X165350Y194788I-52J397D01*
G03X165335Y195028I-998J60D01*
G02X165729Y195500I394J72D01*
G01X171000D01*
X172000Y196500D01*
Y202000D01*
X173000Y203000D01*
X178500D01*
X180358Y201142D01*
X180344Y201044D01*
G03X181922Y199466I1387J-190D01*
G01X182020Y199480D01*
X184295Y197205D01*
X184281Y197107D01*
G03X185859Y195529I1387J-190D01*
G01X185957Y195543D01*
X186500Y195000D01*
Y192000D01*
X183500D01*
X183038Y192462D01*
X183072Y192576D01*
G03X181328Y194320I-1341J403D01*
G01X181214Y194286D01*
X180500Y195000D01*
X177000D01*
X176000Y194000D01*
Y192000D01*
X174356Y190356D01*
X174243Y190389D01*
G03X172511Y188657I-386J-1346D01*
G01X172544Y188544D01*
X171250Y187250D01*
X171061D01*
G02X170808Y187959I0J400D01*
G03X169783Y187649I-887J1083D01*
G01X169964Y187631D01*
Y187250D01*
X169250D01*
X168000Y186000D01*
Y169500D01*
X167000Y168500D01*
X163788D01*
G02X163401Y169002I0J400D01*
G03X160692I-1354J356D01*
G02X160305Y168500I-387J-102D01*
G01X160000D01*
X158309Y166809D01*
X158218Y166816D01*
G03X156713Y165312I-108J-1396D01*
G01X156720Y165220D01*
X154500Y163000D01*
X152000D01*
G37*
G36*
G01X360000Y126500D02*
Y150700D01*
X361000D01*
Y176000D01*
X235500D01*
Y175000D01*
X208500D01*
X202000Y168500D01*
X199221D01*
G02X198834Y169002I0J400D01*
G03X196125I-1354J356D01*
G02X195738Y168500I-387J-102D01*
G01X191347D01*
G02X190960Y169002I0J400D01*
G03X188251I-1354J356D01*
G02X187864Y168500I-387J-102D01*
G01X187410D01*
G02X187023Y169002I0J400D01*
G03X184314I-1354J356D01*
G02X183927Y168500I-387J-102D01*
G01X183473D01*
G02X183086Y169002I0J400D01*
G03X180377I-1354J356D01*
G02X179990Y168500I-387J-102D01*
G01X175599D01*
G02X175212Y169002I0J400D01*
G03X172462Y169470I-1354J356D01*
G02X171780Y169220I-399J32D01*
G01X171272Y169728D01*
X171257Y169775D01*
G03X170338Y170694I-1336J-418D01*
G01X170291Y170709D01*
X169783Y171217D01*
G02X170033Y171899I283J283D01*
G03X169516Y174635I-113J1396D01*
G02X169000Y175018I-116J383D01*
G01Y179445D01*
G02X169516Y179828I400J0D01*
G03Y182509I405J1340D01*
G02X169000Y182892I-116J383D01*
G01Y185500D01*
X169500Y186000D01*
X172127D01*
G02X172511Y185490I0J-400D01*
G03X174272Y186443I1346J-385D01*
G02X174108Y187108I118J382D01*
G01X175792Y188792D01*
G02X176457Y188628I283J-283D01*
G03X177488Y190409I1337J415D01*
G02X177000Y190799I-88J390D01*
G01Y191586D01*
X177000Y193500D01*
X177500Y194000D01*
X178500D01*
X181500Y191000D01*
X183086D01*
X187500Y191000D01*
X192000Y191000D01*
Y194000D01*
X195790D01*
G02X196165Y193462I0J-400D01*
G03X198794I1314J-483D01*
G02X199169Y194000I375J138D01*
G01X203664D01*
G02X204039Y193462I0J-400D01*
G03X206668I1314J-483D01*
G02X207043Y194000I375J138D01*
G01X207601D01*
G02X207976Y193462I0J-400D01*
G03X210605I1314J-483D01*
G02X210980Y194000I375J138D01*
G01X219412D01*
G02X219787Y193462I0J-400D01*
G03X222416I1314J-483D01*
G02X222792Y194000I375J138D01*
G01X227286D01*
G02X227661Y193462I0J-400D01*
G03X230290I1314J-483D01*
G02X230666Y194000I375J138D01*
G01X231223D01*
G02X231598Y193462I0J-400D01*
G03X234227I1314J-483D01*
G02X234602Y194000I375J138D01*
G01X252844D01*
X252891Y193867D01*
G03X255522Y193259I1509J533D01*
G02X256102Y193239I280J-285D01*
G03X258573Y193330I1198J1061D01*
G02X259193Y193350I318J-242D01*
G03X261909Y193867I1207J1050D01*
G01X261956Y194000D01*
X276942D01*
X276974Y193989D01*
G03X278026I526J1511D01*
G01X278058Y194000D01*
X293786D01*
G02X294080Y193329I0J-400D01*
G03X301720I3820J-3529D01*
G02X302014Y194000I294J271D01*
G01X325000D01*
X326000Y195000D01*
X395000D01*
Y188671D01*
G02X394380Y188336I-400J0D01*
G03Y185664I-880J-1336D01*
G02X395000Y185329I220J-334D01*
G01Y181598D01*
G02X394580Y181198I-400J0D01*
G03Y178002I-80J-1598D01*
G02X395000Y177602I20J-399D01*
G01Y175000D01*
X393771D01*
G02X393436Y175620I0J400D01*
G03X390676Y175770I-1337J880D01*
G02X390276Y175190I-356J-182D01*
G03X389325Y175000I-176J-1591D01*
G01X382000D01*
Y126500D01*
X360000D01*
G37*
G36*
G01X200500Y148500D02*
Y150000D01*
X205000Y154500D01*
X210000D01*
Y153000D01*
X207229Y150229D01*
G02X206592Y150325I-283J283D01*
G03X204089Y149072I-1239J-653D01*
G02X203727Y148500I-361J-172D01*
G01X200500D01*
G37*
G36*
G01X237500Y152700D02*
Y174000D01*
X242554D01*
G02X242849Y173330I0J-400D01*
G03X245211I1181J-1080D01*
G02X245506Y174000I295J270D01*
G01X265800D01*
G02X266040Y173280I0J-400D01*
G03X267960I960J-1280D01*
G02X268200Y174000I240J320D01*
G01X278502D01*
G02X278902Y173580I0J-400D01*
G03X282098I1598J-80D01*
G02X282498Y174000I399J20D01*
G01X302502D01*
G02X302902Y173580I0J-400D01*
G03X306098I1598J-80D01*
G02X306498Y174000I399J20D01*
G01X337002D01*
G02X337402Y173580I0J-400D01*
G03X340598I1598J-80D01*
G02X340998Y174000I399J20D01*
G01X359000D01*
Y152700D01*
X356439D01*
G03X353561I-1439J-700D01*
G01X337439D01*
G03X334561I-1439J-700D01*
G01X317059D01*
G03X314941I-1059J-1200D01*
G01X310748D01*
G03X299252I-5748J-2700D01*
G01X290748D01*
G03X279252I-5748J-2700D01*
G01X242862D01*
G03X240538I-1162J-1100D01*
G01X237500D01*
G37*
G36*
G01X347500Y306400D02*
Y345000D01*
X352527D01*
X352569Y344856D01*
G03X352855Y344305I1536J448D01*
G03X355354I1249J-1000D01*
G03X355641Y344856I-1249J1000D01*
G01X355683Y345000D01*
X364603D01*
G03X367228I1312J916D01*
G01X373864D01*
G02X374243Y344472I0J-400D01*
G03X377274I1516J-513D01*
G02X377653Y345000I379J128D01*
G01X397500D01*
Y334100D01*
G02X396860Y333780I-400J0D01*
G03Y331220I-960J-1280D01*
G02X397500Y330900I240J-320D01*
G01Y324032D01*
G02X396900Y323686I-400J0D01*
G03Y320914I-800J-1386D01*
G02X397500Y320568I200J-346D01*
G01Y306400D01*
X347500D01*
G37*
G36*
G01X407500Y260000D02*
Y297500D01*
X411261D01*
G03X414139I1439J700D01*
G01X420474D01*
X420526Y297378D01*
G03X423474I1474J622D01*
G01X423526Y297500D01*
X436751D01*
G03X439249I1249J1000D01*
G01X442500D01*
Y285058D01*
X442489Y285026D01*
G03X445598Y284580I1511J-526D01*
G02X445998Y285000I399J20D01*
G01X457500D01*
Y264671D01*
G02X456880Y264336I-400J0D01*
G03Y261664I-880J-1336D01*
G02X457500Y261329I220J-334D01*
G01Y260000D01*
X443875D01*
G03X442325I-775J-1400D01*
G01X423700D01*
G02X423460Y260720I0J400D01*
G03X421540I-960J1280D01*
G02X421300Y260000I-240J-320D01*
G01X407500D01*
G37*
%LPC*%
G75*
G36*
G01X159488Y193227D02*
G02X158687Y194255I-1378J-248D01*
G03X159252Y194628I165J364D01*
G02X161250Y194710I1000J21D01*
G03X161737Y194345I399J25D01*
G02X160662Y193189I309J-1366D01*
G03X160262Y193648I-396J60D01*
G02X159987Y193684I-11J1000D01*
G03X159488Y193227I-106J-386D01*
G37*
G36*
G01X165802Y186494D02*
G02X164627Y185453I181J-1388D01*
G03X164272Y185952I-387J99D01*
G02X165351Y186907I80J997D01*
G03X165802Y186494I400J-17D01*
G37*
G36*
G01X159491Y185332D02*
G02X158686Y186381I-1382J-227D01*
G03X159251Y186746I165J364D01*
G02X161248Y186829I1000J2D01*
G03X161736Y186471I399J32D01*
G02X160659Y185294I311J-1365D01*
G03X160260Y185748I-396J54D01*
G02X159990Y185783I-8J1000D01*
G03X159491Y185332I-104J-386D01*
G37*
G36*
G01X165803Y178620D02*
G02X164622Y177560I181J-1388D01*
G03X164267Y178052I-389J94D01*
G02X164339Y180049I84J997D01*
G03X164700Y180609I-5J400D01*
G02X165770Y179785I1283J560D01*
G03X165322Y179292I-61J-395D01*
G02X165351Y179026I-970J-243D01*
G03X165803Y178620I400J-9D01*
G37*
G36*
G01X159494Y177437D02*
G02X158687Y178507I-1385J-205D01*
G03X159251Y178865I165J364D01*
G02X161247Y178947I1000J-17D01*
G03X161734Y178596I398J39D01*
G02X160656Y177400I312J-1365D01*
G03X160257Y177848I-397J48D01*
G02X159993Y177882I-6J1000D01*
G03X159494Y177437I-103J-386D01*
G37*
G36*
G01X231546Y184802D02*
G02X234300Y185292I1367J304D01*
G02X231546Y184802I-1367J-304D01*
G37*
G36*
G01X220724Y175883D02*
G02X221577Y178548I377J1348D01*
G02X220724Y175883I-377J-1348D01*
G37*
G36*
G01X376000Y157338D02*
G02X373800I-1100J1162D01*
G02Y159662I-1100J1162D01*
G02X376000I1100J-1162D01*
G02Y157338I1100J-1162D01*
G37*
G36*
G01X365714Y142310D02*
G02X363310Y144714I-1214J1190D01*
G03Y145286I-280J286D01*
G02X363807Y148052I1190J1214D01*
G03X363997Y148605I-163J365D01*
G02X366675Y150629I1503J795D01*
G03X367246Y150648I276J289D01*
G02X368863Y151161I1254J-1148D01*
G03X369339Y151637I85J391D01*
G02X370637Y150339I1661J363D01*
G03X370161Y149863I-85J-391D01*
G02X369454Y148093I-1661J-363D01*
G03X369359Y147522I225J-331D01*
G02X368954Y145093I-1359J-1021D01*
G03X368859Y144522I225J-331D01*
G02X366286Y142310I-1359J-1021D01*
G03X365714I-286J-280D01*
G37*
G36*
G01X265751Y166000D02*
G02X268249I1249J1000D01*
G02X265751I-1249J-1000D01*
G37*
G36*
G01X245180Y166137D02*
G03X245174Y165587I287J-278D01*
G02X242850Y165613I-1174J-1087D01*
G03X242856Y166163I-287J278D01*
G02X245180Y166137I1174J1087D01*
G37*
G36*
G01X360039Y332638D02*
G03X360250Y332493I192J55D01*
G02X358861Y330462I150J-1593D01*
G03X358650Y330607I-192J-55D01*
G02X356947Y331813I-150J1593D01*
G03X356507Y332113I-388J-97D01*
G02X357853Y334087I-207J1587D01*
G03X358293Y333787I388J97D01*
G02X360039Y332638I207J-1587D01*
G37*
G36*
G01X351650Y327894D02*
G02Y325400I1003J-1247D01*
G02Y327894I-1003J1247D01*
G37*
G36*
G01X360180Y320655D02*
G03X360402Y320488I197J32D01*
G02X359020Y318645I198J-1588D01*
G03X358798Y318812I-197J-32D01*
G02X357047Y320013I-198J1588D01*
G03X356607Y320313I-388J-97D01*
G02X357953Y322287I-207J1587D01*
G03X358393Y321987I388J97D01*
G02X360180Y320655I207J-1587D01*
G37*
G36*
G01X364601Y314508D02*
G03X364418Y315109I-329J228D01*
G02X364763Y318182I582J1491D01*
G03X365103Y318603I-59J396D01*
G02X368297Y318602I1597J98D01*
G03X368475Y318391I200J-12D01*
G02X367034Y315821I-175J-1591D01*
G03X366374Y315781I-316J-245D01*
G02X366314Y315687I-1375J818D01*
G03X366497Y315086I329J-228D01*
G02X364601Y314508I-582J-1491D01*
G37*
G36*
G01X352859Y314400D02*
G02X355350I1246J1005D01*
G02X352859I-1246J-1005D01*
G37*
G36*
G01X383873Y324201D02*
G02X382087Y324039I-773J-1401D01*
G03X382027Y324699I-253J310D01*
G02X381694Y327256I773J1401D01*
G03X381703Y327536I-138J145D01*
G02X382008Y329955I1181J1080D01*
G03X382051Y330591I-219J335D01*
G02X382134Y333076I1049J1209D01*
G03X382223Y333620I-241J319D01*
G02X384511Y333245I1322J901D01*
G03X384422Y332701I241J-319D01*
G02X383976Y330461I-1322J-901D01*
G03X383933Y329824I219J-335D01*
G02X383990Y327459I-1049J-1209D01*
G03X383981Y327180I138J-145D01*
G02X383813Y324861I-1181J-1080D01*
G03X383873Y324201I253J-310D01*
G37*
G36*
G01X437140Y291217D02*
G02X435260I-940J-1417D01*
G03Y291883I-221J333D01*
G02X437140I940J1417D01*
G03Y291217I221J-333D01*
G37*
G36*
G01X440840Y277417D02*
G02X438960I-940J-1417D01*
G03Y278083I-221J333D01*
G02X440840I940J1417D01*
G03Y277417I221J-333D01*
G37*
G54D20*
X236934Y184988D03*
X238200Y178700D03*
X263400Y179400D03*
X265600Y183000D03*
X318200Y188200D03*
X379000Y142000D03*
X378800Y151700D03*
X373500Y178500D03*
X244000Y159500D03*
X257000Y161000D03*
X256500Y171000D03*
X267000Y160000D03*
X280500Y163500D03*
X297000D03*
X315000D03*
X332900Y156900D03*
Y169900D03*
Y165900D03*
Y160900D03*
X383600Y314800D03*
X383546Y342395D03*
Y338458D03*
G54D30*
X413500Y277500D03*
G54D24*
X245400Y180100D03*
X257400D03*
X365500Y155600D03*
X364500Y161000D03*
Y169000D03*
X377559Y165441D03*
X371000Y165000D03*
X424600Y281600D03*
X428800Y267100D03*
X432300Y264100D03*
X439100Y267100D03*
X451400Y271400D03*
X442400Y264100D03*
G54D29*
X158109Y169358D03*
Y173294D03*
X154172D03*
Y165420D03*
Y189042D03*
X158109D03*
X154172Y185106D03*
Y181168D03*
Y177232D03*
Y196916D03*
Y192980D03*
X162046Y173294D03*
X165984D03*
X162046Y189042D03*
Y181168D03*
X169920Y192980D03*
X173858D03*
Y200854D03*
Y196916D03*
X177794D03*
Y200854D03*
Y173294D03*
X185668D03*
X173858D03*
X181732D03*
X185668Y189042D03*
X181732Y185106D03*
X177794Y181168D03*
X185668D03*
X173858Y177232D03*
X181732D03*
Y189042D03*
X177794Y185106D03*
X185668D03*
X173858Y181168D03*
X181732D03*
X177794Y177232D03*
X185668D03*
X193542Y173294D03*
X201417D03*
X189606D03*
X197480D03*
X193542Y189042D03*
X201417D03*
X189606Y185106D03*
X197480D03*
X193542Y181168D03*
X189606Y177232D03*
X197480D03*
X189606Y189042D03*
X197480D03*
X193542Y185106D03*
X201417D03*
X189606Y181168D03*
X197480D03*
X201417D03*
X193542Y177232D03*
X201417D03*
X217165Y189042D03*
X205354Y185106D03*
X217165Y181168D03*
X205354Y177232D03*
X209291Y181168D03*
Y177232D03*
X213228Y189042D03*
X205354Y181168D03*
X209291Y185106D03*
X228976Y181168D03*
Y189042D03*
X225039D03*
X221102Y185106D03*
X232913Y177232D03*
G54D31*
X413500Y287500D03*
%LPD*%
G75*
G54D10*
G01X177200Y263000D02*
X175300Y261100D01*
G01D02*
Y257100D01*
X-10500Y24000D03*
Y39000D03*
Y54000D03*
Y69500D03*
Y84500D03*
Y99500D03*
Y114500D03*
Y129500D03*
Y144500D03*
Y159500D03*
Y174500D03*
Y189500D03*
Y204500D03*
Y219500D03*
Y234500D03*
Y249500D03*
Y264500D03*
Y279500D03*
Y294500D03*
Y309500D03*
Y324500D03*
Y339500D03*
Y354500D03*
X9000Y70000D03*
X5900Y91300D03*
Y106300D03*
Y121300D03*
Y136300D03*
Y151300D03*
Y166300D03*
Y181300D03*
Y196300D03*
Y211300D03*
Y226300D03*
Y241300D03*
Y256300D03*
X18000Y-11000D03*
Y81500D03*
X20900Y96300D03*
Y86300D03*
X15900Y91300D03*
X10900Y96300D03*
Y86300D03*
X20900Y111300D03*
X15900Y106300D03*
X10900Y111300D03*
X20900Y126300D03*
X15900Y121300D03*
X10900Y126300D03*
X20900Y141300D03*
X15900Y136300D03*
X10900Y141300D03*
X20900Y156300D03*
X15900Y151300D03*
X10900Y156300D03*
X20900Y171300D03*
X15900Y166300D03*
X10900Y171300D03*
X20900Y186300D03*
X15900Y181300D03*
X10900Y186300D03*
X20900Y201300D03*
X15900Y196300D03*
X10900Y201300D03*
X20900Y216300D03*
X15900Y211300D03*
X10900Y216300D03*
X20900Y231300D03*
X15900Y226300D03*
X10900Y231300D03*
X20900Y246300D03*
X15900Y241300D03*
X10900Y246300D03*
X15900Y256300D03*
X16000Y380500D03*
X33000Y-11000D03*
X36000Y81000D03*
X35900Y91300D03*
X30900Y96300D03*
Y86300D03*
X25900Y91300D03*
X35900Y101300D03*
X30900Y111300D03*
X25900Y106300D03*
X30900Y126300D03*
X25900Y121300D03*
X30900Y141300D03*
X25900Y136300D03*
X35900Y146300D03*
X30900Y156300D03*
X25900Y151300D03*
X35900Y161300D03*
X30900Y171300D03*
X25900Y166300D03*
X35900Y176300D03*
X30900Y186300D03*
X25900Y181300D03*
X35900Y191300D03*
X30900Y201300D03*
X25900Y196300D03*
X35900Y206300D03*
X30900Y216300D03*
X25900Y211300D03*
X35900Y221300D03*
X30900Y231300D03*
X25900Y226300D03*
X35900Y236300D03*
X30900Y246300D03*
X25900Y241300D03*
X35900Y256300D03*
Y251300D03*
X25900Y256300D03*
X31000Y380500D03*
X48000Y-11000D03*
X51000Y70000D03*
X44000Y380500D03*
X63000Y-11000D03*
X66500Y69000D03*
X59000Y380500D03*
X78000Y-11000D03*
X69300Y197600D03*
X72650Y199150D03*
X83500Y230000D03*
X83000Y227500D03*
X80600Y254400D03*
X80800Y260500D03*
X74000Y380500D03*
X93000Y-11000D03*
X87000Y69500D03*
X93100Y84100D03*
X94600Y82000D03*
X95800Y94100D03*
X91600Y86200D03*
X95800Y104100D03*
X97200Y194000D03*
X88100Y229500D03*
X90600Y254400D03*
X89000Y380500D03*
X108000Y-11000D03*
X108500Y68000D03*
X108000Y139500D03*
X100300Y153900D03*
Y145100D03*
X101000Y161500D03*
X101100Y202000D03*
X99900Y199800D03*
X104000Y380500D03*
X123000Y-11000D03*
X119500Y70500D03*
X117500Y140000D03*
X119000Y380500D03*
X138000Y-11000D03*
X132500Y70500D03*
X131500Y114500D03*
Y102500D03*
X130500Y220500D03*
X140800Y237900D03*
X134000Y380500D03*
X153000Y-11000D03*
X144500Y70500D03*
X151000Y380500D03*
X168000Y-11000D03*
X158400Y263000D03*
X167800D03*
X161000Y361500D03*
X166000Y380500D03*
X183000Y-11000D03*
X177200Y263000D03*
X175300Y257100D03*
X183500Y361500D03*
X181000Y380500D03*
X198000Y-11000D03*
X189500Y236100D03*
X196000Y380500D03*
X213000Y-11000D03*
X205000Y361500D03*
X211000Y380500D03*
X228000Y-11000D03*
X225100Y126000D03*
X227000Y361500D03*
X226000Y380500D03*
X243000Y-11000D03*
X240732Y162000D03*
X240762Y169750D03*
X245400Y193200D03*
X246400Y258900D03*
X246100Y253900D03*
X237300Y360600D03*
X241000Y380500D03*
X258000Y-11000D03*
X247268Y162000D03*
X247298Y169750D03*
X254800Y211300D03*
X259259Y212859D03*
X261700Y218400D03*
X250200Y262900D03*
X249000Y361500D03*
X256000Y380500D03*
X273000Y-11000D03*
X263732Y162500D03*
Y169500D03*
X270268D03*
Y162500D03*
X272000Y356700D03*
Y361500D03*
X271000Y380500D03*
X288000Y-11000D03*
X286000Y380500D03*
X303000Y-11000D03*
X292600Y43600D03*
X301937Y44737D03*
X298500Y54700D03*
X294000Y361500D03*
X301000Y380500D03*
X318000Y-11000D03*
X314500Y361500D03*
X316000Y380500D03*
X333000Y-11000D03*
X331000Y380500D03*
X348000Y-11000D03*
X349736Y307454D03*
X350254Y336490D03*
X350300Y331300D03*
X350400Y341800D03*
X346000Y380500D03*
X363000Y-11000D03*
X352310Y336490D03*
X361000Y380500D03*
X378000Y-11000D03*
X378700Y318600D03*
X380200Y316600D03*
X377100D03*
X376000Y380500D03*
X393000Y-11000D03*
X384700Y310100D03*
X381664Y313164D03*
X394490Y336490D03*
X391000Y380500D03*
X408000Y-11000D03*
X406000Y380500D03*
X423000Y-11000D03*
X421000Y380500D03*
X438000Y-11000D03*
X436000Y380500D03*
X453000Y-11000D03*
X455000Y380500D03*
X481500Y22500D03*
Y37500D03*
Y52500D03*
Y82000D03*
Y97000D03*
Y112000D03*
Y127000D03*
Y142000D03*
Y157000D03*
Y172000D03*
Y187000D03*
Y202000D03*
Y217000D03*
Y232000D03*
Y247000D03*
Y262000D03*
Y277000D03*
Y292000D03*
Y307000D03*
Y322000D03*
X480900Y310300D03*
X481500Y337000D03*
Y352000D03*
X480920Y345320D03*
G54D11*
X122500Y54000D03*
X120000Y55500D03*
X125000D03*
X127500Y61000D03*
X125000Y59500D03*
X122500Y61000D03*
Y57500D03*
X128000D03*
X153000Y350000D03*
X156000D03*
Y344000D03*
X153000D03*
X150000Y347000D03*
X153000D03*
X156000D03*
X153000Y353000D03*
X156000D03*
X197900Y241900D03*
X211400D03*
X224700D03*
X237900D03*
X274000Y47500D03*
Y44500D03*
Y41500D03*
X284900Y35400D03*
X277500Y47500D03*
X281000Y44500D03*
X277500D03*
Y41500D03*
X281000D03*
X284900Y41600D03*
X302600Y54700D03*
X310000Y47600D03*
X361000Y127800D03*
X364500D03*
X361000Y131800D03*
X364500D03*
X378600Y6900D03*
X376000Y30000D03*
X368000Y127800D03*
X370500Y129800D03*
X373000Y128800D03*
X375500Y127800D03*
X368000Y131800D03*
X373000Y132800D03*
X370500Y133800D03*
X375500Y131800D03*
X393500Y33000D03*
Y29500D03*
X390500D03*
X384000Y33000D03*
X390500D03*
X387500Y30500D03*
X396500Y33000D03*
Y29500D03*
X399300Y110800D03*
Y105800D03*
Y120800D03*
Y115800D03*
X407000Y238200D03*
X412500Y146500D03*
X440000Y289500D03*
Y293500D03*
X446800Y237700D03*
X451400Y277600D03*
X452700Y282100D03*
X450000Y283900D03*
X467000Y238200D03*
G54D12*
X134487Y137861D03*
X154172Y169358D03*
X158109Y181168D03*
X154172Y200854D03*
X150235Y212665D03*
X154172Y220539D03*
X161677Y57105D03*
X169206Y60921D03*
X169920Y153609D03*
X165984Y169358D03*
Y189042D03*
X169920Y185106D03*
Y177232D03*
X162046Y200854D03*
X169920Y196916D03*
X165984Y216602D03*
X162046Y208728D03*
X169920Y228413D03*
X180378Y40564D03*
X180575Y88064D03*
X185668Y157546D03*
X177794Y169358D03*
X185668Y192980D03*
X177794D03*
Y216602D03*
Y204791D03*
X201417Y149672D03*
X193542Y169358D03*
X201417D03*
X193542Y192980D03*
X201417D03*
X216254Y34779D03*
X203655D03*
X205575Y40564D03*
X209291Y153609D03*
Y157546D03*
X217165Y149672D03*
X205354Y165420D03*
Y173294D03*
Y189042D03*
Y196916D03*
X213228Y204791D03*
X225039Y141798D03*
Y204791D03*
G54D13*
X144000Y362500D03*
X281900Y52000D03*
X351100Y168900D03*
G54D14*
X152552Y163248D03*
G54D15*
X249500Y339900D03*
X413500Y267500D03*
G54D16*
X430700Y32500D03*
G54D17*
X417000Y138200D03*
Y163800D03*
X438500Y138200D03*
Y163800D03*
X460000Y138200D03*
Y163800D03*
G54D18*
X442500Y51400D03*
X455300Y32500D03*
G54D19*
G01X27500Y-89300D02*
Y-94300D01*
X29500D01*
G01X30750D02*
X32000Y-89300D01*
X33250Y-94300D01*
G01X32800Y-92550D02*
X31200D01*
G01X35500Y-94300D02*
Y-92050D01*
X34500Y-89300D01*
G01X36500D02*
X35500Y-92050D01*
G01X40000Y-94300D02*
X38000D01*
Y-89300D01*
X40000D01*
G01X39200Y-91717D02*
X38000D01*
G01X41500Y-94300D02*
Y-89300D01*
X42750D01*
X43150Y-89550D01*
X43400Y-89883D01*
X43500Y-90550D01*
X43400Y-91217D01*
X43100Y-91633D01*
X42750Y-91883D01*
X41500D01*
G01X42750D02*
X43500Y-94300D01*
G01X49500D02*
X49850Y-94217D01*
X50250Y-93967D01*
X50500Y-93550D01*
X50600Y-92967D01*
X50500Y-92383D01*
X50200Y-91883D01*
X49750Y-91633D01*
X49250D01*
X48950Y-91467D01*
X48700Y-91050D01*
X48600Y-90467D01*
X48750Y-89883D01*
X49100Y-89467D01*
X49500Y-89300D01*
X49900Y-89467D01*
X50250Y-89883D01*
X50400Y-90467D01*
X50300Y-91050D01*
X50050Y-91467D01*
X49750Y-91633D01*
X49250D01*
X48800Y-91883D01*
X48500Y-92383D01*
X48400Y-92967D01*
X48500Y-93550D01*
X48750Y-93967D01*
X49150Y-94217D01*
X49500Y-94300D01*
G01X56250Y-95967D02*
X55750Y-95133D01*
X55500Y-94300D01*
Y-90967D01*
X55750Y-90133D01*
X56250Y-89300D01*
G01X59000Y-94300D02*
Y-89300D01*
X60200D01*
X60600Y-89550D01*
X60900Y-90133D01*
X61000Y-90800D01*
X60900Y-91467D01*
X60650Y-91967D01*
X60200Y-92217D01*
X59000D01*
G01X62000Y-89300D02*
X62700Y-94300D01*
X63500Y-89300D01*
X64300Y-94300D01*
X65000Y-89300D01*
G01X66000Y-94300D02*
Y-89300D01*
X67250D01*
X67650Y-89550D01*
X67900Y-89883D01*
X68000Y-90550D01*
X67900Y-91217D01*
X67600Y-91633D01*
X67250Y-91883D01*
X66000D01*
G01X67250D02*
X68000Y-94300D01*
G01X69550Y-90133D02*
X69850Y-89633D01*
X70200Y-89383D01*
X70600Y-89300D01*
X71100Y-89467D01*
X71450Y-89883D01*
X71550Y-90383D01*
X71500Y-90884D01*
X71300Y-91300D01*
X70300Y-92133D01*
X69850Y-92717D01*
X69550Y-93550D01*
X69450Y-94300D01*
X71550D01*
G01X74250Y-95967D02*
X74750Y-95133D01*
X75000Y-94300D01*
Y-90967D01*
X74750Y-90133D01*
X74250Y-89300D01*
M02*
