G04 ================== begin FILE IDENTIFICATION RECORD ==================*
G04 Layout Name:  C:/userdata/Boards/TSW14J50_B/TSW14J50_B.brd*
G04 Film Name:    LYR09_GND4*
G04 File Format:  Gerber RS274X*
G04 File Origin:  Cadence Allegro 16.6-S019*
G04 Origin Date:  Tue Apr 01 14:59:11 2014*
G04 *
G04 Layer:  VIA CLASS/L9-GND4*
G04 Layer:  PIN/L9-GND4*
G04 Layer:  ETCH/L9-GND4*
G04 Layer:  BOARD GEOMETRY/TOOLING_CORNERS*
G04 *
G04 Offset:    (0.000 0.000)*
G04 Mirror:    No*
G04 Mode:      Positive*
G04 Rotation:  0*
G04 FullContactRelief:  No*
G04 UndefLineWidth:     7.000*
G04 ================== end FILE IDENTIFICATION RECORD ====================*
%FSLAX55Y55*MOIN*%
%IR0*IPPOS*OFA0.00000B0.00000*MIA0B0*SFA1.00000B1.00000*%
%ADD20C,.15*%
%ADD18C,.17*%
%ADD10C,.02*%
%ADD13C,.03*%
%ADD11C,.022*%
%ADD12C,.016*%
%ADD19C,.08*%
%ADD15C,.018*%
%ADD14C,.092*%
%ADD21C,.022008*%
%ADD17C,.058*%
%ADD16C,.097*%
%ADD22C,.006*%
%ADD33C,.110004*%
%ADD32C,.200004*%
%ADD27C,.122004*%
%ADD24C,.180004*%
%ADD29C,.030004*%
%ADD30C,.022004*%
%ADD23C,.032004*%
%ADD25C,.060004*%
%ADD26C,.034004*%
%ADD34C,.080004*%
%ADD28C,.028004*%
%ADD31C,.088004*%
G75*
%LPD*%
G75*
G36*
G01X8097Y-13500D02*
G02X7886Y-12760I0J400D01*
G03X-12760Y7886I-7886J12760D01*
G02X-13500Y8097I-340J210D01*
G01Y361903D01*
G02X-12760Y362114I400J0D01*
G03X7886Y382760I12760J7886D01*
G02X8097Y383500I210J340D01*
G01X461903D01*
G02X462114Y382760I0J-400D01*
G03X482760Y362114I7886J-12760D01*
G02X483500Y361903I340J-210D01*
G01Y8097D01*
G02X482760Y7886I-400J0D01*
G03X462114Y-12760I-12760J-7886D01*
G02X461903Y-13500I-210J-340D01*
G01X8097D01*
G37*
%LPC*%
G75*
G36*
G01X373802Y367700D02*
G03X373406Y367244I0J-400D01*
G02X371820Y368622I-1585J-223D01*
G03X372215Y369077I0J400D01*
G02X373802Y367700I1585J223D01*
G37*
G36*
G01X303640Y356320D02*
G03X303080Y356240I-240J-320D01*
G02X300599Y356143I-1280J960D01*
G03X300039Y356183I-300J-264D01*
G02X300201Y358457I-1039J1217D01*
G03X300761Y358417I300J264D01*
G02X302760Y358480I1039J-1217D01*
G03X303320Y358560I240J320D01*
G02X305798Y358661I1280J-960D01*
G03X306378Y358641I299J265D01*
G02X306302Y356439I1122J-1141D01*
G03X305722Y356459I-299J-265D01*
G02X303640Y356320I-1122J1141D01*
G37*
G36*
G01X276517Y355364D02*
G03X275998Y355006I-121J-381D01*
G02X272825Y354818I-1597J94D01*
G03X272345Y355137I-394J-71D01*
G02X273575Y356982I-345J1563D01*
G03X274055Y356663I394J71D01*
G02X274883Y356626I345J-1563D01*
G03X275402Y356984I121J381D01*
G02X276517Y355364I1597J-94D01*
G37*
G36*
G01X115692Y357039D02*
G03X116072Y356599I398J-40D01*
G02X114408Y355162I-72J-1599D01*
G03X114028Y355601I-398J40D01*
G02X115692Y357039I72J1599D01*
G37*
G36*
G01X376994Y345229D02*
G03Y344975I154J-127D01*
G02X374522I-1236J-1017D01*
G03Y345229I-154J127D01*
G02X376994I1236J1017D01*
G37*
G36*
G01X154786Y342810D02*
G03X154214I-286J-280D01*
G02X151810Y345214I-1214J1190D01*
G03Y345786I-280J286D01*
G02X151786Y345810I1190J1214D01*
G03X151214I-286J-280D01*
G02Y348190I-1214J1190D01*
G03X151786I286J280D01*
G02X151810Y348214I1214J-1190D01*
G03Y348786I-280J286D01*
G02Y351214I1190J1214D01*
G03Y351786I-280J286D01*
G02X154214Y354190I1190J1214D01*
G03X154786I286J280D01*
G02X157190Y351786I1214J-1190D01*
G03Y351214I280J-286D01*
G02Y348786I-1190J-1214D01*
G03Y348214I280J-286D01*
G02Y345786I-1190J-1214D01*
G03Y345214I280J-286D01*
G02X154786Y342810I-1190J-1214D01*
G37*
G36*
G01X352855Y344305D02*
G02X355354I1249J1000D01*
G02X352855I-1249J-1000D01*
G37*
G36*
G01X351282Y337716D02*
G02Y335263I1028J-1226D01*
G02Y337716I-1028J1226D01*
G37*
G36*
G01X119810Y340714D02*
G03Y341286I-280J286D01*
G02X121871Y343960I1190J1214D01*
G03X122134Y344013I102J172D01*
G02X124714Y344190I1366J-1013D01*
G03X125286I286J280D01*
G02X127859Y341978I1214J-1190D01*
G03X127954Y341407I320J-240D01*
G02X125786Y338810I-954J-1407D01*
G03X125214I-286J-280D01*
G02X122979Y338641I-1214J1190D01*
G03X122407Y338546I-240J-320D01*
G02X122190Y338286I-1407J954D01*
G03Y337714I280J-286D01*
G02Y335286I-1190J-1214D01*
G03Y334714I280J-286D01*
G02X119810I-1190J-1214D01*
G03Y335286I-280J286D01*
G02Y337714I1190J1214D01*
G03Y338286I-280J286D01*
G02Y340714I1190J1214D01*
G37*
G36*
G01X30286Y331610D02*
G03X29714I-286J-280D01*
G02X27310Y334014I-1214J1190D01*
G03Y334586I-280J286D01*
G02Y337014I1190J1214D01*
G03Y337586I-280J286D01*
G02X29544Y337458I1190J1214D01*
G03Y337142I123J-158D01*
G02X29675Y337029I-1044J-1342D01*
G03X29990Y337082I138J145D01*
G02X32162Y334734I1510J-782D01*
G03Y334366I78J-184D01*
G02X32360Y334266I-663J-1566D01*
G03X32932Y334457I202J345D01*
G02X33640Y332334I1568J-657D01*
G03X33068Y332143I-202J-345D01*
G02X30286Y331610I-1568J657D01*
G37*
G36*
G01X351650Y327894D02*
G02Y325400I1003J-1247D01*
G02Y327894I-1003J1247D01*
G37*
G36*
G01X383990Y327459D02*
G03X383981Y327180I138J-145D01*
G02X381694Y327256I-1181J-1080D01*
G03X381703Y327536I-138J145D01*
G02X383990Y327459I1181J1080D01*
G37*
G36*
G01X402373Y326327D02*
G02X404627Y324073I1227J-1027D01*
G02X402373Y326327I-1227J1027D01*
G37*
G36*
G01X360180Y320655D02*
G03X360402Y320488I197J32D01*
G02X359020Y318645I198J-1588D01*
G03X358798Y318812I-197J-32D01*
G02X357047Y320013I-198J1588D01*
G03X356607Y320313I-388J-97D01*
G02X357953Y322287I-207J1587D01*
G03X358393Y321987I388J97D01*
G02X360180Y320655I207J-1587D01*
G37*
G36*
G01X378960Y315589D02*
G03X378340I-310J-253D01*
G02X376933Y318192I-1240J1011D01*
G03X377111Y318414I-21J199D01*
G02X380288Y318402I1589J186D01*
G03X380455Y318180I198J-25D01*
G02X378960Y315589I-255J-1580D01*
G37*
G36*
G01X71232Y317258D02*
G03X71421Y317743I-189J353D01*
G02X72290Y319838I1605J562D01*
G03X72387Y320098I-86J180D01*
G02X74680Y319247I1558J681D01*
G03X74583Y318986I86J-180D01*
G02X73828Y316806I-1558J-681D01*
G03X73640Y316322I189J-353D01*
G02X71232Y317258I-1605J-562D01*
G37*
G36*
G01X352859Y314400D02*
G02X355350I1246J1005D01*
G02X352859I-1246J-1005D01*
G37*
G36*
G01X451692Y284070D02*
G03X452206Y283727I398J40D01*
G02X451008Y281930I494J-1627D01*
G03X450494Y282273I-398J-40D01*
G02X451692Y284070I-494J1627D01*
G37*
G36*
G01X282883Y243499D02*
G03X283163Y242958I371J-150D01*
G02X281317Y242001I-363J-1559D01*
G03X281037Y242542I-371J150D01*
G02X282883Y243499I363J1559D01*
G37*
G36*
G01X82114Y228833D02*
G03X82170Y229110I-111J167D01*
G02X84386Y228667I1330J890D01*
G03X84330Y228390I111J-167D01*
G02X82114Y228833I-1330J-890D01*
G37*
G36*
G01X109432Y214514D02*
G03X110032Y214374I358J178D01*
G02X109568Y212386I968J-1274D01*
G03X108968Y212526I-358J-178D01*
G02X109432Y214514I-968J1274D01*
G37*
G36*
G01X99425Y201328D02*
G03X99558Y201572I-59J191D01*
G02X100005Y203167I1542J428D01*
G03X100045Y203707I-274J292D01*
G02X102395Y203533I1255J993D01*
G03X102355Y202993I274J-292D01*
G02X101575Y200472I-1255J-993D01*
G03X101442Y200228I59J-191D01*
G02X99425Y201328I-1542J-428D01*
G37*
G36*
G01X231546Y184802D02*
G02X234300Y185292I1367J304D01*
G02X231546Y184802I-1367J-304D01*
G37*
G36*
G01X220724Y175883D02*
G02X221577Y178548I377J1348D01*
G02X220724Y175883I-377J-1348D01*
G37*
G36*
G01X208694Y168090D02*
G02X209996Y170567I596J1267D01*
G02X208694Y168090I-596J-1267D01*
G37*
G36*
G01X185519Y164028D02*
G02X185950Y166792I150J1392D01*
G02X185519Y164028I-150J-1392D01*
G37*
G36*
G01X418181Y158428D02*
G03X417914Y157850I86J-391D01*
G02X415213Y158052I-1414J-750D01*
G03X415035Y158663I-322J238D01*
G02X418181Y158428I1965J5137D01*
G37*
G36*
G01X219702Y145684D02*
G02X222499Y145651I1399J51D01*
G02X219702Y145684I-1399J-51D01*
G37*
G36*
G01X227804Y138629D02*
G02X230171Y137133I1196J-729D01*
G02X227804Y138629I-1196J729D01*
G37*
G36*
G01X381690Y106786D02*
G03Y106214I280J-286D01*
G02X378858Y104558I-1190J-1214D01*
G03X378382Y104843I-386J-104D01*
G02X376810Y107714I-382J1657D01*
G03Y108286I-280J286D01*
G02Y110714I1190J1214D01*
G03Y111286I-280J286D01*
G02Y113714I1190J1214D01*
G03Y114286I-280J286D01*
G02X379642Y115942I1190J1214D01*
G03X380118Y115657I386J104D01*
G02X381690Y112786I382J-1657D01*
G03Y112214I280J-286D01*
G02Y109786I-1190J-1214D01*
G03Y109214I280J-286D01*
G02Y106786I-1190J-1214D01*
G37*
G36*
G01X104989Y87948D02*
G03X104711I-139J-144D01*
G02Y90252I-1111J1151D01*
G03X104989I139J144D01*
G02X107300Y90159I1111J-1152D01*
G03X107900I300J265D01*
G02X110211Y90252I1200J-1059D01*
G03X110489I139J144D01*
G02Y87948I1111J-1151D01*
G03X110211I-139J-144D01*
G02X107900Y88041I-1111J1152D01*
G03X107300I-300J-265D01*
G02X104989Y87948I-1200J1059D01*
G37*
G36*
G01X93005Y82129D02*
G03X92705Y82549I-399J32D01*
G02X91505Y84229I395J1551D01*
G03X91205Y84649I-399J32D01*
G02X93195Y86071I395J1551D01*
G03X93495Y85651I399J-32D01*
G02X94695Y83971I-395J-1551D01*
G03X94995Y83551I399J-32D01*
G02X93005Y82129I-395J-1551D01*
G37*
G36*
G01X173810Y78918D02*
G03X174063Y79406I-131J378D01*
G02X175996Y78401I1442J413D01*
G03X175742Y77913I131J-378D01*
G02X173810Y78918I-1442J-413D01*
G37*
G36*
G01X358286Y76310D02*
G03X357714I-286J-280D01*
G02X355310Y78714I-1214J1190D01*
G03Y79286I-280J286D01*
G02X357714Y81690I1190J1214D01*
G03X358286I286J280D01*
G02X360714I1214J-1190D01*
G03X361286I286J280D01*
G02X363714I1214J-1190D01*
G03X364286I286J280D01*
G02X366690Y79286I1214J-1190D01*
G03Y78714I280J-286D01*
G02X364286Y76310I-1190J-1214D01*
G03X363714I-286J-280D01*
G02X361286I-1214J1190D01*
G03X360714I-286J-280D01*
G02X358286I-1214J1190D01*
G37*
G36*
G01X441742Y71241D02*
G03X441952Y71094I193J52D01*
G02X440458Y68959I147J-1694D01*
G03X440248Y69106I-193J-52D01*
G02X438435Y70456I-147J1694D01*
G03X438214Y70613I-196J-41D01*
G02X439665Y72645I-214J1687D01*
G03X439886Y72487I196J41D01*
G02X441742Y71241I214J-1687D01*
G37*
G36*
G01X356892Y51406D02*
G03X356645Y50930I139J-375D01*
G02X354408Y52094I-1645J-430D01*
G03X354655Y52570I-139J375D01*
G02X355634Y54565I1645J430D01*
G03X355863Y55041I-157J368D01*
G02X358166Y53936I1637J459D01*
G03X357937Y53459I157J-368D01*
G02X356892Y51406I-1637J-459D01*
G37*
G36*
G01X338083Y49560D02*
G03X337417I-333J-221D01*
G02X334355Y50930I-1417J940D01*
G03X334108Y51406I-387J101D01*
G02X333063Y53459I592J1594D01*
G03X332834Y53936I-385J108D01*
G02X334917Y56440I665J1565D01*
G03X335583I333J221D01*
G02X338417I1417J-940D01*
G03X339083I333J221D01*
G02X342137Y55041I1417J-940D01*
G03X342366Y54565I385J-108D01*
G02X343345Y52570I-665J-1565D01*
G03X343592Y52094I387J-101D01*
G02X341583Y49560I-592J-1594D01*
G03X340917I-333J-221D01*
G02X338083I-1417J940D01*
G37*
G36*
G01X200186Y42248D02*
G03X200248Y41706I322J-237D01*
G02X198327Y41726I-973J-1142D01*
G03X198401Y42266I-253J310D01*
G02X200186Y42248I899J634D01*
G37*
G36*
G01X198941Y31908D02*
G03X198447Y31740I-149J-371D01*
G02X196619Y32960I-947J560D01*
G03X196522Y33532I-320J240D01*
G02X198822Y35094I834J1247D01*
G03X199274Y34783I391J84D01*
G02X198941Y31908I226J-1483D01*
G37*
G36*
G01X192029Y33637D02*
G03X191998Y33057I259J-304D01*
G02X190320Y32960I-798J-757D01*
G03X190222Y33532I-320J240D01*
G02X192029Y33637I835J1247D01*
G37*
G36*
G01X188774Y34118D02*
G03X188813Y33514I281J-284D01*
G02X187089Y33577I-906J-1196D01*
G03X187172Y34175I-218J335D01*
G02X188774Y34118I828J725D01*
G37*
G36*
G01X348686Y37507D02*
G03X348096Y37140I-191J-351D01*
G02X343943Y42683I-6095J-240D01*
G02X347163Y42353I1557J-683D01*
G03X347374Y42196I196J42D01*
G02X349163Y40853I126J-1696D01*
G03X349374Y40696I196J42D01*
G02X349456Y40700I126J-1696D01*
G03X349614Y41015I-5J200D01*
G02X352663Y42353I1386J985D01*
G03X352874Y42196I196J42D01*
G02X354663Y40853I126J-1696D01*
G03X354874Y40696I196J42D01*
G02X353337Y38647I126J-1696D01*
G03X353126Y38804I-196J-42D01*
G02X351337Y40147I-126J1696D01*
G03X351126Y40305I-196J-42D01*
G02X351044Y40300I-126J1696D01*
G03X350886Y39985I5J-200D01*
G02X351169Y38676I-1386J-985D01*
G03X351550Y38200I393J-76D01*
G02X353163Y36853I-50J-1699D01*
G03X353374Y36696I196J42D01*
G02X355163Y35353I126J-1696D01*
G03X355374Y35196I196J42D01*
G02X353837Y33147I126J-1696D01*
G03X353626Y33304I-196J-42D01*
G02X351837Y34647I-126J1696D01*
G03X351626Y34805I-196J-42D01*
G02X349831Y36824I-126J1696D01*
G03X349450Y37300I-393J76D01*
G02X348686Y37507I50J1699D01*
G37*
G36*
G01X193971Y27379D02*
G03X193933Y26818I265J-299D01*
G02X192198Y26729I-833J-719D01*
G03X192102Y27283I-328J229D01*
G02X193971Y27379I874J1219D01*
G37*
G36*
G01X200230Y27345D02*
G03X200195Y26760I255J-309D01*
G02X198533Y26678I-795J-760D01*
G03X198441Y27256I-315J246D01*
G02X200230Y27345I835J1246D01*
G37*
G36*
G01X203385Y25381D02*
G03X203337Y24814I256J-307D01*
G02X201621Y24761I-837J-714D01*
G03X201538Y25324I-320J240D01*
G02X203385Y25381I887J1210D01*
G37*
G36*
G01X100889Y35309D02*
G03X101330Y34863I397J-48D01*
G02X96373Y26444I670J-6063D01*
G02X94848Y29111I-373J1556D01*
G03Y29389I-144J139D01*
G02Y31611I1151J1111D01*
G03Y31889I-144J139D01*
G02Y34111I1151J1111D01*
G03Y34389I-144J139D01*
G02X96051Y37099I1152J1111D01*
G03X96451Y37599I13J400D01*
G02X97512Y39524I1549J401D01*
G03X97772Y40024I-122J381D01*
G02X98740Y41999I1528J476D01*
G03X98980Y42499I-140J375D01*
G02X101060Y41501I1520J501D01*
G03X100820Y41001I140J-375D01*
G02Y39999I-1520J-501D01*
G03X101060Y39499I380J-125D01*
G02Y36501I-560J-1499D01*
G03X100820Y36001I140J-375D01*
G02X100889Y35309I-1520J-501D01*
G37*
G36*
G01X307618Y20343D02*
G03X307142Y20058I-90J-390D01*
G02X303970Y19759I-1642J442D01*
G03X303707Y19854I-180J-87D01*
G02X302656Y23065I-707J1546D01*
G03X302847Y23751I-81J392D01*
G02X302369Y24520I1153J1249D01*
G03X301808Y24765I-384J-113D01*
G02X299860Y25189I-708J1435D01*
G03X299240I-310J-253D01*
G02Y27211I-1240J1011D01*
G03X299860I310J253D01*
G02X302615Y26715I1240J-1011D01*
G03X303186Y26492I379J129D01*
G02X305663Y25353I815J-1492D01*
G03X305874Y25196I196J42D01*
G02X306905Y24939I126J-1696D01*
G03X307515Y25225I213J339D01*
G02X309723Y23382I1685J-225D01*
G03X309494Y22811I123J-381D01*
G02X307618Y20343I-1494J-811D01*
G37*
G36*
G01X199047Y17000D02*
G03X198743Y16453I66J-395D01*
G02X197109Y17361I-1387J-572D01*
G03X197413Y17908I-66J395D01*
G02X199047Y17000I1387J572D01*
G37*
G36*
G01X191985Y14703D02*
G03X191957Y14098I248J-314D01*
G02X190359Y14010I-757J-798D01*
G03X190265Y14607I-306J258D01*
G02X191985Y14703I792J1274D01*
G37*
G36*
G01X185641Y14669D02*
G03X185589Y14066I236J-323D01*
G02X183986Y14040I-789J-766D01*
G03X183915Y14640I-296J269D01*
G02X185641Y14669I843J1241D01*
G37*
G36*
G01X182475Y15219D02*
G03X182515Y14616I282J-284D01*
G02X180789Y14678I-907J-1195D01*
G03X180871Y15276I-218J335D01*
G02X182475Y15219I829J724D01*
G37*
G36*
G01X276058Y20642D02*
G03X276343Y21118I-104J386D01*
G02X277921Y23198I1657J382D01*
G03X278302Y23579I-19J400D01*
G02X279921Y25198I1698J-79D01*
G03X280302Y25579I-19J400D01*
G02X283175Y26729I1698J-79D01*
G03X283746Y26748I276J289D01*
G02X283825Y24371I1254J-1148D01*
G03X283254Y24352I-276J-289D01*
G02X282079Y23802I-1254J1148D01*
G03X281698Y23421I19J-400D01*
G02X281669Y23176I-1698J80D01*
G03X282132Y22706I393J-76D01*
G02X277632Y14208I1068J-6006D01*
G03X277121Y14417I-365J-163D01*
G02X275310Y17214I-621J1583D01*
G03Y17786I-280J286D01*
G02X276058Y20642I1190J1214D01*
G37*
G36*
G01X250279Y350361D02*
G02X248961Y351679I-1579J-261D01*
G03X249421Y352139I65J395D01*
G02X250739Y350821I1579J261D01*
G03X250279Y350361I-65J-395D01*
G37*
G36*
G01X332440Y332259D02*
G02X331202Y330623I360J-1559D01*
G03X330712Y330994I-400J-19D01*
G02X328753Y332585I-360J1559D01*
G03X328247Y332979I-400J8D01*
G02X329421Y334489I-425J1543D01*
G03X329927Y334095I400J-8D01*
G02X331951Y332630I425J-1543D01*
G03X332440Y332259I400J19D01*
G37*
G36*
G01X335920Y321798D02*
G02X334400Y320202I80J-1598D01*
G03X333980Y320602I-400J1D01*
G02X333202Y323640I-80J1598D01*
G03Y324360I-174J360D01*
G02X334598I698J1440D01*
G03Y323640I174J-360D01*
G02X335500Y322198I-698J-1440D01*
G03X335920Y321798I400J-1D01*
G37*
G36*
G01X57351Y316663D02*
G02X56053Y317961I-1661J-363D01*
G03X56529Y318437I85J391D01*
G02X59851I1661J363D01*
G03X60327Y317961I391J-85D01*
G02X61053I363J-1661D01*
G03X61529Y318437I85J391D01*
G02X64851I1661J363D01*
G03X65327Y317961I391J-85D01*
G02X64029Y316663I363J-1661D01*
G03X63553Y317139I-391J85D01*
G02X62827I-363J1661D01*
G03X62351Y316663I-85J-391D01*
G02X59029I-1661J-363D01*
G03X58553Y317139I-391J85D01*
G02X57827I-363J1661D01*
G03X57351Y316663I-85J-391D01*
G37*
G36*
G01X97228Y316692D02*
G02X94863Y317732I-1628J-492D01*
G03X95072Y318208I-173J360D01*
G02X95963Y320232I1628J492D01*
G03X96172Y320708I-173J360D01*
G02X96860Y322617I1628J492D01*
G03Y323283I-221J333D01*
G02Y326117I940J1417D01*
G03Y326783I-221J333D01*
G02X98740I940J1417D01*
G03Y326117I221J-333D01*
G02Y323283I-940J-1417D01*
G03Y322617I221J-333D01*
G02X98537Y319668I-940J-1417D01*
G03X98328Y319192I173J-360D01*
G02X97437Y317168I-1628J-492D01*
G03X97228Y316692I173J-360D01*
G37*
G36*
G01X92728D02*
G02X90363Y317732I-1628J-492D01*
G03X90572Y318208I-173J360D01*
G02X91463Y320232I1628J492D01*
G03X91672Y320708I-173J360D01*
G02X92360Y322617I1628J492D01*
G03Y323283I-221J333D01*
G02Y326117I940J1417D01*
G03Y326783I-221J333D01*
G02X94240I940J1417D01*
G03Y326117I221J-333D01*
G02Y323283I-940J-1417D01*
G03Y322617I221J-333D01*
G02X94037Y319668I-940J-1417D01*
G03X93828Y319192I173J-360D01*
G02X92937Y317168I-1628J-492D01*
G03X92728Y316692I173J-360D01*
G37*
G36*
G01X88228D02*
G02X85863Y317732I-1628J-492D01*
G03X86073Y318208I-173J360D01*
G02X86963Y320232I1628J492D01*
G03X87173Y320708I-173J360D01*
G02X87860Y322617I1628J492D01*
G03Y323283I-221J333D01*
G02X89740I940J1417D01*
G03Y322617I221J-333D01*
G02X89537Y319668I-940J-1417D01*
G03X89328Y319192I173J-360D01*
G02X88437Y317168I-1628J-492D01*
G03X88228Y316692I173J-360D01*
G37*
G36*
G01X359489Y299925D02*
G02X358170Y300837I-1447J-683D01*
G03X358563Y301406I32J399D01*
G02X359882Y300495I1447J683D01*
G03X359489Y299925I-32J-399D01*
G37*
G36*
G01X440840Y277417D02*
G02X438960I-940J-1417D01*
G03Y278083I-221J333D01*
G02X440840I940J1417D01*
G03Y277417I221J-333D01*
G37*
G36*
G01X351670Y266094D02*
G02X350283Y267086I-1481J-605D01*
G03X350676Y267637I23J399D01*
G02X352064Y266645I1481J605D01*
G03X351670Y266094I-23J-399D01*
G37*
G36*
G01X269458Y255018D02*
G02X268621Y253862I742J-1418D01*
G03X268042Y254282I-395J65D01*
G02X268879Y255438I-742J1418D01*
G03X269458Y255018I395J-65D01*
G37*
G36*
G01X430563Y247845D02*
G02X429345Y249063I-1563J-345D01*
G03X429770Y249665I86J391D01*
G02X431165Y248270I3730J2335D01*
G03X430563Y247845I-212J-339D01*
G37*
G36*
G01X278554Y248764D02*
G02X277606Y247436I646J-1464D01*
G03X277046Y247836I-399J34D01*
G02X274810Y249485I-646J1464D01*
G03X274271Y249905I-397J46D01*
G02X275290Y251215I-571J1495D01*
G03X275829Y250795I397J-46D01*
G02X277994Y249164I571J-1495D01*
G03X278554Y248764I399J-34D01*
G37*
G36*
G01X384515Y231607D02*
G02X384454Y229662I4259J-1107D01*
G03X383729Y229808I-393J-76D01*
G02X383782Y231507I-1329J892D01*
G03X384515Y231607I345J202D01*
G37*
G36*
G01X404638Y209576D02*
G02X402009Y211604I-1538J724D01*
G03X401990Y212232I-257J307D01*
G02X402060Y215017I1010J1368D01*
G03Y215683I-221J333D01*
G02X403940I940J1417D01*
G03Y215017I221J-333D01*
G02X404091Y212296I-940J-1417D01*
G03X404110Y211668I257J-307D01*
G02X404638Y211024I-1010J-1368D01*
G03X405362I362J170D01*
G02X405840Y211630I1538J-725D01*
G03X405859Y212239I-249J313D01*
G02X406060Y214917I1141J1261D01*
G03Y215583I-221J333D01*
G02X408433Y217915I940J1417D01*
G03X409119Y217934I337J215D01*
G02X411540Y215683I1481J-834D01*
G03Y215017I221J-333D01*
G02X411691Y212296I-940J-1417D01*
G03X411710Y211668I257J-307D01*
G02X409162Y209576I-1010J-1368D01*
G03X408438I-362J-170D01*
G02X405362I-1538J725D01*
G03X404638I-362J-170D01*
G37*
G36*
G01X400110Y211668D02*
G02X398009Y211604I-1010J-1368D01*
G03X397990Y212232I-257J307D01*
G02X398060Y215017I1010J1368D01*
G03Y215683I-221J333D01*
G02X399940I940J1417D01*
G03Y215017I221J-333D01*
G02X400091Y212296I-940J-1417D01*
G03X400110Y211668I257J-307D01*
G37*
G36*
G01X66513Y205386D02*
G02X65381Y207200I-1576J277D01*
G03X65886Y207515I111J384D01*
G02X68210Y208653I1576J-277D01*
G03X68795Y208968I187J354D01*
G02X69640Y207398I1593J-155D01*
G03X69055Y207083I-187J-354D01*
G02X67018Y205701I-1593J155D01*
G03X66513Y205386I-111J-384D01*
G37*
G36*
G01X165801Y194368D02*
G02X164632Y193347I182J-1388D01*
G03X164276Y193851I-386J105D01*
G02X165350Y194788I75J997D01*
G03X165801Y194368I399J-24D01*
G37*
G36*
G01X161737Y194345D02*
G02X160662Y193189I309J-1366D01*
G03X160262Y193648I-396J60D01*
G02X161250Y194710I-11J1000D01*
G03X161737Y194345I399J25D01*
G37*
G36*
G01X165802Y186494D02*
G02X164627Y185453I181J-1388D01*
G03X164272Y185952I-387J99D01*
G02X164331Y187948I80J997D01*
G03X164692Y188503I-8J400D01*
G02X165776Y187658I1292J540D01*
G03X165326Y187173I-59J-396D01*
G02X165351Y186907I-975J-224D01*
G03X165802Y186494I400J-17D01*
G37*
G36*
G01X161736Y186471D02*
G02X160659Y185294I311J-1365D01*
G03X160260Y185748I-396J54D01*
G02X161248Y186829I-8J1000D01*
G03X161736Y186471I399J32D01*
G37*
G36*
G01X430206Y181790D02*
G02X427181Y180237I-1506J-790D01*
G03X426476Y180256I-357J-180D01*
G02X423308Y181264I-1476J844D01*
G03X422889Y181702I-398J39D01*
G02X421166Y182929I-89J1698D01*
G03X420519Y183120I-384J-111D01*
G02X419840Y186042I-1119J1280D01*
G03X420336Y186347I104J386D01*
G02X423562Y185329I1664J-347D01*
G03X423714Y184833I367J-158D01*
G02X424175Y184400I-914J-1433D01*
G03X424880Y184514I323J235D01*
G02X427917Y184940I1620J-515D01*
G03X428583I333J221D01*
G02X430453Y182361I1417J-940D01*
G03X430206Y181790I107J-386D01*
G37*
G36*
G01X165803Y178620D02*
G02X164622Y177560I181J-1388D01*
G03X164267Y178052I-389J94D01*
G02X164339Y180049I84J997D01*
G03X164700Y180609I-5J400D01*
G02X165770Y179785I1283J560D01*
G03X165322Y179292I-61J-395D01*
G02X165351Y179026I-970J-243D01*
G03X165803Y178620I400J-9D01*
G37*
G36*
G01X161734Y178596D02*
G02X160656Y177400I312J-1365D01*
G03X160257Y177848I-397J48D01*
G02X161247Y178947I-6J1000D01*
G03X161734Y178596I398J39D01*
G37*
G36*
G01X389666Y171441D02*
G02X388254Y172399I-1466J-641D01*
G03X388634Y172959I13J400D01*
G02X390276Y175190I1466J641D01*
G03X390676Y175770I44J398D01*
G02X391924Y174910I1424J730D01*
G03X391524Y174330I-44J-398D01*
G02X390046Y172001I-1424J-730D01*
G03X389666Y171441I-13J-400D01*
G37*
G36*
G01X154001Y162873D02*
G02X152802Y161773I172J-1390D01*
G03X152451Y162253I-391J83D01*
G02X152548Y164249I100J995D01*
G03X152907Y164820I-2J400D01*
G02X153957Y164037I1265J600D01*
G03X153511Y163529I-62J-395D01*
G02X153552Y163264I-960J-281D01*
G03X154001Y162873I400J6D01*
G37*
G36*
G01X101075Y151800D02*
G02X99525I-775J-1400D01*
G03Y152500I-194J350D01*
G02X101075I775J1400D01*
G03Y151800I194J-350D01*
G37*
G36*
G01X365714Y142310D02*
G02X363310Y144714I-1214J1190D01*
G03Y145286I-280J286D01*
G02X363807Y148052I1190J1214D01*
G03X363997Y148605I-163J365D01*
G02X366675Y150629I1503J795D01*
G03X367246Y150648I276J289D01*
G02X368863Y151161I1254J-1148D01*
G03X369339Y151637I85J391D01*
G02X370637Y150339I1661J363D01*
G03X370161Y149863I-85J-391D01*
G02X369454Y148093I-1661J-363D01*
G03X369359Y147522I225J-331D01*
G02X368954Y145093I-1359J-1021D01*
G03X368859Y144522I225J-331D01*
G02X366286Y142310I-1359J-1021D01*
G03X365714I-286J-280D01*
G37*
G36*
G01X151618Y138085D02*
G02X150558Y139224I-1382J-223D01*
G03X151049Y139595I92J389D01*
G02X153048Y139521I999J-46D01*
G03X153609Y139143I400J-11D01*
G02X152796Y138120I563J-1282D01*
G03X152302Y138581I-393J74D01*
G02X152023Y138549I-253J968D01*
G03X151618Y138085I-10J-400D01*
G37*
G36*
G01X147646Y138242D02*
G02X146496Y139248I-1347J-381D01*
G03X146951Y139674I56J396D01*
G02X148007Y138750I997J75D01*
G03X147646Y138242I24J-399D01*
G37*
G36*
G01X362417Y126860D02*
G02Y128740I-1417J940D01*
G03X363083I333J221D01*
G02X365917I1417J-940D01*
G03X366583I333J221D01*
G02X368324Y129469I1417J-940D01*
G03X368800Y129850I76J393D01*
G02X368809Y129979I1699J-50D01*
G03X368546Y130190I-199J21D01*
G02X366583Y130860I-546J1610D01*
G03X365917I-333J-221D01*
G02X363083I-1417J940D01*
G03X362417I-333J-221D01*
G02Y132740I-1417J940D01*
G03X363083I333J221D01*
G02X365917I1417J-940D01*
G03X366583I333J221D01*
G02X368324Y133469I1417J-940D01*
G03X368800Y133850I76J393D01*
G02X372064Y134467I1699J-50D01*
G03X372327Y134361I184J78D01*
G02X374564Y133467I673J-1561D01*
G03X374827Y133361I184J78D01*
G02X373936Y131133I673J-1561D01*
G03X373673Y131239I-184J-78D01*
G02X371436Y132133I-673J1561D01*
G03X371173Y132239I-184J-78D01*
G02X370176Y132131I-673J1561D01*
G03X369700Y131750I-76J-393D01*
G02X369691Y131621I-1699J50D01*
G03X369954Y131410I199J-21D01*
G02X372064Y130467I546J-1610D01*
G03X372327Y130361I184J78D01*
G02X374564Y129467I673J-1561D01*
G03X374827Y129361I184J78D01*
G02X373936Y127133I673J-1561D01*
G03X373673Y127239I-184J-78D01*
G02X371436Y128133I-673J1561D01*
G03X371173Y128239I-184J-78D01*
G02X370176Y128131I-673J1561D01*
G03X369700Y127750I-76J-393D01*
G02X366583Y126860I-1699J50D01*
G03X365917I-333J-221D01*
G02X363083I-1417J940D01*
G03X362417I-333J-221D01*
G37*
G36*
G01X450440Y111417D02*
G02X448560I-940J-1417D01*
G03Y112083I-221J333D01*
G02X450440I940J1417D01*
G03Y111417I221J-333D01*
G37*
G36*
G01X449340Y98317D02*
G02X446856Y96189I-940J-1417D01*
G03X446208Y96304I-363J-167D01*
G02X446544Y98211I-1208J1197D01*
G03X447192Y98097I363J167D01*
G02X447460Y98317I1208J-1196D01*
G03Y98983I-221J333D01*
G02X449340I940J1417D01*
G03Y98317I221J-333D01*
G37*
G36*
G01X449601Y82395D02*
G02X446978Y80342I-1101J-1295D01*
G03X446312Y80418I-358J-178D01*
G02X446522Y82258I-1312J1082D01*
G03X447188Y82182I358J178D01*
G02X447399Y82395I1311J-1082D01*
G03Y83005I-259J305D01*
G02X446822Y84024I1101J1295D01*
G03X446156Y84253I-395J-65D01*
G02X444258Y83970I-1156J1247D01*
G03X443706Y83742I-174J-360D01*
G02X441974Y82604I-1606J558D01*
G03X441763Y82447I-15J-199D01*
G02X439952Y81106I-1663J353D01*
G03X439742Y80959I-17J-199D01*
G02X438248Y83094I-1642J441D01*
G03X438458Y83241I17J199D01*
G02X440226Y84496I1642J-441D01*
G03X440437Y84653I15J199D01*
G02X442842Y85830I1663J-353D01*
G03X443394Y86058I174J360D01*
G02X446678Y85776I1606J-558D01*
G03X447344Y85547I395J65D01*
G02X449601Y83005I1156J-1247D01*
G03Y82395I259J-305D01*
G37*
G36*
G01X188354Y78423D02*
G02X186240Y78830I-1254J-823D01*
G03X186346Y79377I-229J328D01*
G02X186125Y80472I1254J823D01*
G03X185568Y80910I-393J73D01*
G02X186430Y82007I-614J1369D01*
G03X186986Y81569I393J-73D01*
G02X188460Y78970I614J-1369D01*
G03X188354Y78423I229J-328D01*
G37*
G36*
G01X182074Y75954D02*
G02X181306Y77312I-1499J49D01*
G03X181901Y77649I195J349D01*
G02X181924Y77867I1499J-49D01*
G03X181588Y78334I-394J71D01*
G02X183281Y79552I217J1484D01*
G03X183617Y79084I394J-71D01*
G02X182669Y76290I-217J-1484D01*
G03X182074Y75954I-195J-349D01*
G37*
G36*
G01X159922Y74850D02*
G02X157137Y74853I-1392J560D01*
G03X156474Y74978I-371J-149D01*
G02X156771Y76560I-1096J1025D01*
G03X157434Y76435I371J149D01*
G02X159623Y76438I1096J-1025D01*
G03X160285Y76562I291J274D01*
G02X163046Y76618I1392J-560D01*
G03X163711Y76518I365J164D01*
G02X165955Y76534I1129J-988D01*
G03X166615Y76633I297J268D01*
G02X166861Y74999I1361J-631D01*
G03X166201Y74899I-297J-268D01*
G02X163472Y74915I-1361J631D01*
G03X162806Y75014I-365J-164D01*
G02X160584Y74975I-1129J988D01*
G03X159922Y74850I-291J-274D01*
G37*
G36*
G01X173659Y61930D02*
G02X171590Y61587I-859J-1230D01*
G03X171497Y62151I-323J237D01*
G02X172492Y64875I859J1230D01*
G03X172922Y65342I36J398D01*
G02X175624Y66468I1478J258D01*
G03X176276I326J231D01*
G02Y64732I1224J-868D01*
G03X175624I-326J-231D01*
G02X174264Y64106I-1224J868D01*
G03X173834Y63639I-36J-398D01*
G02X173566Y62494I-1478J-258D01*
G03X173659Y61930I323J-237D01*
G37*
G36*
G01X124142Y53558D02*
G02X120858I-1642J442D01*
G03X120382Y53843I-386J-104D01*
G02X120324Y57169I-382J1657D01*
G03X120801Y57550I76J393D01*
G02X121560Y58917I1699J-50D01*
G03Y59583I-221J333D01*
G02X124142Y61442I940J1417D01*
G03X124618Y61157I386J104D01*
G02X125382I382J-1657D01*
G03X125858Y61442I90J390D01*
G02X128611Y59713I1642J-442D01*
G03X128706Y59046I261J-303D01*
G02X127269Y55965I-706J-1547D01*
G03X126698Y55584I-172J-361D01*
G02X124618Y53843I-1698J-84D01*
G03X124142Y53558I-90J-390D01*
G37*
G36*
G01X113808Y51724D02*
G02X112391Y51593I-576J-1493D01*
G03X112324Y52306I-210J340D01*
G02X113742Y52438I576J1493D01*
G03X113808Y51724I210J-340D01*
G37*
G36*
G01X275417Y40560D02*
G02X272810Y42714I-1417J940D01*
G03Y43286I-280J286D01*
G02Y45714I1190J1214D01*
G03Y46286I-280J286D01*
G02X275417Y48440I1190J1214D01*
G03X276083I333J221D01*
G02X276616Y48952I1417J-940D01*
G02X282755Y45960I5284J3048D01*
G03X282466Y45361I56J-396D01*
G02X282190Y43286I-1466J-861D01*
G03Y42714I280J-286D01*
G02X279583Y40560I-1190J-1214D01*
G03X278917I-333J-221D01*
G02X276083I-1417J940D01*
G03X275417I-333J-221D01*
G37*
G36*
G01X69214Y37810D02*
G02X67060Y40417I-1214J1190D01*
G03Y41083I-221J333D01*
G02X69214Y43690I940J1417D01*
G03X69786I286J280D01*
G02X72417Y43440I1214J-1190D01*
G03X73083I333J221D01*
G02X75917I1417J-940D01*
G03X76583I333J221D01*
G02X79417I1417J-940D01*
G03X80083I333J221D01*
G02X82440Y41083I1417J-940D01*
G03Y40417I221J-333D01*
G02X80083Y38060I-940J-1417D01*
G03X79417I-333J-221D01*
G02X76583I-1417J940D01*
G03X75917I-333J-221D01*
G02X73083I-1417J940D01*
G03X72417I-333J-221D01*
G02X69786Y37810I-1417J940D01*
G03X69214I-286J-280D01*
G37*
G36*
G01X185498Y32850D02*
G02X184076Y32829I-698J-850D01*
G03X184012Y33477I-263J301D01*
G02X185543Y33500I746J1302D01*
G03X185498Y32850I209J-341D01*
G37*
G36*
G01X195065Y33549D02*
G02X193435Y33606I-859J-1230D01*
G03X193515Y34229I-206J343D01*
G02X195029Y34176I785J771D01*
G03X195065Y33549I265J-300D01*
G37*
G36*
G01X391714Y28310D02*
G02X388932Y28843I-1214J1190D01*
G03X388360Y29034I-369J-154D01*
G02X389068Y31157I-860J1466D01*
G03X389640Y30966I369J154D01*
G02X389838Y31066I860J-1466D01*
G03Y31434I-78J184D01*
G02X391714Y34190I662J1566D01*
G03X392286I286J280D01*
G02X394714I1214J-1190D01*
G03X395286I286J280D01*
G02X397440Y31583I1214J-1190D01*
G03Y30917I221J-333D01*
G02X395286Y28310I-940J-1417D01*
G03X394714I-286J-280D01*
G02X392286I-1214J1190D01*
G03X391714I-286J-280D01*
G37*
G36*
G01X208192Y28144D02*
G02X206787Y29798I-1492J156D01*
G03X207208Y30156I23J399D01*
G02X207237Y30331I1492J-156D01*
G03X206838Y30819I-390J88D01*
G02X208268Y31988I-33J1500D01*
G03X208667Y31500I390J-88D01*
G02X210003Y30744I33J-1500D01*
G03X210697I347J198D01*
G02X211437Y31391I1303J-744D01*
G03X211670Y31879I-150J371D01*
G02X213667Y30928I1434J440D01*
G03X213434Y30440I150J-371D01*
G02X210697Y29256I-1434J-440D01*
G03X210003I-347J-198D01*
G02X208613Y28502I-1303J744D01*
G03X208192Y28144I-23J-399D01*
G37*
G36*
G01X187604Y22846D02*
G02X185776Y22865I-927J-1180D01*
G03X185816Y23144I-120J160D01*
G02X186040Y24680I884J655D01*
G03Y25320I-240J320D01*
G02X185790Y26819I660J880D01*
G03X185716Y27351I-331J225D01*
G02X187661Y27370I961J1152D01*
G03X187597Y26837I262J-302D01*
G02X187360Y25320I-897J-637D01*
G03Y24680I240J-320D01*
G02X187569Y23126I-660J-880D01*
G03X187604Y22846I158J-123D01*
G37*
G36*
G01X191296Y21202D02*
G02X189575Y20316I-336J-1462D01*
G03X189391Y20825I-369J154D01*
G02X189240Y22680I509J975D01*
G03Y23320I-240J320D01*
G02X188987Y24814I660J880D01*
G03X188902Y25353I-332J223D01*
G02X190824Y25413I925J1181D01*
G03X190772Y24870I266J-299D01*
G02X190560Y23320I-872J-670D01*
G03Y22680I240J-320D01*
G02X190990Y21647I-660J-880D01*
G03X191296Y21202I396J-55D01*
G37*
G36*
G01X183195Y20067D02*
G02X182050Y21046I-1415J-497D01*
G03X182517Y21509I72J393D01*
G02X182940Y22580I1083J191D01*
G03Y23220I-240J320D01*
G02X182721Y24762I660J880D01*
G03X182639Y25325I-319J241D01*
G02X184486Y25380I889J1209D01*
G03X184438Y24813I256J-308D01*
G02X184260Y23220I-838J-713D01*
G03Y22580I240J-320D01*
G02X183580Y20600I-660J-880D01*
G03X183195Y20067I-7J-400D01*
G37*
G36*
G01X195747Y20138D02*
G02X194679Y20990I-1367J-618D01*
G03X195143Y21493I80J392D01*
G02X195540Y22680I1057J307D01*
G03Y23320I-240J320D01*
G02X195287Y24814I660J880D01*
G03X195202Y25352I-332J223D01*
G02X197123Y25413I924J1182D01*
G03X197072Y24871I266J-299D01*
G02X196860Y23320I-872J-671D01*
G03Y22680I240J-320D01*
G02X196135Y20702I-660J-880D01*
G03X195747Y20138I-24J-399D01*
G37*
G36*
G01X222342Y16204D02*
G02X220543Y15964I-741J-1304D01*
G03X220459Y16596I-282J284D01*
G02X222503Y18644I742J1304D01*
G03X223197I347J198D01*
G02Y17156I1303J-744D01*
G03X222503I-347J-198D01*
G02X222257Y16836I-1303J744D01*
G03X222342Y16204I282J-284D01*
G37*
G36*
G01X188767Y14651D02*
G02X187134Y14707I-860J-1229D01*
G03X187214Y15330I-206J343D01*
G02X188731Y15277I786J770D01*
G03X188767Y14651I266J-299D01*
G37*
G36*
G01X169829Y10171D02*
G02X168771Y11229I-1529J-471D01*
G03X169271Y11729I118J382D01*
G02X170329Y10671I1529J471D01*
G03X169829Y10171I-118J-382D01*
G37*
G54D33*
X417000Y138200D03*
X438500D03*
X460000D03*
G54D32*
X430700Y32500D03*
G54D27*
X90500Y343000D03*
X103500Y2700D03*
X138500D03*
X144000Y362500D03*
X156000Y2700D03*
X250000Y282500D03*
X295000Y85000D03*
Y140000D03*
X297900Y189800D03*
X300000Y227500D03*
X306000Y282500D03*
X327100Y110400D03*
X346300D03*
X351100Y168900D03*
X392500Y247500D03*
X419100Y216000D03*
X474000Y70500D03*
G54D24*
X20500Y59800D03*
Y307800D03*
G54D29*
X158528Y55136D03*
X156608Y60921D03*
X158528Y67040D03*
X156608Y79819D03*
X158528Y85938D03*
X164827Y55136D03*
X169206Y60921D03*
X161677Y69166D03*
X162907Y60921D03*
X159758Y63381D03*
X171126Y67040D03*
X164827D03*
X166057Y63381D03*
Y82279D03*
X162907Y79819D03*
X159758Y82279D03*
X169206Y79819D03*
X171126Y74034D03*
X172700Y82600D03*
X164827Y85938D03*
X183528Y7636D03*
X181608Y32319D03*
X178250Y28500D03*
X183528Y38438D03*
X174276Y57105D03*
X186874Y69166D03*
X188104Y60921D03*
X181805D03*
X180575Y69166D03*
X183724Y67040D03*
X180575Y57105D03*
X177425Y74034D03*
X180575Y88064D03*
X174276D03*
X186874D03*
X199276Y9605D03*
X189827Y7636D03*
X194206Y13421D03*
X200506D03*
X189827Y38438D03*
X196323Y55136D03*
X190024D03*
Y67040D03*
X199472Y69166D03*
X196323Y67040D03*
X193173Y69166D03*
X197553Y63381D03*
X202622Y67040D03*
X200702Y60921D03*
X193173Y57105D03*
Y76002D03*
X190024Y74034D03*
X196323D03*
X197900Y82600D03*
X202622Y74034D03*
X200702Y79819D03*
X194403D03*
X202622Y85938D03*
X196323D03*
X205575Y9605D03*
X215024Y7636D03*
X203260Y18550D03*
X215024Y19540D03*
Y26534D03*
X211874Y21666D03*
X213104Y13421D03*
X206805D03*
X205575Y21666D03*
X208724Y19540D03*
X205575Y40564D03*
X210300Y35100D03*
X211874Y40564D03*
X203852Y63381D03*
Y82279D03*
X221323Y7636D03*
X218173Y9605D03*
Y21666D03*
X221323Y26534D03*
X227622Y19540D03*
X225702Y13421D03*
X227622Y26534D03*
X229900Y16700D03*
X218173Y28502D03*
X222553Y34779D03*
X228852D03*
X219403Y32319D03*
X221323Y38438D03*
X225702Y32319D03*
X227622Y38438D03*
G54D30*
X180400Y26100D03*
G54D23*
X5900Y176300D03*
Y186300D03*
Y261300D03*
Y266300D03*
X20900Y91300D03*
X15900Y86300D03*
Y126300D03*
Y131300D03*
X10900Y181300D03*
Y176300D03*
X15900Y201300D03*
X20900Y211300D03*
Y206300D03*
X15900D03*
X20900Y221300D03*
Y226300D03*
Y241300D03*
Y236300D03*
X15900Y261300D03*
X20900Y256300D03*
Y251300D03*
X15900Y266300D03*
X20900Y276300D03*
Y271300D03*
X15900Y276300D03*
X10900D03*
Y271300D03*
X35900Y96300D03*
Y86300D03*
X30900Y91300D03*
X25900Y86300D03*
X35900Y106300D03*
Y171300D03*
Y166300D03*
Y186300D03*
Y181300D03*
X25900Y186300D03*
X35900Y201300D03*
Y196300D03*
X25900Y191300D03*
X35900Y226300D03*
Y231300D03*
X25900D03*
X35900Y246300D03*
Y241300D03*
X25900Y236300D03*
X35900Y261300D03*
Y266300D03*
X25900Y281300D03*
X40900Y91300D03*
X50900Y96300D03*
Y91300D03*
X40900Y111300D03*
Y101300D03*
X50900Y111300D03*
X45900Y106300D03*
Y101300D03*
X50900Y116300D03*
X45900Y126300D03*
Y121300D03*
X50900Y136300D03*
Y131300D03*
Y156300D03*
Y151300D03*
Y171300D03*
X45900Y186300D03*
Y181300D03*
X50900Y176300D03*
Y196300D03*
Y191300D03*
X45900Y201300D03*
X50900Y216300D03*
Y211300D03*
X45900Y206300D03*
X50900Y231300D03*
X45900Y226300D03*
Y221300D03*
X50900Y236300D03*
Y256300D03*
Y251300D03*
X40900Y256300D03*
Y251300D03*
X50900Y276300D03*
Y271300D03*
X40900Y276300D03*
Y271300D03*
X41200Y352500D03*
X61312Y204088D03*
X57500Y342300D03*
Y358300D03*
X81800Y91100D03*
Y106600D03*
X69300Y197600D03*
X72650Y199150D03*
X78200Y233500D03*
X76600Y238600D03*
X80600Y254400D03*
X80800Y260500D03*
X95800Y94100D03*
X91800D03*
X95800Y104100D03*
X91800D03*
X97200Y194000D03*
X93400Y231800D03*
X88100Y229500D03*
X97500Y225800D03*
Y229800D03*
X95100Y240100D03*
X90600Y254400D03*
X111000Y40000D03*
X99000Y49000D03*
X108000D03*
X103500D03*
X113000Y43000D03*
X100300Y145100D03*
X102000Y214200D03*
X111700Y207200D03*
X108000Y209200D03*
X102200Y209800D03*
X104850Y219050D03*
X100800Y333500D03*
X111000Y355000D03*
X116500Y47700D03*
X116800Y63600D03*
X122500Y270295D03*
X125700Y354000D03*
X131500Y114500D03*
Y102500D03*
X130500Y220500D03*
X140800Y233900D03*
Y237900D03*
X138500Y349500D03*
X132500Y360000D03*
X148300Y323700D03*
X170600Y25800D03*
Y17400D03*
X167800Y19700D03*
X167700Y23400D03*
X170600Y31000D03*
X167700Y33400D03*
X158400Y263000D03*
X167800D03*
X162500Y270295D03*
X166000Y356890D03*
X161000Y361500D03*
Y371600D03*
X177200Y263000D03*
X175300Y257100D03*
X183500Y361500D03*
X183400Y371600D03*
X189500Y236100D03*
X202500Y270295D03*
X188000Y356890D03*
X210000D03*
X205000Y361500D03*
Y371600D03*
X225100Y126000D03*
X225200Y321500D03*
X226400Y343300D03*
X232000Y356890D03*
X227000Y361500D03*
Y371600D03*
X240732Y162000D03*
X240762Y169750D03*
X238200Y178700D03*
X245400Y193200D03*
X245900Y205700D03*
X238200Y204900D03*
X242000Y205800D03*
X246900Y220500D03*
X240600Y233200D03*
X245800Y230438D03*
X246400Y258900D03*
X246100Y253900D03*
X237300Y360600D03*
X247268Y162000D03*
X247298Y169750D03*
X254700Y199200D03*
X249500Y204500D03*
X254800Y211300D03*
X259259Y212859D03*
X261700Y218400D03*
X251700Y220600D03*
X250200Y262900D03*
X254000Y356890D03*
X249000Y361500D03*
Y371600D03*
X263732Y162500D03*
Y169500D03*
X270268D03*
Y162500D03*
X263400Y179400D03*
X265600Y183000D03*
X275100Y210300D03*
X276000Y266400D03*
X266100Y352900D03*
X272000Y361500D03*
Y371600D03*
X280300Y266400D03*
X284100Y358800D03*
X286150Y362750D03*
X290000Y367700D03*
X288100Y371600D03*
X292600Y43600D03*
X301937Y44737D03*
X298500Y54700D03*
X294000Y361500D03*
X294100Y371600D03*
X318200Y188200D03*
X320800Y195700D03*
X320300Y347200D03*
X319500Y357500D03*
X311800Y357400D03*
X314500Y361500D03*
Y371600D03*
X332900Y156900D03*
Y169900D03*
Y165900D03*
Y160900D03*
X332600Y216300D03*
X329600Y210900D03*
X324050Y205700D03*
X331400Y231800D03*
X325700Y233700D03*
X333800Y226600D03*
X328100Y236400D03*
X331900Y235400D03*
X333100Y316100D03*
X333800Y346600D03*
X328800Y344900D03*
X325400Y352800D03*
X342000Y93500D03*
X349500Y100000D03*
X336900Y212600D03*
X341474Y255826D03*
X341700Y259900D03*
X345100Y265700D03*
X349736Y307454D03*
X344754Y312746D03*
X336200Y311900D03*
X350300Y331300D03*
X350400Y341800D03*
X349300Y351900D03*
X360000Y13000D03*
Y30000D03*
X354000Y284900D03*
Y289400D03*
Y280400D03*
X362900Y296900D03*
X359800Y358000D03*
X358042Y361742D03*
X363947Y360053D03*
X355900Y365400D03*
X361979Y368179D03*
X375100Y4400D03*
X378800Y151700D03*
X373000Y265500D03*
X372600Y284800D03*
X372400Y289800D03*
X377600Y296300D03*
X379695Y301405D03*
X365916Y313596D03*
X379695Y364305D03*
X377727Y361027D03*
X369853Y363353D03*
X367884Y360216D03*
X394500Y179600D03*
X388233Y279800D03*
Y289800D03*
X384700Y310100D03*
X381664Y313164D03*
X394490Y336490D03*
X381664Y367464D03*
X396100Y322300D03*
X400000Y308400D03*
X395900Y332500D03*
X396000Y347800D03*
X403300Y340200D03*
X424800Y105800D03*
Y110800D03*
Y115800D03*
Y120800D03*
X414400Y325200D03*
X424500Y324900D03*
X424700Y330200D03*
X414400Y340100D03*
X433500Y147500D03*
X433200Y157000D03*
X427000Y223600D03*
X426500Y302700D03*
X452400Y154500D03*
X444600Y173200D03*
X452100Y175400D03*
X451400Y291000D03*
X447800Y297900D03*
X455500Y147500D03*
X467900Y201300D03*
Y196300D03*
Y206300D03*
X468100Y211300D03*
X468900Y303200D03*
G54D25*
X28400Y76749D03*
X40408Y290843D03*
G54D26*
X35000Y338800D03*
X50690Y316300D03*
X53190Y321300D03*
X50690Y326300D03*
X52000Y333800D03*
X42000Y340800D03*
X51000D03*
X65690Y321800D03*
X60690D03*
X55690Y326300D03*
X64000Y336800D03*
X57500Y338300D03*
X97732Y172500D03*
Y164000D03*
Y181500D03*
X104268Y172500D03*
Y164000D03*
Y181500D03*
X126500Y158000D03*
X123532Y181600D03*
X130068D03*
X197900Y241900D03*
X211400D03*
X224700D03*
X245400Y180100D03*
X237900Y241900D03*
X284900Y41600D03*
X292800Y21400D03*
X297900D03*
X302600Y54700D03*
X310000Y47600D03*
X336000Y256600D03*
X350500Y233500D03*
X360000Y34000D03*
X364500Y169000D03*
X354300Y233400D03*
X378600Y6900D03*
X376000Y30000D03*
X367000D03*
Y38000D03*
X371000Y165000D03*
X384000Y33000D03*
X399300Y110800D03*
Y105800D03*
Y120800D03*
Y115800D03*
X407000Y238200D03*
X405400Y347100D03*
X414216Y67734D03*
X418153D03*
X422090D03*
X419500Y84400D03*
X424700D03*
X414600Y82800D03*
X422129Y71750D03*
X414216Y75609D03*
X418153D03*
X422090D03*
X414216Y71671D03*
X418153D03*
X412500Y146500D03*
X420000Y206800D03*
X415500Y207800D03*
X426027Y67734D03*
X429964D03*
X434500Y84500D03*
X429600Y84400D03*
X426027Y75609D03*
X429964D03*
X426027Y71671D03*
X429964D03*
X439700Y88400D03*
X439100Y267100D03*
X440000Y289500D03*
Y293500D03*
X442000Y93000D03*
X445000Y90000D03*
X448500Y93000D03*
X448400Y88200D03*
X445000Y102500D03*
Y107000D03*
Y111500D03*
X446800Y237700D03*
X442400Y264100D03*
X451400Y277600D03*
X467000Y238200D03*
G54D34*
X464041Y319139D03*
Y336461D03*
G54D28*
X142361Y129987D03*
X138424D03*
X142361Y137861D03*
Y133924D03*
X138424D03*
X134487Y141798D03*
Y149672D03*
X138424D03*
X134487Y157546D03*
X138424D03*
X142361Y153609D03*
Y145735D03*
X134487Y165420D03*
X138424D03*
X134487Y173294D03*
X138424D03*
X142361Y161484D03*
Y169358D03*
X134487Y181168D03*
X138424D03*
X134487Y189042D03*
X138424D03*
X142361Y177232D03*
Y185106D03*
Y200854D03*
X134487Y196916D03*
X138424D03*
X142361Y192980D03*
X138424Y204791D03*
X134487D03*
Y212665D03*
X138424D03*
X142361Y208728D03*
X134487Y224476D03*
X142361Y220539D03*
Y224476D03*
X134487Y220539D03*
X146298Y129987D03*
X158109Y137861D03*
Y141798D03*
X150235D03*
X154172Y133924D03*
X150235D03*
Y157546D03*
X154172D03*
Y153609D03*
Y149672D03*
X150235D03*
X146298Y153609D03*
Y145735D03*
X154172D03*
X158109Y165420D03*
Y161484D03*
Y173294D03*
X154172Y169358D03*
X150235Y173294D03*
X154172D03*
X146298Y161484D03*
Y169358D03*
X150235Y165420D03*
X158109Y189042D03*
Y181168D03*
X150235Y189042D03*
X154172Y185106D03*
X146298Y177232D03*
Y185106D03*
X150235Y181168D03*
X154172D03*
Y177232D03*
X146298Y200854D03*
X154172D03*
X146298Y192980D03*
X150235D03*
X154172D03*
Y204791D03*
X158109Y216602D03*
X154172Y208728D03*
X150235Y204791D03*
Y212665D03*
X146298Y208728D03*
Y216602D03*
X154172Y212665D03*
Y216602D03*
X158109Y208728D03*
X150235Y228413D03*
X146298D03*
Y220539D03*
Y224476D03*
X158109Y220539D03*
X154172D03*
X165984Y129987D03*
X169920D03*
X165984Y141798D03*
X162046D03*
Y137861D03*
X169920D03*
X165984D03*
X169920Y141798D03*
X162046Y149672D03*
Y145735D03*
Y153609D03*
X169920D03*
X165984Y145735D03*
X169920Y149672D03*
X165984D03*
X162046Y165420D03*
X165984Y173294D03*
X169920Y169358D03*
X165984D03*
Y161484D03*
X169920Y165420D03*
Y161484D03*
X165984Y165420D03*
X169920Y185106D03*
Y177232D03*
X165984Y200854D03*
X169920Y192980D03*
X162046Y200854D03*
X169920Y196916D03*
X162046Y212665D03*
X169920Y216602D03*
X165984Y212665D03*
Y208728D03*
X169920D03*
Y204791D03*
X165984D03*
X162046D03*
Y216602D03*
X165984D03*
X162046Y208728D03*
X169920Y220539D03*
X165984D03*
Y224476D03*
X162046D03*
Y220539D03*
X165984Y228413D03*
X169920D03*
X173858Y129987D03*
X181732D03*
X177794D03*
X185668D03*
X173858Y137861D03*
X185668D03*
X177794Y141798D03*
Y137861D03*
X173858Y133924D03*
Y141798D03*
X177794Y133924D03*
X185668Y141798D03*
X181732Y137861D03*
X185668Y133924D03*
X177794Y149672D03*
X185668D03*
X177794Y157546D03*
Y153609D03*
X185668Y157546D03*
X177794Y145735D03*
X173858D03*
Y153609D03*
Y149672D03*
Y157546D03*
X181732Y149672D03*
X185668Y145735D03*
Y153609D03*
X173858Y165420D03*
X185668Y169358D03*
X173858Y161484D03*
X177794D03*
X181732D03*
X177794Y165420D03*
X173858Y173294D03*
X181732D03*
X177794Y169358D03*
X173858Y189042D03*
X181732D03*
X177794Y185106D03*
X185668D03*
X173858Y181168D03*
X181732D03*
X177794Y177232D03*
X185668D03*
Y196916D03*
Y200854D03*
X173858D03*
Y196916D03*
X177794D03*
Y200854D03*
X181732Y192980D03*
X185668D03*
X177794D03*
X181732Y208728D03*
Y204791D03*
X185668Y212665D03*
Y216602D03*
X173858Y212665D03*
Y216602D03*
X177794Y208728D03*
Y212665D03*
X173858Y208728D03*
X177794Y216602D03*
Y204791D03*
Y224476D03*
Y220539D03*
X173858Y228413D03*
X177794D03*
X173858Y220539D03*
Y224476D03*
X185668Y228413D03*
X197480Y129987D03*
X189606D03*
X193542D03*
X197480Y141798D03*
X201417D03*
X189606Y137861D03*
Y133924D03*
X197480D03*
Y137861D03*
X193542D03*
X201417Y149672D03*
X197480D03*
Y157546D03*
Y153609D03*
Y145735D03*
X201417Y157546D03*
Y153609D03*
Y145735D03*
X189606Y149672D03*
X193542D03*
X189606Y157546D03*
X201417Y165420D03*
X197480Y169358D03*
X189606D03*
X197480Y161484D03*
X201417D03*
X193542D03*
X189606Y165420D03*
Y161484D03*
Y173294D03*
X197480D03*
X193542Y169358D03*
X201417D03*
X189606Y189042D03*
X197480D03*
X193542Y185106D03*
X201417D03*
X189606Y181168D03*
X197480D03*
X201417D03*
X193542Y177232D03*
X201417D03*
X189606Y196916D03*
Y200854D03*
Y192980D03*
X193542Y196916D03*
X197480Y192980D03*
X193542D03*
X201417D03*
X189606Y216602D03*
X197480Y212665D03*
X189606Y204791D03*
X197480Y208728D03*
Y204791D03*
X189606Y220539D03*
Y224476D03*
Y228413D03*
X193542D03*
X197480D03*
X201417Y224476D03*
Y220539D03*
X209291Y129987D03*
X205354D03*
X217165D03*
X213228D03*
X209291Y141798D03*
X205354D03*
Y137861D03*
X213228D03*
Y133924D03*
X217165Y137861D03*
X213228Y141798D03*
X209291Y153609D03*
X205354Y149672D03*
X209291D03*
Y145735D03*
X213228D03*
Y153609D03*
X209291Y157546D03*
X217165Y149672D03*
X209291Y173294D03*
X217165D03*
X205354Y165420D03*
Y173294D03*
X213228Y169358D03*
Y173294D03*
X209291Y181168D03*
Y177232D03*
X213228Y189042D03*
X205354D03*
Y181168D03*
X209291Y185106D03*
X217165Y196916D03*
X205354D03*
X213228D03*
X209291Y212665D03*
X213228Y204791D03*
X209291Y224476D03*
X225039Y141798D03*
X221102Y137861D03*
X225039D03*
Y129987D03*
X221102Y157546D03*
X225039Y165420D03*
X228976D03*
Y189042D03*
X225039D03*
X221102Y185106D03*
X225039Y196916D03*
X221102Y192980D03*
Y216602D03*
X225039D03*
X228976Y212665D03*
X225039Y204791D03*
X221102D03*
Y228413D03*
X225039Y220539D03*
X232913Y153609D03*
Y157546D03*
Y165420D03*
Y173294D03*
Y161484D03*
Y177232D03*
Y192980D03*
Y216602D03*
Y224476D03*
G54D31*
X239500Y329900D03*
X249500D03*
X259500D03*
X249500Y339900D03*
X259500D03*
X269500Y329900D03*
Y339900D03*
X279500Y329900D03*
X388773Y210500D03*
Y220500D03*
X413500Y232000D03*
Y242000D03*
Y252000D03*
Y267500D03*
Y277500D03*
X433500Y232000D03*
Y242000D03*
X453500Y232000D03*
Y242000D03*
Y252000D03*
X466000Y267500D03*
Y277500D03*
Y287500D03*
X473500Y232000D03*
Y242000D03*
Y252000D03*
%LPD*%
G75*
G54D10*
X-10500Y24000D03*
Y39000D03*
Y54000D03*
Y69500D03*
Y84500D03*
Y99500D03*
Y114500D03*
Y129500D03*
Y144500D03*
Y159500D03*
Y174500D03*
Y189500D03*
Y204500D03*
Y219500D03*
Y234500D03*
Y249500D03*
Y264500D03*
Y279500D03*
Y294500D03*
Y309500D03*
Y324500D03*
Y339500D03*
Y354500D03*
X8000Y24500D03*
Y39000D03*
X8500Y54500D03*
X9000Y70000D03*
X5900Y91300D03*
Y106300D03*
Y121300D03*
Y136300D03*
Y151300D03*
Y166300D03*
Y181300D03*
Y196300D03*
Y211300D03*
Y226300D03*
Y241300D03*
Y256300D03*
Y276300D03*
Y271300D03*
X6000Y294500D03*
Y310000D03*
X6500Y324500D03*
X7000Y339500D03*
X18000Y-11000D03*
Y81500D03*
X20900Y96300D03*
Y86300D03*
X15900Y91300D03*
X10900Y96300D03*
Y86300D03*
X20900Y111300D03*
X15900Y106300D03*
X10900Y111300D03*
X20900Y126300D03*
X15900Y121300D03*
X10900Y126300D03*
X20900Y141300D03*
X15900Y136300D03*
X10900Y141300D03*
X20900Y156300D03*
X15900Y151300D03*
X10900Y156300D03*
X20900Y171300D03*
X15900Y166300D03*
X10900Y171300D03*
X20900Y186300D03*
X15900Y181300D03*
X10900Y186300D03*
X20900Y201300D03*
X15900Y196300D03*
X10900Y201300D03*
X20900Y216300D03*
X15900Y211300D03*
X10900Y216300D03*
X20900Y231300D03*
X15900Y226300D03*
X10900Y231300D03*
X20900Y246300D03*
X15900Y241300D03*
X10900Y246300D03*
X20900Y261300D03*
X15900Y256300D03*
X10900Y261300D03*
X20900Y266300D03*
X15900Y271300D03*
X10900Y266300D03*
X20900Y281300D03*
X10900D03*
X21500Y324500D03*
X22000Y339500D03*
X14500Y355500D03*
X23500Y369000D03*
X16000Y380500D03*
X33000Y-11000D03*
X25000Y10000D03*
Y24500D03*
Y39000D03*
X36000Y62000D03*
Y81000D03*
X35900Y91300D03*
X30900Y96300D03*
Y86300D03*
X25900Y91300D03*
X35900Y101300D03*
X30900Y111300D03*
X25900Y106300D03*
X30900Y126300D03*
X25900Y121300D03*
X30900Y141300D03*
X25900Y136300D03*
X35900Y146300D03*
X30900Y156300D03*
X25900Y151300D03*
X35900Y161300D03*
X30900Y171300D03*
X25900Y166300D03*
X35900Y176300D03*
X30900Y186300D03*
X25900Y181300D03*
X35900Y191300D03*
X30900Y201300D03*
X25900Y196300D03*
X35900Y206300D03*
X30900Y216300D03*
X25900Y211300D03*
X35900Y221300D03*
X30900Y231300D03*
X25900Y226300D03*
X35900Y236300D03*
X30900Y246300D03*
X25900Y241300D03*
X35900Y256300D03*
Y251300D03*
X30900Y261300D03*
X25900Y256300D03*
X35900Y276300D03*
Y271300D03*
X30900Y266300D03*
X25900Y276300D03*
Y271300D03*
X30900Y281300D03*
X31000Y294500D03*
X36500Y310000D03*
X31000Y380500D03*
X48000Y-11000D03*
X44000Y10000D03*
X47500Y24500D03*
X49500Y39500D03*
X50000Y47500D03*
X51000Y70000D03*
X53000Y62000D03*
X54000Y81500D03*
X50900Y86300D03*
X45900Y96300D03*
Y91300D03*
X40900Y96300D03*
Y86300D03*
X50900Y106300D03*
Y101300D03*
X45900Y111300D03*
X40900Y106300D03*
X50900Y126300D03*
Y121300D03*
X45900Y116300D03*
X40900Y126300D03*
Y121300D03*
X50900Y141300D03*
X45900Y136300D03*
Y131300D03*
X40900Y141300D03*
X50900Y146300D03*
X45900Y156300D03*
Y151300D03*
X40900Y146300D03*
X50900Y166300D03*
Y161300D03*
X45900Y171300D03*
X40900Y166300D03*
Y161300D03*
X50900Y186300D03*
Y181300D03*
X45900Y176300D03*
X40900Y186300D03*
Y181300D03*
X50900Y201300D03*
X45900Y196300D03*
Y191300D03*
X40900Y201300D03*
X50900Y206300D03*
X45900Y216300D03*
Y211300D03*
X40900Y206300D03*
X50900Y226300D03*
Y221300D03*
X45900Y231300D03*
X40900Y226300D03*
Y221300D03*
X50900Y246300D03*
Y241300D03*
X45900Y236300D03*
X40900Y246300D03*
Y241300D03*
X50900Y261300D03*
X45900Y256300D03*
Y251300D03*
X40900Y261300D03*
X50900Y266300D03*
X45900Y276300D03*
Y271300D03*
X40900Y266300D03*
X50900Y281300D03*
X40900D03*
X51500Y293500D03*
Y310000D03*
X44000Y380500D03*
X63000Y-11000D03*
Y10000D03*
Y24500D03*
X66500Y48500D03*
Y69000D03*
X66000Y109500D03*
X57500Y117500D03*
Y129000D03*
X68000Y139000D03*
X57500D03*
X59500Y161000D03*
X67000Y227000D03*
X64000Y251500D03*
X67500Y279000D03*
X67000Y293500D03*
X66000Y310000D03*
X59000Y380500D03*
X78000Y-11000D03*
X77500Y10000D03*
X76500Y25000D03*
X78000Y58000D03*
X72000Y82500D03*
X81800Y87100D03*
X72500Y111100D03*
X81800D03*
X75000Y128500D03*
X76800Y116800D03*
X76000Y144500D03*
X82000Y167000D03*
X71000Y182000D03*
X69300Y201600D03*
X83100Y203900D03*
X82600Y219000D03*
X72600Y219400D03*
X79000Y229200D03*
X76700Y241500D03*
X83400Y244700D03*
X73000Y244000D03*
X76600Y250400D03*
X82500Y279500D03*
Y293500D03*
X74000Y380500D03*
X93000Y-11000D03*
X90500Y11000D03*
X89500Y25500D03*
X89000Y48000D03*
X91500Y58500D03*
X87000Y69500D03*
X91000Y111100D03*
X95500Y120500D03*
X89500Y129000D03*
X85800Y116800D03*
X91500Y142500D03*
X92000Y182000D03*
X93200Y194000D03*
X86500Y206500D03*
X90200Y204700D03*
X92000Y219700D03*
X91400Y229300D03*
X93000Y246200D03*
X97500Y245500D03*
X89400Y239300D03*
X88600Y241600D03*
X86600Y250400D03*
X98300Y280100D03*
X89000Y380500D03*
X108000Y-11000D03*
Y11000D03*
X108500Y68000D03*
X99000Y77000D03*
X105000Y128500D03*
X108000Y139500D03*
X101000Y161500D03*
Y166500D03*
Y175000D03*
Y184000D03*
X102000Y259500D03*
X103500Y293500D03*
X110500Y310000D03*
X104000Y380500D03*
X123000Y-11000D03*
X114000Y22000D03*
X116500Y34000D03*
X119500Y70500D03*
X115500Y73800D03*
Y77800D03*
Y81800D03*
Y85800D03*
X127500Y102500D03*
Y114500D03*
X128500Y129000D03*
X126000Y119500D03*
X117500Y140000D03*
Y165500D03*
X119500Y184000D03*
X126800Y184100D03*
X121000Y241500D03*
X125100Y272200D03*
Y268600D03*
X119800Y270300D03*
X123500Y284000D03*
X119000Y380500D03*
X138000Y-11000D03*
X136000Y22500D03*
X130500Y13500D03*
X134500Y44500D03*
X132500Y70500D03*
X137500Y59000D03*
X132500Y85500D03*
X139000Y119500D03*
X142400Y125900D03*
X138500D03*
X134800D03*
X131500Y241500D03*
X132500Y260500D03*
X143000Y250000D03*
X136000Y293000D03*
Y310000D03*
X134000Y380500D03*
X153000Y-11000D03*
X144000Y14000D03*
X155500Y22000D03*
X145000Y33000D03*
X144500Y70500D03*
X148500Y242500D03*
X147500Y260500D03*
X151000Y310000D03*
Y380500D03*
X168000Y-11000D03*
X164500Y-2000D03*
X164800Y10000D03*
X161000Y17400D03*
X160900Y12200D03*
X161100Y25800D03*
X164700Y23500D03*
X164800Y19600D03*
X161000Y31000D03*
X164700Y33200D03*
X166000Y126000D03*
X171800Y263000D03*
X162400D03*
X159900Y268500D03*
Y272100D03*
X165100Y270300D03*
X166000Y310000D03*
Y380500D03*
X183000Y-11000D03*
X187000Y258500D03*
X179300Y257100D03*
X181200Y263000D03*
X181000Y310000D03*
X173700Y340600D03*
X181000Y380500D03*
X198000Y-11000D03*
X199400Y7100D03*
X189500Y232600D03*
X189800Y256400D03*
X194600Y261000D03*
X198700Y270100D03*
X202500Y274800D03*
X191500Y269500D03*
Y293000D03*
X196000Y310000D03*
X195000Y328000D03*
X195500Y350500D03*
X196000Y380500D03*
X213000Y-11000D03*
X206900Y60400D03*
X204500Y260400D03*
X210500Y262500D03*
X206000Y269700D03*
X211000Y293000D03*
X203500Y282500D03*
X211000Y310000D03*
X212000Y328000D03*
X217500Y335000D03*
X210500Y350500D03*
X211000Y380500D03*
X228000Y-11000D03*
X232249Y14052D03*
X231300Y124900D03*
X225500Y263000D03*
X226700Y268600D03*
Y275700D03*
X221500Y269500D03*
X227200Y281800D03*
X220000Y287500D03*
X227500Y310000D03*
X226000Y350500D03*
Y380500D03*
X243000Y-11000D03*
X236500Y3500D03*
X240000Y19500D03*
X243000Y33000D03*
X244000Y48500D03*
X244500Y63500D03*
Y79000D03*
Y95000D03*
X244800Y88100D03*
X243000Y90600D03*
X243800Y125000D03*
X246000Y119000D03*
X236500D03*
X240500D03*
X243000Y134000D03*
X241700Y151600D03*
X244000Y159500D03*
Y164500D03*
X244030Y172250D03*
Y167250D03*
X236934Y184988D03*
X246500Y201700D03*
X246400Y237300D03*
X240600Y237200D03*
X232500Y260500D03*
X246400Y262900D03*
X237800Y279200D03*
X237600Y286300D03*
X241000Y310000D03*
X238500Y350500D03*
X241000Y380500D03*
X258000Y-11000D03*
X251500Y3500D03*
X255000Y19500D03*
X258000Y33000D03*
X259000Y48500D03*
X259500Y63500D03*
Y79000D03*
X259000Y95500D03*
X257000Y119000D03*
X251600D03*
X260100Y125100D03*
X254800Y125000D03*
X250000D03*
X258000Y134000D03*
Y149000D03*
X257000Y161000D03*
X256500Y171000D03*
X257300Y194300D03*
X260400Y194400D03*
X254400D03*
X254800Y215100D03*
X248100Y225400D03*
X250500D03*
X258332Y225632D03*
X249000Y254700D03*
X259500Y253700D03*
X249400Y268700D03*
X257900Y281900D03*
X258000Y302500D03*
Y316500D03*
X255500Y348900D03*
X256000Y380500D03*
X273000Y-11000D03*
X266500Y3500D03*
X270000Y19500D03*
X273000Y33000D03*
X274500Y63500D03*
Y79000D03*
X273500Y95500D03*
X266000Y115000D03*
X272000Y109500D03*
X262000Y119000D03*
X273500Y116000D03*
X269500Y120500D03*
X266000Y124000D03*
X273000Y134000D03*
Y149000D03*
X267000Y172000D03*
Y160000D03*
Y165000D03*
Y167000D03*
X265700Y218400D03*
X272841Y207741D03*
X266700Y259400D03*
X265800Y272300D03*
X276400Y282400D03*
X276500Y303500D03*
X269000Y316500D03*
X271000Y380500D03*
X288000Y-11000D03*
X281500Y3500D03*
X289500Y79000D03*
X285000Y109500D03*
X278000D03*
X280600Y115800D03*
X286900Y115700D03*
X280500Y163500D03*
Y173500D03*
X278500Y204000D03*
X277500Y195500D03*
X278400Y271000D03*
X282300Y278200D03*
X282200Y286200D03*
X286500Y278800D03*
Y304000D03*
X286000Y380500D03*
X303000Y-11000D03*
X296500Y3500D03*
X298000Y34025D03*
X294850Y37175D03*
X301150Y34025D03*
X298000Y37175D03*
X294850Y34025D03*
X301150Y37175D03*
X295100Y26300D03*
X297800Y45500D03*
X293500Y61000D03*
X297500Y92500D03*
X292500D03*
Y101000D03*
Y109500D03*
X297500Y100500D03*
Y108000D03*
Y115500D03*
Y124500D03*
X292000D03*
Y116000D03*
X297000Y163500D03*
X304500Y173500D03*
X292000Y255500D03*
X292400Y279000D03*
X292600Y286200D03*
X294000Y316500D03*
X301000Y380500D03*
X318000Y-11000D03*
X311500Y3500D03*
X318000Y26500D03*
X315000Y44000D03*
X310500Y56500D03*
X311000Y66000D03*
X321000Y95500D03*
X315500Y135000D03*
X316000Y151500D03*
X315000Y163500D03*
X311000Y316500D03*
X316000Y380500D03*
X333000Y-11000D03*
X326500Y3500D03*
X333500Y14000D03*
X333000Y26500D03*
X330000Y44000D03*
X325500Y56500D03*
X331000Y76000D03*
X321500Y80000D03*
X334000Y85000D03*
X324500Y126500D03*
Y143500D03*
X336000Y152000D03*
X335500Y204000D03*
X336000Y241500D03*
Y351500D03*
X331000Y380500D03*
X348000Y-11000D03*
X341500Y3500D03*
X348500Y14000D03*
X339000Y66000D03*
X342000Y82500D03*
X350000Y75500D03*
X337000Y118000D03*
X336500Y135000D03*
X339000Y173500D03*
X349158Y250858D03*
Y252858D03*
Y254858D03*
Y256858D03*
X343500Y289000D03*
Y302000D03*
X339600Y316800D03*
X338100Y325800D03*
Y331300D03*
Y336300D03*
X337754Y340427D03*
X336700Y343100D03*
X346000Y380500D03*
X363000Y-11000D03*
X353500Y3500D03*
X356000Y65500D03*
X355000Y135000D03*
Y152000D03*
X362500Y236000D03*
X351158Y250858D03*
X353157D03*
X355157D03*
Y252858D03*
X353157D03*
X351158D03*
Y254858D03*
X353157D03*
X355157D03*
X353157Y256858D03*
X351158D03*
X355157D03*
X361000Y268000D03*
X356073Y301854D03*
X354100Y300300D03*
X365000Y316600D03*
X358500Y332200D03*
X356300Y333700D03*
X360400Y330900D03*
X353600Y357600D03*
X361000Y380500D03*
X378000Y-11000D03*
X368500Y3500D03*
X375500Y65500D03*
X375000Y83500D03*
X379000Y142000D03*
X377100Y158500D03*
X374900D03*
X372700D03*
X373500Y178500D03*
X375000Y236000D03*
X366700Y318700D03*
X368300Y316800D03*
X365916Y345916D03*
X366000Y357600D03*
X375600Y358500D03*
X376000Y380500D03*
X393000Y-11000D03*
X386000Y4000D03*
X389000Y56000D03*
X388000Y77000D03*
X390500Y99500D03*
X384500Y159500D03*
X393500Y187000D03*
X386500Y198500D03*
X387000Y256500D03*
X388100Y274900D03*
X381000Y283000D03*
X388100Y284800D03*
X386500Y298000D03*
X384800Y303900D03*
X383600Y314800D03*
X383546Y334521D03*
X383100Y331800D03*
Y322800D03*
X383546Y342395D03*
Y338458D03*
X388000Y353500D03*
X391000Y380500D03*
X408000Y-11000D03*
X401000Y4000D03*
X396000Y15000D03*
X406000Y37500D03*
X403000Y57500D03*
X403100Y79000D03*
X406200D03*
X398500Y89000D03*
X405500Y99500D03*
X399500Y131000D03*
X401500Y159500D03*
Y146500D03*
Y175500D03*
X398000Y198500D03*
X403200Y199500D03*
X406900D03*
X399000Y232000D03*
X405000Y261000D03*
X400000Y275500D03*
X399500Y291000D03*
X406100Y312100D03*
X409600Y322800D03*
Y327400D03*
Y332700D03*
Y337700D03*
Y342600D03*
X408500Y357500D03*
X399000Y368000D03*
X406000Y380500D03*
X423000Y-11000D03*
X416000Y4000D03*
X411000Y15000D03*
X412000Y90000D03*
X420500Y99500D03*
X418300Y110800D03*
Y105800D03*
Y120800D03*
Y115800D03*
X414500Y131000D03*
X419200Y173200D03*
X413000Y175500D03*
X425100Y175000D03*
X417000Y192500D03*
X410500Y199500D03*
X420000Y202800D03*
X415500Y201600D03*
X422500Y262000D03*
X422000Y298000D03*
X422600Y306100D03*
X412700Y298200D03*
X414900Y305400D03*
X417000Y347100D03*
X423500Y353000D03*
X416000Y367500D03*
X421000Y380500D03*
X438000Y-11000D03*
X431000Y4000D03*
X426000Y15000D03*
X437000Y100000D03*
X436500Y113000D03*
X431000Y131500D03*
X426000Y146000D03*
X426500Y166000D03*
X428800Y175000D03*
X438000Y298500D03*
X434500Y312500D03*
X437400Y319300D03*
X427600Y316300D03*
X435000Y341000D03*
X427600Y338800D03*
X438000Y353000D03*
X438500Y367500D03*
X436000Y380500D03*
X453000Y-11000D03*
X446000Y4000D03*
X441000Y15000D03*
X453500Y110000D03*
X446000Y131500D03*
X449500Y146500D03*
X450500Y169000D03*
X448600Y175400D03*
X453000Y215500D03*
X442500Y248000D03*
X443100Y258600D03*
X444000Y284500D03*
X453500Y304900D03*
Y310300D03*
X447100D03*
X453500Y315600D03*
X453000Y334100D03*
X446900D03*
X446100Y350300D03*
X453400Y345500D03*
X447400D03*
X453400Y340400D03*
Y350600D03*
X451000Y368000D03*
X469500Y25000D03*
X456000Y15000D03*
X465000Y40500D03*
X455500Y53000D03*
X459200Y80800D03*
Y84300D03*
X465000Y88500D03*
X459200Y88100D03*
X459210Y96670D03*
X459200Y100200D03*
X459300Y93200D03*
X462000Y108500D03*
X455100Y105500D03*
X459000Y127500D03*
X465500Y121600D03*
X467000Y119500D03*
X468500Y117500D03*
X465000Y147000D03*
X468500Y169000D03*
Y185000D03*
X455600Y175400D03*
X455859Y204059D03*
X467000Y215500D03*
X459000Y223500D03*
X465000Y249500D03*
X456000Y263000D03*
X460500Y298500D03*
X459500Y310300D03*
X468820Y310280D03*
X458700Y334100D03*
X468800Y345500D03*
X459400D03*
X455000Y380500D03*
X481500Y22500D03*
Y37500D03*
X470500Y53000D03*
X481500Y52500D03*
Y82000D03*
X476000Y88500D03*
X481500Y97000D03*
X474500Y108500D03*
X481500Y112000D03*
X472000Y127500D03*
X481500Y127000D03*
Y142000D03*
X472500Y157000D03*
X481500D03*
Y172000D03*
Y187000D03*
Y202000D03*
Y217000D03*
X475000Y224000D03*
X481500Y232000D03*
Y247000D03*
Y262000D03*
Y277000D03*
X470500Y282500D03*
X481500Y292000D03*
Y307000D03*
X475000Y305300D03*
X481500Y322000D03*
X480900Y310300D03*
X475000D03*
Y315500D03*
X481500Y337000D03*
Y352000D03*
X480920Y345320D03*
X475000Y340200D03*
Y350600D03*
Y345500D03*
G54D11*
X33000Y349800D03*
X31000Y351300D03*
X35000Y348300D03*
X45000Y352300D03*
X48000D03*
X66000Y350300D03*
X62000Y347300D03*
X57500Y346800D03*
X111000Y63500D03*
X119000Y40000D03*
X121000Y43000D03*
X128000Y49500D03*
X125000Y47500D03*
X119500Y50000D03*
X114500Y158000D03*
X140900Y337600D03*
Y333600D03*
X135800Y337400D03*
X138100Y333700D03*
X140800Y341500D03*
X138500Y345500D03*
X144200Y333400D03*
X144100Y337000D03*
X144200Y340600D03*
X197900Y253900D03*
X211400D03*
X224700D03*
X244800Y110100D03*
X237900Y253900D03*
X257000Y110500D03*
X257400Y180100D03*
X284900Y35400D03*
X291600Y54700D03*
X303000Y15200D03*
X297900D03*
X292800D03*
X309200Y36700D03*
X312800Y37000D03*
X310000Y41400D03*
X336000Y250400D03*
X347000Y233500D03*
X341389Y251889D03*
X355500Y21500D03*
X351500Y24500D03*
X360000D03*
X353500Y23000D03*
X356700Y95300D03*
X364300Y100200D03*
X360700D03*
X357100Y100100D03*
X363000Y96500D03*
X353500Y100000D03*
X361500Y103600D03*
X365500Y155600D03*
X364500Y161000D03*
X358100Y233400D03*
X356094Y264594D03*
X371500Y7000D03*
X369500Y18500D03*
X373000Y19000D03*
X377559Y165441D03*
X373000Y246500D03*
X376100Y251000D03*
Y256000D03*
Y261000D03*
X388000Y18000D03*
X384000Y21000D03*
X386000Y19500D03*
X412500Y150000D03*
Y153500D03*
X424600Y281600D03*
X433500Y151000D03*
X426300Y238000D03*
X428800Y267100D03*
X432300Y264100D03*
X436200Y289800D03*
Y293300D03*
X440300Y172300D03*
X451400Y271400D03*
X455500Y151000D03*
G54D20*
X442500Y51400D03*
X455300Y32500D03*
G54D21*
X439244Y204256D03*
Y201500D03*
Y198744D03*
Y195988D03*
X436488Y198744D03*
Y201500D03*
Y204256D03*
Y195988D03*
X439244Y207012D03*
X436488D03*
X442000Y204256D03*
X444756D03*
Y201500D03*
Y198744D03*
X442000D03*
Y201500D03*
X447512Y204256D03*
Y201500D03*
Y198744D03*
Y195988D03*
X444756D03*
X442000D03*
Y207012D03*
X444756D03*
X447512D03*
G54D12*
X45634Y347111D03*
X43921D03*
X47346Y345489D03*
Y347111D03*
X45634Y345489D03*
X43921D03*
X49059Y345513D03*
Y347135D03*
X368941Y24165D03*
Y25787D03*
X374079Y25811D03*
X372366D03*
X370654Y24189D03*
Y25811D03*
X374079Y24189D03*
X372366D03*
G54D22*
G01X28400Y-89900D02*
Y-94900D01*
X30400D01*
G01X31650D02*
X32900Y-89900D01*
X34150Y-94900D01*
G01X33700Y-93150D02*
X32100D01*
G01X36400Y-94900D02*
Y-92650D01*
X35400Y-89900D01*
G01X37400D02*
X36400Y-92650D01*
G01X40900Y-94900D02*
X38900D01*
Y-89900D01*
X40900D01*
G01X40100Y-92317D02*
X38900D01*
G01X42400Y-94900D02*
Y-89900D01*
X43650D01*
X44050Y-90150D01*
X44300Y-90483D01*
X44400Y-91150D01*
X44300Y-91817D01*
X44000Y-92233D01*
X43650Y-92483D01*
X42400D01*
G01X43650D02*
X44400Y-94900D01*
G01X49550Y-94317D02*
X49900Y-94733D01*
X50300Y-94900D01*
X50700Y-94733D01*
X51050Y-94234D01*
X51300Y-93483D01*
X51400Y-92733D01*
Y-91817D01*
X51300Y-91067D01*
X51050Y-90400D01*
X50750Y-90067D01*
X50400Y-89900D01*
X50000Y-90067D01*
X49700Y-90400D01*
X49500Y-90900D01*
X49400Y-91567D01*
X49500Y-92150D01*
X49750Y-92733D01*
X50050Y-93067D01*
X50400Y-93150D01*
X50800Y-92983D01*
X51100Y-92567D01*
X51400Y-91817D01*
G01X57150Y-96567D02*
X56650Y-95733D01*
X56400Y-94900D01*
Y-91567D01*
X56650Y-90733D01*
X57150Y-89900D01*
G01X61200Y-92400D02*
X62200D01*
Y-93900D01*
X61900Y-94400D01*
X61550Y-94733D01*
X61050Y-94900D01*
X60550Y-94733D01*
X60200Y-94400D01*
X59900Y-93900D01*
X59700Y-93317D01*
X59600Y-92650D01*
Y-92067D01*
X59700Y-91567D01*
X59900Y-90983D01*
X60200Y-90483D01*
X60500Y-90150D01*
X60900Y-89900D01*
X61250D01*
X61650Y-90067D01*
X61950Y-90400D01*
G01X63250Y-94900D02*
Y-89900D01*
X65550Y-94900D01*
Y-89900D01*
G01X66800Y-94900D02*
Y-89900D01*
X67800D01*
X68200Y-90150D01*
X68500Y-90483D01*
X68750Y-90983D01*
X68950Y-91567D01*
X69000Y-92400D01*
X68950Y-93233D01*
X68750Y-93817D01*
X68500Y-94317D01*
X68200Y-94650D01*
X67800Y-94900D01*
X66800D01*
G01X72000D02*
Y-89900D01*
X70150Y-93483D01*
X72650D01*
G01X75150Y-96567D02*
X75650Y-95733D01*
X75900Y-94900D01*
Y-91567D01*
X75650Y-90733D01*
X75150Y-89900D01*
G54D13*
X113839Y278957D03*
X114232Y287618D03*
X115020Y274232D03*
X118563Y291161D03*
X126437D03*
X131161Y278957D03*
X129980Y274232D03*
X130768Y287618D03*
X153839Y278957D03*
X155020Y274232D03*
X154232Y287618D03*
X158563Y291161D03*
X171161Y278957D03*
X169980Y274232D03*
X166437Y291161D03*
X170768Y287618D03*
X193839Y278957D03*
X195020Y274232D03*
X194232Y287618D03*
X198563Y291161D03*
X211161Y278957D03*
X209980Y274232D03*
X206437Y291161D03*
X210768Y287618D03*
G54D14*
X121000Y2700D03*
X126800Y28100D03*
X123000Y375500D03*
X324100Y17400D03*
X346400Y131500D03*
X343300Y280400D03*
X393700Y65800D03*
X405800Y188600D03*
X428600Y364100D03*
X473500Y97000D03*
G54D15*
X125600Y208900D03*
X142361Y141798D03*
X134487Y137861D03*
Y133924D03*
X142361Y157546D03*
X134487Y153609D03*
X138424D03*
X142361Y149672D03*
X134487Y145735D03*
X138424D03*
X142361Y173294D03*
X134487Y169358D03*
X138424D03*
X142361Y165420D03*
X134487Y161484D03*
X138424D03*
X142361Y189042D03*
X134487Y185106D03*
X138424D03*
X142361Y181168D03*
X134487Y177232D03*
X138424D03*
X134487Y200854D03*
X138424D03*
X142361Y196916D03*
X134487Y192980D03*
X138424D03*
X134487Y216602D03*
X138424D03*
X142361D03*
Y212665D03*
X134487Y208728D03*
X138424D03*
X142361Y204791D03*
X155378Y57105D03*
Y88064D03*
X158109Y133924D03*
X146298Y141798D03*
Y133924D03*
X158109Y145735D03*
Y153609D03*
Y157546D03*
X146298D03*
X150235Y153609D03*
X146298Y149672D03*
X150235Y145735D03*
X158109Y169358D03*
X146298Y173294D03*
X150235Y169358D03*
X146298Y165420D03*
X150235Y161484D03*
X158109Y177232D03*
Y185106D03*
X146298Y189042D03*
X154172D03*
X150235Y185106D03*
X146298Y181168D03*
X150235Y177232D03*
X158109Y192980D03*
Y200854D03*
X150235D03*
X146298Y196916D03*
X150235D03*
X154172D03*
X158109Y204791D03*
Y212665D03*
X146298D03*
X150235Y208728D03*
X146298Y204791D03*
X150235Y224476D03*
X158109D03*
X167976Y57105D03*
X161677D03*
X167976Y88064D03*
X161677D03*
X169920Y133924D03*
Y157546D03*
Y145735D03*
X162046Y169358D03*
D03*
Y173294D03*
X169920D03*
X162046Y189042D03*
X169920D03*
X162046Y181168D03*
X169920D03*
Y200854D03*
X162046Y196916D03*
X165984D03*
X169920Y212665D03*
Y224476D03*
X186677Y9605D03*
X180378D03*
X186677Y40564D03*
X180378D03*
X183724Y55136D03*
X186874Y57105D03*
X184954Y63381D03*
X178655D03*
Y82279D03*
X183724Y85938D03*
X181732Y133924D03*
Y157546D03*
Y145735D03*
X177794Y173294D03*
X185668D03*
X173858Y169358D03*
X181732D03*
X177794Y189042D03*
X185668D03*
X173858Y185106D03*
X181732D03*
X177794Y181168D03*
X185668D03*
X173858Y177232D03*
X181732D03*
Y200854D03*
X173858Y192980D03*
X181732Y212665D03*
X173858Y204791D03*
X181732Y224476D03*
X192976Y9605D03*
Y40564D03*
X202622Y55136D03*
X199472Y57105D03*
X194403Y60921D03*
X191254Y63381D03*
X199600Y77400D03*
X191254Y82279D03*
X199472Y88064D03*
X193100Y89200D03*
X190024Y85938D03*
X193542Y133924D03*
Y157546D03*
Y145735D03*
Y173294D03*
X201417D03*
X193542Y165420D03*
Y189042D03*
X201417D03*
X189606Y185106D03*
X197480D03*
X193542Y181168D03*
X189606Y177232D03*
X197480D03*
X193542Y200854D03*
Y212665D03*
X189606Y208728D03*
X193542Y224476D03*
X211874Y9605D03*
X208724Y7636D03*
X216254Y15881D03*
X209954D03*
X203655D03*
X215024Y38438D03*
X216254Y34779D03*
X209800Y38000D03*
X203655Y34779D03*
X205354Y133924D03*
X217165D03*
X205354Y157546D03*
X217165D03*
Y153609D03*
X205354Y145735D03*
X217165D03*
Y165420D03*
X205354Y169358D03*
X217165D03*
X209291Y161484D03*
X217165Y189042D03*
X205354Y185106D03*
X217165Y181168D03*
X205354Y177232D03*
Y200854D03*
X217165D03*
X209291Y196916D03*
X205354Y192980D03*
X209291D03*
X205354Y212665D03*
X217165D03*
X205354Y204791D03*
Y224476D03*
X217165D03*
X227622Y7636D03*
X224472Y9605D03*
X219403Y13421D03*
X224472Y40564D03*
Y28502D03*
X218173Y40564D03*
X228976Y133924D03*
Y157546D03*
Y145735D03*
Y169358D03*
Y181168D03*
Y192980D03*
Y216602D03*
Y204791D03*
Y228413D03*
Y224476D03*
G54D16*
X240000Y272500D03*
Y292500D03*
X260000Y272500D03*
Y292500D03*
X285000Y75000D03*
Y95000D03*
Y130000D03*
Y150000D03*
X290000Y217500D03*
Y237500D03*
X305000Y75000D03*
Y95000D03*
Y130000D03*
Y150000D03*
X310000Y217500D03*
Y237500D03*
X296000Y272500D03*
Y292500D03*
X316000Y272500D03*
Y292500D03*
G54D17*
X239500Y339900D03*
X279500D03*
X413500Y287500D03*
G54D18*
X430700Y32500D03*
G54D19*
X417000Y138200D03*
Y163800D03*
X438500Y138200D03*
Y163800D03*
X460000Y138200D03*
Y163800D03*
M02*
