G04 ================== begin FILE IDENTIFICATION RECORD ==================*
G04 Layout Name:  C:/userdata/Boards/TSW14J50_B/TSW14J50_B.brd*
G04 Film Name:    LYR03_SIG1*
G04 File Format:  Gerber RS274X*
G04 File Origin:  Cadence Allegro 16.6-S019*
G04 Origin Date:  Tue Apr 01 14:59:11 2014*
G04 *
G04 Layer:  VIA CLASS/L3-SIG1*
G04 Layer:  PIN/L3-SIG1*
G04 Layer:  ETCH/L3-SIG1*
G04 Layer:  BOARD GEOMETRY/TOOLING_CORNERS*
G04 *
G04 Offset:    (0.000 0.000)*
G04 Mirror:    No*
G04 Mode:      Positive*
G04 Rotation:  0*
G04 FullContactRelief:  No*
G04 UndefLineWidth:     7.000*
G04 ================== end FILE IDENTIFICATION RECORD ====================*
%FSLAX55Y55*MOIN*%
%IR0*IPPOS*OFA0.00000B0.00000*MIA0B0*SFA1.00000B1.00000*%
%ADD17C,.15*%
%ADD14C,.17*%
%ADD13C,.01*%
%ADD10C,.02*%
%ADD15C,.08*%
%ADD12C,.018*%
%ADD11C,.092*%
%ADD16C,.058*%
%ADD18C,.004*%
%ADD19C,.005*%
%ADD20C,.006*%
%ADD21C,.008*%
%ADD22C,.0047*%
%ADD25C,.122004*%
%ADD24C,.104004*%
%ADD26C,.030004*%
%ADD23C,.032004*%
G75*
%LPD*%
G75*
G36*
G01X27959Y73781D02*
G03Y79716I441J2968D01*
G02X27500Y80112I-59J396D01*
G01Y86276D01*
G03Y86324I-1600J24D01*
G01Y91276D01*
G03Y91324I-1600J24D01*
G01Y106276D01*
G03Y106324I-1600J24D01*
G01Y110000D01*
X29967D01*
G03X31833I933J1300D01*
G01X39967D01*
G03X41833I933J1300D01*
G01X44967D01*
G03X45000Y109977I932J1301D01*
G01Y107623D01*
G03Y104977I900J-1323D01*
G01Y102623D01*
G03Y99977I900J-1323D01*
G01Y97623D01*
G03Y94977I900J-1323D01*
G01Y92623D01*
G03Y89977I900J-1323D01*
G01Y17500D01*
X145000D01*
Y15908D01*
G02X144480Y15526I-400J0D01*
G03Y12474I-480J-1526D01*
G02X145000Y12092I120J-382D01*
G01Y-5000D01*
X27500D01*
Y55724D01*
G03Y63876I-7000J4076D01*
G01Y73386D01*
G02X27959Y73781I400J0D01*
G37*
G36*
G01X194430Y10000D02*
X194382Y10130D01*
G03X192916Y11104I-1405J-525D01*
G02X192500Y11503I-16J400D01*
G01Y15471D01*
X192507Y15496D01*
G03Y16266I-1450J385D01*
G01X192500Y16291D01*
Y17726D01*
G03X192976Y18203I-1540J2014D01*
G02X193523Y18289I318J-242D01*
G03X195747Y20138I857J1231D01*
G02X196135Y20702I365J165D01*
G03X196860Y22680I65J1098D01*
G02Y23320I240J320D01*
G03X197072Y24871I-660J880D01*
G02X197123Y25413I317J244D01*
G03X195202Y25352I-997J1121D01*
G02X195287Y24814I-246J-315D01*
G03X195540Y23320I913J-614D01*
G02Y22680I-240J-320D01*
G03X195143Y21493I660J-880D01*
G02X194679Y20990I-384J-111D01*
G03X193688Y20851I-299J-1470D01*
G02X193157Y21006I-185J355D01*
G03X192753Y21533I-2197J-1266D01*
G01X192500Y21785D01*
Y24613D01*
G02X192953Y25010I400J0D01*
G03X193933Y26818I147J1090D01*
G02X193971Y27379I303J261D01*
G03X192916Y30001I-994J1123D01*
G02X192500Y30401I-16J400D01*
G01Y30939D01*
G02X193175Y31229I400J0D01*
G03X195065Y33549I1031J1089D01*
G02X195029Y34176I229J328D01*
G03X193515Y34229I-729J824D01*
G02X193435Y33606I-285J-280D01*
G03X193175Y33408I771J-1287D01*
G02X192500Y33699I-275J290D01*
G01Y34369D01*
X192507Y34394D01*
G03Y35164I-1450J385D01*
G01X192500Y35189D01*
Y38665D01*
G02X192916Y39065I400J0D01*
G03Y42063I60J1499D01*
G02X192500Y42462I-16J400D01*
G01Y45000D01*
X203000D01*
X206500Y41500D01*
Y40456D01*
X205730Y39686D01*
Y36314D01*
X206065Y35979D01*
Y33624D01*
G03X206359Y30886I740J-1305D01*
G01X206500Y30843D01*
Y29795D01*
X206347Y29758D01*
G03X207031Y26837I353J-1458D01*
G01X207139Y26861D01*
X207500Y26500D01*
Y20407D01*
G03Y18673I1224J-867D01*
G01Y15298D01*
G02X207038Y14903I-400J0D01*
G03Y11939I-233J-1482D01*
G02X207500Y11544I62J-395D01*
G01Y10000D01*
X207029D01*
X206980Y10130D01*
G03X204170I-1405J-525D01*
G01X204121Y10000D01*
X200729D01*
X200681Y10130D01*
G03X197870I-1405J-525D01*
G01X197822Y10000D01*
X194430D01*
G37*
%LPC*%
G75*
G36*
G01X200186Y42248D02*
G03X200248Y41706I322J-237D01*
G02X198327Y41726I-973J-1142D01*
G03X198401Y42266I-253J310D01*
G02X200186Y42248I899J634D01*
G37*
G36*
G01X198941Y31908D02*
G03X198447Y31740I-149J-371D01*
G02X196619Y32960I-947J560D01*
G03X196522Y33532I-320J240D01*
G02X198822Y35094I834J1247D01*
G03X199274Y34783I391J84D01*
G02X198941Y31908I226J-1483D01*
G37*
G36*
G01X200230Y27345D02*
G03X200195Y26760I255J-309D01*
G02X198533Y26678I-795J-760D01*
G03X198441Y27256I-315J246D01*
G02X200230Y27345I835J1246D01*
G37*
G36*
G01X203385Y25381D02*
G03X203337Y24814I256J-307D01*
G02X201621Y24761I-837J-714D01*
G03X201538Y25324I-320J240D01*
G02X203385Y25381I887J1210D01*
G37*
G36*
G01X204461Y17651D02*
G03X204544Y17089I320J-240D01*
G02X202454Y16780I-889J-1208D01*
G03X202371Y17342I-320J240D01*
G02X204461Y17651I889J1208D01*
G37*
G36*
G01X199047Y17000D02*
G03X198743Y16453I66J-395D01*
G02X197109Y17361I-1387J-572D01*
G03X197413Y17908I-66J395D01*
G02X199047Y17000I1387J572D01*
G37*
G54D25*
X121000Y2700D03*
G54D24*
X103500D03*
G54D26*
X200506Y13421D03*
X205575Y21666D03*
X203655Y34779D03*
G54D23*
X36000Y62000D03*
Y81000D03*
X35900Y91300D03*
X30900Y96300D03*
Y86300D03*
Y91300D03*
X35900Y101300D03*
X44000Y10000D03*
X40900Y96300D03*
Y86300D03*
Y106300D03*
Y101300D03*
X63000Y10000D03*
X77500D03*
X90500Y11000D03*
X108000D03*
X130500Y13500D03*
%LPD*%
G75*
G54D10*
X20900Y276300D03*
Y271300D03*
X10900Y276300D03*
Y271300D03*
X35900Y96300D03*
Y86300D03*
Y106300D03*
X40900Y91300D03*
X50900Y96300D03*
Y91300D03*
Y136300D03*
Y131300D03*
Y156300D03*
Y151300D03*
Y171300D03*
X45900Y186300D03*
Y181300D03*
X50900Y176300D03*
Y256300D03*
Y251300D03*
Y276300D03*
Y271300D03*
X40900Y276300D03*
Y271300D03*
X245900Y205700D03*
X238200Y204900D03*
X254700Y199200D03*
X249500Y204500D03*
X263400Y179400D03*
X265600Y183000D03*
X275100Y210300D03*
X320300Y347200D03*
X332600Y216300D03*
X333800Y226600D03*
X325400Y352800D03*
X341700Y259900D03*
X345100Y265700D03*
X344754Y312746D03*
X362900Y296900D03*
X358042Y299242D03*
X360010Y302090D03*
X390100Y173600D03*
X388200Y170800D03*
X394500Y179600D03*
X392100Y176500D03*
X452400Y154500D03*
G54D20*
G01X27700Y-89900D02*
Y-94900D01*
X29700D01*
G01X30950D02*
X32200Y-89900D01*
X33450Y-94900D01*
G01X33000Y-93150D02*
X31400D01*
G01X35700Y-94900D02*
Y-92650D01*
X34700Y-89900D01*
G01X36700D02*
X35700Y-92650D01*
G01X40200Y-94900D02*
X38200D01*
Y-89900D01*
X40200D01*
G01X39400Y-92317D02*
X38200D01*
G01X41700Y-94900D02*
Y-89900D01*
X42950D01*
X43350Y-90150D01*
X43600Y-90483D01*
X43700Y-91150D01*
X43600Y-91817D01*
X43300Y-92233D01*
X42950Y-92483D01*
X41700D01*
G01X42950D02*
X43700Y-94900D01*
G01X48600Y-93900D02*
X48900Y-94483D01*
X49300Y-94817D01*
X49750Y-94900D01*
X50150Y-94817D01*
X50550Y-94400D01*
X50800Y-93900D01*
X50850Y-93400D01*
X50750Y-92817D01*
X50400Y-92400D01*
X50050Y-92233D01*
X49600D01*
G01X50050D02*
X50350Y-91983D01*
X50600Y-91567D01*
X50700Y-91067D01*
X50600Y-90567D01*
X50350Y-90150D01*
X49900Y-89900D01*
X49450Y-89983D01*
X49000Y-90317D01*
G01X59950Y-96567D02*
X59450Y-95733D01*
X59200Y-94900D01*
Y-91567D01*
X59450Y-90733D01*
X59950Y-89900D01*
G01X62650Y-94234D02*
X63050Y-94650D01*
X63500Y-94900D01*
X63900D01*
X64300Y-94650D01*
X64600Y-94234D01*
X64750Y-93650D01*
X64650Y-93067D01*
X64400Y-92567D01*
X63950Y-92233D01*
X63350Y-92067D01*
X63000Y-91733D01*
X62850Y-91150D01*
X62950Y-90567D01*
X63200Y-90150D01*
X63550Y-89900D01*
X63900D01*
X64250Y-90067D01*
X64550Y-90483D01*
G01X66600Y-89900D02*
X67800D01*
G01X67200D02*
Y-94900D01*
G01X66600D02*
X67800D01*
G01X71000Y-92400D02*
X72000D01*
Y-93900D01*
X71700Y-94400D01*
X71350Y-94733D01*
X70850Y-94900D01*
X70350Y-94733D01*
X70000Y-94400D01*
X69700Y-93900D01*
X69500Y-93317D01*
X69400Y-92650D01*
Y-92067D01*
X69500Y-91567D01*
X69700Y-90983D01*
X70000Y-90483D01*
X70300Y-90150D01*
X70700Y-89900D01*
X71050D01*
X71450Y-90067D01*
X71750Y-90400D01*
G01X74200Y-94900D02*
Y-89900D01*
X73600Y-90900D01*
G01Y-94900D02*
X74800D01*
G01X77950Y-96567D02*
X78450Y-95733D01*
X78700Y-94900D01*
Y-91567D01*
X78450Y-90733D01*
X77950Y-89900D01*
G54D11*
X138500Y2700D03*
G54D21*
G01X341700Y259900D02*
X323200Y278400D01*
Y344300D01*
X320300Y347200D01*
G01X325400Y352800D02*
X325377Y352777D01*
Y285423D01*
X345100Y265700D01*
G54D12*
X142361Y145735D03*
Y161484D03*
Y177232D03*
X134487Y196916D03*
X138424D03*
X142361Y192980D03*
X134487Y212665D03*
X138424D03*
X142361Y208728D03*
X156608Y79819D03*
X158530Y75410D03*
X155378Y76002D03*
X146298Y145735D03*
Y161484D03*
Y177232D03*
Y192980D03*
X154172Y204791D03*
X146298Y208728D03*
X164827Y67040D03*
X166057Y82279D03*
X161677Y76002D03*
X172700Y82600D03*
X169920Y149672D03*
X165984D03*
Y200854D03*
X169920Y204791D03*
X165984D03*
X183528Y26534D03*
X181608Y32319D03*
X186677Y28502D03*
X178250Y28500D03*
X174276Y57105D03*
X186874Y69166D03*
X187600Y80200D03*
X174276Y88064D03*
X181732Y129987D03*
X177794D03*
Y137861D03*
X181732D03*
X173858Y157546D03*
Y161484D03*
X181732D03*
X177794Y196916D03*
Y200854D03*
X181732Y208728D03*
Y204791D03*
X177794Y208728D03*
Y224476D03*
Y220539D03*
X173858Y228413D03*
X177794D03*
X173858Y224476D03*
X194206Y13421D03*
X190960Y19740D03*
X199472Y69166D03*
X196323Y67040D03*
X197553Y63381D03*
X200702Y60921D03*
X193173Y76002D03*
X190024Y74034D03*
X189606Y129987D03*
X193542D03*
Y137861D03*
X197480Y157546D03*
Y153609D03*
X189606Y149672D03*
X193542D03*
X189606Y157546D03*
X197480Y208728D03*
Y204791D03*
X215024Y26534D03*
X211874Y21666D03*
X205575Y40564D03*
X203852Y82279D03*
X213228Y137861D03*
X217165D03*
X213228Y141798D03*
X209291Y145735D03*
X213228D03*
Y189042D03*
X218173Y21666D03*
X221600Y14900D03*
X227622Y19540D03*
X225702Y13421D03*
X227622Y26534D03*
G54D22*
G01X156608Y79819D02*
Y76943D01*
X156913Y76638D01*
Y73513D01*
X152500Y69100D01*
Y57200D01*
X175500Y34200D01*
X179723D01*
X181039Y32884D01*
G01X155378Y76002D02*
X148100Y68724D01*
Y58000D01*
X174800Y31300D01*
X175450D01*
X178250Y28500D01*
G01X158530Y75410D02*
X158528Y75408D01*
Y71528D01*
X156400Y69400D01*
Y63600D01*
X158900Y61100D01*
Y57200D01*
X167700Y48400D01*
Y44800D01*
X176500Y36000D01*
X180500D01*
X183528Y32973D01*
Y26534D01*
G01X159100Y126900D02*
X157700Y125500D01*
Y104236D01*
X156300Y102836D01*
Y100266D01*
X157700Y98866D01*
Y96296D01*
X156300Y94896D01*
Y90100D01*
X156913Y89487D01*
Y82187D01*
X158400Y80700D01*
X161000D01*
X162579Y82279D01*
X166057D01*
G01X152550Y127136D02*
X153843Y125843D01*
Y87428D01*
X153870Y87401D01*
Y78690D01*
X155378Y77182D01*
Y76002D01*
G01X186677Y28502D02*
Y31378D01*
X186372Y31683D01*
Y35335D01*
X185393Y36314D01*
X182686D01*
X181000Y38000D01*
X178400D01*
X170000Y46400D01*
Y52800D01*
X164600Y58200D01*
X163300D01*
X161372Y60128D01*
Y66690D01*
X163212Y68530D01*
Y69802D01*
X161677Y71337D01*
Y76002D01*
G01X190960Y19740D02*
X190035Y20665D01*
X189430D01*
X188292Y21803D01*
Y27692D01*
X189950Y29350D01*
Y33715D01*
X189522Y34143D01*
Y34978D01*
X189135Y35365D01*
Y35370D01*
X188470Y36035D01*
X188465D01*
X179950Y44550D01*
X175550D01*
X173000Y47100D01*
Y52800D01*
X169900Y55900D01*
Y57300D01*
X169511Y57689D01*
Y57741D01*
X168612Y58640D01*
X168560D01*
X164000Y63200D01*
Y64600D01*
X164827Y65427D01*
Y67040D01*
G01X175900Y126900D02*
X169400Y120400D01*
Y102500D01*
X179000Y92900D01*
Y85800D01*
X169511Y76311D01*
Y75366D01*
X169500Y75355D01*
Y63100D01*
X171200Y61400D01*
Y57500D01*
X176900Y51800D01*
X179500D01*
X180500Y52800D01*
Y54500D01*
X177895Y57105D01*
X174276D01*
G01X167800Y126900D02*
Y125100D01*
X164200Y121500D01*
Y106000D01*
X163300Y105100D01*
Y101100D01*
X165400Y99000D01*
X166900D01*
X175820Y90080D01*
Y87510D01*
X175811Y87501D01*
Y87428D01*
X174912Y86529D01*
X174839D01*
X173710Y85400D01*
X172390D01*
X166400Y79410D01*
Y68613D01*
X164827Y67040D01*
G01X171700Y126900D02*
Y126000D01*
X167300Y121600D01*
Y109474D01*
X166800Y108973D01*
Y105004D01*
X167300Y104504D01*
Y101400D01*
X177400Y91300D01*
Y86500D01*
X174500Y83600D01*
X173700D01*
X172700Y82600D01*
G01X162400Y126900D02*
Y123450D01*
X160000Y121050D01*
Y118960D01*
X162400Y116560D01*
Y115510D01*
X160000Y113110D01*
Y111020D01*
X160940Y110080D01*
X161460D01*
X162400Y109140D01*
Y107050D01*
X161460Y106110D01*
X160940D01*
X160000Y105170D01*
Y97842D01*
X160940Y96902D01*
X165998D01*
X167700Y95200D01*
Y93600D01*
X167032Y92932D01*
X160940D01*
X160000Y91992D01*
Y91000D01*
X161100Y89900D01*
X172439D01*
X174276Y88064D01*
G01X178500Y126900D02*
X171700Y120100D01*
Y103400D01*
X182100Y93000D01*
Y88710D01*
X182110Y88700D01*
Y87428D01*
X182100Y87418D01*
Y85500D01*
X180900Y84300D01*
Y81800D01*
X175890Y76790D01*
Y73398D01*
X175935Y73353D01*
Y63765D01*
X181060Y58640D01*
X183060D01*
X188400Y53300D01*
X190500D01*
X191700Y54500D01*
Y56000D01*
X191100Y56600D01*
Y61000D01*
X187800Y64300D01*
Y68240D01*
X186874Y69166D01*
G01X181608Y32319D02*
X181043Y32884D01*
G01D02*
X181039D01*
G01X180500Y126900D02*
Y121431D01*
X179630Y120561D01*
X175272D01*
X174403Y119691D01*
Y118461D01*
X175272Y117591D01*
X179630D01*
X180500Y116721D01*
Y115491D01*
X179630Y114621D01*
X175272D01*
X174403Y113751D01*
Y112521D01*
X175272Y111651D01*
X179630D01*
X180500Y110781D01*
Y109551D01*
X179630Y108681D01*
X175272D01*
X174403Y107811D01*
Y106581D01*
X175272Y105711D01*
X177889D01*
X180500Y103100D01*
Y96900D01*
X183700Y93700D01*
Y88133D01*
X185259Y86574D01*
Y85060D01*
X183000Y82800D01*
Y80900D01*
X185500Y78400D01*
Y77400D01*
X178800Y70700D01*
Y68600D01*
X179900Y67500D01*
X181500D01*
X185300Y71300D01*
X189000D01*
X190024Y72324D01*
Y74034D01*
G01X184000Y126900D02*
Y97900D01*
X185500Y96400D01*
Y91609D01*
X188409Y88700D01*
Y87428D01*
X187000Y86019D01*
Y80800D01*
X187600Y80200D01*
G01X200400Y126900D02*
Y112610D01*
X199530Y111740D01*
X198670D01*
X197800Y110870D01*
Y109640D01*
X198670Y108770D01*
X199530D01*
X200400Y107900D01*
Y89600D01*
X201200Y88800D01*
Y86687D01*
X201087Y86574D01*
Y85302D01*
X201200Y85189D01*
Y84931D01*
X203852Y82279D01*
G01X187300Y122200D02*
Y116210D01*
X188665Y114845D01*
Y113240D01*
X187300Y111875D01*
Y108700D01*
X188618Y107382D01*
Y105518D01*
X187300Y104200D01*
Y101000D01*
X188700Y99600D01*
Y97400D01*
X187900Y96600D01*
Y92100D01*
X191559Y88442D01*
Y85159D01*
X189500Y83100D01*
Y77200D01*
X191638Y75062D01*
Y65167D01*
X193106Y63700D01*
X194000D01*
X194788Y64488D01*
Y68088D01*
X195600Y68900D01*
Y71500D01*
X194000Y73100D01*
Y75176D01*
X193173Y76002D01*
G01X202350Y126900D02*
Y120874D01*
X203220Y120004D01*
X204730D01*
X205600Y119134D01*
Y117904D01*
X204730Y117034D01*
X203220D01*
X202350Y116164D01*
Y114934D01*
X203220Y114064D01*
X204730D01*
X205600Y113194D01*
Y111964D01*
X204730Y111094D01*
X203220D01*
X202350Y110224D01*
Y108994D01*
X203220Y108124D01*
X204730D01*
X205600Y107254D01*
Y106024D01*
X204730Y105154D01*
X203220D01*
X202350Y104284D01*
Y103054D01*
X203220Y102184D01*
X204730D01*
X205600Y101314D01*
Y100084D01*
X204730Y99214D01*
X203220D01*
X202350Y98344D01*
Y89850D01*
X205700Y86500D01*
Y67700D01*
X201900Y63900D01*
X198072D01*
X197553Y63381D01*
G01X205500Y126900D02*
X207200Y125200D01*
Y120264D01*
X208200Y119264D01*
Y117294D01*
X207200Y116294D01*
Y114324D01*
X208200Y113324D01*
Y111354D01*
X207200Y110354D01*
Y98200D01*
X204600Y95600D01*
Y90700D01*
X207600Y87700D01*
Y64200D01*
X204300Y60900D01*
X200724D01*
X200702Y60921D01*
G01X212400Y126900D02*
X215024Y124276D01*
Y94168D01*
X214084Y93228D01*
X214040D01*
X213100Y92288D01*
Y90198D01*
X214040Y89258D01*
X216007D01*
X216947Y88318D01*
Y86228D01*
X216007Y85288D01*
X214040D01*
X213100Y84348D01*
Y82258D01*
X214040Y81318D01*
X216007D01*
X216947Y80378D01*
Y78288D01*
X216007Y77348D01*
X214040D01*
X213100Y76408D01*
Y74318D01*
X214040Y73378D01*
X216007D01*
X216947Y72438D01*
Y70348D01*
X216007Y69408D01*
X214040D01*
X213100Y68468D01*
Y66378D01*
X214040Y65438D01*
X216007D01*
X216947Y64498D01*
Y62408D01*
X216007Y61468D01*
X214040D01*
X213100Y60528D01*
Y58438D01*
X214040Y57498D01*
X216007D01*
X216947Y56558D01*
Y54468D01*
X216007Y53528D01*
X214040D01*
X213100Y52588D01*
Y50498D01*
X214040Y49558D01*
X216007D01*
X216947Y48618D01*
Y46528D01*
X216007Y45588D01*
X215964D01*
X214300Y43924D01*
Y40200D01*
X211765Y37665D01*
Y35935D01*
X215024Y32676D01*
Y26534D01*
G01X209148Y126900D02*
Y121319D01*
X210870Y119597D01*
X212830D01*
X213700Y118728D01*
Y117497D01*
X212830Y116627D01*
X210870D01*
X210000Y115758D01*
Y114527D01*
X210870Y113657D01*
X212830D01*
X213700Y112788D01*
Y111557D01*
X212830Y110687D01*
X210870D01*
X210000Y109817D01*
Y108587D01*
X210870Y107717D01*
X212830D01*
X213700Y106847D01*
Y105617D01*
X212830Y104747D01*
X210870D01*
X210000Y103878D01*
Y102647D01*
X210870Y101777D01*
X212830D01*
X213700Y100908D01*
Y99677D01*
X212830Y98807D01*
X211307D01*
X206900Y94400D01*
Y91600D01*
X210100Y88400D01*
Y57299D01*
X209230Y56429D01*
X206970D01*
X206100Y55559D01*
Y54329D01*
X206970Y53459D01*
X209230D01*
X210100Y52589D01*
Y51359D01*
X209230Y50489D01*
X206970D01*
X206100Y49619D01*
Y48389D01*
X206970Y47519D01*
X209230D01*
X210100Y46649D01*
Y40471D01*
X208265Y38636D01*
Y37364D01*
X208600Y37029D01*
Y34629D01*
X210235Y32994D01*
Y23305D01*
X211874Y21666D01*
G01X216900Y126900D02*
X218600Y125200D01*
Y122553D01*
X219540Y121613D01*
X223460D01*
X224400Y120673D01*
Y118583D01*
X223460Y117643D01*
X219540D01*
X218600Y116703D01*
Y114613D01*
X219540Y113673D01*
X223460D01*
X224400Y112733D01*
Y110643D01*
X223460Y109703D01*
X219540D01*
X218600Y108763D01*
Y106673D01*
X219540Y105733D01*
X223460D01*
X224400Y104793D01*
Y102703D01*
X223460Y101763D01*
X219540D01*
X218600Y100823D01*
Y98733D01*
X219540Y97793D01*
X223460D01*
X224400Y96853D01*
Y94763D01*
X223460Y93823D01*
X219540D01*
X218600Y92883D01*
Y90793D01*
X219540Y89853D01*
X223460D01*
X224400Y88913D01*
Y86823D01*
X223460Y85883D01*
X219540D01*
X218600Y84943D01*
Y82853D01*
X219540Y81913D01*
X223460D01*
X224400Y80973D01*
Y78883D01*
X223460Y77943D01*
X220043D01*
X218600Y76500D01*
Y44900D01*
X216638Y42938D01*
Y39462D01*
X217868Y38232D01*
Y32768D01*
X216638Y31538D01*
Y27867D01*
X218173Y26332D01*
Y21666D01*
G01X229540Y126900D02*
Y74843D01*
X228600Y73903D01*
Y71813D01*
X229540Y70873D01*
X231460D01*
X232400Y69933D01*
Y67843D01*
X231460Y66903D01*
X229540D01*
X228600Y65963D01*
Y63873D01*
X229540Y62933D01*
X231460D01*
X232400Y61993D01*
Y59903D01*
X231460Y58963D01*
X229540D01*
X228600Y58023D01*
Y55933D01*
X229540Y54993D01*
X231460D01*
X232400Y54053D01*
Y51963D01*
X231460Y51023D01*
X229540D01*
X228600Y50083D01*
Y47993D01*
X229540Y47053D01*
X231460D01*
X232400Y46113D01*
Y43770D01*
X230600Y41970D01*
Y39800D01*
X232400Y38000D01*
Y34500D01*
X226087Y28187D01*
Y13806D01*
X225702Y13421D01*
G01X235700Y73400D02*
Y34700D01*
X227622Y26622D01*
Y26534D01*
G01X235700Y151300D02*
X236500D01*
X238300Y149500D01*
Y33900D01*
X229000Y24600D01*
Y20918D01*
X227622Y19540D01*
G01X227000Y126900D02*
Y76228D01*
X226060Y75288D01*
X221540D01*
X220600Y74348D01*
Y72258D01*
X221540Y71318D01*
X226060D01*
X227000Y70378D01*
Y68288D01*
X226060Y67348D01*
X221540D01*
X220600Y66408D01*
Y64317D01*
X221540Y63378D01*
X226060D01*
X227000Y62438D01*
Y60348D01*
X226060Y59408D01*
X221540D01*
X220600Y58467D01*
Y56378D01*
X221540Y55438D01*
X226060D01*
X227000Y54498D01*
Y52408D01*
X226060Y51468D01*
X221540D01*
X220600Y50528D01*
Y48438D01*
X221540Y47498D01*
X226060D01*
X227100Y46458D01*
Y40700D01*
X225800Y39400D01*
Y38200D01*
X224300Y36700D01*
X222000D01*
X221018Y35718D01*
Y34143D01*
X221500Y33661D01*
Y29304D01*
X222965Y27839D01*
Y24500D01*
X221600Y23135D01*
Y21900D01*
X222965Y20535D01*
Y16265D01*
X221600Y14900D01*
G54D13*
X160252Y178848D03*
X164352Y179048D03*
G54D14*
X430700Y32500D03*
G54D15*
X417000Y138200D03*
Y163800D03*
X438500Y138200D03*
Y163800D03*
X460000Y138200D03*
Y163800D03*
G54D16*
X413500Y232000D03*
X433500D03*
X453500D03*
X473500D03*
G54D17*
X442500Y51400D03*
X455300Y32500D03*
G54D18*
G01X173858Y228413D02*
X175026D01*
X175426Y228813D01*
X175700Y229087D01*
Y231194D01*
X175500Y231393D01*
Y232529D01*
X174947Y233082D01*
Y233365D01*
X174191Y234121D01*
X173626D01*
X173285Y233780D01*
X172720D01*
X172295Y234205D01*
Y234770D01*
X172636Y235111D01*
Y235676D01*
X156012Y252300D01*
X154358D01*
X153958Y251900D01*
Y251500D01*
X153558Y251100D01*
X152958D01*
X152558Y251500D01*
Y251900D01*
X152158Y252300D01*
X130500D01*
X82800Y300000D01*
X79700D01*
X77020Y302680D01*
Y304900D01*
X76220Y305700D01*
X73920D01*
X73120Y304900D01*
Y301386D01*
X71734Y300000D01*
X68606D01*
X67220Y301386D01*
Y304900D01*
X66420Y305700D01*
X64120D01*
X63320Y304900D01*
Y301386D01*
X61934Y300000D01*
X58806D01*
X57420Y301386D01*
Y304900D01*
X56620Y305700D01*
X54320D01*
X53520Y304900D01*
Y301386D01*
X52135Y300000D01*
X49006D01*
X47620Y301386D01*
Y304900D01*
X46820Y305700D01*
X44520D01*
X43720Y304900D01*
Y301386D01*
X42334Y300000D01*
X31300D01*
X21531Y290231D01*
Y289666D01*
X21816Y289381D01*
Y288816D01*
X21391Y288391D01*
X20826D01*
X20541Y288676D01*
X19976D01*
X19000Y287700D01*
Y274723D01*
X19423Y274300D01*
X20500D01*
X20900Y274700D01*
Y276300D01*
G01X177794Y228413D02*
X176900D01*
X176500Y228813D01*
Y232944D01*
X175947Y233496D01*
Y233779D01*
X156427Y253300D01*
X130914D01*
X83214Y301000D01*
X80114D01*
X78020Y303094D01*
Y305314D01*
X76634Y306700D01*
X73506D01*
X72120Y305314D01*
Y301800D01*
X71320Y301000D01*
X69020D01*
X68220Y301800D01*
Y305314D01*
X66835Y306700D01*
X63706D01*
X62320Y305314D01*
Y301800D01*
X61520Y301000D01*
X59220D01*
X58420Y301800D01*
Y305314D01*
X57034Y306700D01*
X53906D01*
X52520Y305314D01*
Y301800D01*
X51720Y301000D01*
X49420D01*
X48620Y301800D01*
Y305314D01*
X47234Y306700D01*
X44106D01*
X42720Y305314D01*
Y301800D01*
X41920Y301000D01*
X30886D01*
X18000Y288114D01*
Y274308D01*
X19008Y273300D01*
X20500D01*
X20900Y272900D01*
Y271300D01*
G01X197480Y208728D02*
Y207707D01*
X197000Y207228D01*
X153551D01*
X152672Y208106D01*
Y217559D01*
X151193Y219039D01*
X137803D01*
X136900Y219942D01*
Y231414D01*
X132950Y235364D01*
X83414Y284900D01*
X24886D01*
X22900Y282914D01*
Y270800D01*
X21300Y269200D01*
X15100D01*
X13900Y270400D01*
Y273214D01*
X12814Y274300D01*
X11300D01*
X10900Y274700D01*
Y276300D01*
G01X197480Y204791D02*
Y205948D01*
X197000Y206428D01*
X153220D01*
X151872Y207775D01*
Y217228D01*
X150861Y218239D01*
X137472D01*
X136100Y219610D01*
Y230800D01*
X130600Y236300D01*
X83000Y283900D01*
X25300D01*
X23900Y282500D01*
Y270386D01*
X21714Y268200D01*
X14686D01*
X12900Y269986D01*
Y272800D01*
X12400Y273300D01*
X11300D01*
X10900Y272900D01*
Y271300D01*
G01X160252Y178848D02*
X160828Y179425D01*
Y180265D01*
X160546Y180547D01*
Y182354D01*
X160100Y182800D01*
X137900D01*
X136787Y181687D01*
Y180088D01*
X135568Y178868D01*
X132368D01*
X130400Y176900D01*
X129572D01*
X129571Y176900D01*
X88758D01*
X87958Y176100D01*
Y172086D01*
X86572Y170700D01*
X83444D01*
X82058Y172086D01*
Y176100D01*
X81258Y176900D01*
X78958D01*
X78158Y176100D01*
Y172086D01*
X76772Y170700D01*
X73644D01*
X72258Y172086D01*
Y176100D01*
X71458Y176900D01*
X66900D01*
X52900Y162900D01*
X40200D01*
X38100Y165000D01*
Y182700D01*
X39700Y184300D01*
X45500D01*
X45900Y184700D01*
Y186300D01*
G01X142361Y145735D02*
X143530D01*
X143930Y145335D01*
Y141030D01*
X143100Y140200D01*
X122686D01*
X76786Y94300D01*
X51300D01*
X50900Y94700D01*
Y96300D01*
G01X146298Y145735D02*
X145130D01*
X144730Y145335D01*
Y140698D01*
X143431Y139400D01*
X132614D01*
X132414Y139200D01*
X123100D01*
X77200Y93300D01*
X51300D01*
X50900Y92900D01*
Y91300D01*
G01X142361Y161484D02*
X143530D01*
X143930Y161083D01*
Y156730D01*
X143200Y156000D01*
X118286D01*
X96586Y134300D01*
X51300D01*
X50900Y134700D01*
Y136300D01*
G01X146298Y161484D02*
X145130D01*
X144730Y161083D01*
Y156398D01*
X143531Y155200D01*
X132614D01*
X132414Y155000D01*
X118700D01*
X97000Y133300D01*
X51300D01*
X50900Y132900D01*
Y131300D01*
G01X142361Y177232D02*
X143469D01*
X143930Y176770D01*
Y172630D01*
X143000Y171700D01*
X130600D01*
X128100Y169200D01*
X98300D01*
X83400Y154300D01*
X51300D01*
X50900Y154700D01*
Y156300D01*
G01X146298Y177232D02*
X145130D01*
X144730Y176831D01*
Y172298D01*
X143331Y170900D01*
X132614D01*
X132414Y170700D01*
X131014D01*
X128514Y168200D01*
X98714D01*
X83814Y153300D01*
X51300D01*
X50900Y152900D01*
Y151300D01*
G01X164352Y179048D02*
X163546Y179854D01*
Y181790D01*
X162668Y182668D01*
X162332D01*
X161400Y183600D01*
X137569D01*
X135987Y182019D01*
Y180419D01*
X135237Y179668D01*
X133866D01*
X133666Y179868D01*
X131954D01*
X129986Y177900D01*
X88344D01*
X86958Y176514D01*
Y172500D01*
X86158Y171700D01*
X83858D01*
X83058Y172500D01*
Y176514D01*
X81672Y177900D01*
X78544D01*
X77158Y176514D01*
Y172500D01*
X76358Y171700D01*
X74058D01*
X73258Y172500D01*
Y176514D01*
X71872Y177900D01*
X66486D01*
X52486Y163900D01*
X40614D01*
X39100Y165414D01*
Y176766D01*
X39800Y177466D01*
Y178166D01*
X39100Y178866D01*
Y182286D01*
X40114Y183300D01*
X45500D01*
X45900Y182900D01*
Y181300D01*
G01X146298Y192980D02*
X145180D01*
X144700Y192500D01*
Y188000D01*
X143306Y186606D01*
X66920D01*
X53614Y173300D01*
X51300D01*
X50900Y172900D01*
Y171300D01*
G01X142361Y192980D02*
X143420D01*
X143900Y192500D01*
Y188331D01*
X142974Y187406D01*
X132614D01*
X132414Y187606D01*
X66506D01*
X53200Y174300D01*
X51300D01*
X50900Y174700D01*
Y176300D01*
G01X134487Y196916D02*
X135656D01*
X136056Y196516D01*
Y191987D01*
X135548Y191480D01*
X133866D01*
X133746Y191600D01*
X122114D01*
X106014Y207700D01*
X97900D01*
X66000Y239600D01*
Y243400D01*
X55100Y254300D01*
X51300D01*
X50900Y254700D01*
Y256300D01*
G01X138424Y196916D02*
X137256D01*
X136856Y196516D01*
Y191656D01*
X135880Y190680D01*
X133535D01*
X133414Y190800D01*
X132200D01*
X132000Y190600D01*
X121700D01*
X105600Y206700D01*
X97486D01*
X65000Y239186D01*
Y242986D01*
X54686Y253300D01*
X51300D01*
X50900Y252900D01*
Y251300D01*
G01X134487Y212665D02*
X135335D01*
X136100Y211900D01*
Y207831D01*
X135369Y207100D01*
X132314D01*
X109300Y230114D01*
Y240054D01*
X75054Y274300D01*
X51300D01*
X50900Y274700D01*
Y276300D01*
G01X138424Y212665D02*
X137665D01*
X136900Y211900D01*
Y207500D01*
X135700Y206300D01*
X131700D01*
X108300Y229700D01*
Y239640D01*
X74640Y273300D01*
X51300D01*
X50900Y272900D01*
Y271300D01*
G01X142361Y208728D02*
X143272D01*
X143861Y208139D01*
Y203600D01*
X143461Y203200D01*
X133900D01*
X133800Y203300D01*
X128814D01*
X96614Y235500D01*
X87114D01*
X58214Y264400D01*
X50414D01*
X48900Y265914D01*
Y272614D01*
X47214Y274300D01*
X41300D01*
X40900Y274700D01*
Y276300D01*
G01X146298Y208728D02*
X145250D01*
X144661Y208139D01*
Y203269D01*
X143793Y202400D01*
X133900D01*
X133800Y202300D01*
X128400D01*
X96200Y234500D01*
X86700D01*
X57800Y263400D01*
X50000D01*
X47900Y265500D01*
Y272200D01*
X46800Y273300D01*
X41300D01*
X40900Y272900D01*
Y271300D01*
G01X169920Y149672D02*
Y149980D01*
X168200Y151700D01*
Y158200D01*
X166900Y159500D01*
X157400D01*
X156300Y158400D01*
Y145100D01*
X157165Y144235D01*
X158165D01*
X160000Y142400D01*
Y127800D01*
X159100Y126900D01*
G01X173858Y157546D02*
X172554D01*
X170600Y159500D01*
X169783D01*
X167900Y161383D01*
Y162000D01*
X166900Y163000D01*
X157070D01*
X156100Y162030D01*
Y161000D01*
X154600Y159500D01*
X153700D01*
X152550Y158350D01*
Y140603D01*
X153148Y140004D01*
Y139093D01*
X152550Y138494D01*
Y127136D01*
G01X154172Y204791D02*
Y204628D01*
X156200Y202600D01*
Y200642D01*
X157488Y199354D01*
X158846D01*
X160300Y197900D01*
Y196542D01*
X161425Y195416D01*
X162228D01*
X163700Y193944D01*
Y192700D01*
X165500Y190900D01*
X166247D01*
X167484Y189664D01*
Y188416D01*
X168358Y187542D01*
X170058D01*
X171420Y186180D01*
Y184880D01*
X172694Y183606D01*
X173994D01*
X175358Y182242D01*
Y180842D01*
X176900Y179300D01*
X235700D01*
G01X177794Y137861D02*
Y137794D01*
X175900Y135900D01*
Y126900D01*
G01X173858Y161484D02*
X175500Y159841D01*
Y158505D01*
X175494Y158499D01*
Y157094D01*
X175358Y156958D01*
Y156925D01*
X174479Y156046D01*
X173946D01*
X171800Y153900D01*
Y137400D01*
X170761Y136361D01*
X170011D01*
X167800Y134150D01*
Y126900D01*
G01X181732Y161484D02*
Y162732D01*
X183300Y164300D01*
Y170100D01*
X182500Y170900D01*
X181000D01*
X179900Y169800D01*
Y161400D01*
X177547Y159046D01*
X177173D01*
X176294Y158168D01*
Y155994D01*
X175900Y155600D01*
Y137782D01*
X174118Y136000D01*
X173700D01*
X171700Y134000D01*
Y126900D01*
G01X165984Y149672D02*
X164300Y151356D01*
Y154000D01*
X163100Y155200D01*
X161200D01*
X160400Y154400D01*
Y149100D01*
X161800Y147700D01*
X162300D01*
X163900Y146100D01*
Y128400D01*
X162400Y126900D01*
G01X177794Y129987D02*
X178500Y129282D01*
Y126900D01*
G01X169920Y204791D02*
Y204580D01*
X172000Y202500D01*
Y196653D01*
X173236Y195416D01*
X174479D01*
X176294Y193601D01*
Y192358D01*
X177173Y191480D01*
X178820D01*
X179500Y190800D01*
X194300D01*
X195600Y192100D01*
Y194000D01*
X196650Y195050D01*
X235700D01*
G01X165984Y200854D02*
X166046D01*
X168000Y198900D01*
Y196300D01*
X169820Y194480D01*
X170542D01*
X171420Y193601D01*
Y192780D01*
X173658Y190542D01*
X174479D01*
X175358Y189664D01*
Y188842D01*
X177200Y187000D01*
X194000D01*
X195500Y188500D01*
Y189600D01*
X197000Y191100D01*
X235700D01*
G01X165984Y204791D02*
Y204484D01*
X164200Y202700D01*
Y196579D01*
X165362Y195416D01*
X166284D01*
X168420Y193280D01*
Y192358D01*
X169299Y191480D01*
X170020D01*
X172358Y189142D01*
Y188421D01*
X173236Y187542D01*
X173958D01*
X176294Y185206D01*
Y184484D01*
X177779Y183000D01*
X235700D01*
G01X181732Y129987D02*
X180500Y128756D01*
Y126900D01*
G01X181732Y137861D02*
X181339D01*
X179400Y139800D01*
Y157700D01*
X181200Y159500D01*
X182254D01*
X184854Y162100D01*
X185700D01*
X186700Y161100D01*
Y160300D01*
X185500Y159100D01*
X184900D01*
X183232Y157432D01*
Y151368D01*
X184000Y150600D01*
Y126900D01*
G01X193542Y137861D02*
X189500Y141904D01*
Y147100D01*
X191106Y148706D01*
Y150294D01*
X189399Y152000D01*
X184900D01*
X184200Y152700D01*
Y152956D01*
X184168Y152988D01*
Y154231D01*
X184200Y154262D01*
Y155100D01*
X185000Y155900D01*
X189900D01*
X192042Y153758D01*
Y142258D01*
X195600Y138700D01*
Y137000D01*
X196800Y135800D01*
X199500D01*
X200400Y134900D01*
Y126900D01*
G01X181732Y204791D02*
X181809D01*
X183500Y203100D01*
X198100D01*
X199500Y204500D01*
Y205900D01*
X200700Y207100D01*
X235700D01*
G01X177794Y196916D02*
Y196406D01*
X178900Y195300D01*
X194600D01*
X196400Y197100D01*
X198200D01*
X199699Y198600D01*
X235700D01*
G01X177794Y200854D02*
X178246D01*
X180300Y198800D01*
X197800D01*
X199200Y200200D01*
Y201500D01*
X200054Y202354D01*
X235654D01*
X235700Y202400D01*
G01X181732Y208728D02*
X182228D01*
X184100Y210600D01*
X235700D01*
G01Y214600D02*
X235600Y214700D01*
X184800D01*
X183232Y213132D01*
Y212043D01*
X182353Y211165D01*
X181265D01*
X178828Y208728D01*
X177794D01*
G01Y224476D02*
Y224306D01*
X179600Y222500D01*
X235700D01*
G01X177794Y220539D02*
X178261D01*
X180000Y218800D01*
X235700D01*
G01X235698Y226500D02*
X176400D01*
X174376Y224476D01*
X173858D01*
G01X189606Y149672D02*
X187300Y147367D01*
Y127566D01*
X188100Y126766D01*
X190700D01*
X191500Y125966D01*
Y124666D01*
X190700Y123866D01*
X188100D01*
X187300Y123066D01*
Y122200D01*
G01X189606Y129987D02*
X190687D01*
X191200Y130500D01*
Y135031D01*
X192530Y136361D01*
X194164D01*
X194202Y136400D01*
X194731D01*
X195900Y135231D01*
Y127746D01*
X196166Y127481D01*
Y126451D01*
X196000Y126286D01*
Y122400D01*
X193346Y119746D01*
X191400D01*
X190600Y118945D01*
Y117646D01*
X191400Y116846D01*
X194614D01*
X195700Y115760D01*
Y113031D01*
X194614Y111945D01*
X191400D01*
X190600Y111145D01*
Y109846D01*
X191400Y109046D01*
X194614D01*
X196000Y107660D01*
Y105531D01*
X194614Y104146D01*
X191400D01*
X190600Y103346D01*
Y102046D01*
X191400Y101246D01*
X194614D01*
X196000Y99860D01*
Y97731D01*
X194614Y96346D01*
X191400D01*
X190600Y95546D01*
Y94246D01*
X191400Y93446D01*
X194614D01*
X196000Y92060D01*
Y88486D01*
X194300Y86786D01*
Y83714D01*
X197300Y80714D01*
Y77000D01*
X198823Y75477D01*
Y72998D01*
X198400Y72575D01*
Y70238D01*
X199472Y69166D01*
G01X193542Y129987D02*
X192400D01*
X192000Y130387D01*
Y134700D01*
X192861Y135561D01*
X194439D01*
X195100Y134900D01*
Y126900D01*
X195000Y126800D01*
Y125935D01*
X194590Y125524D01*
X193510D01*
X193100Y125114D01*
Y124535D01*
X193510Y124124D01*
X194590D01*
X195000Y123714D01*
Y122814D01*
X192931Y120746D01*
X190986D01*
X189600Y119360D01*
Y117231D01*
X190986Y115846D01*
X194200D01*
X194700Y115345D01*
Y113446D01*
X194200Y112945D01*
X190986D01*
X189600Y111560D01*
Y109431D01*
X190986Y108046D01*
X194200D01*
X195000Y107246D01*
Y105946D01*
X194200Y105146D01*
X190986D01*
X189600Y103760D01*
Y101631D01*
X190986Y100246D01*
X194200D01*
X195000Y99446D01*
Y98146D01*
X194200Y97346D01*
X190986D01*
X189600Y95960D01*
Y93831D01*
X190986Y92446D01*
X194200D01*
X195000Y91646D01*
Y88900D01*
X193300Y87200D01*
Y83300D01*
X196300Y80300D01*
Y76586D01*
X197823Y75063D01*
Y73412D01*
X197400Y72990D01*
Y68117D01*
X196323Y67040D01*
G01X193542Y149672D02*
Y149458D01*
X195200Y147800D01*
Y141700D01*
X196800Y140100D01*
X198400D01*
X202350Y136150D01*
Y126900D01*
G01X189606Y157546D02*
X191054D01*
X193491Y155109D01*
X194164D01*
X195042Y154231D01*
Y152988D01*
X196858Y151172D01*
X198101D01*
X198980Y150294D01*
Y148172D01*
X199800Y147352D01*
Y141600D01*
X199916Y141484D01*
Y141177D01*
X200795Y140298D01*
X202202D01*
X203851Y138649D01*
Y128549D01*
X205500Y126900D01*
G01X197480Y157546D02*
X199295D01*
X200795Y156046D01*
X205038D01*
X207500Y153584D01*
Y140754D01*
X208754Y139500D01*
X210000D01*
X211201Y138299D01*
Y128099D01*
X212400Y126900D01*
G01X197480Y153609D02*
X199295D01*
X200795Y152109D01*
X201191D01*
X203700Y149600D01*
Y141100D01*
X205000Y139800D01*
X206000D01*
X207501Y138299D01*
Y128548D01*
X209148Y126900D01*
G01X213228Y137861D02*
X215000Y136089D01*
Y128800D01*
X216900Y126900D01*
G01X213228Y145735D02*
X211600Y144108D01*
Y140600D01*
X212400Y139800D01*
X232500D01*
X233700Y138600D01*
Y134300D01*
X229540Y130140D01*
Y126900D01*
G01X213228Y141798D02*
Y142128D01*
X215000Y143900D01*
X234400D01*
X235700Y142600D01*
Y131932D01*
X232300Y128532D01*
Y126232D01*
X233100Y125432D01*
X234900D01*
X235700Y124632D01*
Y122332D01*
X234900Y121532D01*
X233100D01*
X232300Y120732D01*
Y118432D01*
X233100Y117632D01*
X234900D01*
X235700Y116832D01*
Y114532D01*
X234900Y113732D01*
X233100D01*
X232300Y112932D01*
Y110632D01*
X233100Y109832D01*
X234900D01*
X235700Y109032D01*
Y106732D01*
X234900Y105932D01*
X233100D01*
X232300Y105132D01*
Y102832D01*
X233100Y102032D01*
X234900D01*
X235700Y101232D01*
Y98932D01*
X234900Y98132D01*
X233100D01*
X232300Y97332D01*
Y95032D01*
X233100Y94232D01*
X234900D01*
X235700Y93432D01*
Y91132D01*
X234900Y90332D01*
X233100D01*
X232300Y89532D01*
Y87232D01*
X233100Y86432D01*
X234900D01*
X235700Y85632D01*
Y83332D01*
X234900Y82532D01*
X233100D01*
X232300Y81732D01*
Y79432D01*
X233100Y78632D01*
X234900D01*
X235700Y77832D01*
Y73400D01*
G01X209291Y145735D02*
X211200Y147645D01*
Y149800D01*
X212700Y151300D01*
X219833D01*
X220633Y150500D01*
Y148300D01*
X221433Y147500D01*
X223733D01*
X224533Y148300D01*
Y150500D01*
X225333Y151300D01*
X227633D01*
X228433Y150500D01*
Y148300D01*
X229233Y147500D01*
X231533D01*
X232333Y148300D01*
Y150500D01*
X233133Y151300D01*
X235700D01*
G01X213228Y189042D02*
X213358D01*
X215800Y186600D01*
X220475D01*
X220480Y186606D01*
X235694D01*
X235700Y186600D01*
G01X217165Y137861D02*
X218726Y136300D01*
X226100D01*
X227000Y135400D01*
Y126900D01*
G54D19*
G01X235700Y179300D02*
X237300Y180900D01*
X240700D01*
X243500Y178100D01*
X262100D01*
X263400Y179400D01*
G01X235700Y195050D02*
X236750D01*
X245300Y203600D01*
X248600D01*
X249500Y204500D01*
G01X235700Y191100D02*
X246600D01*
X254700Y199200D01*
G01X235700Y183000D02*
X265600D01*
G01X235700Y207100D02*
X238100D01*
X238800Y207800D01*
X262700D01*
X267600Y212700D01*
X276000D01*
X285000Y203700D01*
X326100D01*
X328900Y206500D01*
X352500D01*
X388200Y170800D01*
G01X235700Y198600D02*
X237400D01*
X244500Y205700D01*
X245900D01*
G01X235700Y202400D02*
X238200Y204900D01*
G01X235700Y210600D02*
X250700D01*
X252000Y209300D01*
X261291D01*
X266500Y214509D01*
X277400D01*
X283809Y208100D01*
X355600D01*
X390100Y173600D01*
G01X332600Y216300D02*
X332104Y216780D01*
X330803Y216750D01*
X323553Y209500D01*
X286100D01*
X278850Y216750D01*
X259400D01*
X255850Y213200D01*
X249820D01*
X248941Y214079D01*
Y215021D01*
X248062Y215900D01*
X246820D01*
X245941Y215021D01*
Y214079D01*
X245062Y213200D01*
X243820D01*
X242941Y214079D01*
Y215021D01*
X242062Y215900D01*
X240820D01*
X239941Y215021D01*
Y214079D01*
X239062Y213200D01*
X237100D01*
X235700Y214600D01*
G01Y222500D02*
X241500D01*
X245150Y218850D01*
X256650D01*
X261200Y223400D01*
X294000D01*
X296900Y220500D01*
X302600D01*
X305500Y223400D01*
X350700D01*
X394500Y179600D01*
G01X235700Y218800D02*
X241200D01*
X242600Y217400D01*
X256800D01*
X259700Y220300D01*
X267000D01*
X267900Y219400D01*
X279200D01*
X287600Y211000D01*
X321100D01*
X329500Y219400D01*
X349200D01*
X392100Y176500D01*
G01X333800Y226600D02*
X309962Y226576D01*
X302637Y233900D01*
X296200D01*
X290000Y227700D01*
X279226D01*
X278347Y228579D01*
Y240021D01*
X277468Y240900D01*
X276226D01*
X275347Y240021D01*
Y228579D01*
X274468Y227700D01*
X273226D01*
X272347Y228579D01*
Y240021D01*
X271468Y240900D01*
X270226D01*
X269347Y240021D01*
Y228579D01*
X268468Y227700D01*
X267226D01*
X266347Y228579D01*
Y240021D01*
X265468Y240900D01*
X264226D01*
X263347Y240021D01*
Y228579D01*
X262468Y227700D01*
X236898D01*
X235698Y226500D01*
G01X193000Y22300D02*
Y20332D01*
X192830Y20162D01*
Y18878D01*
X193000Y18708D01*
Y16900D01*
G01X192600Y30600D02*
X191426Y29426D01*
Y25574D01*
X193000Y24000D01*
G01X192900Y34300D02*
Y33205D01*
X192656Y32961D01*
Y31677D01*
X192900Y31433D01*
Y30600D01*
G01D02*
X192600D01*
G01X235700Y186600D02*
X235738Y186638D01*
X237617D01*
X237655Y186600D01*
X288400D01*
X293800Y181200D01*
X308300D01*
X330300Y159200D01*
X368800D01*
X371800Y156200D01*
X413300D01*
X415000Y154500D01*
X452400D01*
G01X417000Y163800D02*
X415900Y162700D01*
X369300D01*
X368450Y163550D01*
X329950D01*
X310300Y183200D01*
X295400D01*
X275400Y203200D01*
Y210000D01*
X275100Y210300D01*
G01X344754Y312746D02*
X345000Y312500D01*
Y309000D01*
X349400Y304600D01*
X360200D01*
X366000Y298800D01*
Y288600D01*
X379870Y274730D01*
X384770D01*
X411900Y247600D01*
X420100D01*
X429600Y238100D01*
Y235900D01*
X433500Y232000D01*
G01X453500D02*
X453100D01*
X448700Y227600D01*
X432000D01*
X417800Y241800D01*
Y243900D01*
X415600Y246100D01*
X410800D01*
X384400Y272500D01*
X379600D01*
X362984Y289116D01*
Y296816D01*
X362900Y296900D01*
G01X473500Y232000D02*
X467300Y225800D01*
X413900D01*
X402300Y237400D01*
Y246330D01*
X380690Y267940D01*
X378560D01*
X358086Y288414D01*
Y299198D01*
X358042Y299242D01*
G01X413500Y232000D02*
Y235800D01*
X405230Y244070D01*
Y246850D01*
X381780Y270300D01*
X379200D01*
X360072Y289428D01*
Y302028D01*
X360010Y302090D01*
M02*
