G04 ================== begin FILE IDENTIFICATION RECORD ==================*
G04 Layout Name:  C:/userdata/Boards/TSW14J50_B/TSW14J50_B.brd*
G04 Film Name:    LYR07_PWR1*
G04 File Format:  Gerber RS274X*
G04 File Origin:  Cadence Allegro 16.6-S019*
G04 Origin Date:  Tue Apr 01 14:59:11 2014*
G04 *
G04 Layer:  VIA CLASS/L7-PWR1*
G04 Layer:  PIN/L7-PWR1*
G04 Layer:  ETCH/L7-PWR1*
G04 Layer:  BOARD GEOMETRY/TOOLING_CORNERS*
G04 *
G04 Offset:    (0.000 0.000)*
G04 Mirror:    No*
G04 Mode:      Positive*
G04 Rotation:  0*
G04 FullContactRelief:  No*
G04 UndefLineWidth:     7.000*
G04 ================== end FILE IDENTIFICATION RECORD ====================*
%FSLAX55Y55*MOIN*%
%IR0*IPPOS*OFA0.00000B0.00000*MIA0B0*SFA1.00000B1.00000*%
%ADD21C,.15*%
%ADD19C,.17*%
%ADD15C,.01*%
%ADD10C,.02*%
%ADD14C,.03*%
%ADD11C,.022*%
%ADD18C,.016*%
%ADD20C,.08*%
%ADD13C,.018*%
%ADD12C,.092*%
%ADD17C,.058*%
%ADD16C,.097*%
%ADD22C,.006*%
%ADD36C,.110004*%
%ADD35C,.200004*%
%ADD33C,.104004*%
%ADD27C,.122004*%
%ADD24C,.180004*%
%ADD32C,.127004*%
%ADD31C,.030004*%
%ADD23C,.032004*%
%ADD30C,.042004*%
%ADD25C,.060004*%
%ADD34C,.070004*%
%ADD26C,.034004*%
%ADD37C,.062004*%
%ADD28C,.028004*%
%ADD29C,.088004*%
G75*
%LPD*%
G75*
G36*
G01X-12760Y362114D02*
G03X-7000Y356733I12760J7887D01*
G01Y13267D01*
G03X-12760Y7886I7000J-13267D01*
G02X-13500Y8097I-340J210D01*
G01Y361903D01*
G02X-12760Y362114I400J0D01*
G37*
G36*
G01X8097Y-13500D02*
G02X7886Y-12760I0J400D01*
G03X13267Y-7000I-7887J12760D01*
G01X149500D01*
Y454D01*
G02X150276Y592I400J0D01*
G03X161690Y500I5724J2108D01*
G01X292000D01*
Y8000D01*
X371000D01*
Y49328D01*
X357828Y62500D01*
X347000D01*
Y83328D01*
X326711Y103618D01*
G02X327000Y104301I283J283D01*
G03X332886Y108467I100J6099D01*
G02X333548Y108623I379J-127D01*
G01X341672Y100500D01*
X347502D01*
G02X347902Y100080I0J-400D01*
G03X351098I1598J-80D01*
G02X351498Y100500I399J20D01*
G01X384500D01*
Y138000D01*
X388000D01*
Y97000D01*
X354172D01*
X350500Y93328D01*
Y74172D01*
X378000Y46672D01*
Y31361D01*
G02X377295Y31102I-400J0D01*
G03Y28899I-1295J-1101D01*
G02X378000Y28639I305J-259D01*
G01Y8496D01*
X377884Y8442D01*
G03Y5358I716J-1542D01*
G01X378000Y5304D01*
Y-7000D01*
X456733D01*
G03X462114Y-12760I13267J7000D01*
G02X461903Y-13500I-210J-340D01*
G01X8097D01*
G37*
G36*
G01X14697Y-5000D02*
G02X14315Y-4480I0J400D01*
G03X-4480Y14315I-14315J4480D01*
G02X-5000Y14697I-119J382D01*
G01Y355303D01*
G02X-4480Y355685I400J0D01*
G03X14315Y374480I4480J14315D01*
G02X14697Y375000I382J119D01*
G01X116918D01*
X116938Y374822D01*
G03X129062I6062J678D01*
G01X129082Y375000D01*
X160000D01*
Y372849D01*
G03Y370351I1000J-1249D01*
G01Y362749D01*
G03Y360251I1000J-1249D01*
G01Y332500D01*
X146240D01*
G02X145851Y332995I0J400D01*
G03X145034Y334882I-1651J405D01*
G02X145015Y335567I196J349D01*
G03Y338433I-915J1433D01*
G02X145034Y339118I215J337D01*
G03X143062Y341863I-834J1481D01*
G02X142414Y342034I-268J297D01*
G03X141938Y340237I-1614J-534D01*
G02X142586Y340066I268J-297D01*
G03X143285Y339167I1614J534D01*
G02X143266Y338482I-215J-337D01*
G03X143003Y338299I834J-1481D01*
G02X142393Y338413I-258J306D01*
G03X141997Y336301I-1493J-813D01*
G02X142607Y336187I258J-306D01*
G03X143266Y335518I1493J813D01*
G02X143285Y334833I-196J-349D01*
G03X142928Y334528I915J-1433D01*
G02X142299Y334566I-299J265D01*
G03X139812Y334906I-1399J-966D01*
G02X139279Y334925I-256J307D01*
G03X136528Y333052I-1179J-1225D01*
G02X136158Y332500I-370J-152D01*
G01X102708D01*
G02X102327Y333020I0J400D01*
G03X99274I-1527J480D01*
G02X98892Y332500I-382J-120D01*
G01X53898D01*
G02X53536Y333071I0J400D01*
G03X50464I-1536J729D01*
G02X50102Y332500I-361J-171D01*
G01X42500D01*
Y293793D01*
G02X41901Y293446I-400J0D01*
G03Y288241I-1493J-2602D01*
G02X42500Y287894I199J-347D01*
G01Y282900D01*
G02X41860Y282580I-400J0D01*
G03Y280020I-960J-1280D01*
G02X42500Y279700I240J-320D01*
G01Y277900D01*
G02X41860Y277580I-400J0D01*
G03Y275020I-960J-1280D01*
G02X42500Y274700I240J-320D01*
G01Y272900D01*
G02X41860Y272580I-400J0D01*
G03Y270020I-960J-1280D01*
G02X42500Y269700I240J-320D01*
G01Y267900D01*
G02X41860Y267580I-400J0D01*
G03Y265020I-960J-1280D01*
G02X42500Y264700I240J-320D01*
G01Y262900D01*
G02X41860Y262580I-400J0D01*
G03Y260020I-960J-1280D01*
G02X42500Y259700I240J-320D01*
G01Y257900D01*
G02X41860Y257580I-400J0D01*
G03Y255020I-960J-1280D01*
G02X42500Y254700I240J-320D01*
G01Y252900D01*
G02X41860Y252580I-400J0D01*
G03Y250020I-960J-1280D01*
G02X42500Y249700I240J-320D01*
G01Y247900D01*
G02X41860Y247580I-400J0D01*
G03Y245020I-960J-1280D01*
G02X42500Y244700I240J-320D01*
G01Y242900D01*
G02X41860Y242580I-400J0D01*
G03Y240020I-960J-1280D01*
G02X42500Y239700I240J-320D01*
G01Y227900D01*
G02X41860Y227580I-400J0D01*
G03Y225020I-960J-1280D01*
G02X42500Y224700I240J-320D01*
G01Y222900D01*
G02X41860Y222580I-400J0D01*
G03Y220020I-960J-1280D01*
G02X42500Y219700I240J-320D01*
G01Y207900D01*
G02X41860Y207580I-400J0D01*
G03Y205020I-960J-1280D01*
G02X42500Y204700I240J-320D01*
G01Y202900D01*
G02X41860Y202580I-400J0D01*
G03Y200020I-960J-1280D01*
G02X42500Y199700I240J-320D01*
G01Y187900D01*
G02X41860Y187580I-400J0D01*
G03Y185020I-960J-1280D01*
G02X42500Y184700I240J-320D01*
G01Y182900D01*
G02X41860Y182580I-400J0D01*
G03Y180020I-960J-1280D01*
G02X42500Y179700I240J-320D01*
G01Y167900D01*
G02X41860Y167580I-400J0D01*
G03Y165020I-960J-1280D01*
G02X42500Y164700I240J-320D01*
G01Y162900D01*
G02X41860Y162580I-400J0D01*
G03Y160020I-960J-1280D01*
G02X42500Y159700I240J-320D01*
G01Y147900D01*
G02X41860Y147580I-400J0D01*
G03Y145020I-960J-1280D01*
G02X42500Y144700I240J-320D01*
G01Y142900D01*
G02X41860Y142580I-400J0D01*
G03Y140020I-960J-1280D01*
G02X42500Y139700I240J-320D01*
G01Y127900D01*
G02X41860Y127580I-400J0D01*
G03Y125020I-960J-1280D01*
G02X42500Y124700I240J-320D01*
G01Y122900D01*
G02X41860Y122580I-400J0D01*
G03Y120020I-960J-1280D01*
G02X42500Y119700I240J-320D01*
G01Y112900D01*
G02X41860Y112580I-400J0D01*
G03Y110020I-960J-1280D01*
G02X42500Y109700I240J-320D01*
G01Y107900D01*
G02X41860Y107580I-400J0D01*
G03Y105020I-960J-1280D01*
G02X42500Y104700I240J-320D01*
G01Y102900D01*
G02X41860Y102580I-400J0D01*
G03Y100020I-960J-1280D01*
G02X42500Y99700I240J-320D01*
G01Y97900D01*
G02X41860Y97580I-400J0D01*
G03Y95020I-960J-1280D01*
G02X42500Y94700I240J-320D01*
G01Y92900D01*
G02X41860Y92580I-400J0D01*
G03Y90020I-960J-1280D01*
G02X42500Y89700I240J-320D01*
G01Y87900D01*
G02X41860Y87580I-400J0D01*
G03Y85020I-960J-1280D01*
G02X42500Y84700I240J-320D01*
G01Y42500D01*
X62500Y22500D01*
X112002D01*
G02X112402Y22080I0J-400D01*
G03X115598I1598J-80D01*
G02X115998Y22500I399J20D01*
G01X117500D01*
Y32751D01*
G03Y35249I-1000J1249D01*
G01Y38211D01*
G02X118110Y38552I400J0D01*
G03X120535Y40730I891J1448D01*
G02X120916Y41302I361J172D01*
G03X119465Y42270I84J1698D01*
G02X119084Y41698I-361J-172D01*
G03X118110Y41448I-84J-1698D01*
G02X117500Y41789I-209J341D01*
G01Y46451D01*
G03Y48949I-1000J1249D01*
G01Y49591D01*
X117843D01*
X117890Y49455D01*
G03X118205Y51101I1611J545D01*
G02X117500Y51360I-305J259D01*
G01Y62161D01*
G03X117962Y62500I-700J1439D01*
G01X147500D01*
Y-5000D01*
X14697D01*
G37*
G36*
G01X63328Y24500D02*
X44500Y43328D01*
Y99568D01*
G02X45100Y99914I400J0D01*
G03Y102686I800J1386D01*
G02X44500Y103032I-200J346D01*
G01Y104568D01*
G02X45100Y104914I400J0D01*
G03Y107686I800J1386D01*
G02X44500Y108032I-200J346D01*
G01Y119568D01*
G02X45100Y119914I400J0D01*
G03Y122686I800J1386D01*
G02X44500Y123032I-200J346D01*
G01Y124568D01*
G02X45100Y124914I400J0D01*
G03Y127686I800J1386D01*
G02X44500Y128032I-200J346D01*
G01Y179568D01*
G02X45100Y179914I400J0D01*
G03Y182686I800J1386D01*
G02X44500Y183032I-200J346D01*
G01Y184568D01*
G02X45100Y184914I400J0D01*
G03Y187686I800J1386D01*
G02X44500Y188032I-200J346D01*
G01Y199568D01*
G02X45100Y199914I400J0D01*
G03Y202686I800J1386D01*
G02X44500Y203032I-200J346D01*
G01Y204568D01*
G02X45100Y204914I400J0D01*
G03Y207686I800J1386D01*
G02X44500Y208032I-200J346D01*
G01Y219568D01*
G02X45100Y219914I400J0D01*
G03Y222686I800J1386D01*
G02X44500Y223032I-200J346D01*
G01Y224568D01*
G02X45100Y224914I400J0D01*
G03Y227686I800J1386D01*
G02X44500Y228032I-200J346D01*
G01Y330500D01*
X162000D01*
Y360251D01*
G03Y362749I-1000J1249D01*
G01Y370351D01*
G03Y372849I-1000J1249D01*
G01Y377000D01*
X13267D01*
G03X7886Y382760I-13267J-7000D01*
G02X8097Y383500I210J340D01*
G01X461903D01*
G02X462114Y382760I0J-400D01*
G03X456733Y377000I7887J-12760D01*
G01X333000D01*
Y347986D01*
G03Y345214I800J-1386D01*
G01Y332500D01*
G02X332800Y332300I-200J0D01*
G03X332440Y332259I0J-1600D01*
G02X331951Y332630I-90J390D01*
G03X329927Y334095I-1598J-77D01*
G02X329421Y334489I-106J386D01*
G03X328247Y332979I-1600J32D01*
G02X328753Y332585I106J-386D01*
G03X330712Y330994I1600J-32D01*
G02X331202Y330623I90J-390D01*
G03X332800Y329100I1598J77D01*
G02X333000Y328900I0J-200D01*
G01Y327123D01*
G03Y324477I900J-1323D01*
G01Y323523D01*
G03Y320877I900J-1323D01*
G01Y317706D01*
X332833Y317678D01*
G03Y314522I267J-1578D01*
G01X333000Y314494D01*
Y275500D01*
X409581D01*
G03X409801Y275117I3920J2000D01*
G02X409465Y274500I-336J-217D01*
G01X331500D01*
Y243172D01*
X345672Y229000D01*
X384637D01*
G03X384816Y228575I4137J1500D01*
G02X384457Y228000I-360J-175D01*
G01X337328D01*
X332849Y232480D01*
X332834Y232509D01*
G03X332109Y233234I-1434J-709D01*
G01X332080Y233249D01*
X331726Y233603D01*
X331921Y233798D01*
X331996Y233803D01*
G03X330356Y235820I-96J1597D01*
G02X329687Y235642I-386J105D01*
G01X329571Y235758D01*
X329612Y235876D01*
G03X327576Y237912I-1512J524D01*
G01X327458Y237871D01*
X278328Y287000D01*
X254118D01*
G03X245882I-4118J-4500D01*
G01X148000D01*
Y245500D01*
X184300D01*
Y228709D01*
X184296Y228689D01*
G03Y228136I1373J-277D01*
G01X184300Y228117D01*
Y216898D01*
X184296Y216878D01*
G03Y216325I1373J-277D01*
G01X184300Y216306D01*
Y212961D01*
X184296Y212941D01*
G03Y212388I1373J-277D01*
G01X184300Y212369D01*
Y205000D01*
X183124D01*
X183085Y205149D01*
G03X180378I-1354J-358D01*
G01X180338Y205000D01*
X179188D01*
X179148Y205149D01*
G03X176441I-1354J-358D01*
G01X176402Y205000D01*
X171314D01*
X171274Y205149D01*
G03X168567I-1354J-358D01*
G01X168528Y205000D01*
X167377D01*
X167337Y205149D01*
G03X164630I-1354J-358D01*
G01X164590Y205000D01*
X163440D01*
X163400Y205149D01*
G03X160693I-1354J-358D01*
G01X160654Y205000D01*
X155565D01*
X155526Y205149D01*
G03X153846Y203429I-1354J-358D01*
G01X154000Y203392D01*
Y202252D01*
X153846Y202215D01*
G03Y199492I326J-1362D01*
G01X154000Y199455D01*
Y194378D01*
X153846Y194341D01*
G03Y191618I326J-1362D01*
G01X154000Y191581D01*
Y191095D01*
G02X153317Y190812I-400J0D01*
G01X151574Y192554D01*
X151599Y192663D01*
G03X149277Y194000I-1364J317D01*
G01X147257D01*
G03X145393Y194048I-958J-1021D01*
G01X145337Y194000D01*
X145000D01*
Y199293D01*
G02X145600Y199640I400J0D01*
G03Y202067I699J1214D01*
G02X145000Y202414I-200J347D01*
G01Y207168D01*
G02X145600Y207514I400J0D01*
G03Y209941I699J1213D01*
G02X145000Y210288I-200J347D01*
G01Y215042D01*
G02X145600Y215388I400J0D01*
G03Y217815I699J1214D01*
G02X145000Y218162I-200J347D01*
G01Y218978D01*
G02X145600Y219325I400J0D01*
G03Y221752I699J1213D01*
G02X145000Y222099I-200J347D01*
G01Y222916D01*
G02X145600Y223262I400J0D01*
G03Y225689I699J1213D01*
G02X145000Y226036I-200J347D01*
G01Y226853D01*
G02X145600Y227199I400J0D01*
G03Y229626I699J1214D01*
G02X145000Y229973I-200J347D01*
G01Y329500D01*
X98896D01*
G03X96704I-1096J-1300D01*
G01X94396D01*
G03X92204I-1096J-1300D01*
G01X80500D01*
Y262079D01*
X80355Y262037D01*
G03X80079Y261929I445J-1537D01*
G02X79499Y262288I-180J357D01*
G01X79768Y329500D01*
X48000D01*
Y153700D01*
X98704D01*
X98740Y153544D01*
G03X99525Y152500I1560J356D01*
G02Y151800I-194J-350D01*
G03X101075I775J-1400D01*
G02Y152500I194J350D01*
G03X101860Y153544I-775J1400D01*
G01X101896Y153700D01*
X106905D01*
G02X107188Y153017I0J-400D01*
G01X100797Y146625D01*
X100687Y146653D01*
G03X98747Y144713I-387J-1553D01*
G01X98775Y144603D01*
X58000Y103829D01*
Y35500D01*
X84500D01*
Y95172D01*
X84817Y95488D01*
G02X85500Y95205I283J-283D01*
G01Y24500D01*
X63328D01*
G37*
G36*
G01X52890Y155700D02*
G02X52492Y156140I0J400D01*
G03X50500Y157849I-1592J160D01*
G02X50000Y158237I-100J387D01*
G01Y159363D01*
G02X50500Y159751I400J0D01*
G03Y162849I400J1549D01*
G02X50000Y163237I-100J387D01*
G01Y164363D01*
G02X50500Y164751I400J0D01*
G03Y167849I400J1549D01*
G02X50000Y168237I-100J387D01*
G01Y169363D01*
G02X50500Y169751I400J0D01*
G03Y172849I400J1549D01*
G02X50000Y173237I-100J387D01*
G01Y174363D01*
G02X50500Y174751I400J0D01*
G03Y177849I400J1549D01*
G02X50000Y178237I-100J387D01*
G01Y179363D01*
G02X50500Y179751I400J0D01*
G03Y182849I400J1549D01*
G02X50000Y183237I-100J387D01*
G01Y184363D01*
G02X50500Y184751I400J0D01*
G03Y187849I400J1549D01*
G02X50000Y188237I-100J387D01*
G01Y189363D01*
G02X50500Y189751I400J0D01*
G03Y192849I400J1549D01*
G02X50000Y193237I-100J387D01*
G01Y194363D01*
G02X50500Y194751I400J0D01*
G03Y197849I400J1549D01*
G02X50000Y198237I-100J387D01*
G01Y199363D01*
G02X50500Y199751I400J0D01*
G03Y202849I400J1549D01*
G02X50000Y203237I-100J387D01*
G01Y204363D01*
G02X50500Y204751I400J0D01*
G03Y207849I400J1549D01*
G02X50000Y208237I-100J387D01*
G01Y209363D01*
G02X50500Y209751I400J0D01*
G03Y212849I400J1549D01*
G02X50000Y213237I-100J387D01*
G01Y214363D01*
G02X50500Y214751I400J0D01*
G03Y217849I400J1549D01*
G02X50000Y218237I-100J387D01*
G01Y219363D01*
G02X50500Y219751I400J0D01*
G03Y222849I400J1549D01*
G02X50000Y223237I-100J387D01*
G01Y224363D01*
G02X50500Y224751I400J0D01*
G03Y227849I400J1549D01*
G02X50000Y228237I-100J387D01*
G01Y229363D01*
G02X50500Y229751I400J0D01*
G03Y232849I400J1549D01*
G02X50000Y233237I-100J387D01*
G01Y234363D01*
G02X50500Y234751I400J0D01*
G03Y237849I400J1549D01*
G02X50000Y238237I-100J387D01*
G01Y239363D01*
G02X50500Y239751I400J0D01*
G03Y242849I400J1549D01*
G02X50000Y243237I-100J387D01*
G01Y244363D01*
G02X50500Y244751I400J0D01*
G03Y247849I400J1549D01*
G02X50000Y248237I-100J387D01*
G01Y249363D01*
G02X50500Y249751I400J0D01*
G03Y252849I400J1549D01*
G02X50000Y253237I-100J387D01*
G01Y254363D01*
G02X50500Y254751I400J0D01*
G03Y257849I400J1549D01*
G02X50000Y258237I-100J387D01*
G01Y259363D01*
G02X50500Y259751I400J0D01*
G03Y262849I400J1549D01*
G02X50000Y263237I-100J387D01*
G01Y264363D01*
G02X50500Y264751I400J0D01*
G03Y267849I400J1549D01*
G02X50000Y268237I-100J387D01*
G01Y269363D01*
G02X50500Y269751I400J0D01*
G03Y272849I400J1549D01*
G02X50000Y273237I-100J387D01*
G01Y274363D01*
G02X50500Y274751I400J0D01*
G03Y277849I400J1549D01*
G02X50000Y278237I-100J387D01*
G01Y279363D01*
G02X50500Y279751I400J0D01*
G03Y282849I400J1549D01*
G02X50000Y283237I-100J387D01*
G01Y291829D01*
G02X50620Y292164I400J0D01*
G03Y294836I880J1336D01*
G02X50000Y295171I-220J334D01*
G01Y308329D01*
G02X50620Y308664I400J0D01*
G03Y311336I880J1336D01*
G02X50000Y311671I-220J334D01*
G01Y327500D01*
X77760D01*
X77459Y252345D01*
G02X76968Y251957I-400J2D01*
G03X76955Y248840I-368J-1557D01*
G02X77444Y248448I89J-390D01*
G01X77424Y243472D01*
G02X76959Y243079I-400J2D01*
G03X75559Y240378I-259J-1579D01*
G02X75539Y239798I-285J-280D01*
G03X76917Y237032I1061J-1198D01*
G02X77396Y236638I79J-392D01*
G01X77390Y234884D01*
X77302Y234825D01*
G03X77292Y232183I898J-1325D01*
G01X77378Y232123D01*
X77220Y192501D01*
X77221Y192500D01*
X77500D01*
Y173600D01*
X100225D01*
G03X101775I775J1400D01*
G01X114700D01*
X120300Y168000D01*
X134144D01*
X134166Y167995D01*
G03X134809I321J1363D01*
G01X134831Y168000D01*
X138080D01*
X138103Y167995D01*
G03X138746I321J1363D01*
G01X138768Y168000D01*
X142018D01*
X142040Y167995D01*
G03X142683I321J1363D01*
G01X142705Y168000D01*
X145954D01*
X145977Y167995D01*
G03X146620I321J1363D01*
G01X146642Y168000D01*
X149892D01*
X149914Y167995D01*
G03X150557I321J1363D01*
G01X150579Y168000D01*
X151000D01*
Y165500D01*
X150000Y164500D01*
X149086D01*
X147586Y163000D01*
X139000D01*
X138829Y162829D01*
X138722Y162852D01*
G03X137056Y161186I-297J-1368D01*
G01X137079Y161079D01*
X134892Y158892D01*
X134785Y158915D01*
G03X133119Y157249I-297J-1368D01*
G01X133142Y157142D01*
X131700Y155700D01*
X52890D01*
G37*
G36*
G01X60000Y37500D02*
Y103000D01*
X65142Y108142D01*
X65271Y108075D01*
G03X67425Y110229I729J1425D01*
G01X67358Y110358D01*
X100513Y143513D01*
X100575Y143524D01*
G03X101876Y144825I-275J1576D01*
G01X101887Y144887D01*
X109000Y152000D01*
X130000D01*
X134177Y156177D01*
X134277Y156162D01*
G03X135872Y157757I210J1384D01*
G01X135857Y157857D01*
X138000Y160000D01*
X147000D01*
X148233Y161233D01*
G02X148898Y161069I283J-283D01*
G03X150650Y162821I1337J415D01*
G02X150486Y163486I119J382D01*
G01X152170Y165170D01*
G02X152835Y165006I283J-283D01*
G03X152907Y164820I1337J415D01*
G02X152548Y164249I-361J-172D01*
G03X152451Y162253I4J-1000D01*
G02X152802Y161773I-40J-398D01*
G03X154001Y162873I1370J-289D01*
G02X153552Y163264I-49J397D01*
G03X153511Y163529I-1000J-16D01*
G02X153957Y164037I384J112D01*
G03X154587Y166758I216J1384D01*
G02X154423Y167423I119J382D01*
G01X156000Y169000D01*
Y203000D01*
X199000D01*
Y193000D01*
X198000Y192000D01*
X195247D01*
G02X194868Y192529I0J400D01*
G03X192217I-1326J451D01*
G02X191838Y192000I-379J-129D01*
G01X191310D01*
G02X190931Y192529I0J400D01*
G03X188280I-1326J451D01*
G02X187901Y192000I-379J-129D01*
G01X187373D01*
G02X186994Y192529I0J400D01*
G03X184343I-1326J451D01*
G02X183964Y192000I-379J-129D01*
G01X179499D01*
G02X179120Y192529I0J400D01*
G03X176469I-1326J451D01*
G02X176090Y192000I-379J-129D01*
G01X175562D01*
G02X175183Y192529I0J400D01*
G03X172532I-1326J451D01*
G02X172153Y192000I-379J-129D01*
G01X172000D01*
X171800Y192000D01*
Y171500D01*
X172000D01*
X196500Y171500D01*
X199000Y169000D01*
Y163000D01*
X164500D01*
X159919Y158232D01*
G02X159293Y158295I-288J277D01*
G03X157409Y156334I-1183J-749D01*
G02X157497Y155711I-200J-346D01*
G01X156041Y154195D01*
G02X155401Y154281I-288J277D01*
G03X153551Y152355I-1229J-671D01*
G02X153662Y151719I-178J-358D01*
G01X152745Y150765D01*
X151111D01*
G03X148851Y149465I-876J-1092D01*
G01X148866Y149366D01*
X146605Y147105D01*
X146506Y147120D01*
G03X144914Y145528I-207J-1385D01*
G01X144929Y145428D01*
X142668Y143168D01*
X142569Y143183D01*
G03X140977Y141591I-207J-1385D01*
G01X140992Y141492D01*
X137000Y137500D01*
X136287D01*
G02X135887Y137891I0J400D01*
G03X133088I-1400J-30D01*
G02X132688Y137500I-400J9D01*
G01X124000D01*
X92162Y105662D01*
X92061Y105679D01*
G03X90221Y103839I-261J-1579D01*
G01X90238Y103738D01*
X82500Y96000D01*
Y93078D01*
G02X82040Y92682I-400J0D01*
G03Y89518I-240J-1582D01*
G02X82500Y89122I60J-395D01*
G01Y89078D01*
G02X82040Y88682I-400J0D01*
G03Y85518I-240J-1582D01*
G02X82500Y85122I60J-395D01*
G01Y37500D01*
X60000D01*
G37*
G36*
G01X121700Y171000D02*
X116200Y176500D01*
X101558D01*
X101526Y176511D01*
G03X100474I-526J-1511D01*
G01X100442Y176500D01*
X82500D01*
Y201910D01*
G02X82940Y202308I400J0D01*
G03Y205492I160J1592D01*
G02X82500Y205890I-40J398D01*
G01Y217203D01*
G02X82689Y217402I200J0D01*
G03Y220598I-89J1598D01*
G02X82500Y220797I11J200D01*
G01Y225502D01*
G02X82920Y225902I400J0D01*
G03X84330Y228390I80J1598D01*
G02X84386Y228667I166J111D01*
G03X83020Y231526I-886J1333D01*
G02X82500Y231908I-120J382D01*
G01Y242763D01*
G02X83000Y243151I400J0D01*
G03Y246249I400J1549D01*
G02X82500Y246637I-100J387D01*
G01Y277890D01*
X82678Y277910D01*
G03Y281090I-178J1590D01*
G01X82500Y281110D01*
Y291890D01*
X82678Y291910D01*
G03Y295090I-178J1590D01*
G01X82500Y295110D01*
Y327500D01*
X143000D01*
Y251610D01*
X142822Y251590D01*
G03Y248410I178J-1590D01*
G01X143000Y248390D01*
Y226260D01*
G02X142547Y225863I-400J0D01*
G03Y223088I-186J-1388D01*
G02X143000Y222691I53J-396D01*
G01Y222323D01*
G02X142547Y221926I-400J0D01*
G03Y219151I-186J-1388D01*
G02X143000Y218754I53J-396D01*
G01Y218386D01*
G02X142547Y217989I-400J0D01*
G03Y215214I-186J-1388D01*
G02X143000Y214817I53J-396D01*
G01Y214449D01*
G02X142547Y214052I-400J0D01*
G03Y211277I-186J-1388D01*
G02X143000Y210880I53J-396D01*
G01Y210512D01*
G02X142547Y210115I-400J0D01*
G03Y207340I-186J-1388D01*
G02X143000Y206943I53J-396D01*
G01Y206575D01*
G02X142547Y206178I-400J0D01*
G03Y203403I-186J-1388D01*
G02X143000Y203006I53J-396D01*
G01Y202638D01*
G02X142547Y202241I-400J0D01*
G03Y199466I-186J-1388D01*
G02X143000Y199069I53J-396D01*
G01Y198701D01*
G02X142547Y198304I-400J0D01*
G03Y195529I-186J-1388D01*
G02X143000Y195132I53J-396D01*
G01Y194764D01*
G02X142547Y194367I-400J0D01*
G03X143362Y192000I-186J-1388D01*
G01X145298D01*
G03X147299I1001J980D01*
G01X149235D01*
G03X149530Y191770I1001J980D01*
G01X152963Y188337D01*
G03X153467Y187833I1210J705D01*
G01X155000Y186300D01*
Y182917D01*
G02X154505Y182529I-400J0D01*
G03Y179808I-332J-1360D01*
G02X155000Y179420I95J-389D01*
G01Y178980D01*
G02X154505Y178592I-400J0D01*
G03Y175871I-332J-1360D01*
G02X155000Y175483I95J-389D01*
G01Y172900D01*
X153100Y171000D01*
X121700D01*
G37*
G36*
G01X91498Y25000D02*
G02X91098Y25420I0J400D01*
G03X88220Y26460I-1598J80D01*
G02X87500Y26700I-320J240D01*
G01Y46329D01*
G02X88120Y46664I400J0D01*
G03Y49336I880J1336D01*
G02X87500Y49671I-220J334D01*
G01Y67974D01*
X87622Y68026D01*
G03Y70974I-622J1474D01*
G01X87500Y71026D01*
Y97000D01*
X123000Y132500D01*
X134000D01*
X134080Y132580D01*
X134187Y132557D01*
G03X135855Y134225I300J1368D01*
G01X135832Y134332D01*
X141954Y140454D01*
X142061Y140431D01*
G03X143729Y142099I300J1368D01*
G01X143706Y142206D01*
X145891Y144391D01*
X145998Y144368D01*
G03X147666Y146036I300J1368D01*
G01X147643Y146143D01*
X149828Y148328D01*
X149935Y148305D01*
G03X151001Y148500I300J1368D01*
G01X152500D01*
X156587Y152587D01*
G02X157145Y152594I283J-283D01*
G03X159125Y154574I964J1015D01*
G02X159132Y155132I290J275D01*
G01X164500Y160500D01*
X164987D01*
G03X166980I997J984D01*
G01X168924D01*
G03X170917I997J984D01*
G01X172861D01*
G03X174854I997J984D01*
G01X176798D01*
G03X178791I997J984D01*
G01X180735D01*
G03X182728I997J984D01*
G01X188609D01*
G03X190602I997J984D01*
G01X192546D01*
G03X194539I997J984D01*
G01X196483D01*
G03X198476I997J984D01*
G01X200420D01*
G03X202413I997J984D01*
G01X203000D01*
X211335Y168835D01*
G02X211975Y168731I283J-283D01*
G03X213854Y170610I1252J626D01*
G02X213750Y171250I179J358D01*
G01X216500Y174000D01*
X225500D01*
X228322Y171178D01*
G02X228247Y170553I-283J-283D01*
G03X230172Y168629I728J-1196D01*
G02X230796Y168704I342J-208D01*
G01X234500Y165000D01*
Y162837D01*
G02X233836Y162536I-400J0D01*
G03Y160431I-924J-1052D01*
G02X234500Y160130I264J-301D01*
G01Y158900D01*
G02X233836Y158599I-400J0D01*
G03Y156494I-924J-1052D01*
G02X234500Y156193I264J-301D01*
G01Y151800D01*
X171800D01*
X170779Y150779D01*
G03X168814Y148814I-858J-1106D01*
G01X166842Y146842D01*
G03X164877Y144877I-858J-1106D01*
G01X162905Y142905D01*
G03X160940Y140940I-858J-1106D01*
G01X160000Y140000D01*
Y132300D01*
X135000Y107300D01*
Y104500D01*
X117310Y86810D01*
G02X116721Y86834I-283J283D01*
G03X114878Y84326I-1221J-1034D01*
G01X115000Y84274D01*
Y83326D01*
X114878Y83274D01*
G03Y80326I622J-1474D01*
G01X115000Y80274D01*
Y79326D01*
X114878Y79274D01*
G03Y76326I622J-1474D01*
G01X115000Y76274D01*
Y75326D01*
X114878Y75274D01*
G03Y72326I622J-1474D01*
G01X115000Y72274D01*
Y48258D01*
X114989Y48226D01*
G03Y47174I1511J-526D01*
G01X115000Y47142D01*
Y34558D01*
X114989Y34526D01*
G03Y33474I1511J-526D01*
G01X115000Y33442D01*
Y25000D01*
X91498D01*
G37*
G36*
G01X149500Y4946D02*
Y64500D01*
X118123D01*
G03X117156Y65160I-1323J-900D01*
G01X117000Y65196D01*
Y83672D01*
X137000Y103671D01*
Y106471D01*
X161317Y130788D01*
G02X162000Y130505I283J-283D01*
G01Y125500D01*
X223574D01*
X223626Y125378D01*
G03X226574I1474J622D01*
G01X226626Y125500D01*
X256672D01*
X291560Y90611D01*
G02X291506Y90001I-283J-283D01*
G03X289214Y86933I3494J-5001D01*
G02X288552Y86777I-379J127D01*
G01X280828Y94500D01*
X161672D01*
X151000Y83828D01*
Y50500D01*
X161172D01*
X173488Y38183D01*
G02X173205Y37500I-283J-283D01*
G01X155500D01*
Y8782D01*
X155322Y8762D01*
G03X150276Y4808I678J-6062D01*
G02X149500Y4946I-375J138D01*
G37*
G36*
G01X294000Y10000D02*
Y13996D01*
G03Y16404I-1200J1204D01*
G01Y20196D01*
G03Y22604I-1200J1204D01*
G01Y24000D01*
X286500Y31500D01*
X274671D01*
G02X274336Y32120I0J400D01*
G03X271664I-1336J880D01*
G02X271329Y31500I-334J-220D01*
G01X259671D01*
G02X259336Y32120I0J400D01*
G03X256664I-1336J880D01*
G02X256329Y31500I-334J-220D01*
G01X244671D01*
G02X244336Y32120I0J400D01*
G03X241664I-1336J880D01*
G02X241329Y31500I-334J-220D01*
G01X214957D01*
G02X214567Y31988I0J400D01*
G03X211641I-1463J331D01*
G02X211250Y31500I-390J-88D01*
G01X208723D01*
G03X208677I-23J-1500D01*
G01X205500D01*
Y38868D01*
G02X205685Y39068I200J0D01*
G03Y42060I-111J1496D01*
G02X205500Y42259I15J199D01*
G01Y49500D01*
X191000D01*
Y37500D01*
X177000D01*
X162000Y52500D01*
X153000D01*
Y83000D01*
X162500Y92500D01*
X241677D01*
G02X241941Y91800I0J-400D01*
G03X242892Y89004I1059J-1200D01*
G02X243252Y88504I-27J-399D01*
G03X244908Y89696I1548J-404D01*
G02X244548Y90196I27J399D01*
G03X244059Y91800I-1548J403D01*
G02X244323Y92500I265J300D01*
G01X279163D01*
G03X283663Y88792I5837J2500D01*
G01X283720Y88780D01*
X298780Y73720D01*
X298792Y73663D01*
G03X303663Y68792I6208J1337D01*
G01X303720Y68780D01*
X327500Y45000D01*
X328092D01*
G02X328474Y44480I0J-400D01*
G03X331526I1526J-480D01*
G02X331908Y45000I382J120D01*
G01X349000D01*
Y60500D01*
X357000D01*
X369000Y48500D01*
Y27381D01*
G02X368818Y27182I-200J0D01*
G03X367800Y24976I123J-1395D01*
G03X368818Y22771I1141J-811D01*
G02X369000Y22571I-18J-199D01*
G01Y20131D01*
X368874Y20081D01*
G03Y16919I626J-1581D01*
G01X369000Y16869D01*
Y10000D01*
X294000D01*
G37*
G36*
G01X318600Y195000D02*
X296346Y217254D01*
X296348Y217340D01*
G03X289840Y223848I-6348J160D01*
G01X289754Y223846D01*
X266100Y247500D01*
X150000D01*
Y285000D01*
X236667D01*
G03X238533I933J1300D01*
G01X244808D01*
G02X245179Y284450I0J-400D01*
G03X254821I4821J-1950D01*
G02X255192Y285000I371J150D01*
G01X277500D01*
X282081Y280419D01*
G02X281898Y279749I-283J-283D01*
G03X283849Y277798I401J-1549D01*
G02X284519Y277981I387J-100D01*
G01X289658Y272842D01*
X289655Y272754D01*
G03X296254Y266155I6345J-254D01*
G01X296342Y266158D01*
X326570Y235930D01*
X326584Y235886D01*
G03X327586Y234884I1516J514D01*
G01X327630Y234870D01*
X329970Y232530D01*
X329919Y232407D01*
G03X332007Y230319I1481J-607D01*
G01X332130Y230370D01*
X333662Y228838D01*
G02X333463Y228164I-283J-283D01*
G03X335364Y226263I337J-1564D01*
G02X336038Y226462I391J-84D01*
G01X336500Y226000D01*
X419000D01*
X425000Y220000D01*
Y195000D01*
X322778D01*
G02X322382Y195460I0J400D01*
G03X319218I-1582J240D01*
G02X318822Y195000I-395J-60D01*
G01X318600D01*
G37*
G36*
G01X161200Y2700D02*
G03X157500Y7679I-5200J0D01*
G01Y35500D01*
X176171D01*
X176172Y35500D01*
X182885D01*
G02X183279Y35032I0J-400D01*
G03X186236I1479J-254D01*
G02X186630Y35500I394J68D01*
G01X189184D01*
G02X189578Y35032I0J-400D01*
G03X192535I1479J-254D01*
G02X192930Y35500I394J68D01*
G01X193000D01*
X193500Y35500D01*
Y39152D01*
X193615Y39206D01*
G03Y41921I-638J1358D01*
G01X193500Y41975D01*
Y45500D01*
X203000D01*
Y36128D01*
G03Y33429I655J-1350D01*
G01Y30000D01*
X203500Y29500D01*
X205345Y27655D01*
X205360Y27626D01*
G03X207969Y27500I1340J674D01*
G01X213210D01*
G02X213591Y26981I0J-400D01*
G03X216456I1432J-447D01*
G02X216838Y27500I382J119D01*
G01X217054D01*
X217113Y27441D01*
G03X219234I1061J1061D01*
G01X219292Y27500D01*
X219509D01*
G02X219891Y26981I0J-400D01*
G03X222755I1432J-447D01*
G02X223137Y27500I382J119D01*
G01X223353D01*
X223412Y27441D01*
G03X225533I1061J1061D01*
G01X225592Y27500D01*
X225808D01*
G02X226190Y26981I0J-400D01*
G03X229054I1432J-447D01*
G02X229436Y27500I382J119D01*
G01X285000D01*
X290000Y22500D01*
Y2500D01*
X283408D01*
G02X283026Y3020I0J400D01*
G03X279974I-1526J480D01*
G02X279592Y2500I-382J-120D01*
G01X268408D01*
G02X268026Y3020I0J400D01*
G03X264974I-1526J480D01*
G02X264592Y2500I-382J-120D01*
G01X253408D01*
G02X253026Y3020I0J400D01*
G03X249974I-1526J480D01*
G02X249592Y2500I-382J-120D01*
G01X238408D01*
G02X238026Y3020I0J400D01*
G03X234974I-1526J480D01*
G02X234592Y2500I-382J-120D01*
G01X161400D01*
G02X161200Y2700I0J200D01*
G37*
G36*
G01X336000Y49000D02*
X311231Y73769D01*
X311249Y73872D01*
G03X303872Y81249I-6249J1128D01*
G01X303769Y81231D01*
X300197Y84803D01*
X300199Y84888D01*
G03X294888Y90199I-5199J112D01*
G01X294803Y90197D01*
X293639Y91361D01*
X293750Y91501D01*
G03X291874Y93973I-1250J999D01*
G02X291320Y94380I-156J368D01*
G03X283872Y101249I-6320J620D01*
G01X283769Y101231D01*
X277782Y107218D01*
G02X278052Y107901I283J283D01*
G03X276401Y109552I-52J1599D01*
G02X275718Y109282I-400J13D01*
G01X261272Y123728D01*
G02X261268Y124006I141J141D01*
G03X259006Y126268I-1168J1094D01*
G01X258865Y126135D01*
X257500Y127500D01*
X225658D01*
X225626Y127511D01*
G03X224574I-526J-1511D01*
G01X224542Y127500D01*
X166558D01*
X166526Y127511D01*
G03X165474I-526J-1511D01*
G01X165442Y127500D01*
X164000D01*
Y141000D01*
X166000Y143000D01*
X168500D01*
X169835Y144335D01*
X169918Y144335D01*
G03X171321Y145738I2J1400D01*
G01X171321Y145821D01*
X173772Y148272D01*
X173855Y148272D01*
G03X175258Y149674I2J1400D01*
G01X175258Y149758D01*
X176000Y150500D01*
X179983D01*
G02X180371Y150005I0J-400D01*
G03X183092I1360J-333D01*
G02X183480Y150500I389J95D01*
G01X187857D01*
G02X188245Y150005I0J-400D01*
G03X190966I1360J-333D01*
G02X191354Y150500I389J95D01*
G01X191794D01*
G02X192182Y150005I0J-400D01*
G03X194903I1360J-333D01*
G02X195291Y150500I389J95D01*
G01X195731D01*
G02X196119Y150005I0J-400D01*
G03X198840I1360J-333D01*
G02X199228Y150500I389J95D01*
G01X203605D01*
G02X203993Y150005I0J-400D01*
G03X205924Y148394I1360J-333D01*
G01X206050Y148450D01*
X206300Y148200D01*
X256614D01*
G03X259386I1386J800D01*
G01X271614D01*
G03X274386I1386J800D01*
G01X278910D01*
G03X283663Y143792I6090J1800D01*
G01X283720Y143780D01*
X298780Y128720D01*
X298792Y128663D01*
G03X303663Y123792I6208J1337D01*
G01X303720Y123780D01*
X345000Y82500D01*
Y49000D01*
X336000D01*
G37*
G36*
G01X342500Y102500D02*
X282018Y162982D01*
X282048Y163093D01*
G03X280093Y165048I-1547J407D01*
G01X279982Y165018D01*
X270000Y175000D01*
X213000D01*
X212476Y174476D01*
X212459Y174465D01*
G03X212046Y174046I769J-1170D01*
G01X211343Y173343D01*
G02X210667Y173552I-283J283D01*
G03X207924Y172988I-1376J-258D01*
G02X207534Y172500I-390J-88D01*
G01X207110D01*
G02X206720Y172988I0J400D01*
G03X203987I-1366J307D01*
G02X203597Y172500I-390J-88D01*
G01X203173D01*
G02X202783Y172988I0J400D01*
G03X200050I-1366J307D01*
G02X199660Y172500I-390J-88D01*
G01X195299D01*
G02X194909Y172988I0J400D01*
G03X192176I-1366J307D01*
G02X191786Y172500I-390J-88D01*
G01X187425D01*
G02X187035Y172988I0J400D01*
G03X184302I-1366J307D01*
G02X183912Y172500I-390J-88D01*
G01X179551D01*
G02X179161Y172988I0J400D01*
G03X176428I-1366J307D01*
G02X176038Y172500I-390J-88D01*
G01X173000D01*
Y175490D01*
G02X173502Y175877I400J0D01*
G03Y178586I356J1354D01*
G02X173000Y178973I-102J387D01*
G01Y183364D01*
G02X173502Y183751I400J0D01*
G03Y186460I356J1354D01*
G02X173000Y186847I-102J387D01*
G01Y191000D01*
X200000D01*
X200744Y191744D01*
X200868Y191691D01*
G03X202705Y193528I548J1288D01*
G01X202652Y193652D01*
X204681Y195681D01*
X204805Y195628D01*
G03X206642Y197465I548J1288D01*
G01X206589Y197589D01*
X209000Y200000D01*
X216055D01*
G03X218275I1110J854D01*
G01X252740D01*
G02X253132Y199520I0J-400D01*
G03X256268I1568J-320D01*
G02X256660Y200000I392J80D01*
G01X290000D01*
X295186Y194814D01*
G02X295117Y194193I-283J-283D01*
G03X302293Y187017I2783J-4393D01*
G02X302914Y187086I338J-214D01*
G01X331865Y158135D01*
X331732Y157994D01*
G03X333994Y155732I1168J-1094D01*
G01X334135Y155865D01*
X335781Y154219D01*
G02X335598Y153549I-283J-283D01*
G03X337549Y151598I401J-1549D01*
G02X338219Y151781I387J-100D01*
G01X352500Y137500D01*
X382500D01*
Y102500D01*
X363480D01*
G02X363103Y103033I0J400D01*
G03X359897I-1603J567D01*
G02X359520Y102500I-377J-133D01*
G01X342500D01*
G37*
G36*
G01X186300Y204000D02*
Y211415D01*
G03Y213914I-632J1250D01*
G01Y215352D01*
G03Y217851I-632J1250D01*
G01Y227163D01*
G03Y229662I-632J1250D01*
G01Y245000D01*
X255000D01*
Y216900D01*
G02X254800Y216700I-200J0D01*
G03Y213500I0J-1600D01*
G02X255000Y213300I0J-200D01*
G01Y213100D01*
G02X254800Y212900I-200J0D01*
G03X253371Y210580I0J-1600D01*
G02X253014Y210000I-357J-180D01*
G01X201300D01*
X197493Y206193D01*
X197415Y206189D01*
G03X196081Y204855I64J-1399D01*
G01X196077Y204777D01*
X195300Y204000D01*
X186300D01*
G37*
G36*
G01X206210Y166539D02*
X206076Y166620D01*
G03X204241Y164570I-723J-1199D01*
G01X202267Y162596D01*
G03X201404Y162884I-850J-1112D01*
G02X201000Y163284I-4J400D01*
G01Y163620D01*
G02X201404Y164020I400J0D01*
G03Y166821I13J1400D01*
G02X201000Y167221I-4J400D01*
G01Y167557D01*
G02X201404Y167957I400J0D01*
G03X202692Y169935I13J1400D01*
G02X203057Y170500I364J165D01*
G01X207651D01*
G02X208015Y169935I0J-400D01*
G03X208091Y168635I1276J-577D01*
G01X208172Y168501D01*
X206210Y166539D01*
G37*
G36*
G01X428000Y189500D02*
X389172D01*
X360500Y160829D01*
Y141672D01*
X361988Y140183D01*
G02X361705Y139500I-283J-283D01*
G01X353328D01*
X333814Y159015D01*
G02X333858Y159618I283J283D01*
G03X331618Y161858I-958J1282D01*
G02X331015Y161814I-320J239D01*
G01X303934Y188895D01*
X303947Y188993D01*
G03X297093Y195847I-6047J807D01*
G01X296995Y195834D01*
X290828Y202000D01*
X208172D01*
X201683Y195512D01*
G02X201000Y195795I-283J283D01*
G01Y205000D01*
X200095D01*
G02X199812Y205683I0J400D01*
G01X202129Y208000D01*
X257000D01*
Y245500D01*
X265272D01*
X317772Y193000D01*
X427000D01*
Y219205D01*
G02X427683Y219488I400J0D01*
G01X428000Y219172D01*
Y189500D01*
G37*
G36*
G01X289214Y141933D02*
G02X288552Y141777I-379J127D01*
G01X280128Y150200D01*
X236500D01*
Y165828D01*
X230012Y172317D01*
G02X230295Y173000I283J283D01*
G01X231536D01*
X231581Y172862D01*
G03X234244I1332J433D01*
G01X234289Y173000D01*
X269172D01*
X270394Y171777D01*
G02X270143Y171095I-283J-283D01*
G03X271863Y169375I125J-1595D01*
G02X272545Y169627I399J-31D01*
G01X295389Y146782D01*
G02X295100Y146099I-283J-283D01*
G03X289214Y141933I-100J-6099D01*
G37*
G36*
G01X296933Y79214D02*
G03X300001Y81506I-1933J5786D01*
G02X300611Y81560I328J-229D01*
G01X334488Y47683D01*
G02X334205Y47000I-283J-283D01*
G01X328328D01*
X296777Y78552D01*
G02X296933Y79214I283J283D01*
G37*
G36*
G01Y134214D02*
G03X301099Y140100I-1933J5786D01*
G02X301782Y140389I400J7D01*
G01X325323Y116848D01*
G02X325167Y116186I-283J-283D01*
G03X321001Y110300I1933J-5786D01*
G02X320318Y110011I-400J-7D01*
G01X296777Y133552D01*
G02X296933Y134214I283J283D01*
G37*
G36*
G01X380000Y-5000D02*
Y47500D01*
X352500Y75000D01*
Y92500D01*
X354575Y94575D01*
G02X355208Y94484I283J-283D01*
G03X358340Y94853I1492J816D01*
G01X358380Y95000D01*
X362200D01*
G03X363800I800J1500D01*
G01X390000D01*
Y97502D01*
G02X390420Y97902I400J0D01*
G03Y101098I80J1598D01*
G02X390000Y101498I-20J399D01*
G01Y140000D01*
X380200D01*
G02X379960Y140720I0J400D01*
G03X378040I-960J1280D01*
G02X377800Y140000I-240J-320D01*
G01X365000D01*
X362500Y142500D01*
Y160000D01*
X362705Y160205D01*
G02X363020Y160162I141J-141D01*
G03X365514Y162365I1479J838D01*
G02X365469Y162969I238J321D01*
G01X390000Y187500D01*
X391502D01*
G02X391902Y187080I0J-400D01*
G03X395098I1598J-80D01*
G02X395498Y187500I399J20D01*
G01X399798D01*
X399831Y187341D01*
G03X411769I5969J1259D01*
G01X411802Y187500D01*
X430000D01*
Y220000D01*
X428114Y221886D01*
G02X428118Y222455I283J283D01*
G03X425855Y224718I-1118J1145D01*
G02X425286Y224714I-286J279D01*
G01X419000Y231000D01*
X418263D01*
G02X417866Y231450I0J400D01*
G03X409134I-4366J550D01*
G02X408737Y231000I-397J-50D01*
G01X400908D01*
G02X400526Y231520I0J400D01*
G03X397474I-1526J480D01*
G02X397092Y231000I-382J-120D01*
G01X393148D01*
X393122Y231170D01*
G03X384424I-4349J-670D01*
G01X384398Y231000D01*
X383979D01*
X383937Y231144D01*
G03X380863I-1537J-444D01*
G01X380821Y231000D01*
X346500D01*
X337132Y240368D01*
G03X335001Y242750I-1132J1131D01*
G01X334861Y242639D01*
X333500Y244000D01*
Y272500D01*
X430000D01*
Y269042D01*
G02X429448Y268672I-400J0D01*
G03Y265528I-648J-1572D01*
G02X430000Y265158I152J-370D01*
G01Y260000D01*
X441368D01*
G02X441714Y259400I0J-400D01*
G03X444486I1386J-800D01*
G02X444832Y260000I346J200D01*
G01X450000D01*
Y269553D01*
G02X450590Y269905I400J0D01*
G03Y272895I809J1495D01*
G02X450000Y273247I-190J352D01*
G01Y275753D01*
G02X450590Y276105I400J0D01*
G03Y279095I809J1495D01*
G02X450000Y279447I-190J352D01*
G01Y282190D01*
X450179Y282209D01*
G03X450494Y282273I-179J1691D01*
G02X451008Y281930I116J-383D01*
G03X452206Y283727I1692J170D01*
G02X451692Y284070I-116J383D01*
G03X450179Y285591I-1692J-170D01*
G01X450000Y285610D01*
Y289268D01*
G02X450600Y289614I400J0D01*
G03X452649Y290000I800J1386D01*
G01X461684D01*
G02X462043Y289425I0J-400D01*
G03X469957I3957J-1925D01*
G02X470316Y290000I360J175D01*
G01X475000D01*
Y256672D01*
G02X474508Y256283I-400J0D01*
G03Y247717I-1008J-4283D01*
G02X475000Y247328I92J-389D01*
G01Y246672D01*
G02X474508Y246283I-400J0D01*
G03Y237717I-1008J-4283D01*
G02X475000Y237328I92J-389D01*
G01Y236672D01*
G02X474508Y236283I-400J0D01*
G03Y227717I-1008J-4283D01*
G02X475000Y227328I92J-389D01*
G01Y225610D01*
X474822Y225590D01*
G03Y222410I178J-1590D01*
G01X475000Y222390D01*
Y110498D01*
G02X474580Y110098I-400J0D01*
G03Y106902I-80J-1598D01*
G02X475000Y106502I20J-399D01*
G01Y103406D01*
G02X474532Y103012I-400J0D01*
G03Y90988I-1032J-6012D01*
G02X475000Y90594I68J-394D01*
G01Y89749D01*
G03Y87251I1000J-1249D01*
G01Y76972D01*
G02X474563Y76574I-400J0D01*
G03Y64426I-563J-6074D01*
G02X475000Y64028I37J-398D01*
G01Y14697D01*
G02X474481Y14315I-400J0D01*
G03X455685Y-4480I-4481J-14315D01*
G02X455303Y-5000I-382J-119D01*
G01X380000D01*
G37*
G36*
G01X435000Y262500D02*
Y275000D01*
X432500Y277500D01*
X417005D01*
X416995Y277689D01*
G03X410005I-3495J-189D01*
G01X409995Y277500D01*
X349300D01*
G02X348931Y278054I0J400D01*
G03X337669I-5631J2346D01*
G02X337300Y277500I-369J-154D01*
G01X335000D01*
Y310067D01*
G02X335560Y310433I400J0D01*
G03Y313367I640J1467D01*
G02X335000Y313733I-160J367D01*
G01Y318292D01*
G02X335520Y318674I400J0D01*
G03X335920Y321798I480J1526D01*
G02X335500Y322198I-20J399D01*
G03X335000Y323362I-1600J2D01*
G01Y324638D01*
G03Y326962I-1100J1162D01*
G01Y341580D01*
G02X335660Y341884I400J0D01*
G03X336086Y341622I1040J1216D01*
G02X336297Y341088I-153J-369D01*
G03X338368Y341905I1457J-661D01*
G02X338157Y342439I153J369D01*
G03X335660Y344316I-1457J661D01*
G02X335000Y344620I-260J304D01*
G01Y345541D01*
G03Y347659I-1200J1059D01*
G01Y349592D01*
G02X335520Y349974I400J0D01*
G03Y353026I480J1526D01*
G02X335000Y353408I-120J382D01*
G01Y375000D01*
X455303D01*
G02X455685Y374480I0J-400D01*
G03X474481Y355685I14315J-4480D01*
G02X475000Y355303I119J-382D01*
G01Y352210D01*
X474822Y352190D01*
G03Y349010I178J-1590D01*
G01X475000Y348990D01*
Y347110D01*
X474822Y347090D01*
G03Y343910I178J-1590D01*
G01X475000Y343890D01*
Y341810D01*
X474822Y341790D01*
G03Y338610I178J-1590D01*
G01X475000Y338590D01*
Y317110D01*
X474822Y317090D01*
G03Y313910I178J-1590D01*
G01X475000Y313890D01*
Y311910D01*
X474822Y311890D01*
G03Y308710I178J-1590D01*
G01X475000Y308690D01*
Y306910D01*
X474822Y306890D01*
G03Y303710I178J-1590D01*
G01X475000Y303690D01*
Y295000D01*
X447500D01*
X445000Y292500D01*
Y286408D01*
G02X444480Y286026I-400J0D01*
G03Y282974I-480J-1526D01*
G02X445000Y282592I120J-382D01*
G01Y262500D01*
X435000D01*
G37*
G36*
G01X432000Y274623D02*
X432035Y274674D01*
G03X432066Y274728I-330J226D01*
G01X432081Y274759D01*
X432247Y274924D01*
X433000Y274172D01*
Y262000D01*
X432000D01*
Y274623D01*
G37*
G36*
G01X483500Y8097D02*
G02X482760Y7886I-400J0D01*
G03X477000Y13267I-12760J-7887D01*
G01Y65189D01*
G03Y75811I-3000J5311D01*
G01Y229334D01*
G03Y234667I-3500J2666D01*
G01Y239334D01*
G03Y244666I-3500J2666D01*
G01Y249334D01*
G03Y254666I-3500J2666D01*
G01Y292000D01*
X452649D01*
G03X452360Y292280I-1249J-1000D01*
G02X452601Y293000I240J320D01*
G01X477000D01*
Y356733D01*
G03X482760Y362114I-7000J13267D01*
G02X483500Y361903I340J-210D01*
G01Y8097D01*
G37*
%LPC*%
G75*
G36*
G01X115692Y357039D02*
G03X116072Y356599I398J-40D01*
G02X114408Y355162I-72J-1599D01*
G03X114028Y355601I-398J40D01*
G02X115692Y357039I72J1599D01*
G37*
G36*
G01X46214Y353490D02*
G03X46786I286J280D01*
G02Y351110I1214J-1190D01*
G03X46214I-286J-280D01*
G02Y353490I-1214J1190D01*
G37*
G36*
G01X33337Y347947D02*
G03X33126Y348104I-196J-42D01*
G02X31337Y349447I-126J1696D01*
G03X31126Y349604I-196J-42D01*
G02X32663Y351653I-126J1696D01*
G03X32874Y351496I196J42D01*
G02X34663Y350153I126J-1696D01*
G03X34874Y349996I196J42D01*
G02X33337Y347947I126J-1696D01*
G37*
G36*
G01X42780Y346300D02*
G02X44778Y348219I1141J811D01*
G02X46490I856J-1108D01*
G02X48188Y348230I856J-1108D01*
G02X50200Y346324I872J-1096D01*
G02X48218Y344393I-1141J-811D01*
G02X46490Y344381I-872J1096D01*
G02X44778I-856J1108D01*
G02X42780Y346300I-856J1108D01*
G37*
G36*
G01X154786Y342810D02*
G03X154214I-286J-280D01*
G02X151810Y345214I-1214J1190D01*
G03Y345786I-280J286D01*
G02X151786Y345810I1190J1214D01*
G03X151214I-286J-280D01*
G02Y348190I-1214J1190D01*
G03X151786I286J280D01*
G02X151810Y348214I1214J-1190D01*
G03Y348786I-280J286D01*
G02Y351214I1190J1214D01*
G03Y351786I-280J286D01*
G02X154214Y354190I1190J1214D01*
G03X154786I286J280D01*
G02X157190Y351786I1214J-1190D01*
G03Y351214I280J-286D01*
G02Y348786I-1190J-1214D01*
G03Y348214I280J-286D01*
G02Y345786I-1190J-1214D01*
G03Y345214I280J-286D01*
G02X154786Y342810I-1190J-1214D01*
G37*
G36*
G01X126698Y47584D02*
G02X125731Y49035I-1698J-84D01*
G03X126302Y49416I172J361D01*
G02X127269Y47965I1698J84D01*
G03X126698Y47584I-172J-361D01*
G37*
G36*
G01X303640Y356320D02*
G03X303080Y356240I-240J-320D01*
G02X300599Y356143I-1280J960D01*
G03X300039Y356183I-300J-264D01*
G02X300201Y358457I-1039J1217D01*
G03X300761Y358417I300J264D01*
G02X302760Y358480I1039J-1217D01*
G03X303320Y358560I240J320D01*
G02X305798Y358661I1280J-960D01*
G03X306378Y358641I299J265D01*
G02X306302Y356439I1122J-1141D01*
G03X305722Y356459I-299J-265D01*
G02X303640Y356320I-1122J1141D01*
G37*
G36*
G01X276517Y355364D02*
G03X275998Y355006I-121J-381D01*
G02X272825Y354818I-1597J94D01*
G03X272345Y355137I-394J-71D01*
G02X273575Y356982I-345J1563D01*
G03X274055Y356663I394J71D01*
G02X274883Y356626I345J-1563D01*
G03X275402Y356984I121J381D01*
G02X276517Y355364I1597J-94D01*
G37*
G36*
G01X250279Y350361D02*
G02X248961Y351679I-1579J-261D01*
G03X249421Y352139I65J395D01*
G02X250739Y350821I1579J261D01*
G03X250279Y350361I-65J-395D01*
G37*
G36*
G01X66513Y205386D02*
G02X65381Y207200I-1576J277D01*
G03X65886Y207515I111J384D01*
G02X68210Y208653I1576J-277D01*
G03X68795Y208968I187J354D01*
G02X69640Y207398I1593J-155D01*
G03X69055Y207083I-187J-354D01*
G02X67018Y205701I-1593J155D01*
G03X66513Y205386I-111J-384D01*
G37*
G36*
G01X185519Y164028D02*
G02X185950Y166792I150J1392D01*
G02X185519Y164028I-150J-1392D01*
G37*
G36*
G01X165801Y194368D02*
G02X164632Y193347I182J-1388D01*
G03X164276Y193851I-386J105D01*
G02X164323Y195848I75J997D01*
G03X164683Y196397I-11J400D01*
G02X165780Y195531I1300J520D01*
G03X165330Y195053I-58J-396D01*
G02X165350Y194788I-979J-205D01*
G03X165801Y194368I399J-24D01*
G37*
G36*
G01X159488Y193227D02*
G02X158687Y194255I-1378J-248D01*
G03X159252Y194628I165J364D01*
G02X161250Y194710I1000J21D01*
G03X161737Y194345I399J25D01*
G02X160662Y193189I309J-1366D01*
G03X160262Y193648I-396J60D01*
G02X159987Y193684I-11J1000D01*
G03X159488Y193227I-106J-386D01*
G37*
G36*
G01X165802Y186494D02*
G02X164627Y185453I181J-1388D01*
G03X164272Y185952I-387J99D01*
G02X164331Y187948I80J997D01*
G03X164692Y188503I-8J400D01*
G02X165776Y187658I1292J540D01*
G03X165326Y187173I-59J-396D01*
G02X165351Y186907I-975J-224D01*
G03X165802Y186494I400J-17D01*
G37*
G36*
G01X159491Y185332D02*
G02X158686Y186381I-1382J-227D01*
G03X159251Y186746I165J364D01*
G02X161248Y186829I1000J2D01*
G03X161736Y186471I399J32D01*
G02X160659Y185294I311J-1365D01*
G03X160260Y185748I-396J54D01*
G02X159990Y185783I-8J1000D01*
G03X159491Y185332I-104J-386D01*
G37*
G36*
G01X165803Y178620D02*
G02X164622Y177560I181J-1388D01*
G03X164267Y178052I-389J94D01*
G02X165351Y179026I84J997D01*
G03X165803Y178620I400J-9D01*
G37*
G36*
G01X159494Y177437D02*
G02X158687Y178507I-1385J-205D01*
G03X159251Y178865I165J364D01*
G02X161247Y178947I1000J-17D01*
G03X161734Y178596I398J39D01*
G02X160656Y177400I312J-1365D01*
G03X160257Y177848I-397J48D01*
G02X159993Y177882I-6J1000D01*
G03X159494Y177437I-103J-386D01*
G37*
G36*
G01X87931Y239935D02*
G03X87842Y240191I-184J79D01*
G02X90069Y240965I758J1409D01*
G03X90158Y240710I184J-79D01*
G02X87931Y239935I-758J-1409D01*
G37*
G36*
G01X109432Y214514D02*
G03X110032Y214374I358J178D01*
G02X109568Y212386I968J-1274D01*
G03X108968Y212526I-358J-178D01*
G02X109432Y214514I-968J1274D01*
G37*
G36*
G01X99425Y201328D02*
G03X99558Y201572I-59J191D01*
G02X100005Y203167I1542J428D01*
G03X100045Y203707I-274J292D01*
G02X102395Y203533I1255J993D01*
G03X102355Y202993I274J-292D01*
G02X101575Y200472I-1255J-993D01*
G03X101442Y200228I59J-191D01*
G02X99425Y201328I-1542J-428D01*
G37*
G36*
G01X125798Y270040D02*
G02X123509Y268432I-698J-1440D01*
G03X122989Y268771I-398J-42D01*
G02X121418Y269116I-489J1524D01*
G03X120878Y269117I-271J-295D01*
G02X120882Y271479I-1078J1183D01*
G03X121422Y271478I271J295D01*
G02X122980Y271822I1078J-1183D01*
G03X123500Y272203I120J382D01*
G02X125798Y270760I1600J-2D01*
G03Y270040I174J-360D01*
G37*
G36*
G01X92949Y229701D02*
G02X90026Y228481I-1549J-401D01*
G03X89366Y228521I-344J-205D01*
G02X89474Y230319I-1266J979D01*
G03X90134Y230279I344J205D01*
G02X91451Y230899I1266J-979D01*
G03X91851Y231399I13J400D01*
G02X93349Y230201I1549J401D01*
G03X92949Y229701I-13J-400D01*
G37*
G36*
G01X104989Y87948D02*
G03X104711I-139J-144D01*
G02Y90252I-1111J1151D01*
G03X104989I139J144D01*
G02X107300Y90159I1111J-1152D01*
G03X107900I300J265D01*
G02X110211Y90252I1200J-1059D01*
G03X110489I139J144D01*
G02Y87948I1111J-1151D01*
G03X110211I-139J-144D01*
G02X107900Y88041I-1111J1152D01*
G03X107300I-300J-265D01*
G02X104989Y87948I-1200J1059D01*
G37*
G36*
G01X151618Y138085D02*
G02X150558Y139224I-1382J-223D01*
G03X151049Y139595I92J389D01*
G02X153048Y139521I999J-46D01*
G03X153609Y139143I400J-11D01*
G02X152796Y138120I563J-1282D01*
G03X152302Y138581I-393J74D01*
G02X152023Y138549I-253J968D01*
G03X151618Y138085I-10J-400D01*
G37*
G36*
G01X147646Y138242D02*
G02X146496Y139248I-1347J-381D01*
G03X146951Y139674I56J396D01*
G02X146967Y139942I997J75D01*
G03X146513Y140415I-392J77D01*
G02X147604Y141293I-215J1384D01*
G03X147969Y140748I373J-144D01*
G02X148007Y138750I-20J-1000D01*
G03X147646Y138242I24J-399D01*
G37*
G36*
G01X288534Y80276D02*
G02X290654Y77891I966J-1276D01*
G02X288534Y80276I-5654J-2891D01*
G37*
G36*
G01X209167Y36083D02*
G03X209062Y36694I-302J262D01*
G02X210933Y37016I738J1306D01*
G03X211038Y36406I302J-262D01*
G02X209167Y36083I-738J-1306D01*
G37*
G36*
G01X296740Y33039D02*
G03X296110I-315J-247D01*
G02X293864Y35285I-1260J986D01*
G03Y35915I-247J315D01*
G02X296110Y38161I986J1260D01*
G03X296740I315J247D01*
G02X299260I1260J-986D01*
G03X299890I315J247D01*
G02X302136Y35915I1260J-986D01*
G03Y35285I247J-315D01*
G02X299890Y33039I-986J-1260D01*
G03X299260I-315J-247D01*
G02X296740I-1260J986D01*
G37*
G36*
G01X296298Y27361D02*
G03X296878Y27341I299J265D01*
G02X296802Y25139I1122J-1141D01*
G03X296222Y25159I-299J-265D01*
G02X296298Y27361I-1122J1141D01*
G37*
G36*
G01X355163Y23353D02*
G03X355374Y23196I196J42D01*
G02X353837Y21147I126J-1696D01*
G03X353626Y21304I-196J-42D01*
G02X351837Y22647I-126J1696D01*
G03X351626Y22804I-196J-42D01*
G02X353163Y24853I-126J1696D01*
G03X353374Y24696I196J42D01*
G02X355163Y23353I126J-1696D01*
G37*
G36*
G01X188354Y78423D02*
G02X186240Y78830I-1254J-823D01*
G03X186346Y79377I-229J328D01*
G02X186125Y80472I1254J823D01*
G03X185568Y80910I-393J73D01*
G02X186430Y82007I-614J1369D01*
G03X186986Y81569I393J-73D01*
G02X188460Y78970I614J-1369D01*
G03X188354Y78423I229J-328D01*
G37*
G36*
G01X182074Y75954D02*
G02X181306Y77312I-1499J49D01*
G03X181901Y77649I195J349D01*
G02X182669Y76290I1499J-49D01*
G03X182074Y75954I-195J-349D01*
G37*
G36*
G01X159922Y74850D02*
G02X157137Y74853I-1392J560D01*
G03X156474Y74978I-371J-149D01*
G02X156771Y76560I-1096J1025D01*
G03X157434Y76435I371J149D01*
G02X159623Y76438I1096J-1025D01*
G03X160285Y76562I291J274D01*
G02X163046Y76618I1392J-560D01*
G03X163711Y76518I365J164D01*
G02X165955Y76534I1129J-988D01*
G03X166615Y76633I297J268D01*
G02X166861Y74999I1361J-631D01*
G03X166201Y74899I-297J-268D01*
G02X163472Y74915I-1361J631D01*
G03X162806Y75014I-365J-164D01*
G02X160584Y74975I-1129J988D01*
G03X159922Y74850I-291J-274D01*
G37*
G36*
G01X173834Y63639D02*
G02X172492Y64875I-1478J-258D01*
G03X172922Y65342I36J398D01*
G02X175624Y66468I1478J258D01*
G03X176276I326J231D01*
G02X178958Y65246I1224J-868D01*
G03X179201Y64778I389J-94D01*
G02X177197Y63736I-546J-1397D01*
G03X176954Y64203I-389J94D01*
G02X176276Y64732I546J1397D01*
G03X175624I-326J-231D01*
G02X174264Y64106I-1224J868D01*
G03X173834Y63639I-36J-398D01*
G37*
G36*
G01X275417Y40560D02*
G02X272810Y42714I-1417J940D01*
G03Y43286I-280J286D01*
G02Y45714I1190J1214D01*
G03Y46286I-280J286D01*
G02X275417Y48440I1190J1214D01*
G03X276083I333J221D01*
G02X277002Y49126I1417J-940D01*
G03X277243Y49686I-117J382D01*
G02X279691Y47292I4657J2314D01*
G03X279136Y47039I-170J-362D01*
G02X278690Y46286I-1636J461D01*
G03Y45714I280J-286D01*
G02X278917Y45440I-1190J-1214D01*
G03X279583I333J221D01*
G02X282190Y43286I1417J-940D01*
G03Y42714I280J-286D01*
G02X279583Y40560I-1190J-1214D01*
G03X278917I-333J-221D01*
G02X276083I-1417J940D01*
G03X275417I-333J-221D01*
G37*
G36*
G01X310729Y35957D02*
G02X310585Y37686I-1529J743D01*
G03X311271Y37743I326J232D01*
G02X311415Y36014I1529J-743D01*
G03X310729Y35957I-326J-232D01*
G37*
G36*
G01X162018Y268769D02*
G03X161498Y268410I-121J-381D01*
G02X159202Y269940I-1598J90D01*
G03Y270660I-174J360D01*
G02X161498Y272182I698J1440D01*
G03X162018Y271821I399J20D01*
G02X163538Y271513I482J-1526D01*
G03X164058Y271514I259J305D01*
G02X164062Y269082I1042J-1214D01*
G03X163542Y269081I-259J-305D01*
G02X162018Y268769I-1042J1214D01*
G37*
G36*
G01X266206Y273848D02*
G02X266098Y270728I-405J-1548D01*
G02X266206Y273848I-6098J1772D01*
G37*
G36*
G01X239400Y279238D02*
G03X239811Y278847I400J9D01*
G02X236389Y277724I189J-6347D01*
G03X236489Y278282I-228J329D01*
G02X239400Y279238I1311J918D01*
G37*
G36*
G01X204724Y270665D02*
G02X204476Y269211I1276J-965D01*
G03X203776Y269330I-381J-122D01*
G02X204024Y270784I-1276J965D01*
G03X204724Y270665I381J122D01*
G37*
G36*
G01X189145Y257860D02*
G02X188215Y256620I655J-1460D01*
G03X187655Y257040I-396J55D01*
G02X188585Y258280I-655J1460D01*
G03X189145Y257860I396J-55D01*
G37*
G36*
G01X269458Y255018D02*
G02X268621Y253862I742J-1418D01*
G03X268042Y254282I-395J65D01*
G02X268879Y255438I-742J1418D01*
G03X269458Y255018I395J-65D01*
G37*
G36*
G01X278554Y248764D02*
G02X277606Y247436I646J-1464D01*
G03X277046Y247836I-399J34D01*
G02X274810Y249485I-646J1464D01*
G03X274271Y249905I-397J46D01*
G02X275290Y251215I-571J1495D01*
G03X275829Y250795I397J-46D01*
G02X277994Y249164I571J-1495D01*
G03X278554Y248764I399J-34D01*
G37*
G36*
G01X285077Y241511D02*
G02X283951Y239432I4923J-4011D01*
G03X283416Y239923I-381J122D01*
G02X281317Y242001I-616J1477D01*
G03X281037Y242542I-371J150D01*
G02X282883Y243499I363J1559D01*
G03X283163Y242958I371J-150D01*
G02X284374Y241691I-363J-1559D01*
G03X285077Y241511I393J73D01*
G37*
G36*
G01X408340Y198802D02*
G02Y200198I-1440J698D01*
G03X409060I360J174D01*
G02Y198802I1440J-698D01*
G03X408340I-360J-174D01*
G37*
G36*
G01X198822Y35094D02*
G03X199274Y34783I391J84D01*
G02X198033Y32984I226J-1483D01*
G03X197582Y33296I-391J-84D01*
G02X198822Y35094I-226J1483D01*
G37*
G36*
G01X204461Y17651D02*
G03X204544Y17089I320J-240D01*
G02X202454Y16780I-889J-1208D01*
G03X202371Y17342I-320J240D01*
G02X204461Y17651I889J1208D01*
G37*
G36*
G01X199047Y17000D02*
G03X198743Y16453I66J-395D01*
G02X197109Y17361I-1387J-572D01*
G03X197413Y17908I-66J395D01*
G02X199047Y17000I1387J572D01*
G37*
G36*
G01X200498Y8736D02*
G03X200540Y8223I326J-232D01*
G02X198155Y8105I-1140J-1123D01*
G03X198145Y8619I-311J251D01*
G02X200498Y8736I1131J986D01*
G37*
G36*
G01X220871Y13112D02*
G02X219670Y14898I-1468J309D01*
G03X220132Y15209I71J394D01*
G02X220543Y15964I1468J-309D01*
G03X220459Y16596I-282J284D01*
G02X222503Y18644I742J1304D01*
G03X223197I347J198D01*
G02Y17156I1303J-744D01*
G03X222503I-347J-198D01*
G02X222257Y16836I-1303J744D01*
G03X222342Y16204I282J-284D01*
G02X221334Y13424I-741J-1304D01*
G03X220871Y13112I-71J-394D01*
G37*
G36*
G01X219702Y145684D02*
G02X222499Y145651I1399J51D01*
G02X219702Y145684I-1399J-51D01*
G37*
G36*
G01X227804Y138629D02*
G02X230171Y137133I1196J-729D01*
G02X227804Y138629I-1196J729D01*
G37*
G36*
G01X298126Y93973D02*
G03X298680Y94380I156J368D01*
G02X299572Y91704I6320J620D01*
G03X298884Y91697I-342J-208D01*
G02X298126Y93973I-1384J803D01*
G37*
G36*
G01X259193Y193350D02*
G03X258573Y193330I-302J-262D01*
G02X256102Y193239I-1273J970D01*
G03X255522Y193259I-299J-265D01*
G02X255598Y195461I-1122J1141D01*
G03X256178Y195441I299J265D01*
G02X258507Y195350I1122J-1141D01*
G03X259127Y195370I302J262D01*
G02X259193Y193350I1273J-970D01*
G37*
G36*
G01X231546Y184802D02*
G02X234300Y185292I1367J304D01*
G02X231546Y184802I-1367J-304D01*
G37*
G36*
G01X220724Y175883D02*
G02X221577Y178548I377J1348D01*
G02X220724Y175883I-377J-1348D01*
G37*
G36*
G01X362417Y126860D02*
G02Y128740I-1417J940D01*
G03X363083I333J221D01*
G02X365917I1417J-940D01*
G03X366583I333J221D01*
G02X368324Y129469I1417J-940D01*
G03X368800Y129850I76J393D01*
G02X368809Y129979I1699J-50D01*
G03X368546Y130190I-199J21D01*
G02X366583Y130860I-546J1610D01*
G03X365917I-333J-221D01*
G02X363083I-1417J940D01*
G03X362417I-333J-221D01*
G02Y132740I-1417J940D01*
G03X363083I333J221D01*
G02X365917I1417J-940D01*
G03X366583I333J221D01*
G02X368324Y133469I1417J-940D01*
G03X368800Y133850I76J393D01*
G02X372064Y134467I1699J-50D01*
G03X372327Y134361I184J78D01*
G02X374564Y133467I673J-1561D01*
G03X374827Y133361I184J78D01*
G02X373936Y131133I673J-1561D01*
G03X373673Y131239I-184J-78D01*
G02X371436Y132133I-673J1561D01*
G03X371173Y132239I-184J-78D01*
G02X370176Y132131I-673J1561D01*
G03X369700Y131750I-76J-393D01*
G02X369691Y131621I-1699J50D01*
G03X369954Y131410I199J-21D01*
G02X372064Y130467I546J-1610D01*
G03X372327Y130361I184J78D01*
G02X374564Y129467I673J-1561D01*
G03X374827Y129361I184J78D01*
G02X373936Y127133I673J-1561D01*
G03X373673Y127239I-184J-78D01*
G02X371436Y128133I-673J1561D01*
G03X371173Y128239I-184J-78D01*
G02X370176Y128131I-673J1561D01*
G03X369700Y127750I-76J-393D01*
G02X366583Y126860I-1699J50D01*
G03X365917I-333J-221D01*
G02X363083I-1417J940D01*
G03X362417I-333J-221D01*
G37*
G36*
G01X249433Y224207D02*
G03X249167I-133J-149D01*
G02Y226593I-1067J1193D01*
G03X249433I133J149D01*
G02Y224207I1067J-1193D01*
G37*
G36*
G01X190275Y234000D02*
G02X188725I-775J-1400D01*
G03Y234700I-194J350D01*
G02X190275I775J1400D01*
G03Y234000I194J-350D01*
G37*
G36*
G01X352158Y249608D02*
G02X350158I-1000J1249D01*
G02X347908Y251857I-1000J1249D01*
G02Y253857I1249J1000D01*
G02Y255857I1249J1000D01*
G02X350158Y258107I1249J1000D01*
G02X352158I1000J-1249D01*
G02X354158I1000J-1249D01*
G02X356407Y255857I1000J-1249D01*
G02Y253857I-1249J-1000D01*
G02Y251857I-1249J-1000D01*
G02X354158Y249608I-1249J-1000D01*
G02X352158I-1000J1249D01*
G37*
G36*
G01X438128Y194705D02*
G03X437604I-262J-302D01*
G02X435205Y197104I-1116J1284D01*
G03Y197628I-302J262D01*
G02Y199860I1284J1116D01*
G03Y200384I-302J262D01*
G02Y202616I1284J1116D01*
G03Y203140I-302J262D01*
G02Y205372I1284J1116D01*
G03Y205896I-302J262D01*
G02X437604Y208295I1284J1116D01*
G03X438128I262J302D01*
G02X440360I1116J-1284D01*
G03X440884I262J302D01*
G02X443116I1116J-1284D01*
G03X443640I262J302D01*
G02X445872I1116J-1284D01*
G03X446396I262J302D01*
G02X448795Y205896I1116J-1284D01*
G03Y205372I302J-262D01*
G02Y203140I-1284J-1116D01*
G03Y202616I302J-262D01*
G02Y200384I-1284J-1116D01*
G03Y199860I302J-262D01*
G02Y197628I-1284J-1116D01*
G03Y197104I302J-262D01*
G02X446396Y194705I-1284J-1116D01*
G03X445872I-262J-302D01*
G02X443640I-1116J1284D01*
G03X443116I-262J-302D01*
G02X440884I-1116J1284D01*
G03X440360I-262J-302D01*
G02X438128I-1116J1284D01*
G37*
G36*
G01X376000Y157338D02*
G02X373800I-1100J1162D01*
G02Y159662I-1100J1162D01*
G02X376000I1100J-1162D01*
G02Y157338I1100J-1162D01*
G37*
G36*
G01X418181Y158428D02*
G03X417914Y157850I86J-391D01*
G02X415213Y158052I-1414J-750D01*
G03X415035Y158663I-322J238D01*
G02X418181Y158428I1965J5137D01*
G37*
G36*
G01X466912Y117698D02*
G03X466745Y117920I-198J25D01*
G02X465405Y119629I255J1580D01*
G03X465105Y120049I-399J32D01*
G02X467095Y121471I395J1551D01*
G03X467395Y121051I399J-32D01*
G02X468588Y119302I-395J-1551D01*
G03X468755Y119080I198J-25D01*
G02X466912Y117698I-255J-1580D01*
G37*
G36*
G01X404960Y77989D02*
G03X404340I-310J-253D01*
G02Y80011I-1240J1011D01*
G03X404960I310J253D01*
G02Y77989I1240J-1011D01*
G37*
G36*
G01X441742Y71241D02*
G03X441952Y71094I193J52D01*
G02X440458Y68959I147J-1694D01*
G03X440248Y69106I-193J-52D01*
G02X438435Y70456I-147J1694D01*
G03X438214Y70613I-196J-41D01*
G02X439665Y72645I-214J1687D01*
G03X439886Y72487I196J41D01*
G02X441742Y71241I214J-1687D01*
G37*
G36*
G01X387663Y19853D02*
G03X387874Y19696I196J42D01*
G02X386337Y17647I126J-1696D01*
G03X386126Y17804I-196J-42D01*
G02X384337Y19147I-126J1696D01*
G03X384126Y19304I-196J-42D01*
G02X385663Y21353I-126J1696D01*
G03X385874Y21196I196J42D01*
G02X387663Y19853I126J-1696D01*
G37*
G36*
G01X351670Y266094D02*
G02X350283Y267086I-1481J-605D01*
G03X350676Y267637I23J399D01*
G02X352064Y266645I1481J605D01*
G03X351670Y266094I-23J-399D01*
G37*
G36*
G01X430563Y247845D02*
G02X429345Y249063I-1563J-345D01*
G03X429770Y249665I86J391D01*
G02X431165Y248270I3730J2335D01*
G03X430563Y247845I-212J-339D01*
G37*
G36*
G01X389666Y171441D02*
G02X388254Y172399I-1466J-641D01*
G03X388634Y172959I13J400D01*
G02X390276Y175190I1466J641D01*
G03X390676Y175770I44J398D01*
G02X391924Y174910I1424J730D01*
G03X391524Y174330I-44J-398D01*
G02X390046Y172001I-1424J-730D01*
G03X389666Y171441I-13J-400D01*
G37*
G36*
G01X456354Y148853D02*
G02X454646I-854J-1353D01*
G03X454636Y149536I-214J338D01*
G02X456364I864J1464D01*
G03X456354Y148853I203J-344D01*
G37*
G36*
G01X434354D02*
G02X432646I-854J-1353D01*
G03X432636Y149536I-214J338D01*
G02X434364I864J1464D01*
G03X434354Y148853I203J-344D01*
G37*
G36*
G01X413440Y147917D02*
G02X411560I-940J-1417D01*
G03Y148583I-221J333D01*
G02Y151417I940J1417D01*
G03Y152083I-221J333D01*
G02X413440I940J1417D01*
G03Y151417I221J-333D01*
G02Y148583I-940J-1417D01*
G03Y147917I221J-333D01*
G37*
G36*
G01X460059Y94609D02*
G02X458469Y94567I-759J-1409D01*
G03X458451Y95261I-208J342D01*
G02X458453Y98080I759J1409D01*
G03X458451Y98786I-189J352D01*
G02X459957Y98790I749J1414D01*
G03X459959Y98084I189J-352D01*
G02X460041Y95303I-749J-1414D01*
G03X460059Y94609I208J-342D01*
G37*
G36*
G01X459975Y82200D02*
G02X458425I-775J-1400D01*
G03Y82900I-194J350D01*
G02X459975I775J1400D01*
G03Y82200I194J-350D01*
G37*
G36*
G01X373802Y367700D02*
G03X373406Y367244I0J-400D01*
G02X371820Y368622I-1585J-223D01*
G03X372215Y369077I0J400D01*
G02X373802Y367700I1585J223D01*
G37*
G36*
G01X351282Y337716D02*
G02Y335263I1028J-1226D01*
G02Y337716I-1028J1226D01*
G37*
G36*
G01X360039Y332638D02*
G03X360250Y332493I192J55D01*
G02X358861Y330462I150J-1593D01*
G03X358650Y330607I-192J-55D01*
G02X356947Y331813I-150J1593D01*
G03X356507Y332113I-388J-97D01*
G02X357853Y334087I-207J1587D01*
G03X358293Y333787I388J97D01*
G02X360039Y332638I207J-1587D01*
G37*
G36*
G01X402373Y326327D02*
G02X404627Y324073I1227J-1027D01*
G02X402373Y326327I-1227J1027D01*
G37*
G36*
G01X378960Y315589D02*
G03X378340I-310J-253D01*
G02X376933Y318192I-1240J1011D01*
G03X377111Y318414I-21J199D01*
G02X380288Y318402I1589J186D01*
G03X380455Y318180I198J-25D01*
G02X378960Y315589I-255J-1580D01*
G37*
G36*
G01X367034Y315821D02*
G03X366374Y315781I-316J-245D01*
G02X364763Y318182I-1375J819D01*
G03X365103Y318603I-59J396D01*
G02X368297Y318602I1597J98D01*
G03X368475Y318391I200J-12D01*
G02X367034Y315821I-175J-1591D01*
G37*
G36*
G01X383473Y313205D02*
G03X383258Y313023I-16J-199D01*
G02X381791Y314759I-1594J141D01*
G03X382006Y314941I16J199D01*
G02X383473Y313205I1594J-141D01*
G37*
G36*
G01X377142Y358929D02*
G02X375760Y360092I-1542J-429D01*
G03X376185Y360598I40J398D01*
G02X377567Y359435I1542J429D01*
G03X377142Y358929I-40J-398D01*
G37*
G36*
G01X367522Y358092D02*
G02X364442Y357964I-1523J-493D01*
G03X364031Y358455I-389J91D01*
G02X365505Y359689I-84J1598D01*
G03X365916Y359198I389J-91D01*
G02X365985Y359200I83J-1598D01*
G03X366362Y359723I-4J400D01*
G02X367899Y358616I1523J493D01*
G03X367522Y358092I4J-400D01*
G37*
G36*
G01X383873Y324201D02*
G02X382087Y324039I-773J-1401D01*
G03X382027Y324699I-253J310D01*
G02X381694Y327256I773J1401D01*
G03X381703Y327536I-138J145D01*
G02X382008Y329955I1181J1080D01*
G03X382051Y330591I-219J335D01*
G02X382134Y333076I1049J1209D01*
G03X382223Y333620I-241J319D01*
G02X384511Y333245I1322J901D01*
G03X384422Y332701I241J-319D01*
G02X383976Y330461I-1322J-901D01*
G03X383933Y329824I219J-335D01*
G02X383990Y327459I-1049J-1209D01*
G03X383981Y327180I138J-145D01*
G02X383813Y324861I-1181J-1080D01*
G03X383873Y324201I253J-310D01*
G37*
G36*
G01X359489Y299925D02*
G02X356519Y299732I-1447J-683D01*
G03X356125Y300255I-381J123D01*
G02X355906Y300263I-52J1599D01*
G03X355686Y300090I-21J-199D01*
G02X354268Y301891I-1586J210D01*
G03X354487Y302064I21J199D01*
G02X357596Y301364I1586J-210D01*
G03X357990Y300841I381J-123D01*
G02X358170Y300837I52J-1599D01*
G03X358563Y301406I32J399D01*
G02X359882Y300495I1447J683D01*
G03X359489Y299925I-32J-399D01*
G37*
G36*
G01X437140Y291217D02*
G02X435260I-940J-1417D01*
G03Y291883I-221J333D01*
G02X437140I940J1417D01*
G03Y291217I221J-333D01*
G37*
G54D36*
X417000Y138200D03*
X438500D03*
Y163800D03*
X460000Y138200D03*
Y163800D03*
G54D35*
X430700Y32500D03*
G54D33*
X300000Y227500D03*
G54D27*
X90500Y343000D03*
X103500Y2700D03*
X121000D03*
X126800Y28100D03*
X138500Y2700D03*
X144000Y362500D03*
X306000Y282500D03*
X324100Y17400D03*
X346400Y131500D03*
X351100Y168900D03*
X393700Y65800D03*
X392500Y247500D03*
X428600Y364100D03*
G54D24*
X20500Y59800D03*
Y307800D03*
X442500Y51400D03*
X455300Y32500D03*
G54D32*
X310000Y217500D03*
Y237500D03*
X285000Y130000D03*
X305000Y150000D03*
G54D31*
X125600Y208900D03*
X155378Y57105D03*
X156608Y60921D03*
X158528Y67040D03*
X156608Y79819D03*
X167976Y57105D03*
X161677D03*
X169206Y60921D03*
X161677Y69166D03*
X162907Y60921D03*
X159758Y63381D03*
X171126Y67040D03*
X164827D03*
X166057Y63381D03*
Y82279D03*
X162907Y79819D03*
X159758Y82279D03*
X169206Y79819D03*
X171126Y74034D03*
X172700Y82600D03*
X167976Y88064D03*
X161677D03*
X186677Y40564D03*
X180378D03*
X183724Y55136D03*
X186874Y57105D03*
X184954Y63381D03*
X174276Y57105D03*
X186874Y69166D03*
X188104Y60921D03*
X181805D03*
X180575Y69166D03*
X178655Y82279D03*
X177425Y74034D03*
X174300Y77500D03*
X183724Y85938D03*
X180575Y88064D03*
X174276D03*
X202622Y55136D03*
X199472Y57105D03*
X194403Y60921D03*
X191254Y63381D03*
X190024Y67040D03*
X199472Y69166D03*
X196323Y67040D03*
X193173Y69166D03*
X197553Y63381D03*
X202622Y67040D03*
X200702Y60921D03*
X199600Y77400D03*
X191254Y82279D03*
X193173Y76002D03*
X190024Y74034D03*
X196323D03*
X197900Y82600D03*
X202622Y74034D03*
X199472Y88064D03*
X193100Y89200D03*
X190024Y85938D03*
X215024Y38438D03*
X216254Y34779D03*
X203852Y82279D03*
X224472Y40564D03*
X218173D03*
X222553Y34779D03*
X228852D03*
X186677Y9605D03*
X180378D03*
X183528Y7636D03*
X186677Y21666D03*
X187907Y13421D03*
X184758Y15881D03*
X181608Y13421D03*
X183528Y26534D03*
X181780Y19570D03*
X181608Y32319D03*
X186677Y28502D03*
X187907Y32319D03*
X178250Y28500D03*
X192976Y9605D03*
X189827Y7636D03*
X194206Y13421D03*
X189827Y26534D03*
X194380Y19520D03*
X190960Y19740D03*
X196126Y26534D03*
X202425D03*
X191057Y15881D03*
X200506Y13421D03*
X194206Y32319D03*
X192976Y28502D03*
X199276D03*
Y40564D03*
X211874Y9605D03*
X208724Y7636D03*
X205575Y9605D03*
X215024Y7636D03*
X216254Y15881D03*
X209954D03*
X215024Y19540D03*
X211874Y21666D03*
X213104Y13421D03*
X206805D03*
X205575Y21666D03*
X208724Y19540D03*
X227622Y7636D03*
X224472Y9605D03*
X221323Y7636D03*
X218173Y9605D03*
Y21666D03*
X227622Y19540D03*
X225702Y13421D03*
X229900Y16700D03*
G54D23*
X342000Y93500D03*
X375100Y4400D03*
X8000Y24500D03*
Y39000D03*
X8500Y54500D03*
X9000Y70000D03*
X5900Y91300D03*
Y106300D03*
Y121300D03*
Y136300D03*
Y151300D03*
Y166300D03*
Y181300D03*
Y176300D03*
Y186300D03*
Y196300D03*
Y211300D03*
Y226300D03*
Y241300D03*
Y256300D03*
Y261300D03*
Y276300D03*
Y271300D03*
Y266300D03*
X6000Y294500D03*
Y310000D03*
X6500Y324500D03*
X7000Y339500D03*
X18000Y81500D03*
X20900Y96300D03*
Y86300D03*
X15900Y91300D03*
X10900Y96300D03*
Y86300D03*
X20900Y91300D03*
X15900Y86300D03*
X20900Y111300D03*
X15900Y106300D03*
X10900Y111300D03*
X20900Y126300D03*
X15900Y121300D03*
X10900Y126300D03*
X15900D03*
X20900Y141300D03*
X15900Y136300D03*
X10900Y141300D03*
X15900Y131300D03*
X20900Y156300D03*
X15900Y151300D03*
X10900Y156300D03*
X20900Y171300D03*
X15900Y166300D03*
X10900Y171300D03*
X20900Y186300D03*
X15900Y181300D03*
X10900Y186300D03*
Y181300D03*
Y176300D03*
X20900Y201300D03*
X15900Y196300D03*
X10900Y201300D03*
X15900D03*
X20900Y216300D03*
X15900Y211300D03*
X10900Y216300D03*
X20900Y211300D03*
Y206300D03*
X15900D03*
X20900Y231300D03*
X15900Y226300D03*
X10900Y231300D03*
X20900Y221300D03*
Y226300D03*
Y246300D03*
X15900Y241300D03*
X10900Y246300D03*
X20900Y241300D03*
Y236300D03*
Y261300D03*
X15900Y256300D03*
X10900Y261300D03*
X15900D03*
X20900Y256300D03*
Y251300D03*
Y266300D03*
X15900Y271300D03*
X10900Y266300D03*
X15900D03*
X20900Y276300D03*
Y271300D03*
X15900Y276300D03*
X10900D03*
Y271300D03*
X20900Y281300D03*
X10900D03*
X21500Y324500D03*
X22000Y339500D03*
X14500Y355500D03*
X23500Y369000D03*
X25000Y10000D03*
Y24500D03*
Y39000D03*
X36000Y62000D03*
Y81000D03*
X35900Y91300D03*
X30900Y96300D03*
Y86300D03*
X25900Y91300D03*
X35900Y96300D03*
Y86300D03*
X30900Y91300D03*
X25900Y86300D03*
X35900Y101300D03*
X30900Y111300D03*
X25900Y106300D03*
X35900D03*
X30900Y126300D03*
X25900Y121300D03*
X30900Y141300D03*
X25900Y136300D03*
X35900Y146300D03*
X30900Y156300D03*
X25900Y151300D03*
X35900Y161300D03*
X30900Y171300D03*
X25900Y166300D03*
X35900Y171300D03*
Y166300D03*
Y176300D03*
X30900Y186300D03*
X25900Y181300D03*
X35900Y186300D03*
Y181300D03*
X25900Y186300D03*
X35900Y191300D03*
X30900Y201300D03*
X25900Y196300D03*
X35900Y201300D03*
Y196300D03*
X25900Y191300D03*
X35900Y206300D03*
X30900Y216300D03*
X25900Y211300D03*
X35900Y221300D03*
X30900Y231300D03*
X25900Y226300D03*
X35900D03*
Y231300D03*
X25900D03*
X35900Y236300D03*
X30900Y246300D03*
X25900Y241300D03*
X35900Y246300D03*
Y241300D03*
X25900Y236300D03*
X35900Y256300D03*
Y251300D03*
X30900Y261300D03*
X25900Y256300D03*
X35900Y261300D03*
Y276300D03*
Y271300D03*
X30900Y266300D03*
X25900Y276300D03*
Y271300D03*
X35900Y266300D03*
X30900Y281300D03*
X25900D03*
X31000Y294500D03*
X36500Y310000D03*
X44000Y10000D03*
X47500Y24500D03*
X41200Y352500D03*
X63000Y10000D03*
X57500Y342300D03*
Y358300D03*
X77500Y10000D03*
X90500Y11000D03*
X108000D03*
X111000Y355000D03*
X125700Y354000D03*
X136000Y22500D03*
X130500Y13500D03*
X134500Y44500D03*
X137500Y59000D03*
X138500Y349500D03*
X132500Y360000D03*
X144000Y14000D03*
X145000Y33000D03*
X50900Y96300D03*
Y91300D03*
Y111300D03*
Y116300D03*
Y136300D03*
Y131300D03*
Y151300D03*
X148300Y323700D03*
X166000Y356890D03*
X183500Y361500D03*
X183400Y371600D03*
X188000Y356890D03*
X210000D03*
X205000Y361500D03*
Y371600D03*
X225200Y321500D03*
X226400Y343300D03*
X232000Y356890D03*
X227000Y361500D03*
Y371600D03*
X237300Y360600D03*
X254000Y356890D03*
X249000Y361500D03*
Y371600D03*
X266100Y352900D03*
X272000Y361500D03*
Y371600D03*
X284100Y358800D03*
X286150Y362750D03*
X290000Y367700D03*
X288100Y371600D03*
X294000Y361500D03*
X294100Y371600D03*
X320300Y347200D03*
X319500Y357500D03*
X311800Y357400D03*
X314500Y361500D03*
Y371600D03*
X328800Y344900D03*
X325400Y352800D03*
X59500Y161000D03*
X61312Y204088D03*
X67000Y227000D03*
X64000Y251500D03*
X67500Y279000D03*
X67000Y293500D03*
X66000Y310000D03*
X82000Y167000D03*
X71000Y182000D03*
X69300Y201600D03*
Y197600D03*
X72650Y199150D03*
X72600Y219400D03*
X73000Y244000D03*
X101000Y161500D03*
Y166500D03*
X117500Y165500D03*
X66500Y48500D03*
Y69000D03*
X78000Y58000D03*
X72000Y82500D03*
X72500Y111100D03*
X81800D03*
Y106600D03*
X76800Y116800D03*
X91000Y111100D03*
X95500Y120500D03*
X89500Y129000D03*
X85800Y116800D03*
X105000Y128500D03*
X108000Y139500D03*
X117500Y140000D03*
X92000Y182000D03*
X93200Y194000D03*
X97200D03*
X86500Y206500D03*
X90200Y204700D03*
X92000Y219700D03*
X97500Y225800D03*
Y229800D03*
X93000Y246200D03*
X97500Y245500D03*
X95100Y240100D03*
X86600Y250400D03*
X90600Y254400D03*
X98300Y280100D03*
X101000Y184000D03*
X102000Y214200D03*
X111700Y207200D03*
X108000Y209200D03*
X102200Y209800D03*
X104850Y219050D03*
X102000Y259500D03*
X103500Y293500D03*
X110500Y310000D03*
X119500Y184000D03*
X126800Y184100D03*
X121000Y241500D03*
X123500Y284000D03*
X130500Y220500D03*
X131500Y241500D03*
X140800Y233900D03*
Y237900D03*
X132500Y260500D03*
X136000Y293000D03*
Y310000D03*
X91500Y58500D03*
X91800Y94100D03*
X112901Y53799D03*
X108500Y68000D03*
X99000Y77000D03*
X127500Y102500D03*
Y114500D03*
X128500Y129000D03*
X126000Y119500D03*
X139000D03*
X142400Y125900D03*
X138500D03*
X134800D03*
X206900Y60400D03*
X244000Y48500D03*
X244500Y63500D03*
Y79000D03*
X259000Y48500D03*
X259500Y63500D03*
Y79000D03*
X274500Y63500D03*
Y79000D03*
X297800Y45500D03*
X292600Y43600D03*
X301937Y44737D03*
X298500Y54700D03*
X293500Y61000D03*
X318000Y26500D03*
X315000Y44000D03*
X310500Y56500D03*
X333500Y14000D03*
X333000Y26500D03*
X348500Y14000D03*
X360000Y13000D03*
Y30000D03*
X171800Y263000D03*
X162400D03*
X158400D03*
X167800D03*
X179300Y257100D03*
X181200Y263000D03*
X177200D03*
X175300Y257100D03*
X194600Y261000D03*
X198700Y270100D03*
X202500Y274800D03*
X191500Y269500D03*
X204500Y260400D03*
X210500Y262500D03*
X203500Y282500D03*
X225500Y263000D03*
X226700Y268600D03*
Y275700D03*
X221500Y269500D03*
X227200Y281800D03*
X232500Y260500D03*
X246400Y262900D03*
X249000Y254700D03*
X259500Y253700D03*
X249400Y268700D03*
X257900Y281900D03*
X266700Y259400D03*
X276000Y266400D03*
X276400Y282400D03*
X278400Y271000D03*
X280300Y266400D03*
X292000Y255500D03*
X335500Y204000D03*
X332600Y216300D03*
X329600Y210900D03*
X324050Y205700D03*
X325700Y233700D03*
X336900Y212600D03*
X386500Y198500D03*
X398000D03*
X403200Y199500D03*
X420000Y202800D03*
X415500Y201600D03*
X164800Y10000D03*
X161000Y17400D03*
X160900Y12200D03*
X161100Y25800D03*
X164700Y23500D03*
X164800Y19600D03*
X161000Y31000D03*
X164700Y33200D03*
X232249Y14052D03*
X240000Y19500D03*
X255000D03*
X270000D03*
X243000Y134000D03*
X258000D03*
X273500Y116000D03*
X269500Y120500D03*
X266000Y124000D03*
X273000Y134000D03*
X285000Y109500D03*
X280600Y115800D03*
X286900Y115700D03*
X292500Y101000D03*
Y109500D03*
X297500Y100500D03*
Y108000D03*
Y115500D03*
Y124500D03*
X292000D03*
Y116000D03*
X321000Y95500D03*
X331000Y76000D03*
X321500Y80000D03*
X334000Y85000D03*
X339000Y66000D03*
X342000Y82500D03*
X236934Y184988D03*
X238200Y178700D03*
X245400Y193200D03*
X263400Y179400D03*
X265600Y183000D03*
X280500Y173500D03*
X277500Y195500D03*
X297000Y163500D03*
X304500Y173500D03*
X315500Y135000D03*
X316000Y151500D03*
X315000Y163500D03*
X324500Y126500D03*
Y143500D03*
X337000Y118000D03*
X336500Y135000D03*
X355000D03*
X246900Y220500D03*
X246400Y237300D03*
X240600Y237200D03*
X251700Y220600D03*
X245900Y205700D03*
X238200Y204900D03*
X242000Y205800D03*
X249500Y204500D03*
X259259Y212859D03*
X261700Y218400D03*
X275100Y210300D03*
X318200Y188200D03*
X332900Y169900D03*
Y165900D03*
X240732Y162000D03*
X240762Y169750D03*
X247268Y162000D03*
X247298Y169750D03*
X263732Y162500D03*
Y169500D03*
X270268Y162500D03*
X341700Y259900D03*
X345100Y265700D03*
X362500Y236000D03*
X361000Y268000D03*
X375500Y65500D03*
X375000Y83500D03*
X378800Y151700D03*
X375000Y236000D03*
X386000Y4000D03*
X389000Y56000D03*
X388000Y77000D03*
X384500Y159500D03*
X394500Y179600D03*
X387000Y256500D03*
X401000Y4000D03*
X396000Y15000D03*
X406000Y37500D03*
X403000Y57500D03*
X398500Y89000D03*
X405500Y99500D03*
X399500Y131000D03*
X401500Y159500D03*
Y146500D03*
Y175500D03*
X405000Y261000D03*
X416000Y4000D03*
X411000Y15000D03*
X412000Y90000D03*
X420500Y99500D03*
X418300Y110800D03*
Y105800D03*
X424800D03*
Y110800D03*
X418300Y120800D03*
Y115800D03*
X424800D03*
Y120800D03*
X414500Y131000D03*
X419200Y173200D03*
X413000Y175500D03*
X425100Y175000D03*
X422500Y262000D03*
X431000Y4000D03*
X426000Y15000D03*
X437000Y100000D03*
X436500Y113000D03*
X431000Y131500D03*
X426000Y146000D03*
X433200Y157000D03*
X426500Y166000D03*
X428800Y175000D03*
X446000Y4000D03*
X441000Y15000D03*
X453500Y110000D03*
X446000Y131500D03*
X449500Y146500D03*
X452400Y154500D03*
X450500Y169000D03*
X444600Y173200D03*
X448600Y175400D03*
X453000Y215500D03*
X442500Y248000D03*
X469500Y25000D03*
X456000Y15000D03*
X465000Y40500D03*
X455500Y53000D03*
X465000Y88500D03*
X459200Y88100D03*
X462000Y108500D03*
X455100Y105500D03*
X459000Y127500D03*
X465000Y147000D03*
X468500Y169000D03*
Y185000D03*
X455600Y175400D03*
X455859Y204059D03*
X467900Y201300D03*
Y196300D03*
X467000Y215500D03*
X467900Y206300D03*
X468100Y211300D03*
X459000Y223500D03*
X465000Y249500D03*
X456000Y263000D03*
X470500Y53000D03*
X472000Y127500D03*
X472500Y157000D03*
X470500Y282500D03*
X343500Y289000D03*
Y302000D03*
X349736Y307454D03*
X339600Y316800D03*
X344754Y312746D03*
X338100Y325800D03*
Y331300D03*
Y336300D03*
X350300Y331300D03*
X350400Y341800D03*
X349300Y351900D03*
X362900Y296900D03*
X353600Y357600D03*
X359800Y358000D03*
X358042Y361742D03*
X355900Y365400D03*
X361979Y368179D03*
X372600Y284800D03*
X372400Y289800D03*
X377600Y296300D03*
X379695Y301405D03*
X365916Y345916D03*
X379695Y364305D03*
X369853Y363353D03*
X381000Y283000D03*
X388100Y284800D03*
X386500Y298000D03*
X384800Y303900D03*
X384700Y310100D03*
X394490Y336490D03*
X383546Y342395D03*
Y338458D03*
X388000Y353500D03*
X381664Y367464D03*
X399500Y291000D03*
X406100Y312100D03*
X396100Y322300D03*
X400000Y308400D03*
X409600Y322800D03*
Y327400D03*
Y332700D03*
X395900Y332500D03*
X409600Y337700D03*
Y342600D03*
X396000Y347800D03*
X403300Y340200D03*
X408500Y357500D03*
X399000Y368000D03*
X422000Y298000D03*
X422600Y306100D03*
X412700Y298200D03*
X414900Y305400D03*
X424500Y324900D03*
X424700Y330200D03*
X417000Y347100D03*
X423500Y353000D03*
X416000Y367500D03*
X438000Y298500D03*
X426500Y302700D03*
X434500Y312500D03*
X437400Y319300D03*
X427600Y316300D03*
X435000Y341000D03*
X427600Y338800D03*
X438000Y353000D03*
X438500Y367500D03*
X453500Y304900D03*
X447800Y297900D03*
X453500Y310300D03*
X447100D03*
X453500Y315600D03*
X453000Y334100D03*
X446900D03*
X446100Y350300D03*
X453400Y345500D03*
X447400D03*
X453400Y340400D03*
Y350600D03*
X451000Y368000D03*
X460500Y298500D03*
X468900Y303200D03*
X459500Y310300D03*
X468820Y310280D03*
X458700Y334100D03*
X468800Y345500D03*
X459400D03*
G54D30*
X113839Y278957D03*
X114232Y287618D03*
X115020Y274232D03*
X118563Y291161D03*
X126437D03*
X131161Y278957D03*
X129980Y274232D03*
X130768Y287618D03*
X153839Y278957D03*
X155020Y274232D03*
X171161Y278957D03*
X169980Y274232D03*
X193839Y278957D03*
X195020Y274232D03*
X211161Y278957D03*
X209980Y274232D03*
G54D25*
X28400Y76749D03*
G54D34*
X388773Y220500D03*
G54D26*
X51000Y340800D03*
X64000Y336800D03*
X66000Y350300D03*
X62000Y347300D03*
X57500Y346800D03*
Y338300D03*
X135800Y337400D03*
X138500Y345500D03*
X114500Y158000D03*
X111000Y63500D03*
X284900Y35400D03*
X291600Y54700D03*
X284900Y41600D03*
X303000Y15200D03*
X297900D03*
Y21400D03*
X302600Y54700D03*
X310000Y41400D03*
Y47600D03*
X360000Y24500D03*
X197900Y253900D03*
X211400D03*
X224700D03*
X237900D03*
X257400Y180100D03*
X197900Y241900D03*
X211400D03*
X224700D03*
X237900D03*
X364500Y169000D03*
X336000Y250400D03*
X347000Y233500D03*
X341389Y251889D03*
X365500Y155600D03*
X358100Y233400D03*
X356094Y264594D03*
X377559Y165441D03*
X371000Y165000D03*
X373000Y246500D03*
X376100Y251000D03*
Y256000D03*
Y261000D03*
X399300Y110800D03*
Y105800D03*
Y120800D03*
Y115800D03*
X407000Y238200D03*
X414216Y67734D03*
X418153D03*
X422090D03*
X414600Y82800D03*
X422129Y71750D03*
X414216Y75609D03*
X418153D03*
X422090D03*
X414216Y71671D03*
X418153D03*
X426027Y67734D03*
X429964D03*
X426027Y75609D03*
X429964D03*
X426027Y71671D03*
X429964D03*
X426300Y238000D03*
X440300Y172300D03*
X446800Y237700D03*
X467000Y238200D03*
X405400Y347100D03*
X424600Y281600D03*
X440000Y289500D03*
Y293500D03*
G54D37*
X464041Y319139D03*
Y336461D03*
G54D28*
X158109Y216602D03*
X154172Y208728D03*
X150235Y204791D03*
Y212665D03*
X154172D03*
Y216602D03*
X158109Y208728D03*
X150235Y228413D03*
X158109Y220539D03*
X154172D03*
X162046Y212665D03*
X169920Y216602D03*
X165984Y212665D03*
Y208728D03*
X169920D03*
X162046Y216602D03*
X165984D03*
X162046Y208728D03*
X169920Y220539D03*
X165984D03*
Y224476D03*
X162046D03*
Y220539D03*
X165984Y228413D03*
X169920D03*
X181732Y208728D03*
X173858Y212665D03*
Y216602D03*
X177794Y208728D03*
Y212665D03*
X173858Y208728D03*
X177794Y216602D03*
Y224476D03*
Y220539D03*
X173858Y228413D03*
X177794D03*
X173858Y220539D03*
Y224476D03*
X142361Y165420D03*
X134487Y161484D03*
Y165420D03*
X138424D03*
X146298D03*
X134487Y141798D03*
X142361Y157546D03*
X134487Y153609D03*
X138424D03*
X142361Y149672D03*
X134487Y145735D03*
X138424D03*
X134487Y149672D03*
X138424D03*
Y157546D03*
X142361Y153609D03*
Y145735D03*
X146298Y157546D03*
X150235Y153609D03*
X146298Y149672D03*
X150235Y157546D03*
X154172D03*
X146298Y153609D03*
X158109Y169358D03*
Y165420D03*
Y161484D03*
Y181168D03*
Y200854D03*
X162046Y169358D03*
Y173294D03*
X169920D03*
X162046Y165420D03*
X165984Y169358D03*
X169920Y165420D03*
X165984D03*
X162046Y189042D03*
X169920D03*
X162046Y181168D03*
X169920D03*
Y185106D03*
Y177232D03*
Y200854D03*
X162046Y196916D03*
X165984Y200854D03*
X162046D03*
X169920Y196916D03*
X173858Y169358D03*
X181732D03*
X173858Y165420D03*
X177794D03*
Y169358D03*
X181732Y200854D03*
X185668Y196916D03*
Y200854D03*
X173858D03*
Y196916D03*
X177794D03*
Y200854D03*
X193542Y165420D03*
X189606Y169358D03*
Y165420D03*
X193542Y169358D03*
Y200854D03*
X189606Y196916D03*
Y200854D03*
X193542Y196916D03*
X142361Y173294D03*
X134487D03*
X138424D03*
X142361Y189042D03*
X134487Y185106D03*
X138424D03*
X142361Y181168D03*
X134487Y177232D03*
X138424D03*
X134487Y181168D03*
X138424D03*
X134487Y189042D03*
X138424D03*
X142361Y177232D03*
Y185106D03*
X134487Y200854D03*
X138424D03*
X134487Y192980D03*
X138424D03*
X134487Y196916D03*
X138424D03*
X134487Y216602D03*
X138424D03*
X134487Y208728D03*
X138424D03*
Y204791D03*
X134487D03*
Y212665D03*
X138424D03*
X134487Y224476D03*
Y220539D03*
X146298Y173294D03*
Y189042D03*
X150235Y185106D03*
X146298Y181168D03*
X150235Y177232D03*
X146298D03*
Y185106D03*
X150235Y181168D03*
X142361Y129987D03*
X138424D03*
X142361Y137861D03*
Y133924D03*
X138424D03*
X146298Y129987D03*
X158109Y133924D03*
X146298D03*
X158109Y137861D03*
Y141798D03*
X154172Y133924D03*
X150235D03*
X158109Y145735D03*
X150235D03*
X154172D03*
X169920Y157546D03*
X162046Y149672D03*
Y145735D03*
X169920Y153609D03*
X165984Y149672D03*
X181732Y157546D03*
X177794D03*
Y153609D03*
X185668Y157546D03*
X173858Y153609D03*
Y157546D03*
X185668Y153609D03*
X193542Y157546D03*
X197480D03*
Y153609D03*
X201417Y157546D03*
Y153609D03*
X189606Y157546D03*
X205354D03*
X217165D03*
Y153609D03*
X209291D03*
X213228D03*
X209291Y157546D03*
X217165Y165420D03*
Y169358D03*
X209291Y161484D03*
X228976Y157546D03*
X225039Y165420D03*
X228976D03*
X169920Y129987D03*
Y133924D03*
Y137861D03*
X165984D03*
X169920Y141798D03*
X173858Y129987D03*
X181732D03*
X177794D03*
X185668D03*
X181732Y133924D03*
X177794Y141798D03*
Y137861D03*
X173858Y133924D03*
Y141798D03*
X177794Y133924D03*
X185668Y141798D03*
X181732Y137861D03*
X185668Y133924D03*
X181732Y145735D03*
X177794D03*
X173858D03*
X185668D03*
X189606Y129987D03*
X193542D03*
Y133924D03*
X201417Y141798D03*
X189606Y137861D03*
Y133924D03*
X197480D03*
Y137861D03*
X193542D03*
Y145735D03*
X197480D03*
X201417D03*
X205354Y129987D03*
X217165D03*
X213228D03*
X205354Y133924D03*
X217165D03*
X205354Y141798D03*
Y137861D03*
X213228D03*
Y133924D03*
X217165Y137861D03*
X213228Y141798D03*
X205354Y145735D03*
X217165D03*
X209291D03*
X213228D03*
X228976Y133924D03*
X225039Y141798D03*
X221102Y137861D03*
X225039D03*
Y129987D03*
X228976Y145735D03*
X177794Y189042D03*
X185668D03*
X181732Y185106D03*
X177794Y181168D03*
X185668D03*
X181732Y177232D03*
X193542Y189042D03*
X201417D03*
X189606Y185106D03*
X197480D03*
X193542Y181168D03*
X189606Y177232D03*
X197480D03*
X217165Y189042D03*
X205354Y185106D03*
X217165Y181168D03*
X205354Y177232D03*
X209291Y181168D03*
Y177232D03*
X213228Y189042D03*
X205354D03*
Y181168D03*
X209291Y185106D03*
Y196916D03*
X205354Y192980D03*
X209291D03*
X217165Y196916D03*
X213228D03*
X228976Y181168D03*
Y189042D03*
X225039D03*
X221102Y185106D03*
X228976Y192980D03*
X225039Y196916D03*
X221102Y192980D03*
X232913Y177232D03*
Y192980D03*
X193542Y212665D03*
X189606Y208728D03*
X197480D03*
X193542Y224476D03*
X189606Y220539D03*
Y224476D03*
Y228413D03*
X193542D03*
X201417Y224476D03*
Y220539D03*
X205354Y212665D03*
X217165D03*
X205354Y224476D03*
X217165D03*
X228976Y216602D03*
X225039D03*
X228976Y212665D03*
Y228413D03*
Y224476D03*
X225039Y220539D03*
X232913Y216602D03*
Y224476D03*
X213228Y204791D03*
X225039D03*
X221102D03*
G54D29*
X239500Y329900D03*
X249500D03*
X259500D03*
X249500Y339900D03*
X259500D03*
X269500Y329900D03*
Y339900D03*
X279500Y329900D03*
X413500Y242000D03*
Y252000D03*
Y267500D03*
X433500Y232000D03*
Y242000D03*
X453500Y232000D03*
Y242000D03*
Y252000D03*
X466000Y277500D03*
X413500Y287500D03*
%LPD*%
G75*
G54D10*
X-10500Y24000D03*
Y39000D03*
Y54000D03*
Y69500D03*
Y84500D03*
Y99500D03*
Y114500D03*
Y129500D03*
Y144500D03*
Y159500D03*
Y174500D03*
Y189500D03*
Y204500D03*
Y219500D03*
Y234500D03*
Y249500D03*
Y264500D03*
Y279500D03*
Y294500D03*
Y309500D03*
Y324500D03*
Y339500D03*
Y354500D03*
X18000Y-11000D03*
X16000Y380500D03*
X33000Y-11000D03*
X31000Y380500D03*
X48000Y-11000D03*
X49500Y39500D03*
X50000Y47500D03*
X51000Y70000D03*
X53000Y62000D03*
X54000Y81500D03*
X50900Y86300D03*
X45900Y96300D03*
Y91300D03*
X50900Y106300D03*
Y101300D03*
X45900Y111300D03*
X50900Y126300D03*
Y121300D03*
X45900Y116300D03*
X50900Y141300D03*
X45900Y136300D03*
Y131300D03*
X50900Y146300D03*
X45900Y156300D03*
Y151300D03*
Y171300D03*
Y176300D03*
Y196300D03*
Y191300D03*
Y216300D03*
Y211300D03*
Y231300D03*
Y236300D03*
Y256300D03*
Y251300D03*
Y276300D03*
Y271300D03*
X44000Y380500D03*
X63000Y-11000D03*
X57500Y117500D03*
Y129000D03*
X68000Y139000D03*
X57500D03*
X59000Y380500D03*
X78000Y-11000D03*
X76500Y25000D03*
X75000Y128500D03*
X76000Y144500D03*
X74000Y380500D03*
X93000Y-11000D03*
X96000Y33000D03*
Y28000D03*
Y35500D03*
Y30500D03*
X98500Y33000D03*
X98000Y38000D03*
X93100Y84100D03*
X94600Y82000D03*
X95800Y94100D03*
X91600Y86200D03*
X95800Y104100D03*
X91500Y142500D03*
X89000Y380500D03*
X108000Y-11000D03*
X99300Y35500D03*
X100500Y38000D03*
X99300Y40500D03*
X111000Y40000D03*
X100500Y43000D03*
X113232Y50231D03*
X99000Y49000D03*
X108000D03*
X103500D03*
X113000Y43000D03*
X104000Y380500D03*
X123000Y-11000D03*
X119500Y70500D03*
X119000Y380500D03*
X138000Y-11000D03*
X132500Y70500D03*
Y85500D03*
X131500Y114500D03*
Y102500D03*
X134000Y380500D03*
X153000Y-11000D03*
X144500Y70500D03*
X148500Y242500D03*
X147500Y260500D03*
X151000Y310000D03*
Y380500D03*
X168000Y-11000D03*
X164500Y-2000D03*
X168300Y9700D03*
X170800Y12200D03*
X170600Y25800D03*
Y17400D03*
X167800Y19700D03*
X167700Y23400D03*
X170600Y31000D03*
X167700Y33400D03*
X166000Y310000D03*
Y380500D03*
X183000Y-11000D03*
X181000Y310000D03*
X173700Y340600D03*
X181000Y380500D03*
X198000Y-11000D03*
X191500Y293000D03*
X196000Y310000D03*
X195000Y328000D03*
X195500Y350500D03*
X196000Y380500D03*
X213000Y-11000D03*
X211000Y293000D03*
Y310000D03*
X212000Y328000D03*
X217500Y335000D03*
X210500Y350500D03*
X211000Y380500D03*
X228000Y-11000D03*
X231300Y124900D03*
X220000Y287500D03*
X227500Y310000D03*
X226000Y350500D03*
Y380500D03*
X243000Y-11000D03*
X244500Y95000D03*
X243800Y125000D03*
X246000Y119000D03*
X236500D03*
X240500D03*
X241700Y151600D03*
X244000Y159500D03*
Y164500D03*
X244030Y172250D03*
Y167250D03*
X240600Y233200D03*
X245800Y230438D03*
X246400Y258900D03*
X246100Y253900D03*
X241000Y310000D03*
X238500Y350500D03*
X241000Y380500D03*
X258000Y-11000D03*
X259000Y95500D03*
X257000Y119000D03*
X251600D03*
X254800Y125000D03*
X250000D03*
X257000Y161000D03*
X256500Y171000D03*
X258332Y225632D03*
X250200Y262900D03*
X258000Y302500D03*
Y316500D03*
X255500Y348900D03*
X256000Y380500D03*
X273000Y-11000D03*
X273500Y95500D03*
X266000Y115000D03*
X272000Y109500D03*
X262000Y119000D03*
X267000Y172000D03*
Y160000D03*
Y165000D03*
Y167000D03*
X265700Y218400D03*
X272841Y207741D03*
X276500Y303500D03*
X269000Y316500D03*
X271000Y380500D03*
X288000Y-11000D03*
X278500Y204000D03*
X282200Y286200D03*
X286500Y304000D03*
X286000Y380500D03*
X303000Y-11000D03*
X296500Y3500D03*
X301100Y26200D03*
X292400Y279000D03*
X292600Y286200D03*
X294000Y316500D03*
X301000Y380500D03*
X318000Y-11000D03*
X311500Y3500D03*
X311000Y66000D03*
Y316500D03*
X316000Y380500D03*
X333000Y-11000D03*
X326500Y3500D03*
X325500Y56500D03*
X331000Y380500D03*
X348000Y-11000D03*
X341500Y3500D03*
X350000Y75500D03*
X339000Y173500D03*
X341474Y255826D03*
X350647Y326647D03*
X346000Y380500D03*
X363000Y-11000D03*
X353500Y3500D03*
X356000Y65500D03*
X355000Y152000D03*
X354000Y284900D03*
Y289400D03*
Y280400D03*
X358600Y320400D03*
X356400Y321900D03*
X360600Y318900D03*
X354105Y315405D03*
Y313396D03*
X352653Y326647D03*
X354105Y345305D03*
Y343305D03*
X361000Y380500D03*
X378000Y-11000D03*
X368500Y3500D03*
X373500Y178500D03*
X373000Y265500D03*
X365916Y313596D03*
X375758Y346246D03*
Y343958D03*
X376000Y380500D03*
X393000Y-11000D03*
X388100Y274900D03*
X388233Y279800D03*
Y289800D03*
X391000Y380500D03*
X408000Y-11000D03*
X406000Y380500D03*
X423000Y-11000D03*
X417000Y192500D03*
X414400Y325200D03*
Y340100D03*
X421000Y380500D03*
X438000Y-11000D03*
X436000Y380500D03*
X453000Y-11000D03*
X452100Y175400D03*
X455000Y380500D03*
X481500Y22500D03*
Y37500D03*
Y52500D03*
Y82000D03*
Y97000D03*
Y112000D03*
Y127000D03*
Y142000D03*
Y157000D03*
Y172000D03*
Y187000D03*
Y202000D03*
Y217000D03*
Y232000D03*
Y247000D03*
Y262000D03*
Y277000D03*
Y292000D03*
Y307000D03*
Y322000D03*
X480900Y310300D03*
X481500Y337000D03*
Y352000D03*
X480920Y345320D03*
G54D20*
X417000Y138200D03*
Y163800D03*
X438500Y138200D03*
Y163800D03*
X460000Y138200D03*
Y163800D03*
G54D11*
X31500Y336300D03*
X28500Y335800D03*
Y332800D03*
X31500D03*
X34500Y333800D03*
X35000Y338800D03*
X28500D03*
X50690Y316300D03*
X53190Y321300D03*
X50690Y326300D03*
X42000Y340800D03*
X68000Y39000D03*
Y42500D03*
X65690Y321800D03*
X60690D03*
X63190Y318800D03*
X58190D03*
X65690Y316300D03*
X60690D03*
X55690D03*
Y326300D03*
X81500Y39000D03*
X78000D03*
X74500D03*
X71000D03*
X81500Y42500D03*
X78000D03*
X74500D03*
X71000D03*
X73944Y320780D03*
X73025Y318305D03*
X72035Y315759D03*
X97732Y172500D03*
Y164000D03*
Y181500D03*
X97800Y321200D03*
X95600Y316200D03*
X96700Y318700D03*
X93300Y321200D03*
X91100Y316200D03*
X92200Y318700D03*
X88800Y321200D03*
X87700Y318700D03*
X86600Y316200D03*
X88800Y324700D03*
X93300D03*
X97800D03*
X104268Y172500D03*
Y164000D03*
Y181500D03*
X122500Y54000D03*
X120000Y55500D03*
X125000D03*
X127500Y61000D03*
X125000Y59500D03*
X122500Y61000D03*
Y57500D03*
X128000D03*
X126500Y158000D03*
X123532Y181600D03*
X121000Y333500D03*
Y336500D03*
Y339500D03*
Y342500D03*
X124000Y340000D03*
X127000D03*
X123500Y343000D03*
X126500D03*
X130068Y181600D03*
X244800Y110100D03*
X245400Y180100D03*
X257000Y110500D03*
X276500Y19000D03*
Y16000D03*
X285000Y25600D03*
X282000Y25500D03*
X280000Y23500D03*
X278000Y21500D03*
X305500Y20500D03*
X304000Y25000D03*
X306000Y23500D03*
X303000Y21400D03*
X308000Y22000D03*
X309200Y25000D03*
X333500Y55500D03*
X336000Y50500D03*
X334700Y53000D03*
X336000Y256600D03*
X349500Y39000D03*
X347500Y40500D03*
X343000Y50500D03*
X341700Y53000D03*
X340500Y55500D03*
X337000D03*
X339500Y50500D03*
X338200Y53000D03*
X351000Y42000D03*
X345500D03*
X350500Y233500D03*
X353500Y35000D03*
X351500Y36500D03*
X355500Y33500D03*
X360000Y34000D03*
X355000Y39000D03*
X353000Y40500D03*
X357500Y55500D03*
X356300Y53000D03*
X355000Y50500D03*
X356500Y80500D03*
Y77500D03*
X359500Y80500D03*
Y77500D03*
X362500Y80500D03*
Y77500D03*
X365500D03*
Y80500D03*
X364300Y100200D03*
X360700D03*
X357100Y100100D03*
X353500Y100000D03*
X364500Y143500D03*
Y146500D03*
X365500Y149400D03*
X354300Y233400D03*
X371500Y7000D03*
X373000Y19000D03*
X367000Y30000D03*
Y38000D03*
X378000Y112500D03*
Y106500D03*
Y109500D03*
X380500Y111000D03*
Y114000D03*
Y105000D03*
Y108000D03*
X378000Y115500D03*
X367500Y143500D03*
X368500Y149500D03*
X368000Y146500D03*
X371000Y152000D03*
X393500Y33000D03*
Y29500D03*
X390500D03*
X384000Y33000D03*
X390500D03*
X387500Y30500D03*
X396500Y33000D03*
Y29500D03*
X399000Y217100D03*
X399100Y210300D03*
X399000Y213600D03*
X403000Y217100D03*
X407000Y217000D03*
Y213500D03*
X403100Y210300D03*
X406900D03*
X403000Y213600D03*
X419500Y84400D03*
X424700D03*
X422000Y186000D03*
X419400Y184400D03*
X425000Y181100D03*
X422800Y183400D03*
X410600Y217100D03*
X420000Y206800D03*
X415500Y207800D03*
X410700Y210300D03*
X410600Y213600D03*
X434500Y84500D03*
X438100Y81400D03*
X429600Y84400D03*
X439700Y88400D03*
X430000Y184000D03*
X426500D03*
X428700Y181000D03*
X432300Y264100D03*
X439900Y276000D03*
X439100Y267100D03*
X439900Y279500D03*
X442100Y84300D03*
X440100Y82800D03*
X448500Y84300D03*
Y81100D03*
X445000Y85500D03*
Y81500D03*
Y97500D03*
X442000Y93000D03*
X445000Y90000D03*
X448500Y93000D03*
X448400Y88200D03*
Y96900D03*
X445000Y102500D03*
Y107000D03*
Y111500D03*
X449500Y113500D03*
Y110000D03*
X448400Y100400D03*
X442400Y264100D03*
G54D12*
X102000Y28800D03*
X283200Y16700D03*
X342000Y36900D03*
X346300Y110400D03*
X419100Y216000D03*
G54D21*
X442500Y51400D03*
X455300Y32500D03*
G54D22*
G01X28000Y-89900D02*
Y-94900D01*
X30000D01*
G01X31250D02*
X32500Y-89900D01*
X33750Y-94900D01*
G01X33300Y-93150D02*
X31700D01*
G01X36000Y-94900D02*
Y-92650D01*
X35000Y-89900D01*
G01X37000D02*
X36000Y-92650D01*
G01X40500Y-94900D02*
X38500D01*
Y-89900D01*
X40500D01*
G01X39700Y-92317D02*
X38500D01*
G01X42000Y-94900D02*
Y-89900D01*
X43250D01*
X43650Y-90150D01*
X43900Y-90483D01*
X44000Y-91150D01*
X43900Y-91817D01*
X43600Y-92233D01*
X43250Y-92483D01*
X42000D01*
G01X43250D02*
X44000Y-94900D01*
G01X49900D02*
X50000Y-93817D01*
X50150Y-92900D01*
X50350Y-92067D01*
X50600Y-91150D01*
X51000Y-89900D01*
X49000D01*
G01X60250Y-96567D02*
X59750Y-95733D01*
X59500Y-94900D01*
Y-91567D01*
X59750Y-90733D01*
X60250Y-89900D01*
G01X63000Y-94900D02*
Y-89900D01*
X64200D01*
X64600Y-90150D01*
X64900Y-90733D01*
X65000Y-91400D01*
X64900Y-92067D01*
X64650Y-92567D01*
X64200Y-92817D01*
X63000D01*
G01X66000Y-89900D02*
X66700Y-94900D01*
X67500Y-89900D01*
X68300Y-94900D01*
X69000Y-89900D01*
G01X70000Y-94900D02*
Y-89900D01*
X71250D01*
X71650Y-90150D01*
X71900Y-90483D01*
X72000Y-91150D01*
X71900Y-91817D01*
X71600Y-92233D01*
X71250Y-92483D01*
X70000D01*
G01X71250D02*
X72000Y-94900D01*
G01X74500D02*
Y-89900D01*
X73900Y-90900D01*
G01Y-94900D02*
X75100D01*
G01X78250Y-96567D02*
X78750Y-95733D01*
X79000Y-94900D01*
Y-91567D01*
X78750Y-90733D01*
X78250Y-89900D01*
G01X148500Y161000D02*
Y162500D01*
X149500Y163500D01*
X151000D01*
G01X152400Y165000D02*
Y166500D01*
X153100Y167200D01*
X154500D01*
G54D13*
X158528Y55136D03*
Y85938D03*
X150235Y141798D03*
X154172Y149672D03*
X158109Y173294D03*
X150235D03*
X154172D03*
X150235Y165420D03*
X158109Y189042D03*
X150235D03*
X154172Y185106D03*
X150235Y200854D03*
X146298Y196916D03*
X150235D03*
X158109Y212665D03*
X146298D03*
X150235Y208728D03*
X146298Y204791D03*
X150235Y224476D03*
X158109D03*
X164827Y55136D03*
X172800Y60700D03*
X164827Y85938D03*
X165984Y129987D03*
Y141798D03*
X162046Y153609D03*
X165984Y173294D03*
X169920Y169358D03*
X165984Y181168D03*
X169920Y192980D03*
Y212665D03*
Y224476D03*
X183528Y38438D03*
X183724Y67040D03*
X180575Y57105D03*
X181805Y79819D03*
X175506D03*
X186874Y88064D03*
X173858Y137861D03*
X185668D03*
X177794Y149672D03*
X185668D03*
Y169358D03*
X173858Y173294D03*
X181732D03*
X173858Y189042D03*
X181732D03*
X177794Y185106D03*
X185668D03*
X173858Y181168D03*
X181732D03*
X177794Y177232D03*
X185668D03*
X181732Y192980D03*
Y212665D03*
Y224476D03*
X189827Y38438D03*
X196323Y55136D03*
X190024D03*
X193173Y57105D03*
X200702Y79819D03*
X194403D03*
X202622Y85938D03*
X196323D03*
X197480Y129987D03*
Y141798D03*
X201417Y149672D03*
X197480Y169358D03*
X189606Y173294D03*
X197480D03*
X189606Y189042D03*
X197480D03*
X193542Y185106D03*
X201417D03*
X189606Y181168D03*
X197480D03*
X201417D03*
X193542Y177232D03*
X201417D03*
X197480Y192980D03*
X189606Y216602D03*
X197480Y212665D03*
X189606Y204791D03*
X197480Y228413D03*
X211874Y40564D03*
X206805Y32319D03*
X203852Y63381D03*
X209291Y129987D03*
Y141798D03*
X205354Y169358D03*
X217165Y173294D03*
X205354Y200854D03*
Y204791D03*
X209291Y212665D03*
Y224476D03*
X219403Y32319D03*
X221323Y38438D03*
X225702Y32319D03*
X227622Y38438D03*
X221102Y157546D03*
X228976Y204791D03*
X221102Y216602D03*
Y228413D03*
X232913Y153609D03*
Y165420D03*
G54D14*
X154232Y287618D03*
X158563Y291161D03*
X166437D03*
X170768Y287618D03*
X194232D03*
X198563Y291161D03*
X206437D03*
X210768Y287618D03*
G54D15*
X181700Y16000D03*
X183600Y24100D03*
X180400Y26100D03*
X188000Y16100D03*
X186700Y26200D03*
X183600Y21700D03*
X186700Y23800D03*
X184800Y13300D03*
X188000Y34900D03*
X184800Y32000D03*
X196200Y24200D03*
X193100Y26100D03*
X189900Y24200D03*
X196200Y21800D03*
X189900D03*
X191200Y13300D03*
X199400Y26000D03*
X202500Y24100D03*
X194300Y35000D03*
X191200Y32300D03*
X197500D03*
X199300Y42900D03*
G54D16*
X240000Y292500D03*
X260000D03*
X285000Y95000D03*
Y150000D03*
X290000Y217500D03*
X305000Y75000D03*
Y130000D03*
X296000Y272500D03*
Y292500D03*
X316000Y272500D03*
Y292500D03*
G54D17*
X239500Y339900D03*
X279500D03*
X388773Y210500D03*
X466000Y267500D03*
G54D18*
X374079Y25811D03*
X372366D03*
X374079Y24189D03*
X372366D03*
G54D19*
X430700Y32500D03*
M02*
