G04 ================== begin FILE IDENTIFICATION RECORD ==================*
G04 Layout Name:  C:/userdata/Boards/TSW14J50_B/TSW14J50_B.brd*
G04 Film Name:    LYR12_SIG4*
G04 File Format:  Gerber RS274X*
G04 File Origin:  Cadence Allegro 16.6-S019*
G04 Origin Date:  Tue Apr 01 14:59:11 2014*
G04 *
G04 Layer:  VIA CLASS/L12-SIG4*
G04 Layer:  PIN/L12-SIG4*
G04 Layer:  ETCH/L12-SIG4*
G04 Layer:  BOARD GEOMETRY/TOOLING_CORNERS*
G04 *
G04 Offset:    (0.000 0.000)*
G04 Mirror:    No*
G04 Mode:      Positive*
G04 Rotation:  0*
G04 FullContactRelief:  No*
G04 UndefLineWidth:     7.000*
G04 ================== end FILE IDENTIFICATION RECORD ====================*
%FSLAX55Y55*MOIN*%
%IR0*IPPOS*OFA0.00000B0.00000*MIA0B0*SFA1.00000B1.00000*%
%ADD12C,.15*%
%ADD20C,.17*%
%ADD10C,.01*%
%ADD11C,.02*%
%ADD16C,.03*%
%ADD13C,.022*%
%ADD23C,.05*%
%ADD14C,.016*%
%ADD21C,.08*%
%ADD17C,.018*%
%ADD15C,.092*%
%ADD22C,.022008*%
%ADD19C,.058*%
%ADD18C,.097*%
%ADD24C,.004*%
%ADD25C,.005*%
%ADD26C,.0042*%
%ADD27C,.006*%
%ADD28C,.008*%
%ADD29C,.0036*%
%ADD30C,.028004*%
G75*
%LPD*%
G75*
G36*
G01X160000Y163600D02*
Y172000D01*
X161512D01*
X161546Y171987D01*
G03X162547I500J1308D01*
G01X162582Y172000D01*
X165448D01*
X165483Y171987D01*
G03X166484I501J1308D01*
G01X166518Y172000D01*
X168000D01*
X168335Y172335D01*
G02X168907Y172328I283J-283D01*
G03X170887Y174308I1013J966D01*
G02X170880Y174880I276J289D01*
G01X172272Y176272D01*
G02X172844Y176265I283J-283D01*
G03X174824Y178245I1013J966D01*
G02X174817Y178817I276J289D01*
G01X175750Y179750D01*
X187250D01*
X187500Y180000D01*
Y210600D01*
X188500Y211600D01*
Y216900D01*
X189200Y217600D01*
X193900D01*
X200000Y211500D01*
Y177000D01*
X200042Y176958D01*
X200055Y176903D01*
G03X201088Y175870I1361J328D01*
G01X201143Y175857D01*
X201500Y175500D01*
X216500D01*
X218000Y174000D01*
Y170820D01*
X217795Y170615D01*
X217673Y170662D01*
G03X215860Y168849I-508J-1305D01*
G01X215907Y168727D01*
X210780Y163600D01*
X202747D01*
G03X200086I-1331J-2117D01*
G01X198810D01*
G03X196149I-1331J-2117D01*
G01X182000D01*
Y164751D01*
X179562Y167188D01*
G03X178857Y167684I-1768J-1768D01*
G02X178753Y168337I170J362D01*
G03X176836I-959J1020D01*
G02X176732Y167684I-274J-291D01*
G03X175615Y164196I1063J-2263D01*
G02X175266Y163600I-349J-196D01*
G01X171251D01*
G03X170983Y163747I-1331J-2116D01*
G02X170879Y164400I170J362D01*
G03X168962I-959J1020D01*
G02X168858Y163747I-274J-291D01*
G03X168590Y163600I1063J-2263D01*
G01X160000D01*
G37*
%LPC*%
G75*
G54D30*
X162046Y169358D03*
X169920D03*
X165984D03*
Y165420D03*
X177794Y173294D03*
X185668D03*
X173858Y169358D03*
X181732D03*
X185668D03*
X173858Y173294D03*
X181732D03*
Y177232D03*
X177794D03*
X185668D03*
X193542Y173294D03*
X201417D03*
X193542Y165420D03*
X197480Y169358D03*
X189606D03*
Y165420D03*
Y173294D03*
X197480D03*
X193542Y169358D03*
X201417D03*
X193542Y189042D03*
X189606Y185106D03*
X197480D03*
X193542Y181168D03*
X189606Y177232D03*
X197480D03*
X189606Y189042D03*
X197480D03*
X193542Y185106D03*
X189606Y181168D03*
X197480D03*
X193542Y177232D03*
Y200854D03*
X189606Y196916D03*
Y200854D03*
X197480Y192980D03*
X193542D03*
Y212665D03*
X189606Y208728D03*
X197480D03*
Y204791D03*
X205354Y169358D03*
Y165420D03*
Y173294D03*
X213228Y169358D03*
Y173294D03*
%LPD*%
G75*
G54D10*
X0Y0D03*
Y370000D03*
X147948Y139748D03*
X152048Y139548D03*
X152552Y163248D03*
X164352Y186948D03*
X160252Y178848D03*
Y186748D03*
X164352Y179048D03*
Y194848D03*
X160252Y194648D03*
X181700Y16000D03*
X183600Y24100D03*
X180400Y26100D03*
X188000Y16100D03*
X186700Y26200D03*
X183600Y21700D03*
X186700Y23800D03*
X184800Y13300D03*
X188000Y34900D03*
X184800Y32000D03*
X196200Y24200D03*
X193100Y26100D03*
X189900Y24200D03*
X196200Y21800D03*
X189900D03*
X191200Y13300D03*
X199400Y26000D03*
X202500Y24100D03*
X194300Y35000D03*
X191200Y32300D03*
X197500D03*
X199300Y42900D03*
X470000Y0D03*
Y370000D03*
G54D11*
X-10500Y24000D03*
Y39000D03*
Y54000D03*
Y69500D03*
Y84500D03*
Y99500D03*
Y114500D03*
Y129500D03*
Y144500D03*
Y159500D03*
Y174500D03*
Y189500D03*
Y204500D03*
Y219500D03*
Y234500D03*
Y249500D03*
Y264500D03*
Y279500D03*
Y294500D03*
Y309500D03*
Y324500D03*
Y339500D03*
Y354500D03*
X8000Y24500D03*
Y39000D03*
X8500Y54500D03*
X9000Y70000D03*
X5900Y91300D03*
Y106300D03*
Y121300D03*
Y136300D03*
Y151300D03*
Y166300D03*
Y181300D03*
Y176300D03*
Y186300D03*
Y196300D03*
Y211300D03*
Y226300D03*
Y241300D03*
Y256300D03*
Y261300D03*
Y276300D03*
Y271300D03*
Y266300D03*
X6000Y294500D03*
Y310000D03*
X6500Y324500D03*
X7000Y339500D03*
X18000Y-11000D03*
Y81500D03*
X20900Y96300D03*
Y86300D03*
X15900Y91300D03*
X10900Y96300D03*
Y86300D03*
X20900Y91300D03*
X15900Y86300D03*
X20900Y111300D03*
X15900Y106300D03*
X10900Y111300D03*
X20900Y126300D03*
X15900Y121300D03*
X10900Y126300D03*
X15900D03*
X20900Y141300D03*
X15900Y136300D03*
X10900Y141300D03*
X15900Y131300D03*
X20900Y156300D03*
X15900Y151300D03*
X10900Y156300D03*
X20900Y171300D03*
X15900Y166300D03*
X10900Y171300D03*
X20900Y186300D03*
X15900Y181300D03*
X10900Y186300D03*
Y181300D03*
Y176300D03*
X20900Y201300D03*
X15900Y196300D03*
X10900Y201300D03*
X15900D03*
X20900Y216300D03*
X15900Y211300D03*
X10900Y216300D03*
X20900Y211300D03*
Y206300D03*
X15900D03*
X20900Y231300D03*
X15900Y226300D03*
X10900Y231300D03*
X20900Y221300D03*
Y226300D03*
Y246300D03*
X15900Y241300D03*
X10900Y246300D03*
X20900Y241300D03*
Y236300D03*
Y261300D03*
X15900Y256300D03*
X10900Y261300D03*
X15900D03*
X20900Y256300D03*
Y251300D03*
Y266300D03*
X15900Y271300D03*
X10900Y266300D03*
X15900D03*
X20900Y276300D03*
Y271300D03*
X15900Y276300D03*
X10900D03*
Y271300D03*
X20900Y281300D03*
X10900D03*
X21500Y324500D03*
X22000Y339500D03*
X14500Y355500D03*
X23500Y369000D03*
X16000Y380500D03*
X33000Y-11000D03*
X25000Y10000D03*
Y24500D03*
Y39000D03*
X36000Y62000D03*
Y81000D03*
X35900Y91300D03*
X30900Y96300D03*
Y86300D03*
X25900Y91300D03*
X35900Y96300D03*
Y86300D03*
X30900Y91300D03*
X25900Y86300D03*
X35900Y101300D03*
X30900Y111300D03*
X25900Y106300D03*
X35900D03*
X30900Y126300D03*
X25900Y121300D03*
X30900Y141300D03*
X25900Y136300D03*
X35900Y146300D03*
X30900Y156300D03*
X25900Y151300D03*
X35900Y161300D03*
X30900Y171300D03*
X25900Y166300D03*
X35900Y171300D03*
Y166300D03*
Y176300D03*
X30900Y186300D03*
X25900Y181300D03*
X35900Y186300D03*
Y181300D03*
X25900Y186300D03*
X35900Y191300D03*
X30900Y201300D03*
X25900Y196300D03*
X35900Y201300D03*
Y196300D03*
X25900Y191300D03*
X35900Y206300D03*
X30900Y216300D03*
X25900Y211300D03*
X35900Y221300D03*
X30900Y231300D03*
X25900Y226300D03*
X35900D03*
Y231300D03*
X25900D03*
X35900Y236300D03*
X30900Y246300D03*
X25900Y241300D03*
X35900Y246300D03*
Y241300D03*
X25900Y236300D03*
X35900Y256300D03*
Y251300D03*
X30900Y261300D03*
X25900Y256300D03*
X35900Y261300D03*
Y276300D03*
Y271300D03*
X30900Y266300D03*
X25900Y276300D03*
Y271300D03*
X35900Y266300D03*
X30900Y281300D03*
X25900D03*
X31000Y294500D03*
X36500Y310000D03*
X31000Y380500D03*
X48000Y-11000D03*
X44000Y10000D03*
X47500Y24500D03*
X49500Y39500D03*
X50000Y47500D03*
X51000Y70000D03*
X53000Y62000D03*
X54000Y81500D03*
X50900Y86300D03*
X45900Y96300D03*
Y91300D03*
X40900Y96300D03*
Y86300D03*
Y91300D03*
X50900Y96300D03*
Y91300D03*
Y106300D03*
Y101300D03*
X45900Y111300D03*
X40900Y106300D03*
Y111300D03*
Y101300D03*
X50900Y111300D03*
X45900Y106300D03*
Y101300D03*
X50900Y126300D03*
Y121300D03*
X45900Y116300D03*
X40900Y126300D03*
Y121300D03*
X50900Y116300D03*
X45900Y126300D03*
Y121300D03*
X50900Y141300D03*
X45900Y136300D03*
Y131300D03*
X40900Y141300D03*
X50900Y136300D03*
Y131300D03*
Y146300D03*
X45900Y156300D03*
Y151300D03*
X40900Y146300D03*
X50900Y156300D03*
Y151300D03*
Y166300D03*
Y161300D03*
X45900Y171300D03*
X40900Y166300D03*
Y161300D03*
X50900Y171300D03*
Y186300D03*
Y181300D03*
X45900Y176300D03*
X40900Y186300D03*
Y181300D03*
X45900Y186300D03*
Y181300D03*
X50900Y176300D03*
Y201300D03*
X45900Y196300D03*
Y191300D03*
X40900Y201300D03*
X50900Y196300D03*
Y191300D03*
X45900Y201300D03*
X50900Y206300D03*
X45900Y216300D03*
Y211300D03*
X40900Y206300D03*
X50900Y216300D03*
Y211300D03*
X45900Y206300D03*
X50900Y226300D03*
Y221300D03*
X45900Y231300D03*
X40900Y226300D03*
Y221300D03*
X50900Y231300D03*
X45900Y226300D03*
Y221300D03*
X50900Y246300D03*
Y241300D03*
X45900Y236300D03*
X40900Y246300D03*
Y241300D03*
X50900Y236300D03*
Y261300D03*
X45900Y256300D03*
Y251300D03*
X40900Y261300D03*
X50900Y256300D03*
Y251300D03*
X40900Y256300D03*
Y251300D03*
X50900Y266300D03*
X45900Y276300D03*
Y271300D03*
X40900Y266300D03*
X50900Y276300D03*
Y271300D03*
X40900Y276300D03*
Y271300D03*
X50900Y281300D03*
X40900D03*
X51500Y293500D03*
Y310000D03*
X41200Y352500D03*
X44000Y380500D03*
X63000Y-11000D03*
Y10000D03*
Y24500D03*
X66500Y48500D03*
Y69000D03*
X66000Y109500D03*
X57500Y117500D03*
Y129000D03*
X68000Y139000D03*
X57500D03*
X59500Y161000D03*
X61312Y204088D03*
X64937Y205663D03*
X67462Y207238D03*
X67000Y227000D03*
X64000Y251500D03*
X67500Y279000D03*
X67000Y293500D03*
X66000Y310000D03*
X57500Y342300D03*
Y358300D03*
X59000Y380500D03*
X78000Y-11000D03*
X77500Y10000D03*
X76500Y25000D03*
X78000Y58000D03*
X72000Y82500D03*
X81800Y87100D03*
Y91100D03*
X72500Y111100D03*
X81800D03*
Y106600D03*
X75000Y128500D03*
X76800Y116800D03*
X76000Y144500D03*
X82000Y167000D03*
X71000Y182000D03*
X69300Y201600D03*
X83100Y203900D03*
X69300Y197600D03*
X72650Y199150D03*
X70387Y208813D03*
X82600Y219000D03*
X72600Y219400D03*
X79000Y229200D03*
X83500Y230000D03*
X83000Y227500D03*
X78200Y233500D03*
X76700Y241500D03*
X83400Y244700D03*
X73000Y244000D03*
X76600Y238600D03*
Y250400D03*
X80600Y254400D03*
X80800Y260500D03*
X82500Y279500D03*
Y293500D03*
X74000Y380500D03*
X93000Y-11000D03*
X90500Y11000D03*
X89500Y25500D03*
X96000Y33000D03*
Y28000D03*
Y35500D03*
Y30500D03*
X98500Y33000D03*
X98000Y38000D03*
X89000Y48000D03*
X91500Y58500D03*
X87000Y69500D03*
X93100Y84100D03*
X94600Y82000D03*
X95800Y94100D03*
X91600Y86200D03*
X91800Y94100D03*
X91000Y111100D03*
X95800Y104100D03*
X91800D03*
X95500Y120500D03*
X89500Y129000D03*
X85800Y116800D03*
X91500Y142500D03*
X92000Y182000D03*
X93200Y194000D03*
X97200D03*
X86500Y206500D03*
X90200Y204700D03*
X92000Y219700D03*
X91400Y229300D03*
X93400Y231800D03*
X88100Y229500D03*
X97500Y225800D03*
Y229800D03*
X93000Y246200D03*
X97500Y245500D03*
X89400Y239300D03*
X88600Y241600D03*
X95100Y240100D03*
X86600Y250400D03*
X90600Y254400D03*
X98300Y280100D03*
X89000Y380500D03*
X108000Y-11000D03*
Y11000D03*
X99300Y35500D03*
X100500Y38000D03*
X99300Y40500D03*
X111000Y40000D03*
X100500Y43000D03*
X113232Y50231D03*
X99000Y49000D03*
X108000D03*
X103500D03*
X113000Y43000D03*
X112901Y53799D03*
X108500Y68000D03*
X99000Y77000D03*
X103600Y89100D03*
X106100D03*
X109100D03*
X111600D03*
X105000Y128500D03*
X108000Y139500D03*
X100300Y150400D03*
Y153900D03*
Y145100D03*
X101000Y161500D03*
Y166500D03*
Y175000D03*
Y184000D03*
X101100Y202000D03*
X99900Y199800D03*
X102000Y214200D03*
X101300Y204700D03*
X111700Y207200D03*
X108000Y209200D03*
X102200Y209800D03*
X111000Y213100D03*
X108000Y213800D03*
X104850Y219050D03*
X102000Y259500D03*
X103500Y293500D03*
X110500Y310000D03*
X100800Y333500D03*
X111000Y355000D03*
X104000Y380500D03*
X123000Y-11000D03*
X114000Y22000D03*
X116500Y34000D03*
Y47700D03*
X119500Y70500D03*
X116800Y63600D03*
X115500Y73800D03*
Y77800D03*
Y81800D03*
Y85800D03*
X127500Y102500D03*
Y114500D03*
X128500Y129000D03*
X126000Y119500D03*
X117500Y140000D03*
Y165500D03*
X119500Y184000D03*
X126800Y184100D03*
X121000Y241500D03*
X125100Y272200D03*
Y268600D03*
X119800Y270300D03*
X122500Y270295D03*
X123500Y284000D03*
X114100Y357200D03*
X116000Y355000D03*
X125700Y354000D03*
X119000Y380500D03*
X138000Y-11000D03*
X136000Y22500D03*
X130500Y13500D03*
X134500Y44500D03*
X132500Y70500D03*
X137500Y59000D03*
X132500Y85500D03*
X131500Y114500D03*
Y102500D03*
X139000Y119500D03*
X142400Y125900D03*
X138500D03*
X134800D03*
X130500Y220500D03*
X131500Y241500D03*
X140800Y233900D03*
Y237900D03*
X132500Y260500D03*
X143000Y250000D03*
X136000Y293000D03*
Y310000D03*
X138500Y349500D03*
X132500Y360000D03*
X134000Y380500D03*
X153000Y-11000D03*
X144000Y14000D03*
X155500Y22000D03*
X145000Y33000D03*
X144500Y70500D03*
X148500Y242500D03*
X147500Y260500D03*
X151000Y310000D03*
X148300Y323700D03*
X151000Y380500D03*
X168000Y-11000D03*
X164500Y-2000D03*
X164800Y10000D03*
X168300Y9700D03*
X161000Y17400D03*
X160900Y12200D03*
X161100Y25800D03*
X164700Y23500D03*
X164800Y19600D03*
X170800Y12200D03*
X170600Y25800D03*
Y17400D03*
X167800Y19700D03*
X167700Y23400D03*
X161000Y31000D03*
X164700Y33200D03*
X170600Y31000D03*
X167700Y33400D03*
X166000Y126000D03*
X171800Y263000D03*
X162400D03*
X158400D03*
X167800D03*
X159900Y268500D03*
Y272100D03*
X165100Y270300D03*
X162500Y270295D03*
X166000Y310000D03*
Y356890D03*
X161000Y361500D03*
X166000Y380500D03*
X161000Y371600D03*
X183000Y-11000D03*
X187000Y258500D03*
X179300Y257100D03*
X181200Y263000D03*
X177200D03*
X175300Y257100D03*
X181000Y310000D03*
X173700Y340600D03*
X183500Y361500D03*
X181000Y380500D03*
X183400Y371600D03*
X198000Y-11000D03*
X199400Y7100D03*
X189500Y232600D03*
Y236100D03*
X189800Y256400D03*
X194600Y261000D03*
X198700Y270100D03*
X202500Y274800D03*
X191500Y269500D03*
X202500Y270295D03*
X191500Y293000D03*
X196000Y310000D03*
X195000Y328000D03*
X195500Y350500D03*
X188000Y356890D03*
X196000Y380500D03*
X213000Y-11000D03*
X206900Y60400D03*
X204500Y260400D03*
X210500Y262500D03*
X206000Y269700D03*
X211000Y293000D03*
X203500Y282500D03*
X211000Y310000D03*
X212000Y328000D03*
X217500Y335000D03*
X210500Y350500D03*
X210000Y356890D03*
X205000Y361500D03*
X211000Y380500D03*
X205000Y371600D03*
X228000Y-11000D03*
X232249Y14052D03*
X231300Y124900D03*
X225100Y126000D03*
X225500Y263000D03*
X226700Y268600D03*
Y275700D03*
X221500Y269500D03*
X227200Y281800D03*
X220000Y287500D03*
X227500Y310000D03*
X225200Y321500D03*
X226000Y350500D03*
X226400Y343300D03*
X232000Y356890D03*
X227000Y361500D03*
X226000Y380500D03*
X227000Y371600D03*
X243000Y-11000D03*
X236500Y3500D03*
X240000Y19500D03*
X243000Y33000D03*
X244000Y48500D03*
X244500Y63500D03*
Y79000D03*
Y95000D03*
X244800Y88100D03*
X243000Y90600D03*
X243800Y125000D03*
X246000Y119000D03*
X236500D03*
X240500D03*
X243000Y134000D03*
X241700Y151600D03*
X244000Y159500D03*
Y164500D03*
X244030Y172250D03*
Y167250D03*
X240732Y162000D03*
X240762Y169750D03*
X236934Y184988D03*
X238200Y178700D03*
X246500Y201700D03*
X245400Y193200D03*
X245900Y205700D03*
X238200Y204900D03*
X242000Y205800D03*
X246900Y220500D03*
X240600Y233200D03*
X245800Y230438D03*
X246400Y237300D03*
X240600Y237200D03*
X232500Y260500D03*
X246400Y262900D03*
Y258900D03*
X246100Y253900D03*
X237800Y279200D03*
X237600Y286300D03*
X241000Y310000D03*
X238500Y350500D03*
X237300Y360600D03*
X241000Y380500D03*
X258000Y-11000D03*
X251500Y3500D03*
X255000Y19500D03*
X258000Y33000D03*
X259000Y48500D03*
X259500Y63500D03*
Y79000D03*
X259000Y95500D03*
X257000Y119000D03*
X251600D03*
X260100Y125100D03*
X254800Y125000D03*
X250000D03*
X258000Y134000D03*
Y149000D03*
X257000Y161000D03*
X256500Y171000D03*
X247268Y162000D03*
X247298Y169750D03*
X257300Y194300D03*
X260400Y194400D03*
X254400D03*
X254700Y199200D03*
X254800Y215100D03*
X249500Y204500D03*
X254800Y211300D03*
X259259Y212859D03*
X261700Y218400D03*
X248100Y225400D03*
X250500D03*
X258332Y225632D03*
X251700Y220600D03*
X249000Y254700D03*
X259500Y253700D03*
X250200Y262900D03*
X249400Y268700D03*
X257900Y281900D03*
X258000Y302500D03*
Y316500D03*
X255500Y348900D03*
X248700Y350100D03*
X251000Y352400D03*
X254000Y356890D03*
X249000Y361500D03*
X256000Y380500D03*
X249000Y371600D03*
X273000Y-11000D03*
X266500Y3500D03*
X270000Y19500D03*
X273000Y33000D03*
X274500Y63500D03*
Y79000D03*
X273500Y95500D03*
X266000Y115000D03*
X272000Y109500D03*
X262000Y119000D03*
X273500Y116000D03*
X269500Y120500D03*
X266000Y124000D03*
X273000Y134000D03*
Y149000D03*
X267000Y172000D03*
Y160000D03*
Y165000D03*
Y167000D03*
X263732Y162500D03*
Y169500D03*
X270268D03*
Y162500D03*
X263400Y179400D03*
X265600Y183000D03*
X265700Y218400D03*
X272841Y207741D03*
X275100Y210300D03*
X266700Y259400D03*
X267300Y255700D03*
X276400Y249300D03*
X273700Y251400D03*
X270200Y253600D03*
X265800Y272300D03*
X276000Y266400D03*
X276400Y282400D03*
X276500Y303500D03*
X269000Y316500D03*
X274400Y355100D03*
X266100Y352900D03*
X272000Y356700D03*
Y361500D03*
X271000Y380500D03*
X272000Y371600D03*
X288000Y-11000D03*
X281500Y3500D03*
X289500Y79000D03*
X285000Y109500D03*
X278000D03*
X280600Y115800D03*
X286900Y115700D03*
X280500Y163500D03*
Y173500D03*
X278500Y204000D03*
X277500Y195500D03*
X282800Y241400D03*
X279200Y247300D03*
X281400Y244100D03*
X278400Y271000D03*
X282300Y278200D03*
X280300Y266400D03*
X282200Y286200D03*
X286500Y278800D03*
Y304000D03*
X277000Y356890D03*
X284100Y358800D03*
X286150Y362750D03*
X286000Y380500D03*
X290000Y367700D03*
X288100Y371600D03*
X303000Y-11000D03*
X296500Y3500D03*
X298000Y34025D03*
X294850Y37175D03*
X301150Y34025D03*
X298000Y37175D03*
X294850Y34025D03*
X301150Y37175D03*
X295100Y26300D03*
X298000Y26200D03*
X301100D03*
X297800Y45500D03*
X292600Y43600D03*
X301937Y44737D03*
X298500Y54700D03*
X293500Y61000D03*
X297500Y92500D03*
X292500D03*
Y101000D03*
Y109500D03*
X297500Y100500D03*
Y108000D03*
Y115500D03*
Y124500D03*
X292000D03*
Y116000D03*
X297000Y163500D03*
X304500Y173500D03*
X292000Y255500D03*
X292400Y279000D03*
X292600Y286200D03*
X294000Y316500D03*
X299000Y357400D03*
X301800Y357200D03*
X304600Y357600D03*
X294000Y361500D03*
X301000Y380500D03*
X294100Y371600D03*
X318000Y-11000D03*
X311500Y3500D03*
X318000Y26500D03*
X315000Y44000D03*
X310500Y56500D03*
X311000Y66000D03*
X321000Y95500D03*
X315500Y135000D03*
X316000Y151500D03*
X315000Y163500D03*
X318200Y188200D03*
X320800Y195700D03*
X311000Y316500D03*
X320300Y347200D03*
X319500Y357500D03*
X307500D03*
X311800Y357400D03*
X314500Y361500D03*
X316000Y380500D03*
X314500Y371600D03*
X333000Y-11000D03*
X326500Y3500D03*
X333500Y14000D03*
X333000Y26500D03*
X330000Y44000D03*
X325500Y56500D03*
X331000Y76000D03*
X321500Y80000D03*
X334000Y85000D03*
X324500Y126500D03*
Y143500D03*
X336000Y152000D03*
X332900Y156900D03*
Y169900D03*
Y165900D03*
Y160900D03*
X335500Y204000D03*
X332600Y216300D03*
X329600Y210900D03*
X324050Y205700D03*
X331400Y231800D03*
X325700Y233700D03*
X333800Y226600D03*
X336000Y241500D03*
X328100Y236400D03*
X331900Y235400D03*
X333900Y322200D03*
X336000Y320200D03*
X333100Y316100D03*
X330353Y332553D03*
X332800Y330700D03*
X333900Y325800D03*
X327821Y334521D03*
X336000Y351500D03*
X333800Y346600D03*
X328800Y344900D03*
X325400Y352800D03*
X331000Y380500D03*
X348000Y-11000D03*
X341500Y3500D03*
X348500Y14000D03*
X339000Y66000D03*
X342000Y82500D03*
X350000Y75500D03*
X342000Y93500D03*
X349500Y100000D03*
X337000Y118000D03*
X336500Y135000D03*
X339000Y173500D03*
X336900Y212600D03*
X349158Y250858D03*
Y252858D03*
Y254858D03*
Y256858D03*
X341474Y255826D03*
X341700Y259900D03*
X345100Y265700D03*
X350189Y265489D03*
X343500Y289000D03*
Y302000D03*
X349736Y307454D03*
X339600Y316800D03*
X344754Y312746D03*
X336200Y311900D03*
X338100Y325800D03*
Y331300D03*
Y336300D03*
X350647Y326647D03*
X350254Y336490D03*
X350300Y331300D03*
X337754Y340427D03*
X336700Y343100D03*
X350400Y341800D03*
X349300Y351900D03*
X346000Y380500D03*
X363000Y-11000D03*
X353500Y3500D03*
X360000Y13000D03*
Y30000D03*
X356000Y65500D03*
X355000Y135000D03*
Y152000D03*
X362500Y236000D03*
X351158Y250858D03*
X353157D03*
X355157D03*
Y252858D03*
X353157D03*
X351158D03*
Y254858D03*
X353157D03*
X355157D03*
X353157Y256858D03*
X351158D03*
X355157D03*
X361000Y268000D03*
X352158Y268242D03*
X354000Y284900D03*
Y289400D03*
Y280400D03*
X356073Y301854D03*
X354100Y300300D03*
X362900Y296900D03*
X358042Y299242D03*
X360010Y302090D03*
X365000Y316600D03*
X358600Y320400D03*
X356400Y321900D03*
X360600Y318900D03*
X354105Y315405D03*
Y313396D03*
X358500Y332200D03*
X356300Y333700D03*
X360400Y330900D03*
X352653Y326647D03*
X352310Y336490D03*
X354105Y345305D03*
Y343305D03*
X353600Y357600D03*
X359800Y358000D03*
X358042Y361742D03*
X363947Y360053D03*
X355900Y365400D03*
X361000Y380500D03*
X361979Y368179D03*
X378000Y-11000D03*
X368500Y3500D03*
X375100Y4400D03*
X375500Y65500D03*
X375000Y83500D03*
X379000Y142000D03*
X377100Y158500D03*
X374900D03*
X372700D03*
X378800Y151700D03*
X373500Y178500D03*
X375000Y236000D03*
X373000Y265500D03*
X372600Y284800D03*
X372400Y289800D03*
X377600Y296300D03*
X379695Y301405D03*
X366700Y318700D03*
X368300Y316800D03*
X365916Y313596D03*
X378700Y318600D03*
X380200Y316600D03*
X377100D03*
X365916Y345916D03*
X375758Y346246D03*
Y343958D03*
X366000Y357600D03*
X375600Y358500D03*
X379695Y364305D03*
X377727Y361027D03*
X369853Y363353D03*
X371821Y367021D03*
X367884Y360216D03*
X376000Y380500D03*
X373800Y369300D03*
X393000Y-11000D03*
X386000Y4000D03*
X389000Y56000D03*
X388000Y77000D03*
X390500Y99500D03*
X384500Y159500D03*
X390100Y173600D03*
X388200Y170800D03*
X393500Y187000D03*
X394500Y179600D03*
X392100Y176500D03*
X386500Y198500D03*
X382400Y230700D03*
X387000Y256500D03*
X388100Y274900D03*
X381000Y283000D03*
X388100Y284800D03*
X388233Y279800D03*
Y289800D03*
X386500Y298000D03*
X384800Y303900D03*
X383600Y314800D03*
X384700Y310100D03*
X381664Y313164D03*
X383546Y334521D03*
X383100Y331800D03*
Y322800D03*
X382800Y326100D03*
X394490Y336490D03*
X382884Y328616D03*
X383546Y342395D03*
Y338458D03*
X388000Y353500D03*
X391000Y380500D03*
X381664Y367464D03*
X408000Y-11000D03*
X401000Y4000D03*
X396000Y15000D03*
X406000Y37500D03*
X403000Y57500D03*
X403100Y79000D03*
X406200D03*
X398500Y89000D03*
X405500Y99500D03*
X399500Y131000D03*
X401500Y159500D03*
Y146500D03*
Y175500D03*
X398000Y198500D03*
X403200Y199500D03*
X406900D03*
X399000Y232000D03*
X405000Y261000D03*
X400000Y275500D03*
X399500Y291000D03*
X406100Y312100D03*
X396100Y322300D03*
X400000Y308400D03*
X409600Y322800D03*
Y327400D03*
Y332700D03*
X395900Y332500D03*
X403400Y325100D03*
X403600Y325300D03*
X409600Y337700D03*
Y342600D03*
X396000Y347800D03*
X403300Y340200D03*
X408500Y357500D03*
X399000Y368000D03*
X406000Y380500D03*
X423000Y-11000D03*
X416000Y4000D03*
X411000Y15000D03*
X412000Y90000D03*
X420500Y99500D03*
X418300Y110800D03*
Y105800D03*
X424800D03*
Y110800D03*
X418300Y120800D03*
Y115800D03*
X424800D03*
Y120800D03*
X414500Y131000D03*
X416500Y157100D03*
X419200Y173200D03*
X413000Y175500D03*
X425100Y175000D03*
X417000Y192500D03*
X410500Y199500D03*
X420000Y202800D03*
X415500Y201600D03*
X422500Y262000D03*
X422000Y298000D03*
X422600Y306100D03*
X412700Y298200D03*
X414900Y305400D03*
X414400Y325200D03*
X424500Y324900D03*
X424700Y330200D03*
X417000Y347100D03*
X414400Y340100D03*
X423500Y353000D03*
X416000Y367500D03*
X421000Y380500D03*
X438000Y-11000D03*
X431000Y4000D03*
X426000Y15000D03*
X437000Y100000D03*
X436500Y113000D03*
X431000Y131500D03*
X426000Y146000D03*
X433500Y147500D03*
X433200Y157000D03*
X426500Y166000D03*
X428800Y175000D03*
X427000Y223600D03*
X429000Y247500D03*
X438000Y298500D03*
X426500Y302700D03*
X434500Y312500D03*
X437400Y319300D03*
X427600Y316300D03*
X435000Y341000D03*
X427600Y338800D03*
X438000Y353000D03*
X438500Y367500D03*
X436000Y380500D03*
X453000Y-11000D03*
X446000Y4000D03*
X441000Y15000D03*
X453500Y110000D03*
X446000Y131500D03*
X449500Y146500D03*
X452400Y154500D03*
X450500Y169000D03*
X444600Y173200D03*
X448600Y175400D03*
X452100D03*
X453000Y215500D03*
X442500Y248000D03*
X443100Y258600D03*
X444000Y284500D03*
X451400Y291000D03*
X453500Y304900D03*
X447800Y297900D03*
X453500Y310300D03*
X447100D03*
X453500Y315600D03*
X453000Y334100D03*
X446900D03*
X446100Y350300D03*
X453400Y345500D03*
X447400D03*
X453400Y340400D03*
Y350600D03*
X451000Y368000D03*
X469500Y25000D03*
X456000Y15000D03*
X465000Y40500D03*
X455500Y53000D03*
X459200Y80800D03*
Y84300D03*
X465000Y88500D03*
X459200Y88100D03*
X459210Y96670D03*
X459200Y100200D03*
X459300Y93200D03*
X462000Y108500D03*
X455100Y105500D03*
X459000Y127500D03*
X465500Y121600D03*
X467000Y119500D03*
X468500Y117500D03*
X465000Y147000D03*
X455500Y147500D03*
X468500Y169000D03*
Y185000D03*
X455600Y175400D03*
X455859Y204059D03*
X467900Y201300D03*
Y196300D03*
X467000Y215500D03*
X467900Y206300D03*
X468100Y211300D03*
X459000Y223500D03*
X465000Y249500D03*
X456000Y263000D03*
X460500Y298500D03*
X468900Y303200D03*
X459500Y310300D03*
X468820Y310280D03*
X458700Y334100D03*
X468800Y345500D03*
X459400D03*
X455000Y380500D03*
X481500Y22500D03*
Y37500D03*
X470500Y53000D03*
X481500Y52500D03*
Y82000D03*
X476000Y88500D03*
X481500Y97000D03*
X474500Y108500D03*
X481500Y112000D03*
X472000Y127500D03*
X481500Y127000D03*
Y142000D03*
X472500Y157000D03*
X481500D03*
Y172000D03*
Y187000D03*
Y202000D03*
Y217000D03*
X475000Y224000D03*
X481500Y232000D03*
Y247000D03*
Y262000D03*
Y277000D03*
X470500Y282500D03*
X481500Y292000D03*
Y307000D03*
X475000Y305300D03*
X481500Y322000D03*
X480900Y310300D03*
X475000D03*
Y315500D03*
X481500Y337000D03*
Y352000D03*
X480920Y345320D03*
X475000Y340200D03*
Y350600D03*
Y345500D03*
G54D20*
X430700Y32500D03*
G54D21*
X417000Y138200D03*
Y163800D03*
X438500Y138200D03*
Y163800D03*
X460000Y138200D03*
Y163800D03*
G54D12*
X20500Y59800D03*
Y307800D03*
X442500Y51400D03*
X455300Y32500D03*
G54D22*
X439244Y204256D03*
Y201500D03*
Y198744D03*
Y195988D03*
X436488Y198744D03*
Y201500D03*
Y204256D03*
Y195988D03*
X439244Y207012D03*
X436488D03*
X442000Y204256D03*
X444756D03*
Y201500D03*
Y198744D03*
X442000D03*
Y201500D03*
X447512Y204256D03*
Y201500D03*
Y198744D03*
Y195988D03*
X444756D03*
X442000D03*
Y207012D03*
X444756D03*
X447512D03*
G54D13*
X31500Y336300D03*
X28500Y335800D03*
Y332800D03*
X31500D03*
X34500Y333800D03*
X33000Y349800D03*
X31000Y351300D03*
X35000Y348300D03*
Y338800D03*
X28500D03*
X50690Y316300D03*
X53190Y321300D03*
X50690Y326300D03*
X52000Y333800D03*
X45000Y352300D03*
X48000D03*
X42000Y340800D03*
X51000D03*
X68000Y39000D03*
Y42500D03*
X65690Y321800D03*
X60690D03*
X63190Y318800D03*
X58190D03*
X65690Y316300D03*
X60690D03*
X55690D03*
Y326300D03*
X64000Y336800D03*
X66000Y350300D03*
X62000Y347300D03*
X57500Y346800D03*
Y338300D03*
X81500Y39000D03*
X78000D03*
X74500D03*
X71000D03*
X81500Y42500D03*
X78000D03*
X74500D03*
X71000D03*
X73944Y320780D03*
X73025Y318305D03*
X72035Y315759D03*
X97732Y172500D03*
Y164000D03*
Y181500D03*
X97800Y321200D03*
X95600Y316200D03*
X96700Y318700D03*
X93300Y321200D03*
X91100Y316200D03*
X92200Y318700D03*
X88800Y321200D03*
X87700Y318700D03*
X86600Y316200D03*
X93300Y328200D03*
X97800D03*
X88800Y324700D03*
X93300D03*
X97800D03*
X111000Y63500D03*
X104268Y172500D03*
Y164000D03*
Y181500D03*
X119000Y40000D03*
X121000Y43000D03*
X128000Y49500D03*
X125000Y47500D03*
X119500Y50000D03*
X122500Y54000D03*
X120000Y55500D03*
X125000D03*
X127500Y61000D03*
X125000Y59500D03*
X122500Y61000D03*
Y57500D03*
X128000D03*
X114500Y158000D03*
X126500D03*
X123532Y181600D03*
X121000Y333500D03*
Y336500D03*
Y339500D03*
Y342500D03*
X124000Y340000D03*
X127000D03*
X123500Y343000D03*
X126500D03*
X130068Y181600D03*
X140900Y337600D03*
Y333600D03*
X135800Y337400D03*
X138100Y333700D03*
X140800Y341500D03*
X138500Y345500D03*
X144200Y333400D03*
X144100Y337000D03*
X144200Y340600D03*
X153000Y350000D03*
X156000D03*
Y344000D03*
X153000D03*
X150000Y347000D03*
X153000D03*
X156000D03*
X153000Y353000D03*
X156000D03*
X197900Y241900D03*
Y253900D03*
X211400Y241900D03*
Y253900D03*
X224700Y241900D03*
Y253900D03*
X244800Y110100D03*
X245400Y180100D03*
X237900Y241900D03*
Y253900D03*
X257000Y110500D03*
X257400Y180100D03*
X276500Y19000D03*
Y16000D03*
X274000Y47500D03*
Y44500D03*
Y41500D03*
X285000Y25600D03*
X282000Y25500D03*
X280000Y23500D03*
X278000Y21500D03*
X284900Y35400D03*
X291600Y54700D03*
X277500Y47500D03*
X281000Y44500D03*
X277500D03*
Y41500D03*
X281000D03*
X284900Y41600D03*
X303000Y15200D03*
X297900D03*
X292800D03*
Y21400D03*
X297900D03*
X305500Y20500D03*
X304000Y25000D03*
X306000Y23500D03*
X303000Y21400D03*
X302600Y54700D03*
X308000Y22000D03*
X309200Y25000D03*
Y36700D03*
X312800Y37000D03*
X310000Y41400D03*
Y47600D03*
X333500Y55500D03*
X336000Y50500D03*
X334700Y53000D03*
X336000Y250400D03*
Y256600D03*
X349500Y39000D03*
X347500Y40500D03*
X343000Y50500D03*
X341700Y53000D03*
X340500Y55500D03*
X337000D03*
X339500Y50500D03*
X338200Y53000D03*
X351000Y42000D03*
X345500D03*
X347000Y233500D03*
X350500D03*
X341389Y251889D03*
X355500Y21500D03*
X351500Y24500D03*
X360000D03*
X353500Y23000D03*
Y35000D03*
X351500Y36500D03*
X355500Y33500D03*
X360000Y34000D03*
X355000Y39000D03*
X353000Y40500D03*
X357500Y55500D03*
X356300Y53000D03*
X355000Y50500D03*
X356500Y80500D03*
Y77500D03*
X359500Y80500D03*
Y77500D03*
X362500Y80500D03*
Y77500D03*
X365500D03*
Y80500D03*
X356700Y95300D03*
X364300Y100200D03*
X360700D03*
X357100Y100100D03*
X363000Y96500D03*
X353500Y100000D03*
X361500Y103600D03*
X361000Y127800D03*
X364500D03*
Y143500D03*
X361000Y131800D03*
X364500D03*
X365500Y155600D03*
X364500Y146500D03*
X365500Y149400D03*
X364500Y161000D03*
Y169000D03*
X358100Y233400D03*
X354300D03*
X356094Y264594D03*
X371500Y7000D03*
X378600Y6900D03*
X369500Y18500D03*
X373000Y19000D03*
X376000Y30000D03*
X367000D03*
Y38000D03*
X378000Y112500D03*
Y106500D03*
Y109500D03*
X380500Y111000D03*
Y114000D03*
Y105000D03*
Y108000D03*
X378000Y115500D03*
X368000Y127800D03*
X370500Y129800D03*
X373000Y128800D03*
X375500Y127800D03*
X367500Y143500D03*
X368000Y131800D03*
X373000Y132800D03*
X370500Y133800D03*
X375500Y131800D03*
X368500Y149500D03*
X368000Y146500D03*
X371000Y152000D03*
X377559Y165441D03*
X371000Y165000D03*
X373000Y246500D03*
X376100Y251000D03*
Y256000D03*
Y261000D03*
X388000Y18000D03*
X384000Y21000D03*
X386000Y19500D03*
X393500Y33000D03*
Y29500D03*
X390500D03*
X384000Y33000D03*
X390500D03*
X387500Y30500D03*
X396500Y33000D03*
Y29500D03*
X399300Y110800D03*
Y105800D03*
Y120800D03*
Y115800D03*
X399000Y217100D03*
X399100Y210300D03*
X399000Y213600D03*
X403000Y217100D03*
X407000Y217000D03*
Y213500D03*
X403100Y210300D03*
X406900D03*
X403000Y213600D03*
X407000Y238200D03*
X405400Y347100D03*
X414216Y67734D03*
X418153D03*
X422090D03*
X419500Y84400D03*
X424700D03*
X414600Y82800D03*
X422129Y71750D03*
X414216Y75609D03*
X418153D03*
X422090D03*
X414216Y71671D03*
X418153D03*
X412500Y150000D03*
Y153500D03*
Y146500D03*
X422000Y186000D03*
X419400Y184400D03*
X425000Y181100D03*
X422800Y183400D03*
X410600Y217100D03*
X420000Y206800D03*
X415500Y207800D03*
X410700Y210300D03*
X410600Y213600D03*
X424600Y281600D03*
X426027Y67734D03*
X429964D03*
X434500Y84500D03*
X438100Y81400D03*
X429600Y84400D03*
X438000Y72300D03*
X426027Y75609D03*
X429964D03*
X426027Y71671D03*
X429964D03*
X439700Y88400D03*
X433500Y151000D03*
X430000Y184000D03*
X426500D03*
X428700Y181000D03*
X426300Y238000D03*
X428800Y267100D03*
X432300Y264100D03*
X439900Y276000D03*
X439100Y267100D03*
X436200Y289800D03*
X439900Y279500D03*
X440000Y289500D03*
X436200Y293300D03*
X440000Y293500D03*
X442100Y69400D03*
Y84300D03*
X440100Y82800D03*
X448500Y84300D03*
Y81100D03*
X445000Y85500D03*
Y81500D03*
X440100Y70800D03*
X445000Y97500D03*
X442000Y93000D03*
X445000Y90000D03*
X448500Y93000D03*
X448400Y88200D03*
Y96900D03*
X445000Y102500D03*
Y107000D03*
Y111500D03*
X449500Y113500D03*
Y110000D03*
X448400Y100400D03*
X440300Y172300D03*
X446800Y237700D03*
X451400Y271400D03*
X442400Y264100D03*
X451400Y277600D03*
X452700Y282100D03*
X450000Y283900D03*
X455500Y151000D03*
X467000Y238200D03*
G54D14*
X45634Y347111D03*
X43921D03*
X47346Y345489D03*
Y347111D03*
X45634Y345489D03*
X43921D03*
X49059Y345513D03*
Y347135D03*
X368941Y24165D03*
Y25787D03*
X374079Y25811D03*
X372366D03*
X370654Y24189D03*
Y25811D03*
X374079Y24189D03*
X372366D03*
G54D23*
X464041Y319139D03*
Y336461D03*
G54D24*
G01X154172Y157546D02*
Y156472D01*
X153678Y155978D01*
X132160D01*
X132000Y156138D01*
G01X154172Y153609D02*
Y154728D01*
X153722Y155178D01*
X132000D01*
G01X158109Y137861D02*
Y139030D01*
X157709Y139430D01*
X155870D01*
X154600Y140700D01*
Y143021D01*
X155672Y144093D01*
Y158168D01*
X154794Y159046D01*
X132160D01*
X132000Y158886D01*
G01X158109Y141798D02*
Y140630D01*
X157709Y140230D01*
X156202D01*
X155400Y141031D01*
Y142689D01*
X156472Y143762D01*
Y158499D01*
X155125Y159846D01*
X132000D01*
G01X185668Y212665D02*
Y213731D01*
X185200Y214200D01*
X180831D01*
X180232Y213600D01*
Y188227D01*
X178747Y186742D01*
X177310D01*
X176294Y185727D01*
Y184290D01*
X174673Y182668D01*
X173236D01*
X172358Y181790D01*
Y180353D01*
X170736Y178732D01*
X169299D01*
X168420Y177853D01*
Y176416D01*
X166886Y174881D01*
X132718D01*
X132377Y174540D01*
X132000D01*
G01X185668Y216602D02*
Y215468D01*
X185200Y215000D01*
X180500D01*
X179432Y213932D01*
Y188558D01*
X178416Y187542D01*
X176979D01*
X175494Y186058D01*
Y184621D01*
X174342Y183468D01*
X172905D01*
X171558Y182121D01*
Y180684D01*
X170405Y179532D01*
X168968D01*
X167620Y178184D01*
Y176747D01*
X166554Y175681D01*
X132227D01*
X132067Y175521D01*
X132000D01*
G01X162046Y141798D02*
Y140646D01*
X161639Y140239D01*
X160692D01*
X160409Y140522D01*
Y158499D01*
X159062Y159846D01*
X157625D01*
X156472Y160999D01*
Y166373D01*
X155066Y167780D01*
X132800D01*
X132000Y168580D01*
G01X162046Y137861D02*
Y139154D01*
X161761Y139439D01*
X160361D01*
X159609Y140191D01*
Y158168D01*
X158731Y159046D01*
X157294D01*
X155672Y160668D01*
Y166042D01*
X154734Y166980D01*
X132243D01*
X132000Y167223D01*
G01X189606Y220539D02*
Y221595D01*
X189093Y222107D01*
X181179D01*
X180232Y221160D01*
Y219432D01*
X178902Y218102D01*
X177173D01*
X176158Y217086D01*
Y192027D01*
X174810Y190680D01*
X173311D01*
X172220Y189589D01*
Y188090D01*
X170873Y186742D01*
X169242D01*
X168284Y185784D01*
Y184153D01*
X166936Y182806D01*
X166116D01*
X166110Y182800D01*
X132842D01*
X132000Y183642D01*
G01X189606Y224476D02*
Y223307D01*
X189205Y222907D01*
X180847D01*
X179432Y221491D01*
Y219763D01*
X178570Y218902D01*
X176842D01*
X175358Y217417D01*
Y192358D01*
X174479Y191480D01*
X172980D01*
X171420Y189920D01*
Y188421D01*
X170542Y187542D01*
X168911D01*
X167484Y186115D01*
Y184484D01*
X166605Y183606D01*
X165784D01*
X165779Y183600D01*
X133400D01*
X132000Y185000D01*
G01X164352Y186948D02*
X163600Y187700D01*
Y190000D01*
X162200Y191400D01*
X133551D01*
X132000Y192951D01*
G01X160252Y186748D02*
X160800Y187297D01*
Y188100D01*
X160546Y188354D01*
Y189954D01*
X159900Y190600D01*
X133219D01*
X132000Y191819D01*
G01X142361Y153609D02*
X143291D01*
X143930Y152970D01*
Y144930D01*
X143100Y144100D01*
X132000D01*
G01X146298Y153609D02*
X145130D01*
X144730Y153209D01*
Y144598D01*
X143431Y143300D01*
X132160D01*
X132000Y143140D01*
G01X154172Y212665D02*
Y212828D01*
X152300Y214700D01*
X132000D01*
G01X154172Y216602D02*
X153398D01*
X151500Y218500D01*
X132000D01*
G01X146298Y228413D02*
X144798Y226913D01*
X132987D01*
X132587Y227313D01*
X132000Y227900D01*
G01X134487Y220539D02*
X132000Y223026D01*
G01X150235Y228413D02*
X148348Y230300D01*
X134600D01*
X133100Y231800D01*
G01X158109Y216602D02*
X156294D01*
X154794Y218102D01*
X154398D01*
X152000Y220500D01*
Y229700D01*
X149900Y231800D01*
G01X154172Y208728D02*
X154328D01*
X156100Y210500D01*
X158900D01*
X160200Y211800D01*
Y216800D01*
X158400Y218600D01*
X157300D01*
X156100Y219800D01*
Y229300D01*
X153600Y231800D01*
G01X163495D02*
X163600Y231695D01*
Y199900D01*
X162700Y199000D01*
X161800D01*
X160546Y197746D01*
Y194944D01*
X160252Y194648D01*
G01X173858Y149672D02*
X173472D01*
X171035Y147235D01*
X169299D01*
X168420Y146357D01*
Y146020D01*
X165698Y143298D01*
X165362D01*
X164484Y142420D01*
Y142084D01*
X163546Y141146D01*
Y136946D01*
X162500Y135900D01*
X157964D01*
X156100Y134036D01*
Y132000D01*
X151000Y126900D01*
G01X164455Y231800D02*
Y231402D01*
X164400Y231347D01*
Y199569D01*
X163546Y198715D01*
Y195654D01*
X164352Y194848D01*
G01X173858Y129987D02*
X173300Y129430D01*
Y127600D01*
X172600Y126900D01*
G01X169920Y161484D02*
X168200Y159763D01*
Y152900D01*
X169500Y151600D01*
X174200D01*
X175500Y150300D01*
Y144800D01*
X174500Y143800D01*
X173300D01*
X172000Y142500D01*
Y141000D01*
X170800Y139800D01*
X169000D01*
X167900Y138700D01*
Y137200D01*
X166300Y135600D01*
Y133500D01*
X159700Y126900D01*
G01X169920Y137861D02*
Y136621D01*
X168200Y134900D01*
Y128210D01*
X167590Y127600D01*
X162800D01*
X162100Y126900D01*
G01X173858Y145735D02*
X173136D01*
X171000Y143600D01*
X169400D01*
X167484Y141684D01*
Y141177D01*
X166605Y140298D01*
X166098D01*
X164500Y138700D01*
Y138499D01*
X164484Y138483D01*
Y137240D01*
X164500Y137224D01*
Y134256D01*
X162668Y132424D01*
X157143Y126900D01*
G01X173858Y133924D02*
X171800Y131867D01*
Y128900D01*
X169800Y126900D01*
G01X173858Y153609D02*
X175091D01*
X176700Y152000D01*
X178400D01*
X179500Y150900D01*
Y144900D01*
X178500Y143900D01*
X177100D01*
X175358Y142158D01*
Y127480D01*
X174778Y126900D01*
G01X177794Y133924D02*
X179294Y132424D01*
Y129094D01*
X177800Y127600D01*
Y126900D01*
G01X173000Y231800D02*
X171800Y230600D01*
Y212000D01*
X170500Y210700D01*
X168100D01*
X166128Y208728D01*
X165984D01*
G01X185668Y153609D02*
X185991D01*
X187700Y151900D01*
Y136800D01*
X186900Y136000D01*
X184600D01*
X183900Y135300D01*
Y126101D01*
G01X177794Y165420D02*
X179500Y163715D01*
Y153720D01*
X181220Y152000D01*
X182700D01*
X183700Y151000D01*
Y145100D01*
X181700Y143100D01*
Y141200D01*
X183700Y139200D01*
Y137708D01*
X181992Y136000D01*
X181500D01*
X180232Y134732D01*
Y126900D01*
G01X185668Y133924D02*
X187600Y131993D01*
Y126900D01*
G01X175900Y167400D02*
X180000D01*
G01X173858Y220539D02*
Y220658D01*
X176000Y222800D01*
Y229800D01*
X178000Y231800D01*
G01X197480Y145735D02*
X191900Y140156D01*
Y128200D01*
X193200Y126900D01*
G01X201417Y141798D02*
Y142900D01*
X201017Y143300D01*
X200231D01*
X199780Y142849D01*
Y140322D01*
X200190Y139912D01*
X200390D01*
X200800Y139502D01*
Y138922D01*
X200390Y138512D01*
X200190D01*
X199780Y138102D01*
Y127060D01*
X199940Y126900D01*
G01X201417Y145735D02*
Y144716D01*
X200800Y144100D01*
X199900D01*
X198980Y143180D01*
Y126900D01*
G01X197480Y161484D02*
X199300Y159663D01*
Y157100D01*
X200800Y155600D01*
X205800D01*
X206853Y154547D01*
Y153925D01*
X208669Y152109D01*
X209091D01*
X211728Y149472D01*
Y149051D01*
X212606Y148172D01*
X213028D01*
X214728Y146472D01*
Y145872D01*
X217302Y143298D01*
X217786D01*
X221784Y139300D01*
X221821D01*
X222700Y138421D01*
Y138079D01*
X225700Y135079D01*
Y133500D01*
X224865Y132665D01*
X221200D01*
X220400Y131865D01*
Y129565D01*
X221200Y128765D01*
X224140D01*
X224417Y128487D01*
X225460D01*
X225982Y127965D01*
Y127395D01*
X226710Y126667D01*
Y125333D01*
X225982Y124605D01*
G01X201417Y161484D02*
X203500Y159400D01*
X208900D01*
X209253Y159046D01*
X209912D01*
X210791Y158168D01*
Y157509D01*
X213191Y155109D01*
X213849D01*
X214728Y154231D01*
Y153572D01*
X216600Y151700D01*
X217300D01*
X219600Y149400D01*
Y144979D01*
X220979Y143600D01*
X225400D01*
X227000Y142000D01*
Y141400D01*
X228400Y140000D01*
X229500D01*
X231200Y138300D01*
Y127800D01*
X228700Y125300D01*
Y123700D01*
X230200Y122200D01*
X230700D01*
X231500Y121400D01*
Y119100D01*
X230700Y118300D01*
X229500D01*
X228700Y117500D01*
Y115200D01*
X229500Y114400D01*
X230700D01*
X231500Y113600D01*
Y111300D01*
X230700Y110500D01*
X229500D01*
X228700Y109700D01*
Y107400D01*
X229500Y106600D01*
X230700D01*
X231500Y105800D01*
Y103500D01*
X230700Y102700D01*
X229500D01*
X228700Y101900D01*
Y99600D01*
X229500Y98800D01*
X230700D01*
X231500Y98000D01*
Y95700D01*
X230700Y94900D01*
X229500D01*
X228700Y94100D01*
Y91800D01*
X229500Y91000D01*
X230700D01*
X231500Y90200D01*
Y87900D01*
X230700Y87100D01*
X229500D01*
X228700Y86300D01*
Y84000D01*
X229500Y83200D01*
X230700D01*
X231500Y82400D01*
Y80100D01*
X230700Y79300D01*
X229500D01*
X228700Y78500D01*
Y76200D01*
X229500Y75400D01*
X230700D01*
X231700Y74400D01*
Y72500D01*
X230700Y71500D01*
X229500D01*
X228700Y70700D01*
Y68400D01*
X229500Y67600D01*
X232200D01*
X233600Y66200D01*
Y64100D01*
X230000Y60500D01*
G01X234100Y231800D02*
X235700Y230200D01*
G01X205354Y129987D02*
Y126900D01*
G01Y149672D02*
Y149046D01*
X207400Y147000D01*
Y129300D01*
X209800Y126900D01*
G01X232913Y157546D02*
X232959Y157500D01*
X235700D01*
G01X232913Y161484D02*
X235700D01*
G01X232913Y173294D02*
X235700D01*
G01X232913Y177232D02*
X235700D01*
G54D15*
X102000Y28800D03*
X90500Y343000D03*
X103500Y2700D03*
X121000D03*
X126800Y28100D03*
X123000Y375500D03*
X138500Y2700D03*
X144000Y362500D03*
X156000Y2700D03*
X250000Y282500D03*
X283200Y16700D03*
X281900Y52000D03*
X295000Y85000D03*
Y140000D03*
X297900Y189800D03*
X300000Y227500D03*
X306000Y282500D03*
X324100Y17400D03*
X327100Y110400D03*
X342000Y36900D03*
X346300Y110400D03*
X346400Y131500D03*
X351100Y168900D03*
X343300Y280400D03*
X393700Y65800D03*
X392500Y247500D03*
X405800Y188600D03*
X419100Y216000D03*
X428600Y364100D03*
X474000Y70500D03*
X473500Y97000D03*
G54D25*
G01X132000Y214700D02*
X127000D01*
X115900Y225800D01*
X97500D01*
G01X132000Y218500D02*
X128800D01*
X117500Y229800D01*
X97500D01*
G01X132000Y227900D02*
X105150Y254750D01*
Y333450D01*
X111000Y339300D01*
Y355000D01*
G01X132000Y223026D02*
X100350Y254676D01*
Y333050D01*
X100800Y333500D01*
G01X133100Y231800D02*
X107000Y257900D01*
Y332500D01*
X114200Y339700D01*
Y357100D01*
X114100Y357200D01*
G01X149900Y231800D02*
X149450Y232250D01*
X135250D01*
X108800Y258700D01*
Y331100D01*
X116000Y338300D01*
Y355000D01*
G01X153600Y231800D02*
X149450Y235950D01*
X134050D01*
X110400Y259600D01*
Y292000D01*
X142100Y323700D01*
X148300D01*
G01X226400Y343300D02*
Y326500D01*
X222700Y322800D01*
Y281500D01*
X173000Y231800D01*
G01X178000D02*
X187724Y241524D01*
X190924D01*
X192700Y243300D01*
Y246225D01*
X208300Y261825D01*
Y262634D01*
X225200Y279534D01*
Y321500D01*
G01X188000Y356890D02*
Y355100D01*
X195100Y348000D01*
X226700D01*
X229150Y345550D01*
Y236750D01*
X234100Y231800D01*
G01X235700Y230200D02*
X245400Y220500D01*
X246900D01*
G01X210000Y356890D02*
X222900D01*
X234700Y345090D01*
Y334700D01*
X231800Y331800D01*
Y264000D01*
X230600Y262800D01*
Y238500D01*
X246300Y222800D01*
X249500D01*
X251700Y220600D01*
G01X235700Y157500D02*
X236400D01*
X239470Y154430D01*
X274110D01*
X276580Y156900D01*
X332900D01*
G01X235700Y161484D02*
X237317D01*
X241430Y157370D01*
X271270D01*
X275200Y161300D01*
X332500D01*
X332900Y160900D01*
G01X235700Y173294D02*
X236616Y174210D01*
X269440D01*
X278150Y165500D01*
X332500D01*
X332900Y165900D01*
G01X251000Y352400D02*
Y348500D01*
X245850Y343350D01*
Y328388D01*
X246100Y328138D01*
Y288300D01*
X242800Y285000D01*
Y279400D01*
X245900Y276300D01*
Y266000D01*
X244200Y264300D01*
Y252400D01*
X255000Y241600D01*
Y218800D01*
X244200Y208000D01*
Y196400D01*
X239500Y191700D01*
Y180000D01*
X238200Y178700D01*
G01X235700Y177232D02*
X236332Y176600D01*
X271700D01*
X278300Y170000D01*
X332800D01*
X332900Y169900D01*
G01X245900Y205700D02*
X249600Y202000D01*
X251600D01*
X261300Y211700D01*
Y214600D01*
X260050Y215850D01*
Y219084D01*
X260082Y219115D01*
Y248418D01*
X257100Y251400D01*
Y257500D01*
X268200Y268600D01*
Y311500D01*
X283700Y327000D01*
Y358400D01*
X284100Y358800D01*
G01X248700Y350100D02*
X244200Y345600D01*
Y338200D01*
X240500Y334500D01*
X237400D01*
X234300Y331400D01*
Y265700D01*
X240300Y259700D01*
Y252900D01*
X253800Y239400D01*
Y219700D01*
X251600Y217500D01*
X250800D01*
X238200Y204900D01*
G01X249500Y204500D02*
X251000D01*
X256500Y210000D01*
Y248500D01*
X252200Y252800D01*
Y275700D01*
X255600Y279100D01*
X259600D01*
X266300Y285800D01*
Y319600D01*
X274500Y327800D01*
Y355000D01*
X274400Y355100D01*
G01X267300Y255700D02*
X269800Y258200D01*
Y310500D01*
X286150Y326850D01*
Y362750D01*
G01X273700Y251400D02*
Y307600D01*
X290000Y323900D01*
Y367700D01*
G01X288100Y371600D02*
Y325800D01*
X271800Y309500D01*
Y255200D01*
X270200Y253600D01*
G01X299000Y357400D02*
X292200Y350600D01*
Y323400D01*
X278800Y310000D01*
Y280000D01*
X276000Y277200D01*
Y266400D01*
G01X359800Y358000D02*
X358200Y359600D01*
X348562D01*
X347683Y358721D01*
Y354429D01*
X346804Y353550D01*
X345562D01*
X344683Y354429D01*
Y358721D01*
X343804Y359600D01*
X342562D01*
X341683Y358721D01*
Y354429D01*
X340804Y353550D01*
X339562D01*
X338683Y354429D01*
Y358721D01*
X337804Y359600D01*
X336562D01*
X335683Y358721D01*
Y354429D01*
X334804Y353550D01*
X333562D01*
X332683Y354429D01*
Y358721D01*
X331804Y359600D01*
X328800D01*
X316100Y346900D01*
Y340540D01*
X317700Y338940D01*
Y337540D01*
X316100Y335940D01*
Y318600D01*
X301900Y304400D01*
Y289800D01*
X296100Y284000D01*
Y281400D01*
X302200Y275300D01*
Y260800D01*
X282800Y241400D01*
G01X279200Y247300D02*
X279400D01*
X283950Y251850D01*
Y253093D01*
X278643Y258400D01*
Y259643D01*
X279522Y260522D01*
X280764D01*
X286072Y255214D01*
X287314D01*
X288200Y256100D01*
Y259779D01*
X287321Y260658D01*
X286579D01*
X285700Y261536D01*
Y262779D01*
X286579Y263658D01*
X287321D01*
X288200Y264536D01*
Y265779D01*
X287321Y266658D01*
X286579D01*
X285700Y267536D01*
Y268779D01*
X286579Y269658D01*
X287321D01*
X288200Y270536D01*
Y271779D01*
X287321Y272658D01*
X286579D01*
X285700Y273536D01*
Y274779D01*
X286579Y275658D01*
X287321D01*
X288200Y276536D01*
Y284660D01*
X287321Y285539D01*
X286779D01*
X285900Y286418D01*
Y287660D01*
X286779Y288539D01*
X287321D01*
X288200Y289418D01*
Y290660D01*
X287321Y291539D01*
X286779D01*
X285900Y292418D01*
Y293660D01*
X286779Y294539D01*
X287321D01*
X288200Y295418D01*
Y297400D01*
X289368Y298568D01*
Y299810D01*
X289060Y300118D01*
Y301360D01*
X289939Y302239D01*
X291182D01*
X291489Y301932D01*
X292732D01*
X293955Y303155D01*
Y304397D01*
X290897Y307455D01*
Y308697D01*
X291776Y309576D01*
X293019D01*
X296076Y306519D01*
X297319D01*
X298198Y307398D01*
Y308640D01*
X295140Y311698D01*
Y312940D01*
X296019Y313819D01*
X297262D01*
X300319Y310762D01*
X301562D01*
X302440Y311640D01*
Y312883D01*
X299383Y315940D01*
Y317183D01*
X300262Y318062D01*
X301504D01*
X304562Y315004D01*
X305804D01*
X306800Y316000D01*
Y317495D01*
X305921Y318374D01*
X304364D01*
X303486Y319252D01*
Y320495D01*
X304364Y321374D01*
X305921D01*
X306800Y322252D01*
Y356800D01*
X307500Y357500D01*
G01X281400Y244100D02*
X289600Y252300D01*
Y295900D01*
X309300Y315600D01*
Y323886D01*
X310179Y324765D01*
X313621D01*
X314500Y325644D01*
Y326886D01*
X313621Y327765D01*
X310179D01*
X309300Y328644D01*
Y329886D01*
X310179Y330765D01*
X313621D01*
X314500Y331644D01*
Y332886D01*
X313621Y333765D01*
X310179D01*
X309300Y334644D01*
Y335886D01*
X310179Y336765D01*
X313621D01*
X314500Y337644D01*
Y338886D01*
X313621Y339765D01*
X310179D01*
X309300Y340644D01*
Y341886D01*
X310179Y342765D01*
X313621D01*
X314500Y343644D01*
Y344886D01*
X313621Y345765D01*
X310179D01*
X309300Y346644D01*
Y347886D01*
X310179Y348765D01*
X313621D01*
X314500Y349644D01*
Y350886D01*
X313621Y351765D01*
X310179D01*
X309300Y352644D01*
Y354900D01*
X311800Y357400D01*
G01X276400Y249300D02*
Y259600D01*
X284300Y267500D01*
Y309680D01*
X297408Y322788D01*
X298651D01*
X300098Y321341D01*
X301341D01*
X302220Y322220D01*
Y323462D01*
X300772Y324910D01*
Y326152D01*
X301800Y327180D01*
Y329152D01*
X301300Y329652D01*
X298448D01*
X297700Y330400D01*
Y331919D01*
X298432Y332652D01*
X304271D01*
X305150Y333530D01*
Y334773D01*
X304271Y335652D01*
X299079D01*
X298200Y336530D01*
Y337773D01*
X299079Y338652D01*
X304271D01*
X305150Y339530D01*
Y340773D01*
X304271Y341652D01*
X299079D01*
X298200Y342530D01*
Y343773D01*
X299079Y344652D01*
X304271D01*
X305150Y345530D01*
Y346773D01*
X304271Y347652D01*
X299079D01*
X298200Y348530D01*
Y349773D01*
X299079Y350652D01*
X304271D01*
X305150Y351530D01*
Y357050D01*
X304600Y357600D01*
G01X280300Y266400D02*
Y308600D01*
X294400Y322700D01*
Y349800D01*
X301800Y357200D01*
G01X328800Y344900D02*
X328232D01*
X317800Y334468D01*
Y333226D01*
X318679Y332347D01*
X321121D01*
X322000Y331468D01*
Y330226D01*
X321121Y329347D01*
X318679D01*
X317800Y328468D01*
Y327226D01*
X318679Y326347D01*
X321121D01*
X322000Y325468D01*
Y324226D01*
X321121Y323347D01*
X318679D01*
X317800Y322468D01*
Y321226D01*
X318679Y320347D01*
X321121D01*
X322000Y319468D01*
Y318226D01*
X321121Y317347D01*
X317647D01*
X303900Y303600D01*
Y289300D01*
X299500Y284900D01*
Y280600D01*
X303900Y276200D01*
Y251600D01*
X316800Y238700D01*
Y202900D01*
X320800Y198900D01*
Y195700D01*
G01X324050Y205700D02*
Y208128D01*
X323171Y209006D01*
X319579D01*
X318700Y209885D01*
Y211128D01*
X319579Y212006D01*
X324400D01*
X325200Y212806D01*
Y214100D01*
X324294Y215006D01*
X319579D01*
X318700Y215885D01*
Y217128D01*
X319579Y218006D01*
X323171D01*
X324050Y218885D01*
Y220128D01*
X323171Y221006D01*
X319579D01*
X318700Y221885D01*
Y223128D01*
X319579Y224006D01*
X323171D01*
X324050Y224885D01*
Y226128D01*
X323171Y227006D01*
X319579D01*
X318700Y227885D01*
Y229128D01*
X319579Y230006D01*
X323171D01*
X324050Y230885D01*
Y232128D01*
X319579Y236599D01*
Y239006D01*
X307900Y250685D01*
Y275600D01*
X312100Y279800D01*
Y284900D01*
X307700Y289300D01*
Y300600D01*
X324050Y316950D01*
Y336850D01*
X333800Y346600D01*
G01X327821Y334521D02*
X325600Y332300D01*
Y315000D01*
X309600Y299000D01*
Y289800D01*
X313900Y285500D01*
Y279300D01*
X309900Y275300D01*
Y251700D01*
X321800Y239800D01*
Y237600D01*
X325700Y233700D01*
G01X328100Y236400D02*
X321900Y242600D01*
Y249288D01*
X321021Y250167D01*
X316779D01*
X315900Y251046D01*
Y252288D01*
X316779Y253167D01*
X321021D01*
X321900Y254046D01*
Y255964D01*
X321021Y256843D01*
X312479D01*
X311600Y257721D01*
Y258964D01*
X312479Y259843D01*
X321021D01*
X321900Y260721D01*
Y261964D01*
X321021Y262843D01*
X312479D01*
X311600Y263721D01*
Y264964D01*
X312479Y265842D01*
X321021D01*
X321900Y266721D01*
Y276000D01*
X316500Y281400D01*
Y284500D01*
X322300Y290300D01*
Y296000D01*
X317100Y301200D01*
Y303600D01*
X327500Y314000D01*
Y329700D01*
X330353Y332553D01*
G01X396000Y347800D02*
X395700Y348100D01*
X382900D01*
X380400Y345600D01*
Y324300D01*
X374600Y318500D01*
Y297700D01*
X363942Y287043D01*
Y285800D01*
X367900Y281843D01*
Y280600D01*
X367021Y279721D01*
X365778D01*
X361821Y283678D01*
X360578D01*
X359700Y282800D01*
Y281557D01*
X363657Y277600D01*
Y276357D01*
X362778Y275478D01*
X361536D01*
X357578Y279436D01*
X356336D01*
X355457Y278557D01*
Y277314D01*
X359414Y273357D01*
Y272114D01*
X358536Y271236D01*
X357293D01*
X353336Y275193D01*
X352093D01*
X347891Y270991D01*
Y259591D01*
X345100Y256800D01*
Y228800D01*
X332600Y216300D01*
G01X336000Y320200D02*
Y317200D01*
X345900Y307300D01*
Y294400D01*
X341200Y289700D01*
Y287500D01*
X337000Y283300D01*
Y274294D01*
X337879Y273416D01*
X340521D01*
X341400Y272537D01*
Y271295D01*
X340521Y270416D01*
X337879D01*
X337000Y269537D01*
Y268294D01*
X337879Y267416D01*
X340521D01*
X341400Y266537D01*
Y265295D01*
X340521Y264416D01*
X337879D01*
X337000Y263537D01*
Y260100D01*
X338100Y259000D01*
Y248386D01*
X338979Y247507D01*
X339921D01*
X340800Y246628D01*
Y245386D01*
X339921Y244507D01*
X338979D01*
X338100Y243628D01*
Y242386D01*
X338979Y241507D01*
X339921D01*
X340800Y240628D01*
Y239386D01*
X339921Y238507D01*
X338979D01*
X338100Y237628D01*
Y227400D01*
X329600Y218900D01*
Y210900D01*
G01X336900Y212600D02*
X333100D01*
X330900Y214800D01*
Y217500D01*
X343350Y229950D01*
Y269650D01*
X349650Y275950D01*
Y300650D01*
X347900Y302400D01*
Y350500D01*
X349300Y351900D01*
G01X331400Y231800D02*
Y232100D01*
X330100Y233400D01*
Y238000D01*
X329400Y238700D01*
Y246255D01*
X328521Y247133D01*
X324579D01*
X323700Y248012D01*
Y249255D01*
X324579Y250133D01*
X328521D01*
X329400Y251012D01*
Y252255D01*
X328521Y253133D01*
X324579D01*
X323700Y254012D01*
Y255255D01*
X324579Y256133D01*
X328521D01*
X329400Y257012D01*
Y258255D01*
X328521Y259133D01*
X324579D01*
X323700Y260012D01*
Y261255D01*
X324579Y262133D01*
X328521D01*
X329400Y263012D01*
Y264255D01*
X328521Y265133D01*
X324579D01*
X323700Y266012D01*
Y267255D01*
X324579Y268133D01*
X328521D01*
X329400Y269012D01*
Y270255D01*
X328521Y271133D01*
X324579D01*
X323700Y272012D01*
Y273255D01*
X324579Y274133D01*
X328521D01*
X329400Y275012D01*
Y277031D01*
X328521Y277910D01*
X323779D01*
X322900Y278788D01*
Y280031D01*
X323779Y280909D01*
X328521D01*
X329400Y281788D01*
Y283966D01*
X328521Y284845D01*
X323017D01*
X322138Y285724D01*
Y286966D01*
X323017Y287845D01*
X328521D01*
X329400Y288724D01*
Y291380D01*
X328521Y292259D01*
X325179D01*
X324300Y293138D01*
Y294380D01*
X325179Y295259D01*
X328521D01*
X329400Y296138D01*
Y298450D01*
X328521Y299328D01*
X322144D01*
X321265Y300207D01*
Y301450D01*
X322144Y302328D01*
X328521D01*
X329400Y303207D01*
Y305066D01*
X328521Y305945D01*
X326093D01*
X325214Y306824D01*
Y308066D01*
X326093Y308945D01*
X328521D01*
X329400Y309824D01*
Y327500D01*
X332600Y330700D01*
X332800D01*
G01X333800Y226600D02*
Y228461D01*
X334679Y229339D01*
X335621D01*
X336500Y230218D01*
Y231461D01*
X335621Y232339D01*
X334679D01*
X333800Y233218D01*
Y234461D01*
X334679Y235339D01*
X335621D01*
X336500Y236218D01*
Y237461D01*
X335621Y238339D01*
X334679D01*
X333800Y239218D01*
Y263298D01*
X334679Y264177D01*
X335121D01*
X336000Y265055D01*
Y266298D01*
X335121Y267177D01*
X334679D01*
X333800Y268055D01*
Y269298D01*
X334679Y270177D01*
X335121D01*
X336000Y271055D01*
Y272298D01*
X335121Y273177D01*
X334679D01*
X333800Y274055D01*
Y282500D01*
X339400Y288100D01*
Y289900D01*
X341850Y292350D01*
Y296303D01*
X340971Y297181D01*
X335279D01*
X334400Y298060D01*
Y299303D01*
X335279Y300181D01*
X340971D01*
X341850Y301060D01*
Y302303D01*
X340971Y303181D01*
X335279D01*
X334400Y304060D01*
Y305303D01*
X335279Y306181D01*
X340971D01*
X341850Y307060D01*
Y308550D01*
X338500Y311900D01*
X336200D01*
G01X333900Y325800D02*
X335800Y327700D01*
X343600D01*
X345100Y329200D01*
Y331500D01*
X343879Y332721D01*
X340779D01*
X339900Y333600D01*
Y334843D01*
X340779Y335721D01*
X345021D01*
X345900Y336600D01*
Y337843D01*
X345021Y338721D01*
X340779D01*
X339900Y339600D01*
Y340843D01*
X340779Y341721D01*
X345021D01*
X345900Y342600D01*
Y343843D01*
X345021Y344721D01*
X340779D01*
X339900Y345600D01*
Y346843D01*
X340779Y347721D01*
X345021D01*
X345900Y348600D01*
Y350700D01*
X344800Y351800D01*
X339500D01*
X337200Y349500D01*
Y346500D01*
X334900Y344200D01*
Y330300D01*
X331400Y326800D01*
Y296138D01*
X332279Y295259D01*
X337655D01*
X338534Y294380D01*
Y293138D01*
X337655Y292259D01*
X332279D01*
X331400Y291380D01*
Y236000D01*
X332000Y235400D01*
X331900D01*
G01X390100Y173600D02*
Y115200D01*
X397400Y107900D01*
X422500D01*
X424600Y105800D01*
X424800D01*
G01X388200Y170800D02*
Y111800D01*
X396800Y103200D01*
X425200D01*
X426900Y104900D01*
Y109000D01*
X425100Y110800D01*
X424800D01*
G01X394500Y179600D02*
Y120200D01*
X396700Y118000D01*
X422600D01*
X424800Y115800D01*
G01X392100Y176500D02*
Y117900D01*
X397300Y112700D01*
X424700D01*
X427200Y115200D01*
Y118600D01*
X425000Y120800D01*
X424800D01*
G01X400000Y308400D02*
X409700Y298700D01*
Y255500D01*
X413200Y252000D01*
X413500D01*
G01X427000Y223600D02*
X432300Y218300D01*
Y157900D01*
X433200Y157000D01*
G01X426500Y302700D02*
X427100D01*
X434050Y295750D01*
Y252550D01*
X433500Y252000D01*
G01X447800Y297900D02*
Y257700D01*
X453500Y252000D01*
G01X473500D02*
Y299300D01*
X469600Y303200D01*
X468900D01*
G54D16*
X113839Y278957D03*
X114232Y287618D03*
X115020Y274232D03*
X118563Y291161D03*
X126437D03*
X131161Y278957D03*
X129980Y274232D03*
X130768Y287618D03*
X153839Y278957D03*
X155020Y274232D03*
X154232Y287618D03*
X158563Y291161D03*
X171161Y278957D03*
X169980Y274232D03*
X166437Y291161D03*
X170768Y287618D03*
X193839Y278957D03*
X195020Y274232D03*
X194232Y287618D03*
X198563Y291161D03*
X211161Y278957D03*
X209980Y274232D03*
X206437Y291161D03*
X210768Y287618D03*
G54D26*
G01X122500Y270295D02*
X141005D01*
G01X151000Y126900D02*
X140100Y116000D01*
Y108845D01*
X138500Y107245D01*
Y104925D01*
X140100Y103325D01*
Y101005D01*
X138500Y99405D01*
Y97085D01*
X140100Y95485D01*
Y85468D01*
X158528Y67040D01*
G01X162500Y270295D02*
X142695D01*
G01X172600Y126900D02*
X166333Y120633D01*
Y117200D01*
X162900Y113767D01*
Y90400D01*
X166466Y86834D01*
Y85166D01*
X164547Y83247D01*
Y81053D01*
X165400Y80200D01*
Y79100D01*
X166466Y78034D01*
Y66266D01*
X164500Y64300D01*
Y58100D01*
X166700Y55900D01*
Y47800D01*
X165200Y46300D01*
X161700D01*
X160167Y47833D01*
Y56333D01*
X156608Y59892D01*
Y60921D01*
G01X159700Y126900D02*
X150800Y118000D01*
Y108600D01*
X148100Y105900D01*
Y85700D01*
X151800Y82000D01*
X156900D01*
X160100Y78800D01*
Y77580D01*
X161677Y76002D01*
G01X162100Y126900D02*
X161167Y125967D01*
Y124779D01*
X162279Y123667D01*
Y122479D01*
X161403Y121603D01*
X160215D01*
X159103Y122715D01*
X157915D01*
X157038Y121838D01*
Y120650D01*
X158150Y119538D01*
Y118350D01*
X157273Y117473D01*
X156085D01*
X154973Y118585D01*
X153785D01*
X152908Y117708D01*
Y116520D01*
X154020Y115408D01*
Y114220D01*
X152600Y112800D01*
Y106800D01*
X150500Y104700D01*
Y103047D01*
X151340Y102207D01*
X152460D01*
X153300Y101367D01*
Y100127D01*
X152460Y99287D01*
X151340D01*
X150500Y98447D01*
Y97207D01*
X151340Y96367D01*
X152460D01*
X153300Y95527D01*
Y94287D01*
X152460Y93447D01*
X151340D01*
X150500Y92607D01*
Y88500D01*
X155050Y83950D01*
X160247D01*
X161397Y82800D01*
Y78703D01*
X163187Y76913D01*
Y68540D01*
X162200Y67553D01*
Y61628D01*
X162907Y60921D01*
G01X157143Y126900D02*
X143400Y113157D01*
Y111592D01*
X146100Y108892D01*
Y106652D01*
X145260Y105812D01*
X144240D01*
X143400Y104972D01*
Y102732D01*
X144240Y101892D01*
X145260D01*
X146100Y101052D01*
Y98812D01*
X145260Y97972D01*
X144240D01*
X143400Y97132D01*
Y86920D01*
X152110Y78210D01*
X158120D01*
X160120Y76210D01*
Y63744D01*
X159758Y63381D01*
G01X169800Y126900D02*
X163662Y120762D01*
Y119574D01*
X164574Y118662D01*
Y117474D01*
X163697Y116597D01*
X162509D01*
X161597Y117509D01*
X160409D01*
X159532Y116632D01*
Y115444D01*
X160444Y114532D01*
Y113344D01*
X159568Y112467D01*
X158380D01*
X157468Y113380D01*
X156280D01*
X154800Y111900D01*
Y110778D01*
X155640Y109938D01*
X160460D01*
X161300Y109098D01*
Y107858D01*
X160460Y107018D01*
X155640D01*
X154800Y106178D01*
Y104938D01*
X155640Y104098D01*
X160460D01*
X161300Y103258D01*
Y102018D01*
X160460Y101178D01*
X155640D01*
X154800Y100338D01*
Y99098D01*
X155640Y98258D01*
X160460D01*
X161300Y97418D01*
Y96178D01*
X160460Y95338D01*
X155638D01*
X154800Y94500D01*
Y91800D01*
X155780Y90820D01*
X156968D01*
X158930Y92782D01*
X160118D01*
X160995Y91905D01*
Y90717D01*
X159036Y88758D01*
Y88164D01*
X163317Y83883D01*
Y80229D01*
X162907Y79819D01*
G01X171126Y74034D02*
Y72074D01*
X175910Y67290D01*
Y61210D01*
X171190Y56490D01*
Y51910D01*
X175600Y47500D01*
X176970D01*
X189110Y35360D01*
Y33550D01*
X190090Y32570D01*
Y31840D01*
X191430Y30500D01*
X193114D01*
X196126Y27488D01*
Y26534D01*
G01X174778Y126900D02*
X169600Y121722D01*
Y117486D01*
X166700Y114586D01*
Y113346D01*
X167540Y112506D01*
X168760D01*
X169600Y111666D01*
Y110426D01*
X168760Y109586D01*
X167540D01*
X166700Y108746D01*
Y107506D01*
X167540Y106666D01*
X168760D01*
X169600Y105826D01*
Y104586D01*
X168760Y103746D01*
X167540D01*
X166700Y102906D01*
Y101666D01*
X167540Y100826D01*
X168760D01*
X169600Y99986D01*
Y98746D01*
X167100Y96246D01*
Y95426D01*
X169500Y93026D01*
Y86500D01*
X167696Y84696D01*
Y79193D01*
X169500Y77390D01*
Y75000D01*
X168600Y74100D01*
Y72300D01*
X169486Y71414D01*
Y68814D01*
X171126Y67174D01*
Y67040D01*
G01X177800Y126900D02*
Y126100D01*
X172500Y120800D01*
Y119777D01*
X173340Y118937D01*
X178360D01*
X179200Y118097D01*
Y116857D01*
X178360Y116017D01*
X173340D01*
X172500Y115177D01*
Y113937D01*
X173340Y113097D01*
X178360D01*
X179200Y112257D01*
Y111017D01*
X178360Y110177D01*
X173340D01*
X172500Y109337D01*
Y108097D01*
X173340Y107257D01*
X178360D01*
X179200Y106417D01*
Y105177D01*
X178360Y104337D01*
X173340D01*
X172500Y103497D01*
Y102257D01*
X173340Y101417D01*
X178360D01*
X179200Y100577D01*
Y99337D01*
X178360Y98497D01*
X174597D01*
X172700Y96600D01*
Y85100D01*
X170400Y82800D01*
Y81700D01*
X171126Y80974D01*
Y74034D01*
G01X172700Y82600D02*
X172600Y82500D01*
Y74696D01*
X180300Y66996D01*
Y61552D01*
X180295Y61547D01*
Y60495D01*
X176400Y56600D01*
Y51900D01*
X185100Y43200D01*
X187700D01*
X194310Y36590D01*
X195545D01*
X197356Y34779D01*
G01X183900Y126101D02*
X185900Y124101D01*
Y121867D01*
X185067Y121034D01*
X184700D01*
X183600Y119934D01*
Y118234D01*
X184700Y117134D01*
X185067D01*
X186300Y115901D01*
Y114467D01*
X185067Y113234D01*
X184700D01*
X183600Y112134D01*
Y110434D01*
X184700Y109334D01*
X185067D01*
X186200Y108201D01*
Y106567D01*
X185067Y105434D01*
X184700D01*
X183500Y104234D01*
Y102734D01*
X184700Y101534D01*
X185067D01*
X186300Y100301D01*
Y98867D01*
X185067Y97634D01*
X184700D01*
X183900Y96834D01*
Y93500D01*
X179974Y89574D01*
X179949D01*
X179065Y88689D01*
Y87438D01*
X179949Y86554D01*
X180546D01*
X182300Y84800D01*
Y83200D01*
X179900Y80800D01*
Y79663D01*
X179060Y78823D01*
X177823D01*
X176647Y77647D01*
Y76953D01*
X182085Y71515D01*
Y61201D01*
X181805Y60921D01*
G01X180232Y126900D02*
Y126768D01*
X183100Y123900D01*
Y122000D01*
X181947Y120847D01*
X181071D01*
X180500Y120276D01*
Y117498D01*
X181071Y116927D01*
X182273D01*
X182900Y116300D01*
Y113800D01*
X182107Y113007D01*
X181071D01*
X180400Y112336D01*
Y109758D01*
X181071Y109087D01*
X182213D01*
X183000Y108300D01*
Y105900D01*
X182267Y105167D01*
X181071D01*
X180232Y104327D01*
Y102087D01*
X181071Y101247D01*
X182353D01*
X183100Y100500D01*
Y98300D01*
X181200Y96400D01*
X176700D01*
X175915Y95615D01*
Y94300D01*
X178400Y91815D01*
Y90600D01*
X176200Y88400D01*
Y83604D01*
X173996Y81400D01*
Y77804D01*
X174300Y77500D01*
G01X187600Y126900D02*
Y125858D01*
X188440Y125018D01*
X192060D01*
X193000Y124078D01*
Y122038D01*
X192060Y121098D01*
X188440D01*
X187600Y120258D01*
Y118018D01*
X188440Y117178D01*
X192060D01*
X192900Y116338D01*
Y114098D01*
X192060Y113258D01*
X187558D01*
X186777Y112477D01*
Y110223D01*
X187662Y109338D01*
X192060D01*
X192900Y108498D01*
Y106258D01*
X192060Y105418D01*
X187818D01*
X187000Y104600D01*
Y102300D01*
X187802Y101498D01*
X192060D01*
X192900Y100658D01*
Y98418D01*
X192060Y97578D01*
X188440D01*
X187600Y96738D01*
Y93400D01*
X185300Y91100D01*
Y86097D01*
X189600Y81797D01*
Y80458D01*
X190800Y79258D01*
Y77600D01*
X188384Y75184D01*
Y61201D01*
X188104Y60921D01*
G01X193200Y126900D02*
X195000Y125100D01*
Y97000D01*
X193743Y95743D01*
X190340D01*
X189500Y94903D01*
Y92663D01*
X190340Y91823D01*
X192677D01*
X200400Y84100D01*
Y83000D01*
X206200Y77200D01*
Y62800D01*
X201112Y57712D01*
Y51912D01*
X200330Y51130D01*
X190840D01*
X190000Y50290D01*
Y48050D01*
X190840Y47210D01*
X192641D01*
X193481Y46370D01*
Y44850D01*
X194321Y44010D01*
X196561D01*
X197401Y44850D01*
Y46370D01*
X198241Y47210D01*
X200960D01*
X201500Y46670D01*
Y39648D01*
X200915Y39063D01*
Y37812D01*
X201500Y37227D01*
Y33460D01*
X202016Y32944D01*
Y30485D01*
X204065Y28435D01*
Y27877D01*
X204949Y26992D01*
X205508D01*
X207200Y25300D01*
Y13817D01*
X206805Y13421D01*
G01X225982Y124605D02*
Y48675D01*
X225142Y47834D01*
X223740D01*
X222900Y46994D01*
Y44754D01*
X223740Y43914D01*
X225142D01*
X225982Y43074D01*
Y34818D01*
X227800Y33000D01*
Y29000D01*
X218340Y19540D01*
X215024D01*
G01X230000Y60500D02*
Y35927D01*
X228852Y34779D01*
G01X205354Y126900D02*
Y126546D01*
X207400Y124500D01*
X214500D01*
X218300Y120700D01*
Y105800D01*
X215400Y102900D01*
X205400D01*
X202700Y100200D01*
Y96100D01*
X204632Y94168D01*
X207068D01*
X208002Y95102D01*
Y96290D01*
X206910Y97382D01*
Y98570D01*
X208494Y100154D01*
X209682D01*
X210773Y99062D01*
X211961D01*
X213256Y100356D01*
X214444D01*
X216028Y98773D01*
Y97585D01*
X214828Y96385D01*
Y95197D01*
X218469Y91557D01*
Y90369D01*
X216885Y88785D01*
X215697D01*
X212056Y92425D01*
X210868D01*
X209839Y91396D01*
Y90208D01*
X217500Y82548D01*
Y79862D01*
X216660Y79022D01*
X215288D01*
X214448Y78182D01*
Y75942D01*
X215288Y75102D01*
X216660D01*
X217500Y74262D01*
Y72022D01*
X216660Y71182D01*
X215288D01*
X214448Y70342D01*
Y68102D01*
X215288Y67262D01*
X216660D01*
X217500Y66422D01*
Y64182D01*
X216660Y63342D01*
X215288D01*
X214448Y62502D01*
Y60262D01*
X215288Y59422D01*
X216660D01*
X217500Y58582D01*
Y56342D01*
X216660Y55502D01*
X215288D01*
X214448Y54662D01*
Y52422D01*
X215288Y51582D01*
X216118D01*
X217000Y50700D01*
Y48002D01*
X214448Y45450D01*
Y40748D01*
X213514Y39814D01*
Y32729D01*
X213104Y32319D01*
G01X209800Y126900D02*
X210000Y126700D01*
X218600D01*
X220840Y124460D01*
X222360D01*
X223200Y123620D01*
Y121380D01*
X222360Y120540D01*
X220840D01*
X220000Y119700D01*
Y117460D01*
X220840Y116620D01*
X222360D01*
X223200Y115780D01*
Y113540D01*
X222360Y112700D01*
X220840D01*
X220000Y111860D01*
Y109620D01*
X220840Y108780D01*
X222360D01*
X223200Y107940D01*
Y105700D01*
X222360Y104860D01*
X220840D01*
X220000Y104020D01*
Y101780D01*
X220840Y100940D01*
X222360D01*
X223200Y100100D01*
Y97860D01*
X222360Y97020D01*
X220840D01*
X220000Y96180D01*
Y93940D01*
X220840Y93100D01*
X222360D01*
X223200Y92260D01*
Y90020D01*
X222360Y89180D01*
X220840D01*
X220000Y88340D01*
Y86100D01*
X220840Y85260D01*
X222360D01*
X223200Y84420D01*
Y82180D01*
X222360Y81340D01*
X220840D01*
X220000Y80500D01*
Y78260D01*
X220840Y77420D01*
X222360D01*
X223200Y76580D01*
Y74340D01*
X222360Y73500D01*
X220840D01*
X220000Y72660D01*
Y70420D01*
X220840Y69580D01*
X222360D01*
X223200Y68740D01*
Y66500D01*
X222360Y65660D01*
X220840D01*
X220000Y64820D01*
Y62580D01*
X220840Y61740D01*
X222360D01*
X223200Y60900D01*
Y58660D01*
X222360Y57820D01*
X220840D01*
X220000Y56980D01*
Y54740D01*
X220840Y53900D01*
X222360D01*
X223200Y53060D01*
Y50820D01*
X222360Y49980D01*
X220840D01*
X220000Y49140D01*
Y47660D01*
X221200Y46461D01*
Y43740D01*
X220000Y42540D01*
Y39500D01*
X217800Y37300D01*
Y28876D01*
X218173Y28502D01*
G54D17*
X125600Y208900D03*
X142361Y129987D03*
X138424D03*
X142361Y141798D03*
X134487Y137861D03*
Y133924D03*
X142361Y137861D03*
Y133924D03*
X138424D03*
X134487Y141798D03*
X142361Y157546D03*
X134487Y153609D03*
X138424D03*
X142361Y149672D03*
X134487Y145735D03*
X138424D03*
X134487Y149672D03*
X138424D03*
X134487Y157546D03*
X138424D03*
X142361Y153609D03*
Y145735D03*
Y173294D03*
X134487Y169358D03*
X138424D03*
X142361Y165420D03*
X134487Y161484D03*
X138424D03*
X134487Y165420D03*
X138424D03*
X134487Y173294D03*
X138424D03*
X142361Y161484D03*
Y169358D03*
Y189042D03*
X134487Y185106D03*
X138424D03*
X142361Y181168D03*
X134487Y177232D03*
X138424D03*
X134487Y181168D03*
X138424D03*
X134487Y189042D03*
X138424D03*
X142361Y177232D03*
Y185106D03*
X134487Y200854D03*
X138424D03*
X142361Y196916D03*
X134487Y192980D03*
X138424D03*
X142361Y200854D03*
X134487Y196916D03*
X138424D03*
X142361Y192980D03*
X134487Y216602D03*
X138424D03*
X142361D03*
Y212665D03*
X134487Y208728D03*
X138424D03*
X142361Y204791D03*
X138424D03*
X134487D03*
Y212665D03*
X138424D03*
X142361Y208728D03*
X134487Y224476D03*
X142361Y220539D03*
Y224476D03*
X134487Y220539D03*
X158528Y55136D03*
X155378Y57105D03*
X156608Y60921D03*
X158528Y67040D03*
X156608Y79819D03*
X158530Y75410D03*
X155378Y76002D03*
Y88064D03*
X158528Y85938D03*
X146298Y129987D03*
X158109Y133924D03*
X146298Y141798D03*
Y133924D03*
X158109Y137861D03*
Y141798D03*
X150235D03*
X154172Y133924D03*
Y137861D03*
X150235Y133924D03*
X146298Y137861D03*
X150235D03*
X158109Y145735D03*
Y153609D03*
Y157546D03*
X146298D03*
X150235Y153609D03*
X146298Y149672D03*
X150235Y145735D03*
Y157546D03*
X154172D03*
Y153609D03*
Y149672D03*
X150235D03*
X146298Y153609D03*
Y145735D03*
X154172D03*
D03*
X158109Y169358D03*
X146298Y173294D03*
X150235Y169358D03*
X146298Y165420D03*
X150235Y161484D03*
X158109Y165420D03*
Y161484D03*
Y173294D03*
X154172Y169358D03*
Y161484D03*
X150235Y173294D03*
X154172D03*
X146298Y161484D03*
Y169358D03*
X150235Y165420D03*
X154172D03*
X158109Y177232D03*
Y185106D03*
X146298Y189042D03*
X154172D03*
X150235Y185106D03*
X146298Y181168D03*
X150235Y177232D03*
X158109Y189042D03*
Y181168D03*
X150235Y189042D03*
X154172Y185106D03*
X146298Y177232D03*
Y185106D03*
X150235Y181168D03*
X154172D03*
Y177232D03*
X158109Y192980D03*
Y200854D03*
X150235D03*
X146298Y196916D03*
X150235D03*
X154172D03*
X146298Y200854D03*
X154172D03*
X146298Y192980D03*
X150235D03*
X154172D03*
X158109Y204791D03*
Y212665D03*
X146298D03*
X150235Y208728D03*
X146298Y204791D03*
X154172D03*
X158109Y216602D03*
X154172Y208728D03*
X150235Y204791D03*
Y212665D03*
X146298Y208728D03*
Y216602D03*
X154172Y212665D03*
Y216602D03*
X158109Y208728D03*
X150235Y224476D03*
X158109D03*
X150235Y228413D03*
X146298D03*
Y220539D03*
Y224476D03*
X158109Y220539D03*
X154172D03*
X164827Y55136D03*
X167976Y57105D03*
X161677D03*
X172356Y63381D03*
X169206Y60921D03*
X161677Y69166D03*
X162907Y60921D03*
X159758Y63381D03*
X171126Y67040D03*
X164827D03*
X166057Y63381D03*
X172800Y60700D03*
X164840Y75530D03*
X166057Y82279D03*
X161677Y76002D03*
X162907Y79819D03*
X159758Y82279D03*
X169206Y79819D03*
X171126Y74034D03*
X172700Y82600D03*
X167976Y76002D03*
Y88064D03*
X161677D03*
X164827Y85938D03*
X165984Y129987D03*
X169920D03*
Y133924D03*
X165984Y141798D03*
X162046D03*
Y137861D03*
X169920D03*
X165984D03*
X169920Y141798D03*
Y157546D03*
Y145735D03*
X162046Y149672D03*
Y145735D03*
Y153609D03*
X169920D03*
X165984Y145735D03*
X169920Y149672D03*
X165984D03*
X162046Y169358D03*
D03*
Y173294D03*
X169920D03*
X162046Y165420D03*
D03*
X165984Y173294D03*
X169920Y169358D03*
X165984D03*
Y161484D03*
X169920Y165420D03*
Y161484D03*
X165984Y165420D03*
X162046Y189042D03*
X169920D03*
X162046Y181168D03*
X169920D03*
X165984D03*
Y189042D03*
X162046Y185106D03*
X165984Y177232D03*
Y185106D03*
X162046Y177232D03*
X169920Y185106D03*
Y177232D03*
Y200854D03*
X162046Y196916D03*
X165984D03*
Y200854D03*
Y192980D03*
X162046D03*
X169920D03*
X162046Y200854D03*
X169920Y196916D03*
Y212665D03*
X162046D03*
X169920Y216602D03*
X165984Y212665D03*
Y208728D03*
X169920D03*
Y204791D03*
X165984D03*
X162046D03*
Y216602D03*
X165984D03*
X162046Y208728D03*
X169920Y224476D03*
Y220539D03*
X165984D03*
Y224476D03*
X162046D03*
Y220539D03*
X165984Y228413D03*
X169920D03*
X186677Y9605D03*
X180378D03*
X183528Y7636D03*
X186677Y21666D03*
X187907Y13421D03*
X184758Y15881D03*
X181608Y13421D03*
X183528Y26534D03*
X181780Y19570D03*
X186677Y40564D03*
X180378D03*
X181608Y32319D03*
X186677Y28502D03*
X187907Y32319D03*
X184758Y34779D03*
X178250Y28500D03*
X183528Y38438D03*
X183724Y55136D03*
X186874Y57105D03*
X184954Y63381D03*
X178655D03*
X177500Y65600D03*
X174400D03*
X174276Y57105D03*
X186874Y69166D03*
X188104Y60921D03*
X181805D03*
X180575Y69166D03*
X183724Y67040D03*
X180575Y57105D03*
X178655Y82279D03*
X177425Y74034D03*
X174300Y77500D03*
X183400Y77600D03*
X187100D03*
X187600Y80200D03*
X180575Y76002D03*
X184954Y82279D03*
X181805Y79819D03*
X175506D03*
X183724Y85938D03*
X180575Y88064D03*
X174276D03*
X186874D03*
X173858Y129987D03*
X181732D03*
X177794D03*
X185668D03*
X181732Y133924D03*
X173858Y137861D03*
X185668D03*
X177794Y141798D03*
Y137861D03*
X173858Y133924D03*
Y141798D03*
X177794Y133924D03*
X185668Y141798D03*
X181732Y137861D03*
X185668Y133924D03*
X181732Y157546D03*
Y145735D03*
X177794Y149672D03*
X185668D03*
X177794Y157546D03*
D03*
Y153609D03*
X185668Y157546D03*
X177794Y145735D03*
X173858D03*
Y153609D03*
Y149672D03*
Y157546D03*
X181732Y149672D03*
X185668Y145735D03*
Y153609D03*
X177794Y173294D03*
X185668D03*
X173858Y169358D03*
X181732D03*
X185668Y165420D03*
X173858D03*
D03*
X185800Y165400D03*
X185668Y169358D03*
X173858Y161484D03*
X177794D03*
X181732D03*
X177794Y165420D03*
X173858Y173294D03*
X181732D03*
X177794Y169358D03*
Y189042D03*
X185668D03*
X173858Y185106D03*
X181732D03*
X177794Y181168D03*
X185668D03*
X173858Y177232D03*
X181732D03*
X173858Y189042D03*
X181732D03*
X177794Y185106D03*
X185668D03*
X173858Y181168D03*
X181732D03*
X177794Y177232D03*
X185668D03*
X181732Y200854D03*
X173858Y192980D03*
X185668Y196916D03*
Y200854D03*
X173858D03*
Y196916D03*
X177794D03*
Y200854D03*
X181732Y192980D03*
X185668D03*
X177794D03*
X181732Y212665D03*
X173858Y204791D03*
X181732Y208728D03*
Y204791D03*
X185668Y212665D03*
Y216602D03*
X173858Y212665D03*
Y216602D03*
X177794Y208728D03*
Y212665D03*
X173858Y208728D03*
X177794Y216602D03*
Y204791D03*
X181732Y224476D03*
X177794D03*
Y220539D03*
X173858Y228413D03*
X177794D03*
X173858Y220539D03*
Y224476D03*
X185668Y228413D03*
X192976Y9605D03*
X199276D03*
X189827Y7636D03*
X197356Y15881D03*
X194206Y13421D03*
X198800Y18480D03*
X189827Y26534D03*
X194380Y19520D03*
X190960Y19740D03*
X196126Y26534D03*
X202425D03*
X191057Y15881D03*
X200506Y13421D03*
X192976Y40564D03*
X191057Y34779D03*
X194206Y32319D03*
X197356Y34779D03*
X192976Y28502D03*
X199276D03*
Y40564D03*
X189827Y38438D03*
X199500Y33300D03*
X202622Y55136D03*
X196323D03*
X190024D03*
X199472Y57105D03*
X194403Y60921D03*
X191254Y63381D03*
X190024Y67040D03*
X199472Y69166D03*
X196323Y67040D03*
X193173Y69166D03*
X197553Y63381D03*
X202622Y67040D03*
X200702Y60921D03*
X193173Y57105D03*
X199600Y77400D03*
X191254Y82279D03*
X193173Y76002D03*
X190024Y74034D03*
X196323D03*
X197900Y82600D03*
X202622Y74034D03*
X200702Y79819D03*
X194403D03*
X199472Y88064D03*
X193100Y89200D03*
X190024Y85938D03*
X202622D03*
X196323D03*
X197480Y129987D03*
X189606D03*
X193542D03*
Y133924D03*
X197480Y141798D03*
X201417D03*
X189606Y137861D03*
Y133924D03*
X197480D03*
Y137861D03*
X193542D03*
Y157546D03*
Y145735D03*
X201417Y149672D03*
X197480D03*
Y157546D03*
Y153609D03*
Y145735D03*
X201417Y157546D03*
Y153609D03*
Y145735D03*
X189606Y149672D03*
X193542D03*
X189606Y157546D03*
X193542Y173294D03*
X201417D03*
X193542Y165420D03*
X201417D03*
D03*
X197480Y169358D03*
X189606D03*
X197480Y161484D03*
X201417D03*
X193542D03*
X189606Y165420D03*
Y161484D03*
Y173294D03*
X197480D03*
X193542Y169358D03*
X201417D03*
X193542Y189042D03*
X201417D03*
X189606Y185106D03*
X197480D03*
X193542Y181168D03*
X189606Y177232D03*
X197480D03*
X189606Y189042D03*
X197480D03*
X193542Y185106D03*
X201417D03*
X189606Y181168D03*
X197480D03*
X201417D03*
X193542Y177232D03*
X201417D03*
X193542Y200854D03*
X189606Y196916D03*
Y200854D03*
Y192980D03*
X193542Y196916D03*
X189606Y192980D03*
X193542Y196916D03*
X197480Y192980D03*
X193542D03*
X201417D03*
X193542Y212665D03*
X189606Y208728D03*
Y216602D03*
X197480Y212665D03*
X189606Y204791D03*
X197480Y208728D03*
Y204791D03*
X193542Y224476D03*
X189606Y220539D03*
Y224476D03*
Y228413D03*
X193542D03*
X197480D03*
X201417Y224476D03*
Y220539D03*
X211874Y9605D03*
X208724Y7636D03*
X205575Y9605D03*
X215024Y7636D03*
X216254Y15881D03*
X209954D03*
X203655D03*
X203260Y18550D03*
X215024Y19540D03*
Y26534D03*
X211874Y21666D03*
X213104Y13421D03*
X206805D03*
X205575Y21666D03*
X208724Y19540D03*
X215024Y38438D03*
X216254Y34779D03*
X209800Y38000D03*
X203655Y34779D03*
X205575Y40564D03*
X213104Y32319D03*
X206700Y28300D03*
X210300Y35100D03*
X212000Y30000D03*
X208700D03*
X211874Y40564D03*
X206805Y32319D03*
X203852Y63381D03*
Y82279D03*
X209291Y129987D03*
X205354D03*
X217165D03*
X213228D03*
X205354Y133924D03*
X217165D03*
X209291Y141798D03*
X205354D03*
Y137861D03*
X213228D03*
Y133924D03*
X217165Y137861D03*
X213228Y141798D03*
X205354Y157546D03*
X217165D03*
Y153609D03*
X205354Y145735D03*
X217165D03*
X209291Y153609D03*
X205354Y149672D03*
X209291D03*
Y145735D03*
X213228D03*
Y153609D03*
X209291Y157546D03*
X217165Y149672D03*
Y165420D03*
X205354Y169358D03*
X217165D03*
X209291Y161484D03*
Y169358D03*
Y173294D03*
X209400Y169300D03*
X209291Y173294D03*
X217165D03*
X205354Y165420D03*
Y173294D03*
X213228Y169358D03*
Y173294D03*
X217165Y189042D03*
X205354Y185106D03*
X217165Y181168D03*
X205354Y177232D03*
X209291Y181168D03*
Y177232D03*
X213228Y189042D03*
X205354D03*
Y181168D03*
X209291Y185106D03*
X205354Y181168D03*
X209291Y185106D03*
X205354Y200854D03*
X217165D03*
X209291Y196916D03*
X205354Y192980D03*
X209291D03*
X217165Y196916D03*
X205354D03*
X213228D03*
X205354Y212665D03*
X217165D03*
X205354Y204791D03*
X209291Y212665D03*
X213228Y204791D03*
X205354Y224476D03*
X217165D03*
X209291D03*
X227622Y7636D03*
X224472Y9605D03*
X221323Y7636D03*
X218173Y9605D03*
X219403Y13421D03*
X218173Y21666D03*
X221323Y26534D03*
X221600Y14900D03*
X227622Y19540D03*
X225702Y13421D03*
X227622Y26534D03*
X221200Y17900D03*
X224500D03*
X229900Y16700D03*
X224472Y40564D03*
Y28502D03*
X218173Y40564D03*
Y28502D03*
X222553Y34779D03*
X228852D03*
X219403Y32319D03*
X221323Y38438D03*
X225702Y32319D03*
X227622Y38438D03*
X225039Y129987D03*
X228976Y133924D03*
X225039Y141798D03*
X221102Y137861D03*
D03*
X228976D03*
X229000Y137900D03*
X225039Y137861D03*
D03*
Y129987D03*
X228976Y157546D03*
Y145735D03*
X221102Y157546D03*
Y145735D03*
X221100Y145600D03*
X228976Y169358D03*
X225039Y165420D03*
X228976D03*
Y181168D03*
Y189042D03*
X225039D03*
X221102Y177232D03*
Y185106D03*
X221200Y177200D03*
X221102Y185106D03*
X228976Y192980D03*
X225039Y196916D03*
X221102Y192980D03*
D03*
X228976Y216602D03*
Y204791D03*
X221102Y216602D03*
X225039D03*
X228976Y212665D03*
X225039Y204791D03*
X221102D03*
X228976Y228413D03*
Y224476D03*
X221102Y228413D03*
X225039Y220539D03*
X232913Y153609D03*
Y157546D03*
Y165420D03*
Y173294D03*
Y161484D03*
Y185106D03*
X232934Y184988D03*
X232913Y177232D03*
Y192980D03*
Y216602D03*
Y224476D03*
G54D27*
G01X27700Y-89900D02*
Y-94900D01*
X29700D01*
G01X30950D02*
X32200Y-89900D01*
X33450Y-94900D01*
G01X33000Y-93150D02*
X31400D01*
G01X35700Y-94900D02*
Y-92650D01*
X34700Y-89900D01*
G01X36700D02*
X35700Y-92650D01*
G01X40200Y-94900D02*
X38200D01*
Y-89900D01*
X40200D01*
G01X39400Y-92317D02*
X38200D01*
G01X41700Y-94900D02*
Y-89900D01*
X42950D01*
X43350Y-90150D01*
X43600Y-90483D01*
X43700Y-91150D01*
X43600Y-91817D01*
X43300Y-92233D01*
X42950Y-92483D01*
X41700D01*
G01X42950D02*
X43700Y-94900D01*
G01X49700D02*
Y-89900D01*
X49100Y-90900D01*
G01Y-94900D02*
X50300D01*
G01X52250Y-90733D02*
X52550Y-90233D01*
X52900Y-89983D01*
X53300Y-89900D01*
X53800Y-90067D01*
X54150Y-90483D01*
X54250Y-90983D01*
X54200Y-91484D01*
X54000Y-91900D01*
X53000Y-92733D01*
X52550Y-93317D01*
X52250Y-94150D01*
X52150Y-94900D01*
X54250D01*
G01X59950Y-96567D02*
X59450Y-95733D01*
X59200Y-94900D01*
Y-91567D01*
X59450Y-90733D01*
X59950Y-89900D01*
G01X62650Y-94234D02*
X63050Y-94650D01*
X63500Y-94900D01*
X63900D01*
X64300Y-94650D01*
X64600Y-94234D01*
X64750Y-93650D01*
X64650Y-93067D01*
X64400Y-92567D01*
X63950Y-92233D01*
X63350Y-92067D01*
X63000Y-91733D01*
X62850Y-91150D01*
X62950Y-90567D01*
X63200Y-90150D01*
X63550Y-89900D01*
X63900D01*
X64250Y-90067D01*
X64550Y-90483D01*
G01X66600Y-89900D02*
X67800D01*
G01X67200D02*
Y-94900D01*
G01X66600D02*
X67800D01*
G01X71000Y-92400D02*
X72000D01*
Y-93900D01*
X71700Y-94400D01*
X71350Y-94733D01*
X70850Y-94900D01*
X70350Y-94733D01*
X70000Y-94400D01*
X69700Y-93900D01*
X69500Y-93317D01*
X69400Y-92650D01*
Y-92067D01*
X69500Y-91567D01*
X69700Y-90983D01*
X70000Y-90483D01*
X70300Y-90150D01*
X70700Y-89900D01*
X71050D01*
X71450Y-90067D01*
X71750Y-90400D01*
G01X74800Y-94900D02*
Y-89900D01*
X72950Y-93483D01*
X75450D01*
G01X77950Y-96567D02*
X78450Y-95733D01*
X78700Y-94900D01*
Y-91567D01*
X78450Y-90733D01*
X77950Y-89900D01*
G54D18*
X240000Y272500D03*
Y292500D03*
X260000Y272500D03*
Y292500D03*
X285000Y75000D03*
Y95000D03*
Y130000D03*
Y150000D03*
X290000Y217500D03*
Y237500D03*
X305000Y75000D03*
Y95000D03*
Y130000D03*
Y150000D03*
X310000Y217500D03*
Y237500D03*
X296000Y272500D03*
Y292500D03*
X316000Y272500D03*
Y292500D03*
G54D28*
G01X116500Y47700D02*
X121200D01*
X169400Y-500D01*
X375200D01*
X432390Y56690D01*
Y123790D01*
X444600Y136000D01*
Y173200D01*
G01X378800Y151700D02*
X380600Y153500D01*
Y235078D01*
X350189Y265489D01*
G01X444600Y173200D02*
X434200Y183600D01*
Y220800D01*
X429100Y225900D01*
Y247400D01*
X429000Y247500D01*
G54D19*
X239500Y329900D03*
Y339900D03*
X249500Y329900D03*
X259500D03*
X249500Y339900D03*
X259500D03*
X269500Y329900D03*
Y339900D03*
X279500Y329900D03*
Y339900D03*
X388773Y210500D03*
Y220500D03*
Y230500D03*
X413500Y232000D03*
Y242000D03*
Y252000D03*
Y267500D03*
Y277500D03*
Y287500D03*
X433500Y232000D03*
Y242000D03*
Y252000D03*
X453500Y232000D03*
Y242000D03*
Y252000D03*
X466000Y267500D03*
Y277500D03*
Y287500D03*
X473500Y232000D03*
Y242000D03*
Y252000D03*
G54D29*
G01X132000Y156138D02*
X129880D01*
X124177Y150435D01*
X123668D01*
X123156Y150947D01*
X122647D01*
X122195Y150495D01*
Y149986D01*
X122706Y149474D01*
Y148964D01*
X121942Y148200D01*
X112537D01*
X111817Y148920D01*
Y151418D01*
X110534Y152700D01*
X107319D01*
X106037Y151418D01*
Y148920D01*
X105317Y148200D01*
X90337D01*
X89617Y148920D01*
Y152618D01*
X88335Y153900D01*
X85120D01*
X83837Y152618D01*
Y148920D01*
X83117Y148200D01*
X80697D01*
X79977Y148920D01*
Y152618D01*
X78695Y153900D01*
X75480D01*
X74197Y152618D01*
Y148920D01*
X73477Y148200D01*
X71057D01*
X70337Y148920D01*
Y152618D01*
X69055Y153900D01*
X65840D01*
X64557Y152618D01*
Y148920D01*
X63837Y148200D01*
X59300D01*
X58143Y149357D01*
Y149866D01*
X58334Y150057D01*
Y150566D01*
X57881Y151019D01*
X57372D01*
X57181Y150828D01*
X56672D01*
X53440Y154060D01*
X20598D01*
X18800Y155858D01*
Y222900D01*
X19220Y223320D01*
X20540D01*
X20900Y222960D01*
Y221300D01*
G01X132000Y155178D02*
X130278D01*
X122340Y147240D01*
X112139D01*
X110857Y148522D01*
Y151020D01*
X110137Y151740D01*
X107717D01*
X106997Y151020D01*
Y148522D01*
X105714Y147240D01*
X89940D01*
X88657Y148522D01*
Y152220D01*
X87937Y152940D01*
X85517D01*
X84797Y152220D01*
Y148522D01*
X83515Y147240D01*
X80300D01*
X79017Y148522D01*
Y152220D01*
X78297Y152940D01*
X75877D01*
X75157Y152220D01*
Y148522D01*
X73875Y147240D01*
X70660D01*
X69377Y148522D01*
Y152220D01*
X68657Y152940D01*
X66237D01*
X65517Y152220D01*
Y148522D01*
X64235Y147240D01*
X58902D01*
X53042Y153100D01*
X20200D01*
X17840Y155460D01*
Y223298D01*
X18822Y224280D01*
X20540D01*
X20900Y224640D01*
Y226300D01*
G01X132000Y158886D02*
X129914D01*
X128100Y160700D01*
X112900D01*
X109100Y156900D01*
X91100D01*
X87952Y160048D01*
Y161720D01*
X87232Y162440D01*
X84812D01*
X84092Y161720D01*
Y159182D01*
X82809Y157900D01*
X79594D01*
X78312Y159182D01*
Y161720D01*
X77592Y162440D01*
X75172D01*
X74452Y161720D01*
Y159552D01*
X72800Y157900D01*
X25400D01*
X22640Y160660D01*
Y233098D01*
X23822Y234280D01*
X25540D01*
X25900Y234640D01*
Y236300D01*
G01X132000Y159846D02*
X130311D01*
X128498Y161660D01*
X112502D01*
X108702Y157860D01*
X91498D01*
X88912Y160446D01*
Y162118D01*
X87629Y163400D01*
X84414D01*
X83132Y162118D01*
Y159580D01*
X82412Y158860D01*
X79992D01*
X79272Y159580D01*
Y162118D01*
X77989Y163400D01*
X74774D01*
X73492Y162118D01*
Y159949D01*
X72402Y158860D01*
X54974D01*
X54576Y159258D01*
Y159502D01*
X54177Y159900D01*
X53614D01*
X53215Y159502D01*
Y159258D01*
X52817Y158860D01*
X25798D01*
X23600Y161058D01*
Y221155D01*
X23960Y221515D01*
X24640D01*
X25000Y221875D01*
Y222515D01*
X24640Y222875D01*
X23960D01*
X23600Y223235D01*
Y232700D01*
X24220Y233320D01*
X25540D01*
X25900Y232960D01*
Y231300D01*
G01X132000Y174540D02*
X119360D01*
X111630Y182270D01*
Y184083D01*
X112454Y184907D01*
Y185654D01*
X113042Y186242D01*
X113789D01*
X115086Y187538D01*
Y188557D01*
X113374Y190268D01*
X112356D01*
X108901Y186813D01*
X107087D01*
X104813Y189087D01*
Y190900D01*
X108268Y194356D01*
Y195374D01*
X106557Y197085D01*
X105539D01*
X102084Y193630D01*
X100270D01*
X93200Y200700D01*
X79000D01*
X73000Y194700D01*
X66200D01*
X63250Y191750D01*
Y175950D01*
X60500Y173200D01*
X40533D01*
X40173Y172840D01*
Y171760D01*
X39813Y171400D01*
X39173D01*
X38813Y171760D01*
Y172840D01*
X38453Y173200D01*
X34758D01*
X33860Y172302D01*
Y169798D01*
X34378Y169280D01*
X35540D01*
X35900Y169640D01*
Y171300D01*
G01X132000Y175521D02*
X131525D01*
X131504Y175500D01*
X119758D01*
X112590Y182668D01*
Y183686D01*
X116046Y187141D01*
Y188954D01*
X113772Y191228D01*
X111958D01*
X108503Y187773D01*
X107485D01*
X105773Y189484D01*
Y190503D01*
X109229Y193958D01*
Y195771D01*
X106955Y198045D01*
X105141D01*
X101686Y194590D01*
X100668D01*
X93598Y201660D01*
X78602D01*
X72602Y195660D01*
X65802D01*
X62290Y192148D01*
Y176348D01*
X60102Y174160D01*
X34360D01*
X32900Y172700D01*
Y169400D01*
X33980Y168320D01*
X35540D01*
X35900Y167960D01*
Y166300D01*
G01X132000Y168580D02*
X130920Y169660D01*
X120600D01*
X98860Y191400D01*
X88589D01*
X87307Y190118D01*
Y183780D01*
X86587Y183060D01*
X84167D01*
X83447Y183780D01*
Y190118D01*
X82164Y191400D01*
X78949D01*
X77667Y190118D01*
Y183780D01*
X76947Y183060D01*
X74527D01*
X73807Y183780D01*
Y190118D01*
X72524Y191400D01*
X68942D01*
X66702Y189160D01*
Y166002D01*
X64960Y164260D01*
X29998D01*
X29060Y165198D01*
Y188018D01*
X27798Y189280D01*
X26260D01*
X25900Y189640D01*
Y191300D01*
G01X132000Y167223D02*
X130523Y168700D01*
X120202D01*
X98462Y190440D01*
X88987D01*
X88267Y189720D01*
Y183382D01*
X86984Y182100D01*
X83769D01*
X82487Y183382D01*
Y189720D01*
X81767Y190440D01*
X79347D01*
X78627Y189720D01*
Y183382D01*
X77344Y182100D01*
X74129D01*
X72847Y183382D01*
Y189720D01*
X72127Y190440D01*
X69340D01*
X67662Y188762D01*
Y165605D01*
X65358Y163300D01*
X29600D01*
X28100Y164800D01*
Y187620D01*
X27400Y188320D01*
X26260D01*
X25900Y187960D01*
Y186300D01*
G01X132000Y183642D02*
X128902Y186740D01*
X127503D01*
X107703Y206540D01*
X99702D01*
X92942Y213300D01*
X81895D01*
X81175Y212580D01*
Y210982D01*
X79892Y209700D01*
X76677D01*
X75395Y210982D01*
Y212580D01*
X74675Y213300D01*
X58300D01*
X56600Y211600D01*
Y180442D01*
X54598Y178440D01*
X34360D01*
X32763Y180037D01*
Y183163D01*
X33880Y184280D01*
X35540D01*
X35900Y184640D01*
Y186300D01*
G01X132000Y185000D02*
X129300Y187700D01*
X127900D01*
X126757Y188843D01*
Y189352D01*
X126848Y189443D01*
Y189952D01*
X126396Y190404D01*
X125886D01*
X125796Y190314D01*
X125287D01*
X108100Y207500D01*
X100100D01*
X93340Y214260D01*
X81497D01*
X80215Y212978D01*
Y211380D01*
X79495Y210660D01*
X77075D01*
X76355Y211380D01*
Y212978D01*
X75072Y214260D01*
X57902D01*
X55640Y211998D01*
Y185029D01*
X55280Y184669D01*
X54460D01*
X54100Y184309D01*
Y183669D01*
X54460Y183309D01*
X55280D01*
X55640Y182949D01*
Y180840D01*
X54200Y179400D01*
X34758D01*
X33723Y180435D01*
Y182765D01*
X34278Y183320D01*
X35540D01*
X35900Y182960D01*
Y181300D01*
G01X132000Y192951D02*
X128560Y196390D01*
Y203698D01*
X109898Y222360D01*
X60040D01*
X54100Y228300D01*
Y231692D01*
X51432Y234360D01*
X49940D01*
X48900Y235400D01*
Y237375D01*
X47075Y239200D01*
X45100D01*
X44000Y240300D01*
Y242275D01*
X42075Y244200D01*
X39900D01*
X38900Y245200D01*
Y247375D01*
X36975Y249300D01*
X35665D01*
X33682Y251283D01*
Y262925D01*
X34078Y263320D01*
X35540D01*
X35900Y262960D01*
Y261300D01*
G01X132000Y191819D02*
X131774D01*
X127600Y195993D01*
Y203300D01*
X109500Y221400D01*
X59642D01*
X53140Y227902D01*
Y231295D01*
X51035Y233400D01*
X49542D01*
X47940Y235002D01*
Y236977D01*
X46677Y238240D01*
X44702D01*
X43040Y239902D01*
Y241877D01*
X41677Y243240D01*
X39502D01*
X37940Y244802D01*
Y246977D01*
X36577Y248340D01*
X35268D01*
X32723Y250885D01*
Y263323D01*
X33680Y264280D01*
X35540D01*
X35900Y264640D01*
Y266300D01*
G01X132000Y144100D02*
X128720D01*
X98900Y114280D01*
X51260D01*
X50900Y114640D01*
Y116300D01*
G01X132000Y143140D02*
X129118D01*
X99298Y113320D01*
X51260D01*
X50900Y112960D01*
Y111300D01*
G01X141005Y270295D02*
X141340Y269960D01*
Y259160D01*
X163490Y237010D01*
Y231805D01*
X163495Y231800D01*
G01X142695Y270295D02*
X142300Y269900D01*
Y259558D01*
X164480Y237378D01*
Y232625D01*
X164449Y232595D01*
Y232203D01*
X164455Y232198D01*
Y231800D01*
G01X199940Y126900D02*
Y125682D01*
X199860Y125602D01*
Y123098D01*
X201690Y121268D01*
X214318D01*
X215600Y119985D01*
Y116770D01*
X214318Y115488D01*
X200580D01*
X199860Y114768D01*
Y112348D01*
X200580Y111628D01*
X214318D01*
X215600Y110345D01*
Y107130D01*
X214318Y105848D01*
X202905D01*
X199860Y102802D01*
Y94898D01*
X210260Y84498D01*
Y45802D01*
X208860Y44402D01*
Y39802D01*
X208160Y39102D01*
Y34698D01*
X210900Y31958D01*
Y31100D01*
X212000Y30000D01*
G01X198980Y126900D02*
Y126080D01*
X198900Y126000D01*
Y122700D01*
X201292Y120308D01*
X213920D01*
X214640Y119588D01*
Y117168D01*
X213920Y116448D01*
X200182D01*
X198900Y115165D01*
Y111950D01*
X200182Y110668D01*
X213920D01*
X214640Y109948D01*
Y107528D01*
X213920Y106808D01*
X202508D01*
X198900Y103200D01*
Y94500D01*
X209300Y84100D01*
Y46200D01*
X207900Y44800D01*
Y40200D01*
X207200Y39500D01*
Y34300D01*
X209800Y31700D01*
Y31100D01*
X208700Y30000D01*
M02*
