G04 ================== begin FILE IDENTIFICATION RECORD ==================*
G04 Layout Name:  C:/userdata/Boards/TSW14J50_B/TSW14J50_B.brd*
G04 Film Name:    LYR10_SIG3*
G04 File Format:  Gerber RS274X*
G04 File Origin:  Cadence Allegro 16.6-S019*
G04 Origin Date:  Tue Apr 01 14:59:11 2014*
G04 *
G04 Layer:  VIA CLASS/L10-SIG3*
G04 Layer:  PIN/L10-SIG3*
G04 Layer:  ETCH/L10-SIG3*
G04 Layer:  BOARD GEOMETRY/TOOLING_CORNERS*
G04 *
G04 Offset:    (0.000 0.000)*
G04 Mirror:    No*
G04 Mode:      Positive*
G04 Rotation:  0*
G04 FullContactRelief:  No*
G04 UndefLineWidth:     7.000*
G04 ================== end FILE IDENTIFICATION RECORD ====================*
%FSLAX55Y55*MOIN*%
%IR0*IPPOS*OFA0.00000B0.00000*MIA0B0*SFA1.00000B1.00000*%
%ADD12C,.15*%
%ADD20C,.17*%
%ADD10C,.01*%
%ADD11C,.02*%
%ADD16C,.03*%
%ADD13C,.022*%
%ADD23C,.05*%
%ADD14C,.016*%
%ADD21C,.08*%
%ADD17C,.018*%
%ADD15C,.092*%
%ADD22C,.022008*%
%ADD19C,.058*%
%ADD18C,.097*%
%ADD24C,.004*%
%ADD25C,.005*%
%ADD26C,.0042*%
%ADD27C,.006*%
%ADD28C,.0036*%
%ADD35C,.104004*%
%ADD33C,.122004*%
%ADD29C,.162004*%
%ADD31C,.032004*%
%ADD30C,.060004*%
%ADD32C,.034004*%
%ADD34C,.028004*%
G75*
%LPD*%
G75*
G36*
G01X67500Y-5000D02*
X25585Y36915D01*
G02X25694Y37558I283J283D01*
G03X23558Y39694I-694J1442D01*
G02X22915Y39585I-360J174D01*
G01X10000Y52500D01*
Y53942D01*
X10011Y53974D01*
G03Y55026I-1511J526D01*
G01X10000Y55058D01*
Y68751D01*
G03Y71249I-1000J1249D01*
G01Y84363D01*
G02X10500Y84751I400J0D01*
G03Y87849I400J1549D01*
G02X10000Y88237I-100J387D01*
G01Y94600D01*
X28900D01*
X35184Y88316D01*
G02X35101Y87686I-283J-283D01*
G03X37286Y85501I799J-1387D01*
G02X37916Y85584I347J-200D01*
G01X40000Y83500D01*
Y62500D01*
X75602Y26898D01*
G02X75556Y26292I-283J-283D01*
G03X77792Y24056I944J-1292D01*
G02X78398Y24102I323J-236D01*
G01X80000Y22500D01*
X101000D01*
X110000Y13500D01*
Y12200D01*
G02X109280Y11960I-400J0D01*
G03Y10040I-1280J-960D01*
G02X110000Y9800I320J-240D01*
G01Y-5000D01*
X67500D01*
G37*
G36*
G01X142500Y-2500D02*
X141847Y-1847D01*
G02X141871Y-1260I283J283D01*
G03X134540Y6071I-3371J3960D01*
G02X133953Y6047I-305J259D01*
G01X102099Y37901D01*
X102100Y37985D01*
G03X101060Y39499I-1600J15D01*
G02X100820Y39999I140J375D01*
G03Y41001I-1520J501D01*
G02X101060Y41501I380J125D01*
G03X98980Y42499I-560J1499D01*
G02X98740Y41999I-380J-125D01*
G03X98273Y41727I560J-1499D01*
G01X50954Y89046D01*
G02X51170Y89723I283J283D01*
G03X49323Y91570I-270J1577D01*
G02X48646Y91354I-394J67D01*
G01X45954Y94046D01*
G02X46170Y94723I283J283D01*
G03X44323Y96570I-270J1577D01*
G02X43646Y96354I-394J67D01*
G01X37500Y102500D01*
Y106276D01*
G03Y106324I-1600J24D01*
G01Y112500D01*
X44067D01*
G02X44433Y111940I0J-400D01*
G03X47367I1467J-640D01*
G02X47733Y112500I367J160D01*
G01X49067D01*
G02X49433Y111940I0J-400D01*
G03X52367I1467J-640D01*
G02X52733Y112500I367J160D01*
G01X65000D01*
X65781Y111719D01*
G02X65598Y111049I-283J-283D01*
G03X67549Y109098I401J-1549D01*
G02X68219Y109281I387J-100D01*
G01X90323Y87177D01*
X90240Y87042D01*
G03X91205Y84649I1361J-842D01*
G02X91505Y84229I-99J-388D01*
G03X92705Y82549I1595J-129D01*
G02X93005Y82129I-99J-388D01*
G03X95857Y81010I1595J-129D01*
G02X96454Y81046I314J-247D01*
G01X98415Y79085D01*
G02X98306Y78442I-283J-283D01*
G03X100442Y76306I694J-1442D01*
G02X101085Y76415I360J-174D01*
G01X107602Y69898D01*
G02X107556Y69292I-283J-283D01*
G03X109792Y67056I944J-1292D01*
G02X110398Y67102I323J-236D01*
G01X119700Y57800D01*
G02X119528Y57133I-283J-283D01*
G03X120382Y53843I472J-1633D01*
G02X120858Y53558I90J-390D01*
G03X123865Y52986I1642J442D01*
G02X124469Y53031I321J-238D01*
G01X126791Y50709D01*
X126678Y50569D01*
G03X126302Y49416I1322J-1069D01*
G02X125731Y49035I-400J-20D01*
G03X126698Y47584I-731J-1535D01*
G02X127269Y47965I400J20D01*
G03X129069Y48178I730J1535D01*
G01X129209Y48291D01*
X132901Y44599D01*
X132900Y44515D01*
G03X134515Y42900I1600J-15D01*
G01X134599Y42901D01*
X143642Y33858D01*
X143575Y33729D01*
G03X145729Y31575I1425J-729D01*
G01X145858Y31642D01*
X154361Y23139D01*
X154250Y22999D01*
G03X156499Y20750I1250J-999D01*
G01X156639Y20861D01*
X159508Y17992D01*
X159472Y17876D01*
G03X161476Y15872I1528J-476D01*
G01X161592Y15908D01*
X162500Y15000D01*
Y13800D01*
G02X161860Y13480I-400J0D01*
G03Y10920I-960J-1280D01*
G02X162500Y10600I240J-320D01*
G01Y-2500D01*
X142500D01*
G37*
G36*
G01X239015Y177323D02*
X239035Y177335D01*
G03X236835Y179535I-835J1365D01*
G01X236823Y179515D01*
X235771Y178464D01*
Y176500D01*
X234682D01*
G02X234289Y176974I0J400D01*
G03X231536I-1376J258D01*
G02X231143Y176500I-393J-74D01*
G01X212500D01*
X210500Y178500D01*
X209885D01*
X209847Y178516D01*
G03X208734I-556J-1285D01*
G01X208696Y178500D01*
X206500D01*
X204500Y180500D01*
Y183200D01*
X205038Y183738D01*
X205138Y183722D01*
G03X206737Y185321I216J1384D01*
G01X206721Y185421D01*
X216849Y195549D01*
X216949Y195533D01*
G03X218548Y197132I216J1384D01*
G01X218532Y197232D01*
X222700Y201400D01*
X244921D01*
X244963Y201256D01*
G03X248037I1537J444D01*
G01X248079Y201400D01*
X338900D01*
X363000Y225500D01*
X389500D01*
X392500Y222500D01*
Y212536D01*
G02X391759Y212327I-400J0D01*
G03X388481Y207012I-2986J-1827D01*
G02X388731Y206331I-33J-399D01*
G01X358900Y176500D01*
X238872D01*
Y177179D01*
X239015Y177323D01*
G37*
%LPC*%
G75*
G36*
G01X113808Y51724D02*
G02X112391Y51593I-576J-1493D01*
G03X112324Y52306I-210J340D01*
G02X113742Y52438I576J1493D01*
G03X113808Y51724I210J-340D01*
G37*
G36*
G01X120535Y40730D02*
G02X119084Y41698I-1535J-731D01*
G03X119465Y42270I20J400D01*
G02X120916Y41302I1535J731D01*
G03X120535Y40730I-20J-400D01*
G37*
G36*
G01X259193Y193350D02*
G03X258573Y193330I-302J-262D01*
G02X256102Y193239I-1273J970D01*
G03X255522Y193259I-299J-265D01*
G02X255598Y195461I-1122J1141D01*
G03X256178Y195441I299J265D01*
G02X258507Y195350I1122J-1141D01*
G03X259127Y195370I302J262D01*
G02X259193Y193350I1273J-970D01*
G37*
G54D35*
X297900Y189800D03*
G54D33*
X126800Y28100D03*
G54D29*
X20500Y59800D03*
G54D31*
X18000Y81500D03*
X20900Y86300D03*
X15900Y91300D03*
X36000Y62000D03*
Y81000D03*
X30900Y86300D03*
X25900Y91300D03*
X47500Y24500D03*
X49500Y39500D03*
X50000Y47500D03*
X63000Y10000D03*
Y24500D03*
X77500Y10000D03*
X90500Y11000D03*
X50900Y96300D03*
Y106300D03*
Y101300D03*
X40900Y106300D03*
X45900D03*
Y101300D03*
X72000Y82500D03*
X81800Y87100D03*
Y91100D03*
X91500Y58500D03*
X87000Y69500D03*
X111000Y40000D03*
X99000Y49000D03*
X108000D03*
X103500D03*
X113000Y43000D03*
X116500Y34000D03*
Y47700D03*
X136000Y22500D03*
X130500Y13500D03*
X144000Y14000D03*
X236934Y184988D03*
X245400Y193200D03*
X254700Y199200D03*
X263400Y179400D03*
X265600Y183000D03*
X277500Y195500D03*
X318200Y188200D03*
X320800Y195700D03*
G54D30*
X28400Y76749D03*
G54D32*
X111000Y63500D03*
X119500Y50000D03*
X245400Y180100D03*
X257400D03*
G54D34*
X217165Y189042D03*
Y181168D03*
X209291D03*
X213228Y189042D03*
X228976Y181168D03*
Y189042D03*
X225039D03*
X228976Y192980D03*
X225039Y196916D03*
X232913Y192980D03*
%LPD*%
G75*
G54D10*
X0Y0D03*
Y370000D03*
X147948Y139748D03*
X152048Y139548D03*
X152552Y163248D03*
X164352Y186948D03*
X160252Y178848D03*
Y186748D03*
X164352Y179048D03*
Y194848D03*
X160252Y194648D03*
X181700Y16000D03*
X183600Y24100D03*
X180400Y26100D03*
X188000Y16100D03*
X186700Y26200D03*
X183600Y21700D03*
X186700Y23800D03*
X184800Y13300D03*
X188000Y34900D03*
X184800Y32000D03*
X196200Y24200D03*
X193100Y26100D03*
X189900Y24200D03*
X196200Y21800D03*
X189900D03*
X191200Y13300D03*
X199400Y26000D03*
X202500Y24100D03*
X194300Y35000D03*
X191200Y32300D03*
X197500D03*
X199300Y42900D03*
X470000Y0D03*
Y370000D03*
G54D11*
X-10500Y24000D03*
Y39000D03*
Y54000D03*
Y69500D03*
Y84500D03*
Y99500D03*
Y114500D03*
Y129500D03*
Y144500D03*
Y159500D03*
Y174500D03*
Y189500D03*
Y204500D03*
Y219500D03*
Y234500D03*
Y249500D03*
Y264500D03*
Y279500D03*
Y294500D03*
Y309500D03*
Y324500D03*
Y339500D03*
Y354500D03*
X8000Y24500D03*
Y39000D03*
X8500Y54500D03*
X9000Y70000D03*
X5900Y91300D03*
Y106300D03*
Y121300D03*
Y136300D03*
Y151300D03*
Y166300D03*
Y181300D03*
Y176300D03*
Y186300D03*
Y196300D03*
Y211300D03*
Y226300D03*
Y241300D03*
Y256300D03*
Y261300D03*
Y276300D03*
Y271300D03*
Y266300D03*
X6000Y294500D03*
Y310000D03*
X6500Y324500D03*
X7000Y339500D03*
X18000Y-11000D03*
Y81500D03*
X20900Y96300D03*
Y86300D03*
X15900Y91300D03*
X10900Y96300D03*
Y86300D03*
X20900Y91300D03*
X15900Y86300D03*
X20900Y111300D03*
X15900Y106300D03*
X10900Y111300D03*
X20900Y126300D03*
X15900Y121300D03*
X10900Y126300D03*
X15900D03*
X20900Y141300D03*
X15900Y136300D03*
X10900Y141300D03*
X15900Y131300D03*
X20900Y156300D03*
X15900Y151300D03*
X10900Y156300D03*
X20900Y171300D03*
X15900Y166300D03*
X10900Y171300D03*
X20900Y186300D03*
X15900Y181300D03*
X10900Y186300D03*
Y181300D03*
Y176300D03*
X20900Y201300D03*
X15900Y196300D03*
X10900Y201300D03*
X15900D03*
X20900Y216300D03*
X15900Y211300D03*
X10900Y216300D03*
X20900Y211300D03*
Y206300D03*
X15900D03*
X20900Y231300D03*
X15900Y226300D03*
X10900Y231300D03*
X20900Y221300D03*
Y226300D03*
Y246300D03*
X15900Y241300D03*
X10900Y246300D03*
X20900Y241300D03*
Y236300D03*
Y261300D03*
X15900Y256300D03*
X10900Y261300D03*
X15900D03*
X20900Y256300D03*
Y251300D03*
Y266300D03*
X15900Y271300D03*
X10900Y266300D03*
X15900D03*
X20900Y276300D03*
Y271300D03*
X15900Y276300D03*
X10900D03*
Y271300D03*
X20900Y281300D03*
X10900D03*
X21500Y324500D03*
X22000Y339500D03*
X14500Y355500D03*
X23500Y369000D03*
X16000Y380500D03*
X33000Y-11000D03*
X25000Y10000D03*
Y24500D03*
Y39000D03*
X36000Y62000D03*
Y81000D03*
X35900Y91300D03*
X30900Y96300D03*
Y86300D03*
X25900Y91300D03*
X35900Y96300D03*
Y86300D03*
X30900Y91300D03*
X25900Y86300D03*
X35900Y101300D03*
X30900Y111300D03*
X25900Y106300D03*
X35900D03*
X30900Y126300D03*
X25900Y121300D03*
X30900Y141300D03*
X25900Y136300D03*
X35900Y146300D03*
X30900Y156300D03*
X25900Y151300D03*
X35900Y161300D03*
X30900Y171300D03*
X25900Y166300D03*
X35900Y171300D03*
Y166300D03*
Y176300D03*
X30900Y186300D03*
X25900Y181300D03*
X35900Y186300D03*
Y181300D03*
X25900Y186300D03*
X35900Y191300D03*
X30900Y201300D03*
X25900Y196300D03*
X35900Y201300D03*
Y196300D03*
X25900Y191300D03*
X35900Y206300D03*
X30900Y216300D03*
X25900Y211300D03*
X35900Y221300D03*
X30900Y231300D03*
X25900Y226300D03*
X35900D03*
Y231300D03*
X25900D03*
X35900Y236300D03*
X30900Y246300D03*
X25900Y241300D03*
X35900Y246300D03*
Y241300D03*
X25900Y236300D03*
X35900Y256300D03*
Y251300D03*
X30900Y261300D03*
X25900Y256300D03*
X35900Y261300D03*
Y276300D03*
Y271300D03*
X30900Y266300D03*
X25900Y276300D03*
Y271300D03*
X35900Y266300D03*
X30900Y281300D03*
X25900D03*
X31000Y294500D03*
X36500Y310000D03*
X31000Y380500D03*
X48000Y-11000D03*
X44000Y10000D03*
X47500Y24500D03*
X49500Y39500D03*
X50000Y47500D03*
X51000Y70000D03*
X53000Y62000D03*
X54000Y81500D03*
X50900Y86300D03*
X45900Y96300D03*
Y91300D03*
X40900Y96300D03*
Y86300D03*
Y91300D03*
X50900Y96300D03*
Y91300D03*
Y106300D03*
Y101300D03*
X45900Y111300D03*
X40900Y106300D03*
Y111300D03*
Y101300D03*
X50900Y111300D03*
X45900Y106300D03*
Y101300D03*
X50900Y126300D03*
Y121300D03*
X45900Y116300D03*
X40900Y126300D03*
Y121300D03*
X50900Y116300D03*
X45900Y126300D03*
Y121300D03*
X50900Y141300D03*
X45900Y136300D03*
Y131300D03*
X40900Y141300D03*
X50900Y136300D03*
Y131300D03*
Y146300D03*
X45900Y156300D03*
Y151300D03*
X40900Y146300D03*
X50900Y156300D03*
Y151300D03*
Y166300D03*
Y161300D03*
X45900Y171300D03*
X40900Y166300D03*
Y161300D03*
X50900Y171300D03*
Y186300D03*
Y181300D03*
X45900Y176300D03*
X40900Y186300D03*
Y181300D03*
X45900Y186300D03*
Y181300D03*
X50900Y176300D03*
Y201300D03*
X45900Y196300D03*
Y191300D03*
X40900Y201300D03*
X50900Y196300D03*
Y191300D03*
X45900Y201300D03*
X50900Y206300D03*
X45900Y216300D03*
Y211300D03*
X40900Y206300D03*
X50900Y216300D03*
Y211300D03*
X45900Y206300D03*
X50900Y226300D03*
Y221300D03*
X45900Y231300D03*
X40900Y226300D03*
Y221300D03*
X50900Y231300D03*
X45900Y226300D03*
Y221300D03*
X50900Y246300D03*
Y241300D03*
X45900Y236300D03*
X40900Y246300D03*
Y241300D03*
X50900Y236300D03*
Y261300D03*
X45900Y256300D03*
Y251300D03*
X40900Y261300D03*
X50900Y256300D03*
Y251300D03*
X40900Y256300D03*
Y251300D03*
X50900Y266300D03*
X45900Y276300D03*
Y271300D03*
X40900Y266300D03*
X50900Y276300D03*
Y271300D03*
X40900Y276300D03*
Y271300D03*
X50900Y281300D03*
X40900D03*
X51500Y293500D03*
Y310000D03*
X41200Y352500D03*
X44000Y380500D03*
X63000Y-11000D03*
Y10000D03*
Y24500D03*
X66500Y48500D03*
Y69000D03*
X66000Y109500D03*
X57500Y117500D03*
Y129000D03*
X68000Y139000D03*
X57500D03*
X59500Y161000D03*
X61312Y204088D03*
X64937Y205663D03*
X67462Y207238D03*
X67000Y227000D03*
X64000Y251500D03*
X67500Y279000D03*
X67000Y293500D03*
X66000Y310000D03*
X57500Y342300D03*
Y358300D03*
X59000Y380500D03*
X78000Y-11000D03*
X77500Y10000D03*
X76500Y25000D03*
X78000Y58000D03*
X72000Y82500D03*
X81800Y87100D03*
Y91100D03*
X72500Y111100D03*
X81800D03*
Y106600D03*
X75000Y128500D03*
X76800Y116800D03*
X76000Y144500D03*
X82000Y167000D03*
X71000Y182000D03*
X69300Y201600D03*
X83100Y203900D03*
X69300Y197600D03*
X72650Y199150D03*
X70387Y208813D03*
X82600Y219000D03*
X72600Y219400D03*
X79000Y229200D03*
X83500Y230000D03*
X83000Y227500D03*
X78200Y233500D03*
X76700Y241500D03*
X83400Y244700D03*
X73000Y244000D03*
X76600Y238600D03*
Y250400D03*
X80600Y254400D03*
X80800Y260500D03*
X82500Y279500D03*
Y293500D03*
X74000Y380500D03*
X93000Y-11000D03*
X90500Y11000D03*
X89500Y25500D03*
X96000Y33000D03*
Y28000D03*
Y35500D03*
Y30500D03*
X98500Y33000D03*
X98000Y38000D03*
X89000Y48000D03*
X91500Y58500D03*
X87000Y69500D03*
X93100Y84100D03*
X94600Y82000D03*
X95800Y94100D03*
X91600Y86200D03*
X91800Y94100D03*
X91000Y111100D03*
X95800Y104100D03*
X91800D03*
X95500Y120500D03*
X89500Y129000D03*
X85800Y116800D03*
X91500Y142500D03*
X92000Y182000D03*
X93200Y194000D03*
X97200D03*
X86500Y206500D03*
X90200Y204700D03*
X92000Y219700D03*
X91400Y229300D03*
X93400Y231800D03*
X88100Y229500D03*
X97500Y225800D03*
Y229800D03*
X93000Y246200D03*
X97500Y245500D03*
X89400Y239300D03*
X88600Y241600D03*
X95100Y240100D03*
X86600Y250400D03*
X90600Y254400D03*
X98300Y280100D03*
X89000Y380500D03*
X108000Y-11000D03*
Y11000D03*
X99300Y35500D03*
X100500Y38000D03*
X99300Y40500D03*
X111000Y40000D03*
X100500Y43000D03*
X113232Y50231D03*
X99000Y49000D03*
X108000D03*
X103500D03*
X113000Y43000D03*
X112901Y53799D03*
X108500Y68000D03*
X99000Y77000D03*
X103600Y89100D03*
X106100D03*
X109100D03*
X111600D03*
X105000Y128500D03*
X108000Y139500D03*
X100300Y150400D03*
Y153900D03*
Y145100D03*
X101000Y161500D03*
Y166500D03*
Y175000D03*
Y184000D03*
X101100Y202000D03*
X99900Y199800D03*
X102000Y214200D03*
X101300Y204700D03*
X111700Y207200D03*
X108000Y209200D03*
X102200Y209800D03*
X111000Y213100D03*
X108000Y213800D03*
X104850Y219050D03*
X102000Y259500D03*
X103500Y293500D03*
X110500Y310000D03*
X100800Y333500D03*
X111000Y355000D03*
X104000Y380500D03*
X123000Y-11000D03*
X114000Y22000D03*
X116500Y34000D03*
Y47700D03*
X119500Y70500D03*
X116800Y63600D03*
X115500Y73800D03*
Y77800D03*
Y81800D03*
Y85800D03*
X127500Y102500D03*
Y114500D03*
X128500Y129000D03*
X126000Y119500D03*
X117500Y140000D03*
Y165500D03*
X119500Y184000D03*
X126800Y184100D03*
X121000Y241500D03*
X125100Y272200D03*
Y268600D03*
X119800Y270300D03*
X122500Y270295D03*
X123500Y284000D03*
X114100Y357200D03*
X116000Y355000D03*
X125700Y354000D03*
X119000Y380500D03*
X138000Y-11000D03*
X136000Y22500D03*
X130500Y13500D03*
X134500Y44500D03*
X132500Y70500D03*
X137500Y59000D03*
X132500Y85500D03*
X131500Y114500D03*
Y102500D03*
X139000Y119500D03*
X142400Y125900D03*
X138500D03*
X134800D03*
X130500Y220500D03*
X131500Y241500D03*
X140800Y233900D03*
Y237900D03*
X132500Y260500D03*
X143000Y250000D03*
X136000Y293000D03*
Y310000D03*
X138500Y349500D03*
X132500Y360000D03*
X134000Y380500D03*
X153000Y-11000D03*
X144000Y14000D03*
X155500Y22000D03*
X145000Y33000D03*
X144500Y70500D03*
X148500Y242500D03*
X147500Y260500D03*
X151000Y310000D03*
X148300Y323700D03*
X151000Y380500D03*
X168000Y-11000D03*
X164500Y-2000D03*
X164800Y10000D03*
X168300Y9700D03*
X161000Y17400D03*
X160900Y12200D03*
X161100Y25800D03*
X164700Y23500D03*
X164800Y19600D03*
X170800Y12200D03*
X170600Y25800D03*
Y17400D03*
X167800Y19700D03*
X167700Y23400D03*
X161000Y31000D03*
X164700Y33200D03*
X170600Y31000D03*
X167700Y33400D03*
X166000Y126000D03*
X171800Y263000D03*
X162400D03*
X158400D03*
X167800D03*
X159900Y268500D03*
Y272100D03*
X165100Y270300D03*
X162500Y270295D03*
X166000Y310000D03*
Y356890D03*
X161000Y361500D03*
X166000Y380500D03*
X161000Y371600D03*
X183000Y-11000D03*
X187000Y258500D03*
X179300Y257100D03*
X181200Y263000D03*
X177200D03*
X175300Y257100D03*
X181000Y310000D03*
X173700Y340600D03*
X183500Y361500D03*
X181000Y380500D03*
X183400Y371600D03*
X198000Y-11000D03*
X199400Y7100D03*
X189500Y232600D03*
Y236100D03*
X189800Y256400D03*
X194600Y261000D03*
X198700Y270100D03*
X202500Y274800D03*
X191500Y269500D03*
X202500Y270295D03*
X191500Y293000D03*
X196000Y310000D03*
X195000Y328000D03*
X195500Y350500D03*
X188000Y356890D03*
X196000Y380500D03*
X213000Y-11000D03*
X206900Y60400D03*
X204500Y260400D03*
X210500Y262500D03*
X206000Y269700D03*
X211000Y293000D03*
X203500Y282500D03*
X211000Y310000D03*
X212000Y328000D03*
X217500Y335000D03*
X210500Y350500D03*
X210000Y356890D03*
X205000Y361500D03*
X211000Y380500D03*
X205000Y371600D03*
X228000Y-11000D03*
X232249Y14052D03*
X231300Y124900D03*
X225100Y126000D03*
X225500Y263000D03*
X226700Y268600D03*
Y275700D03*
X221500Y269500D03*
X227200Y281800D03*
X220000Y287500D03*
X227500Y310000D03*
X225200Y321500D03*
X226000Y350500D03*
X226400Y343300D03*
X232000Y356890D03*
X227000Y361500D03*
X226000Y380500D03*
X227000Y371600D03*
X243000Y-11000D03*
X236500Y3500D03*
X240000Y19500D03*
X243000Y33000D03*
X244000Y48500D03*
X244500Y63500D03*
Y79000D03*
Y95000D03*
X244800Y88100D03*
X243000Y90600D03*
X243800Y125000D03*
X246000Y119000D03*
X236500D03*
X240500D03*
X243000Y134000D03*
X241700Y151600D03*
X244000Y159500D03*
Y164500D03*
X244030Y172250D03*
Y167250D03*
X240732Y162000D03*
X240762Y169750D03*
X236934Y184988D03*
X238200Y178700D03*
X246500Y201700D03*
X245400Y193200D03*
X245900Y205700D03*
X238200Y204900D03*
X242000Y205800D03*
X246900Y220500D03*
X240600Y233200D03*
X245800Y230438D03*
X246400Y237300D03*
X240600Y237200D03*
X232500Y260500D03*
X246400Y262900D03*
Y258900D03*
X246100Y253900D03*
X237800Y279200D03*
X237600Y286300D03*
X241000Y310000D03*
X238500Y350500D03*
X237300Y360600D03*
X241000Y380500D03*
X258000Y-11000D03*
X251500Y3500D03*
X255000Y19500D03*
X258000Y33000D03*
X259000Y48500D03*
X259500Y63500D03*
Y79000D03*
X259000Y95500D03*
X257000Y119000D03*
X251600D03*
X260100Y125100D03*
X254800Y125000D03*
X250000D03*
X258000Y134000D03*
Y149000D03*
X257000Y161000D03*
X256500Y171000D03*
X247268Y162000D03*
X247298Y169750D03*
X257300Y194300D03*
X260400Y194400D03*
X254400D03*
X254700Y199200D03*
X254800Y215100D03*
X249500Y204500D03*
X254800Y211300D03*
X259259Y212859D03*
X261700Y218400D03*
X248100Y225400D03*
X250500D03*
X258332Y225632D03*
X251700Y220600D03*
X249000Y254700D03*
X259500Y253700D03*
X250200Y262900D03*
X249400Y268700D03*
X257900Y281900D03*
X258000Y302500D03*
Y316500D03*
X255500Y348900D03*
X248700Y350100D03*
X251000Y352400D03*
X254000Y356890D03*
X249000Y361500D03*
X256000Y380500D03*
X249000Y371600D03*
X273000Y-11000D03*
X266500Y3500D03*
X270000Y19500D03*
X273000Y33000D03*
X274500Y63500D03*
Y79000D03*
X273500Y95500D03*
X266000Y115000D03*
X272000Y109500D03*
X262000Y119000D03*
X273500Y116000D03*
X269500Y120500D03*
X266000Y124000D03*
X273000Y134000D03*
Y149000D03*
X267000Y172000D03*
Y160000D03*
Y165000D03*
Y167000D03*
X263732Y162500D03*
Y169500D03*
X270268D03*
Y162500D03*
X263400Y179400D03*
X265600Y183000D03*
X265700Y218400D03*
X272841Y207741D03*
X275100Y210300D03*
X266700Y259400D03*
X267300Y255700D03*
X276400Y249300D03*
X273700Y251400D03*
X270200Y253600D03*
X265800Y272300D03*
X276000Y266400D03*
X276400Y282400D03*
X276500Y303500D03*
X269000Y316500D03*
X274400Y355100D03*
X266100Y352900D03*
X272000Y356700D03*
Y361500D03*
X271000Y380500D03*
X272000Y371600D03*
X288000Y-11000D03*
X281500Y3500D03*
X289500Y79000D03*
X285000Y109500D03*
X278000D03*
X280600Y115800D03*
X286900Y115700D03*
X280500Y163500D03*
Y173500D03*
X278500Y204000D03*
X277500Y195500D03*
X282800Y241400D03*
X279200Y247300D03*
X281400Y244100D03*
X278400Y271000D03*
X282300Y278200D03*
X280300Y266400D03*
X282200Y286200D03*
X286500Y278800D03*
Y304000D03*
X277000Y356890D03*
X284100Y358800D03*
X286150Y362750D03*
X286000Y380500D03*
X290000Y367700D03*
X288100Y371600D03*
X303000Y-11000D03*
X296500Y3500D03*
X298000Y34025D03*
X294850Y37175D03*
X301150Y34025D03*
X298000Y37175D03*
X294850Y34025D03*
X301150Y37175D03*
X295100Y26300D03*
X298000Y26200D03*
X301100D03*
X297800Y45500D03*
X292600Y43600D03*
X301937Y44737D03*
X298500Y54700D03*
X293500Y61000D03*
X297500Y92500D03*
X292500D03*
Y101000D03*
Y109500D03*
X297500Y100500D03*
Y108000D03*
Y115500D03*
Y124500D03*
X292000D03*
Y116000D03*
X297000Y163500D03*
X304500Y173500D03*
X292000Y255500D03*
X292400Y279000D03*
X292600Y286200D03*
X294000Y316500D03*
X299000Y357400D03*
X301800Y357200D03*
X304600Y357600D03*
X294000Y361500D03*
X301000Y380500D03*
X294100Y371600D03*
X318000Y-11000D03*
X311500Y3500D03*
X318000Y26500D03*
X315000Y44000D03*
X310500Y56500D03*
X311000Y66000D03*
X321000Y95500D03*
X315500Y135000D03*
X316000Y151500D03*
X315000Y163500D03*
X318200Y188200D03*
X320800Y195700D03*
X311000Y316500D03*
X320300Y347200D03*
X319500Y357500D03*
X307500D03*
X311800Y357400D03*
X314500Y361500D03*
X316000Y380500D03*
X314500Y371600D03*
X333000Y-11000D03*
X326500Y3500D03*
X333500Y14000D03*
X333000Y26500D03*
X330000Y44000D03*
X325500Y56500D03*
X331000Y76000D03*
X321500Y80000D03*
X334000Y85000D03*
X324500Y126500D03*
Y143500D03*
X336000Y152000D03*
X332900Y156900D03*
Y169900D03*
Y165900D03*
Y160900D03*
X335500Y204000D03*
X332600Y216300D03*
X329600Y210900D03*
X324050Y205700D03*
X331400Y231800D03*
X325700Y233700D03*
X333800Y226600D03*
X336000Y241500D03*
X328100Y236400D03*
X331900Y235400D03*
X333900Y322200D03*
X336000Y320200D03*
X333100Y316100D03*
X330353Y332553D03*
X332800Y330700D03*
X333900Y325800D03*
X327821Y334521D03*
X336000Y351500D03*
X333800Y346600D03*
X328800Y344900D03*
X325400Y352800D03*
X331000Y380500D03*
X348000Y-11000D03*
X341500Y3500D03*
X348500Y14000D03*
X339000Y66000D03*
X342000Y82500D03*
X350000Y75500D03*
X342000Y93500D03*
X349500Y100000D03*
X337000Y118000D03*
X336500Y135000D03*
X339000Y173500D03*
X336900Y212600D03*
X349158Y250858D03*
Y252858D03*
Y254858D03*
Y256858D03*
X341474Y255826D03*
X341700Y259900D03*
X345100Y265700D03*
X350189Y265489D03*
X343500Y289000D03*
Y302000D03*
X349736Y307454D03*
X339600Y316800D03*
X344754Y312746D03*
X336200Y311900D03*
X338100Y325800D03*
Y331300D03*
Y336300D03*
X350647Y326647D03*
X350254Y336490D03*
X350300Y331300D03*
X337754Y340427D03*
X336700Y343100D03*
X350400Y341800D03*
X349300Y351900D03*
X346000Y380500D03*
X363000Y-11000D03*
X353500Y3500D03*
X360000Y13000D03*
Y30000D03*
X356000Y65500D03*
X355000Y135000D03*
Y152000D03*
X362500Y236000D03*
X351158Y250858D03*
X353157D03*
X355157D03*
Y252858D03*
X353157D03*
X351158D03*
Y254858D03*
X353157D03*
X355157D03*
X353157Y256858D03*
X351158D03*
X355157D03*
X361000Y268000D03*
X352158Y268242D03*
X354000Y284900D03*
Y289400D03*
Y280400D03*
X356073Y301854D03*
X354100Y300300D03*
X362900Y296900D03*
X358042Y299242D03*
X360010Y302090D03*
X365000Y316600D03*
X358600Y320400D03*
X356400Y321900D03*
X360600Y318900D03*
X354105Y315405D03*
Y313396D03*
X358500Y332200D03*
X356300Y333700D03*
X360400Y330900D03*
X352653Y326647D03*
X352310Y336490D03*
X354105Y345305D03*
Y343305D03*
X353600Y357600D03*
X359800Y358000D03*
X358042Y361742D03*
X363947Y360053D03*
X355900Y365400D03*
X361000Y380500D03*
X361979Y368179D03*
X378000Y-11000D03*
X368500Y3500D03*
X375100Y4400D03*
X375500Y65500D03*
X375000Y83500D03*
X379000Y142000D03*
X377100Y158500D03*
X374900D03*
X372700D03*
X378800Y151700D03*
X373500Y178500D03*
X375000Y236000D03*
X373000Y265500D03*
X372600Y284800D03*
X372400Y289800D03*
X377600Y296300D03*
X379695Y301405D03*
X366700Y318700D03*
X368300Y316800D03*
X365916Y313596D03*
X378700Y318600D03*
X380200Y316600D03*
X377100D03*
X365916Y345916D03*
X375758Y346246D03*
Y343958D03*
X366000Y357600D03*
X375600Y358500D03*
X379695Y364305D03*
X377727Y361027D03*
X369853Y363353D03*
X371821Y367021D03*
X367884Y360216D03*
X376000Y380500D03*
X373800Y369300D03*
X393000Y-11000D03*
X386000Y4000D03*
X389000Y56000D03*
X388000Y77000D03*
X390500Y99500D03*
X384500Y159500D03*
X390100Y173600D03*
X388200Y170800D03*
X393500Y187000D03*
X394500Y179600D03*
X392100Y176500D03*
X386500Y198500D03*
X382400Y230700D03*
X387000Y256500D03*
X388100Y274900D03*
X381000Y283000D03*
X388100Y284800D03*
X388233Y279800D03*
Y289800D03*
X386500Y298000D03*
X384800Y303900D03*
X383600Y314800D03*
X384700Y310100D03*
X381664Y313164D03*
X383546Y334521D03*
X383100Y331800D03*
Y322800D03*
X382800Y326100D03*
X394490Y336490D03*
X382884Y328616D03*
X383546Y342395D03*
Y338458D03*
X388000Y353500D03*
X391000Y380500D03*
X381664Y367464D03*
X408000Y-11000D03*
X401000Y4000D03*
X396000Y15000D03*
X406000Y37500D03*
X403000Y57500D03*
X403100Y79000D03*
X406200D03*
X398500Y89000D03*
X405500Y99500D03*
X399500Y131000D03*
X401500Y159500D03*
Y146500D03*
Y175500D03*
X398000Y198500D03*
X403200Y199500D03*
X406900D03*
X399000Y232000D03*
X405000Y261000D03*
X400000Y275500D03*
X399500Y291000D03*
X406100Y312100D03*
X396100Y322300D03*
X400000Y308400D03*
X409600Y322800D03*
Y327400D03*
Y332700D03*
X395900Y332500D03*
X403400Y325100D03*
X403600Y325300D03*
X409600Y337700D03*
Y342600D03*
X396000Y347800D03*
X403300Y340200D03*
X408500Y357500D03*
X399000Y368000D03*
X406000Y380500D03*
X423000Y-11000D03*
X416000Y4000D03*
X411000Y15000D03*
X412000Y90000D03*
X420500Y99500D03*
X418300Y110800D03*
Y105800D03*
X424800D03*
Y110800D03*
X418300Y120800D03*
Y115800D03*
X424800D03*
Y120800D03*
X414500Y131000D03*
X416500Y157100D03*
X419200Y173200D03*
X413000Y175500D03*
X425100Y175000D03*
X417000Y192500D03*
X410500Y199500D03*
X420000Y202800D03*
X415500Y201600D03*
X422500Y262000D03*
X422000Y298000D03*
X422600Y306100D03*
X412700Y298200D03*
X414900Y305400D03*
X414400Y325200D03*
X424500Y324900D03*
X424700Y330200D03*
X417000Y347100D03*
X414400Y340100D03*
X423500Y353000D03*
X416000Y367500D03*
X421000Y380500D03*
X438000Y-11000D03*
X431000Y4000D03*
X426000Y15000D03*
X437000Y100000D03*
X436500Y113000D03*
X431000Y131500D03*
X426000Y146000D03*
X433500Y147500D03*
X433200Y157000D03*
X426500Y166000D03*
X428800Y175000D03*
X427000Y223600D03*
X429000Y247500D03*
X438000Y298500D03*
X426500Y302700D03*
X434500Y312500D03*
X437400Y319300D03*
X427600Y316300D03*
X435000Y341000D03*
X427600Y338800D03*
X438000Y353000D03*
X438500Y367500D03*
X436000Y380500D03*
X453000Y-11000D03*
X446000Y4000D03*
X441000Y15000D03*
X453500Y110000D03*
X446000Y131500D03*
X449500Y146500D03*
X452400Y154500D03*
X450500Y169000D03*
X444600Y173200D03*
X448600Y175400D03*
X452100D03*
X453000Y215500D03*
X442500Y248000D03*
X443100Y258600D03*
X444000Y284500D03*
X451400Y291000D03*
X453500Y304900D03*
X447800Y297900D03*
X453500Y310300D03*
X447100D03*
X453500Y315600D03*
X453000Y334100D03*
X446900D03*
X446100Y350300D03*
X453400Y345500D03*
X447400D03*
X453400Y340400D03*
Y350600D03*
X451000Y368000D03*
X469500Y25000D03*
X456000Y15000D03*
X465000Y40500D03*
X455500Y53000D03*
X459200Y80800D03*
Y84300D03*
X465000Y88500D03*
X459200Y88100D03*
X459210Y96670D03*
X459200Y100200D03*
X459300Y93200D03*
X462000Y108500D03*
X455100Y105500D03*
X459000Y127500D03*
X465500Y121600D03*
X467000Y119500D03*
X468500Y117500D03*
X465000Y147000D03*
X455500Y147500D03*
X468500Y169000D03*
Y185000D03*
X455600Y175400D03*
X455859Y204059D03*
X467900Y201300D03*
Y196300D03*
X467000Y215500D03*
X467900Y206300D03*
X468100Y211300D03*
X459000Y223500D03*
X465000Y249500D03*
X456000Y263000D03*
X460500Y298500D03*
X468900Y303200D03*
X459500Y310300D03*
X468820Y310280D03*
X458700Y334100D03*
X468800Y345500D03*
X459400D03*
X455000Y380500D03*
X481500Y22500D03*
Y37500D03*
X470500Y53000D03*
X481500Y52500D03*
Y82000D03*
X476000Y88500D03*
X481500Y97000D03*
X474500Y108500D03*
X481500Y112000D03*
X472000Y127500D03*
X481500Y127000D03*
Y142000D03*
X472500Y157000D03*
X481500D03*
Y172000D03*
Y187000D03*
Y202000D03*
Y217000D03*
X475000Y224000D03*
X481500Y232000D03*
Y247000D03*
Y262000D03*
Y277000D03*
X470500Y282500D03*
X481500Y292000D03*
Y307000D03*
X475000Y305300D03*
X481500Y322000D03*
X480900Y310300D03*
X475000D03*
Y315500D03*
X481500Y337000D03*
Y352000D03*
X480920Y345320D03*
X475000Y340200D03*
Y350600D03*
Y345500D03*
G54D20*
X430700Y32500D03*
G54D21*
X417000Y138200D03*
Y163800D03*
X438500Y138200D03*
Y163800D03*
X460000Y138200D03*
Y163800D03*
G54D12*
X20500Y59800D03*
Y307800D03*
X442500Y51400D03*
X455300Y32500D03*
G54D22*
X439244Y204256D03*
Y201500D03*
Y198744D03*
Y195988D03*
X436488Y198744D03*
Y201500D03*
Y204256D03*
Y195988D03*
X439244Y207012D03*
X436488D03*
X442000Y204256D03*
X444756D03*
Y201500D03*
Y198744D03*
X442000D03*
Y201500D03*
X447512Y204256D03*
Y201500D03*
Y198744D03*
Y195988D03*
X444756D03*
X442000D03*
Y207012D03*
X444756D03*
X447512D03*
G54D13*
X31500Y336300D03*
X28500Y335800D03*
Y332800D03*
X31500D03*
X34500Y333800D03*
X33000Y349800D03*
X31000Y351300D03*
X35000Y348300D03*
Y338800D03*
X28500D03*
X50690Y316300D03*
X53190Y321300D03*
X50690Y326300D03*
X52000Y333800D03*
X45000Y352300D03*
X48000D03*
X42000Y340800D03*
X51000D03*
X68000Y39000D03*
Y42500D03*
X65690Y321800D03*
X60690D03*
X63190Y318800D03*
X58190D03*
X65690Y316300D03*
X60690D03*
X55690D03*
Y326300D03*
X64000Y336800D03*
X66000Y350300D03*
X62000Y347300D03*
X57500Y346800D03*
Y338300D03*
X81500Y39000D03*
X78000D03*
X74500D03*
X71000D03*
X81500Y42500D03*
X78000D03*
X74500D03*
X71000D03*
X73944Y320780D03*
X73025Y318305D03*
X72035Y315759D03*
X97732Y172500D03*
Y164000D03*
Y181500D03*
X97800Y321200D03*
X95600Y316200D03*
X96700Y318700D03*
X93300Y321200D03*
X91100Y316200D03*
X92200Y318700D03*
X88800Y321200D03*
X87700Y318700D03*
X86600Y316200D03*
X93300Y328200D03*
X97800D03*
X88800Y324700D03*
X93300D03*
X97800D03*
X111000Y63500D03*
X104268Y172500D03*
Y164000D03*
Y181500D03*
X119000Y40000D03*
X121000Y43000D03*
X128000Y49500D03*
X125000Y47500D03*
X119500Y50000D03*
X122500Y54000D03*
X120000Y55500D03*
X125000D03*
X127500Y61000D03*
X125000Y59500D03*
X122500Y61000D03*
Y57500D03*
X128000D03*
X114500Y158000D03*
X126500D03*
X123532Y181600D03*
X121000Y333500D03*
Y336500D03*
Y339500D03*
Y342500D03*
X124000Y340000D03*
X127000D03*
X123500Y343000D03*
X126500D03*
X130068Y181600D03*
X140900Y337600D03*
Y333600D03*
X135800Y337400D03*
X138100Y333700D03*
X140800Y341500D03*
X138500Y345500D03*
X144200Y333400D03*
X144100Y337000D03*
X144200Y340600D03*
X153000Y350000D03*
X156000D03*
Y344000D03*
X153000D03*
X150000Y347000D03*
X153000D03*
X156000D03*
X153000Y353000D03*
X156000D03*
X197900Y241900D03*
Y253900D03*
X211400Y241900D03*
Y253900D03*
X224700Y241900D03*
Y253900D03*
X244800Y110100D03*
X245400Y180100D03*
X237900Y241900D03*
Y253900D03*
X257000Y110500D03*
X257400Y180100D03*
X276500Y19000D03*
Y16000D03*
X274000Y47500D03*
Y44500D03*
Y41500D03*
X285000Y25600D03*
X282000Y25500D03*
X280000Y23500D03*
X278000Y21500D03*
X284900Y35400D03*
X291600Y54700D03*
X277500Y47500D03*
X281000Y44500D03*
X277500D03*
Y41500D03*
X281000D03*
X284900Y41600D03*
X303000Y15200D03*
X297900D03*
X292800D03*
Y21400D03*
X297900D03*
X305500Y20500D03*
X304000Y25000D03*
X306000Y23500D03*
X303000Y21400D03*
X302600Y54700D03*
X308000Y22000D03*
X309200Y25000D03*
Y36700D03*
X312800Y37000D03*
X310000Y41400D03*
Y47600D03*
X333500Y55500D03*
X336000Y50500D03*
X334700Y53000D03*
X336000Y250400D03*
Y256600D03*
X349500Y39000D03*
X347500Y40500D03*
X343000Y50500D03*
X341700Y53000D03*
X340500Y55500D03*
X337000D03*
X339500Y50500D03*
X338200Y53000D03*
X351000Y42000D03*
X345500D03*
X347000Y233500D03*
X350500D03*
X341389Y251889D03*
X355500Y21500D03*
X351500Y24500D03*
X360000D03*
X353500Y23000D03*
Y35000D03*
X351500Y36500D03*
X355500Y33500D03*
X360000Y34000D03*
X355000Y39000D03*
X353000Y40500D03*
X357500Y55500D03*
X356300Y53000D03*
X355000Y50500D03*
X356500Y80500D03*
Y77500D03*
X359500Y80500D03*
Y77500D03*
X362500Y80500D03*
Y77500D03*
X365500D03*
Y80500D03*
X356700Y95300D03*
X364300Y100200D03*
X360700D03*
X357100Y100100D03*
X363000Y96500D03*
X353500Y100000D03*
X361500Y103600D03*
X361000Y127800D03*
X364500D03*
Y143500D03*
X361000Y131800D03*
X364500D03*
X365500Y155600D03*
X364500Y146500D03*
X365500Y149400D03*
X364500Y161000D03*
Y169000D03*
X358100Y233400D03*
X354300D03*
X356094Y264594D03*
X371500Y7000D03*
X378600Y6900D03*
X369500Y18500D03*
X373000Y19000D03*
X376000Y30000D03*
X367000D03*
Y38000D03*
X378000Y112500D03*
Y106500D03*
Y109500D03*
X380500Y111000D03*
Y114000D03*
Y105000D03*
Y108000D03*
X378000Y115500D03*
X368000Y127800D03*
X370500Y129800D03*
X373000Y128800D03*
X375500Y127800D03*
X367500Y143500D03*
X368000Y131800D03*
X373000Y132800D03*
X370500Y133800D03*
X375500Y131800D03*
X368500Y149500D03*
X368000Y146500D03*
X371000Y152000D03*
X377559Y165441D03*
X371000Y165000D03*
X373000Y246500D03*
X376100Y251000D03*
Y256000D03*
Y261000D03*
X388000Y18000D03*
X384000Y21000D03*
X386000Y19500D03*
X393500Y33000D03*
Y29500D03*
X390500D03*
X384000Y33000D03*
X390500D03*
X387500Y30500D03*
X396500Y33000D03*
Y29500D03*
X399300Y110800D03*
Y105800D03*
Y120800D03*
Y115800D03*
X399000Y217100D03*
X399100Y210300D03*
X399000Y213600D03*
X403000Y217100D03*
X407000Y217000D03*
Y213500D03*
X403100Y210300D03*
X406900D03*
X403000Y213600D03*
X407000Y238200D03*
X405400Y347100D03*
X414216Y67734D03*
X418153D03*
X422090D03*
X419500Y84400D03*
X424700D03*
X414600Y82800D03*
X422129Y71750D03*
X414216Y75609D03*
X418153D03*
X422090D03*
X414216Y71671D03*
X418153D03*
X412500Y150000D03*
Y153500D03*
Y146500D03*
X422000Y186000D03*
X419400Y184400D03*
X425000Y181100D03*
X422800Y183400D03*
X410600Y217100D03*
X420000Y206800D03*
X415500Y207800D03*
X410700Y210300D03*
X410600Y213600D03*
X424600Y281600D03*
X426027Y67734D03*
X429964D03*
X434500Y84500D03*
X438100Y81400D03*
X429600Y84400D03*
X438000Y72300D03*
X426027Y75609D03*
X429964D03*
X426027Y71671D03*
X429964D03*
X439700Y88400D03*
X433500Y151000D03*
X430000Y184000D03*
X426500D03*
X428700Y181000D03*
X426300Y238000D03*
X428800Y267100D03*
X432300Y264100D03*
X439900Y276000D03*
X439100Y267100D03*
X436200Y289800D03*
X439900Y279500D03*
X440000Y289500D03*
X436200Y293300D03*
X440000Y293500D03*
X442100Y69400D03*
Y84300D03*
X440100Y82800D03*
X448500Y84300D03*
Y81100D03*
X445000Y85500D03*
Y81500D03*
X440100Y70800D03*
X445000Y97500D03*
X442000Y93000D03*
X445000Y90000D03*
X448500Y93000D03*
X448400Y88200D03*
Y96900D03*
X445000Y102500D03*
Y107000D03*
Y111500D03*
X449500Y113500D03*
Y110000D03*
X448400Y100400D03*
X440300Y172300D03*
X446800Y237700D03*
X451400Y271400D03*
X442400Y264100D03*
X451400Y277600D03*
X452700Y282100D03*
X450000Y283900D03*
X455500Y151000D03*
X467000Y238200D03*
G54D14*
X45634Y347111D03*
X43921D03*
X47346Y345489D03*
Y347111D03*
X45634Y345489D03*
X43921D03*
X49059Y345513D03*
Y347135D03*
X368941Y24165D03*
Y25787D03*
X374079Y25811D03*
X372366D03*
X370654Y24189D03*
Y25811D03*
X374079Y24189D03*
X372366D03*
G54D23*
X464041Y319139D03*
Y336461D03*
G54D24*
G01X154172Y133924D02*
Y135093D01*
X153772Y135493D01*
X132100D01*
X132020Y135413D01*
X132000D01*
G01X150235Y133924D02*
X148833Y132522D01*
Y131956D01*
X150039Y130749D01*
Y126900D01*
G01X146298Y129987D02*
X147701Y131390D01*
X148267D01*
X149239Y130418D01*
Y127161D01*
X148978Y126900D01*
G01X154172Y137861D02*
Y136693D01*
X153772Y136293D01*
X132080D01*
X132000Y136373D01*
G01X173858Y196916D02*
Y198042D01*
X173415Y198485D01*
X172315D01*
X171500Y199300D01*
Y201800D01*
X170946Y202354D01*
X132160D01*
X132000Y202194D01*
G01X173858Y200854D02*
Y199685D01*
X173457Y199285D01*
X172646D01*
X172300Y199631D01*
Y202131D01*
X171278Y203154D01*
X132000D01*
G01X189606Y196916D02*
X189800Y197111D01*
Y198100D01*
X189500Y198400D01*
X188037D01*
X187168Y199269D01*
Y201475D01*
X186243Y202400D01*
X177220D01*
X176294Y201475D01*
Y196101D01*
X174810Y194616D01*
X168968D01*
X167620Y195964D01*
Y197680D01*
X166800Y198500D01*
X132160D01*
X132000Y198340D01*
G01X189606Y200854D02*
X189800Y200659D01*
Y199500D01*
X189500Y199200D01*
X188368D01*
X187968Y199600D01*
Y201806D01*
X186575Y203200D01*
X176888D01*
X175494Y201806D01*
Y196432D01*
X174479Y195416D01*
X169299D01*
X168420Y196295D01*
Y198011D01*
X167131Y199300D01*
X132000D01*
G01X185668Y196916D02*
Y198085D01*
X185254Y198500D01*
X180900D01*
X180200Y197800D01*
Y191700D01*
X179080Y190580D01*
X132558D01*
X132398Y190420D01*
X132000D01*
G01X185668Y200854D02*
Y200185D01*
X184784Y199300D01*
X180569D01*
X179400Y198131D01*
Y192031D01*
X178749Y191380D01*
X132000D01*
G01X134487Y149672D02*
X135656D01*
X136056Y149272D01*
Y144756D01*
X135398Y144098D01*
X132580D01*
X132000Y143518D01*
G01X138424Y149672D02*
X137256D01*
X136856Y149272D01*
Y144424D01*
X135730Y143298D01*
X133135D01*
X132394Y142558D01*
X132000D01*
G01X138424Y157546D02*
X137256D01*
X136856Y157146D01*
Y152624D01*
X135411Y151180D01*
X132341D01*
X132000Y150839D01*
G01X134487Y165420D02*
X135656D01*
X136056Y165020D01*
Y160656D01*
X135300Y159900D01*
X132000D01*
G01X138424Y165420D02*
X137256D01*
X136856Y165020D01*
Y160324D01*
X135631Y159100D01*
X132160D01*
X132000Y158940D01*
G01X134487Y157546D02*
X135653D01*
X136056Y157144D01*
Y152956D01*
X135080Y151980D01*
X132000D01*
G01X134487Y173294D02*
X135605D01*
X136056Y172844D01*
Y168756D01*
X135083Y167783D01*
X132160D01*
X132000Y167943D01*
G01X138424Y173294D02*
X137256D01*
X136856Y172894D01*
Y168424D01*
X135415Y166983D01*
X132000D01*
G01X138800Y231800D02*
X140200Y230400D01*
Y223700D01*
X141400Y222500D01*
X144500D01*
X146298Y220702D01*
Y220539D01*
G01X169920Y165420D02*
X168420Y166920D01*
X165362D01*
X164484Y166042D01*
Y165584D01*
X161884Y162984D01*
X161425D01*
X160546Y162105D01*
Y161646D01*
X157946Y159046D01*
X157488D01*
X156200Y157758D01*
Y126900D01*
G01X150235Y157546D02*
Y157865D01*
X148500Y159600D01*
Y170000D01*
X149900Y171400D01*
X233140D01*
X235700Y173960D01*
G01X165984Y212665D02*
X165935D01*
X164000Y214600D01*
X149900D01*
X148500Y216000D01*
Y231800D01*
G01X145400D02*
X144700Y231100D01*
Y226100D01*
X146298Y224502D01*
Y224476D01*
G01X155900Y231800D02*
Y224500D01*
X157600Y222800D01*
X159700D01*
X161961Y220539D01*
X162046D01*
G01X152300Y231800D02*
X152100Y231600D01*
Y220100D01*
X153700Y218500D01*
X160000D01*
X161898Y216602D01*
X162046D01*
G01X158600Y126900D02*
Y127600D01*
X160167Y129167D01*
Y159067D01*
X160800Y159700D01*
X164200D01*
X165984Y161484D01*
G01Y137861D02*
X167900Y135945D01*
Y128400D01*
X169400Y126900D01*
G01X165984Y165420D02*
X167800Y163604D01*
Y157200D01*
X166500Y155900D01*
X165600D01*
X164100Y154400D01*
Y126900D01*
G01X235700Y230900D02*
X173400D01*
X171900Y229400D01*
Y223800D01*
X170800Y222700D01*
X168800D01*
X167900Y221800D01*
Y218300D01*
X169598Y216602D01*
X169920D01*
G01X235700Y210600D02*
X172300D01*
X170428Y208728D01*
X169920D01*
G01Y220539D02*
X171736D01*
X174173Y222976D01*
X174479D01*
X176294Y224791D01*
Y225097D01*
X177598Y226400D01*
X235700D01*
G01X170967Y231800D02*
X168200Y229033D01*
Y223800D01*
X165984Y221584D01*
Y220539D01*
G01X163900Y231800D02*
Y226600D01*
X165984Y224516D01*
Y224476D01*
G01X160600Y231800D02*
X160546Y231747D01*
Y225654D01*
X161724Y224476D01*
X162046D01*
G01X167600Y231800D02*
X165984Y230184D01*
Y228413D01*
G01X177794Y161484D02*
Y161406D01*
X179700Y159500D01*
X182100D01*
X183900Y157700D01*
Y126900D01*
G01X185668Y145735D02*
Y144731D01*
X186233Y144167D01*
X191965D01*
X195980Y140152D01*
Y128652D01*
X197281Y127350D01*
X197507Y127350D01*
X197958Y126900D01*
G01X185668Y141798D02*
Y142967D01*
X186069Y143367D01*
X191633D01*
X192270Y142730D01*
Y142150D01*
X191900Y141780D01*
Y141200D01*
X192310Y140790D01*
X192890D01*
X193260Y141160D01*
X193840D01*
X195180Y139821D01*
Y128320D01*
X196600Y126900D01*
G01X185668Y129987D02*
X189556Y126100D01*
X192000D01*
X192800Y125300D01*
Y123000D01*
X192000Y122200D01*
X186700D01*
X185900Y121400D01*
Y119100D01*
X186700Y118300D01*
X192000D01*
X192800Y117500D01*
Y115200D01*
X192000Y114400D01*
X186700D01*
X185900Y113600D01*
Y111300D01*
X186700Y110500D01*
X192000D01*
X192800Y109700D01*
Y107400D01*
X192000Y106600D01*
X186700D01*
X185900Y105800D01*
Y103500D01*
X186700Y102700D01*
X192000D01*
X192800Y101900D01*
Y99600D01*
X192000Y98800D01*
X186700D01*
X185900Y98000D01*
Y95700D01*
X186700Y94900D01*
X192000D01*
X193300Y93600D01*
Y92300D01*
X192000Y91000D01*
X186300D01*
X185900Y90600D01*
G01X235700Y218300D02*
X176900D01*
X176000Y217400D01*
Y214807D01*
X173858Y212665D01*
G01Y216602D02*
Y217957D01*
X175800Y219900D01*
Y221200D01*
X176800Y222200D01*
X235700D01*
G01Y214500D02*
X180200D01*
X178365Y212665D01*
X177794D01*
G01X235700Y206300D02*
X176100D01*
X173858Y208543D01*
Y208728D01*
G01X201417Y153609D02*
X199407Y151600D01*
Y130293D01*
X201600Y128100D01*
X207480D01*
X208400Y127180D01*
Y126900D01*
G01X201417Y157546D02*
X203350Y155613D01*
Y133450D01*
X204700Y132100D01*
X214000D01*
X215500Y130600D01*
Y126900D01*
G01X205354Y141798D02*
X207452Y139700D01*
X221421D01*
X223100Y138021D01*
Y136700D01*
X226710Y133090D01*
Y126729D01*
G01X226400Y118723D02*
X225600Y117923D01*
X223900D01*
X223100Y117123D01*
Y114823D01*
X223900Y114023D01*
X225600D01*
X226400Y113223D01*
Y110923D01*
X225600Y110123D01*
X223900D01*
X223100Y109323D01*
Y107023D01*
X223900Y106223D01*
X225600D01*
X226400Y105423D01*
Y103123D01*
X225600Y102323D01*
X223900D01*
X223100Y101523D01*
Y99223D01*
X223900Y98423D01*
X225600D01*
X226400Y97623D01*
Y95323D01*
X225600Y94523D01*
X223900D01*
X223100Y93723D01*
Y91423D01*
X223900Y90623D01*
X225600D01*
X226400Y89823D01*
Y87523D01*
X225600Y86723D01*
X223900D01*
X223100Y85923D01*
Y83623D01*
X223900Y82823D01*
X225177D01*
X226400Y81600D01*
Y79400D01*
G01X205354Y137861D02*
X205639D01*
X207300Y136200D01*
X218500D01*
X221100Y133600D01*
Y126900D01*
G54D15*
X102000Y28800D03*
X90500Y343000D03*
X103500Y2700D03*
X121000D03*
X126800Y28100D03*
X123000Y375500D03*
X138500Y2700D03*
X144000Y362500D03*
X156000Y2700D03*
X250000Y282500D03*
X283200Y16700D03*
X281900Y52000D03*
X295000Y85000D03*
Y140000D03*
X297900Y189800D03*
X300000Y227500D03*
X306000Y282500D03*
X324100Y17400D03*
X327100Y110400D03*
X342000Y36900D03*
X346300Y110400D03*
X346400Y131500D03*
X351100Y168900D03*
X343300Y280400D03*
X393700Y65800D03*
X392500Y247500D03*
X405800Y188600D03*
X419100Y216000D03*
X428600Y364100D03*
X474000Y70500D03*
X473500Y97000D03*
G54D25*
G01X15900Y276300D02*
X16100D01*
X18300Y274100D01*
X57300D01*
X85200Y246200D01*
X89000D01*
X95100Y240100D01*
G01X276000Y266400D02*
X162900D01*
X160600Y264100D01*
Y262600D01*
X138600Y240600D01*
Y232000D01*
X138800Y231800D01*
G01X235700Y173960D02*
X237322Y175582D01*
Y177822D01*
X238200Y178700D01*
G01X148500Y231800D02*
X151000Y234300D01*
Y242400D01*
X167350Y258750D01*
X184350D01*
X185750Y260150D01*
X190650D01*
X192500Y258300D01*
X233600D01*
X236100Y260800D01*
X262200D01*
X267300Y255700D01*
G01X280300Y266400D02*
X278600Y264700D01*
X187700D01*
X183900Y260900D01*
X163700D01*
X145700Y242900D01*
Y232100D01*
X145400Y231800D01*
G01X273700Y251400D02*
X272234Y249903D01*
X272230Y249900D01*
X217093D01*
X216214Y250779D01*
Y251271D01*
X215336Y252150D01*
X214093D01*
X213214Y251271D01*
Y250779D01*
X212336Y249900D01*
X211093D01*
X210214Y250779D01*
Y251271D01*
X209336Y252150D01*
X208093D01*
X207214Y251271D01*
Y250779D01*
X206336Y249900D01*
X205093D01*
X204214Y250779D01*
Y251271D01*
X203336Y252150D01*
X202093D01*
X201214Y251271D01*
Y250779D01*
X200336Y249900D01*
X173100D01*
X155900Y232700D01*
Y231800D01*
G01X270200Y253600D02*
X265900D01*
X262900Y256600D01*
X235000D01*
X233700Y255300D01*
X225775D01*
X225425Y255650D01*
X192950D01*
X190800Y253500D01*
X174000D01*
X152300Y231800D01*
G01X333900Y322200D02*
X328800D01*
X327300Y323700D01*
X177002D01*
X176124Y324579D01*
Y326021D01*
X175245Y326900D01*
X174002D01*
X173124Y326021D01*
Y324579D01*
X172245Y323700D01*
X171002D01*
X170124Y324579D01*
Y326021D01*
X169245Y326900D01*
X168002D01*
X167124Y326021D01*
Y324579D01*
X166245Y323700D01*
X165002D01*
X164124Y324579D01*
Y326021D01*
X163245Y326900D01*
X162002D01*
X161124Y326021D01*
Y324579D01*
X160245Y323700D01*
X159002D01*
X158124Y324579D01*
Y326021D01*
X157245Y326900D01*
X156002D01*
X155124Y326021D01*
Y324579D01*
X154245Y323700D01*
X148300D01*
G01X325700Y233700D02*
X315300Y244100D01*
X310714D01*
X309835Y244979D01*
Y255421D01*
X308957Y256300D01*
X307714D01*
X306835Y255421D01*
Y244979D01*
X305957Y244100D01*
X304714D01*
X303835Y244979D01*
Y255421D01*
X302957Y256300D01*
X301714D01*
X300835Y255421D01*
Y244979D01*
X299957Y244100D01*
X298714D01*
X297835Y244979D01*
Y255421D01*
X296957Y256300D01*
X295714D01*
X294835Y255421D01*
Y244979D01*
X293957Y244100D01*
X288000D01*
X282500Y238600D01*
X250800D01*
X243100Y230900D01*
X235700D01*
G01X336900Y212600D02*
X336200Y213300D01*
X328200D01*
X325700Y210800D01*
X320948D01*
X320069Y211679D01*
Y215721D01*
X319191Y216600D01*
X317948D01*
X317069Y215721D01*
Y211679D01*
X316191Y210800D01*
X302163D01*
X301285Y211679D01*
Y217321D01*
X300406Y218200D01*
X299163D01*
X298285Y217321D01*
Y211679D01*
X297406Y210800D01*
X280128D01*
X277849Y213079D01*
Y221221D01*
X276970Y222100D01*
X275728D01*
X274849Y221221D01*
Y213079D01*
X273970Y212200D01*
X272728D01*
X271849Y213079D01*
Y221221D01*
X270970Y222100D01*
X269728D01*
X268849Y221221D01*
Y213079D01*
X266770Y211000D01*
X261200D01*
X259850Y209650D01*
X253150D01*
X252200Y210600D01*
X235700D01*
G01Y226400D02*
X244500D01*
X249700Y231600D01*
X251655D01*
X252533Y232479D01*
Y235821D01*
X253412Y236700D01*
X254655D01*
X255533Y235821D01*
Y232479D01*
X256412Y231600D01*
X257655D01*
X258533Y232479D01*
Y235821D01*
X259412Y236700D01*
X260655D01*
X261533Y235821D01*
Y232479D01*
X262412Y231600D01*
X263655D01*
X264533Y232479D01*
Y235821D01*
X265412Y236700D01*
X266655D01*
X267533Y235821D01*
Y232479D01*
X268412Y231600D01*
X269655D01*
X270533Y232479D01*
Y235821D01*
X271412Y236700D01*
X272655D01*
X273533Y235821D01*
Y232479D01*
X274412Y231600D01*
X275655D01*
X276533Y232479D01*
Y235821D01*
X277412Y236700D01*
X278655D01*
X279533Y235821D01*
Y232479D01*
X280412Y231600D01*
X293101D01*
X297000Y235500D01*
X303100D01*
X307000Y231600D01*
X326501D01*
X328100Y233200D01*
Y236400D01*
G01X282800Y241400D02*
X282550Y241150D01*
X247250D01*
X241400Y235300D01*
X239300D01*
X238250Y234250D01*
X233153D01*
X232274Y235129D01*
Y236721D01*
X231396Y237600D01*
X230153D01*
X229274Y236721D01*
Y235129D01*
X228396Y234250D01*
X227153D01*
X226274Y235129D01*
Y236721D01*
X225396Y237600D01*
X224153D01*
X223274Y236721D01*
Y235129D01*
X222396Y234250D01*
X221153D01*
X220274Y235129D01*
Y236721D01*
X219396Y237600D01*
X218153D01*
X217274Y236721D01*
Y235129D01*
X216396Y234250D01*
X215153D01*
X214274Y235129D01*
Y236721D01*
X213395Y237600D01*
X212153D01*
X211274Y236721D01*
Y235129D01*
X210396Y234250D01*
X209153D01*
X208274Y235129D01*
Y236721D01*
X207395Y237600D01*
X206153D01*
X205274Y236721D01*
Y235129D01*
X204396Y234250D01*
X203153D01*
X202274Y235129D01*
Y236721D01*
X201396Y237600D01*
X200153D01*
X199274Y236721D01*
Y235129D01*
X198396Y234250D01*
X197153D01*
X196274Y235129D01*
Y236721D01*
X195396Y237600D01*
X194153D01*
X193274Y236721D01*
Y235129D01*
X192396Y234250D01*
X184174D01*
X183296Y235129D01*
Y236921D01*
X182417Y237800D01*
X181174D01*
X180296Y236921D01*
Y235129D01*
X179417Y234250D01*
X178174D01*
X177296Y235129D01*
Y236921D01*
X176417Y237800D01*
X175174D01*
X174296Y236921D01*
Y235129D01*
X170967Y231800D01*
G01X279200Y247300D02*
X277700Y245800D01*
X244700D01*
X243300Y244400D01*
X173200D01*
X163900Y235100D01*
Y231800D01*
G01X276400Y249300D02*
X274600Y247500D01*
X173600D01*
X160600Y234500D01*
Y231800D01*
G01X281400Y244100D02*
X244900D01*
X240300Y239500D01*
X232011D01*
X231132Y240379D01*
Y241921D01*
X230254Y242800D01*
X229011D01*
X228132Y241921D01*
Y240379D01*
X227254Y239500D01*
X218649D01*
X217770Y240379D01*
Y241721D01*
X216892Y242600D01*
X215649D01*
X214770Y241721D01*
Y240379D01*
X213892Y239500D01*
X205674D01*
X204795Y240379D01*
Y241421D01*
X203916Y242300D01*
X202674D01*
X201795Y241421D01*
Y240379D01*
X200916Y239500D01*
X194819D01*
X193940Y240379D01*
Y241221D01*
X193062Y242100D01*
X191819D01*
X190940Y241221D01*
Y240379D01*
X190062Y239500D01*
X188819D01*
X187940Y240379D01*
Y241221D01*
X187062Y242100D01*
X185819D01*
X184940Y241221D01*
Y240379D01*
X184062Y239500D01*
X182819D01*
X181940Y240379D01*
Y241221D01*
X181062Y242100D01*
X179819D01*
X178940Y241221D01*
Y240379D01*
X178062Y239500D01*
X176819D01*
X175940Y240379D01*
Y241221D01*
X175062Y242100D01*
X173819D01*
X172200Y240481D01*
Y236400D01*
X167600Y231800D01*
G01X331400D02*
X327400Y227800D01*
X309100D01*
X303100Y221800D01*
X296400D01*
X292100Y226100D01*
X261400D01*
X253600Y218300D01*
X235700D01*
G01Y222200D02*
X235750Y222250D01*
X242616D01*
X249166Y228800D01*
X292700D01*
X297300Y233400D01*
X302800D01*
X306500Y229700D01*
X326700D01*
X331900Y234900D01*
Y235400D01*
G01X382400Y230700D02*
X349300D01*
X343200Y224600D01*
X322304D01*
X321425Y223721D01*
Y221179D01*
X320546Y220300D01*
X319304D01*
X318425Y221179D01*
Y223721D01*
X317546Y224600D01*
X308200D01*
X304000Y220400D01*
X295600D01*
X291700Y224300D01*
X262300D01*
X255000Y217000D01*
X254000D01*
X251500Y214500D01*
X235700D01*
G01X329600Y210900D02*
X327000Y208300D01*
X322138D01*
X321260Y207421D01*
Y204079D01*
X320381Y203200D01*
X319138D01*
X318260Y204079D01*
Y207421D01*
X317381Y208300D01*
X316138D01*
X315260Y207421D01*
Y204079D01*
X314381Y203200D01*
X313138D01*
X312260Y204079D01*
Y207421D01*
X311381Y208300D01*
X310138D01*
X309260Y207421D01*
Y204079D01*
X308381Y203200D01*
X307138D01*
X306260Y204079D01*
Y207421D01*
X305381Y208300D01*
X304138D01*
X303260Y207421D01*
Y204079D01*
X302381Y203200D01*
X301138D01*
X300260Y204079D01*
Y207421D01*
X299381Y208300D01*
X298138D01*
X297260Y207421D01*
Y204079D01*
X296381Y203200D01*
X295138D01*
X294260Y204079D01*
Y207421D01*
X293381Y208300D01*
X292138D01*
X291260Y207421D01*
Y204079D01*
X290381Y203200D01*
X289138D01*
X288260Y204079D01*
Y207421D01*
X287381Y208300D01*
X286138D01*
X285260Y207421D01*
Y204079D01*
X284381Y203200D01*
X283138D01*
X282260Y204079D01*
Y207421D01*
X281381Y208300D01*
X277700D01*
X275300Y205900D01*
X271600D01*
X269600Y207900D01*
X262702D01*
X261824Y207021D01*
Y203979D01*
X260945Y203100D01*
X259702D01*
X258824Y203979D01*
Y207021D01*
X257945Y207900D01*
X256702D01*
X255824Y207021D01*
Y203979D01*
X254945Y203100D01*
X253702D01*
X252824Y203979D01*
Y207021D01*
X251945Y207900D01*
X238100D01*
X236500Y206300D01*
X235700D01*
G01X333100Y316100D02*
X331300D01*
X325986Y321414D01*
X302115D01*
X301236Y320535D01*
Y312879D01*
X300358Y312000D01*
X299115D01*
X298236Y312879D01*
Y320535D01*
X297358Y321414D01*
X288165D01*
X287286Y320535D01*
Y312479D01*
X286408Y311600D01*
X285165D01*
X284286Y312479D01*
Y320535D01*
X283408Y321414D01*
X282165D01*
X281286Y320535D01*
Y312479D01*
X280408Y311600D01*
X279165D01*
X278286Y312479D01*
Y320535D01*
X277408Y321414D01*
X276165D01*
X275286Y320535D01*
Y312479D01*
X274408Y311600D01*
X273165D01*
X272286Y312479D01*
Y320535D01*
X271408Y321414D01*
X251173D01*
X250295Y320535D01*
Y312879D01*
X249416Y312000D01*
X248173D01*
X247295Y312879D01*
Y320535D01*
X246416Y321414D01*
X245173D01*
X244295Y320535D01*
Y312879D01*
X243416Y312000D01*
X242173D01*
X241294Y312879D01*
Y320535D01*
X240416Y321414D01*
X239173D01*
X238295Y320535D01*
Y312879D01*
X237416Y312000D01*
X236173D01*
X235294Y312879D01*
Y320535D01*
X234416Y321414D01*
X233173D01*
X232295Y320535D01*
Y312879D01*
X231416Y312000D01*
X230173D01*
X229294Y312879D01*
Y320535D01*
X228416Y321414D01*
X225286D01*
X225200Y321500D01*
G01X379695Y364305D02*
X378629Y365371D01*
X362129D01*
X358400Y369100D01*
X352400D01*
X350550Y367250D01*
X308286D01*
X307407Y366371D01*
Y363579D01*
X306528Y362700D01*
X305286D01*
X304407Y363579D01*
Y366371D01*
X303528Y367250D01*
X302007D01*
X301128Y366371D01*
Y363079D01*
X300250Y362200D01*
X299007D01*
X298128Y363079D01*
Y366371D01*
X297250Y367250D01*
X296250D01*
X289800Y360800D01*
X286100D01*
X284100Y358800D01*
G01X361979Y368179D02*
X359357Y370800D01*
X350700D01*
X349600Y369700D01*
X295600D01*
X290900Y365000D01*
X288400D01*
X286150Y362750D01*
G01X371821Y367021D02*
X365343Y373500D01*
X329199D01*
X328321Y372621D01*
Y372279D01*
X327442Y371400D01*
X326199D01*
X325321Y372279D01*
Y372621D01*
X324442Y373500D01*
X323199D01*
X322321Y372621D01*
Y372279D01*
X321442Y371400D01*
X320199D01*
X319321Y372279D01*
Y372621D01*
X318442Y373500D01*
X307122D01*
X306244Y372621D01*
Y372279D01*
X305365Y371400D01*
X304122D01*
X303244Y372279D01*
Y372621D01*
X302365Y373500D01*
X301122D01*
X300244Y372621D01*
Y372279D01*
X299365Y371400D01*
X298122D01*
X297244Y372279D01*
Y372621D01*
X296365Y373500D01*
X292900D01*
X290000Y370600D01*
Y367700D01*
G01X373800Y369300D02*
X367900Y375200D01*
X291700D01*
X288100Y371600D01*
G01X301800Y357200D02*
X303600Y355400D01*
X317800D01*
X319500Y357100D01*
Y357500D01*
G01X369853Y363353D02*
X369206Y364000D01*
X360800D01*
X357750Y367050D01*
X353700D01*
X351950Y365300D01*
X312300D01*
X304600Y357600D01*
G01X307500Y357500D02*
X313200Y363200D01*
X354642D01*
X356100Y361742D01*
X358042D01*
G01X311800Y357400D02*
X314050Y359650D01*
X359850D01*
X361903Y361703D01*
X366397D01*
X367884Y360216D01*
G54D16*
X113839Y278957D03*
X114232Y287618D03*
X115020Y274232D03*
X118563Y291161D03*
X126437D03*
X131161Y278957D03*
X129980Y274232D03*
X130768Y287618D03*
X153839Y278957D03*
X155020Y274232D03*
X154232Y287618D03*
X158563Y291161D03*
X171161Y278957D03*
X169980Y274232D03*
X166437Y291161D03*
X170768Y287618D03*
X193839Y278957D03*
X195020Y274232D03*
X194232Y287618D03*
X198563Y291161D03*
X211161Y278957D03*
X209980Y274232D03*
X206437Y291161D03*
X210768Y287618D03*
G54D26*
G01X156608Y60921D02*
X153600Y57913D01*
Y36000D01*
X164200Y25400D01*
X167977D01*
X170107Y23270D01*
X171759D01*
X181608Y13421D01*
G01X159758Y63381D02*
Y59258D01*
X156900Y56400D01*
Y42900D01*
X162146Y37654D01*
Y32754D01*
X165510Y29390D01*
X169360D01*
X181640Y17110D01*
X182160D01*
X182799Y16471D01*
X184168D01*
X184758Y15881D01*
G01X156200Y126900D02*
Y92200D01*
X157018Y91382D01*
Y82582D01*
X158500Y81100D01*
Y77890D01*
X160167Y76223D01*
Y75133D01*
X161677Y73623D01*
Y69166D01*
G01X187907Y13421D02*
X186800Y14528D01*
Y18600D01*
X185038Y20362D01*
Y21832D01*
X184060Y22810D01*
X181590D01*
X161800Y42600D01*
Y46702D01*
X163187Y48090D01*
Y50013D01*
X162276Y50924D01*
X161540D01*
X160700Y51764D01*
Y53004D01*
X161540Y53844D01*
X162347D01*
X163187Y54684D01*
Y60641D01*
X162907Y60921D01*
G01X191057Y15881D02*
X188187Y18751D01*
Y24100D01*
X187287Y25000D01*
X185900D01*
X185200Y25700D01*
Y27300D01*
X182488Y30012D01*
X177488D01*
X172856Y34644D01*
Y38644D01*
X171373Y40127D01*
X168073D01*
X166800Y41400D01*
Y55800D01*
X166057Y56543D01*
Y63381D01*
G01X187907Y32319D02*
X186181D01*
X185300Y33200D01*
X183600D01*
X182710Y34090D01*
X179210D01*
X176100Y37200D01*
Y40300D01*
X174116Y42284D01*
X171316D01*
X169800Y43800D01*
Y57417D01*
X167600Y59617D01*
Y66847D01*
X166466Y67980D01*
Y76260D01*
X162907Y79819D01*
G01X194380Y19520D02*
Y23250D01*
X191990Y25640D01*
Y27110D01*
X190090Y29010D01*
Y32810D01*
X189110Y33790D01*
Y35360D01*
X188460Y36010D01*
X186890D01*
X186300Y36600D01*
X182030D01*
X171700Y46930D01*
Y48700D01*
X174400Y51400D01*
Y53200D01*
X171900Y55700D01*
Y57200D01*
X170700Y58400D01*
Y60279D01*
X170716Y60296D01*
Y61547D01*
X170700Y61563D01*
Y66614D01*
X171126Y67040D01*
G01X164840Y75530D02*
X160910Y79460D01*
Y80810D01*
X162170Y82070D01*
Y82930D01*
X160167Y84933D01*
Y95667D01*
X161130Y96630D01*
X162950D01*
X163740Y97420D01*
Y99550D01*
X162740Y100550D01*
X161007D01*
X160167Y101390D01*
Y103630D01*
X161007Y104470D01*
X162160D01*
X163000Y105310D01*
Y107550D01*
X162160Y108390D01*
X161007D01*
X160167Y109230D01*
Y111470D01*
X161007Y112310D01*
X162160D01*
X163000Y113150D01*
Y115390D01*
X162160Y116230D01*
X161007D01*
X160167Y117070D01*
Y119310D01*
X161007Y120150D01*
X162160D01*
X163400Y121390D01*
Y122830D01*
X162160Y124070D01*
X161007D01*
X158600Y126477D01*
Y126900D01*
G01X194206Y32319D02*
X195410Y33523D01*
Y35460D01*
X190170Y40700D01*
Y41888D01*
X190497Y42215D01*
Y43402D01*
X188913Y44987D01*
X187725D01*
X187398Y44660D01*
X186210D01*
X184626Y46244D01*
Y47431D01*
X184954Y47758D01*
Y48946D01*
X183369Y50530D01*
X181870D01*
X178935Y53465D01*
Y60935D01*
X180400Y62400D01*
Y65100D01*
X175488Y70012D01*
Y70089D01*
X172900Y72677D01*
Y75242D01*
X169206Y78936D01*
Y79819D01*
G01X169400Y126900D02*
X172140Y124160D01*
X177640D01*
X178900Y122900D01*
Y121080D01*
X178060Y120240D01*
X172140D01*
X171300Y119400D01*
Y117160D01*
X172140Y116320D01*
X178060D01*
X178900Y115480D01*
Y113240D01*
X178060Y112400D01*
X172140D01*
X171300Y111560D01*
Y109320D01*
X172140Y108480D01*
X178060D01*
X178900Y107640D01*
Y105400D01*
X178060Y104560D01*
X172140D01*
X171300Y103720D01*
Y101480D01*
X172140Y100640D01*
X178060D01*
X178900Y99800D01*
Y97560D01*
X178060Y96720D01*
X172140D01*
X170100Y94680D01*
Y87200D01*
X169206Y86306D01*
Y79819D01*
G01X167976Y76002D02*
Y75048D01*
X169162Y73862D01*
Y72974D01*
X175990Y66146D01*
Y64974D01*
X176300Y64664D01*
Y48400D01*
X177279Y47421D01*
X178467D01*
X179446Y48400D01*
X181100D01*
X181900Y47600D01*
Y42800D01*
X185800Y38900D01*
X187200D01*
X189172Y36928D01*
X191372D01*
X192567Y35733D01*
Y28912D01*
X192976Y28502D01*
G01X164100Y126900D02*
Y125400D01*
X165113Y124387D01*
X167360D01*
X168200Y123547D01*
Y121307D01*
X167360Y120467D01*
X165840D01*
X165000Y119627D01*
Y117387D01*
X165840Y116547D01*
X167360D01*
X168200Y115707D01*
Y113467D01*
X167360Y112627D01*
X165840D01*
X165000Y111787D01*
Y109547D01*
X165840Y108707D01*
X167360D01*
X168200Y107867D01*
Y105627D01*
X167360Y104787D01*
X165840D01*
X165000Y103947D01*
Y101707D01*
X165840Y100867D01*
X167360D01*
X168200Y100027D01*
Y97787D01*
X167360Y96947D01*
X165840D01*
X165000Y96107D01*
Y88900D01*
X163317Y87217D01*
Y82283D01*
X167976Y77624D01*
Y76002D01*
G01X202425Y26534D02*
X202900Y27009D01*
Y33398D01*
X202145Y34153D01*
Y35559D01*
X197000Y40704D01*
Y48800D01*
X194300Y51500D01*
X189900D01*
X185300Y56100D01*
Y60543D01*
X186900Y62143D01*
Y66900D01*
X181571Y72229D01*
X179230D01*
X177425Y74034D01*
G01X199276Y28502D02*
X201225Y30452D01*
Y34275D01*
X194800Y40700D01*
Y41900D01*
X192733Y43967D01*
Y45267D01*
X189149Y48851D01*
X187649D01*
X182085Y54415D01*
Y56285D01*
X184100Y58300D01*
Y61400D01*
X182600Y62900D01*
Y65000D01*
X174276Y73324D01*
X174300Y77500D01*
G01X183900Y126900D02*
Y124700D01*
X181300Y122100D01*
Y119489D01*
X183900Y116889D01*
Y115689D01*
X181700Y113489D01*
Y111249D01*
X183900Y109049D01*
Y107849D01*
X181700Y105649D01*
Y103409D01*
X183900Y101209D01*
Y91900D01*
X182900Y90900D01*
X173600D01*
X172400Y89700D01*
Y86700D01*
X174000Y85100D01*
Y83460D01*
X177016Y80445D01*
Y74444D01*
X177425Y74034D01*
G01X199276Y40564D02*
X200700Y41988D01*
Y47900D01*
X195300Y53300D01*
X194200D01*
X189900Y57600D01*
Y62599D01*
X188500Y63999D01*
Y69700D01*
X184700Y73500D01*
X180300D01*
X179065Y74735D01*
Y80553D01*
X180165Y81653D01*
Y82904D01*
X175006Y88064D01*
X174276D01*
G01X185900Y90600D02*
X185200Y89900D01*
Y86598D01*
X185234Y86563D01*
Y85312D01*
X181251Y81329D01*
X181179D01*
X180295Y80445D01*
Y76283D01*
X180575Y76002D01*
G01X208400Y126900D02*
Y122700D01*
X210008Y121092D01*
X211160D01*
X212000Y120252D01*
Y118012D01*
X211160Y117171D01*
X209240D01*
X208400Y116332D01*
Y114091D01*
X209240Y113252D01*
X211160D01*
X212000Y112412D01*
Y110172D01*
X211160Y109332D01*
X209240D01*
X208400Y108492D01*
Y106252D01*
X209240Y105412D01*
X211160D01*
X212000Y104572D01*
Y102332D01*
X211160Y101492D01*
X209240D01*
X208400Y100652D01*
Y98412D01*
X209240Y97572D01*
X211160D01*
X212000Y96732D01*
Y94492D01*
X211160Y93652D01*
X209240D01*
X208400Y92812D01*
Y90572D01*
X209240Y89732D01*
X211160D01*
X212000Y88892D01*
Y86652D01*
X211160Y85812D01*
X209240D01*
X208400Y84972D01*
Y82732D01*
X209240Y81892D01*
X211160D01*
X212000Y81052D01*
Y78812D01*
X211160Y77972D01*
X209320D01*
X208900Y77552D01*
Y67872D01*
X205900Y64872D01*
Y62500D01*
X205290Y61890D01*
Y58062D01*
X206130Y57222D01*
X207060D01*
X207900Y56382D01*
Y54142D01*
X207060Y53302D01*
X206130D01*
X205290Y52462D01*
Y44890D01*
X204065Y43665D01*
Y38935D01*
X205400Y37600D01*
Y33050D01*
X205090Y32740D01*
Y22151D01*
X205575Y21666D01*
G01X215500Y126900D02*
Y126761D01*
X212920Y124181D01*
Y122841D01*
X215500Y120261D01*
Y118021D01*
X214660Y117181D01*
X213760D01*
X212920Y116341D01*
Y114101D01*
X213760Y113261D01*
X214660D01*
X215500Y112421D01*
Y110181D01*
X214660Y109341D01*
X213760D01*
X212920Y108501D01*
Y106261D01*
X213760Y105421D01*
X214660D01*
X215500Y104581D01*
Y102341D01*
X214660Y101501D01*
X213760D01*
X212920Y100661D01*
Y98421D01*
X213760Y97581D01*
X214660D01*
X215500Y96741D01*
Y94501D01*
X214660Y93661D01*
X213760D01*
X212920Y92821D01*
Y90581D01*
X213760Y89741D01*
X214660D01*
X215500Y88901D01*
Y86661D01*
X214660Y85821D01*
X213760D01*
X212920Y84981D01*
Y82741D01*
X213760Y81901D01*
X214660D01*
X215500Y81061D01*
Y78821D01*
X214660Y77981D01*
X213760D01*
X212920Y77141D01*
Y74901D01*
X213760Y74061D01*
X214660D01*
X215500Y73221D01*
Y68970D01*
X214660Y68130D01*
X212140D01*
X211300Y67290D01*
Y65050D01*
X212140Y64210D01*
X214660D01*
X215500Y63370D01*
Y61130D01*
X214660Y60290D01*
X212140D01*
X211300Y59450D01*
Y57210D01*
X212140Y56370D01*
X214660D01*
X215500Y55530D01*
Y53290D01*
X214660Y52450D01*
X212140D01*
X211300Y51610D01*
Y49370D01*
X212140Y48530D01*
X214660D01*
X215500Y47690D01*
Y46400D01*
X207900Y38800D01*
Y37500D01*
X209050Y36350D01*
X210300Y35100D01*
G01X226710Y126729D02*
Y119033D01*
X226400Y118723D01*
G01Y79400D02*
Y78382D01*
X225560Y77542D01*
X223940D01*
X223100Y76702D01*
Y74462D01*
X223940Y73622D01*
X225560D01*
X226400Y72782D01*
Y46136D01*
X217764Y37500D01*
Y31164D01*
X216663Y30063D01*
Y23463D01*
X212900Y19700D01*
Y13625D01*
X213104Y13421D01*
G01X221100Y126900D02*
Y125735D01*
X220260Y124894D01*
X217740D01*
X216900Y124054D01*
Y121814D01*
X217740Y120974D01*
X220260D01*
X221100Y120135D01*
Y117894D01*
X220260Y117055D01*
X217740D01*
X216900Y116214D01*
Y113974D01*
X217740Y113134D01*
X220260D01*
X221100Y112294D01*
Y110055D01*
X220260Y109214D01*
X217740D01*
X216900Y108374D01*
Y106134D01*
X217740Y105294D01*
X220260D01*
X221100Y104454D01*
Y102215D01*
X220260Y101375D01*
X217740D01*
X216900Y100535D01*
Y98294D01*
X217740Y97454D01*
X220260D01*
X221100Y96614D01*
Y94374D01*
X220260Y93535D01*
X217740D01*
X216900Y92694D01*
Y90454D01*
X217740Y89614D01*
X220260D01*
X221100Y88774D01*
Y86534D01*
X220260Y85694D01*
X217740D01*
X216900Y84854D01*
Y82614D01*
X217740Y81774D01*
X220260D01*
X221100Y80935D01*
Y78695D01*
X220260Y77854D01*
X217740D01*
X216900Y77014D01*
Y74774D01*
X217740Y73934D01*
X220260D01*
X221100Y73094D01*
Y68600D01*
X220106Y67606D01*
X218840D01*
X218000Y66766D01*
Y64526D01*
X221100Y61426D01*
Y46900D01*
X213400Y39200D01*
Y37900D01*
X211810Y36310D01*
Y33810D01*
X210210Y32210D01*
Y29374D01*
X209136Y28300D01*
X206700D01*
G54D17*
X125600Y208900D03*
X142361Y129987D03*
X138424D03*
X142361Y141798D03*
X134487Y137861D03*
Y133924D03*
X142361Y137861D03*
Y133924D03*
X138424D03*
X134487Y141798D03*
X142361Y157546D03*
X134487Y153609D03*
X138424D03*
X142361Y149672D03*
X134487Y145735D03*
X138424D03*
X134487Y149672D03*
X138424D03*
X134487Y157546D03*
X138424D03*
X142361Y153609D03*
Y145735D03*
Y173294D03*
X134487Y169358D03*
X138424D03*
X142361Y165420D03*
X134487Y161484D03*
X138424D03*
X134487Y165420D03*
X138424D03*
X134487Y173294D03*
X138424D03*
X142361Y161484D03*
Y169358D03*
Y189042D03*
X134487Y185106D03*
X138424D03*
X142361Y181168D03*
X134487Y177232D03*
X138424D03*
X134487Y181168D03*
X138424D03*
X134487Y189042D03*
X138424D03*
X142361Y177232D03*
Y185106D03*
X134487Y200854D03*
X138424D03*
X142361Y196916D03*
X134487Y192980D03*
X138424D03*
X142361Y200854D03*
X134487Y196916D03*
X138424D03*
X142361Y192980D03*
X134487Y216602D03*
X138424D03*
X142361D03*
Y212665D03*
X134487Y208728D03*
X138424D03*
X142361Y204791D03*
X138424D03*
X134487D03*
Y212665D03*
X138424D03*
X142361Y208728D03*
X134487Y224476D03*
X142361Y220539D03*
Y224476D03*
X134487Y220539D03*
X158528Y55136D03*
X155378Y57105D03*
X156608Y60921D03*
X158528Y67040D03*
X156608Y79819D03*
X158530Y75410D03*
X155378Y76002D03*
Y88064D03*
X158528Y85938D03*
X146298Y129987D03*
X158109Y133924D03*
X146298Y141798D03*
Y133924D03*
X158109Y137861D03*
Y141798D03*
X150235D03*
X154172Y133924D03*
Y137861D03*
X150235Y133924D03*
X146298Y137861D03*
X150235D03*
X158109Y145735D03*
Y153609D03*
Y157546D03*
X146298D03*
X150235Y153609D03*
X146298Y149672D03*
X150235Y145735D03*
Y157546D03*
X154172D03*
Y153609D03*
Y149672D03*
X150235D03*
X146298Y153609D03*
Y145735D03*
X154172D03*
D03*
X158109Y169358D03*
X146298Y173294D03*
X150235Y169358D03*
X146298Y165420D03*
X150235Y161484D03*
X158109Y165420D03*
Y161484D03*
Y173294D03*
X154172Y169358D03*
Y161484D03*
X150235Y173294D03*
X154172D03*
X146298Y161484D03*
Y169358D03*
X150235Y165420D03*
X154172D03*
X158109Y177232D03*
Y185106D03*
X146298Y189042D03*
X154172D03*
X150235Y185106D03*
X146298Y181168D03*
X150235Y177232D03*
X158109Y189042D03*
Y181168D03*
X150235Y189042D03*
X154172Y185106D03*
X146298Y177232D03*
Y185106D03*
X150235Y181168D03*
X154172D03*
Y177232D03*
X158109Y192980D03*
Y200854D03*
X150235D03*
X146298Y196916D03*
X150235D03*
X154172D03*
X146298Y200854D03*
X154172D03*
X146298Y192980D03*
X150235D03*
X154172D03*
X158109Y204791D03*
Y212665D03*
X146298D03*
X150235Y208728D03*
X146298Y204791D03*
X154172D03*
X158109Y216602D03*
X154172Y208728D03*
X150235Y204791D03*
Y212665D03*
X146298Y208728D03*
Y216602D03*
X154172Y212665D03*
Y216602D03*
X158109Y208728D03*
X150235Y224476D03*
X158109D03*
X150235Y228413D03*
X146298D03*
Y220539D03*
Y224476D03*
X158109Y220539D03*
X154172D03*
X164827Y55136D03*
X167976Y57105D03*
X161677D03*
X172356Y63381D03*
X169206Y60921D03*
X161677Y69166D03*
X162907Y60921D03*
X159758Y63381D03*
X171126Y67040D03*
X164827D03*
X166057Y63381D03*
X172800Y60700D03*
X164840Y75530D03*
X166057Y82279D03*
X161677Y76002D03*
X162907Y79819D03*
X159758Y82279D03*
X169206Y79819D03*
X171126Y74034D03*
X172700Y82600D03*
X167976Y76002D03*
Y88064D03*
X161677D03*
X164827Y85938D03*
X165984Y129987D03*
X169920D03*
Y133924D03*
X165984Y141798D03*
X162046D03*
Y137861D03*
X169920D03*
X165984D03*
X169920Y141798D03*
Y157546D03*
Y145735D03*
X162046Y149672D03*
Y145735D03*
Y153609D03*
X169920D03*
X165984Y145735D03*
X169920Y149672D03*
X165984D03*
X162046Y169358D03*
D03*
Y173294D03*
X169920D03*
X162046Y165420D03*
D03*
X165984Y173294D03*
X169920Y169358D03*
X165984D03*
Y161484D03*
X169920Y165420D03*
Y161484D03*
X165984Y165420D03*
X162046Y189042D03*
X169920D03*
X162046Y181168D03*
X169920D03*
X165984D03*
Y189042D03*
X162046Y185106D03*
X165984Y177232D03*
Y185106D03*
X162046Y177232D03*
X169920Y185106D03*
Y177232D03*
Y200854D03*
X162046Y196916D03*
X165984D03*
Y200854D03*
Y192980D03*
X162046D03*
X169920D03*
X162046Y200854D03*
X169920Y196916D03*
Y212665D03*
X162046D03*
X169920Y216602D03*
X165984Y212665D03*
Y208728D03*
X169920D03*
Y204791D03*
X165984D03*
X162046D03*
Y216602D03*
X165984D03*
X162046Y208728D03*
X169920Y224476D03*
Y220539D03*
X165984D03*
Y224476D03*
X162046D03*
Y220539D03*
X165984Y228413D03*
X169920D03*
X186677Y9605D03*
X180378D03*
X183528Y7636D03*
X186677Y21666D03*
X187907Y13421D03*
X184758Y15881D03*
X181608Y13421D03*
X183528Y26534D03*
X181780Y19570D03*
X186677Y40564D03*
X180378D03*
X181608Y32319D03*
X186677Y28502D03*
X187907Y32319D03*
X184758Y34779D03*
X178250Y28500D03*
X183528Y38438D03*
X183724Y55136D03*
X186874Y57105D03*
X184954Y63381D03*
X178655D03*
X177500Y65600D03*
X174400D03*
X174276Y57105D03*
X186874Y69166D03*
X188104Y60921D03*
X181805D03*
X180575Y69166D03*
X183724Y67040D03*
X180575Y57105D03*
X178655Y82279D03*
X177425Y74034D03*
X174300Y77500D03*
X183400Y77600D03*
X187100D03*
X187600Y80200D03*
X180575Y76002D03*
X184954Y82279D03*
X181805Y79819D03*
X175506D03*
X183724Y85938D03*
X180575Y88064D03*
X174276D03*
X186874D03*
X173858Y129987D03*
X181732D03*
X177794D03*
X185668D03*
X181732Y133924D03*
X173858Y137861D03*
X185668D03*
X177794Y141798D03*
Y137861D03*
X173858Y133924D03*
Y141798D03*
X177794Y133924D03*
X185668Y141798D03*
X181732Y137861D03*
X185668Y133924D03*
X181732Y157546D03*
Y145735D03*
X177794Y149672D03*
X185668D03*
X177794Y157546D03*
D03*
Y153609D03*
X185668Y157546D03*
X177794Y145735D03*
X173858D03*
Y153609D03*
Y149672D03*
Y157546D03*
X181732Y149672D03*
X185668Y145735D03*
Y153609D03*
X177794Y173294D03*
X185668D03*
X173858Y169358D03*
X181732D03*
X185668Y165420D03*
X173858D03*
D03*
X185800Y165400D03*
X185668Y169358D03*
X173858Y161484D03*
X177794D03*
X181732D03*
X177794Y165420D03*
X173858Y173294D03*
X181732D03*
X177794Y169358D03*
Y189042D03*
X185668D03*
X173858Y185106D03*
X181732D03*
X177794Y181168D03*
X185668D03*
X173858Y177232D03*
X181732D03*
X173858Y189042D03*
X181732D03*
X177794Y185106D03*
X185668D03*
X173858Y181168D03*
X181732D03*
X177794Y177232D03*
X185668D03*
X181732Y200854D03*
X173858Y192980D03*
X185668Y196916D03*
Y200854D03*
X173858D03*
Y196916D03*
X177794D03*
Y200854D03*
X181732Y192980D03*
X185668D03*
X177794D03*
X181732Y212665D03*
X173858Y204791D03*
X181732Y208728D03*
Y204791D03*
X185668Y212665D03*
Y216602D03*
X173858Y212665D03*
Y216602D03*
X177794Y208728D03*
Y212665D03*
X173858Y208728D03*
X177794Y216602D03*
Y204791D03*
X181732Y224476D03*
X177794D03*
Y220539D03*
X173858Y228413D03*
X177794D03*
X173858Y220539D03*
Y224476D03*
X185668Y228413D03*
X192976Y9605D03*
X199276D03*
X189827Y7636D03*
X197356Y15881D03*
X194206Y13421D03*
X198800Y18480D03*
X189827Y26534D03*
X194380Y19520D03*
X190960Y19740D03*
X196126Y26534D03*
X202425D03*
X191057Y15881D03*
X200506Y13421D03*
X192976Y40564D03*
X191057Y34779D03*
X194206Y32319D03*
X197356Y34779D03*
X192976Y28502D03*
X199276D03*
Y40564D03*
X189827Y38438D03*
X199500Y33300D03*
X202622Y55136D03*
X196323D03*
X190024D03*
X199472Y57105D03*
X194403Y60921D03*
X191254Y63381D03*
X190024Y67040D03*
X199472Y69166D03*
X196323Y67040D03*
X193173Y69166D03*
X197553Y63381D03*
X202622Y67040D03*
X200702Y60921D03*
X193173Y57105D03*
X199600Y77400D03*
X191254Y82279D03*
X193173Y76002D03*
X190024Y74034D03*
X196323D03*
X197900Y82600D03*
X202622Y74034D03*
X200702Y79819D03*
X194403D03*
X199472Y88064D03*
X193100Y89200D03*
X190024Y85938D03*
X202622D03*
X196323D03*
X197480Y129987D03*
X189606D03*
X193542D03*
Y133924D03*
X197480Y141798D03*
X201417D03*
X189606Y137861D03*
Y133924D03*
X197480D03*
Y137861D03*
X193542D03*
Y157546D03*
Y145735D03*
X201417Y149672D03*
X197480D03*
Y157546D03*
Y153609D03*
Y145735D03*
X201417Y157546D03*
Y153609D03*
Y145735D03*
X189606Y149672D03*
X193542D03*
X189606Y157546D03*
X193542Y173294D03*
X201417D03*
X193542Y165420D03*
X201417D03*
D03*
X197480Y169358D03*
X189606D03*
X197480Y161484D03*
X201417D03*
X193542D03*
X189606Y165420D03*
Y161484D03*
Y173294D03*
X197480D03*
X193542Y169358D03*
X201417D03*
X193542Y189042D03*
X201417D03*
X189606Y185106D03*
X197480D03*
X193542Y181168D03*
X189606Y177232D03*
X197480D03*
X189606Y189042D03*
X197480D03*
X193542Y185106D03*
X201417D03*
X189606Y181168D03*
X197480D03*
X201417D03*
X193542Y177232D03*
X201417D03*
X193542Y200854D03*
X189606Y196916D03*
Y200854D03*
Y192980D03*
X193542Y196916D03*
X189606Y192980D03*
X193542Y196916D03*
X197480Y192980D03*
X193542D03*
X201417D03*
X193542Y212665D03*
X189606Y208728D03*
Y216602D03*
X197480Y212665D03*
X189606Y204791D03*
X197480Y208728D03*
Y204791D03*
X193542Y224476D03*
X189606Y220539D03*
Y224476D03*
Y228413D03*
X193542D03*
X197480D03*
X201417Y224476D03*
Y220539D03*
X211874Y9605D03*
X208724Y7636D03*
X205575Y9605D03*
X215024Y7636D03*
X216254Y15881D03*
X209954D03*
X203655D03*
X203260Y18550D03*
X215024Y19540D03*
Y26534D03*
X211874Y21666D03*
X213104Y13421D03*
X206805D03*
X205575Y21666D03*
X208724Y19540D03*
X215024Y38438D03*
X216254Y34779D03*
X209800Y38000D03*
X203655Y34779D03*
X205575Y40564D03*
X213104Y32319D03*
X206700Y28300D03*
X210300Y35100D03*
X212000Y30000D03*
X208700D03*
X211874Y40564D03*
X206805Y32319D03*
X203852Y63381D03*
Y82279D03*
X209291Y129987D03*
X205354D03*
X217165D03*
X213228D03*
X205354Y133924D03*
X217165D03*
X209291Y141798D03*
X205354D03*
Y137861D03*
X213228D03*
Y133924D03*
X217165Y137861D03*
X213228Y141798D03*
X205354Y157546D03*
X217165D03*
Y153609D03*
X205354Y145735D03*
X217165D03*
X209291Y153609D03*
X205354Y149672D03*
X209291D03*
Y145735D03*
X213228D03*
Y153609D03*
X209291Y157546D03*
X217165Y149672D03*
Y165420D03*
X205354Y169358D03*
X217165D03*
X209291Y161484D03*
Y169358D03*
Y173294D03*
X209400Y169300D03*
X209291Y173294D03*
X217165D03*
X205354Y165420D03*
Y173294D03*
X213228Y169358D03*
Y173294D03*
X217165Y189042D03*
X205354Y185106D03*
X217165Y181168D03*
X205354Y177232D03*
X209291Y181168D03*
Y177232D03*
X213228Y189042D03*
X205354D03*
Y181168D03*
X209291Y185106D03*
X205354Y181168D03*
X209291Y185106D03*
X205354Y200854D03*
X217165D03*
X209291Y196916D03*
X205354Y192980D03*
X209291D03*
X217165Y196916D03*
X205354D03*
X213228D03*
X205354Y212665D03*
X217165D03*
X205354Y204791D03*
X209291Y212665D03*
X213228Y204791D03*
X205354Y224476D03*
X217165D03*
X209291D03*
X227622Y7636D03*
X224472Y9605D03*
X221323Y7636D03*
X218173Y9605D03*
X219403Y13421D03*
X218173Y21666D03*
X221323Y26534D03*
X221600Y14900D03*
X227622Y19540D03*
X225702Y13421D03*
X227622Y26534D03*
X221200Y17900D03*
X224500D03*
X229900Y16700D03*
X224472Y40564D03*
Y28502D03*
X218173Y40564D03*
Y28502D03*
X222553Y34779D03*
X228852D03*
X219403Y32319D03*
X221323Y38438D03*
X225702Y32319D03*
X227622Y38438D03*
X225039Y129987D03*
X228976Y133924D03*
X225039Y141798D03*
X221102Y137861D03*
D03*
X228976D03*
X229000Y137900D03*
X225039Y137861D03*
D03*
Y129987D03*
X228976Y157546D03*
Y145735D03*
X221102Y157546D03*
Y145735D03*
X221100Y145600D03*
X228976Y169358D03*
X225039Y165420D03*
X228976D03*
Y181168D03*
Y189042D03*
X225039D03*
X221102Y177232D03*
Y185106D03*
X221200Y177200D03*
X221102Y185106D03*
X228976Y192980D03*
X225039Y196916D03*
X221102Y192980D03*
D03*
X228976Y216602D03*
Y204791D03*
X221102Y216602D03*
X225039D03*
X228976Y212665D03*
X225039Y204791D03*
X221102D03*
X228976Y228413D03*
Y224476D03*
X221102Y228413D03*
X225039Y220539D03*
X232913Y153609D03*
Y157546D03*
Y165420D03*
Y173294D03*
Y161484D03*
Y185106D03*
X232934Y184988D03*
X232913Y177232D03*
Y192980D03*
Y216602D03*
Y224476D03*
G54D27*
G01X27700Y-89900D02*
Y-94900D01*
X29700D01*
G01X30950D02*
X32200Y-89900D01*
X33450Y-94900D01*
G01X33000Y-93150D02*
X31400D01*
G01X35700Y-94900D02*
Y-92650D01*
X34700Y-89900D01*
G01X36700D02*
X35700Y-92650D01*
G01X40200Y-94900D02*
X38200D01*
Y-89900D01*
X40200D01*
G01X39400Y-92317D02*
X38200D01*
G01X41700Y-94900D02*
Y-89900D01*
X42950D01*
X43350Y-90150D01*
X43600Y-90483D01*
X43700Y-91150D01*
X43600Y-91817D01*
X43300Y-92233D01*
X42950Y-92483D01*
X41700D01*
G01X42950D02*
X43700Y-94900D01*
G01X49700D02*
Y-89900D01*
X49100Y-90900D01*
G01Y-94900D02*
X50300D01*
G01X53200Y-89900D02*
X52800Y-90067D01*
X52500Y-90483D01*
X52300Y-90983D01*
X52150Y-91650D01*
X52100Y-92400D01*
X52150Y-93150D01*
X52300Y-93817D01*
X52500Y-94317D01*
X52800Y-94733D01*
X53200Y-94900D01*
X53600Y-94733D01*
X53900Y-94317D01*
X54100Y-93817D01*
X54250Y-93150D01*
X54300Y-92400D01*
X54250Y-91650D01*
X54100Y-90983D01*
X53900Y-90483D01*
X53600Y-90067D01*
X53200Y-89900D01*
G01X59950Y-96567D02*
X59450Y-95733D01*
X59200Y-94900D01*
Y-91567D01*
X59450Y-90733D01*
X59950Y-89900D01*
G01X62650Y-94234D02*
X63050Y-94650D01*
X63500Y-94900D01*
X63900D01*
X64300Y-94650D01*
X64600Y-94234D01*
X64750Y-93650D01*
X64650Y-93067D01*
X64400Y-92567D01*
X63950Y-92233D01*
X63350Y-92067D01*
X63000Y-91733D01*
X62850Y-91150D01*
X62950Y-90567D01*
X63200Y-90150D01*
X63550Y-89900D01*
X63900D01*
X64250Y-90067D01*
X64550Y-90483D01*
G01X66600Y-89900D02*
X67800D01*
G01X67200D02*
Y-94900D01*
G01X66600D02*
X67800D01*
G01X71000Y-92400D02*
X72000D01*
Y-93900D01*
X71700Y-94400D01*
X71350Y-94733D01*
X70850Y-94900D01*
X70350Y-94733D01*
X70000Y-94400D01*
X69700Y-93900D01*
X69500Y-93317D01*
X69400Y-92650D01*
Y-92067D01*
X69500Y-91567D01*
X69700Y-90983D01*
X70000Y-90483D01*
X70300Y-90150D01*
X70700Y-89900D01*
X71050D01*
X71450Y-90067D01*
X71750Y-90400D01*
G01X73100Y-93900D02*
X73400Y-94483D01*
X73800Y-94817D01*
X74250Y-94900D01*
X74650Y-94817D01*
X75050Y-94400D01*
X75300Y-93900D01*
X75350Y-93400D01*
X75250Y-92817D01*
X74900Y-92400D01*
X74550Y-92233D01*
X74100D01*
G01X74550D02*
X74850Y-91983D01*
X75100Y-91567D01*
X75200Y-91067D01*
X75100Y-90567D01*
X74850Y-90150D01*
X74400Y-89900D01*
X73950Y-89983D01*
X73500Y-90317D01*
G01X77950Y-96567D02*
X78450Y-95733D01*
X78700Y-94900D01*
Y-91567D01*
X78450Y-90733D01*
X77950Y-89900D01*
G54D18*
X240000Y272500D03*
Y292500D03*
X260000Y272500D03*
Y292500D03*
X285000Y75000D03*
Y95000D03*
Y130000D03*
Y150000D03*
X290000Y217500D03*
Y237500D03*
X305000Y75000D03*
Y95000D03*
Y130000D03*
Y150000D03*
X310000Y217500D03*
Y237500D03*
X296000Y272500D03*
Y292500D03*
X316000Y272500D03*
Y292500D03*
G54D28*
G01X132000Y135413D02*
X89489D01*
X72248Y152654D01*
Y154467D01*
X73252Y155471D01*
Y156648D01*
X71699Y158201D01*
X70523D01*
X69322Y157000D01*
X67902D01*
X51142Y173760D01*
X49848D01*
X48360Y175248D01*
Y176542D01*
X46142Y178760D01*
X44848D01*
X43360Y180248D01*
Y181542D01*
X41142Y183760D01*
X39848D01*
X38360Y185248D01*
Y186542D01*
X36142Y188760D01*
X34848D01*
X33360Y190248D01*
Y191542D01*
X31142Y193760D01*
X29848D01*
X28360Y195248D01*
Y196542D01*
X26142Y198760D01*
X24848D01*
X23360Y200248D01*
Y241440D01*
X21460Y243340D01*
X17660D01*
X15840Y245160D01*
Y252740D01*
X17380Y254280D01*
X20540D01*
X20900Y254640D01*
Y256300D01*
G01X150039Y126900D02*
Y126603D01*
X146436Y123000D01*
X90000D01*
X52480Y160520D01*
Y161955D01*
X51555Y162880D01*
X50245D01*
X47480Y165645D01*
Y166955D01*
X46555Y167880D01*
X45245D01*
X42480Y170645D01*
Y171955D01*
X41555Y172880D01*
X40245D01*
X37480Y175645D01*
Y176955D01*
X36555Y177880D01*
X35245D01*
X32480Y180645D01*
Y181955D01*
X31555Y182880D01*
X30245D01*
X27480Y185645D01*
Y186955D01*
X26555Y187880D01*
X25245D01*
X22480Y190645D01*
Y191955D01*
X21555Y192880D01*
X20245D01*
X17480Y195645D01*
Y196955D01*
X16555Y197880D01*
X15120D01*
X14839Y198161D01*
X13980Y199020D01*
X12840Y200160D01*
Y237040D01*
X15080Y239280D01*
X20540D01*
X20900Y239640D01*
Y241300D01*
G01X148978Y126900D02*
X148356Y126278D01*
X147846D01*
X147417Y126707D01*
X146907D01*
X146455Y126255D01*
Y125746D01*
X146885Y125316D01*
Y124807D01*
X146038Y123960D01*
X132584D01*
X132223Y124320D01*
Y124840D01*
X131864Y125200D01*
X131223D01*
X130864Y124840D01*
Y124320D01*
X130504Y123960D01*
X90398D01*
X53440Y160918D01*
Y162352D01*
X51952Y163840D01*
X50643D01*
X48440Y166043D01*
Y167352D01*
X46952Y168840D01*
X45643D01*
X43440Y171043D01*
Y172352D01*
X41952Y173840D01*
X40643D01*
X38440Y176043D01*
Y177352D01*
X36952Y178840D01*
X35643D01*
X33440Y181043D01*
Y182352D01*
X31952Y183840D01*
X30643D01*
X28440Y186043D01*
Y187352D01*
X26952Y188840D01*
X25643D01*
X23440Y191043D01*
Y192352D01*
X21952Y193840D01*
X20643D01*
X18440Y196043D01*
Y197352D01*
X16952Y198840D01*
X15518D01*
X13800Y200558D01*
Y231654D01*
X14160Y232014D01*
X14840D01*
X15200Y232374D01*
Y233014D01*
X14840Y233374D01*
X14160D01*
X13800Y233734D01*
Y236642D01*
X15478Y238320D01*
X20540D01*
X20900Y237960D01*
Y236300D01*
G01X132000Y136373D02*
X89887D01*
X87698Y138562D01*
Y139072D01*
X87908Y139282D01*
Y139792D01*
X87456Y140244D01*
X86947D01*
X86736Y140033D01*
X86227D01*
X73208Y153052D01*
Y154070D01*
X74212Y155074D01*
Y157045D01*
X72097Y159161D01*
X70125D01*
X69121Y158157D01*
X68103D01*
X51540Y174720D01*
X50245D01*
X49320Y175645D01*
Y176940D01*
X46540Y179720D01*
X45245D01*
X44320Y180645D01*
Y181940D01*
X41540Y184720D01*
X40245D01*
X39320Y185645D01*
Y186940D01*
X36540Y189720D01*
X35245D01*
X34320Y190645D01*
Y191940D01*
X31540Y194720D01*
X30245D01*
X29320Y195645D01*
Y196940D01*
X26540Y199720D01*
X25245D01*
X24320Y200645D01*
Y241838D01*
X21858Y244300D01*
X18058D01*
X16800Y245558D01*
Y248007D01*
X17160Y248368D01*
X17940D01*
X18300Y248728D01*
Y249368D01*
X17940Y249728D01*
X17160D01*
X16800Y250088D01*
Y252342D01*
X17778Y253320D01*
X20540D01*
X20900Y252960D01*
Y251300D01*
G01X132000Y202194D02*
X130707D01*
X127300Y205600D01*
Y233400D01*
X124000Y236700D01*
X118360D01*
X117078Y237982D01*
Y248520D01*
X116358Y249240D01*
X113938D01*
X113218Y248520D01*
Y237982D01*
X111936Y236700D01*
X108720D01*
X107438Y237982D01*
Y248520D01*
X106718Y249240D01*
X104298D01*
X103578Y248520D01*
Y237982D01*
X102296Y236700D01*
X85400D01*
X58780Y263320D01*
X57985D01*
X16260Y263320D01*
X15900Y262960D01*
Y261300D01*
G01X132000Y203154D02*
X131104D01*
X128260Y205998D01*
Y233798D01*
X124398Y237660D01*
X118758D01*
X118038Y238380D01*
Y248918D01*
X116756Y250200D01*
X113540D01*
X112258Y248918D01*
Y238380D01*
X111538Y237660D01*
X109118D01*
X108398Y238380D01*
Y248918D01*
X107116Y250200D01*
X103900D01*
X102618Y248918D01*
Y238380D01*
X101898Y237660D01*
X85798D01*
X59178Y264280D01*
X58383D01*
X58382Y264280D01*
X16260D01*
X15900Y264640D01*
Y266300D01*
G01X132000Y198340D02*
X128802D01*
X121540Y205602D01*
Y228860D01*
X119581Y230819D01*
X119072D01*
X118781Y230528D01*
X118272D01*
X117819Y230981D01*
Y231490D01*
X118110Y231781D01*
Y232290D01*
X117020Y233380D01*
X81662D01*
X79702Y235340D01*
X75660D01*
X67760Y243240D01*
X54757D01*
X54397Y242880D01*
Y242260D01*
X54037Y241900D01*
X53397D01*
X53037Y242260D01*
Y242880D01*
X52677Y243240D01*
X35440D01*
X33960Y241760D01*
Y199798D01*
X34478Y199280D01*
X35540D01*
X35900Y199640D01*
Y201300D01*
G01X132000Y199300D02*
X129200D01*
X122500Y206000D01*
Y229258D01*
X117418Y234340D01*
X82060D01*
X80100Y236300D01*
X76058D01*
X68158Y244200D01*
X35042D01*
X33000Y242158D01*
Y199400D01*
X34080Y198320D01*
X35540D01*
X35900Y197960D01*
Y196300D01*
G01X132000Y190420D02*
X119880D01*
X117040Y193260D01*
Y196802D01*
X116006Y197836D01*
X113482D01*
X112200Y199118D01*
Y202334D01*
X113482Y203616D01*
X116320D01*
X117040Y204336D01*
Y220602D01*
X115702Y221940D01*
X108397D01*
X107115Y223222D01*
Y229620D01*
X106395Y230340D01*
X103975D01*
X103255Y229620D01*
Y223222D01*
X101973Y221940D01*
X90464D01*
X89182Y223222D01*
Y225320D01*
X88462Y226040D01*
X86042D01*
X85322Y225320D01*
Y223222D01*
X84039Y221940D01*
X80260D01*
X73880Y228320D01*
X69950D01*
X68668Y229602D01*
Y236562D01*
X67948Y237282D01*
X65528D01*
X64808Y236562D01*
Y229602D01*
X63525Y228320D01*
X60532D01*
X59249Y229602D01*
Y237105D01*
X58529Y237825D01*
X56109D01*
X55389Y237105D01*
Y229602D01*
X54107Y228320D01*
X36260D01*
X35900Y227960D01*
Y226300D01*
G01X132000Y191380D02*
X120278D01*
X118000Y193658D01*
Y197200D01*
X116404Y198796D01*
X113880D01*
X113160Y199516D01*
Y201936D01*
X113880Y202656D01*
X116956D01*
X118000Y203700D01*
Y221400D01*
X116500Y222900D01*
X115305D01*
X108795Y222900D01*
X108075Y223620D01*
Y230018D01*
X106793Y231300D01*
X103577D01*
X102295Y230018D01*
Y223620D01*
X101575Y222900D01*
X90862D01*
X90142Y223620D01*
Y225718D01*
X88859Y227000D01*
X85644D01*
X84362Y225718D01*
Y223620D01*
X83642Y222900D01*
X80658D01*
X74278Y229280D01*
X70348D01*
X69628Y230000D01*
Y236960D01*
X68345Y238242D01*
X65130D01*
X63848Y236960D01*
Y230000D01*
X63128Y229280D01*
X60929D01*
X60209Y230000D01*
Y237502D01*
X58927Y238785D01*
X55712D01*
X54429Y237502D01*
Y230000D01*
X53709Y229280D01*
X36260D01*
X35900Y229640D01*
Y231300D01*
G01X132000Y143518D02*
X97582D01*
X61360Y179740D01*
Y186440D01*
X53520Y194280D01*
X51260D01*
X50900Y194640D01*
Y196300D01*
G01X132000Y142558D02*
X97184D01*
X60400Y179342D01*
Y186042D01*
X53122Y193320D01*
X51260D01*
X50900Y192960D01*
Y191300D01*
G01X132000Y150839D02*
X106361D01*
X53880Y203320D01*
X46520D01*
X45900Y202700D01*
Y201300D01*
G01X132000Y159900D02*
X130458D01*
X100898Y189460D01*
X94398D01*
X69578Y214280D01*
X51280D01*
X50900Y214660D01*
Y216300D01*
G01X132000Y158940D02*
X130060D01*
X100500Y188500D01*
X94000D01*
X69180Y213320D01*
X51260D01*
X50900Y212960D01*
Y211300D01*
G01X132000Y151980D02*
X131684D01*
X131503Y151799D01*
X106759D01*
X54278Y204280D01*
X46260D01*
X45900Y204640D01*
Y206300D01*
G01X132000Y167943D02*
X130614D01*
X103698Y194860D01*
X101540D01*
X96160Y200240D01*
Y203198D01*
X88798Y210560D01*
X86498D01*
X72778Y224280D01*
X46260D01*
X45900Y224640D01*
Y226300D01*
G01X132000Y166983D02*
X130217D01*
X103300Y193900D01*
X101142D01*
X95200Y199842D01*
Y202800D01*
X88400Y209600D01*
X86100D01*
X72380Y223320D01*
X46260D01*
X45900Y222960D01*
Y221300D01*
G01X197958Y126900D02*
X206260Y118598D01*
Y115187D01*
X203760Y112687D01*
Y110267D01*
X204480Y109547D01*
X205178D01*
X206460Y108265D01*
Y105050D01*
X205178Y103767D01*
X204480D01*
X203200Y102487D01*
Y99858D01*
X206460Y96598D01*
Y73960D01*
X203740Y71240D01*
X189102D01*
X184895Y75448D01*
Y76105D01*
X183400Y77600D01*
G01X196600Y126900D02*
X205300Y118200D01*
Y115585D01*
X202800Y113085D01*
Y109870D01*
X204082Y108587D01*
X204780D01*
X205500Y107867D01*
Y105447D01*
X204780Y104727D01*
X204082D01*
X202240Y102885D01*
Y99460D01*
X205500Y96200D01*
Y80170D01*
X205102Y79772D01*
X204598D01*
X204200Y79373D01*
Y78810D01*
X204598Y78412D01*
X205102D01*
X205500Y78013D01*
Y74358D01*
X203342Y72200D01*
X194229D01*
X193831Y72598D01*
Y73002D01*
X193432Y73400D01*
X192869D01*
X192470Y73002D01*
Y72598D01*
X192072Y72200D01*
X189500D01*
X185855Y75845D01*
Y76355D01*
X187100Y77600D01*
G54D19*
X239500Y329900D03*
Y339900D03*
X249500Y329900D03*
X259500D03*
X249500Y339900D03*
X259500D03*
X269500Y329900D03*
Y339900D03*
X279500Y329900D03*
Y339900D03*
X388773Y210500D03*
Y220500D03*
Y230500D03*
X413500Y232000D03*
Y242000D03*
Y252000D03*
Y267500D03*
Y277500D03*
Y287500D03*
X433500Y232000D03*
Y242000D03*
Y252000D03*
X453500Y232000D03*
Y242000D03*
Y252000D03*
X466000Y267500D03*
Y277500D03*
Y287500D03*
X473500Y232000D03*
Y242000D03*
Y252000D03*
M02*
