G04 ================== begin FILE IDENTIFICATION RECORD ==================*
G04 Layout Name:  C:/userdata/Boards/TSW14J50_B/TSW14J50_B.brd*
G04 Film Name:    LYR14_BOTTOM*
G04 File Format:  Gerber RS274X*
G04 File Origin:  Cadence Allegro 16.6-S019*
G04 Origin Date:  Tue Apr 01 14:59:12 2014*
G04 *
G04 Layer:  VIA CLASS/BOTTOM*
G04 Layer:  PIN/BOTTOM*
G04 Layer:  ETCH/BOTTOM*
G04 Layer:  BOARD GEOMETRY/TOOLING_CORNERS*
G04 *
G04 Offset:    (0.000 0.000)*
G04 Mirror:    No*
G04 Mode:      Positive*
G04 Rotation:  0*
G04 FullContactRelief:  No*
G04 UndefLineWidth:     7.000*
G04 ================== end FILE IDENTIFICATION RECORD ====================*
%FSLAX55Y55*MOIN*%
%IR0*IPPOS*OFA0.00000B0.00000*MIA0B0*SFA1.00000B1.00000*%
%ADD27R,.125X.04*%
%ADD10C,.1*%
%ADD14R,.075X.13*%
%ADD55R,.11811X.06*%
%ADD13C,.15*%
%ADD52R,.009X.07*%
%ADD68C,.17*%
%ADD24R,.07X.009*%
%AMMACRO75*
4,1,23,.020535,.007,
-.012475,.007,
-.013706,.007066,
-.014929,.006916,
-.016108,.006557,
-.017206,.005999,
-.018191,.005258,
-.019032,.004357,
-.019704,.003324,
-.020187,.00219,
-.020465,.00099,
-.020531,-.000241,
-.020381,-.001464,
-.020022,-.002643,
-.019464,-.003741,
-.018723,-.004726,
-.017822,-.005567,
-.016789,-.006239,
-.015655,-.006722,
-.014455,-.007,
-.013224,-.007066,
-.012475,-.007,
.020535,-.007,
.020535,.007,
0.0*
%
%ADD75MACRO75*%
%AMMACRO72*
4,1,23,.007,-.020535,
.007,.012475,
.007066,.013706,
.006916,.014929,
.006557,.016108,
.005999,.017206,
.005258,.018191,
.004357,.019032,
.003324,.019704,
.00219,.020187,
.00099,.020465,
-.000241,.020531,
-.001464,.020381,
-.002643,.020022,
-.003741,.019464,
-.004726,.018723,
-.005567,.017822,
-.006239,.016789,
-.006722,.015655,
-.007,.014455,
-.007066,.013224,
-.007,.012475,
-.007,-.020535,
.007,-.020535,
0.0*
%
%ADD72MACRO72*%
%ADD70R,.13X.13*%
%ADD23R,.226X.077*%
%ADD63R,.137795X.047244*%
%ADD39R,.047244X.137795*%
%ADD32R,.02X.01*%
%AMMACRO43*
21,1,.02,.02,0.0,0.0,45.*%
%ADD43MACRO43*%
%ADD21R,.02X.02*%
%ADD17R,.02X.02*%
%ADD19R,.013X.02*%
%ADD53R,.031X.03*%
%ADD45R,.012X.022*%
%ADD38R,.012X.04*%
%ADD34R,.01X.014*%
%ADD61R,.03X.031*%
%ADD57R,.04X.012*%
%ADD66R,.01X.026*%
%ADD33R,.05X.04*%
%ADD29R,.01X.035*%
%ADD30R,.04X.05*%
%ADD25R,.035X.01*%
%ADD18R,.07X.03*%
%ADD60R,.035X.012*%
%ADD28R,.025X.03*%
%ADD58R,.012X.035*%
%ADD54R,.01201X.03402*%
%ADD65R,.064X.04*%
%ADD15R,.063X.052*%
%ADD12C,.02*%
%ADD64R,.072X.044*%
%ADD47R,.09X.08*%
%ADD42C,.012*%
%ADD36R,.052X.063*%
%ADD11C,.03*%
%ADD51R,.045X.018*%
%ADD31R,.08X.09*%
%ADD22R,.044X.072*%
%ADD16C,.022*%
%ADD76C,.05*%
%AMMACRO74*
4,1,23,-.007,.020535,
-.007,-.012475,
-.007066,-.013706,
-.006916,-.014929,
-.006557,-.016108,
-.005999,-.017206,
-.005258,-.018191,
-.004357,-.019032,
-.003324,-.019704,
-.00219,-.020187,
-.00099,-.020465,
.000241,-.020531,
.001464,-.020381,
.002643,-.020022,
.003741,-.019464,
.004726,-.018723,
.005567,-.017822,
.006239,-.016789,
.006722,-.015655,
.007,-.014455,
.007066,-.013224,
.007,-.012475,
.007,.020535,
-.007,.020535,
0.0*
%
%ADD74MACRO74*%
%AMMACRO71*
4,1,23,-.020535,-.007,
.012475,-.007,
.013706,-.007066,
.014929,-.006916,
.016108,-.006557,
.017206,-.005999,
.018191,-.005258,
.019032,-.004357,
.019704,-.003324,
.020187,-.00219,
.020465,-.00099,
.020531,.000241,
.020381,.001464,
.020022,.002643,
.019464,.003741,
.018723,.004726,
.017822,.005567,
.016789,.006239,
.015655,.006722,
.014455,.007,
.013224,.007066,
.012475,.007,
-.020535,.007,
-.020535,-.007,
0.0*
%
%ADD71MACRO71*%
%ADD20C,.016*%
%ADD69C,.08*%
%AMMACRO41*
21,1,.012,.012,0.0,0.0,45.*%
%ADD41MACRO41*%
%ADD35C,.018*%
%ADD46R,.012X.012*%
%ADD26C,.092*%
%ADD73C,.022008*%
%ADD50C,.058*%
%ADD62R,.098X.038*%
%ADD40R,.038X.098*%
%ADD37R,.014016X.072008*%
%ADD59R,.09X.09*%
%ADD56R,.072008X.014016*%
%ADD48C,.097*%
%ADD49R,.058X.058*%
%ADD67R,.05512X.01969*%
%AMMACRO44*
21,1,.02,.02,0.0,0.0,135.*%
%ADD44MACRO44*%
%ADD77C,.004*%
%ADD78C,.005*%
%ADD79C,.006*%
%ADD80C,.008*%
%ADD81C,.0035*%
%ADD82C,.0057*%
%ADD83C,.01*%
%ADD84C,.04*%
%ADD85C,.015*%
%ADD101R,.092004X.102004*%
%ADD100R,.102004X.092004*%
%ADD95C,.122004*%
%ADD90C,.180004*%
%ADD93R,.238004X.089004*%
%ADD96R,.030004X.030004*%
%ADD87R,.155004X.120004*%
%ADD92R,.032004X.032004*%
%ADD98C,.030004*%
%ADD104R,.043004X.042004*%
%ADD86R,.245004X.115004*%
%ADD89C,.032004*%
%ADD91C,.060004*%
%ADD88C,.042004*%
%ADD99C,.034004*%
%ADD94R,.037004X.042004*%
%ADD108O,.054004X.038004*%
%ADD106C,.080004*%
%ADD107R,.032004X.067004*%
%ADD97C,.028004*%
%ADD103C,.088004*%
%ADD102R,.088004X.088004*%
%ADD105R,.067124X.031694*%
G75*
%LPD*%
G75*
G36*
G01X7886Y-12760D02*
G03X-12760Y7886I-7886J12760D01*
G02X-13500Y8097I-340J210D01*
G01Y361903D01*
G02X-12760Y362114I400J0D01*
G03X7886Y382760I12760J7886D01*
G02X8097Y383500I210J340D01*
G01X461903D01*
G02X462114Y382760I0J-400D01*
G03X482760Y362114I7886J-12760D01*
G02X483500Y361903I340J-210D01*
G01Y8097D01*
G02X482760Y7886I-400J0D01*
G03X462114Y-12760I-12760J-7886D01*
G02X461903Y-13500I-210J-340D01*
G01X8097D01*
G02X7886Y-12760I0J400D01*
G37*
%LPC*%
G75*
G36*
G01X180253Y79650D02*
X179951Y79952D01*
X180330Y80330D01*
G02X181293Y81294I1475J-512D01*
G01X181648Y81649D01*
X181922Y81375D01*
G02X183295Y79354I-117J-1556D01*
G03X183617Y79084I380J126D01*
G02X182669Y76290I-217J-1484D01*
G03X182074Y75954I-195J-349D01*
G02X181306Y77312I-1499J49D01*
G03X181901Y77649I195J349D01*
G02X181965Y78038I1499J-49D01*
G01X182000Y78153D01*
X181893Y78261D01*
G02X181659Y78265I-88J1558D01*
G01X181648Y78254D01*
X181635Y78267D01*
G02X180253Y79650I169J1552D01*
G37*
G36*
G01X450989Y207919D02*
X450999Y207918D01*
X454864D01*
Y205318D01*
X450999D01*
X450989Y205317D01*
G02Y207919I-125J1301D01*
G37*
G36*
G01X433000Y47328D02*
X444000Y36328D01*
Y25172D01*
X436828Y18000D01*
X424172D01*
X409000Y33172D01*
Y79500D01*
X433828D01*
X434828Y78500D01*
X482500D01*
Y59000D01*
X437328D01*
X433000Y54672D01*
Y47328D01*
G37*
G36*
G01X368672Y137500D02*
X374828D01*
X378500Y133829D01*
Y124500D01*
X358000D01*
Y135000D01*
X366172D01*
X368672Y137500D01*
G37*
G36*
G01X373802Y367700D02*
G03X373406Y367244I0J-400D01*
G02X371820Y368622I-1585J-223D01*
G03X372215Y369077I0J400D01*
G02X373802Y367700I1585J223D01*
G37*
G36*
G01X316056Y371226D02*
X316050Y371202D01*
Y367100D01*
X316100D01*
Y363900D01*
X312900D01*
Y367100D01*
X312950D01*
Y371202D01*
X312944Y371226D01*
G02X316056I1556J374D01*
G37*
G36*
G01X295656D02*
X295650Y371202D01*
Y364958D01*
X295600Y364908D01*
Y363900D01*
X292400D01*
Y367100D01*
X292550D01*
Y371202D01*
X292544Y371226D01*
G02X295656I1556J374D01*
G37*
G36*
G01X273556D02*
X273550Y371202D01*
Y367100D01*
X273600D01*
Y363900D01*
X270400D01*
Y367100D01*
X270450D01*
Y371202D01*
X270444Y371226D01*
G02X273556I1556J374D01*
G37*
G36*
G01X250556D02*
X250550Y371202D01*
Y367100D01*
X250600D01*
Y363900D01*
X247400D01*
Y367100D01*
X247450D01*
Y371202D01*
X247444Y371226D01*
G02X250556I1556J374D01*
G37*
G36*
G01X228556D02*
X228550Y371202D01*
Y367100D01*
X228600D01*
Y363900D01*
X225400D01*
Y367100D01*
X225450D01*
Y371202D01*
X225444Y371226D01*
G02X228556I1556J374D01*
G37*
G36*
G01X206556D02*
X206550Y371202D01*
Y367100D01*
X206600D01*
Y363900D01*
X203400D01*
Y367100D01*
X203450D01*
Y371202D01*
X203444Y371226D01*
G02X206556I1556J374D01*
G37*
G36*
G01X184956D02*
X184950Y371202D01*
Y367100D01*
X185100D01*
Y363900D01*
X181900D01*
Y364908D01*
X181850Y364958D01*
Y371202D01*
X181844Y371226D01*
G02X184956I1556J374D01*
G37*
G36*
G01X303640Y356320D02*
G03X303080Y356240I-240J-320D01*
G02X300599Y356143I-1280J960D01*
G03X300039Y356183I-300J-264D01*
G02X300201Y358457I-1039J1217D01*
G03X300761Y358417I300J264D01*
G02X302760Y358480I1039J-1217D01*
G03X303320Y358560I240J320D01*
G02X305798Y358661I1280J-960D01*
G03X306378Y358641I299J265D01*
G02X306302Y356439I1122J-1141D01*
G03X305722Y356459I-299J-265D01*
G02X303640Y356320I-1122J1141D01*
G37*
G36*
G01X276517Y355364D02*
G03X275998Y355006I-121J-381D01*
G02X272825Y354818I-1597J94D01*
G03X272345Y355137I-394J-71D01*
G02X273575Y356982I-345J1563D01*
G03X274055Y356663I394J71D01*
G02X274883Y356626I345J-1563D01*
G03X275402Y356984I121J381D01*
G02X276517Y355364I1597J-94D01*
G37*
G36*
G01X115692Y357039D02*
G03X116072Y356599I398J-40D01*
G02X114408Y355162I-72J-1599D01*
G03X114028Y355601I-398J40D01*
G02X115692Y357039I72J1599D01*
G37*
G36*
G01X266474Y354456D02*
X266498Y354450D01*
X267900D01*
Y354500D01*
X271100D01*
Y351300D01*
X267900D01*
Y351350D01*
X266498D01*
X266474Y351344D01*
G02Y354456I-374J1556D01*
G37*
G36*
G01X59400Y350800D02*
G02X59129Y349821I-1900J0D01*
G01X59100Y349774D01*
Y349200D01*
X58526D01*
X58479Y349171D01*
G02X57500Y348900I-979J1629D01*
G01X53287D01*
X52342Y347955D01*
X49453D01*
G02X48474Y348226I0J1900D01*
G01X48426Y348255D01*
X48203D01*
Y348422D01*
X48141Y348481D01*
G02Y351230I1312J1374D01*
G01X48203Y351289D01*
Y351455D01*
X48426D01*
X48474Y351484D01*
G02X49453Y351755I979J-1629D01*
G01X50768D01*
X51713Y352700D01*
X55600D01*
Y354300D01*
G02X55871Y355279I1900J0D01*
G01X55900Y355326D01*
Y355900D01*
X56474D01*
X56521Y355929D01*
G02X58479I979J-1629D01*
G01X58526Y355900D01*
X59100D01*
Y355326D01*
X59129Y355279D01*
G02X59400Y354300I-1629J-979D01*
G01Y350800D01*
G37*
G36*
G01X42544Y353844D02*
X45447Y350940D01*
Y349855D01*
G02X44859Y348481I-1900J0D01*
G01X44797Y348422D01*
Y348255D01*
X44574D01*
X44526Y348226D01*
G02X42568I-979J1629D01*
G01X42521Y348255D01*
X42297D01*
Y348422D01*
X42235Y348481D01*
G02X41752Y349232I1312J1374D01*
G01X41737Y349276D01*
X39856Y351156D01*
G02X42544Y353844I1344J1344D01*
G37*
G36*
G01X352560Y341008D02*
G02X350400Y339500I-2160J791D01*
G01X346700D01*
G02X345915Y339638I0J2300D01*
G01X345882Y339650D01*
X344600D01*
Y340862D01*
G02Y342738I2100J938D01*
G01Y343950D01*
X345882D01*
X345915Y343962D01*
G02X346700Y344100I785J-2162D01*
G01X350400D01*
G02X351508Y343816I0J-2300D01*
G03X351805Y343991I96J175D01*
G01Y344352D01*
X351300Y344857D01*
Y348700D01*
G02X351438Y349485I2300J0D01*
G01X351450Y349518D01*
Y350800D01*
X352662D01*
G02X354538I938J-2100D01*
G01X355750D01*
Y349518D01*
X355762Y349485D01*
G02X355900Y348700I-2162J-785D01*
G01Y346742D01*
G02X356405Y345305I-1795J-1438D01*
G01Y343305D01*
G02X353108Y341231I-2300J0D01*
G03X352560Y341008I-173J-361D01*
G37*
G36*
G01X267950Y344018D02*
Y347300D01*
X267900D01*
Y350500D01*
X271100D01*
Y347300D01*
X271050D01*
Y344018D01*
G02X267950I-1550J-4118D01*
G37*
G36*
G01X257950D02*
Y347300D01*
X257900D01*
Y350500D01*
X261100D01*
Y347300D01*
X261050D01*
Y344018D01*
G02X257950I-1550J-4118D01*
G37*
G36*
G01X396736Y336589D02*
X399200Y339053D01*
Y343850D01*
X405600D01*
Y336350D01*
X403003D01*
X397526Y330874D01*
G02X394274Y334126I-1626J1627D01*
G01X394391Y334244D01*
G03X394184Y334919I-283J283D01*
G02X396060Y336795I306J1571D01*
G03X396736Y336589I393J76D01*
G37*
G36*
G01X417600Y328850D02*
Y326753D01*
G03X418283Y326470I400J0D01*
G01X423356Y331544D01*
G02X426044Y328856I1344J-1344D01*
G01X424329Y327142D01*
G03X424470Y326800I141J-141D01*
G01X424500D01*
G02Y323000I0J-1900D01*
G01X423487D01*
X423000Y322513D01*
Y318713D01*
X419387Y315100D01*
X392813D01*
X383713Y324200D01*
X382800D01*
G02X381419Y327406I0J1900D01*
G02X381541Y329959I1465J1210D01*
G01X382099Y330517D01*
X386330D01*
X393479Y323368D01*
G03X394108Y323451I283J283D01*
G02X396100Y324600I1992J-1151D01*
G01X398447D01*
X399200Y325353D01*
Y328850D01*
X405600D01*
Y325772D01*
X405608Y325744D01*
G02Y324456I-2208J-644D01*
G01X405600Y324428D01*
Y321417D01*
X411200D01*
Y328850D01*
X417600D01*
G37*
G36*
G01X125676Y330500D02*
X117500D01*
Y343828D01*
X125483Y351812D01*
X124498Y352798D01*
G02X125900Y355688I1202J1202D01*
G03X126347Y356086I47J397D01*
G01Y356273D01*
X127616D01*
Y361358D01*
X130257Y364000D01*
X130313D01*
X130900Y364587D01*
Y365100D01*
X131474D01*
X131521Y365129D01*
G02X132582Y365398I979J-1629D01*
G03X133000Y365798I17J400D01*
G01Y370828D01*
X136672Y374500D01*
X156328D01*
X158835Y371994D01*
G03X159494Y372141I283J283D01*
G02X162556Y371226I1506J-541D01*
G01X162550Y371202D01*
Y367100D01*
X162600D01*
Y363900D01*
X160000D01*
Y363100D01*
X162600D01*
Y359900D01*
X160000D01*
Y316672D01*
X156829Y313500D01*
X136000D01*
Y331500D01*
X146172D01*
X148500Y333828D01*
Y342672D01*
X140672Y350500D01*
X140100D01*
Y347900D01*
X136900D01*
Y350500D01*
X131801D01*
Y348287D01*
G02X132400Y346902I-1301J-1385D01*
G01Y339133D01*
X135000Y329773D01*
Y313500D01*
X126000D01*
Y329773D01*
X126061Y329993D01*
G03X125676Y330500I-385J107D01*
G37*
G36*
G01X361950Y317200D02*
X356416D01*
G03X356074Y316593I0J-400D01*
G02X356405Y315405I-1969J-1188D01*
G01Y313395D01*
G02X356401Y313255I-2300J0D01*
G01X356400Y313249D01*
Y308900D01*
G02X356262Y308115I-2300J0D01*
G01X356250Y308082D01*
Y306800D01*
X355038D01*
G02X353162I-938J2100D01*
G01X351950D01*
Y308082D01*
X351938Y308115D01*
G02X351800Y308900I2162J785D01*
G01Y314344D01*
X351805Y314348D01*
Y315405D01*
G02X354058Y317704I2300J0D01*
G03X354450Y318104I-8J400D01*
G01Y323600D01*
X361950D01*
Y319759D01*
G02Y318041I-1350J-859D01*
G01Y317200D01*
G37*
G36*
G01X417600Y340742D02*
Y336350D01*
X411200D01*
Y343850D01*
X414492D01*
G03X414775Y344533I0J400D01*
G01X413758Y345550D01*
X406099D01*
X406062Y345534D01*
G02Y348666I-662J1566D01*
G01X406099Y348650D01*
X415042D01*
X452950Y310742D01*
Y291398D01*
X452956Y291374D01*
G02X449844I-1556J-374D01*
G01X449850Y291398D01*
Y309458D01*
X418283Y341025D01*
G03X417600Y340742I-283J-283D01*
G37*
G36*
G01X451692Y284070D02*
G03X452206Y283727I398J40D01*
G02X451008Y281930I494J-1627D01*
G03X450494Y282273I-398J-40D01*
G02X451692Y284070I-494J1627D01*
G37*
G36*
G01X25633Y282878D02*
X25696Y282888D01*
X28858Y286050D01*
X53442D01*
X77392Y262100D01*
X78400D01*
Y258900D01*
X75200D01*
Y259908D01*
X52158Y282950D01*
X30142D01*
X26942Y279750D01*
X26298D01*
X26274Y279744D01*
G02X25633Y282878I-374J1556D01*
G37*
G36*
G01X431165Y248270D02*
G03X430563Y247845I-212J-339D01*
G02X428400Y246016I-1563J-345D01*
G03X427850Y245646I-150J-371D01*
G01Y243600D01*
X427900D01*
Y240400D01*
X424700D01*
Y243600D01*
X424750D01*
Y250442D01*
X427858Y253550D01*
X429382D01*
G02X431165Y248270I4118J-1550D01*
G37*
G36*
G01X469312Y240650D02*
X468600D01*
Y240600D01*
X465400D01*
Y243800D01*
X468600D01*
Y243750D01*
X469463D01*
G02X469312Y240650I4037J-1750D01*
G37*
G36*
G01X449508Y240150D02*
X448400D01*
Y240100D01*
X445200D01*
Y243300D01*
X448400D01*
Y243250D01*
X449281D01*
G02X449508Y240150I4219J-1250D01*
G37*
G36*
G01X409312Y240650D02*
X408600D01*
Y240600D01*
X405400D01*
Y243800D01*
X408600D01*
Y243750D01*
X409463D01*
G02X409312Y240650I4037J-1750D01*
G37*
G36*
G01X466456Y236589D02*
X466425Y236600D01*
X465400D01*
Y237625D01*
X465389Y237656D01*
G02Y238744I1611J544D01*
G01X465400Y238775D01*
Y239800D01*
X466425D01*
X466456Y239811D01*
G02X467544I544J-1611D01*
G01X467575Y239800D01*
X468600D01*
Y238775D01*
X468611Y238744D01*
G02Y237656I-1611J-544D01*
G01X468600Y237625D01*
Y236600D01*
X467575D01*
X467544Y236589D01*
G02X466456I-544J1611D01*
G37*
G36*
G01X406456D02*
X406425Y236600D01*
X405400D01*
Y237625D01*
X405389Y237656D01*
G02Y238744I1611J544D01*
G01X405400Y238775D01*
Y239800D01*
X406425D01*
X406456Y239811D01*
G02X407544I544J-1611D01*
G01X407575Y239800D01*
X408600D01*
Y238775D01*
X408611Y238744D01*
G02Y237656I-1611J-544D01*
G01X408600Y237625D01*
Y236600D01*
X407575D01*
X407544Y236589D01*
G02X406456I-544J1611D01*
G37*
G36*
G01X446256Y236089D02*
X446225Y236100D01*
X445200D01*
Y237125D01*
X445189Y237156D01*
G02Y238244I1611J544D01*
G01X445200Y238275D01*
Y239300D01*
X446225D01*
X446256Y239311D01*
G02X447344I544J-1611D01*
G01X447375Y239300D01*
X448400D01*
Y238275D01*
X448411Y238244D01*
G02Y237156I-1611J-544D01*
G01X448400Y237125D01*
Y236100D01*
X447375D01*
X447344Y236089D01*
G02X446256I-544J1611D01*
G37*
G36*
G01X188635Y227404D02*
G03X187997Y227289I-277J-288D01*
G02X183840Y226585I-2328J1123D01*
G01X182915Y227510D01*
Y239700D01*
G02X183581Y241432I2585J0D01*
G03Y241968I-297J268D01*
G02X182915Y243700I1919J1732D01*
G01Y247971D01*
X199815Y264871D01*
Y271266D01*
X200672Y272123D01*
G02X204992Y269608I1828J-1828D01*
G01X204985Y269582D01*
Y262729D01*
X188085Y245829D01*
Y243700D01*
G02X187419Y241968I-2585J0D01*
G03Y241432I297J-268D01*
G02X188085Y239700I-1919J-1732D01*
G01Y237700D01*
X191100D01*
Y234500D01*
X188085D01*
Y229331D01*
X188097Y229298D01*
G02X188108Y229268I-2429J-885D01*
G03X188460Y229219I189J66D01*
G02X188635Y227404I1145J-806D01*
G37*
G36*
G01X222484Y228190D02*
X222468Y228089D01*
X222689Y227868D01*
X220568Y225746D01*
X218446Y227868D01*
X220568Y229989D01*
X220778Y229779D01*
X220879Y229795D01*
G02X222484Y228190I222J-1382D01*
G37*
G36*
G01X90200Y230087D02*
Y225800D01*
G02X89929Y224821I-1900J0D01*
G01X89900Y224774D01*
Y224200D01*
X89326D01*
X89279Y224171D01*
G02X87321I-979J1629D01*
G01X87274Y224200D01*
X86700D01*
Y224774D01*
X86671Y224821D01*
G02X86548Y225064I1629J979D01*
G03X86175Y225051I-184J-78D01*
G02X81724Y225467I-2175J749D01*
G01X81714Y225533D01*
X81374Y225874D01*
G02X81785Y229453I1626J1627D01*
G02X82227Y231273I1715J547D01*
G01X83515Y232561D01*
X83523Y232632D01*
G02X83546Y232787I1790J-187D01*
G01X83549Y232806D01*
Y233025D01*
X83252D01*
X83195Y232973D01*
G02X82157Y232575I-1038J1152D01*
G01X79506D01*
G02X77365Y234865I-1306J925D01*
G01X77385Y234877D01*
X77758Y235250D01*
X75785Y237223D01*
X75765Y237235D01*
G02X77240Y240067I835J1365D01*
G03X77800Y240433I160J367D01*
G01Y244646D01*
X78800Y245646D01*
Y249400D01*
X78100D01*
Y251400D01*
X79000D01*
Y252000D01*
X79600D01*
Y252800D01*
X79000D01*
Y256000D01*
X82200D01*
Y252800D01*
X81600D01*
Y252000D01*
X82200D01*
Y251226D01*
X82220Y251185D01*
G02X82400Y250400I-1620J-785D01*
G01Y244154D01*
X81400Y243154D01*
Y239146D01*
X81471Y239075D01*
X82157D01*
G02X83198Y238744I0J-1800D01*
G03X83513Y238912I116J163D01*
G02X83513Y238956I1800J42D01*
G01Y243359D01*
X88800Y248646D01*
Y249400D01*
X88100D01*
Y251400D01*
X89000D01*
Y252000D01*
X89600D01*
Y252800D01*
X89000D01*
Y256000D01*
X92200D01*
Y252800D01*
X91600D01*
Y252000D01*
X92200D01*
Y251226D01*
X92220Y251185D01*
G02X92400Y250400I-1620J-785D01*
G01Y247154D01*
X87113Y241867D01*
Y238956D01*
G02X86413Y237531I-1800J0D01*
G01Y236606D01*
X84507D01*
Y234794D01*
X87693D01*
Y236800D01*
X88951D01*
G02X90043Y237250I1092J-1100D01*
G01X91758D01*
X93550Y239042D01*
Y239702D01*
X93544Y239726D01*
G02X96656I1556J374D01*
G01X96650Y239702D01*
Y237758D01*
X93142Y234250D01*
X94216Y233177D01*
G02X92035Y230965I-816J-1377D01*
G01X92023Y230985D01*
X90433Y232575D01*
X90043D01*
G02X89005Y232973I0J1550D01*
G01X88948Y233025D01*
X88651D01*
Y232806D01*
X88654Y232787D01*
G02X88687Y232444I-1767J-343D01*
G01Y231459D01*
X88942Y231204D01*
X88970Y231189D01*
G02X89444Y230844I-870J-1689D01*
G01X90200Y230087D01*
G37*
G36*
G01X207899Y224627D02*
X207900Y224638D01*
Y225900D01*
X210900D01*
Y222900D01*
X207900D01*
Y224313D01*
X207899Y224324D01*
G02Y224627I1392J151D01*
G37*
G36*
G01X157083Y221491D02*
G02X156755Y220183I1027J-952D01*
G03X156086Y220364I-387J-102D01*
G01X154732Y219011D01*
X154555Y219188D01*
X154450Y219166D01*
G02X152800Y220816I-278J1372D01*
G01X152821Y220922D01*
X152611Y221132D01*
X154732Y223254D01*
X156506Y221480D01*
G03X157083Y221491I283J283D01*
G37*
G36*
G01X144900Y216664D02*
X144900Y216669D01*
Y218100D01*
X147900D01*
Y215100D01*
X144900D01*
Y216534D01*
X144900Y216539D01*
G02Y216664I1399J63D01*
G37*
G36*
G01X222495Y216465D02*
X222486Y216371D01*
X222789Y216068D01*
X220668Y213946D01*
X218546Y216068D01*
X220668Y218189D01*
X220871Y217986D01*
X220965Y217995D01*
G02X222495Y216465I136J-1394D01*
G37*
G36*
G01X178713Y213722D02*
G02X177420Y214014I-918J-1057D01*
G03X177596Y214682I-107J385D01*
G01X176211Y216068D01*
X176427Y216284D01*
X176411Y216385D01*
G02X178011Y217985I1383J217D01*
G01X178112Y217969D01*
X178332Y218189D01*
X180454Y216068D01*
X178692Y214306D01*
G03X178713Y213722I283J-283D01*
G37*
G36*
G01X168574Y216987D02*
G02X168868Y215679I1346J-386D01*
G03X168284Y215698I-301J-264D01*
G01X166887Y214301D01*
G03X166906Y213718I283J-283D01*
G02X165616Y214016I-923J-1053D01*
G03X165794Y214684I-105J386D01*
G01X164411Y216068D01*
X164618Y216275D01*
X164602Y216376D01*
G02X166209Y217984I1382J225D01*
G01X166310Y217967D01*
X166532Y218189D01*
X167907Y216814D01*
G03X168574Y216987I283J283D01*
G37*
G36*
G01X207899Y212816D02*
X207900Y212827D01*
Y214100D01*
X210900D01*
Y211100D01*
X207900D01*
Y212502D01*
X207899Y212513D01*
G02Y212816I1392J151D01*
G37*
G36*
G01X196097Y212888D02*
X196100Y212904D01*
Y214100D01*
X199100D01*
Y211100D01*
X196100D01*
Y212425D01*
X196097Y212441D01*
G02Y212888I1382J223D01*
G37*
G36*
G01X263072Y210559D02*
X259259D01*
G02Y215159I0J2300D01*
G01X263072D01*
G02X264815Y214359I0J-2300D01*
G01X265922D01*
Y211359D01*
X264815D01*
G02X263072Y210559I-1744J1500D01*
G37*
G36*
G01X274726Y208744D02*
X274702Y208750D01*
X269528D01*
G02X269160Y208794I0J1550D01*
G01X269137Y208800D01*
X266678D01*
Y214359D01*
X272378D01*
Y211850D01*
X274702D01*
X274726Y211856D01*
G02Y208744I374J-1556D01*
G37*
G36*
G01X111142Y208700D02*
X111174Y208711D01*
G02X112515Y205823I526J-1511D01*
G01X112292Y205600D01*
X103237D01*
G03X102849Y205100I0J-400D01*
G02X102399Y203537I-1549J-400D01*
G03X102393Y203253I137J-145D01*
G02X101635Y200281I-1293J-1253D01*
G02X98627Y198527I-1735J-481D01*
G01X98016Y199138D01*
X96092D01*
G02X94630Y199888I0J1800D01*
G01X91992D01*
Y203564D01*
X94630D01*
G02X94990Y203937I1462J-1050D01*
G03X95021Y204542I-245J316D01*
G02X94952Y204613I1071J1121D01*
G01X91992D01*
Y217737D01*
X94952D01*
G02X96092Y218237I1140J-1050D01*
G01X101844D01*
X103473Y219865D01*
X103485Y219885D01*
G02X105685Y217685I1365J-835D01*
G01X105665Y217673D01*
X103230Y215237D01*
X103323Y215100D01*
G02X103598Y214289I-1323J-900D01*
G01X103608Y214100D01*
X106108D01*
X106623Y214615D01*
X106635Y214635D01*
G02X109432Y214514I1365J-835D01*
G03X110032Y214374I358J178D01*
G02X111835Y211735I968J-1274D01*
G01X111815Y211723D01*
X110042Y209950D01*
X109969D01*
G03X109576Y209480I0J-400D01*
G02X109598Y209120I-1575J-280D01*
G03X109998Y208700I399J-20D01*
G01X111142D01*
G37*
G36*
G01X167286Y193493D02*
X167301Y193455D01*
X167604Y193152D01*
X167385Y192932D01*
X167378Y192859D01*
G02X164583Y192978I-1395J120D01*
G01X164583Y193061D01*
X162796Y194848D01*
X164352Y196404D01*
X166459Y194297D01*
X166497Y194282D01*
G02X167286Y193493I-514J-1302D01*
G37*
G36*
G01X163443Y193082D02*
X163448Y193008D01*
X163504Y192952D01*
X163446Y192893D01*
X163438Y192823D01*
G02X162203Y191588I-1392J156D01*
G01X162133Y191580D01*
X161948Y191396D01*
X161729Y191615D01*
X161678Y191629D01*
G02X160696Y192611I368J1351D01*
G01X160682Y192662D01*
X158696Y194648D01*
X160252Y196204D01*
X162074Y194381D01*
X162149Y194376D01*
G02X163443Y193082I-102J-1396D01*
G37*
G36*
G01X189926Y190406D02*
X189949Y190400D01*
X191200D01*
Y187400D01*
X188200D01*
Y190400D01*
X189262D01*
X189285Y190406D01*
G02X189926I321J-1363D01*
G37*
G36*
G01X176399Y185222D02*
X176400Y185230D01*
Y186700D01*
X179400D01*
Y183700D01*
X176400D01*
Y184981D01*
X176399Y184990D01*
G02Y185222I1395J116D01*
G37*
G36*
G01X185784Y186501D02*
X185793Y186500D01*
X187200D01*
Y183500D01*
X184200D01*
Y186500D01*
X185544D01*
X185552Y186501D01*
G02X185784I116J-1395D01*
G37*
G36*
G01X170036D02*
X170045Y186500D01*
X171400D01*
Y183500D01*
X168400D01*
Y186500D01*
X169796D01*
X169804Y186501D01*
G02X170036I116J-1395D01*
G37*
G36*
G01X163444Y185183D02*
X163449Y185107D01*
X163504Y185052D01*
X163444Y184991D01*
X163435Y184923D01*
G02X162229Y183717I-1388J182D01*
G01X162161Y183708D01*
X161948Y183496D01*
X161695Y183749D01*
X161646Y183764D01*
G02X160705Y184705I400J1342D01*
G01X160690Y184754D01*
X158696Y186748D01*
X160252Y188304D01*
X162048Y186508D01*
X162124Y186504D01*
G02X163444Y185183I-78J-1398D01*
G37*
G36*
G01X233120Y186490D02*
X233134Y186488D01*
X234434D01*
Y183488D01*
X231433D01*
Y186488D01*
X232691D01*
X232706Y186490D01*
G02X233120I207J-1385D01*
G37*
G36*
G01X196097Y181392D02*
X196100Y181408D01*
Y182600D01*
X199100D01*
Y179600D01*
X196100D01*
Y180929D01*
X196097Y180945D01*
G02Y181392I1382J223D01*
G37*
G36*
G01X210154Y178334D02*
G02X208878Y178570I-863J-1102D01*
G03X209044Y179235I-118J382D01*
G01X207611Y180668D01*
X207903Y180960D01*
X207895Y181053D01*
G02X209407Y182564I1395J116D01*
G01X209499Y182556D01*
X209732Y182789D01*
X211854Y180668D01*
X210118Y178932D01*
G03X210154Y178334I283J-283D01*
G37*
G36*
G01X163446Y177286D02*
X163449Y177207D01*
X163504Y177152D01*
X163441Y177088D01*
X163431Y177023D01*
G02X162255Y175847I-1385J209D01*
G01X162190Y175837D01*
X161948Y175596D01*
X161659Y175885D01*
X161613Y175900D01*
G02X160715Y176798I433J1331D01*
G01X160700Y176844D01*
X158696Y178848D01*
X160252Y180404D01*
X162022Y178634D01*
X162101Y178631D01*
G02X163446Y177286I-54J-1399D01*
G37*
G36*
G01X213296Y174693D02*
X213384Y174689D01*
X214671Y175975D01*
X219700D01*
Y178700D01*
X222325D01*
Y179762D01*
X223500Y180938D01*
Y182600D01*
X226500D01*
Y179600D01*
X224638D01*
X224075Y179038D01*
Y175838D01*
X222462Y174225D01*
X218700D01*
Y171800D01*
X215700D01*
Y174225D01*
X215396D01*
X214622Y173451D01*
X214626Y173362D01*
G02X213296Y174693I-1398J-68D01*
G37*
G36*
G01X207899Y169509D02*
X207900Y169520D01*
Y170800D01*
X210900D01*
Y167800D01*
X207900D01*
Y169195D01*
X207899Y169206D01*
G02Y169509I1392J152D01*
G37*
G36*
G01X343000Y173329D02*
X346672Y177000D01*
X367828D01*
X374500Y170329D01*
Y164937D01*
X376100D01*
Y161137D01*
X374500D01*
Y160000D01*
X369672D01*
X366672Y163000D01*
X358328D01*
X355328Y160000D01*
X346672D01*
X343000Y163672D01*
Y173329D01*
G37*
G36*
G01X207899Y157698D02*
X207900Y157709D01*
Y158900D01*
X208932D01*
X208955Y158906D01*
G02X209626I335J-1360D01*
G01X209649Y158900D01*
X210900D01*
Y155900D01*
X207900D01*
Y157384D01*
X207899Y157395D01*
G02Y157698I1392J151D01*
G37*
G36*
G01X452775Y156056D02*
X452798Y156050D01*
X453900D01*
Y156100D01*
X457100D01*
Y152900D01*
X453900D01*
Y152950D01*
X452798D01*
X452775Y152944D01*
G02Y156056I-375J1556D01*
G37*
G36*
G01X434565Y157835D02*
X434577Y157815D01*
X435050Y157342D01*
Y156100D01*
X435100D01*
Y152900D01*
X431900D01*
Y156067D01*
G02X434565Y157835I1300J933D01*
G37*
G36*
G01X161807Y152230D02*
X161705Y152248D01*
X161468Y152011D01*
X159346Y154132D01*
X161468Y156254D01*
X163589Y154132D01*
X163408Y153951D01*
X163426Y153849D01*
G02X161807Y152230I-1380J-239D01*
G37*
G36*
G01X207899Y153761D02*
X207900Y153772D01*
Y155000D01*
X209128D01*
X209139Y155001D01*
G02X209442I151J-1392D01*
G01X209453Y155000D01*
X210900D01*
Y152000D01*
X207900D01*
Y153447D01*
X207899Y153458D01*
G02Y153761I1392J152D01*
G37*
G36*
G01X411956Y144889D02*
X411925Y144900D01*
X410900D01*
Y145925D01*
X410889Y145956D01*
G02Y147044I1611J544D01*
G01X410900Y147075D01*
Y148100D01*
X411925D01*
X411956Y148111D01*
G02X413044I544J-1611D01*
G01X413075Y148100D01*
X414100D01*
Y147075D01*
X414111Y147044D01*
G02Y145956I-1611J-544D01*
G01X414100Y145925D01*
Y144900D01*
X413075D01*
X413044Y144889D01*
G02X411956I-544J1611D01*
G37*
G36*
G01X221395Y147105D02*
X221415Y147100D01*
X222600D01*
Y144100D01*
X219600D01*
Y147100D01*
X220788D01*
X220809Y147105D01*
G02X221395I293J-1369D01*
G37*
G36*
G01X379259Y153963D02*
Y153645D01*
X380002Y152902D01*
G02X377598Y150498I-1202J-1202D01*
G01X376033Y152063D01*
X375000D01*
Y150172D01*
X373000Y148172D01*
Y140500D01*
X361000D01*
Y153500D01*
X366672D01*
X370172Y157000D01*
X375000D01*
Y155863D01*
X378659D01*
Y155259D01*
G02X379259Y153963I-1100J-1296D01*
G37*
G36*
G01X224548Y140487D02*
X224514Y140500D01*
X222700D01*
Y140300D01*
X219700D01*
Y143300D01*
X222700D01*
Y143100D01*
X224379D01*
X225739Y144461D01*
X227861Y142339D01*
X225739Y140218D01*
X225489Y140468D01*
X225379Y140440D01*
G02X224548Y140487I-341J1358D01*
G37*
G36*
G01X457950Y143304D02*
Y145900D01*
X457900D01*
Y149100D01*
X457950D01*
Y149600D01*
X457900D01*
Y152600D01*
X457950D01*
Y153100D01*
X457900D01*
Y156100D01*
X461100D01*
Y152900D01*
X461050D01*
Y152400D01*
X461100D01*
Y149400D01*
X461050D01*
Y148900D01*
X461100D01*
Y145900D01*
X461050D01*
Y143601D01*
X461206Y143566D01*
G02X457950Y143304I-1206J-5366D01*
G37*
G36*
G01X435950Y143073D02*
Y145900D01*
X435900D01*
Y149100D01*
X435950D01*
Y149600D01*
X435900D01*
Y152600D01*
X435950D01*
Y153100D01*
X435900D01*
Y156100D01*
X439100D01*
Y152900D01*
X439050D01*
Y152400D01*
X439100D01*
Y149400D01*
X439050D01*
Y148900D01*
X439100D01*
Y145900D01*
X439050D01*
Y143675D01*
X439224Y143652D01*
G02X435950Y143073I-724J-5452D01*
G37*
G36*
G01X424800Y119200D02*
X420700D01*
Y122400D01*
X424800D01*
G02Y119200I0J-1600D01*
G37*
G36*
G01Y114200D02*
X420700D01*
Y117400D01*
X424800D01*
G02Y114200I0J-1600D01*
G37*
G36*
G01Y109200D02*
X420700D01*
Y112400D01*
X424800D01*
G02Y109200I0J-1600D01*
G37*
G36*
G01Y104200D02*
X420700D01*
Y107400D01*
X424800D01*
G02Y104200I0J-1600D01*
G37*
G36*
G01X187340Y89490D02*
X187457Y89452D01*
X187552Y89546D01*
X189249Y87848D01*
X187552Y86151D01*
X187121Y86581D01*
X187027Y86571D01*
G02X187340Y89490I-153J1492D01*
G37*
G36*
G01X202159Y84511D02*
X202043Y84548D01*
X201948Y84454D01*
X200251Y86152D01*
X201948Y87849D01*
X202376Y87421D01*
X202471Y87430D01*
G02X202159Y84511I151J-1493D01*
G37*
G36*
G01X164296Y84535D02*
X164175Y84580D01*
X164048Y84454D01*
X162351Y86152D01*
X164048Y87849D01*
X164493Y87404D01*
X164594Y87420D01*
G02X164296Y84535I233J-1482D01*
G37*
G36*
G01X158061Y84512D02*
X157944Y84550D01*
X157848Y84454D01*
X156151Y86152D01*
X157848Y87849D01*
X158277Y87420D01*
X158372Y87430D01*
G02X158061Y84512I155J-1492D01*
G37*
G36*
G01X414192Y81150D02*
X414169Y81155D01*
X409975D01*
Y84325D01*
X413846D01*
X413886Y84343D01*
G02X415314I714J-1543D01*
G01X415354Y84325D01*
X416687D01*
Y81155D01*
X415032D01*
X415008Y81150D01*
G02X414192I-408J1651D01*
G37*
G36*
G01X93005Y82129D02*
G03X92705Y82549I-399J32D01*
G02X91505Y84229I395J1551D01*
G03X91205Y84649I-399J32D01*
G02X93195Y86071I395J1551D01*
G03X93495Y85651I399J-32D01*
G02X94695Y83971I-395J-1551D01*
G03X94995Y83551I399J-32D01*
G02X93005Y82129I-395J-1551D01*
G37*
G36*
G01X200245Y78390D02*
X200215Y78400D01*
X199600D01*
Y78802D01*
G02X201781Y80861I1103J1017D01*
G01X201840Y80800D01*
X202000D01*
Y80573D01*
X202024Y80529D01*
G02X202000Y79066I-1322J-710D01*
G01Y78400D01*
X201190D01*
X201160Y78390D01*
G02X200245I-458J1429D01*
G37*
G36*
G01X193812Y78440D02*
X193688Y78493D01*
X193648Y78454D01*
X193392Y78710D01*
X193389Y78713D01*
G02X193297Y78805I1014J1106D01*
G01X193294Y78808D01*
X191951Y80152D01*
X193648Y81849D01*
X194190Y81307D01*
X194283Y81314D01*
G02X193812Y78440I120J-1495D01*
G37*
G36*
G01X173810Y78918D02*
G03X174063Y79406I-131J378D01*
G02X175996Y78401I1442J413D01*
G03X175742Y77913I131J-378D01*
G02X173810Y78918I-1442J-413D01*
G37*
G36*
G01X183330Y65593D02*
X183304Y65600D01*
X182500D01*
Y66174D01*
G02X182467Y67859I1225J867D01*
G01X182500Y67909D01*
Y68000D01*
X182568D01*
X182628Y68064D01*
G02X184821I1097J-1023D01*
G01X184880Y68000D01*
X184900D01*
Y67974D01*
X184938Y67922D01*
G02X184900Y66108I-1214J-881D01*
G01Y65600D01*
X184145D01*
X184119Y65593D01*
G02X183330I-394J1447D01*
G37*
G36*
G01X205333Y63618D02*
X205344Y63554D01*
X205649Y63249D01*
X205259Y62859D01*
X205244Y62821D01*
G02X204413Y61990I-1392J560D01*
G01X204375Y61974D01*
X203952Y61551D01*
X203602Y61901D01*
X203544Y61913D01*
G02X202384Y63073I308J1468D01*
G01X202372Y63131D01*
X202254Y63249D01*
X202350Y63344D01*
X202352Y63424D01*
G02X203809Y64881I1500J-43D01*
G01X203889Y64883D01*
X203952Y64946D01*
X204025Y64873D01*
X204089Y64862D01*
G02X205333Y63618I-237J-1481D01*
G37*
G36*
G01X181068Y58522D02*
X181186Y58480D01*
X181352Y58646D01*
X183049Y56948D01*
X181352Y55251D01*
X180953Y55649D01*
X180850Y55630D01*
G02X181068Y58522I-275J1475D01*
G37*
G36*
G01X158060Y53711D02*
X157943Y53749D01*
X157848Y53654D01*
X156151Y55352D01*
X157848Y57049D01*
X158279Y56619D01*
X158373Y56628D01*
G02X158060Y53711I154J-1492D01*
G37*
G36*
G01X196592Y56612D02*
X196696Y56593D01*
X197052Y56949D01*
X198749Y55252D01*
X197052Y53554D01*
X196871Y53735D01*
X196756Y53700D01*
G02X196592Y56612I-434J1436D01*
G37*
G36*
G01X189559Y53710D02*
X189442Y53748D01*
X189248Y53554D01*
X187551Y55252D01*
X189248Y56949D01*
X189614Y56583D01*
X189720Y56605D01*
G02X189559Y53710I304J-1469D01*
G37*
G36*
G01X358400Y28400D02*
Y29105D01*
G03X357717Y29388I-400J0D01*
G01X356828Y28500D01*
X337672D01*
X333500Y32671D01*
Y39829D01*
X339672Y46000D01*
X348672D01*
X352000Y49328D01*
Y59000D01*
X371000D01*
Y39900D01*
G02X371496Y39835I0J-1900D01*
G03X372000Y40221I104J386D01*
G01Y59000D01*
X383500D01*
Y38553D01*
X382803Y37070D01*
G03X383164Y36500I362J-170D01*
G01X399500D01*
Y25500D01*
X372000D01*
Y26712D01*
X371865Y26759D01*
G02X371500Y26930I619J1796D01*
G02X371135Y26759I-984J1625D01*
G01X371000Y26712D01*
Y25500D01*
X361500D01*
Y28400D01*
X358400D01*
G37*
G36*
G01X118432Y46944D02*
X117844Y46356D01*
G02X116418Y45802I-1344J1344D01*
G03X116000Y45402I-17J-400D01*
G01Y38172D01*
X111000Y33172D01*
Y25671D01*
X106328Y21000D01*
X97672D01*
X92500Y26171D01*
Y54000D01*
X95000D01*
Y62000D01*
X110198D01*
X116352Y60770D01*
X116633Y60206D01*
G03X117274Y60102I358J179D01*
G01X118088Y60917D01*
G03X117805Y61600I-283J283D01*
G01X116113D01*
X116013Y61700D01*
X115609D01*
X115579Y61690D01*
G02X114021Y61871I-579J1810D01*
G01X113974Y61900D01*
X113400D01*
Y62474D01*
X113371Y62521D01*
G02Y64479I1629J979D01*
G01X113400Y64526D01*
Y65100D01*
X113913D01*
X114313Y65500D01*
X116800D01*
G02X117379Y65410I0J-1900D01*
G01X117409Y65400D01*
X118500D01*
G02X119044Y65321I0J-1900D01*
G01X119158Y65287D01*
X120472Y66600D01*
X131000D01*
Y52500D01*
X125070D01*
X124070Y51000D01*
X119903D01*
G03X119513Y50513I0J-400D01*
G01X119694Y49699D01*
G02X119357Y49514I-195J-43D01*
G01X119114Y49757D01*
G03X118432Y49474I-283J-283D01*
G01Y46944D01*
G37*
G36*
G01X358100Y20500D02*
G02X358371Y21479I1900J0D01*
G01X358400Y21526D01*
Y22100D01*
X358913D01*
X360158Y23345D01*
X368547D01*
G02X369526Y23074I0J-1900D01*
G01X369574Y23045D01*
X369797D01*
Y22878D01*
X369859Y22819D01*
G02Y20070I-1312J-1374D01*
G01X369797Y20011D01*
Y19845D01*
X369574D01*
X369526Y19816D01*
G02X368547Y19545I-979J1629D01*
G01X361900D01*
Y17000D01*
G02X361629Y16021I-1900J0D01*
G01X361600Y15974D01*
Y15400D01*
X361026D01*
X360979Y15371D01*
G02X359021I-979J1629D01*
G01X358974Y15400D01*
X358400D01*
Y15974D01*
X358371Y16021D01*
G02X358100Y17000I1629J979D01*
G01Y20500D01*
G37*
G36*
G01X309200Y34600D02*
X311775D01*
G02X313779Y34629I1025J-1600D01*
G01X313826Y34600D01*
X314400D01*
Y34026D01*
X314429Y33979D01*
G02Y32021I-1629J-979D01*
G01X314400Y31974D01*
Y31400D01*
X313887D01*
X313287Y30800D01*
X311100D01*
Y29000D01*
G02X311034Y28505I-1900J0D01*
G03X311421Y28000I386J-104D01*
G01X312500D01*
Y21172D01*
X308828Y17500D01*
X291328D01*
X290500Y16672D01*
Y13172D01*
X286328Y9000D01*
X278172D01*
X273500Y13672D01*
Y21828D01*
X280672Y29000D01*
X282709D01*
G03X283107Y29435I0J400D01*
G02X283371Y30579I1893J165D01*
G01X283400Y30626D01*
Y31200D01*
X283974D01*
X284021Y31229D01*
G02X285000Y31500I979J-1629D01*
G01X288587D01*
X290387Y29700D01*
X292076D01*
X292165Y29790D01*
G02X292862Y31167I1898J-96D01*
G01Y31995D01*
X295264D01*
Y31167D01*
G02X295784Y30500I-1201J-1473D01*
G01X296279D01*
G02X296799Y31167I1721J-806D01*
G01Y31995D01*
X303138D01*
Y31167D01*
G02X303799Y30072I-1201J-1473D01*
G01X303811Y30013D01*
X303924Y29900D01*
X305513D01*
X306513Y30900D01*
X307300D01*
Y32700D01*
G02X307571Y33679I1900J0D01*
G01X307600Y33726D01*
Y34300D01*
X308174D01*
X308221Y34329D01*
G02X309200Y34600I979J-1629D01*
G37*
G36*
G01X374213Y9100D02*
X371500D01*
G02X370521Y9371I0J1900D01*
G01X370474Y9400D01*
X369900D01*
Y9974D01*
X369871Y10021D01*
G02Y11979I1629J979D01*
G01X369900Y12026D01*
Y12600D01*
X370474D01*
X370521Y12629D01*
G02X371500Y12900I979J-1629D01*
G01X373100D01*
Y15087D01*
X374100Y16087D01*
Y19213D01*
X373528Y19785D01*
G02X373474Y19816I925J1660D01*
G01X373426Y19845D01*
X373203D01*
Y20011D01*
X373141Y20070D01*
G02Y22819I1312J1375D01*
G01X373203Y22878D01*
Y23045D01*
X373426D01*
X373474Y23074D01*
G02X374453Y23345I979J-1629D01*
G01X375342D01*
X375642Y23045D01*
X375703D01*
Y22984D01*
X377900Y20787D01*
Y14513D01*
X376900Y13513D01*
Y12800D01*
X378600D01*
G02X379579Y12529I0J-1900D01*
G01X379626Y12500D01*
X380200D01*
Y11926D01*
X380229Y11879D01*
G02Y9921I-1629J-979D01*
G01X380200Y9874D01*
Y9300D01*
X379626D01*
X379579Y9271D01*
G02X378626Y9000I-979J1629D01*
G03X378625Y8600I3J-200D01*
G02X379144Y8511I-25J-1700D01*
G01X379175Y8500D01*
X380200D01*
Y7475D01*
X380211Y7444D01*
G02Y6356I-1611J-544D01*
G01X380200Y6325D01*
Y5300D01*
X379175D01*
X379144Y5289D01*
G02X378056I-544J1611D01*
G01X378025Y5300D01*
X377182D01*
G03X376783Y4884I0J-400D01*
G01X376799Y4465D01*
G02X373401Y4335I-1699J-65D01*
G01X373301Y6935D01*
G02X373389Y7544I1699J65D01*
G01X373400Y7575D01*
Y8600D01*
X374230D01*
G03X374371Y8942I0J200D01*
G01X374213Y9100D01*
G37*
G36*
G01X166700Y60200D02*
Y61102D01*
X167863Y62265D01*
G02X169928Y62679I1344J-1344D01*
G03X170476Y63107I152J370D01*
G02X172476Y65278I1880J274D01*
G03X172901Y65660I25J399D01*
G02X175624Y66468I1499J-61D01*
G03X176276I326J231D01*
G02Y64732I1224J-868D01*
G03X175624I-326J-231D01*
G02X175611Y64715I-1224J867D01*
G03X175633Y64454I162J-118D01*
G02X174627Y61228I-1333J-1354D01*
G03X174296Y60806I69J-394D01*
G02X171513Y59929I-1496J-106D01*
G03X170828Y59932I-343J-206D01*
G02X170550Y59578I-1622J990D01*
G01X170276Y59303D01*
X170262Y59279D01*
G02X166700Y60200I-1662J921D01*
G37*
G36*
G01X159922Y74850D02*
G02X157137Y74853I-1392J560D01*
G03X156474Y74978I-371J-149D01*
G02X156771Y76560I-1096J1025D01*
G03X157434Y76435I371J149D01*
G02X159623Y76438I1096J-1025D01*
G03X160285Y76562I291J274D01*
G02X163046Y76618I1392J-560D01*
G03X163711Y76518I365J164D01*
G02X165955Y76534I1129J-988D01*
G03X166615Y76633I297J268D01*
G02X166861Y74999I1361J-631D01*
G03X166201Y74899I-297J-268D01*
G02X163472Y74915I-1361J631D01*
G03X162806Y75014I-365J-164D01*
G02X160584Y74975I-1129J988D01*
G03X159922Y74850I-291J-274D01*
G37*
G36*
G01X188354Y78423D02*
G02X186240Y78830I-1254J-823D01*
G03X186346Y79377I-229J328D01*
G02X186125Y80472I1254J823D01*
G03X185568Y80910I-393J73D01*
G02X186430Y82007I-614J1369D01*
G03X186986Y81569I393J-73D01*
G02X188460Y78970I614J-1369D01*
G03X188354Y78423I229J-328D01*
G37*
G36*
G01X449601Y82395D02*
G02X446978Y80342I-1101J-1295D01*
G03X446312Y80418I-358J-178D01*
G02X446522Y82258I-1312J1082D01*
G03X447188Y82182I358J178D01*
G02X447399Y82395I1311J-1082D01*
G03Y83005I-259J305D01*
G02X446822Y84024I1101J1295D01*
G03X446156Y84253I-395J-65D01*
G02X444258Y83970I-1156J1247D01*
G03X443706Y83742I-174J-360D01*
G02X441974Y82604I-1606J558D01*
G03X441763Y82447I-15J-199D01*
G02X439952Y81106I-1663J353D01*
G03X439742Y80959I-17J-199D01*
G02X438248Y83094I-1642J441D01*
G03X438458Y83241I17J199D01*
G02X440226Y84496I1642J-441D01*
G03X440437Y84653I15J199D01*
G02X442842Y85830I1663J-353D01*
G03X443394Y86058I174J360D01*
G02X446678Y85776I1606J-558D01*
G03X447344Y85547I395J65D01*
G02X449601Y83005I1156J-1247D01*
G03Y82395I259J-305D01*
G37*
G36*
G01X449340Y98317D02*
G02X446856Y96189I-940J-1417D01*
G03X446208Y96304I-363J-167D01*
G02X446544Y98211I-1208J1197D01*
G03X447192Y98097I363J167D01*
G02X447460Y98317I1208J-1196D01*
G03Y98983I-221J333D01*
G02X449340I940J1417D01*
G03Y98317I221J-333D01*
G37*
G36*
G01X450440Y111417D02*
G02X448560I-940J-1417D01*
G03Y112083I-221J333D01*
G02X450440I940J1417D01*
G03Y111417I221J-333D01*
G37*
G36*
G01X206706Y129624D02*
G02X206481Y130818I-1352J363D01*
G03X207086Y130772I322J237D01*
G01X208868Y132554D01*
X210989Y130432D01*
X210686Y130129D01*
X210690Y130042D01*
G02X209236Y128588I-1399J-54D01*
G01X209149Y128592D01*
X208868Y128311D01*
X207375Y129803D01*
G03X206706Y129624I-283J-283D01*
G37*
G36*
G01X194879Y129571D02*
G02X194568Y130941I-1337J417D01*
G03X195144Y130930I293J272D01*
G01X196537Y132323D01*
G03X196526Y132899I-283J283D01*
G02X197480Y132524I953J1026D01*
G03X197339Y132183I0J-200D01*
G01X198989Y130532D01*
X198830Y130373D01*
X198851Y130267D01*
G02X197200Y128616I-1372J-280D01*
G01X197094Y128637D01*
X196868Y128411D01*
X195544Y129734D01*
G03X194879Y129571I-283J-283D01*
G37*
G36*
G01X186158Y135236D02*
G02X184700Y134936I-490J-1312D01*
G03X184706Y135508I-277J289D01*
G01X183315Y136899D01*
G03X182743Y136893I-283J-283D01*
G02X183108Y138116I-1011J968D01*
G03X183785Y137906I393J73D01*
G01X184480Y138602D01*
G02X184928Y139050I1189J-740D01*
G01X185168Y139289D01*
X185254Y139203D01*
X185361Y139228D01*
G02X187035Y137554I307J-1366D01*
G01X187010Y137447D01*
X187289Y137168D01*
X186015Y135894D01*
G03X186158Y135236I283J-283D01*
G37*
G36*
G01X414950Y143304D02*
Y144900D01*
X414900D01*
Y151600D01*
X414950D01*
Y152100D01*
X414900D01*
Y155100D01*
X414950D01*
Y156702D01*
X414944Y156726D01*
G02Y157474I1556J374D01*
G01X414950Y157498D01*
Y158696D01*
G02X418206Y158434I2050J5104D01*
G01X418050Y158399D01*
Y157498D01*
X418056Y157474D01*
G02Y156726I-1556J-374D01*
G01X418050Y156702D01*
Y155100D01*
X418100D01*
Y151900D01*
X418050D01*
Y151400D01*
X418100D01*
Y144900D01*
X418050D01*
Y143601D01*
X418206Y143566D01*
G02X414950Y143304I-1206J-5366D01*
G37*
G36*
G01X215848Y153075D02*
X230338D01*
G03X230620Y153758I0J400D01*
G01X230246Y154132D01*
X232017Y155903D01*
G03X231996Y156488I-283J283D01*
G02X233276Y156194I917J1058D01*
G03X233097Y155525I104J-386D01*
G01X234489Y154132D01*
X234281Y153924D01*
X234296Y153823D01*
G02X234309Y153505I-1384J-214D01*
G03X234708Y153075I399J-30D01*
G01X235223D01*
X235251Y153084D01*
G02X235700Y153150I449J-1484D01*
G01X236100D01*
Y153200D01*
X239300D01*
Y150000D01*
X236100D01*
Y150050D01*
X235700D01*
G02X235251Y150116I0J1550D01*
G01X235223Y150125D01*
X218700D01*
Y148100D01*
X215700D01*
Y150125D01*
X214626D01*
X212184Y152566D01*
G02X214271Y154653I1043J1043D01*
G01X215848Y153075D01*
G37*
G36*
G01X226063Y164466D02*
G02X224700Y164062I-1024J955D01*
G01Y163900D01*
X221700D01*
Y166900D01*
X224700D01*
Y166779D01*
G02X226409Y165706I338J-1359D01*
G03X227084Y165505I392J82D01*
G01X227928Y166350D01*
X227932Y166354D01*
G02X228042Y166464I1043J-934D01*
G01X228046Y166468D01*
X228468Y166889D01*
X228587Y166770D01*
X228693Y166792D01*
G02X230038Y166333I283J-1371D01*
G03X230624Y166310I303J261D01*
G01X232368Y168054D01*
X234489Y165932D01*
X234283Y165726D01*
X234298Y165626D01*
G02X232707Y164036I-1385J-206D01*
G01X232608Y164050D01*
X232368Y163811D01*
X230573Y165606D01*
X230378Y165411D01*
X230373Y165335D01*
G02X230347Y165138I-1398J86D01*
G01X230325Y165032D01*
X230589Y164768D01*
X228468Y162646D01*
X226638Y164476D01*
G03X226063Y164466I-283J-283D01*
G37*
G36*
G01X389666Y171441D02*
G02X388254Y172399I-1466J-641D01*
G03X388634Y172959I13J400D01*
G02X390276Y175190I1466J641D01*
G03X390676Y175770I44J398D01*
G02X391924Y174910I1424J730D01*
G03X391524Y174330I-44J-398D01*
G02X390046Y172001I-1424J-730D01*
G03X389666Y171441I-13J-400D01*
G37*
G36*
G01X164584Y185081D02*
X164582Y185162D01*
X162796Y186948D01*
X164352Y188504D01*
X164416Y188440D01*
X164633Y188658D01*
X164611Y188763D01*
G02X166128Y187650I1372J279D01*
G03X165887Y186969I41J-398D01*
G01X166419Y186437D01*
X166461Y186422D01*
G02X167300Y185583I-477J-1316D01*
G01X167315Y185541D01*
X167604Y185252D01*
X167384Y185031D01*
X167376Y184960D01*
G02X166129Y183713I-1393J145D01*
G01X166058Y183706D01*
X166048Y183696D01*
X166040Y183704D01*
X165959Y183706D01*
G02X164584Y185081I24J1400D01*
G37*
G36*
G01X292541Y192714D02*
X292612Y192846D01*
X277815Y207643D01*
Y225543D01*
X264443Y238915D01*
X258243D01*
X253597Y243561D01*
Y245322D01*
X249408D01*
Y248235D01*
G02X249314Y248324I1050J1187D01*
G03X248714Y248297I-289J-277D01*
G02X248358Y247960I-1405J1125D01*
G01Y245322D01*
X246258D01*
Y247960D01*
G02X245508Y249422I1050J1462D01*
G01Y251946D01*
X244827Y252627D01*
G02X247373Y255173I1273J1273D01*
G01X248626Y253920D01*
X248873Y254022D01*
Y254115D01*
X249215Y254457D01*
Y255243D01*
X248615Y255843D01*
Y257300D01*
X248600D01*
Y260500D01*
X252200D01*
Y260868D01*
X252129Y260927D01*
G02X251770Y261300I1671J1973D01*
G01X248600D01*
Y262715D01*
X232229D01*
X227815Y267129D01*
Y280871D01*
X232229Y285285D01*
X244573D01*
G02X244385Y280115I5427J-2785D01*
G01X234371D01*
X232985Y278729D01*
Y269271D01*
X234371Y267885D01*
X254071D01*
X256500Y265456D01*
X259429Y268385D01*
X263729D01*
X270672Y275328D01*
X272600D01*
Y276185D01*
G02X273357Y278013I2585J0D01*
G01X280429Y285085D01*
X300475D01*
G02Y279915I5525J-2585D01*
G01X282571D01*
X278016Y275360D01*
X278048Y275247D01*
G02X278148Y274535I-2485J-712D01*
G01Y273263D01*
G02X277391Y271435I-2585J0D01*
G01X276492Y270536D01*
G02X274664Y269779I-1828J1828D01*
G01X272435D01*
X268824Y266168D01*
G03X269107Y265485I283J-283D01*
G01X269471D01*
X284571Y250385D01*
X290871D01*
X302585Y238671D01*
Y233025D01*
G02X297415I-2585J-5525D01*
G01Y236529D01*
X288729Y245215D01*
X283268D01*
G03X282894Y244672I0J-400D01*
G02X282883Y243499I-1495J-572D01*
G03X283163Y242958I371J-150D01*
G02X281317Y242001I-363J-1559D01*
G03X281037Y242542I-371J150D01*
G02X281092Y245670I363J1558D01*
G03X281298Y246346I-77J393D01*
G01X281157Y246488D01*
G03X280539Y246424I-283J-283D01*
G02X277606Y247436I-1339J876D01*
G03X277046Y247836I-399J34D01*
G02X274810Y249485I-646J1464D01*
G03X274271Y249905I-397J46D01*
G02X273683Y253000I-571J1495D01*
G03X273961Y253683I-4J400D01*
G01X267329Y260315D01*
X263100D01*
Y257300D01*
X262142D01*
X258342Y253500D01*
Y249422D01*
G02X257807Y248235I-1585J0D01*
G01Y245322D01*
X256767D01*
Y244874D01*
X259557Y242085D01*
X265757D01*
X280985Y226857D01*
Y208957D01*
X294854Y195088D01*
X294986Y195159D01*
G02X292541Y192714I2914J-5359D01*
G37*
G36*
G01X248024Y206250D02*
X247895D01*
G03X247496Y205820I0J-400D01*
G02X244387Y205180I-1596J-120D01*
G03X243725Y205333I-378J-130D01*
G01X243377Y204985D01*
X243365Y204965D01*
G02X241165Y207165I-1365J835D01*
G01X241185Y207177D01*
X243358Y209350D01*
X249200D01*
Y209400D01*
X249250D01*
Y209900D01*
X249200D01*
Y212900D01*
X252400D01*
Y209700D01*
X252350D01*
Y209200D01*
X252400D01*
Y206200D01*
X251020D01*
G03X250716Y205540I0J-400D01*
G02X248319Y205580I-1216J-1040D01*
G03X248024Y206250I-295J270D01*
G37*
G36*
G01X262704Y206235D02*
X262680Y206241D01*
X260222D01*
Y206250D01*
X256400D01*
Y206200D01*
X253200D01*
Y212900D01*
X256400D01*
Y209350D01*
X263655D01*
X263764Y209241D01*
X265922D01*
Y206241D01*
X263463D01*
X263440Y206235D01*
G02X262704I-368J1506D01*
G37*
G36*
G01X194605Y227501D02*
G02X194897Y228769I-1062J912D01*
G03X195566Y228588I387J102D01*
G01X196968Y229989D01*
X197174Y229783D01*
X197274Y229798D01*
G02X198864Y228207I206J-1385D01*
G01X198850Y228108D01*
X199089Y227868D01*
X196968Y225746D01*
X195191Y227523D01*
G03X194605Y227501I-283J-283D01*
G37*
G36*
G01X378059Y343958D02*
G02X377999Y343437I-2300J0D01*
G03X378671Y343063I390J-91D01*
G01X380050Y344442D01*
Y362305D01*
G03X379659Y362705I-400J0D01*
G02Y365905I36J1600D01*
G03X380050Y366304I-9J400D01*
G01Y368042D01*
X380287Y368279D01*
G02X383163Y366904I1377J-816D01*
G01X383150Y366870D01*
Y343158D01*
X374250Y334258D01*
Y305458D01*
X371750Y302958D01*
Y296608D01*
G03X372433Y296325I400J0D01*
G01X378305Y302198D01*
G02X381251Y301030I1390J-793D01*
G01X381246Y301007D01*
Y300753D01*
X381058Y300565D01*
G02X380535Y300042I-1362J839D01*
G01X378605Y298113D01*
G03X378631Y297524I283J-283D01*
G02X378435Y294935I-1031J-1224D01*
G01X378415Y294923D01*
X376250Y292758D01*
Y286158D01*
X373342Y283250D01*
X372998D01*
X372974Y283244D01*
G02X372240Y283241I-374J1556D01*
G03X371750Y282851I-90J-390D01*
G01Y280842D01*
X383950Y268642D01*
Y231098D01*
X383956Y231074D01*
G02X383991Y230871I-1556J-374D01*
G03X384389Y230875I199J21D01*
G02X385473Y233410I4384J-375D01*
G01Y245140D01*
X386538Y246205D01*
X386517Y246310D01*
G02X392475Y241400I5983J1190D01*
G03X392074Y241000I-2J-400D01*
G01Y233410D01*
G02X384454Y229662I-3300J-2910D01*
G03X383729Y229808I-393J-76D01*
G02X380844Y231074I-1329J892D01*
G01X380850Y231098D01*
Y267358D01*
X368650Y279558D01*
Y304242D01*
X371150Y306742D01*
Y335542D01*
X376653Y341046D01*
G03X376280Y341718I-283J283D01*
G02X373458Y343958I-521J2240D01*
G01Y345293D01*
X373300Y345451D01*
Y349700D01*
G02X373438Y350485I2300J0D01*
G01X373450Y350518D01*
Y351800D01*
X374662D01*
G02X376538I938J-2100D01*
G01X377750D01*
Y350518D01*
X377762Y350485D01*
G02X377900Y349700I-2162J-785D01*
G01Y347085D01*
X377913Y347051D01*
G02X378059Y346246I-2155J-805D01*
G01Y343958D01*
G37*
G36*
G01X269458Y255018D02*
G02X268621Y253862I742J-1418D01*
G03X268042Y254282I-395J65D01*
G02X268879Y255438I-742J1418D01*
G03X269458Y255018I395J-65D01*
G37*
G36*
G01X440840Y277417D02*
G02X438960I-940J-1417D01*
G03Y278083I-221J333D01*
G02X440840I940J1417D01*
G03Y277417I221J-333D01*
G37*
G36*
G01X359489Y299925D02*
G02X358170Y300837I-1447J-683D01*
G03X358563Y301406I32J399D01*
G02X359882Y300495I1447J683D01*
G03X359489Y299925I-32J-399D01*
G37*
G36*
G01X382750Y307800D02*
Y311285D01*
G03X382213Y311661I-400J0D01*
G02X380510Y314273I-549J1503D01*
G03X380222Y314950I-288J277D01*
G01X375500D01*
Y322450D01*
X381900D01*
Y314754D01*
X382052Y314716D01*
G02X383143Y312553I-388J-1552D01*
G03X383512Y312000I370J-153D01*
G01X387050D01*
Y307800D01*
X382750D01*
G37*
G36*
G01X89705Y331500D02*
X89328D01*
X79000Y321172D01*
Y312300D01*
X47000D01*
Y328128D01*
X48000Y329128D01*
Y331900D01*
G02X47021Y332171I0J1900D01*
G01X46974Y332200D01*
X46575D01*
X46500Y331975D01*
Y312800D01*
X35000D01*
Y328252D01*
X35564Y329437D01*
G03X34921Y329892I-361J172D01*
G01X34828Y329800D01*
X25000D01*
Y342300D01*
X35172D01*
X38672Y345800D01*
X46000D01*
Y344588D01*
X46135Y344541D01*
G02X46500Y344370I-619J-1796D01*
G02X48469I984J-1625D01*
G02X50431Y344374I984J-1625D01*
G01X50479Y344345D01*
X50703D01*
Y344178D01*
X50765Y344119D01*
G02X51033Y343800I-1312J-1374D01*
G01X54328D01*
X55217Y342912D01*
G03X55900Y343195I283J283D01*
G01Y343900D01*
X59100D01*
Y341300D01*
X73972D01*
X83172Y350500D01*
X98500D01*
Y331300D01*
X101000D01*
Y312800D01*
X83500D01*
Y324328D01*
X89988Y330817D01*
G03X89705Y331500I-283J283D01*
G37*
G36*
G01X335920Y321798D02*
G02X334400Y320202I80J-1598D01*
G03X333980Y320602I-400J1D01*
G02X333202Y323640I-80J1598D01*
G03Y324360I-174J360D01*
G02X334598I698J1440D01*
G03Y323640I174J-360D01*
G02X335500Y322198I-698J-1440D01*
G03X335920Y321798I400J-1D01*
G37*
G36*
G01X350254Y338790D02*
X352310D01*
G02Y334190I0J-2300D01*
G01X351207D01*
X351017Y334000D01*
X350145D01*
Y333603D01*
X350341Y333600D01*
G02X351889Y329637I-41J-2300D01*
G03X352165Y328947I276J-289D01*
G01X352653D01*
G02Y324347I0J-2300D01*
G01X351600D01*
X350753Y323500D01*
X346700D01*
G02X345915Y323638I0J2300D01*
G01X345882Y323650D01*
X344600D01*
Y324862D01*
G02Y326738I2100J938D01*
G01Y327950D01*
X345882D01*
X345915Y327962D01*
G02X346700Y328100I785J-2162D01*
G01X348847D01*
X349021Y328274D01*
G02X349058Y328311I1628J-1625D01*
G03X348782Y329000I-276J289D01*
G01X346700D01*
G02X345915Y329138I0J2300D01*
G01X345882Y329150D01*
X344600D01*
Y330362D01*
G02Y332238I2100J938D01*
G01Y333450D01*
X345882D01*
X345915Y333462D01*
G02X346671Y333600I785J-2162D01*
G03Y334000I-2J200D01*
G02X345915Y334138I29J2300D01*
G01X345882Y334150D01*
X344600D01*
Y335362D01*
G02Y337238I2100J938D01*
G01Y338450D01*
X345882D01*
X345915Y338462D01*
G02X346700Y338600I785J-2162D01*
G01X349339D01*
X349375Y338615D01*
G02X350254Y338790I879J-2126D01*
G37*
G36*
G01X332440Y332259D02*
G02X331202Y330623I360J-1559D01*
G03X330712Y330994I-400J-19D01*
G02X328753Y332585I-360J1559D01*
G03X328247Y332979I-400J8D01*
G02X329421Y334489I-425J1543D01*
G03X329927Y334095I400J-8D01*
G02X331951Y332630I425J-1543D01*
G03X332440Y332259I400J19D01*
G37*
G36*
G01X250279Y350361D02*
G02X248961Y351679I-1579J-261D01*
G03X249421Y352139I65J395D01*
G02X250165Y353765I1579J261D01*
G01X250185Y353777D01*
X250858Y354450D01*
X253900D01*
Y354500D01*
X257100D01*
Y354450D01*
X257900D01*
Y354500D01*
X261100D01*
Y351300D01*
X257900D01*
Y351350D01*
X257100D01*
Y351300D01*
X253900D01*
Y351350D01*
X252207D01*
G02X250739Y350821I-1207J1050D01*
G03X250279Y350361I-65J-395D01*
G37*
G36*
G01X345100Y244587D02*
X346320Y245808D01*
Y246397D01*
G02X347020Y247870I1900J0D01*
G01Y248720D01*
X342347D01*
Y251121D01*
X347047D01*
Y248747D01*
X357268D01*
Y258995D01*
X358145D01*
G02X359618Y259695I1473J-1200D01*
G01X360507D01*
X367400Y266587D01*
Y267100D01*
X367974D01*
X368021Y267129D01*
G02X369979I979J-1629D01*
G01X370026Y267100D01*
X370600D01*
Y266526D01*
X370629Y266479D01*
G02Y264521I-1629J-979D01*
G01X370600Y264474D01*
Y263900D01*
X370087D01*
X370020Y263833D01*
G03X370303Y263150I283J-283D01*
G01X372000D01*
Y258850D01*
X370437D01*
X370079Y258492D01*
G03X370220Y258150I141J-141D01*
G01X372000D01*
Y253850D01*
X370437D01*
X370087Y253500D01*
X370437Y253150D01*
X372000D01*
Y248850D01*
X370303D01*
G03X370020Y248167I0J-400D01*
G01X370087Y248100D01*
X370600D01*
Y247526D01*
X370629Y247479D01*
G02Y245521I-1629J-979D01*
G01X370600Y245474D01*
Y244900D01*
X370026D01*
X369979Y244871D01*
G02X368021I-979J1629D01*
G01X367974Y244900D01*
X367400D01*
Y245413D01*
X364792Y248020D01*
X359618D01*
G02X358145Y248720I0J1900D01*
G01X357295D01*
Y247870D01*
G02X357995Y246397I-1200J-1473D01*
G01Y245793D01*
X360000Y243787D01*
Y237400D01*
G02X359729Y236421I-1900J0D01*
G01X359700Y236374D01*
Y235800D01*
X359126D01*
X359079Y235771D01*
G02X357121I-979J1629D01*
G01X357074Y235800D01*
X356500D01*
Y236374D01*
X356471Y236421D01*
G02X356381Y236590I1629J979D01*
G03X356019I-181J-85D01*
G02X355929Y236421I-1719J810D01*
G01X355900Y236374D01*
Y235800D01*
X355326D01*
X355279Y235771D01*
G02X354326Y235500I-979J1629D01*
G03X354300Y235498I3J-200D01*
G03X354274Y235500I-28J-198D01*
G02X353321Y235771I25J1900D01*
G01X353274Y235800D01*
X352700D01*
Y236313D01*
X352304Y236708D01*
X352145Y236549D01*
X352133Y236528D01*
G02X352129Y236521I-1636J967D01*
G01X352100Y236474D01*
Y235900D01*
X351526D01*
X351479Y235871D01*
G02X350526Y235600I-979J1629D01*
G03X350520Y235600I4J-200D01*
G01X347000D01*
G02X346021Y235871I0J1900D01*
G01X345974Y235900D01*
X345400D01*
Y236474D01*
X345371Y236521D01*
G02X345100Y237500I1629J979D01*
G01Y244587D01*
G37*
G36*
G01X349956Y231889D02*
X349925Y231900D01*
X348900D01*
Y232925D01*
X348889Y232956D01*
G02Y234044I1611J544D01*
G01X348900Y234075D01*
Y235100D01*
X349925D01*
X349956Y235111D01*
G02X350465Y235200I544J-1611D01*
G01X350510Y235201D01*
G03X350525Y235200I18J199D01*
G02X351044Y235111I-25J-1700D01*
G01X351075Y235100D01*
X352100D01*
Y234075D01*
X352111Y234044D01*
G02Y232956I-1611J-544D01*
G01X352100Y232925D01*
Y231900D01*
X351075D01*
X351044Y231889D01*
G02X349956I-544J1611D01*
G37*
G36*
G01X353756Y231789D02*
X353725Y231800D01*
X352700D01*
Y232825D01*
X352689Y232856D01*
G02Y233944I1611J544D01*
G01X352700Y233975D01*
Y235000D01*
X353725D01*
X353756Y235011D01*
G02X354275Y235100I544J-1611D01*
G03X354300Y235102I-3J200D01*
G03X354325Y235100I28J198D01*
G02X354844Y235011I-25J-1700D01*
G01X354875Y235000D01*
X355900D01*
Y233975D01*
X355911Y233944D01*
G02Y232856I-1611J-544D01*
G01X355900Y232825D01*
Y231800D01*
X354875D01*
X354844Y231789D01*
G02X353756I-544J1611D01*
G37*
G36*
G01X69300Y199400D02*
X70354D01*
X72734Y201780D01*
G03X72451Y202463I-283J283D01*
G01X60745D01*
X60497Y202711D01*
X60476Y202723D01*
G02X59775Y203644I835J1365D01*
G03X59108Y203815I-384J-111D01*
G01X58242Y202950D01*
X47462D01*
G03X47149Y202300I0J-400D01*
G02X44651I-1249J-1000D01*
G03X44338Y202950I-312J250D01*
G01X37462D01*
G03X37149Y202300I0J-400D01*
G02X34651I-1249J-1000D01*
G03X34338Y202950I-312J250D01*
G01X19158D01*
X17550Y204558D01*
Y204738D01*
G03X16900Y205051I-400J0D01*
G02X15145Y204889I-1000J1249D01*
G03X14850Y204713I-94J-176D01*
G01Y204542D01*
X16715Y202677D01*
X16735Y202665D01*
G02X14535Y200465I-835J-1365D01*
G01X14523Y200485D01*
X11750Y203258D01*
Y212942D01*
X18858Y220050D01*
X19089D01*
G03X19451Y220620I0J400D01*
G02X22349I1449J680D01*
G03X22711Y220050I362J-170D01*
G01X44089D01*
G03X44451Y220620I0J400D01*
G02X47349I1449J680D01*
G03X47711Y220050I362J-170D01*
G01X68442D01*
X71830Y216662D01*
X77108D01*
G02X78248Y216162I0J-1550D01*
G01X81208D01*
Y203038D01*
X78250D01*
X78173Y202961D01*
G03X78210Y202362I283J-283D01*
G02X78570Y201989I-1103J-1423D01*
G01X81208D01*
Y199888D01*
X78570D01*
G02X77108Y199138I-1462J1050D01*
G01X75184D01*
X71846Y195800D01*
X69300D01*
G02X68515Y195980I0J1800D01*
G01X68474Y196000D01*
X67700D01*
Y196774D01*
X67680Y196815D01*
G02Y198385I1620J785D01*
G01X67700Y198426D01*
Y199200D01*
X68474D01*
X68515Y199220D01*
G02X69300Y199400I785J-1620D01*
G37*
G36*
G01X397172Y223000D02*
X425010D01*
G03X425408Y223440I0J400D01*
G02X428592I1592J160D01*
G03X428990Y223000I398J-40D01*
G01X445000D01*
Y214364D01*
X448418D01*
Y210499D01*
X448419Y210489D01*
G02X446138Y209498I-1301J-126D01*
G03X445539I-300J-265D01*
G02X445115Y209181I-980J865D01*
G01X445000Y209127D01*
Y207500D01*
X436000D01*
Y203500D01*
X434318D01*
G02X434002Y203079I-1181J559D01*
G03Y202480I265J-300D01*
G02Y200520I-865J-980D01*
G03Y199921I265J-300D01*
G02X434424Y199166I-865J-980D01*
G01X434453Y199000D01*
X436000D01*
Y195500D01*
X439500D01*
Y193953D01*
X439666Y193924D01*
G02X440421Y193502I-225J-1288D01*
G03X441020I300J265D01*
G02X442980I980J-865D01*
G03X443579I300J265D01*
G02X445539Y193502I980J-865D01*
G03X446138I300J265D01*
G02X448276Y193244I980J-865D01*
G01X448332Y193136D01*
X462049D01*
X462712Y193799D01*
G03X462429Y194482I-283J283D01*
G01X452264D01*
G02X450884Y195075I0J1900D01*
G02X449998Y197362I-21J1307D01*
G03Y197961I-265J300D01*
G02X449998Y199921I865J980D01*
G03Y200520I-265J300D01*
G02X450884Y202807I865J980D01*
G02X452264Y203400I1379J-1307D01*
G01X457513D01*
X466756Y212644D01*
G02X469444Y209956I1344J-1344D01*
G01X468274Y208787D01*
G03X468443Y208121I283J-283D01*
G02X469244Y204956I-543J-1821D01*
G01X468116Y203828D01*
G03X468312Y203155I283J-283D01*
G02X469244Y199956I-412J-1855D01*
G01X468116Y198828D01*
G03X468312Y198155I283J-283D01*
G02X469244Y194956I-412J-1855D01*
G01X463623Y189336D01*
X448418D01*
Y188636D01*
X446459D01*
Y187928D01*
X447987Y186400D01*
X454387D01*
X457500Y183287D01*
Y179400D01*
G02X457229Y178421I-1900J0D01*
G01X457200Y178374D01*
Y177800D01*
X456626D01*
X456579Y177771D01*
G02X454575Y177800I-979J1629D01*
G01X453125D01*
G02X452100Y177500I-1025J1600D01*
G01X444580D01*
G03X444574Y177500I-10J-200D01*
G02X443621Y177771I25J1900D01*
G01X443574Y177800D01*
X443000D01*
Y178313D01*
X442792Y178521D01*
G03X442450Y178380I-141J-141D01*
G01Y176400D01*
X438150D01*
Y177963D01*
X437541Y178572D01*
Y185646D01*
G03X436858Y185929I-400J0D01*
G01X434800Y183872D01*
Y179972D01*
X430828Y176000D01*
X414700D01*
Y185528D01*
X428172Y199000D01*
X429136D01*
Y203500D01*
X385172D01*
X381500Y207172D01*
Y213828D01*
X384672Y217000D01*
X385108D01*
G03X385414Y217659I0J400D01*
G02X393143Y219982I3360J2841D01*
G03X393823Y219652I397J-47D01*
G01X397172Y223000D01*
G37*
G36*
G01X442900Y173200D02*
Y175400D01*
G02X442989Y175944I1700J0D01*
G01X443000Y175975D01*
Y177000D01*
X444025D01*
X444056Y177011D01*
G02X444575Y177100I544J-1611D01*
G03X444590Y177101I-4J200D01*
G01X444635Y177100D01*
G02X445144Y177011I-35J-1700D01*
G01X445175Y177000D01*
X446200D01*
Y175975D01*
X446211Y175944D01*
G02X446300Y175400I-1611J-544D01*
G01Y173200D01*
G02X442900I-1700J0D01*
G37*
G36*
G01X235953Y216150D02*
X235700D01*
G02X235251Y216216I0J1550D01*
G01X235223Y216225D01*
X234622D01*
X233956Y215558D01*
G02X232726Y215138I-1043J1043D01*
G03X232275Y214742I-51J-397D01*
G01Y213878D01*
X230019Y211622D01*
G02X227932Y213708I-1043J1043D01*
G01X229325Y215100D01*
Y217411D01*
X230056Y218142D01*
G03X229773Y218825I-283J283D01*
G01X229348D01*
X226082Y215558D01*
G02X223996Y217645I-1043J1043D01*
G01X224804Y218453D01*
G03X224632Y219121I-283J283D01*
G02X223996Y221582I407J1418D01*
G01X226089Y223675D01*
X231500D01*
Y226000D01*
X234500D01*
Y223675D01*
X234883D01*
X241950Y230742D01*
Y231600D01*
X239000D01*
Y234800D01*
X242200D01*
Y234758D01*
G03X242883Y234475I400J0D01*
G01X244958Y236550D01*
X253642D01*
X255158Y235035D01*
Y234538D01*
X257807D01*
Y231578D01*
G02X258307Y230438I-1050J-1140D01*
G01Y225748D01*
X258191Y225632D01*
X258307Y225515D01*
Y217915D01*
X256542Y216150D01*
X252400D01*
Y213500D01*
X249200D01*
Y213550D01*
X244190D01*
X237820Y207181D01*
G03X238123Y206498I283J-283D01*
G02X236796Y205668I77J-1598D01*
G03X236516Y205934I-175J96D01*
G02X236432Y205886I-815J1319D01*
G01X236406Y205872D01*
X235658Y205125D01*
X226600D01*
Y203200D01*
X224369D01*
G03X224228Y202858I0J-200D01*
G01X224475Y202611D01*
Y200811D01*
X226514Y198772D01*
Y196916D01*
G02X226513Y196884I-1475J2D01*
G03X226913Y196475I400J-9D01*
G01X235083D01*
X240900Y202292D01*
Y203300D01*
X244100D01*
Y200100D01*
X243092D01*
X241975Y198983D01*
G03X242258Y198300I283J-283D01*
G01X250000D01*
Y188100D01*
X240800D01*
Y196842D01*
G03X240117Y197125I-400J0D01*
G01X236442Y193450D01*
X235700D01*
G02X235251Y193516I0J1550D01*
G01X235223Y193525D01*
X234782D01*
G03X234383Y193094I0J-400D01*
G02X233956Y191936I-1471J-114D01*
G01X231844Y189825D01*
X230735D01*
G03X230344Y189340I0J-400D01*
G02X227607I-1368J-297D01*
G03X227217Y189825I-391J85D01*
G01X226798D01*
G03X226407Y189340I0J-400D01*
G02X223724Y189525I-1368J-297D01*
G01X223768Y189645D01*
X221868Y191546D01*
X220568Y190246D01*
X218446Y192368D01*
X218820Y192742D01*
G03X218538Y193425I-283J283D01*
G01X216811D01*
X216775Y193389D01*
Y191789D01*
X214538Y189551D01*
X214571Y189437D01*
G02X211835Y189184I-1343J-395D01*
G03X211437Y189625I-398J41D01*
G01X206900D01*
Y187500D01*
X203900D01*
Y189625D01*
X199589D01*
X199342Y189872D01*
G03X199000Y189731I-141J-141D01*
G01Y187600D01*
X196000D01*
Y190600D01*
X197648D01*
G03X197931Y191283I0J400D01*
G01X197714Y191500D01*
X196100D01*
Y192740D01*
X196097Y192756D01*
G02X196080Y193015I1382J223D01*
G03X195680Y193425I-400J10D01*
G01X195100D01*
Y191300D01*
X192100D01*
Y193425D01*
X191405D01*
G03X191005Y193015I0J-400D01*
G02X188206I-1400J-35D01*
G03X187806Y193425I-400J10D01*
G01X187468D01*
G03X187068Y193015I0J-400D01*
G02X184269I-1400J-35D01*
G03X183869Y193425I-400J10D01*
G01X183200D01*
Y191500D01*
X180200D01*
Y193425D01*
X179300D01*
Y191500D01*
X176300D01*
Y193425D01*
X171400D01*
Y191500D01*
X168400D01*
Y193501D01*
X166850Y195051D01*
Y195064D01*
X166125Y195789D01*
Y197189D01*
X165789Y197525D01*
X140212D01*
G03X139815Y197079I0J-400D01*
G02X137034I-1391J-162D01*
G03X136636Y197525I-397J46D01*
G01X136276D01*
G03X135878Y197079I0J-400D01*
G02X133097I-1391J-162D01*
G03X132699Y197525I-397J46D01*
G01X132477D01*
X132449Y197516D01*
G02X132000Y197450I-449J1484D01*
G01X125842D01*
X112942Y184550D01*
X69342D01*
X57242Y172450D01*
X52754D01*
G03X52384Y171900I0J-400D01*
G02X49416I-1484J-600D01*
G03X49046Y172450I-371J150D01*
G01X37754D01*
G03X37384Y171900I0J-400D01*
G02X34417I-1483J-600D01*
G03X34046Y172450I-371J150D01*
G01X7558D01*
X5085Y174923D01*
X5065Y174935D01*
G02X7265Y177135I835J1365D01*
G01X7277Y177115D01*
X8842Y175550D01*
X8931D01*
G03X9324Y176020I0J400D01*
G02X10065Y177665I1576J280D01*
G01X10085Y177677D01*
X11441Y179034D01*
G03X11107Y179713I-283J283D01*
G02X10065Y182665I-207J1587D01*
G01X10085Y182677D01*
X12658Y185250D01*
X24008D01*
G03X24387Y185780I0J400D01*
G02X27413I1513J520D01*
G03X27792Y185250I378J-130D01*
G01X34008D01*
G03X34387Y185780I0J400D01*
G02X37413I1513J520D01*
G03X37792Y185250I378J-130D01*
G01X44008D01*
G03X44387Y185780I0J400D01*
G02X47413I1513J520D01*
G03X47792Y185250I378J-130D01*
G01X58327D01*
X65327Y192250D01*
X95600D01*
Y195600D01*
X98800D01*
Y192250D01*
X108927D01*
X125027Y208350D01*
X128000D01*
Y210500D01*
X129008D01*
X130758Y212250D01*
X132000D01*
G02X132449Y212184I0J-1550D01*
G01X132477Y212175D01*
X132689D01*
G03X133089Y212595I0J400D01*
G02X135886I1399J69D01*
G03X136285Y212175I399J-20D01*
G01X136626D01*
G03X137026Y212595I0J400D01*
G02X139823I1398J69D01*
G03X140222Y212175I399J-20D01*
G01X148437D01*
G03X148837Y212595I0J400D01*
G02X148892Y213058I1398J69D01*
G01X148900Y213086D01*
Y214100D01*
X151900D01*
Y212175D01*
X152374D01*
G03X152774Y212595I0J400D01*
G02X155571I1398J69D01*
G03X155970Y212175I399J-20D01*
G01X156748D01*
X159152Y209771D01*
G02X159252Y209661I-1043J-1043D01*
G03X159845Y209631I310J253D01*
G01X161197Y210983D01*
G03X161166Y211576I-283J283D01*
G02X162439Y211320I881J1088D01*
G03X162268Y210654I112J-384D01*
G01X163689Y209232D01*
X163429Y208971D01*
X163439Y208876D01*
G02X163446Y208687I-1392J-149D01*
G03X163846Y208275I400J-12D01*
G01X164184D01*
G03X164584Y208687I0J400D01*
G02X167383I1400J41D01*
G03X167783Y208275I400J-12D01*
G01X168121D01*
G03X168521Y208687I0J400D01*
G02X171320I1400J41D01*
G03X171720Y208275I400J-12D01*
G01X172058D01*
G03X172458Y208687I0J400D01*
G02X175257I1400J41D01*
G03X175657Y208275I400J-12D01*
G01X175995D01*
G03X176395Y208687I0J400D01*
G02X179194I1400J41D01*
G03X179594Y208275I400J-12D01*
G01X179932D01*
G03X180332Y208687I0J400D01*
G02X183131I1400J41D01*
G03X183531Y208275I400J-12D01*
G01X195680D01*
G03X196080Y208687I0J400D01*
G02X198879I1400J41D01*
G03X199279Y208275I400J-12D01*
G01X218211D01*
X220355Y206131D01*
X222300Y208075D01*
X234386D01*
G02X234604Y208349I1314J-822D01*
G01X238822Y212567D01*
G03X238539Y213250I-283J283D01*
G01X237740D01*
X236407Y214582D01*
G02X235953Y215679I1096J1096D01*
G01Y216150D01*
G37*
G36*
G01X296585Y90891D02*
G02X293415I-1585J-5891D01*
G01Y110635D01*
X271644D01*
X262279Y120000D01*
X181778D01*
X180765Y121013D01*
G02X180752Y121027I1062J1060D01*
G01X174604Y127174D01*
G02X174439Y127371I1061J1061D01*
G01X174429Y127385D01*
X174146Y127668D01*
Y127704D01*
X173980Y127869D01*
Y128389D01*
G03X173790Y128589I-200J0D01*
G02X172458Y129933I67J1399D01*
G01X172451Y130125D01*
X171327D01*
X171320Y129933D01*
G02X168521I-1399J55D01*
G01X168514Y130125D01*
X167500D01*
Y128500D01*
X164500D01*
Y131500D01*
X164670D01*
G03X164811Y131842I0J200D01*
G01X162667Y133986D01*
X155583D01*
X155567Y133803D01*
G02X152778I-1395J121D01*
G01X152762Y133986D01*
X151646D01*
X151630Y133803D01*
G02X148926Y134421I-1395J121D01*
G01X148972Y134542D01*
X146916Y136598D01*
X146795Y136552D01*
G02X146474Y136472I-497J1309D01*
G01X146299Y136450D01*
Y131399D01*
X146474Y131377D01*
G02Y128598I-175J-1389D01*
G01X146299Y128576D01*
Y128138D01*
X146325Y128112D01*
Y127857D01*
X146350Y127832D01*
Y127760D01*
X146555Y127555D01*
Y127173D01*
X146558Y127156D01*
G02X146580Y126900I-1478J-257D01*
G01Y109173D01*
X143927Y106520D01*
X141141D01*
X140600Y105979D01*
Y104900D01*
X137030D01*
G02X135000Y103915I-2030J1600D01*
G01X133100D01*
Y100900D01*
X129900D01*
Y103915D01*
X123400D01*
Y99600D01*
X124600D01*
Y86100D01*
X98100D01*
Y99600D01*
X99600D01*
Y108250D01*
X112294D01*
X112844Y108800D01*
X112294Y109350D01*
X99600D01*
Y118250D01*
X123400D01*
Y113085D01*
X129900D01*
Y116100D01*
X133100D01*
Y113085D01*
X135000D01*
G02X137030Y112100I0J-2585D01*
G01X140600D01*
Y111021D01*
X141121Y110500D01*
X142162D01*
G03X142303Y110842I0J200D01*
G01X142100Y111045D01*
Y112566D01*
G02X142539Y113627I1500J0D01*
G01X142600Y113688D01*
Y126604D01*
X142598Y126606D01*
Y128400D01*
X140900D01*
Y131025D01*
X140000D01*
Y128400D01*
X137000D01*
Y130379D01*
G03X136658Y130521I-200J0D01*
G01X136300Y130162D01*
Y128400D01*
X133300D01*
Y131400D01*
X135062D01*
X136438Y132775D01*
X137000D01*
Y135400D01*
X140000D01*
Y133767D01*
G03X140683Y133484I400J0D01*
G01X140967Y133768D01*
X140963Y133856D01*
G02X142234Y135319I1399J68D01*
G03X142598Y135717I-36J398D01*
G01Y136319D01*
X142455Y136462D01*
X142371Y136461D01*
G02X142228Y139255I-10J1400D01*
G03X142590Y139653I-38J398D01*
G01Y143323D01*
X144899Y145632D01*
X144898Y145717D01*
G02X146317Y147136I1400J18D01*
G01X146401Y147134D01*
X148544Y149277D01*
X147797Y150025D01*
X140224D01*
G03X139824Y149635I0J-400D01*
G02X137025I-1400J37D01*
G03X136625Y150025I-400J-11D01*
G01X136287D01*
G03X135887Y149635I0J-400D01*
G02X133437Y148746I-1400J37D01*
G03X133140Y148750I-150J-132D01*
G02X133096Y148704I-1141J1050D01*
G01X127942Y143550D01*
X105900D01*
Y143500D01*
X102700D01*
Y146700D01*
X102750D01*
Y148800D01*
X102700D01*
Y155500D01*
X105900D01*
Y154492D01*
X106842Y153550D01*
X121900D01*
Y163100D01*
X131100D01*
Y155452D01*
G03X131783Y155169I400J0D01*
G01X133342Y156728D01*
X133267Y156860D01*
G02X135887Y157569I1220J687D01*
G03X136287Y157175I400J6D01*
G01X136624D01*
G03X137024Y157569I0J400D01*
G02X139824I1400J-22D01*
G03X140224Y157175I400J6D01*
G01X148436D01*
G03X148835Y157569I0J400D01*
G02X151635I1400J-22D01*
G03X152035Y157175I400J6D01*
G01X152372D01*
G03X152772Y157569I0J400D01*
G02X154291Y158942I1400J-22D01*
G03X154725Y159340I34J399D01*
G01Y160123D01*
X154502D01*
X154481Y160118D01*
G02X154408Y160103I-309J1366D01*
G01X154346Y160093D01*
X154248Y159996D01*
X154163Y160081D01*
X154087Y160086D01*
G02X152775Y161398I85J1398D01*
G01X152770Y161474D01*
X150996Y163248D01*
X151000Y163253D01*
X150898Y163500D01*
X148086D01*
X147000Y164586D01*
Y167583D01*
G03X146533Y167977I-400J0D01*
G02Y170738I-234J1380D01*
G03X147000Y171132I67J394D01*
G01Y175457D01*
G03X146533Y175851I-400J0D01*
G02Y178612I-234J1380D01*
G03X147000Y179006I67J394D01*
G01Y183331D01*
G03X146533Y183725I-400J0D01*
G02Y186486I-234J1380D01*
G03X147000Y186880I67J394D01*
G01Y191205D01*
G03X146533Y191599I-400J0D01*
G02Y194360I-234J1380D01*
G03X147000Y194754I67J394D01*
G01Y194914D01*
X148086Y196000D01*
X156414D01*
X157500Y194914D01*
Y190830D01*
G03X157947Y190433I400J0D01*
G02Y187652I163J-1391D01*
G03X157500Y187254I-46J-397D01*
G01Y182956D01*
G03X157947Y182559I400J0D01*
G02Y179778I163J-1391D01*
G03X157500Y179380I-46J-397D01*
G01Y174700D01*
X159700D01*
Y171700D01*
X157500D01*
Y166900D01*
X159700D01*
Y163900D01*
X156814D01*
X156414Y163500D01*
X154339D01*
G03X154198Y163158I0J-200D01*
G01X154513Y162842D01*
X154563Y162828D01*
G02X155517Y161874I-390J-1345D01*
G01X155531Y161824D01*
X155935Y161421D01*
X157472Y162959D01*
X158109D01*
G02X158976Y160290I0J-1475D01*
G01X157675Y158989D01*
Y156589D01*
X155394Y154308D01*
X155450Y154182D01*
G02X155147Y152604I-1278J-573D01*
G03X155142Y152034I278J-287D01*
G01X156914Y150262D01*
X156910Y150258D01*
G03X157192Y149575I283J-283D01*
G01X160637D01*
X160649Y149762D01*
G02X163444I1397J-90D01*
G01X163456Y149575D01*
X164574D01*
X164586Y149762D01*
G02X166074Y151070I1397J-90D01*
G03X166500Y151469I26J399D01*
G01Y159687D01*
G03X166074Y160086I-400J0D01*
G02Y162881I-90J1397D01*
G03X166500Y163280I26J399D01*
G01Y163624D01*
G03X166074Y164023I-400J0D01*
G02Y166818I-90J1397D01*
G03X166500Y167217I26J399D01*
G01Y167561D01*
G03X166074Y167960I-400J0D01*
G02Y170755I-90J1397D01*
G03X166500Y171154I26J399D01*
G01Y171700D01*
X164500D01*
Y174700D01*
X166500D01*
Y175863D01*
X166280D01*
X166260Y175859D01*
G02X166155Y175842I-276J1373D01*
G01X166086Y175833D01*
X166048Y175796D01*
X166015Y175829D01*
X165936Y175832D01*
G02X164584Y177184I48J1399D01*
G01X164581Y177263D01*
X162796Y179048D01*
X164352Y180604D01*
X164423Y180533D01*
X164642Y180753D01*
X164618Y180860D01*
G02X166110Y179774I1366J308D01*
G03X165863Y179093I36J-398D01*
G01X166381Y178575D01*
X166426Y178560D01*
G02X167312Y177674I-442J-1328D01*
G01X167327Y177629D01*
X167604Y177352D01*
X167382Y177129D01*
X167373Y177060D01*
G02X167360Y176974I-1390J171D01*
G03X167753Y176500I393J-74D01*
G01X168400D01*
Y178700D01*
X171400D01*
Y176500D01*
X176400D01*
Y177107D01*
X176399Y177116D01*
G02Y177348I1395J116D01*
G01X176400Y177356D01*
Y178700D01*
X179400D01*
Y176500D01*
X184200D01*
Y178700D01*
X187200D01*
Y176500D01*
X192100D01*
Y178700D01*
X195100D01*
Y176500D01*
X199900D01*
Y178700D01*
X202900D01*
Y175700D01*
X200500D01*
Y170800D01*
X203000D01*
Y167800D01*
X200500D01*
Y167145D01*
G03X201015Y166762I400J0D01*
G02Y164079I402J-1341D01*
G03X200500Y163696I-115J-383D01*
G01Y163208D01*
G03X201015Y162825I400J0D01*
G02Y160142I402J-1341D01*
G03X200500Y159759I-115J-383D01*
G01Y159271D01*
G03X201015Y158888I400J0D01*
G02Y156205I402J-1341D01*
G03X200500Y155822I-115J-383D01*
G01Y155334D01*
G03X201015Y154951I400J0D01*
G02Y152268I402J-1341D01*
G03X200500Y151885I-115J-383D01*
G01Y151397D01*
G03X201015Y151014I400J0D01*
G02X201670Y151050I402J-1341D01*
G01X201773Y151030D01*
X202032Y151289D01*
X203363Y149959D01*
G03X204025Y150115I283J283D01*
G02X204314Y148734I1328J-443D01*
G03X203735Y148749I-297J-268D01*
G01X202340Y147354D01*
G03X202355Y146774I283J-283D01*
G02X201109Y147101I-939J-1039D01*
G03X201304Y147774I-88J390D01*
G01X201183Y147895D01*
G03X200500Y147612I-283J-283D01*
G01Y147586D01*
X199414Y146500D01*
X199242D01*
G03X198851Y146019I0J-400D01*
G02X196108I-1371J-283D01*
G03X195717Y146500I-392J81D01*
G01X195086D01*
X194000Y147586D01*
Y147873D01*
G03X193587Y148273I-400J0D01*
G02X192182Y150005I-45J1400D01*
G03X191794Y150500I-389J95D01*
G01X191354D01*
G03X190966Y150005I0J-400D01*
G02X188547Y148755I-1360J-332D01*
G03X187962Y148776I-302J-262D01*
G01X186565Y147379D01*
G03X186586Y146794I283J-283D01*
G02X185328Y147094I-917J-1058D01*
G03X185514Y147764I-97J388D01*
G01X184111Y149168D01*
X184300Y149358D01*
X184285Y149458D01*
G02X184308Y150005I1384J214D01*
G03X183920Y150500I-389J95D01*
G01X183480D01*
G03X183092Y150005I0J-400D01*
G02X180629Y148809I-1360J-332D01*
G03X180031Y148845I-315J-247D01*
G01X178622Y147436D01*
G03X178658Y146838I283J-283D01*
G02X176395Y145772I-863J-1102D01*
G03X175712Y146065I-400J10D01*
G01X175522Y145875D01*
X175264D01*
X175257Y145682D01*
G02X172458I-1399J53D01*
G01X172451Y145875D01*
X167390D01*
X167383Y145682D01*
G02X166864Y144647I-1399J53D01*
G03X166833Y144053I252J-311D01*
G01X168238Y142648D01*
G03X168832Y142679I283J283D01*
G02X168558Y141474I1088J-881D01*
G03X167886Y141665I-389J-93D01*
G01X166432Y140211D01*
X166227Y140416D01*
X166132Y140406D01*
G02X164591Y141946I-148J1392D01*
G01X164601Y142042D01*
X164311Y142332D01*
X165717Y143738D01*
G03X165556Y144402I-283J283D01*
G02X164584Y145682I427J1333D01*
G01X164577Y145875D01*
X163453D01*
X163446Y145682D01*
G02X160647I-1399J53D01*
G01X160640Y145875D01*
X155700D01*
Y144200D01*
X152700D01*
Y145875D01*
X150375D01*
X150236Y145736D01*
Y143892D01*
X150207Y143863D01*
G03X150433Y143184I283J-283D01*
G02X151632Y141892I-198J-1386D01*
G03X152032Y141519I399J27D01*
G01X153039D01*
G02X154082Y141086I0J-1475D01*
G01X154384Y140784D01*
G02X154816Y139741I-1043J-1043D01*
G01Y139105D01*
G02X155572Y137883I-644J-1243D01*
G01X155576Y137686D01*
X156706D01*
X156709Y137883D01*
G02X159509I1400J-22D01*
G01X159512Y137686D01*
X160643D01*
X160646Y137883D01*
G02X163446Y137883I1400J-22D01*
G01X163450Y137686D01*
X164200D01*
X164258Y137628D01*
X164259D01*
X164385Y137501D01*
X164589Y137705D01*
X164585Y137794D01*
G02X167024Y136925I1399J68D01*
G03X167041Y136641I149J-134D01*
G02X167112Y136575I-972J-1109D01*
G01X167571Y136115D01*
G02X168003Y135072I-1043J-1043D01*
G01Y134577D01*
G02X167929Y134113I-1475J0D01*
G01X167890Y133996D01*
X168061Y133825D01*
X172448D01*
X172460Y134013D01*
G02X172854Y134901I1397J-88D01*
G03X172851Y135463I-287J279D01*
G01X171459Y136855D01*
G03X170897Y136858I-283J-283D01*
G02X171286Y138174I-977J1003D01*
G03X171958Y137980I390J89D01*
G01X173268Y139289D01*
X173376Y139181D01*
X173488Y139212D01*
G02X175208Y137492I369J-1351D01*
G01X175177Y137380D01*
X175389Y137168D01*
X174138Y135917D01*
G03X174296Y135254I283J-283D01*
G02X175255Y134013I-439J-1330D01*
G01X175267Y133825D01*
X175722D01*
G03X176402Y134068I282J284D01*
G02X177938Y132532I1393J-144D01*
G03X177696Y131851I41J-398D01*
G01X177725Y131822D01*
Y131582D01*
G03X177909Y131383I200J0D01*
G02X178856Y129074I-114J-1396D01*
G03X178877Y128531I303J-261D01*
G01X183427Y123980D01*
X261873D01*
X263319Y123980D01*
X263928Y123980D01*
X273293Y114615D01*
X293415D01*
Y134109D01*
G02X296585I1585J5891D01*
G01Y112943D01*
X296333Y112691D01*
X296402Y112560D01*
G02X296585Y111820I-1402J-740D01*
G01Y90891D01*
G37*
G36*
G01X325500Y211104D02*
X329200Y207404D01*
Y196396D01*
X322500Y189696D01*
Y115361D01*
G03X323159Y115056I400J0D01*
G02X333125Y111352I3941J-4656D01*
G03X333803Y111132I395J62D01*
G01X345672Y123000D01*
X378828D01*
X385000Y116828D01*
Y96000D01*
X367000D01*
Y107500D01*
X354828D01*
X349612Y102283D01*
G03X349895Y101600I283J-283D01*
G01X351100D01*
Y98400D01*
X348500D01*
Y93301D01*
X350514D01*
G02X352098Y94050I1584J-1301D01*
G01X357849D01*
X358849Y93050D01*
X362825D01*
X368675Y95000D01*
X385000D01*
Y86500D01*
X368500D01*
Y74500D01*
X353672D01*
X346500Y81672D01*
Y82435D01*
G03X346030Y82829I-400J0D01*
G02X344721Y83071I-330J1871D01*
G01X344674Y83100D01*
X344100D01*
Y83674D01*
X344071Y83721D01*
G02X343800Y84700I1629J979D01*
G01Y87147D01*
X339900D01*
Y85000D01*
G02X339629Y84021I-1900J0D01*
G01X339600Y83974D01*
Y83400D01*
X339026D01*
X338979Y83371D01*
G02X337021I-979J1629D01*
G01X336974Y83400D01*
X336400D01*
Y83974D01*
X336371Y84021D01*
G02X336100Y85000I1629J979D01*
G01Y88661D01*
X335704D01*
X335700Y88465D01*
G02X335611Y87956I-1700J35D01*
G01X335600Y87925D01*
Y86900D01*
X334575D01*
X334544Y86889D01*
G02X333456I-544J1611D01*
G01X333425Y86900D01*
X332400D01*
Y87696D01*
X319100Y100996D01*
Y186263D01*
G03X318600Y186651I-400J0D01*
G02Y189749I-400J1549D01*
G03X319100Y190137I100J387D01*
G01Y191104D01*
X325800Y197804D01*
Y204224D01*
G03X325130Y204519I-400J0D01*
G02X323678Y207256I-1080J1181D01*
G03X323867Y207928I-93J389D01*
G01X322100Y209696D01*
Y251004D01*
X332696Y261600D01*
X341700D01*
G02X342902Y261102I0J-1700D01*
G01X344510Y259495D01*
X344697D01*
G02X345901Y258995I0J-1700D01*
G01X347020D01*
Y260114D01*
G02X346520Y261318I1200J1204D01*
G01Y261875D01*
X343898Y264498D01*
G02X343438Y266058I1202J1202D01*
G03X343047Y266542I-391J84D01*
G01X337047D01*
X320700Y250196D01*
Y198996D01*
X313800Y192096D01*
Y71096D01*
X299688Y56983D01*
G03X299970Y56300I283J-283D01*
G01X300100D01*
Y53100D01*
X295575D01*
X295544Y53089D01*
G02X295035Y53000I-544J1611D01*
G01X295000Y52999D01*
X294965Y53000D01*
G02X294456Y53089I35J1700D01*
G01X294425Y53100D01*
X293400D01*
Y54125D01*
X293389Y54156D01*
G02Y55244I1611J544D01*
G01X293400Y55275D01*
Y56300D01*
X294196D01*
X310400Y72504D01*
Y193504D01*
X317300Y200404D01*
Y251604D01*
X335638Y269943D01*
X352158D01*
G02X353858Y268242I0J-1700D01*
G01Y263668D01*
X355326D01*
Y258968D01*
X347047D01*
Y252657D01*
X342347D01*
Y253926D01*
X341474D01*
G02X341075Y257684I0J1900D01*
G01X341133Y257696D01*
X341316Y257879D01*
X340996Y258200D01*
X338150D01*
Y254500D01*
X333850D01*
Y256980D01*
G03X333167Y257262I-400J0D01*
G01X325500Y249596D01*
Y235500D01*
G03X325700Y235300I200J0D01*
G02Y232100I0J-1600D01*
G03X325500Y231900I0J-200D01*
G01Y211104D01*
G37*
G36*
G01X302625Y53000D02*
G03X302600Y52998I3J-200D01*
G03X302575Y53000I-28J-198D01*
G02X302056Y53089I25J1700D01*
G01X302025Y53100D01*
X301000D01*
Y54125D01*
X300989Y54156D01*
G02Y55244I1611J544D01*
G01X301000Y55275D01*
Y56300D01*
X302025D01*
X302056Y56311D01*
G02X303144I544J-1611D01*
G01X303175Y56300D01*
X304200D01*
Y55275D01*
X304211Y55244D01*
G02Y54156I-1611J-544D01*
G01X304200Y54125D01*
Y53100D01*
X303175D01*
X303144Y53089D01*
G02X302625Y53000I-544J1611D01*
G37*
G36*
G01X304500Y47713D02*
X303355Y46568D01*
G03X303342Y46016I283J-283D01*
G02X303837Y44737I-1405J-1279D01*
G01Y41506D01*
G02X303138Y40033I-1900J0D01*
G01Y39205D01*
X298768D01*
Y40033D01*
G02X298342Y40524I1201J1473D01*
G03X297658I-342J-207D01*
G02X297232Y40033I-1627J982D01*
G01Y39205D01*
X296500D01*
Y38000D01*
X272172D01*
X269500Y40672D01*
Y52328D01*
X276672Y59500D01*
X286328D01*
X290000Y55828D01*
Y52300D01*
X290574D01*
X290621Y52329D01*
G02X291600Y52600I979J-1629D01*
G01X298500D01*
G02X299479Y52329I0J-1900D01*
G01X299526Y52300D01*
X300100D01*
Y51726D01*
X300129Y51679D01*
G02X300194Y51562I-1629J-978D01*
G03X300906I357J181D01*
G02X300971Y51679I1694J-861D01*
G01X301000Y51726D01*
Y52300D01*
X301574D01*
X301621Y52329D01*
G02X302574Y52600I979J-1629D01*
G03X302600Y52602I-3J200D01*
G03X302626Y52600I28J198D01*
G02X303579Y52329I-25J-1900D01*
G01X303626Y52300D01*
X304200D01*
Y51726D01*
X304229Y51679D01*
G02X304500Y50700I-1629J-979D01*
G01Y47713D01*
G37*
G36*
G01X172000Y15328D02*
G03X171426Y15689I-400J0D01*
G02X170600Y15500I-826J1711D01*
G01X168800D01*
G02X167991Y15681I0J1900D01*
G01X167950Y15700D01*
X167650D01*
X167609Y15681D01*
G02X165991I-809J1719D01*
G01X165950Y15700D01*
X165600D01*
Y15924D01*
X165533Y15984D01*
G02X164900Y17400I1267J1416D01*
G01Y19487D01*
X166456Y21044D01*
G02X166631Y21198I1344J-1343D01*
G03X166613Y21841I-246J315D01*
G02X166356Y22056I1087J1559D01*
G01X164800Y23613D01*
Y25800D01*
G02X165433Y27216I1900J0D01*
G01X165500Y27276D01*
Y27500D01*
X165850D01*
X165891Y27519D01*
G02X167509I809J-1719D01*
G01X167550Y27500D01*
X167850D01*
X167891Y27519D01*
G02X168700Y27700I809J-1719D01*
G01X170600D01*
G02X171426Y27511I0J-1900D01*
G03X172000Y27872I174J360D01*
G01Y28928D01*
G03X171426Y29289I-400J0D01*
G02X170600Y29100I-826J1711D01*
G01X168700D01*
G02X167891Y29281I0J1900D01*
G01X167850Y29300D01*
X167550D01*
X167509Y29281D01*
G02X165891I-809J1719D01*
G01X165850Y29300D01*
X165500D01*
Y29524D01*
X165433Y29584D01*
G02X164800Y31000I1267J1416D01*
G01Y33187D01*
X166356Y34744D01*
G02X169598Y33318I1344J-1344D01*
G03X169998Y32900I400J-17D01*
G01X170600D01*
G02X171426Y32711I0J-1900D01*
G03X172000Y33072I174J360D01*
G01Y42828D01*
X177172Y48000D01*
X232828D01*
X237500Y43328D01*
Y3172D01*
X232328Y-2000D01*
X176672D01*
X172000Y2672D01*
Y10043D01*
G03X171461Y10418I-400J0D01*
G02X170800Y10300I-661J1782D01*
G01X170592D01*
G03X170193Y9865I0J-400D01*
G02X166956Y8356I-1893J-165D01*
G01X164900Y10413D01*
Y12200D01*
G02X165533Y13616I1900J0D01*
G01X165600Y13676D01*
Y13900D01*
X165950D01*
X165991Y13919D01*
G02X167609I809J-1719D01*
G01X167650Y13900D01*
X167950D01*
X167991Y13919D01*
G02X168800Y14100I809J-1719D01*
G01X170800D01*
G02X171461Y13982I0J-1900D01*
G03X172000Y14357I139J375D01*
G01Y15328D01*
G37*
G54D101*
X245400Y180100D03*
G54D100*
X211400Y241900D03*
G54D95*
X103500Y2700D03*
X138500D03*
X156000D03*
G54D90*
X20500Y59800D03*
Y307800D03*
G54D93*
X81500Y93800D03*
Y103800D03*
G54D96*
X134500Y141800D03*
Y220500D03*
X162000Y165400D03*
X170000Y228400D03*
X181800Y181200D03*
X173900Y181100D03*
Y189000D03*
X181800D03*
X197500Y141700D03*
X193600Y185100D03*
X201500D03*
X189700Y181200D03*
X189600Y216600D03*
X209300Y141700D03*
X205400Y165400D03*
Y173300D03*
X213300Y169300D03*
X225100Y130000D03*
Y137900D03*
X229000D03*
X221200Y137800D03*
X221100Y157500D03*
X221200Y185100D03*
G54D87*
X338250Y53000D03*
G54D92*
X57500Y358300D03*
X80800Y260500D03*
X100300Y145100D03*
X130500Y220500D03*
X140800Y233900D03*
Y237900D03*
X158400Y263000D03*
X167800D03*
X177200D03*
X175300Y257100D03*
X183500Y361500D03*
X205000D03*
X225100Y126000D03*
X227000Y361500D03*
X246400Y258900D03*
X261700Y218400D03*
X249000Y361500D03*
X272000D03*
X294000D03*
X314500D03*
X360000Y13000D03*
X373000Y265500D03*
X433500Y147500D03*
X452100Y175400D03*
X455500Y147500D03*
G54D98*
X156608Y60921D03*
X158528Y67040D03*
X156608Y79819D03*
X164827Y55136D03*
X161677Y69166D03*
X162907Y60921D03*
X159758Y63381D03*
X171126Y67040D03*
X164827D03*
X166057Y63381D03*
Y82279D03*
X162907Y79819D03*
X159758Y82279D03*
X169206Y79819D03*
X171126Y74034D03*
X172700Y82600D03*
X174276Y57105D03*
X186874Y69166D03*
X188104Y60921D03*
X181805D03*
X180575Y69166D03*
X177425Y74034D03*
X180575Y88064D03*
X174276D03*
X190024Y67040D03*
X199472Y69166D03*
X196323Y67040D03*
X193173Y69166D03*
X197553Y63381D03*
X202622Y67040D03*
X200702Y60921D03*
X193173Y57105D03*
Y76002D03*
X190024Y74034D03*
X196323D03*
X197900Y82600D03*
X202622Y74034D03*
X196323Y85938D03*
X203852Y82279D03*
G54D104*
X310000Y47600D03*
G54D86*
X76750Y40250D03*
G54D89*
X5900Y186300D03*
Y261300D03*
Y266300D03*
X20900Y91300D03*
X15900Y86300D03*
Y126300D03*
Y131300D03*
X20900Y226300D03*
Y241300D03*
Y236300D03*
X15900Y261300D03*
X20900Y256300D03*
Y251300D03*
X15900Y266300D03*
X20900Y276300D03*
Y271300D03*
X15900Y276300D03*
X10900D03*
Y271300D03*
X35900Y96300D03*
Y86300D03*
X30900Y91300D03*
X25900Y86300D03*
X35900Y106300D03*
Y166300D03*
Y196300D03*
X25900Y191300D03*
X35900Y226300D03*
Y231300D03*
X25900D03*
X35900Y246300D03*
Y241300D03*
X25900Y236300D03*
X35900Y261300D03*
Y266300D03*
X40900Y91300D03*
X50900Y96300D03*
Y91300D03*
X40900Y111300D03*
Y101300D03*
X50900Y111300D03*
X45900Y106300D03*
Y101300D03*
X50900Y116300D03*
X45900Y126300D03*
Y121300D03*
X50900Y136300D03*
Y131300D03*
Y156300D03*
Y151300D03*
Y196300D03*
Y191300D03*
Y231300D03*
X45900Y226300D03*
X50900Y236300D03*
Y256300D03*
Y251300D03*
X40900Y256300D03*
Y251300D03*
X50900Y276300D03*
Y271300D03*
X40900Y276300D03*
Y271300D03*
X95800Y94100D03*
Y104100D03*
X97500Y225800D03*
Y229800D03*
X100800Y333500D03*
X111000Y355000D03*
X122500Y270295D03*
X162500D03*
X166000Y356890D03*
X188000D03*
X210000D03*
X225200Y321500D03*
X226400Y343300D03*
X232000Y356890D03*
X238200Y178700D03*
X237300Y360600D03*
X254700Y199200D03*
X254000Y356890D03*
X263732Y162500D03*
Y169500D03*
X270268D03*
Y162500D03*
X263400Y179400D03*
X265600Y183000D03*
X276000Y266400D03*
X280300D03*
X284100Y358800D03*
X286150Y362750D03*
X290000Y367700D03*
X288100Y371600D03*
X320800Y195700D03*
X320300Y347200D03*
X319500Y357500D03*
X311800Y357400D03*
X332900Y156900D03*
Y169900D03*
Y165900D03*
Y160900D03*
X332600Y216300D03*
X329600Y210900D03*
X331400Y231800D03*
X333800Y226600D03*
X328100Y236400D03*
X331900Y235400D03*
X333100Y316100D03*
X333800Y346600D03*
X328800Y344900D03*
X325400Y352800D03*
X336900Y212600D03*
X349736Y307454D03*
X344754Y312746D03*
X336200Y311900D03*
X349300Y351900D03*
X354000Y284900D03*
Y289400D03*
Y280400D03*
X362900Y296900D03*
X359800Y358000D03*
X358042Y361742D03*
X363947Y360053D03*
X355900Y365400D03*
X361979Y368179D03*
X365916Y313596D03*
X377727Y361027D03*
X369853Y363353D03*
X367884Y360216D03*
X394500Y179600D03*
X388233Y279800D03*
Y289800D03*
X400000Y308400D03*
X396000Y347800D03*
X426500Y302700D03*
X447800Y297900D03*
X468900Y303200D03*
G54D91*
X28400Y76749D03*
X40408Y290843D03*
G54D88*
X-4200Y20300D03*
X450800Y-7890D03*
X450200Y379900D03*
G54D99*
X197900Y241900D03*
X224700D03*
X237900D03*
X399300Y110800D03*
Y105800D03*
Y120800D03*
Y115800D03*
X419500Y84400D03*
X424700D03*
X434500Y84500D03*
X429600Y84400D03*
X439700Y88400D03*
X439100Y267100D03*
X440000Y289500D03*
Y293500D03*
X442000Y93000D03*
X445000Y90000D03*
X448500Y93000D03*
X448400Y88200D03*
X445000Y102500D03*
Y107000D03*
Y111500D03*
X442400Y264100D03*
X451400Y277600D03*
G54D94*
X97732Y172500D03*
Y164000D03*
Y181500D03*
X104268Y172500D03*
Y164000D03*
Y181500D03*
X123532Y181600D03*
X130068D03*
X240762Y169750D03*
X247298D03*
X247268Y162000D03*
X240732D03*
G54D106*
X464041Y319139D03*
Y336461D03*
G54D107*
X100300Y152150D03*
G54D97*
X142361Y145735D03*
X134487Y165420D03*
X138424D03*
X134487Y173294D03*
X138424D03*
X142361Y161484D03*
Y169358D03*
X134487Y181168D03*
X138424D03*
X134487Y189042D03*
X138424D03*
X142361Y177232D03*
Y185106D03*
Y192980D03*
X134487Y224476D03*
X142361Y220539D03*
Y224476D03*
X158109Y141798D03*
X146298Y161484D03*
X158109Y216602D03*
X154172D03*
X150235Y228413D03*
X146298D03*
Y220539D03*
Y224476D03*
X162046Y141798D03*
Y216602D03*
X169920Y220539D03*
X165984D03*
Y224476D03*
X162046D03*
Y220539D03*
X165984Y228413D03*
X181732Y129987D03*
X185668D03*
X177794Y141798D03*
Y137861D03*
X173858Y141798D03*
X185668D03*
Y212665D03*
Y216602D03*
X173858Y212665D03*
Y216602D03*
X177794Y224476D03*
Y220539D03*
X173858Y228413D03*
X177794D03*
X173858Y220539D03*
Y224476D03*
X189606Y129987D03*
X201417Y141798D03*
X189606Y137861D03*
Y133924D03*
X197480Y137861D03*
X193542D03*
X201417Y181168D03*
X189606Y220539D03*
Y224476D03*
X201417D03*
Y220539D03*
X217165Y129987D03*
X213228D03*
X205354Y141798D03*
Y137861D03*
X213228D03*
Y133924D03*
X217165Y137861D03*
X213228Y141798D03*
X209291Y149672D03*
Y145735D03*
X213228D03*
X209291Y173294D03*
X205354Y181168D03*
X209291Y185106D03*
X232913Y173294D03*
Y161484D03*
Y177232D03*
G54D103*
X249500Y329900D03*
X259500D03*
X249500Y339900D03*
X269500Y329900D03*
X279500D03*
X413500Y252000D03*
Y277500D03*
X433500Y242000D03*
X453500Y252000D03*
X466000Y277500D03*
Y287500D03*
X473500Y252000D03*
G54D102*
X239500Y329900D03*
X413500Y232000D03*
Y267500D03*
X433500Y232000D03*
X453500D03*
X466000Y267500D03*
X473500Y232000D03*
G54D105*
X404669Y75260D03*
Y82740D03*
%LPD*%
G75*
G36*
G01X48931Y175550D02*
X13308D01*
G02X13025Y176233I0J400D01*
G01X14342Y177550D01*
X49089D01*
G02X49451Y176980I0J-400D01*
G03X49324Y176020I1449J-680D01*
G02X48931Y175550I-394J-70D01*
G37*
G36*
G01X12167Y180323D02*
G03X12265Y180465I-1267J977D01*
G01X12277Y180485D01*
X13942Y182150D01*
X33951D01*
G02X34341Y181660I0J-400D01*
G03X34312Y181100I1559J-360D01*
G02X33916Y180650I-397J-50D01*
G01X13058D01*
X12467Y180059D01*
X12167Y180323D01*
G37*
G36*
G01X43906Y206050D02*
X23808D01*
G02X23525Y206733I0J400D01*
G01X24242Y207450D01*
X44046D01*
G02X44416Y206900I0J-400D01*
G03X44304Y206420I1483J-600D01*
G02X43906Y206050I-399J30D01*
G37*
G36*
G01X49072Y215087D02*
X19895D01*
X16050Y211242D01*
Y208642D01*
X15533Y208125D01*
G02X14850Y208408I-283J283D01*
G01Y211658D01*
X20142Y216950D01*
X48916D01*
G02X49312Y216500I0J-400D01*
G03X49438Y215650I1588J-200D01*
G02X49072Y215087I-366J-163D01*
G37*
G36*
G01X22958Y210550D02*
X22792Y210384D01*
G02X22450Y210525I-141J141D01*
G01Y210902D01*
X22456Y210926D01*
G03X22484Y211529I-1556J374D01*
G02X22880Y211987I396J57D01*
G01X48920D01*
G02X49316Y211529I0J-400D01*
G03X49324Y211020I1584J-229D01*
G02X48931Y210550I-394J-70D01*
G01X22958D01*
G37*
G36*
G01X37488Y181100D02*
G03X37459Y181660I-1588J200D01*
G02X37849Y182150I390J90D01*
G01X43951D01*
G02X44341Y181660I0J-400D01*
G03X44312Y181100I1559J-360D01*
G02X43915Y180650I-397J-50D01*
G01X37885D01*
G02X37488Y181100I0J400D01*
G37*
G36*
G01X46000Y336800D02*
X44500Y332300D01*
Y314800D01*
X37000D01*
Y327800D01*
X40056Y334210D01*
X45000Y337300D01*
X46000Y336800D01*
G37*
G36*
G01X43615Y342745D02*
Y341416D01*
X34000Y331800D01*
X27000D01*
Y340300D01*
X36000D01*
X39500Y343800D01*
X43311D01*
G02X43694Y343286I0J-400D01*
G03X43615Y342745I1821J-541D01*
G37*
G36*
G01X47488Y181100D02*
G03X47459Y181660I-1588J200D01*
G02X47849Y182150I390J90D01*
G01X57592D01*
G02X57875Y181467I0J-400D01*
G01X57058Y180650D01*
X47884D01*
G02X47488Y181100I0J400D01*
G37*
G36*
G01X47496Y206420D02*
G03X47384Y206900I-1596J-120D01*
G02X47754Y207450I371J150D01*
G01X57392D01*
G02X57675Y206767I0J-400D01*
G01X56958Y206050D01*
X47894D01*
G02X47496Y206420I0J400D01*
G37*
G36*
G01X49000Y314300D02*
Y327300D01*
X50000Y328300D01*
Y341800D01*
X53500D01*
X56000Y339300D01*
X74800D01*
X84000Y348500D01*
X96500D01*
Y333500D01*
X88500D01*
X77000Y322000D01*
Y314300D01*
X49000D01*
G37*
G36*
G01X87000Y36500D02*
X66500D01*
Y44000D01*
X87000D01*
Y36500D01*
G37*
G36*
G01X114600Y51899D02*
Y51698D01*
X114600Y51696D01*
G03X114600Y51673I1900J-20D01*
G01Y49604D01*
X114631Y49573D01*
Y48045D01*
X114628Y48028D01*
G03X114600Y47684I1872J-328D01*
G01X114601Y47601D01*
X114000Y47000D01*
Y39000D01*
X109000Y34000D01*
Y26500D01*
X105500Y23000D01*
X98500D01*
X94500Y27000D01*
Y52000D01*
X112289D01*
X112319Y51990D01*
G03X112901Y51899I582J1809D01*
G01X114600D01*
G37*
G36*
G01X115000Y56700D02*
X110000Y56000D01*
X97000D01*
Y60000D01*
X110000D01*
X115000Y59000D01*
X115400Y58200D01*
X116000Y57100D01*
X116102Y56641D01*
G02X115429Y56271I-390J-87D01*
G01X115000Y56700D01*
G37*
G36*
G01X99000Y329300D02*
Y314800D01*
X85500D01*
Y323500D01*
X91300Y329300D01*
X99000D01*
G37*
G36*
G01X100100Y97600D02*
X122600D01*
Y88100D01*
X100100D01*
Y97600D01*
G37*
G36*
G01X100000Y161400D02*
Y166600D01*
X102000D01*
Y161400D01*
X100000D01*
G37*
G36*
G01X102000Y175100D02*
Y169900D01*
X100000D01*
Y175100D01*
X102000D01*
G37*
G36*
G01Y184100D02*
Y178900D01*
X100000D01*
Y184100D01*
X102000D01*
G37*
G36*
G01X118588Y53570D02*
G02X118400Y53769I12J200D01*
G01Y53773D01*
G03X118400Y53799I-1900J28D01*
G01Y56887D01*
X118400Y58400D01*
X121200Y61200D01*
Y64500D01*
X121300Y64600D01*
X129000D01*
Y54500D01*
X124000D01*
X123000Y53000D01*
X119829D01*
G03X118588Y53570I-1360J-1327D01*
G37*
G36*
G01X127800Y184200D02*
Y179000D01*
X125800D01*
Y184200D01*
X127800D01*
G37*
G36*
G01X132477Y200475D02*
X132449Y200484D01*
G03X132000Y200550I-449J-1484D01*
G01X125625D01*
G02X125484Y200892I0J200D01*
G01X125842Y201250D01*
X132000D01*
G03X132449Y201316I0J1550D01*
G01X132477Y201325D01*
X140900D01*
Y200475D01*
X132477D01*
G37*
G36*
G01X119500Y343000D02*
X126500Y350000D01*
X128500D01*
Y340000D01*
X127500Y338500D01*
Y332500D01*
X119500D01*
Y343000D01*
G37*
G36*
G01X140577Y152975D02*
X134727D01*
G02X134444Y153658I0J400D01*
G01X135011Y154225D01*
X140574D01*
G02X140971Y153777I0J-400D01*
G03X140973Y153427I1390J-168D01*
G02X140577Y152975I-397J-52D01*
G37*
G36*
G01X140000Y204275D02*
Y205325D01*
X148440D01*
G02X148839Y204895I0J-400D01*
G03X148838Y204701I1396J-104D01*
G02X148439Y204275I-399J-26D01*
G01X140000D01*
G37*
G36*
G01X132477Y208275D02*
X132449Y208284D01*
G03X132000Y208350I-449J-1484D01*
G01X131725D01*
G02X131584Y208692I0J200D01*
G01X132041Y209149D01*
X132115Y209154D01*
G03X132449Y209216I-115J1546D01*
G01X132477Y209225D01*
X140564D01*
G02X140963Y208803I0J-400D01*
G03X140962Y208687I1398J-75D01*
G02X140562Y208275I-400J-12D01*
G01X132477D01*
G37*
G36*
G01X138000Y315500D02*
Y329500D01*
X147000D01*
X147500Y330000D01*
X148000D01*
Y330500D01*
X150500Y333000D01*
Y343500D01*
X141500Y352500D01*
X138000D01*
X133651Y352500D01*
G02X133274Y353035I0J400D01*
G03X133384Y353673I-1790J639D01*
G01Y357500D01*
X135000D01*
Y370000D01*
X137500Y372500D01*
X155500D01*
X158000Y370000D01*
Y317500D01*
X156000Y315500D01*
X138000D01*
G37*
G36*
G01X133000Y329500D02*
Y315500D01*
X128000D01*
Y329500D01*
X128278Y330500D01*
X129500D01*
Y334901D01*
X130115Y337112D01*
G02X130885I385J-107D01*
G01X133000Y329500D01*
G37*
G36*
G01X136000Y350500D02*
Y348500D01*
X137500Y346500D01*
X140500D01*
X146000Y341500D01*
Y332000D01*
X134500D01*
Y338000D01*
X132500Y340000D01*
Y350500D01*
X136000D01*
G37*
G36*
G01X151719Y149575D02*
X151708Y149763D01*
G03X151278Y150716I-1472J-91D01*
G01X149019Y152975D01*
X148083D01*
G02X147687Y153427I0J400D01*
G03X147688Y153777I-1388J182D01*
G02X148086Y154225I397J48D01*
G01X152385D01*
G02X152782Y153777I0J-400D01*
G03X153814Y152256I1390J-168D01*
G02X153995Y151586I-102J-387D01*
G01X152671Y150262D01*
X152834Y150099D01*
X152809Y149990D01*
G03X152775Y149762I1364J-318D01*
G01X152763Y149575D01*
X151719D01*
G37*
G36*
G01X152247Y164500D02*
X148500D01*
X148000Y165000D01*
Y194500D01*
X148500Y195000D01*
X156000D01*
X156500Y194500D01*
Y165000D01*
X156000Y164500D01*
X152856D01*
X152552Y164804D01*
X152247Y164500D01*
G37*
G36*
G01X178839Y159791D02*
G02X178738Y160449I169J363D01*
G03X176851I-944J1035D01*
G02X176750Y159791I-269J-296D01*
G03X175791Y159000I1044J-2244D01*
G01X172500D01*
X172000Y158500D01*
Y151500D01*
X167500D01*
Y171700D01*
X167500Y174700D01*
X167500Y175500D01*
X199500D01*
Y148000D01*
X199000Y147500D01*
X195500D01*
X195000Y148000D01*
Y151000D01*
X194500Y151500D01*
X183300D01*
Y155900D01*
X183300Y158900D01*
X183300Y159000D01*
X179798D01*
G03X178839Y159791I-2004J-1453D01*
G37*
G36*
G01X200775Y194500D02*
Y194911D01*
X199311Y196375D01*
X195100D01*
Y198400D01*
X192100D01*
Y196375D01*
X191400D01*
G02X191001Y196807I0J400D01*
G03X188210I-1396J110D01*
G02X187811Y196375I-399J-31D01*
G01X187463D01*
G02X187064Y196807I0J400D01*
G03X184273I-1396J110D01*
G02X183874Y196375I-399J-31D01*
G01X179589D01*
G02X179190Y196807I0J400D01*
G03X176399I-1396J110D01*
G02X176000Y196375I-399J-31D01*
G01X175652D01*
G02X175253Y196807I0J400D01*
G03X172462I-1396J110D01*
G02X172063Y196375I-399J-31D01*
G01X171400D01*
Y198400D01*
X169075D01*
Y198411D01*
X167248Y200238D01*
X167294Y200359D01*
G03X167383Y200909I-1310J494D01*
G02X167782Y201325I400J16D01*
G01X172059D01*
G02X172458Y200909I0J-400D01*
G03X175257I1399J-55D01*
G02X175656Y201325I400J16D01*
G01X175996D01*
G02X176395Y200909I0J-400D01*
G03X179194I1399J-55D01*
G02X179593Y201325I400J16D01*
G01X183870D01*
G02X184269Y200909I0J-400D01*
G03X187068I1399J-55D01*
G02X187467Y201325I400J16D01*
G01X187807D01*
G02X188206Y200909I0J-400D01*
G03X191005I1399J-55D01*
G02X191404Y201325I400J16D01*
G01X201489D01*
X201625Y201189D01*
Y195389D01*
X201831Y195183D01*
G02X201548Y194500I-283J-283D01*
G01X200775D01*
G37*
G36*
G01X234901Y3401D02*
X231500Y0D01*
X177500D01*
X174000Y3500D01*
Y42000D01*
X178000Y46000D01*
X232000D01*
X235500Y42500D01*
Y4749D01*
G03X234900Y3485I1000J-1249D01*
G01X234901Y3401D01*
G37*
G36*
G01X178003Y151060D02*
X177911Y151068D01*
G03X177762Y151072I-116J-1395D01*
G02X177558Y151272I-5J200D01*
G01Y151741D01*
G02X177923Y152140I400J0D01*
G03X179270Y153609I-128J1470D01*
G01Y154794D01*
G03X179145Y155387I-1475J0D01*
G01X179090Y155512D01*
X179270Y155692D01*
Y157546D01*
G03X179269Y157588I-1475J0D01*
G02X179669Y158000I400J11D01*
G01X182300D01*
Y151465D01*
G02X181862Y151066I-400J0D01*
G03X180408Y150128I-131J-1394D01*
G02X179746Y149975I-378J130D01*
G01X178332Y151389D01*
X178003Y151060D01*
G37*
G36*
G01X221525Y200075D02*
X214289D01*
X211752Y197539D01*
Y196916D01*
G03X211777Y196648I1475J0D01*
G02X211384Y196175I-393J-73D01*
G01X206900D01*
Y198300D01*
X205568D01*
X205554Y198302D01*
G03X205153I-201J-1386D01*
G01X205139Y198300D01*
X204575D01*
Y202411D01*
X202711Y204275D01*
X199276D01*
G02X198877Y204701I0J400D01*
G03X198876Y204895I-1397J90D01*
G02X199275Y205325I399J30D01*
G01X211432D01*
G02X211831Y204895I0J-400D01*
G03X211841Y204596I1396J-105D01*
G01X211855Y204498D01*
X211618Y204261D01*
X213739Y202139D01*
X215861Y204261D01*
X215480Y204642D01*
G02X215762Y205325I283J283D01*
G01X216989D01*
X217625Y204689D01*
Y203489D01*
X219689Y201425D01*
X221489D01*
X221525Y201389D01*
Y200075D01*
G37*
G36*
G01X202900Y192575D02*
Y193148D01*
G02X203583Y193431I400J0D01*
G01X203789Y193225D01*
X213556D01*
G02X213697Y192883I0J-200D01*
G01X213389Y192575D01*
X202900D01*
G37*
G36*
G01X245000Y164600D02*
Y159400D01*
X243000D01*
Y164600D01*
X245000D01*
G37*
G36*
G01X243030Y167150D02*
Y172350D01*
X245030D01*
Y167150D01*
X243030D01*
G37*
G36*
G01X246143Y224650D02*
Y225663D01*
X244810Y226996D01*
G03X243714Y227450I-1096J-1096D01*
G01X243525D01*
G02X243384Y227792I0J200D01*
G01X244642Y229050D01*
X244779Y228955D01*
G03X245800Y228638I1021J1483D01*
G01X246258D01*
Y226338D01*
X248358D01*
Y228976D01*
G03Y231900I-1050J1462D01*
G01Y233450D01*
X250982D01*
Y231578D01*
G03X250482Y230438I1050J-1140D01*
G01Y226024D01*
X250750Y225756D01*
Y224742D01*
X250658Y224650D01*
X246143D01*
G37*
G36*
G01X285500Y11000D02*
X279000D01*
X275500Y14500D01*
Y21000D01*
X281500Y27000D01*
X287500D01*
X291000Y23500D01*
X295000D01*
X297500Y26000D01*
Y26013D01*
X298050Y26563D01*
X298500Y26113D01*
Y26000D01*
X299000Y24000D01*
Y19500D01*
X290500D01*
X288500Y17500D01*
Y14000D01*
X285500Y11000D01*
G37*
G36*
G01X294131Y41506D02*
G03X294465Y40430I1900J0D01*
G01X294500Y40379D01*
Y40000D01*
X273000D01*
X271500Y41500D01*
Y51500D01*
X277500Y57500D01*
X285500D01*
X288000Y55000D01*
Y49700D01*
X294131Y43569D01*
Y41506D01*
G37*
G36*
G01X300836Y24904D02*
X300727Y26493D01*
X300921Y26620D01*
X302117Y26333D01*
X302350Y26100D01*
X303085D01*
X303500Y26000D01*
X310500D01*
Y22000D01*
X308000Y19500D01*
X301000D01*
Y24246D01*
X300836Y24904D01*
G37*
G36*
G01X332500Y49000D02*
Y57000D01*
X344000D01*
Y49000D01*
X332500D01*
G37*
G36*
G01X346500Y96328D02*
Y95000D01*
X343500D01*
X341000Y97500D01*
X333587D01*
X333500Y97587D01*
Y108000D01*
X346500Y121000D01*
X378000D01*
X383000Y116000D01*
Y98000D01*
X369000D01*
Y108500D01*
X368000Y109500D01*
X354000D01*
X346500Y102000D01*
Y96329D01*
X346500Y96328D01*
G37*
G36*
G01X368694Y28014D02*
G02X368311Y27500I-383J-114D01*
G01X363500D01*
Y31500D01*
X362500Y32500D01*
X358000D01*
X356000Y30500D01*
X338500D01*
X335500Y33500D01*
Y39000D01*
X340500Y44000D01*
X349500D01*
X354000Y48500D01*
Y57000D01*
X369000D01*
Y38687D01*
X368616Y38303D01*
Y28555D01*
G03X368694Y28014I1900J0D01*
G37*
G36*
G01X355500Y89950D02*
Y88000D01*
X356500Y87000D01*
X366500D01*
Y76500D01*
X354500D01*
X348500Y82500D01*
Y90000D01*
X351647D01*
X351668Y89996D01*
G03X352098Y89950I430J2005D01*
G01X355500D01*
G37*
G36*
G01X348500Y94000D02*
Y95500D01*
X352500Y99500D01*
Y101500D01*
X356500Y105500D01*
X366000D01*
Y94000D01*
X357899D01*
X357849Y94050D01*
X352098D01*
G03X351668Y94004I0J-2050D01*
G01X351647Y94000D01*
X348500D01*
G37*
G36*
G01X372500Y162000D02*
X370500D01*
X367500Y165000D01*
X357500D01*
X354500Y162000D01*
X347500D01*
X345000Y164500D01*
Y172500D01*
X347500Y175000D01*
X367000D01*
X372500Y169500D01*
Y162000D01*
G37*
G36*
G01X365999Y92000D02*
X368000D01*
Y92667D01*
X369000Y93000D01*
X383000D01*
Y88500D01*
X369000D01*
X363986Y90589D01*
G02X364014Y91338I154J369D01*
G01X365999Y92000D01*
G37*
G36*
G01X376500Y126500D02*
X360000D01*
Y133000D01*
X367000D01*
X369500Y135500D01*
X374000D01*
X376500Y133000D01*
Y126500D01*
G37*
G36*
G01X367500Y151500D02*
X371000Y155000D01*
X373000D01*
Y151000D01*
X371000Y149000D01*
Y142500D01*
X363000D01*
Y151500D01*
X367500D01*
G37*
G36*
G01X374384Y29726D02*
X382500Y34500D01*
X397500D01*
Y27500D01*
X374689D01*
G02X374306Y28014I0J400D01*
G03X374384Y28555I-1821J541D01*
G01Y29726D01*
G37*
G36*
G01X381500Y57000D02*
Y39000D01*
X379900Y35600D01*
X373000Y31500D01*
X372416D01*
Y32436D01*
X374000Y36000D01*
Y57000D01*
X381500D01*
G37*
G36*
G01X434000Y209500D02*
Y205500D01*
X386000D01*
X383500Y208000D01*
Y213000D01*
X385500Y215000D01*
X392000D01*
X398000Y221000D01*
X443000D01*
Y209500D01*
X441084D01*
G02X440699Y210009I0J400D01*
G03X440742Y210489I-1258J355D01*
G01X440741Y210499D01*
Y214364D01*
X438141D01*
Y210499D01*
X438140Y210489D01*
G03X438183Y210009I1301J-126D01*
G02X437798Y209500I-385J-109D01*
G01X434000D01*
G37*
G36*
G01X436000Y20000D02*
X425000D01*
X411000Y34000D01*
Y77500D01*
X433000D01*
X434000Y76500D01*
X480500D01*
Y61000D01*
X436500D01*
X431000Y55500D01*
Y46500D01*
X442000Y35500D01*
Y26000D01*
X436000Y20000D01*
G37*
G36*
G01X432800Y180800D02*
X430000Y178000D01*
X416700D01*
Y184700D01*
X429000Y197000D01*
X434000D01*
Y193500D01*
X437500D01*
Y189400D01*
X432800Y184700D01*
Y180800D01*
G37*
%LPC*%
G75*
G36*
G01X196000Y164100D02*
X195100D01*
Y163900D01*
X192100D01*
Y166900D01*
X195100D01*
Y166700D01*
X196000D01*
Y166900D01*
X199000D01*
Y163900D01*
X196000D01*
Y164100D01*
G37*
G36*
G01X183100Y166900D02*
X183300D01*
Y163900D01*
X180300D01*
Y166900D01*
X180500D01*
Y167800D01*
X180300D01*
Y170800D01*
X183300D01*
Y167800D01*
X183100D01*
Y166900D01*
G37*
G36*
G01X184300Y165716D02*
Y166900D01*
X187300D01*
Y163900D01*
X184300D01*
Y165124D01*
X184296Y165144D01*
G02Y165697I1373J276D01*
G01X184300Y165716D01*
G37*
G36*
G01X172500Y169701D02*
Y170800D01*
X175500D01*
Y167800D01*
X172500D01*
Y169014D01*
X172494Y169037D01*
G02Y169678I1363J321D01*
G01X172500Y169701D01*
G37*
G36*
G01X184300Y169654D02*
Y170800D01*
X187300D01*
Y167800D01*
X184300D01*
Y169062D01*
X184296Y169081D01*
G02Y169634I1373J277D01*
G01X184300Y169654D01*
G37*
G36*
G01X176400Y173419D02*
Y174700D01*
X179400D01*
Y171700D01*
X176400D01*
Y173170D01*
X176399Y173178D01*
G02Y173410I1395J116D01*
G01X176400Y173419D01*
G37*
G36*
G01X223901Y38448D02*
X223129Y39220D01*
G02X225356Y42246I1344J1344D01*
G02X225251Y38448I-105J-1897D01*
G01X223901D01*
G37*
G36*
G01X220871Y13112D02*
G02X219670Y14898I-1468J309D01*
G03X220132Y15209I71J394D01*
G02X220543Y15964I1468J-309D01*
G03X220459Y16596I-282J284D01*
G02X222503Y18644I742J1304D01*
G03X223197I347J198D01*
G02Y17156I1303J-744D01*
G03X222503I-347J-198D01*
G02X222257Y16836I-1303J744D01*
G03X222342Y16204I282J-284D01*
G02X221334Y13424I-741J-1304D01*
G03X220871Y13112I-71J-394D01*
G37*
G36*
G01X222823Y26564D02*
G02X222007Y27869I-1500J-30D01*
G03X222586Y28273I182J356D01*
G02X223129Y29846I1886J229D01*
G01X224883Y31600D01*
X225800D01*
G02X227385Y28652I0J-1900D01*
G03X227699Y28032I334J-221D01*
G02X226198Y27005I-77J-1498D01*
G01X226236Y27122D01*
X226008Y27350D01*
X225816Y27159D01*
G02X223440Y26907I-1344J1344D01*
G03X222823Y26564I-217J-336D01*
G37*
G36*
G01X224220Y8123D02*
X223849Y7751D01*
X222151Y9448D01*
X223849Y11146D01*
X223971Y11023D01*
X224083Y11053D01*
G02X224315Y8113I390J-1449D01*
G01X224220Y8123D01*
G37*
G36*
G01X208192Y28144D02*
G02X206787Y29798I-1492J156D01*
G03X207208Y30156I23J399D01*
G02X210003Y30744I1492J-155D01*
G03X210697I347J198D01*
G02X211437Y31391I1303J-744D01*
G03X211670Y31879I-150J371D01*
G02X213667Y30928I1434J440D01*
G03X213434Y30440I150J-371D01*
G02X210697Y29256I-1434J-440D01*
G03X210003I-347J-198D01*
G02X208613Y28502I-1303J744D01*
G03X208192Y28144I-23J-399D01*
G37*
G36*
G01X213875Y36538D02*
X213005Y37408D01*
G02X215442Y40306I1344J1344D01*
G01X215471Y40285D01*
X215514Y40274D01*
G02X216065Y40028I-490J-1836D01*
G03X216682Y40405I219J335D01*
G02X217468Y39240I1492J159D01*
G03X216887Y38809I-188J-353D01*
G02X216557Y37315I-1864J-371D01*
G03X216879Y36679I323J-236D01*
G01X217408D01*
X218295Y35792D01*
G02X215807Y32932I-1344J-1344D01*
G02X214429Y34249I447J1847D01*
G01X214422Y34271D01*
X214416Y34293D01*
G02X214720Y35901I1837J486D01*
G03X214398Y36538I-323J236D01*
G01X213875D01*
G37*
G36*
G01X209167Y36083D02*
G03X209062Y36694I-302J262D01*
G02X210933Y37016I738J1306D01*
G03X211038Y36406I302J-262D01*
G02X209167Y36083I-738J-1306D01*
G37*
G36*
G01X203498Y32248D02*
X202312Y33435D01*
G02X204999Y36122I1344J1344D01*
G01X205075Y36046D01*
X205146Y36039D01*
G02X204952Y32248I-194J-1890D01*
G01X203498D01*
G37*
G36*
G01X209722Y18800D02*
X211298Y17225D01*
G02X208611Y14538I-1344J-1344D01*
G01X208025Y15123D01*
X207987Y15139D01*
G02X208700Y18800I713J1761D01*
G01X209722D01*
G37*
G36*
G01X210596Y7306D02*
G02X207846Y5951I-1871J330D01*
G01X206633Y6584D01*
G02X208049Y9752I1415J1268D01*
G01X209296D01*
X209326Y9722D01*
G03X210003Y9935I283J283D01*
G02X212632Y11347I1871J-330D01*
G02X212552Y7548I-81J-1898D01*
G01X211240D01*
G03X210596Y7306I-250J-312D01*
G37*
G36*
G01X198466Y39300D02*
X198100D01*
Y39630D01*
X198062Y39682D01*
G02X198100Y41496I1214J881D01*
G01Y44100D01*
X200500D01*
Y41430D01*
G02X200533Y39745I-1225J-867D01*
G01X200500Y39695D01*
Y39300D01*
X200086D01*
X200038Y39272D01*
G02X198513I-763J1292D01*
G01X198466Y39300D01*
G37*
G36*
G01X200948Y26234D02*
X200600D01*
Y24800D01*
X198200D01*
Y27457D01*
G02X198150Y29494I1076J1046D01*
G01X198200Y29551D01*
Y29600D01*
X198251D01*
X198306Y29648D01*
G02X200298Y29600I969J-1145D01*
G01X200600D01*
Y29208D01*
X200621Y29166D01*
G02Y27838I-1345J-664D01*
G01X200600Y27797D01*
Y26834D01*
X200948D01*
X200991Y26975D01*
G02X201256Y27474I1434J-441D01*
G01X201300Y27528D01*
Y27700D01*
X201479D01*
X201532Y27740D01*
G02X203318I893J-1206D01*
G01X203371Y27700D01*
X203700D01*
Y27326D01*
X203727Y27280D01*
G02X203700Y25743I-1301J-746D01*
G01Y22900D01*
X201300D01*
Y25542D01*
G02X200991Y26093I1125J992D01*
G01X200948Y26234D01*
G37*
G36*
G01X198339Y5900D02*
X198200D01*
Y6039D01*
X198155Y6094D01*
G02Y8106I1245J1006D01*
G01X198200Y8161D01*
Y8556D01*
X198150Y8613D01*
G02Y10596I1126J992D01*
G01X198200Y10653D01*
Y10700D01*
X198248D01*
X198304Y10748D01*
G02X200301Y10700I972J-1143D01*
G01X200600D01*
Y10310D01*
X200621Y10269D01*
G02Y8941I-1345J-664D01*
G01X200600Y8899D01*
Y8158D01*
G02X200645Y6094I-1200J-1058D01*
G01X200600Y6039D01*
Y5900D01*
X200461D01*
X200406Y5855D01*
G02X198394I-1006J1245D01*
G01X198339Y5900D01*
G37*
G36*
G01X189225Y33036D02*
G02Y31601I-1318J-718D01*
G01X189200Y31557D01*
Y31300D01*
X189011D01*
X188953Y31243D01*
G02X186861I-1046J1076D01*
G01X186803Y31300D01*
X186800D01*
Y31304D01*
X186754Y31360D01*
G02X186800Y33331I1153J959D01*
G01Y36100D01*
X189200D01*
Y35999D01*
G03X189907Y35742I400J0D01*
G02X189948Y35789I1150J-964D01*
G01X190000Y35846D01*
Y35900D01*
X190058D01*
X190113Y35945D01*
G02X192053Y35900I944J-1166D01*
G01X192400D01*
Y35448D01*
X192419Y35408D01*
G02Y34150I-1362J-629D01*
G01X192400Y34110D01*
Y32677D01*
X192742D01*
X192789Y32811D01*
G02X193100Y33332I1417J-492D01*
G01Y36200D01*
X195500D01*
Y36000D01*
G03X196207Y35743I400J0D01*
G02X196248Y35790I1149J-965D01*
G01X196300Y35847D01*
Y35900D01*
X196357D01*
X196412Y35945D01*
G02X198352Y35900I944J-1166D01*
G01X198700D01*
Y35446D01*
X198718Y35406D01*
G02Y34151I-1363J-628D01*
G01X198700Y34111D01*
Y31100D01*
X196300D01*
Y33713D01*
G02X196207Y33814I1056J1065D01*
G03X195500Y33557I-306J-257D01*
G01Y33080D01*
X195524Y33035D01*
G02Y31603I-1318J-716D01*
G01X195500Y31558D01*
Y31400D01*
X195396D01*
X195336Y31331D01*
G02X193096Y31310I-1129J987D01*
G03X192405Y31100I-296J-269D01*
G01X190000D01*
Y33714D01*
G02X189907Y33815I1057J1065D01*
G03X189200Y33558I-307J-257D01*
G01Y33081D01*
X189225Y33036D01*
G37*
G36*
G01X186000Y30800D02*
X183600D01*
Y33825D01*
G02X186000Y33938I1158J954D01*
G01Y30800D01*
G37*
G36*
G01X181028Y41922D02*
X181152Y42046D01*
X182849Y40349D01*
X181152Y38651D01*
X180706Y39096D01*
X180606Y39081D01*
G02X180907Y41968I-228J1483D01*
G01X181028Y41922D01*
G37*
G36*
G01X187258Y41952D02*
X187452Y42146D01*
X189149Y40449D01*
X187452Y38751D01*
X187086Y39116D01*
X186981Y39095D01*
G02X187142Y41990I-303J1469D01*
G01X187258Y41952D01*
G37*
G36*
G01X189225Y14139D02*
G02Y12704I-1318J-718D01*
G01X189200Y12659D01*
Y12500D01*
X189094D01*
X189035Y12432D01*
G02X186800Y14434I-1128J990D01*
G01Y17300D01*
X187446D01*
G03X187775Y17928I0J400D01*
G02X187376Y19957I2125J1472D01*
G01X187380Y19978D01*
Y20200D01*
X186995D01*
X186975Y20196D01*
G02X186379I-298J1470D01*
G01X186359Y20200D01*
X186096D01*
Y19974D01*
X186102Y19950D01*
G02X185593Y17653I-2502J-650D01*
G03X185660Y17079I308J-255D01*
G02X185803Y16957I-903J-1198D01*
G01X185861Y16900D01*
X186000D01*
Y16724D01*
X186030Y16675D01*
G02X186000Y15041I-1273J-794D01*
G01Y12100D01*
X183600D01*
Y14927D01*
G02X183295Y15546I1158J954D01*
G01X183260Y15702D01*
X182900D01*
Y14183D01*
G02X182925Y12702I-1292J-762D01*
G01X182900Y12658D01*
Y12400D01*
X182710D01*
X182651Y12344D01*
G02X180564I-1043J1078D01*
G01X180506Y12400D01*
X180500D01*
Y12407D01*
X180454Y12463D01*
G02X180500Y14433I1154J958D01*
G01Y17194D01*
X179952Y17742D01*
G02X181970Y22148I1828J1828D01*
G03X182400Y22547I29J399D01*
G01Y25545D01*
G02X182069Y26184I1128J989D01*
G03X181768Y26307I-194J-47D01*
G02X181600Y26210I-1368J2193D01*
G01Y24900D01*
X179200D01*
Y25915D01*
X178250D01*
G02Y31085I0J2585D01*
G01X179900D01*
G03X180260Y31661I0J400D01*
G02X180500Y33330I1348J658D01*
G01Y33900D01*
X182900D01*
Y33081D01*
G02X182925Y31600I-1292J-762D01*
G01X182900Y31555D01*
Y31500D01*
X182869D01*
X182809Y31420D01*
G02X182302Y30989I-1201J899D01*
G03X182207Y30348I185J-355D01*
G02X182985Y28438I-1807J-1848D01*
G03X183414Y28030I400J-10D01*
G02X184420Y27740I113J-1496D01*
G01X184474Y27700D01*
X184800D01*
Y27330D01*
X184827Y27284D01*
G02X184800Y25740I-1299J-750D01*
G01Y21746D01*
X185170D01*
X185198Y21913D01*
G02X185500Y22596I1480J-247D01*
G01Y27573D01*
G02X185462Y29382I1177J930D01*
G01X185500Y29434D01*
Y29800D01*
X185923D01*
X185967Y29824D01*
G02X187387I710J-1322D01*
G01X187431Y29800D01*
X187900D01*
Y29373D01*
X187933Y29323D01*
G02X187900Y27634I-1256J-821D01*
G01Y22535D01*
G02X188176Y21724I-1223J-869D01*
G03X188486Y21564I200J8D01*
G02X188700Y21690I1415J-2164D01*
G01Y25544D01*
G02X188656Y27472I1127J990D01*
G01X188700Y27527D01*
Y27800D01*
X189021D01*
X189067Y27828D01*
G02X190586I759J-1294D01*
G01X190633Y27800D01*
X191100D01*
Y27329D01*
X191127Y27282D01*
G02X191100Y25741I-1300J-749D01*
G01Y22327D01*
X191276Y22306D01*
G02X192794Y21562I-316J-2566D01*
G02X194570Y22098I1586J-2042D01*
G03X195000Y22497I29J399D01*
G01Y25543D01*
G02X194691Y26095I1126J991D01*
G01X194648Y26236D01*
X194300D01*
Y24900D01*
X191900D01*
Y27458D01*
G02X191850Y29493I1077J1045D01*
G01X191900Y29550D01*
Y29700D01*
X192071D01*
X192122Y29736D01*
G02X193880Y29700I854J-1233D01*
G01X194300D01*
Y29210D01*
X194321Y29168D01*
G02Y27837I-1345J-665D01*
G01X194300Y27795D01*
Y26831D01*
X194648D01*
X194691Y26973D01*
G02X194956Y27473I1435J-439D01*
G01X195000Y27528D01*
Y27800D01*
X195320D01*
X195367Y27828D01*
G02X196885I759J-1294D01*
G01X196932Y27800D01*
X197400D01*
Y27328D01*
X197427Y27281D01*
G02X197400Y25742I-1301J-747D01*
G01Y21690D01*
G02X197582Y21585I-1200J-2290D01*
G01X197718Y21499D01*
X197919Y21700D01*
X199800D01*
G02X201000Y21440I0J-2900D01*
G02X202200Y21700I1200J-2640D01*
G01X204065D01*
X204089Y21873D01*
G02X206125Y20271I1486J-207D01*
G03X205907Y19735I147J-372D01*
G02X205412Y16606I-2647J-1185D01*
G02X204999Y14538I-1757J-724D01*
G01X204361Y13900D01*
X199900D01*
G02X198484Y14533I0J1900D01*
G01X198424Y14600D01*
X198138D01*
X198092Y14574D01*
G02X196620I-736J1307D01*
G01X196574Y14600D01*
X196300D01*
Y14813D01*
X196248Y14870D01*
G02X195916Y16302I1108J1011D01*
G03X195532Y16815I-384J112D01*
G01X193429D01*
X192560Y17684D01*
X192118Y17242D01*
G03X192259Y16900I141J-141D01*
G01X192400D01*
Y16550D01*
X192419Y16510D01*
G02Y15252I-1362J-629D01*
G01X192400Y15212D01*
Y13779D01*
X192742D01*
X192789Y13913D01*
G02X193054Y14381I1417J-492D01*
G01X193100Y14437D01*
Y14500D01*
X193161D01*
X193218Y14550D01*
G02X195195I988J-1128D01*
G01X195251Y14500D01*
X195500D01*
Y14182D01*
X195524Y14138D01*
G02Y12705I-1318J-716D01*
G01X195500Y12660D01*
Y12376D01*
X195567Y12316D01*
G02X195446Y9384I-1267J-1416D01*
G01X195435Y9376D01*
X194320Y8261D01*
G02X191633Y10948I-1344J1344D01*
G01X192101Y11417D01*
G03X191819Y12100I-283J283D01*
G01X190000D01*
Y14816D01*
G02X189907Y14918I1057J1065D01*
G03X189200Y14661I-307J-257D01*
G01Y14184D01*
X189225Y14139D01*
G37*
G36*
G01X179647Y7648D02*
X179034Y8261D01*
G02X181011Y11396I1344J1344D01*
G01X181130Y11354D01*
X181223Y11447D01*
G02X181152Y7648I-71J-1899D01*
G01X179647D01*
G37*
G54D96*
X150300Y173300D03*
X150200Y169300D03*
X154200D03*
X193600Y173200D03*
X189700Y173300D03*
X193600Y169400D03*
X197500D03*
X185700Y173300D03*
X170000Y173200D03*
Y169300D03*
Y157500D03*
G54D98*
X228852Y34779D03*
X222553D03*
X218173Y28502D03*
X225702Y13421D03*
X227622Y19540D03*
X218173Y21666D03*
X227622Y7636D03*
X205575Y40564D03*
X206805Y13421D03*
X213104D03*
X211874Y21666D03*
X215024Y26534D03*
Y19540D03*
X216254Y15881D03*
X192976Y40564D03*
X186677Y9605D03*
G54D89*
X148300Y323700D03*
G54D108*
X231449Y14052D03*
G54D97*
X154172Y185106D03*
X150235Y189042D03*
Y177232D03*
Y185106D03*
X154172Y189042D03*
Y173294D03*
X197480D03*
X189606Y161484D03*
Y165420D03*
X193542Y161484D03*
X197480D03*
X189606Y169358D03*
Y157546D03*
X197480Y153609D03*
Y157546D03*
X193542D03*
X177794Y169358D03*
X181732Y173294D03*
X173858D03*
X177794Y165420D03*
X181732Y161484D03*
X173858D03*
Y165420D03*
X185668Y153609D03*
X169920Y161484D03*
Y165420D03*
%LPD*%
G75*
G54D10*
X0Y0D03*
Y370000D03*
X470000Y0D03*
Y370000D03*
G54D20*
X45634Y347111D03*
X43921D03*
X47346Y345489D03*
Y347111D03*
X45634Y345489D03*
X43921D03*
X49059Y345513D03*
Y347135D03*
X368941Y24165D03*
Y25787D03*
X374079Y25811D03*
X372366D03*
X370654Y24189D03*
Y25811D03*
X374079Y24189D03*
X372366D03*
G54D11*
X-4200Y20300D03*
X113839Y278957D03*
X114232Y287618D03*
X115020Y274232D03*
X118563Y291161D03*
X126437D03*
X131161Y278957D03*
X129980Y274232D03*
X130768Y287618D03*
X153839Y278957D03*
X155020Y274232D03*
X154232Y287618D03*
X158563Y291161D03*
X171161Y278957D03*
X169980Y274232D03*
X166437Y291161D03*
X170768Y287618D03*
X193839Y278957D03*
X195020Y274232D03*
X194232Y287618D03*
X198563Y291161D03*
X211161Y278957D03*
X209980Y274232D03*
X206437Y291161D03*
X210768Y287618D03*
X450800Y-7890D03*
X450200Y379900D03*
G54D12*
G01X84000Y225800D02*
Y226500D01*
X83000Y227500D01*
G01X101000Y170000D02*
Y166500D01*
G01Y179000D02*
Y175000D01*
G01X263072Y212859D02*
X259259D01*
G01X269528Y207741D02*
X272841D01*
G01X340500Y325800D02*
X338100D01*
G01X340500Y331300D02*
X338100D01*
G01X340500Y336300D02*
X338100D01*
G01X350647Y326647D02*
X352653D01*
G01X346700Y325800D02*
X349800D01*
X350647Y326647D01*
G01X350254Y336490D02*
X352310D01*
G01X346700Y336300D02*
X350064D01*
X350254Y336490D01*
G01X346700Y331300D02*
X350300D01*
G01X340500Y341800D02*
X339200Y343100D01*
X336700D01*
G01X346700Y341800D02*
X350400D01*
G01X354100Y302700D02*
Y300300D01*
G01Y308900D02*
Y313391D01*
X354105Y313396D01*
G01D02*
Y315405D01*
G01Y345305D02*
Y343305D01*
G01X353600Y348700D02*
Y345809D01*
X354105Y345305D01*
G01X353600Y354900D02*
Y357600D01*
G01X375758Y346246D02*
Y343958D01*
G01X375600Y349700D02*
Y346404D01*
X375758Y346246D01*
G01X375600Y355900D02*
Y358500D01*
G01X402400Y325100D02*
X402200D01*
X399400Y322300D01*
X396100D01*
G01X403300Y340200D02*
Y339900D01*
X395900Y332500D01*
G01X403400Y325100D02*
X402400D01*
X-10500Y24000D03*
Y39000D03*
Y54000D03*
Y69500D03*
Y84500D03*
Y99500D03*
Y114500D03*
Y129500D03*
Y144500D03*
Y159500D03*
Y174500D03*
Y189500D03*
Y204500D03*
Y219500D03*
Y234500D03*
Y249500D03*
Y264500D03*
Y279500D03*
Y294500D03*
Y309500D03*
Y324500D03*
Y339500D03*
Y354500D03*
X8000Y24500D03*
Y39000D03*
X8500Y54500D03*
X9000Y70000D03*
X5900Y91300D03*
Y106300D03*
Y121300D03*
Y136300D03*
Y151300D03*
Y166300D03*
Y181300D03*
Y176300D03*
Y186300D03*
Y196300D03*
Y211300D03*
Y226300D03*
Y241300D03*
Y256300D03*
Y261300D03*
Y276300D03*
Y271300D03*
Y266300D03*
X6000Y294500D03*
Y310000D03*
X6500Y324500D03*
X7000Y339500D03*
X18000Y-11000D03*
Y81500D03*
X20900Y96300D03*
Y86300D03*
X15900Y91300D03*
X10900Y96300D03*
Y86300D03*
X20900Y91300D03*
X15900Y86300D03*
X20900Y111300D03*
X15900Y106300D03*
X10900Y111300D03*
X20900Y126300D03*
X15900Y121300D03*
X10900Y126300D03*
X15900D03*
X20900Y141300D03*
X15900Y136300D03*
X10900Y141300D03*
X15900Y131300D03*
X20900Y156300D03*
X15900Y151300D03*
X10900Y156300D03*
X20900Y171300D03*
X15900Y166300D03*
X10900Y171300D03*
X20900Y186300D03*
X15900Y181300D03*
X10900Y186300D03*
Y181300D03*
Y176300D03*
X20900Y201300D03*
X15900Y196300D03*
X10900Y201300D03*
X15900D03*
X20900Y216300D03*
X15900Y211300D03*
X10900Y216300D03*
X20900Y211300D03*
Y206300D03*
X15900D03*
X20900Y231300D03*
X15900Y226300D03*
X10900Y231300D03*
X20900Y221300D03*
Y226300D03*
Y246300D03*
X15900Y241300D03*
X10900Y246300D03*
X20900Y241300D03*
Y236300D03*
Y261300D03*
X15900Y256300D03*
X10900Y261300D03*
X15900D03*
X20900Y256300D03*
Y251300D03*
Y266300D03*
X15900Y271300D03*
X10900Y266300D03*
X15900D03*
X20900Y276300D03*
Y271300D03*
X15900Y276300D03*
X10900D03*
Y271300D03*
X20900Y281300D03*
X10900D03*
X21500Y324500D03*
X22000Y339500D03*
X14500Y355500D03*
X23500Y369000D03*
X16000Y380500D03*
X33000Y-11000D03*
X25000Y10000D03*
Y24500D03*
Y39000D03*
X36000Y62000D03*
Y81000D03*
X35900Y91300D03*
X30900Y96300D03*
Y86300D03*
X25900Y91300D03*
X35900Y96300D03*
Y86300D03*
X30900Y91300D03*
X25900Y86300D03*
X35900Y101300D03*
X30900Y111300D03*
X25900Y106300D03*
X35900D03*
X30900Y126300D03*
X25900Y121300D03*
X30900Y141300D03*
X25900Y136300D03*
X35900Y146300D03*
X30900Y156300D03*
X25900Y151300D03*
X35900Y161300D03*
X30900Y171300D03*
X25900Y166300D03*
X35900Y171300D03*
Y166300D03*
Y176300D03*
X30900Y186300D03*
X25900Y181300D03*
X35900Y186300D03*
Y181300D03*
X25900Y186300D03*
X35900Y191300D03*
X30900Y201300D03*
X25900Y196300D03*
X35900Y201300D03*
Y196300D03*
X25900Y191300D03*
X35900Y206300D03*
X30900Y216300D03*
X25900Y211300D03*
X35900Y221300D03*
X30900Y231300D03*
X25900Y226300D03*
X35900D03*
Y231300D03*
X25900D03*
X35900Y236300D03*
X30900Y246300D03*
X25900Y241300D03*
X35900Y246300D03*
Y241300D03*
X25900Y236300D03*
X35900Y256300D03*
Y251300D03*
X30900Y261300D03*
X25900Y256300D03*
X35900Y261300D03*
Y276300D03*
Y271300D03*
X30900Y266300D03*
X25900Y276300D03*
Y271300D03*
X35900Y266300D03*
X30900Y281300D03*
X25900D03*
X31000Y294500D03*
X36500Y310000D03*
X31000Y380500D03*
X48000Y-11000D03*
X44000Y10000D03*
X47500Y24500D03*
X49500Y39500D03*
X50000Y47500D03*
X51000Y70000D03*
X53000Y62000D03*
X54000Y81500D03*
X50900Y86300D03*
X45900Y96300D03*
Y91300D03*
X40900Y96300D03*
Y86300D03*
Y91300D03*
X50900Y96300D03*
Y91300D03*
Y106300D03*
Y101300D03*
X45900Y111300D03*
X40900Y106300D03*
Y111300D03*
Y101300D03*
X50900Y111300D03*
X45900Y106300D03*
Y101300D03*
X50900Y126300D03*
Y121300D03*
X45900Y116300D03*
X40900Y126300D03*
Y121300D03*
X50900Y116300D03*
X45900Y126300D03*
Y121300D03*
X50900Y141300D03*
X45900Y136300D03*
Y131300D03*
X40900Y141300D03*
X50900Y136300D03*
Y131300D03*
Y146300D03*
X45900Y156300D03*
Y151300D03*
X40900Y146300D03*
X50900Y156300D03*
Y151300D03*
Y166300D03*
Y161300D03*
X45900Y171300D03*
X40900Y166300D03*
Y161300D03*
X50900Y171300D03*
Y186300D03*
Y181300D03*
X45900Y176300D03*
X40900Y186300D03*
Y181300D03*
X45900Y186300D03*
Y181300D03*
X50900Y176300D03*
Y201300D03*
X45900Y196300D03*
Y191300D03*
X40900Y201300D03*
X50900Y196300D03*
Y191300D03*
X45900Y201300D03*
X50900Y206300D03*
X45900Y216300D03*
Y211300D03*
X40900Y206300D03*
X50900Y216300D03*
Y211300D03*
X45900Y206300D03*
X50900Y226300D03*
Y221300D03*
X45900Y231300D03*
X40900Y226300D03*
Y221300D03*
X50900Y231300D03*
X45900Y226300D03*
Y221300D03*
X50900Y246300D03*
Y241300D03*
X45900Y236300D03*
X40900Y246300D03*
Y241300D03*
X50900Y236300D03*
Y261300D03*
X45900Y256300D03*
Y251300D03*
X40900Y261300D03*
X50900Y256300D03*
Y251300D03*
X40900Y256300D03*
Y251300D03*
X50900Y266300D03*
X45900Y276300D03*
Y271300D03*
X40900Y266300D03*
X50900Y276300D03*
Y271300D03*
X40900Y276300D03*
Y271300D03*
X50900Y281300D03*
X40900D03*
X51500Y293500D03*
Y310000D03*
X41200Y352500D03*
X44000Y380500D03*
X63000Y-11000D03*
Y10000D03*
Y24500D03*
X66500Y48500D03*
Y69000D03*
X66000Y109500D03*
X57500Y117500D03*
Y129000D03*
X68000Y139000D03*
X57500D03*
X59500Y161000D03*
X61312Y204088D03*
X64937Y205663D03*
X67462Y207238D03*
X67000Y227000D03*
X64000Y251500D03*
X67500Y279000D03*
X67000Y293500D03*
X66000Y310000D03*
X57500Y342300D03*
Y358300D03*
X59000Y380500D03*
X78000Y-11000D03*
X77500Y10000D03*
X76500Y25000D03*
X78000Y58000D03*
X72000Y82500D03*
X81800Y87100D03*
Y91100D03*
X72500Y111100D03*
X81800D03*
Y106600D03*
X75000Y128500D03*
X76800Y116800D03*
X76000Y144500D03*
X82000Y167000D03*
X71000Y182000D03*
X69300Y201600D03*
X83100Y203900D03*
X69300Y197600D03*
X72650Y199150D03*
X70387Y208813D03*
X82600Y219000D03*
X72600Y219400D03*
X79000Y229200D03*
X83500Y230000D03*
X83000Y227500D03*
X78200Y233500D03*
X76700Y241500D03*
X83400Y244700D03*
X73000Y244000D03*
X76600Y238600D03*
Y250400D03*
X80600Y254400D03*
X80800Y260500D03*
X82500Y279500D03*
Y293500D03*
X74000Y380500D03*
X93000Y-11000D03*
X90500Y11000D03*
X89500Y25500D03*
X96000Y33000D03*
Y28000D03*
Y35500D03*
Y30500D03*
X98500Y33000D03*
X98000Y38000D03*
X89000Y48000D03*
X91500Y58500D03*
X87000Y69500D03*
X93100Y84100D03*
X94600Y82000D03*
X95800Y94100D03*
X91600Y86200D03*
X91800Y94100D03*
X91000Y111100D03*
X95800Y104100D03*
X91800D03*
X95500Y120500D03*
X89500Y129000D03*
X85800Y116800D03*
X91500Y142500D03*
X92000Y182000D03*
X93200Y194000D03*
X97200D03*
X86500Y206500D03*
X90200Y204700D03*
X92000Y219700D03*
X91400Y229300D03*
X93400Y231800D03*
X88100Y229500D03*
X97500Y225800D03*
Y229800D03*
X93000Y246200D03*
X97500Y245500D03*
X89400Y239300D03*
X88600Y241600D03*
X95100Y240100D03*
X86600Y250400D03*
X90600Y254400D03*
X98300Y280100D03*
X89000Y380500D03*
X108000Y-11000D03*
Y11000D03*
X99300Y35500D03*
X100500Y38000D03*
X99300Y40500D03*
X111000Y40000D03*
X100500Y43000D03*
X113232Y50231D03*
X99000Y49000D03*
X108000D03*
X103500D03*
X113000Y43000D03*
X112901Y53799D03*
X108500Y68000D03*
X99000Y77000D03*
X103600Y89100D03*
X106100D03*
X109100D03*
X111600D03*
X105000Y128500D03*
X108000Y139500D03*
X100300Y150400D03*
Y153900D03*
Y145100D03*
X101000Y161500D03*
Y166500D03*
Y175000D03*
Y184000D03*
X101100Y202000D03*
X99900Y199800D03*
X102000Y214200D03*
X101300Y204700D03*
X111700Y207200D03*
X108000Y209200D03*
X102200Y209800D03*
X111000Y213100D03*
X108000Y213800D03*
X104850Y219050D03*
X102000Y259500D03*
X103500Y293500D03*
X110500Y310000D03*
X100800Y333500D03*
X111000Y355000D03*
X104000Y380500D03*
X123000Y-11000D03*
X114000Y22000D03*
X116500Y34000D03*
Y47700D03*
X119500Y70500D03*
X116800Y63600D03*
X115500Y73800D03*
Y77800D03*
Y81800D03*
Y85800D03*
X127500Y102500D03*
Y114500D03*
X128500Y129000D03*
X126000Y119500D03*
X117500Y140000D03*
Y165500D03*
X119500Y184000D03*
X126800Y184100D03*
X121000Y241500D03*
X125100Y272200D03*
Y268600D03*
X119800Y270300D03*
X122500Y270295D03*
X123500Y284000D03*
X114100Y357200D03*
X116000Y355000D03*
X125700Y354000D03*
X119000Y380500D03*
X138000Y-11000D03*
X136000Y22500D03*
X130500Y13500D03*
X134500Y44500D03*
X132500Y70500D03*
X137500Y59000D03*
X132500Y85500D03*
X131500Y114500D03*
Y102500D03*
X139000Y119500D03*
X142400Y125900D03*
X138500D03*
X134800D03*
X130500Y220500D03*
X131500Y241500D03*
X140800Y233900D03*
Y237900D03*
X132500Y260500D03*
X143000Y250000D03*
X136000Y293000D03*
Y310000D03*
X138500Y349500D03*
X132500Y360000D03*
X134000Y380500D03*
X153000Y-11000D03*
X144000Y14000D03*
X155500Y22000D03*
X145000Y33000D03*
X144500Y70500D03*
X148500Y242500D03*
X147500Y260500D03*
X151000Y310000D03*
X148300Y323700D03*
X151000Y380500D03*
X168000Y-11000D03*
X164500Y-2000D03*
X164800Y10000D03*
X168300Y9700D03*
X161000Y17400D03*
X160900Y12200D03*
X161100Y25800D03*
X164700Y23500D03*
X164800Y19600D03*
X170800Y12200D03*
X170600Y25800D03*
Y17400D03*
X167800Y19700D03*
X167700Y23400D03*
X161000Y31000D03*
X164700Y33200D03*
X170600Y31000D03*
X167700Y33400D03*
X166000Y126000D03*
X171800Y263000D03*
X162400D03*
X158400D03*
X167800D03*
X159900Y268500D03*
Y272100D03*
X165100Y270300D03*
X162500Y270295D03*
X166000Y310000D03*
Y356890D03*
X161000Y361500D03*
X166000Y380500D03*
X161000Y371600D03*
X183000Y-11000D03*
X187000Y258500D03*
X179300Y257100D03*
X181200Y263000D03*
X177200D03*
X175300Y257100D03*
X181000Y310000D03*
X173700Y340600D03*
X183500Y361500D03*
X181000Y380500D03*
X183400Y371600D03*
X198000Y-11000D03*
X199400Y7100D03*
X189500Y232600D03*
Y236100D03*
X189800Y256400D03*
X194600Y261000D03*
X198700Y270100D03*
X202500Y274800D03*
X191500Y269500D03*
X202500Y270295D03*
X191500Y293000D03*
X196000Y310000D03*
X195000Y328000D03*
X195500Y350500D03*
X188000Y356890D03*
X196000Y380500D03*
X213000Y-11000D03*
X206900Y60400D03*
X204500Y260400D03*
X210500Y262500D03*
X206000Y269700D03*
X211000Y293000D03*
X203500Y282500D03*
X211000Y310000D03*
X212000Y328000D03*
X217500Y335000D03*
X210500Y350500D03*
X210000Y356890D03*
X205000Y361500D03*
X211000Y380500D03*
X205000Y371600D03*
X228000Y-11000D03*
X232249Y14052D03*
X231300Y124900D03*
X225100Y126000D03*
X225500Y263000D03*
X226700Y268600D03*
Y275700D03*
X221500Y269500D03*
X227200Y281800D03*
X220000Y287500D03*
X227500Y310000D03*
X225200Y321500D03*
X226000Y350500D03*
X226400Y343300D03*
X232000Y356890D03*
X227000Y361500D03*
X226000Y380500D03*
X227000Y371600D03*
X243000Y-11000D03*
X236500Y3500D03*
X240000Y19500D03*
X243000Y33000D03*
X244000Y48500D03*
X244500Y63500D03*
Y79000D03*
Y95000D03*
X244800Y88100D03*
X243000Y90600D03*
X243800Y125000D03*
X246000Y119000D03*
X236500D03*
X240500D03*
X243000Y134000D03*
X241700Y151600D03*
X244000Y159500D03*
Y164500D03*
X244030Y172250D03*
Y167250D03*
X240732Y162000D03*
X240762Y169750D03*
X236934Y184988D03*
X238200Y178700D03*
X246500Y201700D03*
X245400Y193200D03*
X245900Y205700D03*
X238200Y204900D03*
X242000Y205800D03*
X246900Y220500D03*
X240600Y233200D03*
X245800Y230438D03*
X246400Y237300D03*
X240600Y237200D03*
X232500Y260500D03*
X246400Y262900D03*
Y258900D03*
X246100Y253900D03*
X237800Y279200D03*
X237600Y286300D03*
X241000Y310000D03*
X238500Y350500D03*
X237300Y360600D03*
X241000Y380500D03*
X258000Y-11000D03*
X251500Y3500D03*
X255000Y19500D03*
X258000Y33000D03*
X259000Y48500D03*
X259500Y63500D03*
Y79000D03*
X259000Y95500D03*
X257000Y119000D03*
X251600D03*
X260100Y125100D03*
X254800Y125000D03*
X250000D03*
X258000Y134000D03*
Y149000D03*
X257000Y161000D03*
X256500Y171000D03*
X247268Y162000D03*
X247298Y169750D03*
X257300Y194300D03*
X260400Y194400D03*
X254400D03*
X254700Y199200D03*
X254800Y215100D03*
X249500Y204500D03*
X254800Y211300D03*
X259259Y212859D03*
X261700Y218400D03*
X248100Y225400D03*
X250500D03*
X258332Y225632D03*
X251700Y220600D03*
X249000Y254700D03*
X259500Y253700D03*
X250200Y262900D03*
X249400Y268700D03*
X257900Y281900D03*
X258000Y302500D03*
Y316500D03*
X255500Y348900D03*
X248700Y350100D03*
X251000Y352400D03*
X254000Y356890D03*
X249000Y361500D03*
X256000Y380500D03*
X249000Y371600D03*
X273000Y-11000D03*
X266500Y3500D03*
X270000Y19500D03*
X273000Y33000D03*
X274500Y63500D03*
Y79000D03*
X273500Y95500D03*
X266000Y115000D03*
X272000Y109500D03*
X262000Y119000D03*
X273500Y116000D03*
X269500Y120500D03*
X266000Y124000D03*
X273000Y134000D03*
Y149000D03*
X267000Y172000D03*
Y160000D03*
Y165000D03*
Y167000D03*
X263732Y162500D03*
Y169500D03*
X270268D03*
Y162500D03*
X263400Y179400D03*
X265600Y183000D03*
X265700Y218400D03*
X272841Y207741D03*
X275100Y210300D03*
X266700Y259400D03*
X267300Y255700D03*
X276400Y249300D03*
X273700Y251400D03*
X270200Y253600D03*
X265800Y272300D03*
X276000Y266400D03*
X276400Y282400D03*
X276500Y303500D03*
X269000Y316500D03*
X274400Y355100D03*
X266100Y352900D03*
X272000Y356700D03*
Y361500D03*
X271000Y380500D03*
X272000Y371600D03*
X288000Y-11000D03*
X281500Y3500D03*
X289500Y79000D03*
X285000Y109500D03*
X278000D03*
X280600Y115800D03*
X286900Y115700D03*
X280500Y163500D03*
Y173500D03*
X278500Y204000D03*
X277500Y195500D03*
X282800Y241400D03*
X279200Y247300D03*
X281400Y244100D03*
X278400Y271000D03*
X282300Y278200D03*
X280300Y266400D03*
X282200Y286200D03*
X286500Y278800D03*
Y304000D03*
X277000Y356890D03*
X284100Y358800D03*
X286150Y362750D03*
X286000Y380500D03*
X290000Y367700D03*
X288100Y371600D03*
X303000Y-11000D03*
X296500Y3500D03*
X298000Y34025D03*
X294850Y37175D03*
X301150Y34025D03*
X298000Y37175D03*
X294850Y34025D03*
X301150Y37175D03*
X295100Y26300D03*
X298000Y26200D03*
X301100D03*
X297800Y45500D03*
X292600Y43600D03*
X301937Y44737D03*
X298500Y54700D03*
X293500Y61000D03*
X297500Y92500D03*
X292500D03*
Y101000D03*
Y109500D03*
X297500Y100500D03*
Y108000D03*
Y115500D03*
Y124500D03*
X292000D03*
Y116000D03*
X297000Y163500D03*
X304500Y173500D03*
X292000Y255500D03*
X292400Y279000D03*
X292600Y286200D03*
X294000Y316500D03*
X299000Y357400D03*
X301800Y357200D03*
X304600Y357600D03*
X294000Y361500D03*
X301000Y380500D03*
X294100Y371600D03*
X318000Y-11000D03*
X311500Y3500D03*
X318000Y26500D03*
X315000Y44000D03*
X310500Y56500D03*
X311000Y66000D03*
X321000Y95500D03*
X315500Y135000D03*
X316000Y151500D03*
X315000Y163500D03*
X318200Y188200D03*
X320800Y195700D03*
X311000Y316500D03*
X320300Y347200D03*
X319500Y357500D03*
X307500D03*
X311800Y357400D03*
X314500Y361500D03*
X316000Y380500D03*
X314500Y371600D03*
X333000Y-11000D03*
X326500Y3500D03*
X333500Y14000D03*
X333000Y26500D03*
X330000Y44000D03*
X325500Y56500D03*
X331000Y76000D03*
X321500Y80000D03*
X334000Y85000D03*
X324500Y126500D03*
Y143500D03*
X336000Y152000D03*
X332900Y156900D03*
Y169900D03*
Y165900D03*
Y160900D03*
X335500Y204000D03*
X332600Y216300D03*
X329600Y210900D03*
X324050Y205700D03*
X331400Y231800D03*
X325700Y233700D03*
X333800Y226600D03*
X336000Y241500D03*
X328100Y236400D03*
X331900Y235400D03*
X333900Y322200D03*
X336000Y320200D03*
X333100Y316100D03*
X330353Y332553D03*
X332800Y330700D03*
X333900Y325800D03*
X327821Y334521D03*
X336000Y351500D03*
X333800Y346600D03*
X328800Y344900D03*
X325400Y352800D03*
X331000Y380500D03*
X348000Y-11000D03*
X341500Y3500D03*
X348500Y14000D03*
X339000Y66000D03*
X342000Y82500D03*
X350000Y75500D03*
X342000Y93500D03*
X349500Y100000D03*
X337000Y118000D03*
X336500Y135000D03*
X339000Y173500D03*
X336900Y212600D03*
X349158Y250858D03*
Y252858D03*
Y254858D03*
Y256858D03*
X341474Y255826D03*
X341700Y259900D03*
X345100Y265700D03*
X350189Y265489D03*
X343500Y289000D03*
Y302000D03*
X349736Y307454D03*
X339600Y316800D03*
X344754Y312746D03*
X336200Y311900D03*
X338100Y325800D03*
Y331300D03*
Y336300D03*
X350647Y326647D03*
X350254Y336490D03*
X350300Y331300D03*
X337754Y340427D03*
X336700Y343100D03*
X350400Y341800D03*
X349300Y351900D03*
X346000Y380500D03*
X363000Y-11000D03*
X353500Y3500D03*
X360000Y13000D03*
Y30000D03*
X356000Y65500D03*
X355000Y135000D03*
Y152000D03*
X362500Y236000D03*
X351158Y250858D03*
X353157D03*
X355157D03*
Y252858D03*
X353157D03*
X351158D03*
Y254858D03*
X353157D03*
X355157D03*
X353157Y256858D03*
X351158D03*
X355157D03*
X361000Y268000D03*
X352158Y268242D03*
X354000Y284900D03*
Y289400D03*
Y280400D03*
X356073Y301854D03*
X354100Y300300D03*
X362900Y296900D03*
X358042Y299242D03*
X360010Y302090D03*
X365000Y316600D03*
X358600Y320400D03*
X356400Y321900D03*
X360600Y318900D03*
X354105Y315405D03*
Y313396D03*
X358500Y332200D03*
X356300Y333700D03*
X360400Y330900D03*
X352653Y326647D03*
X352310Y336490D03*
X354105Y345305D03*
Y343305D03*
X353600Y357600D03*
X359800Y358000D03*
X358042Y361742D03*
X363947Y360053D03*
X355900Y365400D03*
X361000Y380500D03*
X361979Y368179D03*
X378000Y-11000D03*
X368500Y3500D03*
X375100Y4400D03*
X375500Y65500D03*
X375000Y83500D03*
X379000Y142000D03*
X377100Y158500D03*
X374900D03*
X372700D03*
X378800Y151700D03*
X373500Y178500D03*
X375000Y236000D03*
X373000Y265500D03*
X372600Y284800D03*
X372400Y289800D03*
X377600Y296300D03*
X379695Y301405D03*
X366700Y318700D03*
X368300Y316800D03*
X365916Y313596D03*
X378700Y318600D03*
X380200Y316600D03*
X377100D03*
X365916Y345916D03*
X375758Y346246D03*
Y343958D03*
X366000Y357600D03*
X375600Y358500D03*
X379695Y364305D03*
X377727Y361027D03*
X369853Y363353D03*
X371821Y367021D03*
X367884Y360216D03*
X376000Y380500D03*
X373800Y369300D03*
X393000Y-11000D03*
X386000Y4000D03*
X389000Y56000D03*
X388000Y77000D03*
X390500Y99500D03*
X384500Y159500D03*
X390100Y173600D03*
X388200Y170800D03*
X393500Y187000D03*
X394500Y179600D03*
X392100Y176500D03*
X386500Y198500D03*
X382400Y230700D03*
X387000Y256500D03*
X388100Y274900D03*
X381000Y283000D03*
X388100Y284800D03*
X388233Y279800D03*
Y289800D03*
X386500Y298000D03*
X384800Y303900D03*
X383600Y314800D03*
X384700Y310100D03*
X381664Y313164D03*
X383546Y334521D03*
X383100Y331800D03*
Y322800D03*
X382800Y326100D03*
X394490Y336490D03*
X382884Y328616D03*
X383546Y342395D03*
Y338458D03*
X388000Y353500D03*
X391000Y380500D03*
X381664Y367464D03*
X408000Y-11000D03*
X401000Y4000D03*
X396000Y15000D03*
X406000Y37500D03*
X403000Y57500D03*
X403100Y79000D03*
X406200D03*
X398500Y89000D03*
X405500Y99500D03*
X399500Y131000D03*
X401500Y159500D03*
Y146500D03*
Y175500D03*
X398000Y198500D03*
X403200Y199500D03*
X406900D03*
X399000Y232000D03*
X405000Y261000D03*
X400000Y275500D03*
X399500Y291000D03*
X406100Y312100D03*
X396100Y322300D03*
X400000Y308400D03*
X409600Y322800D03*
Y327400D03*
Y332700D03*
X395900Y332500D03*
X403400Y325100D03*
X403600Y325300D03*
X409600Y337700D03*
Y342600D03*
X396000Y347800D03*
X403300Y340200D03*
X408500Y357500D03*
X399000Y368000D03*
X406000Y380500D03*
X423000Y-11000D03*
X416000Y4000D03*
X411000Y15000D03*
X412000Y90000D03*
X420500Y99500D03*
X418300Y110800D03*
Y105800D03*
X424800D03*
Y110800D03*
X418300Y120800D03*
Y115800D03*
X424800D03*
Y120800D03*
X414500Y131000D03*
X416500Y157100D03*
X419200Y173200D03*
X413000Y175500D03*
X425100Y175000D03*
X417000Y192500D03*
X410500Y199500D03*
X420000Y202800D03*
X415500Y201600D03*
X422500Y262000D03*
X422000Y298000D03*
X422600Y306100D03*
X412700Y298200D03*
X414900Y305400D03*
X414400Y325200D03*
X424500Y324900D03*
X424700Y330200D03*
X417000Y347100D03*
X414400Y340100D03*
X423500Y353000D03*
X416000Y367500D03*
X421000Y380500D03*
X438000Y-11000D03*
X431000Y4000D03*
X426000Y15000D03*
X437000Y100000D03*
X436500Y113000D03*
X431000Y131500D03*
X426000Y146000D03*
X433500Y147500D03*
X433200Y157000D03*
X426500Y166000D03*
X428800Y175000D03*
X427000Y223600D03*
X429000Y247500D03*
X438000Y298500D03*
X426500Y302700D03*
X434500Y312500D03*
X437400Y319300D03*
X427600Y316300D03*
X435000Y341000D03*
X427600Y338800D03*
X438000Y353000D03*
X438500Y367500D03*
X436000Y380500D03*
X453000Y-11000D03*
X446000Y4000D03*
X441000Y15000D03*
X453500Y110000D03*
X446000Y131500D03*
X449500Y146500D03*
X452400Y154500D03*
X450500Y169000D03*
X444600Y173200D03*
X448600Y175400D03*
X452100D03*
X453000Y215500D03*
X442500Y248000D03*
X443100Y258600D03*
X444000Y284500D03*
X451400Y291000D03*
X453500Y304900D03*
X447800Y297900D03*
X453500Y310300D03*
X447100D03*
X453500Y315600D03*
X453000Y334100D03*
X446900D03*
X446100Y350300D03*
X453400Y345500D03*
X447400D03*
X453400Y340400D03*
Y350600D03*
X451000Y368000D03*
X469500Y25000D03*
X456000Y15000D03*
X465000Y40500D03*
X455500Y53000D03*
X459200Y80800D03*
Y84300D03*
X465000Y88500D03*
X459200Y88100D03*
X459210Y96670D03*
X459200Y100200D03*
X459300Y93200D03*
X462000Y108500D03*
X455100Y105500D03*
X459000Y127500D03*
X465500Y121600D03*
X467000Y119500D03*
X468500Y117500D03*
X465000Y147000D03*
X455500Y147500D03*
X468500Y169000D03*
Y185000D03*
X455600Y175400D03*
X455859Y204059D03*
X467900Y201300D03*
Y196300D03*
X467000Y215500D03*
X467900Y206300D03*
X468100Y211300D03*
X459000Y223500D03*
X465000Y249500D03*
X456000Y263000D03*
X460500Y298500D03*
X468900Y303200D03*
X459500Y310300D03*
X468820Y310280D03*
X458700Y334100D03*
X468800Y345500D03*
X459400D03*
X455000Y380500D03*
X481500Y22500D03*
Y37500D03*
X470500Y53000D03*
X481500Y52500D03*
Y82000D03*
X476000Y88500D03*
X481500Y97000D03*
X474500Y108500D03*
X481500Y112000D03*
X472000Y127500D03*
X481500Y127000D03*
Y142000D03*
X472500Y157000D03*
X481500D03*
Y172000D03*
Y187000D03*
Y202000D03*
Y217000D03*
X475000Y224000D03*
X481500Y232000D03*
Y247000D03*
Y262000D03*
Y277000D03*
X470500Y282500D03*
X481500Y292000D03*
Y307000D03*
X475000Y305300D03*
X481500Y322000D03*
X480900Y310300D03*
X475000D03*
Y315500D03*
X481500Y337000D03*
Y352000D03*
X480920Y345320D03*
X475000Y340200D03*
Y350600D03*
Y345500D03*
G54D30*
X112000Y41500D03*
X120000D03*
G54D21*
X57500Y338300D03*
Y342300D03*
Y350800D03*
Y346800D03*
Y358300D03*
Y354300D03*
X69300Y201600D03*
Y197600D03*
X76600Y250400D03*
X80600D03*
Y254400D03*
X86600Y250400D03*
X90600D03*
Y254400D03*
X127500Y110500D03*
Y114500D03*
Y106500D03*
Y102500D03*
X131500Y114500D03*
Y110500D03*
Y102500D03*
Y106500D03*
X138500Y129900D03*
Y125900D03*
X142400Y129900D03*
Y125900D03*
X134800Y129900D03*
Y125900D03*
X134500Y141800D03*
Y145800D03*
X142400Y200700D03*
X134500Y208700D03*
Y204700D03*
X142400D03*
X138500Y208700D03*
Y204700D03*
X140800Y233900D03*
Y237900D03*
X138500Y349500D03*
Y345500D03*
X158200Y165400D03*
Y169400D03*
X146300Y200800D03*
Y204800D03*
X166000Y130000D03*
Y126000D03*
X170000Y153500D03*
Y157500D03*
X162000Y165400D03*
Y169400D03*
X169900Y189000D03*
Y196900D03*
Y200900D03*
Y193000D03*
X170000Y228400D03*
Y224400D03*
X161000Y361500D03*
Y365500D03*
X177900Y173200D03*
X177800Y189000D03*
X181800Y181200D03*
Y177200D03*
X177900Y185200D03*
Y181200D03*
X185700Y185000D03*
Y189000D03*
X173900D03*
X181800D03*
Y185000D03*
X185700Y177200D03*
Y181200D03*
X177900Y177200D03*
X177800Y193000D03*
X181700D03*
Y197000D03*
X173900Y193000D03*
X185500Y243700D03*
Y239700D03*
X183500Y361500D03*
Y365500D03*
X197500Y169400D03*
Y165400D03*
X201500Y173300D03*
Y169300D03*
X193600Y165400D03*
Y169400D03*
Y173200D03*
Y188800D03*
Y185100D03*
Y181100D03*
X189700Y188900D03*
Y184900D03*
X197500Y189100D03*
Y185100D03*
X189700Y181200D03*
Y177200D03*
X197600Y181100D03*
Y177100D03*
X193600Y177200D03*
X201400Y189000D03*
X197600Y193000D03*
Y197000D03*
X193600Y196900D03*
Y200900D03*
Y192800D03*
X201400Y193000D03*
X189600Y204700D03*
Y208700D03*
X209300Y141700D03*
Y137700D03*
X217200Y153600D03*
Y149600D03*
X209400Y169300D03*
Y165300D03*
X205400Y161400D03*
Y165400D03*
Y173300D03*
Y169300D03*
X217200Y173300D03*
Y169300D03*
X213300D03*
Y165300D03*
X205400Y189000D03*
Y193000D03*
X205000Y361500D03*
Y365500D03*
X225100Y126000D03*
Y130000D03*
Y137900D03*
Y133900D03*
X229000Y137900D03*
Y133900D03*
X221200Y141800D03*
Y137800D03*
X227000Y361500D03*
Y365500D03*
X240600Y233200D03*
Y237200D03*
X246400Y262900D03*
Y258900D03*
X250200Y262900D03*
Y258900D03*
X261500D03*
Y262900D03*
X257600Y258900D03*
Y262900D03*
X253800Y258900D03*
Y262900D03*
X259500Y348900D03*
X255500D03*
X249000Y361500D03*
Y365500D03*
X259500Y352900D03*
X255500D03*
X269500Y348900D03*
X272000Y361500D03*
Y365500D03*
X269500Y352900D03*
X285000Y25600D03*
Y29600D03*
X291600Y50700D03*
Y54700D03*
X302600D03*
Y50700D03*
X295000D03*
Y54700D03*
X298500D03*
Y50700D03*
X294000Y361500D03*
Y365500D03*
X309200Y25000D03*
X312800Y33000D03*
Y37000D03*
X309200Y29000D03*
Y32700D03*
Y36700D03*
X314500Y361500D03*
Y365500D03*
X334500Y98500D03*
Y94500D03*
X338000Y98500D03*
Y94500D03*
X347000Y233500D03*
X350500D03*
X347000Y237500D03*
X350500D03*
X360000Y20500D03*
Y24500D03*
Y13000D03*
Y17000D03*
Y34000D03*
Y30000D03*
X354300Y233400D03*
X358100D03*
X354300Y237400D03*
X358100D03*
X375000Y11000D03*
Y7000D03*
X371500Y11000D03*
Y7000D03*
X378600Y6900D03*
Y10900D03*
X407000Y238200D03*
Y242200D03*
X425100Y175000D03*
Y179000D03*
X420000Y202800D03*
Y206800D03*
X428800Y175000D03*
Y179000D03*
X426300Y242000D03*
Y238000D03*
X444600Y179400D03*
Y175400D03*
X448600Y179400D03*
Y175400D03*
X452100D03*
Y179400D03*
X446800Y237700D03*
Y241700D03*
X455600Y175400D03*
Y179400D03*
X467000Y238200D03*
Y242200D03*
G54D40*
X144100Y337000D03*
X154900D03*
G54D22*
X84700Y40500D03*
X73100Y318400D03*
X99300Y40500D03*
X87700Y318400D03*
X341700Y53000D03*
X356300D03*
G54D31*
X114500Y158000D03*
X126500D03*
X245400Y180100D03*
Y193200D03*
X257400Y180100D03*
Y193200D03*
G54D13*
X20500Y59800D03*
Y307800D03*
X442500Y51400D03*
X455300Y32500D03*
G54D50*
X239500Y339900D03*
X249500Y329900D03*
X259500D03*
X249500Y339900D03*
X259500D03*
X269500Y329900D03*
Y339900D03*
X279500Y329900D03*
Y339900D03*
X388773Y220500D03*
Y230500D03*
X413500Y242000D03*
Y252000D03*
Y277500D03*
Y287500D03*
X433500Y242000D03*
Y252000D03*
X453500Y242000D03*
Y252000D03*
X466000Y277500D03*
Y287500D03*
X473500Y242000D03*
Y252000D03*
G54D41*
X157848Y55352D03*
X156152Y57048D03*
X157848Y86152D03*
X156152Y87848D03*
X146252Y138052D03*
X147948Y139748D03*
X150352Y137852D03*
X152048Y139548D03*
X152552Y163248D03*
X154248Y161552D03*
X164048Y86152D03*
X162352Y87848D03*
X161948Y177152D03*
X160252Y178848D03*
X166048Y177352D03*
X164352Y179048D03*
X161948Y185052D03*
X160252Y186748D03*
X166048Y185252D03*
X164352Y186948D03*
X161948Y192952D03*
X160252Y194648D03*
X166048Y193152D03*
X164352Y194848D03*
X182848Y7852D03*
X181152Y9548D03*
X187452Y40449D03*
X182848Y38652D03*
X181152Y40349D03*
X183048Y55252D03*
X187552Y56948D03*
X181352D03*
X181648Y79952D03*
X179952Y81648D03*
X187552Y87848D03*
X189148Y38752D03*
X189248Y55252D03*
X197052D03*
X198748Y56948D03*
X193648Y80152D03*
X191952Y81848D03*
X189248Y86152D03*
X201948D03*
X200252Y87848D03*
X214249Y7752D03*
X212552Y9448D03*
X206351Y9548D03*
X208049Y7852D03*
X216952Y34449D03*
X212652Y40449D03*
X214348Y38752D03*
X206648Y32452D03*
X204952Y34149D03*
X203952Y63249D03*
X205649Y61552D03*
X222152Y7752D03*
X223849Y9448D03*
X228951Y15749D03*
X230649Y14052D03*
X218649Y32752D03*
X226948Y38652D03*
X225251Y40349D03*
G54D32*
X101000Y170000D03*
Y161500D03*
Y166500D03*
Y184000D03*
Y179000D03*
Y175000D03*
X126800Y184100D03*
Y179100D03*
X244030Y167250D03*
Y172250D03*
X244000Y164500D03*
Y159500D03*
G54D23*
X81500Y93800D03*
Y103800D03*
Y113800D03*
X111500Y93800D03*
Y113800D03*
Y103800D03*
G54D14*
X40810Y321300D03*
X53190D03*
X365310Y50500D03*
X377690D03*
G54D51*
X263072Y207741D03*
Y212859D03*
X269528Y207741D03*
Y210300D03*
Y212859D03*
G54D42*
G01X45516Y336816D02*
X41000Y332300D01*
Y321490D01*
X40810Y321300D01*
G01X45516Y342745D02*
Y336816D01*
G01X47484Y342745D02*
Y340816D01*
X48000Y340300D01*
Y333800D01*
G01X45516Y349855D02*
Y347229D01*
X45634Y347111D01*
G01X47484Y349855D02*
Y347249D01*
X47346Y347111D01*
G01X45516Y349855D02*
Y351784D01*
X45000Y352300D01*
G01X47484Y349855D02*
Y351784D01*
X48000Y352300D01*
G01X43547Y342745D02*
Y342347D01*
X42000Y340800D01*
G01X43547Y349855D02*
Y350153D01*
X41200Y352500D01*
G01X49453Y342745D02*
Y342347D01*
X51000Y340800D01*
G01X57500Y350800D02*
X52500D01*
X51555Y349855D01*
X49453D01*
G01X57500Y350800D02*
Y354300D01*
G01X80000Y225800D02*
Y228200D01*
X79000Y229200D01*
G01X92300Y225800D02*
Y228400D01*
X91400Y229300D01*
G01X88300Y225800D02*
Y229300D01*
X88100Y229500D01*
G01X114532Y51673D02*
X113232Y50231D01*
G01X114532Y53799D02*
X112901D01*
G01X103500Y58000D02*
X114600D01*
G01X118468Y51673D02*
Y51031D01*
X119500Y50000D01*
G01X120000Y55500D02*
X118468Y53968D01*
Y53799D01*
G01X116500Y47700D02*
X116532Y47732D01*
Y50360D01*
X116500Y50392D01*
Y51673D01*
G01X114600Y58000D02*
X116500Y56100D01*
Y53799D01*
G01X116800Y63600D02*
X115100D01*
X115000Y63500D01*
G01X118500D02*
X116900D01*
X116800Y63600D01*
G01X130500Y322677D02*
Y346902D01*
G01X129516Y353673D02*
Y360571D01*
X131044Y362100D01*
X131100D01*
X132500Y363500D01*
G01X131484Y353673D02*
Y358984D01*
X132500Y360000D01*
G01X155378Y57105D02*
X155434Y57048D01*
X156152D01*
G01X155378Y88064D02*
X155578Y87864D01*
X156136D01*
X156152Y87848D01*
G01X158109Y224476D02*
X157594Y223961D01*
X157561D01*
G01X154172Y220539D02*
X154732Y221098D01*
Y221132D01*
G01X164800Y12200D02*
Y10000D01*
G01X166800Y12200D02*
Y11200D01*
X168300Y9700D01*
G01X162800Y17400D02*
X161000D01*
G01X162800Y12200D02*
X160900D01*
G01X164700Y25800D02*
Y23500D01*
G01X164800Y17400D02*
Y19600D01*
G01X168800Y12200D02*
X170800D01*
G01X168800Y17400D02*
X170600D01*
G01X166800D02*
Y18700D01*
X167800Y19700D01*
G01X166700Y25800D02*
Y24400D01*
X167700Y23400D01*
G01X162700Y31000D02*
X161000D01*
G01X162700Y25800D02*
X161100D01*
G01X164700Y31000D02*
Y33200D01*
G01X168700Y31000D02*
X170600D01*
G01X166700D02*
Y32400D01*
X167700Y33400D01*
G01X168700Y25800D02*
X170600D01*
G01X167976Y57105D02*
X168600Y57728D01*
Y57800D01*
G01X174300Y63100D02*
X172637D01*
X172356Y63381D01*
G01X169206Y60921D02*
X168600Y60315D01*
Y60200D01*
G01X161677Y88064D02*
X161892Y87848D01*
X162352D01*
G01X169920Y133924D02*
X170024D01*
X170439Y134339D01*
G01X165984Y141798D02*
X166432Y142247D01*
Y142332D01*
G01X158109Y157546D02*
Y157491D01*
X158639Y156961D01*
G01X169920Y145735D02*
X169346Y145161D01*
X169261D01*
G01X162046Y153609D02*
X161524Y154132D01*
X161468D01*
G01X158109Y212665D02*
X158713Y212061D01*
X158739D01*
G01X169920Y212665D02*
X169361Y213224D01*
Y213239D01*
G01X165984Y216602D02*
X166517Y216068D01*
X166532D01*
G01X162046Y208728D02*
X161568Y209206D01*
Y209232D01*
G01X180378Y9605D02*
X180434Y9548D01*
X181152D01*
G01X181700Y35100D02*
Y36610D01*
X183528Y38438D01*
G01X183724Y55136D02*
X183609Y55252D01*
X183048D01*
G01X186874Y57105D02*
X187030Y56948D01*
X187552D01*
G01X184954Y63381D02*
X183935Y64400D01*
X183700D01*
G01X176700Y63100D02*
X178374D01*
X178655Y63381D01*
G01X179952Y81648D02*
X179285D01*
X178655Y82279D01*
G01X181732Y133924D02*
X182146Y134339D01*
X182339D01*
G01X173858Y137861D02*
X173268Y137272D01*
Y137168D01*
G01X185668Y137861D02*
X185168Y137361D01*
Y137168D01*
G01X181732Y145735D02*
X181161Y146306D01*
Y146439D01*
G01X177794Y149672D02*
X178199Y149268D01*
X178332D01*
G01X185668Y149672D02*
X186173Y149168D01*
X186232D01*
G01X181732Y169358D02*
X181800Y169289D01*
Y165400D01*
G01X181732Y200854D02*
X181700Y200822D01*
Y197000D01*
G01X181732Y212665D02*
X181161Y213235D01*
Y213239D01*
G01X177794Y216602D02*
X178328Y216068D01*
X178332D01*
G01X192976Y9605D02*
X194272Y10900D01*
X194300D01*
G01X203655Y15881D02*
X203574Y15800D01*
X199900D01*
G01X202200Y18800D02*
X203010D01*
X203260Y18550D01*
G01X199800Y18800D02*
X199120D01*
X198800Y18480D01*
G01X199472Y57105D02*
X199316Y56948D01*
X198748D01*
G01X199600Y77400D02*
X199800Y77200D01*
X200800D01*
G01X191254Y82279D02*
X191684Y81848D01*
X191952D01*
G01X199472Y88064D02*
X199688Y87848D01*
X200252D01*
G01X190024Y85938D02*
X189810Y86152D01*
X189248D01*
G01X193542Y145735D02*
X193500Y145693D01*
Y141700D01*
G01X193542Y133924D02*
X194039Y133428D01*
Y133361D01*
G01X197480Y129987D02*
X197413D01*
X196868Y130532D01*
G01X189061Y146339D02*
X192939D01*
X193542Y145735D01*
G01D02*
X194139Y146332D01*
Y146339D01*
G01X201417Y149672D02*
X201921Y149168D01*
X202032D01*
G01X197480Y149672D02*
X196975Y149168D01*
X196968D01*
G01X197500Y165400D02*
X193600D01*
G01X193542Y165420D02*
X193563Y165400D01*
X193600D01*
G01X193542Y200854D02*
X197396Y197000D01*
X197600D01*
G01X193542Y212665D02*
X193600Y212722D01*
Y216600D01*
G01X193542Y224476D02*
X194106Y225039D01*
X194139D01*
G01X197480Y228413D02*
X196968Y227901D01*
Y227868D01*
G01X211874Y9605D02*
X212030Y9448D01*
X212552D01*
G01X208724Y7636D02*
X208509Y7852D01*
X208049D01*
G01X209954Y15881D02*
X208935Y16900D01*
X208700D01*
G01X215024Y38438D02*
X214662D01*
X214348Y38752D01*
G01X216254Y34779D02*
X216621D01*
X216952Y34449D01*
G01X203655Y34779D02*
X204285Y34149D01*
X204952D01*
G01X205649Y61552D02*
X205749D01*
X206900Y60400D01*
G01X206039Y133261D02*
X206017D01*
X205354Y133924D01*
G01D02*
X209129Y137700D01*
X209300D01*
G01X209291Y129987D02*
X208868Y130410D01*
Y130432D01*
G01X205354Y157546D02*
X205400Y157500D01*
Y157400D01*
G01D02*
Y153500D01*
G01X217165Y157546D02*
X217118Y157500D01*
X217100D01*
G01X205354Y145735D02*
Y145846D01*
X204861Y146339D01*
G01X205400Y161400D02*
Y157593D01*
X205354Y157546D01*
G01X219200Y165400D02*
X217185D01*
X217165Y165420D01*
G01D02*
X217044Y165300D01*
X213300D01*
G01X205400Y161400D02*
X209207D01*
X209291Y161484D01*
G01D02*
X209400Y161593D01*
Y165300D01*
G01D02*
X213300D01*
G01X217100Y177200D02*
Y181104D01*
X217165Y181168D01*
G01X212561Y177839D02*
X213200Y177200D01*
X217100D01*
G01X217165Y181168D02*
X217200Y181133D01*
Y177200D01*
G01X217100D02*
X217200D01*
G01X217739Y189539D02*
X217242Y189042D01*
X217165D01*
G01Y200854D02*
X216586Y201432D01*
X216568D01*
G01X217165Y189042D02*
X217200Y189007D01*
Y185100D01*
G01X213228Y204791D02*
X213739Y204279D01*
Y204261D01*
G01X217165Y224476D02*
X217728Y225039D01*
X217739D01*
G01X230649Y14052D02*
X232249D01*
G01X228951Y15749D02*
Y15751D01*
X229900Y16700D01*
G01X224472Y40564D02*
X224688Y40349D01*
X225251D01*
G01X224472Y28502D02*
X225670Y29700D01*
X225800D01*
G01X228976Y133924D02*
X228951Y133900D01*
X225100D01*
G01X225739Y142339D02*
X225580D01*
X225039Y141798D01*
G01D02*
X225037Y141800D01*
X221200D01*
G01X229539Y156961D02*
Y156983D01*
X228976Y157546D01*
G01D02*
X225639Y160883D01*
Y161939D01*
G01X228976Y145735D02*
Y145576D01*
X228568Y145168D01*
G01X228976Y169358D02*
Y169324D01*
X229539Y168761D01*
G01X228976Y165420D02*
X228468Y164913D01*
Y164768D01*
G01X220568Y192368D02*
Y192446D01*
X221102Y192980D01*
G01X232913Y153609D02*
X232390Y154132D01*
X232368D01*
G01X232913Y165420D02*
X232880D01*
X232368Y165932D01*
G01X285000Y29600D02*
X287800D01*
X289600Y27800D01*
X292863D01*
X294063Y29000D01*
Y29694D01*
G01X298000Y41506D02*
Y37175D01*
G01X295100Y26300D02*
X296031Y27231D01*
Y29694D01*
G01D02*
Y32844D01*
G01D02*
X294850Y34025D01*
G01X301937Y29694D02*
Y29200D01*
X303137Y28000D01*
X306300D01*
X307300Y29000D01*
X309200D01*
G01X298000Y29694D02*
Y26200D01*
G01X299969Y29694D02*
Y27331D01*
X301100Y26200D01*
G01X297800Y45500D02*
X298000Y45300D01*
Y41506D01*
G01X302600Y50700D02*
Y48500D01*
X299937Y45837D01*
Y43908D01*
X299969Y43876D01*
Y41506D01*
G01X295000Y50700D02*
X298500D01*
G01X295000D02*
Y45471D01*
X296031Y44440D01*
Y41506D01*
G01X295000Y50700D02*
X291600D01*
G01X292600Y43600D02*
X294063Y42137D01*
Y41506D01*
G01X301937D02*
Y44737D01*
G01X309200Y32700D02*
X312500D01*
X312800Y33000D01*
G01X309200Y29000D02*
Y32700D01*
G01X345327Y91016D02*
X342497D01*
X342466Y90984D01*
X340809D01*
X340777Y91016D01*
X335984D01*
X334500Y92500D01*
Y94500D01*
G01X327100Y110400D02*
Y101300D01*
X333900Y94500D01*
X334500D01*
G01X338000Y85000D02*
Y88500D01*
G01X345327Y89047D02*
X345700Y88674D01*
Y84700D01*
G01X342500Y96500D02*
X344047Y94953D01*
X345327D01*
G01Y89047D02*
X338547D01*
X338000Y88500D01*
G01X345327Y92984D02*
X342516D01*
X342000Y93500D01*
G01X338000Y94500D02*
X339000Y93500D01*
X342000D01*
G01X347000Y237500D02*
X348800D01*
G01X347000D02*
Y243800D01*
X348220Y245020D01*
Y246397D01*
G01X350500Y237500D02*
X348800D01*
G01X350500D02*
Y240800D01*
X352158Y242458D01*
Y246397D01*
G01X348800Y237500D02*
Y242400D01*
X350189Y243789D01*
Y246397D01*
G01X344697Y251889D02*
X348189D01*
X349158Y252858D01*
G01X344697Y251889D02*
X341389D01*
G01X344697Y255826D02*
X341474D01*
G01X368547Y21445D02*
X360945D01*
X360000Y20500D01*
G01Y17000D02*
Y20500D01*
G01X354126Y246397D02*
Y237574D01*
X354300Y237400D01*
G01X356094Y246397D02*
Y245006D01*
X358100Y243000D01*
Y237400D01*
G01X356094Y261318D02*
Y257795D01*
X355157Y256858D01*
G01X356094Y261318D02*
Y264594D01*
G01X359618Y257795D02*
X361295D01*
X369000Y265500D01*
G01X359618Y251889D02*
X369011D01*
X369900Y251000D01*
G01X359618Y253857D02*
X367758D01*
X369900Y256000D01*
G01X359618Y249920D02*
X365580D01*
X369000Y246500D01*
G01X359618Y255826D02*
X364726D01*
X369900Y261000D01*
G01X378600Y10900D02*
X375100D01*
X375000Y11000D01*
G01X370516Y21445D02*
Y19516D01*
X369500Y18500D01*
G01X372484Y21445D02*
Y19516D01*
X373000Y19000D01*
G01X372484Y21445D02*
Y24071D01*
X372366Y24189D01*
G01X370516Y21445D02*
Y24051D01*
X370654Y24189D01*
G01X371500Y11000D02*
X375000D01*
G01D02*
Y14300D01*
X376000Y15300D01*
Y20000D01*
X374555Y21445D01*
X374453D01*
G01X376000Y30000D02*
X374555Y28555D01*
X374453D01*
G01X368547D02*
X368445D01*
X367000Y30000D01*
G01X370516Y28555D02*
Y37516D01*
X371000Y38000D01*
G01X372484Y28555D02*
Y31484D01*
X377500Y36500D01*
G01D02*
Y50310D01*
X377690Y50500D01*
G01X377559Y163037D02*
Y158959D01*
X377100Y158500D01*
G01X371000Y152000D02*
X372441Y153441D01*
Y153963D01*
G01X377559Y163037D02*
Y165441D01*
G01X371000Y165000D02*
X372441Y163559D01*
Y163037D01*
G01X424500Y324900D02*
X422700D01*
X421100Y323300D01*
Y319500D01*
X418600Y317000D01*
X393600D01*
X384500Y326100D01*
X382800D01*
G01X424700Y330200D02*
X418583Y324083D01*
Y320543D01*
X417557Y319517D01*
X394643D01*
X385543Y328617D01*
X382886D01*
X382884Y328616D01*
G01X439441Y191236D02*
Y179359D01*
X440300Y178500D01*
G01X448600Y179400D02*
X452100D01*
G01X444600D02*
X448600D01*
G01X442000Y191236D02*
Y182000D01*
X444600Y179400D01*
G01X455600D02*
Y182500D01*
X453600Y184500D01*
X447200D01*
X444559Y187141D01*
Y191236D01*
G01X452264Y196382D02*
X462982D01*
X467900Y201300D01*
G01X447118Y191236D02*
X462836D01*
X467900Y196300D01*
G01X452264Y198941D02*
X460541D01*
X467900Y206300D01*
G01X468100Y211300D02*
X458300Y201500D01*
X452264D01*
G01Y204059D02*
X447709D01*
X447512Y204256D01*
G01X452264Y204059D02*
X455859D01*
X147948Y139748D03*
X152048Y139548D03*
X152552Y163248D03*
X164352Y186948D03*
X160252Y178848D03*
Y186748D03*
X164352Y179048D03*
Y194848D03*
X160252Y194648D03*
X181700Y16000D03*
X183600Y24100D03*
X180400Y26100D03*
X188000Y16100D03*
X186700Y26200D03*
X183600Y21700D03*
X186700Y23800D03*
X184800Y13300D03*
X188000Y34900D03*
X184800Y32000D03*
X196200Y24200D03*
X193100Y26100D03*
X189900Y24200D03*
X196200Y21800D03*
X189900D03*
X191200Y13300D03*
X199400Y26000D03*
X202500Y24100D03*
X194300Y35000D03*
X191200Y32300D03*
X197500D03*
X199300Y42900D03*
G54D15*
X33000Y337800D03*
Y349800D03*
X64000Y336800D03*
Y348800D03*
X353500Y23000D03*
Y35000D03*
X363000Y84500D03*
Y96500D03*
X358200Y320400D03*
Y332400D03*
X386000Y19500D03*
Y31500D03*
G54D60*
X344697Y257795D03*
Y255826D03*
Y253857D03*
Y251889D03*
Y249920D03*
X359618D03*
Y251889D03*
Y253857D03*
Y255826D03*
Y257795D03*
G54D33*
X126500Y48500D03*
Y56500D03*
X364500Y161000D03*
Y169000D03*
X419300Y173200D03*
Y181200D03*
G54D24*
X77108Y202513D03*
Y200939D03*
Y218261D03*
Y216687D03*
Y215112D03*
Y213537D03*
Y211962D03*
Y210387D03*
Y208813D03*
Y207238D03*
Y205663D03*
Y204088D03*
X96092Y202513D03*
Y200939D03*
Y218261D03*
Y216687D03*
Y215112D03*
Y213537D03*
Y211962D03*
Y210387D03*
Y208813D03*
Y207238D03*
Y205663D03*
Y204088D03*
G54D16*
X31500Y336300D03*
X28500Y335800D03*
Y332800D03*
X31500D03*
X34500Y333800D03*
X33000Y349800D03*
X31000Y351300D03*
X35000Y348300D03*
Y338800D03*
X28500D03*
X50690Y316300D03*
X53190Y321300D03*
X50690Y326300D03*
X52000Y333800D03*
X45000Y352300D03*
X48000D03*
X42000Y340800D03*
X51000D03*
X68000Y39000D03*
Y42500D03*
X65690Y321800D03*
X60690D03*
X63190Y318800D03*
X58190D03*
X65690Y316300D03*
X60690D03*
X55690D03*
Y326300D03*
X64000Y336800D03*
X66000Y350300D03*
X62000Y347300D03*
X57500Y346800D03*
Y338300D03*
X81500Y39000D03*
X78000D03*
X74500D03*
X71000D03*
X81500Y42500D03*
X78000D03*
X74500D03*
X71000D03*
X73944Y320780D03*
X73025Y318305D03*
X72035Y315759D03*
X97732Y172500D03*
Y164000D03*
Y181500D03*
X97800Y321200D03*
X95600Y316200D03*
X96700Y318700D03*
X93300Y321200D03*
X91100Y316200D03*
X92200Y318700D03*
X88800Y321200D03*
X87700Y318700D03*
X86600Y316200D03*
X93300Y328200D03*
X97800D03*
X88800Y324700D03*
X93300D03*
X97800D03*
X111000Y63500D03*
X104268Y172500D03*
Y164000D03*
Y181500D03*
X119000Y40000D03*
X121000Y43000D03*
X128000Y49500D03*
X125000Y47500D03*
X119500Y50000D03*
X122500Y54000D03*
X120000Y55500D03*
X125000D03*
X127500Y61000D03*
X125000Y59500D03*
X122500Y61000D03*
Y57500D03*
X128000D03*
X114500Y158000D03*
X126500D03*
X123532Y181600D03*
X121000Y333500D03*
Y336500D03*
Y339500D03*
Y342500D03*
X124000Y340000D03*
X127000D03*
X123500Y343000D03*
X126500D03*
X130068Y181600D03*
X140900Y337600D03*
Y333600D03*
X135800Y337400D03*
X138100Y333700D03*
X140800Y341500D03*
X138500Y345500D03*
X144200Y333400D03*
X144100Y337000D03*
X144200Y340600D03*
X153000Y350000D03*
X156000D03*
Y344000D03*
X153000D03*
X150000Y347000D03*
X153000D03*
X156000D03*
X153000Y353000D03*
X156000D03*
X197900Y241900D03*
Y253900D03*
X211400Y241900D03*
Y253900D03*
X224700Y241900D03*
Y253900D03*
X244800Y110100D03*
X245400Y180100D03*
X237900Y241900D03*
Y253900D03*
X257000Y110500D03*
X257400Y180100D03*
X276500Y19000D03*
Y16000D03*
X274000Y47500D03*
Y44500D03*
Y41500D03*
X285000Y25600D03*
X282000Y25500D03*
X280000Y23500D03*
X278000Y21500D03*
X284900Y35400D03*
X291600Y54700D03*
X277500Y47500D03*
X281000Y44500D03*
X277500D03*
Y41500D03*
X281000D03*
X284900Y41600D03*
X303000Y15200D03*
X297900D03*
X292800D03*
Y21400D03*
X297900D03*
X305500Y20500D03*
X304000Y25000D03*
X306000Y23500D03*
X303000Y21400D03*
X302600Y54700D03*
X308000Y22000D03*
X309200Y25000D03*
Y36700D03*
X312800Y37000D03*
X310000Y41400D03*
Y47600D03*
X333500Y55500D03*
X336000Y50500D03*
X334700Y53000D03*
X336000Y250400D03*
Y256600D03*
X349500Y39000D03*
X347500Y40500D03*
X343000Y50500D03*
X341700Y53000D03*
X340500Y55500D03*
X337000D03*
X339500Y50500D03*
X338200Y53000D03*
X351000Y42000D03*
X345500D03*
X347000Y233500D03*
X350500D03*
X341389Y251889D03*
X355500Y21500D03*
X351500Y24500D03*
X360000D03*
X353500Y23000D03*
Y35000D03*
X351500Y36500D03*
X355500Y33500D03*
X360000Y34000D03*
X355000Y39000D03*
X353000Y40500D03*
X357500Y55500D03*
X356300Y53000D03*
X355000Y50500D03*
X356500Y80500D03*
Y77500D03*
X359500Y80500D03*
Y77500D03*
X362500Y80500D03*
Y77500D03*
X365500D03*
Y80500D03*
X356700Y95300D03*
X364300Y100200D03*
X360700D03*
X357100Y100100D03*
X363000Y96500D03*
X353500Y100000D03*
X361500Y103600D03*
X361000Y127800D03*
X364500D03*
Y143500D03*
X361000Y131800D03*
X364500D03*
X365500Y155600D03*
X364500Y146500D03*
X365500Y149400D03*
X364500Y161000D03*
Y169000D03*
X358100Y233400D03*
X354300D03*
X356094Y264594D03*
X371500Y7000D03*
X378600Y6900D03*
X369500Y18500D03*
X373000Y19000D03*
X376000Y30000D03*
X367000D03*
Y38000D03*
X378000Y112500D03*
Y106500D03*
Y109500D03*
X380500Y111000D03*
Y114000D03*
Y105000D03*
Y108000D03*
X378000Y115500D03*
X368000Y127800D03*
X370500Y129800D03*
X373000Y128800D03*
X375500Y127800D03*
X367500Y143500D03*
X368000Y131800D03*
X373000Y132800D03*
X370500Y133800D03*
X375500Y131800D03*
X368500Y149500D03*
X368000Y146500D03*
X371000Y152000D03*
X377559Y165441D03*
X371000Y165000D03*
X373000Y246500D03*
X376100Y251000D03*
Y256000D03*
Y261000D03*
X388000Y18000D03*
X384000Y21000D03*
X386000Y19500D03*
X393500Y33000D03*
Y29500D03*
X390500D03*
X384000Y33000D03*
X390500D03*
X387500Y30500D03*
X396500Y33000D03*
Y29500D03*
X399300Y110800D03*
Y105800D03*
Y120800D03*
Y115800D03*
X399000Y217100D03*
X399100Y210300D03*
X399000Y213600D03*
X403000Y217100D03*
X407000Y217000D03*
Y213500D03*
X403100Y210300D03*
X406900D03*
X403000Y213600D03*
X407000Y238200D03*
X405400Y347100D03*
X414216Y67734D03*
X418153D03*
X422090D03*
X419500Y84400D03*
X424700D03*
X414600Y82800D03*
X422129Y71750D03*
X414216Y75609D03*
X418153D03*
X422090D03*
X414216Y71671D03*
X418153D03*
X412500Y150000D03*
Y153500D03*
Y146500D03*
X422000Y186000D03*
X419400Y184400D03*
X425000Y181100D03*
X422800Y183400D03*
X410600Y217100D03*
X420000Y206800D03*
X415500Y207800D03*
X410700Y210300D03*
X410600Y213600D03*
X424600Y281600D03*
X426027Y67734D03*
X429964D03*
X434500Y84500D03*
X438100Y81400D03*
X429600Y84400D03*
X438000Y72300D03*
X426027Y75609D03*
X429964D03*
X426027Y71671D03*
X429964D03*
X439700Y88400D03*
X433500Y151000D03*
X430000Y184000D03*
X426500D03*
X428700Y181000D03*
X426300Y238000D03*
X428800Y267100D03*
X432300Y264100D03*
X439900Y276000D03*
X439100Y267100D03*
X436200Y289800D03*
X439900Y279500D03*
X440000Y289500D03*
X436200Y293300D03*
X440000Y293500D03*
X442100Y69400D03*
Y84300D03*
X440100Y82800D03*
X448500Y84300D03*
Y81100D03*
X445000Y85500D03*
Y81500D03*
X440100Y70800D03*
X445000Y97500D03*
X442000Y93000D03*
X445000Y90000D03*
X448500Y93000D03*
X448400Y88200D03*
Y96900D03*
X445000Y102500D03*
Y107000D03*
Y111500D03*
X449500Y113500D03*
Y110000D03*
X448400Y100400D03*
X440300Y172300D03*
X446800Y237700D03*
X451400Y271400D03*
X442400Y264100D03*
X451400Y277600D03*
X452700Y282100D03*
X450000Y283900D03*
X455500Y151000D03*
X467000Y238200D03*
G54D25*
X82157Y234125D03*
Y235700D03*
Y237275D03*
X90043D03*
Y235700D03*
Y234125D03*
G54D61*
X346700Y336300D03*
X340500D03*
X346700Y331300D03*
X340500D03*
X346700Y325800D03*
X340500D03*
X346700Y341800D03*
X340500D03*
X369900Y261000D03*
X376100D03*
X369900Y256000D03*
X376100D03*
Y251000D03*
X369900D03*
G54D34*
X114532Y51673D03*
X116500D03*
X118468D03*
Y53799D03*
X116500D03*
X114532D03*
G54D43*
X154792Y150262D03*
X157621Y153091D03*
X154732Y221132D03*
X157561Y223961D03*
X166432Y142332D03*
X169261Y145161D03*
X173268Y137168D03*
X170439Y134339D03*
X185168Y137168D03*
X182339Y134339D03*
X196968Y149168D03*
X194139Y146339D03*
X196968Y227868D03*
X194139Y225039D03*
X217739Y189539D03*
X217839Y213239D03*
X217739Y225039D03*
X228568Y145168D03*
X225739Y142339D03*
X228468Y164768D03*
X225639Y161939D03*
X220568Y192368D03*
X220668Y216068D03*
X220568Y227868D03*
G54D70*
X442000Y201500D03*
G54D52*
X258332Y230438D03*
X256757D03*
X255182D03*
X253607D03*
X252033D03*
X250458D03*
X248883D03*
X247308D03*
X258332Y249422D03*
X256757D03*
X255182D03*
X253607D03*
X252033D03*
X250458D03*
X248883D03*
X247308D03*
G54D80*
G01X127547Y353673D02*
X126027D01*
X125700Y354000D01*
G01X295000Y54700D02*
X312100Y71800D01*
Y192800D01*
X319000Y199700D01*
Y250900D01*
X336343Y268242D01*
X352158D01*
G01X334000Y88500D02*
X320800Y101700D01*
Y190400D01*
X327500Y197100D01*
Y206700D01*
X323800Y210400D01*
Y250300D01*
X333400Y259900D01*
X341700D01*
G01X344697Y257795D02*
X343806D01*
X341700Y259900D01*
G01X348220Y261318D02*
Y262580D01*
X345100Y265700D01*
G01X350189Y261318D02*
Y265489D01*
G01X352158Y261318D02*
Y268242D01*
G01X375000Y7000D02*
X375100Y4400D01*
G01X377559Y153963D02*
Y152941D01*
X378800Y151700D01*
G01X444600Y175400D02*
Y173200D01*
G54D44*
X158639Y156961D03*
X161468Y154132D03*
X166532Y216068D03*
X169361Y213239D03*
X161568Y209232D03*
X158739Y212061D03*
X186232Y149168D03*
X178332Y149268D03*
X181161Y146439D03*
X178332Y216068D03*
X181161Y213239D03*
X196868Y130532D03*
X194039Y133361D03*
X189061Y146339D03*
X202032Y149168D03*
X208868Y130432D03*
X206039Y133261D03*
X204861Y146339D03*
X209732Y180668D03*
X212561Y177839D03*
X216568Y201432D03*
X213739Y204261D03*
X232368Y154132D03*
X229539Y156961D03*
X232368Y165932D03*
X229539Y168761D03*
G54D62*
X361500Y114400D03*
Y103600D03*
X406900Y199500D03*
Y210300D03*
G54D26*
X102000Y28800D03*
X90500Y343000D03*
X103500Y2700D03*
X121000D03*
X126800Y28100D03*
X123000Y375500D03*
X138500Y2700D03*
X144000Y362500D03*
X156000Y2700D03*
X250000Y282500D03*
X283200Y16700D03*
X281900Y52000D03*
X295000Y85000D03*
Y140000D03*
X297900Y189800D03*
X300000Y227500D03*
X306000Y282500D03*
X324100Y17400D03*
X327100Y110400D03*
X342000Y36900D03*
X346300Y110400D03*
X346400Y131500D03*
X351100Y168900D03*
X343300Y280400D03*
X393700Y65800D03*
X392500Y247500D03*
X405800Y188600D03*
X419100Y216000D03*
X428600Y364100D03*
X474000Y70500D03*
X473500Y97000D03*
G54D35*
X125600Y208900D03*
X142361Y129987D03*
X138424D03*
X142361Y141798D03*
X134487Y137861D03*
Y133924D03*
X142361Y137861D03*
Y133924D03*
X138424D03*
X134487Y141798D03*
X142361Y157546D03*
X134487Y153609D03*
X138424D03*
X142361Y149672D03*
X134487Y145735D03*
X138424D03*
X134487Y149672D03*
X138424D03*
X134487Y157546D03*
X138424D03*
X142361Y153609D03*
Y145735D03*
Y173294D03*
X134487Y169358D03*
X138424D03*
X142361Y165420D03*
X134487Y161484D03*
X138424D03*
X134487Y165420D03*
X138424D03*
X134487Y173294D03*
X138424D03*
X142361Y161484D03*
Y169358D03*
Y189042D03*
X134487Y185106D03*
X138424D03*
X142361Y181168D03*
X134487Y177232D03*
X138424D03*
X134487Y181168D03*
X138424D03*
X134487Y189042D03*
X138424D03*
X142361Y177232D03*
Y185106D03*
X134487Y200854D03*
X138424D03*
X142361Y196916D03*
X134487Y192980D03*
X138424D03*
X142361Y200854D03*
X134487Y196916D03*
X138424D03*
X142361Y192980D03*
X134487Y216602D03*
X138424D03*
X142361D03*
Y212665D03*
X134487Y208728D03*
X138424D03*
X142361Y204791D03*
X138424D03*
X134487D03*
Y212665D03*
X138424D03*
X142361Y208728D03*
X134487Y224476D03*
X142361Y220539D03*
Y224476D03*
X134487Y220539D03*
X158528Y55136D03*
X155378Y57105D03*
X156608Y60921D03*
X158528Y67040D03*
X156608Y79819D03*
X158530Y75410D03*
X155378Y76002D03*
Y88064D03*
X158528Y85938D03*
X146298Y129987D03*
X158109Y133924D03*
X146298Y141798D03*
Y133924D03*
X158109Y137861D03*
Y141798D03*
X150235D03*
X154172Y133924D03*
Y137861D03*
X150235Y133924D03*
X146298Y137861D03*
X150235D03*
X158109Y145735D03*
Y153609D03*
Y157546D03*
X146298D03*
X150235Y153609D03*
X146298Y149672D03*
X150235Y145735D03*
Y157546D03*
X154172D03*
Y153609D03*
Y149672D03*
X150235D03*
X146298Y153609D03*
Y145735D03*
X154172D03*
D03*
X158109Y169358D03*
X146298Y173294D03*
X150235Y169358D03*
X146298Y165420D03*
X150235Y161484D03*
X158109Y165420D03*
Y161484D03*
Y173294D03*
X154172Y169358D03*
Y161484D03*
X150235Y173294D03*
X154172D03*
X146298Y161484D03*
Y169358D03*
X150235Y165420D03*
X154172D03*
X158109Y177232D03*
Y185106D03*
X146298Y189042D03*
X154172D03*
X150235Y185106D03*
X146298Y181168D03*
X150235Y177232D03*
X158109Y189042D03*
Y181168D03*
X150235Y189042D03*
X154172Y185106D03*
X146298Y177232D03*
Y185106D03*
X150235Y181168D03*
X154172D03*
Y177232D03*
X158109Y192980D03*
Y200854D03*
X150235D03*
X146298Y196916D03*
X150235D03*
X154172D03*
X146298Y200854D03*
X154172D03*
X146298Y192980D03*
X150235D03*
X154172D03*
X158109Y204791D03*
Y212665D03*
X146298D03*
X150235Y208728D03*
X146298Y204791D03*
X154172D03*
X158109Y216602D03*
X154172Y208728D03*
X150235Y204791D03*
Y212665D03*
X146298Y208728D03*
Y216602D03*
X154172Y212665D03*
Y216602D03*
X158109Y208728D03*
X150235Y224476D03*
X158109D03*
X150235Y228413D03*
X146298D03*
Y220539D03*
Y224476D03*
X158109Y220539D03*
X154172D03*
X164827Y55136D03*
X167976Y57105D03*
X161677D03*
X172356Y63381D03*
X169206Y60921D03*
X161677Y69166D03*
X162907Y60921D03*
X159758Y63381D03*
X171126Y67040D03*
X164827D03*
X166057Y63381D03*
X172800Y60700D03*
X164840Y75530D03*
X166057Y82279D03*
X161677Y76002D03*
X162907Y79819D03*
X159758Y82279D03*
X169206Y79819D03*
X171126Y74034D03*
X172700Y82600D03*
X167976Y76002D03*
Y88064D03*
X161677D03*
X164827Y85938D03*
X165984Y129987D03*
X169920D03*
Y133924D03*
X165984Y141798D03*
X162046D03*
Y137861D03*
X169920D03*
X165984D03*
X169920Y141798D03*
Y157546D03*
Y145735D03*
X162046Y149672D03*
Y145735D03*
Y153609D03*
X169920D03*
X165984Y145735D03*
X169920Y149672D03*
X165984D03*
X162046Y169358D03*
D03*
Y173294D03*
X169920D03*
X162046Y165420D03*
D03*
X165984Y173294D03*
X169920Y169358D03*
X165984D03*
Y161484D03*
X169920Y165420D03*
Y161484D03*
X165984Y165420D03*
X162046Y189042D03*
X169920D03*
X162046Y181168D03*
X169920D03*
X165984D03*
Y189042D03*
X162046Y185106D03*
X165984Y177232D03*
Y185106D03*
X162046Y177232D03*
X169920Y185106D03*
Y177232D03*
Y200854D03*
X162046Y196916D03*
X165984D03*
Y200854D03*
Y192980D03*
X162046D03*
X169920D03*
X162046Y200854D03*
X169920Y196916D03*
Y212665D03*
X162046D03*
X169920Y216602D03*
X165984Y212665D03*
Y208728D03*
X169920D03*
Y204791D03*
X165984D03*
X162046D03*
Y216602D03*
X165984D03*
X162046Y208728D03*
X169920Y224476D03*
Y220539D03*
X165984D03*
Y224476D03*
X162046D03*
Y220539D03*
X165984Y228413D03*
X169920D03*
X186677Y9605D03*
X180378D03*
X183528Y7636D03*
X186677Y21666D03*
X187907Y13421D03*
X184758Y15881D03*
X181608Y13421D03*
X183528Y26534D03*
X181780Y19570D03*
X186677Y40564D03*
X180378D03*
X181608Y32319D03*
X186677Y28502D03*
X187907Y32319D03*
X184758Y34779D03*
X178250Y28500D03*
X183528Y38438D03*
X183724Y55136D03*
X186874Y57105D03*
X184954Y63381D03*
X178655D03*
X177500Y65600D03*
X174400D03*
X174276Y57105D03*
X186874Y69166D03*
X188104Y60921D03*
X181805D03*
X180575Y69166D03*
X183724Y67040D03*
X180575Y57105D03*
X178655Y82279D03*
X177425Y74034D03*
X174300Y77500D03*
X183400Y77600D03*
X187100D03*
X187600Y80200D03*
X180575Y76002D03*
X184954Y82279D03*
X181805Y79819D03*
X175506D03*
X183724Y85938D03*
X180575Y88064D03*
X174276D03*
X186874D03*
X173858Y129987D03*
X181732D03*
X177794D03*
X185668D03*
X181732Y133924D03*
X173858Y137861D03*
X185668D03*
X177794Y141798D03*
Y137861D03*
X173858Y133924D03*
Y141798D03*
X177794Y133924D03*
X185668Y141798D03*
X181732Y137861D03*
X185668Y133924D03*
X181732Y157546D03*
Y145735D03*
X177794Y149672D03*
X185668D03*
X177794Y157546D03*
D03*
Y153609D03*
X185668Y157546D03*
X177794Y145735D03*
X173858D03*
Y153609D03*
Y149672D03*
Y157546D03*
X181732Y149672D03*
X185668Y145735D03*
Y153609D03*
X177794Y173294D03*
X185668D03*
X173858Y169358D03*
X181732D03*
X185668Y165420D03*
X173858D03*
D03*
X185800Y165400D03*
X185668Y169358D03*
X173858Y161484D03*
X177794D03*
X181732D03*
X177794Y165420D03*
X173858Y173294D03*
X181732D03*
X177794Y169358D03*
Y189042D03*
X185668D03*
X173858Y185106D03*
X181732D03*
X177794Y181168D03*
X185668D03*
X173858Y177232D03*
X181732D03*
X173858Y189042D03*
X181732D03*
X177794Y185106D03*
X185668D03*
X173858Y181168D03*
X181732D03*
X177794Y177232D03*
X185668D03*
X181732Y200854D03*
X173858Y192980D03*
X185668Y196916D03*
Y200854D03*
X173858D03*
Y196916D03*
X177794D03*
Y200854D03*
X181732Y192980D03*
X185668D03*
X177794D03*
X181732Y212665D03*
X173858Y204791D03*
X181732Y208728D03*
Y204791D03*
X185668Y212665D03*
Y216602D03*
X173858Y212665D03*
Y216602D03*
X177794Y208728D03*
Y212665D03*
X173858Y208728D03*
X177794Y216602D03*
Y204791D03*
X181732Y224476D03*
X177794D03*
Y220539D03*
X173858Y228413D03*
X177794D03*
X173858Y220539D03*
Y224476D03*
X185668Y228413D03*
X192976Y9605D03*
X199276D03*
X189827Y7636D03*
X197356Y15881D03*
X194206Y13421D03*
X198800Y18480D03*
X189827Y26534D03*
X194380Y19520D03*
X190960Y19740D03*
X196126Y26534D03*
X202425D03*
X191057Y15881D03*
X200506Y13421D03*
X192976Y40564D03*
X191057Y34779D03*
X194206Y32319D03*
X197356Y34779D03*
X192976Y28502D03*
X199276D03*
Y40564D03*
X189827Y38438D03*
X199500Y33300D03*
X202622Y55136D03*
X196323D03*
X190024D03*
X199472Y57105D03*
X194403Y60921D03*
X191254Y63381D03*
X190024Y67040D03*
X199472Y69166D03*
X196323Y67040D03*
X193173Y69166D03*
X197553Y63381D03*
X202622Y67040D03*
X200702Y60921D03*
X193173Y57105D03*
X199600Y77400D03*
X191254Y82279D03*
X193173Y76002D03*
X190024Y74034D03*
X196323D03*
X197900Y82600D03*
X202622Y74034D03*
X200702Y79819D03*
X194403D03*
X199472Y88064D03*
X193100Y89200D03*
X190024Y85938D03*
X202622D03*
X196323D03*
X197480Y129987D03*
X189606D03*
X193542D03*
Y133924D03*
X197480Y141798D03*
X201417D03*
X189606Y137861D03*
Y133924D03*
X197480D03*
Y137861D03*
X193542D03*
Y157546D03*
Y145735D03*
X201417Y149672D03*
X197480D03*
Y157546D03*
Y153609D03*
Y145735D03*
X201417Y157546D03*
Y153609D03*
Y145735D03*
X189606Y149672D03*
X193542D03*
X189606Y157546D03*
X193542Y173294D03*
X201417D03*
X193542Y165420D03*
X201417D03*
D03*
X197480Y169358D03*
X189606D03*
X197480Y161484D03*
X201417D03*
X193542D03*
X189606Y165420D03*
Y161484D03*
Y173294D03*
X197480D03*
X193542Y169358D03*
X201417D03*
X193542Y189042D03*
X201417D03*
X189606Y185106D03*
X197480D03*
X193542Y181168D03*
X189606Y177232D03*
X197480D03*
X189606Y189042D03*
X197480D03*
X193542Y185106D03*
X201417D03*
X189606Y181168D03*
X197480D03*
X201417D03*
X193542Y177232D03*
X201417D03*
X193542Y200854D03*
X189606Y196916D03*
Y200854D03*
Y192980D03*
X193542Y196916D03*
X189606Y192980D03*
X193542Y196916D03*
X197480Y192980D03*
X193542D03*
X201417D03*
X193542Y212665D03*
X189606Y208728D03*
Y216602D03*
X197480Y212665D03*
X189606Y204791D03*
X197480Y208728D03*
Y204791D03*
X193542Y224476D03*
X189606Y220539D03*
Y224476D03*
Y228413D03*
X193542D03*
X197480D03*
X201417Y224476D03*
Y220539D03*
X211874Y9605D03*
X208724Y7636D03*
X205575Y9605D03*
X215024Y7636D03*
X216254Y15881D03*
X209954D03*
X203655D03*
X203260Y18550D03*
X215024Y19540D03*
Y26534D03*
X211874Y21666D03*
X213104Y13421D03*
X206805D03*
X205575Y21666D03*
X208724Y19540D03*
X215024Y38438D03*
X216254Y34779D03*
X209800Y38000D03*
X203655Y34779D03*
X205575Y40564D03*
X213104Y32319D03*
X206700Y28300D03*
X210300Y35100D03*
X212000Y30000D03*
X208700D03*
X211874Y40564D03*
X206805Y32319D03*
X203852Y63381D03*
Y82279D03*
X209291Y129987D03*
X205354D03*
X217165D03*
X213228D03*
X205354Y133924D03*
X217165D03*
X209291Y141798D03*
X205354D03*
Y137861D03*
X213228D03*
Y133924D03*
X217165Y137861D03*
X213228Y141798D03*
X205354Y157546D03*
X217165D03*
Y153609D03*
X205354Y145735D03*
X217165D03*
X209291Y153609D03*
X205354Y149672D03*
X209291D03*
Y145735D03*
X213228D03*
Y153609D03*
X209291Y157546D03*
X217165Y149672D03*
Y165420D03*
X205354Y169358D03*
X217165D03*
X209291Y161484D03*
Y169358D03*
Y173294D03*
X209400Y169300D03*
X209291Y173294D03*
X217165D03*
X205354Y165420D03*
Y173294D03*
X213228Y169358D03*
Y173294D03*
X217165Y189042D03*
X205354Y185106D03*
X217165Y181168D03*
X205354Y177232D03*
X209291Y181168D03*
Y177232D03*
X213228Y189042D03*
X205354D03*
Y181168D03*
X209291Y185106D03*
X205354Y181168D03*
X209291Y185106D03*
X205354Y200854D03*
X217165D03*
X209291Y196916D03*
X205354Y192980D03*
X209291D03*
X217165Y196916D03*
X205354D03*
X213228D03*
X205354Y212665D03*
X217165D03*
X205354Y204791D03*
X209291Y212665D03*
X213228Y204791D03*
X205354Y224476D03*
X217165D03*
X209291D03*
X227622Y7636D03*
X224472Y9605D03*
X221323Y7636D03*
X218173Y9605D03*
X219403Y13421D03*
X218173Y21666D03*
X221323Y26534D03*
X221600Y14900D03*
X227622Y19540D03*
X225702Y13421D03*
X227622Y26534D03*
X221200Y17900D03*
X224500D03*
X229900Y16700D03*
X224472Y40564D03*
Y28502D03*
X218173Y40564D03*
Y28502D03*
X222553Y34779D03*
X228852D03*
X219403Y32319D03*
X221323Y38438D03*
X225702Y32319D03*
X227622Y38438D03*
X225039Y129987D03*
X228976Y133924D03*
X225039Y141798D03*
X221102Y137861D03*
D03*
X228976D03*
X229000Y137900D03*
X225039Y137861D03*
D03*
Y129987D03*
X228976Y157546D03*
Y145735D03*
X221102Y157546D03*
Y145735D03*
X221100Y145600D03*
X228976Y169358D03*
X225039Y165420D03*
X228976D03*
Y181168D03*
Y189042D03*
X225039D03*
X221102Y177232D03*
Y185106D03*
X221200Y177200D03*
X221102Y185106D03*
X228976Y192980D03*
X225039Y196916D03*
X221102Y192980D03*
D03*
X228976Y216602D03*
Y204791D03*
X221102Y216602D03*
X225039D03*
X228976Y212665D03*
X225039Y204791D03*
X221102D03*
X228976Y228413D03*
Y224476D03*
X221102Y228413D03*
X225039Y220539D03*
X232913Y153609D03*
Y157546D03*
Y165420D03*
Y173294D03*
Y161484D03*
Y185106D03*
X232934Y184988D03*
X232913Y177232D03*
Y192980D03*
Y216602D03*
Y224476D03*
G54D71*
X431790Y201500D03*
Y198941D03*
Y196382D03*
Y206618D03*
Y204059D03*
G54D53*
X284900Y41600D03*
Y35400D03*
X303000Y21400D03*
Y15200D03*
X297900Y21400D03*
Y15200D03*
X292800Y21400D03*
Y15200D03*
X310000Y41400D03*
Y47600D03*
X336000Y256600D03*
Y250400D03*
X365500Y155600D03*
Y149400D03*
X354100Y308900D03*
Y302700D03*
X353600Y348700D03*
Y354900D03*
X375600Y349700D03*
Y355900D03*
X384900Y303700D03*
Y309900D03*
X415500Y201600D03*
Y207800D03*
X440300Y172300D03*
Y178500D03*
G54D17*
X52000Y333800D03*
X48000D03*
X80000Y225800D03*
X84000D03*
X76800Y260500D03*
X80800D03*
X93200Y194000D03*
X97200D03*
X92300Y225800D03*
X88300D03*
X111000Y63500D03*
X104300Y153900D03*
X100300D03*
X104300Y145100D03*
X100300D03*
Y150400D03*
X104300D03*
X115000Y63500D03*
X122500D03*
X118500D03*
X125600Y208900D03*
X135000Y110500D03*
X139000D03*
X135000Y106500D03*
X139000D03*
X138500Y133900D03*
X134500D03*
X142400Y216600D03*
X129600Y208900D03*
X134500Y220500D03*
X130500D03*
X136500Y360000D03*
X132500D03*
X136500Y363500D03*
X132500D03*
X158200Y145700D03*
X154200D03*
X158200Y173200D03*
X154200Y169300D03*
X150200D03*
X150300Y173300D03*
X146300D03*
X150300Y181200D03*
X146300D03*
X158100Y200800D03*
X154300D03*
X150300D03*
X150400Y212600D03*
X146400D03*
Y216600D03*
X170000Y169300D03*
X166000Y173200D03*
X170000D03*
X162200D03*
X169900Y185000D03*
Y177200D03*
Y181100D03*
X162100Y200800D03*
X162400Y263000D03*
X158400D03*
X171800D03*
X167800D03*
X185800Y157400D03*
X181800D03*
X185800Y169300D03*
X181800D03*
X185800Y165400D03*
X181800D03*
X174000Y169300D03*
X185700Y173300D03*
X173900Y185000D03*
Y177200D03*
Y181100D03*
X177900Y204700D03*
X173900D03*
X185500Y232600D03*
Y236100D03*
X181200Y263000D03*
X177200D03*
X179300Y257100D03*
X175300D03*
X197500Y141700D03*
X193500D03*
X189700Y173300D03*
X201400Y177200D03*
X201500Y185100D03*
X189600Y216600D03*
X193600D03*
X197600Y212600D03*
X193600D03*
X189500Y232600D03*
Y236100D03*
X205400Y157400D03*
X209400D03*
Y153500D03*
X205400D03*
X217100Y157500D03*
Y145600D03*
X217200Y185100D03*
Y177200D03*
X205400D03*
X205500Y185100D03*
X209400Y196800D03*
X205400D03*
X209400Y212600D03*
X205400D03*
X209400Y224400D03*
X205400D03*
X221100Y157500D03*
Y145600D03*
X223200Y165400D03*
X219200D03*
X221200Y185100D03*
Y177200D03*
X225000Y181100D03*
X229000D03*
X229100Y204700D03*
X225100D03*
X229000Y224500D03*
X241700Y151600D03*
X237700D03*
X232934Y184988D03*
X236934D03*
X246500Y201700D03*
X242500D03*
X233000Y224500D03*
X254800Y207800D03*
X250800D03*
X261700Y218400D03*
X254800Y211300D03*
X250800D03*
Y215100D03*
X254800D03*
X265700Y218400D03*
X334000Y85000D03*
Y88500D03*
X349700Y84700D03*
X345700D03*
X338000Y85000D03*
X349500Y100000D03*
X338000Y88500D03*
X353500Y100000D03*
X367000Y38000D03*
X371000D03*
X369000Y246500D03*
X373000D03*
Y265500D03*
X369000D03*
X418300Y110800D03*
X422300D03*
X418300Y105800D03*
X422300D03*
X418300Y120800D03*
X422300D03*
X418300Y115800D03*
X422300D03*
X416500Y153500D03*
X412500D03*
Y146500D03*
X416500D03*
Y150000D03*
X412500D03*
X433500Y154500D03*
X437500D03*
X433500Y147500D03*
X437500D03*
Y151000D03*
X433500D03*
X455500Y154500D03*
X459500D03*
X455500Y147500D03*
X459500D03*
Y151000D03*
X455500D03*
G54D81*
G01X232913Y192980D02*
X231233Y191300D01*
X224200D01*
X223100Y192400D01*
Y194100D01*
X222300Y194900D01*
X216200D01*
X215300Y194000D01*
Y192400D01*
X214000Y191100D01*
X200200D01*
X199300Y192000D01*
Y194300D01*
X198700Y194900D01*
X169087D01*
X168325Y195662D01*
Y195675D01*
X167600Y196400D01*
Y197800D01*
X166400Y199000D01*
X132000D01*
G01X225039Y196916D02*
Y198161D01*
X223000Y200200D01*
Y202000D01*
X222100Y202900D01*
X220300D01*
X219100Y204100D01*
Y205300D01*
X217600Y206800D01*
X132000D01*
G01X217165Y196916D02*
X215716D01*
X213500Y194700D01*
X204400D01*
X203100Y196000D01*
Y201800D01*
X202100Y202800D01*
X132000D01*
G01X158109Y161484D02*
X158084D01*
X156200Y159600D01*
Y157200D01*
X154700Y155700D01*
X134400D01*
X132000Y153300D01*
G01X150235Y149672D02*
X148408Y151500D01*
X133700D01*
X132000Y149800D01*
G01X177794Y157546D02*
Y156303D01*
X177444Y155953D01*
X176153D01*
X175332Y155132D01*
Y148832D01*
X174600Y148100D01*
X149453D01*
X148010Y146657D01*
Y144814D01*
X147220Y144023D01*
X145377D01*
X144065Y142712D01*
Y136938D01*
X144073Y136930D01*
Y127217D01*
X144100Y127190D01*
Y126900D01*
G01X177794Y153609D02*
Y154794D01*
X177444Y155144D01*
X176404D01*
X176082Y154822D01*
Y148522D01*
X174911Y147350D01*
X149764D01*
X148760Y146346D01*
Y144503D01*
X147531Y143273D01*
X145687D01*
X144815Y142401D01*
Y137249D01*
X144823Y137240D01*
Y127527D01*
X144850Y127501D01*
Y127246D01*
X144875Y127221D01*
Y127149D01*
X145080Y126944D01*
Y126900D01*
G01X142361Y133924D02*
X140337Y131900D01*
X136800D01*
X134800Y129900D01*
G01X158109Y208728D02*
X156137Y210700D01*
X132000D01*
G01X147948Y139748D02*
X148048Y137552D01*
X150139Y135461D01*
X163278D01*
X167139Y131600D01*
X174800D01*
X175500Y130900D01*
Y129166D01*
X175456Y129122D01*
Y128480D01*
X175621Y128314D01*
Y128279D01*
X175665Y128235D01*
G01X176231Y128801D02*
Y128836D01*
X176250Y128855D01*
Y129476D01*
X176250Y129477D01*
Y131211D01*
X175111Y132350D01*
X167450D01*
X166123Y133677D01*
Y134172D01*
X166528Y134577D01*
Y135072D01*
X166068Y135532D01*
X165574D01*
X165168Y135127D01*
X164673D01*
X164028Y135772D01*
X163589Y136211D01*
X162968Y136211D01*
X152250Y136211D01*
X151710Y136751D01*
Y137520D01*
X153341Y139151D01*
Y139741D01*
X153039Y140043D01*
X152544D01*
X152049Y139548D01*
X152048D01*
G01X213228Y153609D02*
X215237Y151600D01*
X235700D01*
G01X225000Y181100D02*
X224900D01*
X223200Y179400D01*
Y176200D01*
X222100Y175100D01*
X215033D01*
X213228Y173294D01*
G01Y196916D02*
Y196928D01*
X214900Y198600D01*
X222100D01*
X223200Y197500D01*
Y196600D01*
X224800Y195000D01*
X235700D01*
G01X225039Y165420D02*
X225018Y165400D01*
X223200D01*
G01X225039Y216602D02*
X228737Y220300D01*
X235700D01*
G01X228976Y212665D02*
X230800Y214489D01*
Y216800D01*
X232850Y218850D01*
X235700D01*
G01X221102Y204791D02*
X222911Y206600D01*
X235047D01*
X235700Y207253D01*
G01X225039Y220539D02*
X226700Y222200D01*
X235600D01*
X235700Y222300D01*
G01X232913Y216602D02*
X234011Y217700D01*
X235700D01*
G54D36*
X125000Y335500D03*
X137000D03*
X366700Y318700D03*
X378700D03*
X402400Y325100D03*
Y340100D03*
X414400Y325100D03*
Y340100D03*
G54D54*
X301937Y29694D03*
X299969D03*
X298000D03*
X296031D03*
X294063D03*
Y41506D03*
X296031D03*
X298000D03*
X299969D03*
X301937D03*
G54D18*
X46500Y346300D03*
X371500Y25000D03*
G54D45*
X162700Y25800D03*
X164700D03*
X166700D03*
X168700D03*
X162800Y17400D03*
Y12200D03*
X164800Y17400D03*
Y12200D03*
X166800Y17400D03*
Y12200D03*
X168800Y17400D03*
Y12200D03*
X162700Y31000D03*
X164700D03*
X166700D03*
X168700D03*
G54D63*
X376000Y100323D03*
Y90677D03*
G54D72*
X436882Y191290D03*
X439441D03*
X442000D03*
X444559D03*
X447118D03*
G54D27*
X103500Y49000D03*
Y58000D03*
G54D82*
G01X111500Y103800D02*
X114200Y106500D01*
X127500D01*
G01X111500Y113800D02*
X114800Y110500D01*
X127500D01*
G01Y106500D02*
X131500D01*
G01X127500Y110500D02*
X131500D01*
G01Y106500D02*
X135000D01*
G01X131500Y110500D02*
X135000D01*
G01X295000Y111820D02*
Y85000D01*
G01Y140000D02*
Y113600D01*
X294600Y113200D01*
G01X181780Y19570D02*
X182050Y19300D01*
X183600D01*
G01X180400Y28500D02*
X178250D01*
G01X185500Y236100D02*
Y232600D01*
G01X185668Y228413D02*
X185500Y228581D01*
Y232600D01*
G01X202500Y270295D02*
X202400Y270195D01*
Y263800D01*
X185500Y246900D01*
Y243700D01*
G01Y239700D02*
Y236100D01*
G01X196200Y19400D02*
X194500D01*
X194380Y19520D01*
G01X189900Y19400D02*
X190620D01*
X190960Y19740D01*
G01X253800Y262900D02*
Y264500D01*
X253000Y265300D01*
X233300D01*
X230400Y268200D01*
Y279800D01*
X233300Y282700D01*
X249800D01*
X250000Y282500D01*
G01X297900Y189800D02*
X279400Y208300D01*
Y226200D01*
X265100Y240500D01*
X258900D01*
X255182Y244218D01*
Y249422D01*
G01X253607D02*
Y253207D01*
X257600Y257200D01*
Y258900D01*
G01X252033Y249422D02*
Y254233D01*
X253800Y256000D01*
Y258900D01*
G01X261500D02*
X256743Y254143D01*
Y253337D01*
X256757Y253324D01*
Y249422D01*
G01X250200Y258900D02*
Y256500D01*
X250800Y255900D01*
Y253800D01*
X250458Y253458D01*
Y249422D01*
G01X306000Y282500D02*
X281500D01*
X275185Y276185D01*
Y274913D01*
X275563Y274535D01*
Y273263D01*
X274664Y272364D01*
X273392D01*
X273014Y272742D01*
X271742D01*
X264800Y265800D01*
X260500D01*
X257600Y262900D01*
G01X261500D02*
X268400D01*
X283500Y247800D01*
X289800D01*
X300000Y237600D01*
Y227500D01*
G54D37*
X128138Y346902D03*
X130500D03*
X132862D03*
G54D73*
X439244Y204256D03*
Y201500D03*
Y198744D03*
Y195988D03*
X436488Y198744D03*
Y201500D03*
Y204256D03*
Y195988D03*
X439244Y207012D03*
X436488D03*
X442000Y204256D03*
X444756D03*
Y201500D03*
Y198744D03*
X442000D03*
Y201500D03*
X447512Y204256D03*
Y201500D03*
Y198744D03*
Y195988D03*
X444756D03*
X442000D03*
Y207012D03*
X444756D03*
X447512D03*
G54D46*
X168600Y60200D03*
Y57800D03*
X186700Y23800D03*
Y21400D03*
X181700Y16000D03*
Y13600D03*
X183600Y24100D03*
Y21700D03*
Y19300D03*
X184800Y13300D03*
Y15700D03*
X181700Y32700D03*
Y35100D03*
X184800Y32000D03*
Y34400D03*
X183600Y26500D03*
X186700Y26200D03*
Y28600D03*
X180400Y26100D03*
Y28500D03*
X174300Y63100D03*
X176700D03*
X183700Y66800D03*
Y64400D03*
X194300Y10900D03*
X199400Y9500D03*
Y7100D03*
X194300Y13300D03*
X197500Y15800D03*
X199900D03*
X199800Y18800D03*
X202200D03*
X189900Y24200D03*
X196200D03*
X202500Y24100D03*
X196200Y21800D03*
Y19400D03*
X191200Y13300D03*
Y15700D03*
X188000Y16100D03*
Y13700D03*
X189900Y21800D03*
Y19400D03*
X199400Y26000D03*
X194300Y35000D03*
Y32600D03*
X189900Y26600D03*
X196200D03*
X202500Y26500D03*
X191200Y32300D03*
Y34700D03*
X197500Y32300D03*
Y34700D03*
X193100Y26100D03*
Y28500D03*
X188000Y34900D03*
Y32500D03*
X199400Y28400D03*
X199300Y40500D03*
Y42900D03*
X200800Y79600D03*
Y77200D03*
X208700Y19300D03*
Y16900D03*
X225800Y32100D03*
Y29700D03*
G54D64*
X373000Y114200D03*
Y128800D03*
G54D28*
X97732Y172500D03*
Y164000D03*
Y181500D03*
X104268Y172500D03*
Y164000D03*
Y181500D03*
X123532Y181600D03*
X130068D03*
X240762Y169750D03*
X247298D03*
X247268Y162000D03*
X240732D03*
G54D19*
X43547Y342745D03*
X45516D03*
Y349855D03*
X47484Y342745D03*
X49453D03*
Y349855D03*
X47484D03*
X43547D03*
X372484Y21445D03*
X368547D03*
X370516D03*
X374453D03*
Y28555D03*
X372484D03*
X370516D03*
X368547D03*
G54D55*
X298000Y35600D03*
G54D83*
G01X69300Y201600D02*
X70213Y202513D01*
X77108D01*
G01X83100Y203900D02*
X81713Y202513D01*
G01D02*
X77108D01*
G01X69300Y197600D02*
X71100D01*
X72650Y199150D01*
G01X77108Y200939D02*
X74439D01*
X72650Y199150D01*
G01X77108Y216687D02*
X81587D01*
X82600Y217700D01*
Y219000D01*
G01X77108Y218261D02*
X73739D01*
X72600Y219400D01*
G01X85313Y232444D02*
Y231813D01*
X83500Y230000D01*
G01X80600Y250400D02*
Y244900D01*
X79600Y243900D01*
Y238400D01*
X80725Y237275D01*
X82157D01*
G01X96092Y202513D02*
X100587D01*
X101100Y202000D01*
G01X96092Y200939D02*
X98761D01*
X99900Y199800D01*
G01X96092Y218261D02*
X93439D01*
X92000Y219700D01*
G01X96092Y204088D02*
X90812D01*
G01D02*
X90200Y204700D01*
G01X86887Y232444D02*
Y230713D01*
X88100Y229500D01*
G01X90043Y237275D02*
Y238657D01*
X89400Y239300D01*
G01X86887Y238956D02*
Y239887D01*
X88600Y241600D01*
G01X90600Y250400D02*
Y247900D01*
X85313Y242613D01*
Y238956D01*
G01X126800Y179100D02*
X127600D01*
G01X134487Y177232D02*
X134019Y177700D01*
X129000D01*
X127600Y179100D01*
G01X247308Y230438D02*
X245800D01*
G01X247308Y249422D02*
Y252692D01*
X246100Y253900D01*
G01X250500Y225400D02*
X250458Y225442D01*
Y230438D01*
G01X258332D02*
Y225632D01*
G01X248100Y225400D02*
X248883Y226183D01*
G01D02*
Y230438D01*
G01X258332Y249422D02*
Y252532D01*
X259500Y253700D01*
G01X249000Y254700D02*
X248883Y254583D01*
G01D02*
Y249422D01*
G54D56*
X352098Y89638D03*
Y92000D03*
Y94362D03*
G54D74*
X439441Y211710D03*
X436882D03*
X447118D03*
X444559D03*
X442000D03*
G54D47*
X211400Y241900D03*
Y253900D03*
G54D65*
X375000Y158500D03*
G54D29*
X86887Y232444D03*
X85313D03*
Y238956D03*
X86887D03*
G54D38*
X127547Y353673D03*
X133453D03*
X131484D03*
X129516D03*
G54D84*
G01X388773Y230500D02*
Y243773D01*
X392500Y247500D01*
G54D48*
X240000Y272500D03*
Y292500D03*
X260000Y272500D03*
Y292500D03*
X285000Y75000D03*
Y95000D03*
Y130000D03*
Y150000D03*
X290000Y217500D03*
Y237500D03*
X305000Y75000D03*
Y95000D03*
Y130000D03*
Y150000D03*
X310000Y217500D03*
Y237500D03*
X296000Y272500D03*
Y292500D03*
X316000Y272500D03*
Y292500D03*
G54D66*
X372441Y153963D03*
X375000D03*
X377559D03*
X375000Y163037D03*
X377559D03*
X372441D03*
G54D57*
X345327Y94953D03*
Y92984D03*
Y91016D03*
Y89047D03*
G54D39*
X140323Y322500D03*
X130677D03*
G54D75*
X452210Y196382D03*
Y198941D03*
Y201500D03*
Y204059D03*
Y206618D03*
G54D85*
G01X352098Y92000D02*
X357000D01*
X358000Y91000D01*
X375677D01*
G01D02*
X376000Y90677D01*
G54D67*
X404669Y75260D03*
Y79000D03*
Y82740D03*
X413331D03*
Y75260D03*
G54D49*
X239500Y329900D03*
X388773Y210500D03*
X413500Y232000D03*
Y267500D03*
X433500Y232000D03*
X453500D03*
X466000Y267500D03*
X473500Y232000D03*
G54D76*
X464041Y319139D03*
Y336461D03*
G54D58*
X348220Y246397D03*
X350189D03*
Y261318D03*
X348220D03*
X352158Y246397D03*
X354126D03*
X356094D03*
Y261318D03*
X354126D03*
X352158D03*
G54D77*
G01X144100Y126900D02*
Y113066D01*
X143600Y112566D01*
Y111666D01*
X144100Y111166D01*
Y110200D01*
X142900Y109000D01*
X140500D01*
X139000Y110500D01*
G01X145080Y126900D02*
Y109794D01*
X143306Y108020D01*
X140520D01*
X139000Y106500D01*
G01X175665Y128235D02*
X181826Y122074D01*
X182400Y121500D01*
X262900D01*
X272266Y112135D01*
X294685D01*
X295000Y111820D01*
G01X294600Y113200D02*
X294515Y113115D01*
X272672D01*
X263306Y122480D01*
X262697D01*
X262495Y122480D01*
X262494Y122480D01*
X182806D01*
X182519Y122767D01*
X177730Y127556D01*
X177475D01*
X176231Y128801D01*
G54D59*
X352158Y253857D03*
G54D68*
X430700Y32500D03*
G54D78*
G01X132000Y199000D02*
X125200D01*
X112300Y186100D01*
X68700D01*
X56600Y174000D01*
X8200D01*
X5900Y176300D01*
G01X132000Y206800D02*
X125669D01*
X109569Y190700D01*
X65969D01*
X58969Y183700D01*
X13300D01*
X10900Y181300D01*
G01X132000Y202800D02*
X125200D01*
X110900Y188500D01*
X67100D01*
X57700Y179100D01*
X13700D01*
X10900Y176300D01*
G01X15900Y201300D02*
X13300Y203900D01*
Y212300D01*
X19500Y218500D01*
X67800D01*
X71188Y215112D01*
X77108D01*
G01X20900Y211300D02*
Y209300D01*
X19100Y207500D01*
Y205200D01*
X19800Y204500D01*
X57600D01*
X63563Y210463D01*
X77033D01*
X77108Y210387D01*
G01X20900Y206300D02*
X23600Y209000D01*
X57200D01*
X60162Y211962D01*
X77108D01*
G01X15900Y206300D02*
X17600Y208000D01*
Y210600D01*
X20537Y213537D01*
X77108D01*
G01X25900Y281300D02*
X26300D01*
X29500Y284500D01*
X52800D01*
X76800Y260500D01*
G01X77108Y204088D02*
X77033Y204013D01*
X61387D01*
X61312Y204088D01*
G01X77108Y205663D02*
X77033Y205588D01*
X65012D01*
X64937Y205663D01*
G01X77108Y207238D02*
X77033Y207163D01*
X67537D01*
X67462Y207238D01*
G01X77108Y208813D02*
X70387D01*
G01X82157Y234125D02*
X78825D01*
X78200Y233500D01*
G01X82157Y235700D02*
X79500D01*
X76600Y238600D01*
G01X96092Y215112D02*
X101088D01*
X102000Y214200D01*
G01X96092Y205663D02*
X100337D01*
X101300Y204700D01*
G01X111700Y207200D02*
X111650Y207150D01*
X101102D01*
X101014Y207238D01*
X96092D01*
G01Y208813D02*
X100854D01*
X101516Y208150D01*
X106950D01*
X108000Y209200D01*
G01X96092Y210387D02*
X101613D01*
X102200Y209800D01*
G01X96092Y211962D02*
X99890D01*
X100352Y211500D01*
X104166D01*
X104216Y211550D01*
X105584D01*
X105634Y211500D01*
X109400D01*
X111000Y213100D01*
G01X96092Y213537D02*
X100329D01*
X101316Y212550D01*
X106750D01*
X108000Y213800D01*
G01X96092Y216687D02*
X102487D01*
X104850Y219050D01*
G01X90043Y234125D02*
X91075D01*
X93400Y231800D01*
G01X90043Y235700D02*
X92400D01*
X95100Y238400D01*
Y240100D01*
G01X132000Y153300D02*
X130700Y152000D01*
X106200D01*
X104300Y153900D01*
G01Y150400D02*
Y145100D01*
G01X132000Y149800D02*
X127300Y145100D01*
X104300D01*
G01X132000Y210700D02*
X131400D01*
X129600Y208900D01*
G01X161000Y371600D02*
Y365500D01*
G01X183100Y15300D02*
Y17200D01*
G01D02*
X183700Y17800D01*
X186100D01*
G01X183100Y17200D02*
X182500Y17800D01*
X179600D01*
G01X188400Y22300D02*
Y20839D01*
X187061Y19500D01*
G01X185000Y22200D02*
Y20839D01*
X186439Y19400D01*
G01X181900Y26100D02*
Y27100D01*
X183400Y28600D01*
G01X182600Y30800D02*
X182281D01*
X182250Y30769D01*
G01D02*
X180631D01*
X180000Y31400D01*
G01X183400Y371600D02*
Y365600D01*
X183500Y365500D01*
G01X187300Y17700D02*
X189500D01*
G01X192100D02*
X192600Y17200D01*
G01X192400Y18000D02*
X192700Y18300D01*
Y22800D01*
G01X192400Y18000D02*
X193700Y16700D01*
G01X192100Y17700D02*
X192400Y18000D01*
G01X189500Y17700D02*
X192100D01*
G01X189500Y14800D02*
Y17700D01*
G01X192600Y13900D02*
Y12439D01*
X191961Y11800D01*
G01X193700Y16700D02*
X194600D01*
G01X194400Y27100D02*
Y27061D01*
X194450Y27011D01*
Y26050D01*
G01X192600Y32800D02*
Y31100D01*
G01X189500Y33900D02*
Y35900D01*
G01X195800Y33700D02*
Y36100D01*
G01X235700Y151600D02*
X237700D01*
G01X235700Y195000D02*
X235800D01*
X242500Y201700D01*
G01X205000Y371600D02*
Y365500D01*
G01X235700Y220300D02*
X238500Y223100D01*
X240714D01*
X241593Y223979D01*
Y225021D01*
X242472Y225900D01*
X243714D01*
X244593Y225021D01*
Y223979D01*
X245472Y223100D01*
X251300D01*
X252300Y224100D01*
Y226398D01*
X252033Y226666D01*
Y230438D01*
G01X235700Y218850D02*
X252740D01*
X255267Y221377D01*
X255182Y230438D01*
G01X235700Y207253D02*
X243547Y215100D01*
X250800D01*
G01X235700Y222300D02*
X243500Y230100D01*
Y232900D01*
X245600Y235000D01*
X253000D01*
X253607Y234393D01*
Y230438D01*
G01X227000Y371600D02*
Y365500D01*
G01X250800Y207800D02*
X244000D01*
X242000Y205800D01*
G01X235700Y217700D02*
X236625D01*
X237504Y216821D01*
Y215679D01*
X238382Y214800D01*
X239625D01*
X240504Y215679D01*
Y216821D01*
X241382Y217700D01*
X255900D01*
X256757Y218557D01*
Y224873D01*
X256682Y224948D01*
Y226315D01*
X256757Y226391D01*
Y230438D01*
G01X250800Y211300D02*
Y207800D01*
G01X254800D02*
X263013D01*
X263072Y207741D01*
G01X259500Y348900D02*
Y339900D01*
G01X249000Y371600D02*
Y365500D01*
G01X255500Y352900D02*
X259500D01*
G01X255500D02*
X251500D01*
X251000Y352400D01*
G01X269528Y210300D02*
X275100D01*
G01X269500Y348900D02*
Y339900D01*
G01X272000Y371600D02*
Y365500D01*
G01X269500Y352900D02*
X266100D01*
G01X294100Y371600D02*
Y365600D01*
X294000Y365500D01*
G01X314500Y371600D02*
Y365500D01*
G01X382400Y230700D02*
Y268000D01*
X370200Y280200D01*
Y303600D01*
X372700Y306100D01*
Y334900D01*
X381600Y343800D01*
Y367400D01*
X381664Y367464D01*
G01X377600Y296300D02*
X374700Y293400D01*
Y286800D01*
X372700Y284800D01*
X372600D01*
G01X372400Y289800D02*
Y294100D01*
X379695Y301395D01*
Y301405D01*
G01X407000Y242200D02*
X413300D01*
X413500Y242000D01*
G01X405400Y347100D02*
X414400D01*
X451400Y310100D01*
Y291000D01*
G01X416500Y146500D02*
Y138700D01*
X417000Y138200D01*
G01X416500Y153500D02*
Y157100D01*
G01Y153500D02*
Y150000D01*
G01Y157100D02*
Y163300D01*
X417000Y163800D01*
G01X437500Y147500D02*
Y139200D01*
X438500Y138200D01*
G01X437500Y151000D02*
Y147500D01*
G01Y154500D02*
Y151000D01*
G01X433500Y154500D02*
Y156700D01*
X433200Y157000D01*
G01X426300Y242000D02*
Y249800D01*
X428500Y252000D01*
X433500D01*
G01X455500Y154500D02*
X452400D01*
G01X446800Y241700D02*
X453200D01*
X453500Y242000D01*
G01X459500Y147500D02*
Y138700D01*
X460000Y138200D01*
G01X459500Y151000D02*
Y147500D01*
G01Y154500D02*
Y151000D01*
G01X467000Y242200D02*
X473300D01*
X473500Y242000D01*
G54D69*
X417000Y138200D03*
Y163800D03*
X438500Y138200D03*
Y163800D03*
X460000Y138200D03*
Y163800D03*
G54D79*
G01X27600Y-89900D02*
Y-94900D01*
X29600D01*
G01X30850D02*
X32100Y-89900D01*
X33350Y-94900D01*
G01X32900Y-93150D02*
X31300D01*
G01X35600Y-94900D02*
Y-92650D01*
X34600Y-89900D01*
G01X36600D02*
X35600Y-92650D01*
G01X40100Y-94900D02*
X38100D01*
Y-89900D01*
X40100D01*
G01X39300Y-92317D02*
X38100D01*
G01X41600Y-94900D02*
Y-89900D01*
X42850D01*
X43250Y-90150D01*
X43500Y-90483D01*
X43600Y-91150D01*
X43500Y-91817D01*
X43200Y-92233D01*
X42850Y-92483D01*
X41600D01*
G01X42850D02*
X43600Y-94900D01*
G01X49600D02*
Y-89900D01*
X49000Y-90900D01*
G01Y-94900D02*
X50200D01*
G01X53700D02*
Y-89900D01*
X51850Y-93483D01*
X54350D01*
G01X59850Y-96567D02*
X59350Y-95733D01*
X59100Y-94900D01*
Y-91567D01*
X59350Y-90733D01*
X59850Y-89900D01*
G01X64000Y-92233D02*
X64200Y-91983D01*
X64350Y-91567D01*
X64450Y-90983D01*
X64350Y-90483D01*
X64150Y-90150D01*
X63800Y-89900D01*
X62450D01*
Y-94900D01*
X64100D01*
X64450Y-94567D01*
X64650Y-94067D01*
X64750Y-93483D01*
X64650Y-92900D01*
X64350Y-92400D01*
X64000Y-92233D01*
X62450D01*
G01X67100Y-94900D02*
X66700Y-94817D01*
X66350Y-94483D01*
X66050Y-93983D01*
X65850Y-93400D01*
X65750Y-92733D01*
Y-92067D01*
X65850Y-91400D01*
X66050Y-90817D01*
X66350Y-90317D01*
X66700Y-89983D01*
X67100Y-89900D01*
X67500Y-89983D01*
X67850Y-90317D01*
X68150Y-90817D01*
X68350Y-91400D01*
X68450Y-92067D01*
Y-92733D01*
X68350Y-93400D01*
X68150Y-93983D01*
X67850Y-94483D01*
X67500Y-94817D01*
X67100Y-94900D01*
G01X70600Y-89900D02*
Y-94900D01*
G01X69450Y-89900D02*
X71750D01*
G01X74100D02*
Y-94900D01*
G01X72950Y-89900D02*
X75250D01*
G01X77600Y-94900D02*
X77200Y-94817D01*
X76850Y-94483D01*
X76550Y-93983D01*
X76350Y-93400D01*
X76250Y-92733D01*
Y-92067D01*
X76350Y-91400D01*
X76550Y-90817D01*
X76850Y-90317D01*
X77200Y-89983D01*
X77600Y-89900D01*
X78000Y-89983D01*
X78350Y-90317D01*
X78650Y-90817D01*
X78850Y-91400D01*
X78950Y-92067D01*
Y-92733D01*
X78850Y-93400D01*
X78650Y-93983D01*
X78350Y-94483D01*
X78000Y-94817D01*
X77600Y-94900D01*
G01X79800D02*
Y-89900D01*
X81100Y-94067D01*
X82400Y-89900D01*
Y-94900D01*
G01X87050Y-94234D02*
X87450Y-94650D01*
X87900Y-94900D01*
X88300D01*
X88700Y-94650D01*
X89000Y-94234D01*
X89150Y-93650D01*
X89050Y-93067D01*
X88800Y-92567D01*
X88350Y-92233D01*
X87750Y-92067D01*
X87400Y-91733D01*
X87250Y-91150D01*
X87350Y-90567D01*
X87600Y-90150D01*
X87950Y-89900D01*
X88300D01*
X88650Y-90067D01*
X88950Y-90483D01*
G01X91000Y-89900D02*
X92200D01*
G01X91600D02*
Y-94900D01*
G01X91000D02*
X92200D01*
G01X94000D02*
Y-89900D01*
X95000D01*
X95400Y-90150D01*
X95700Y-90483D01*
X95950Y-90983D01*
X96150Y-91567D01*
X96200Y-92400D01*
X96150Y-93233D01*
X95950Y-93817D01*
X95700Y-94317D01*
X95400Y-94650D01*
X95000Y-94900D01*
X94000D01*
G01X99600D02*
X97600D01*
Y-89900D01*
X99600D01*
G01X98800Y-92317D02*
X97600D01*
G01X102350Y-96567D02*
X102850Y-95733D01*
X103100Y-94900D01*
Y-91567D01*
X102850Y-90733D01*
X102350Y-89900D01*
G01X422300Y105800D02*
X424800D01*
G01X422300Y110800D02*
X424800D01*
G01X422300Y115800D02*
X424800D01*
G01X422300Y120800D02*
X424800D01*
M02*
