G04 ================== begin FILE IDENTIFICATION RECORD ==================*
G04 Layout Name:  C:/userdata/Boards/TSW14J50_B/TSW14J50_B.brd*
G04 Film Name:    SOLDERMASK_TOP*
G04 File Format:  Gerber RS274X*
G04 File Origin:  Cadence Allegro 16.6-S019*
G04 Origin Date:  Tue Apr 01 14:59:10 2014*
G04 *
G04 Layer:  PIN/SOLDERMASK_TOP*
G04 Layer:  PACKAGE GEOMETRY/SOLDERMASK_TOP*
G04 Layer:  DRAWING FORMAT/SMASK_TOP*
G04 Layer:  BOARD GEOMETRY/TOOLING_CORNERS*
G04 Layer:  BOARD GEOMETRY/SOLDERMASK_TOP*
G04 Layer:  BOARD GEOMETRY/AW_LOGO*
G04 *
G04 Offset:    (0.000 0.000)*
G04 Mirror:    No*
G04 Mode:      Positive*
G04 Rotation:  0*
G04 FullContactRelief:  No*
G04 UndefLineWidth:     7.000*
G04 ================== end FILE IDENTIFICATION RECORD ====================*
%FSLAX55Y55*MOIN*%
%IR0*IPPOS*OFA0.00000B0.00000*MIA0B0*SFA1.00000B1.00000*%
%ADD13C,.15*%
%ADD38C,.17*%
%ADD10C,.125*%
%AMMACRO21*
4,1,38,-.11024,-.11024,
-.11024,.11024,
.11024,.11024,
.11024,-.11024,
.0315,-.11024,
.0315,-.06508,
.042322,-.058621,
.051859,-.050382,
.05982,-.040611,
.065963,-.029606,
.070102,-.017702,
.072111,-.00526,
.071929,.007342,
.069561,.01972,
.06508,.0315,
.058621,.042322,
.050382,.051859,
.040611,.05982,
.029606,.065963,
.017702,.070102,
.00526,.072111,
-.007342,.071929,
-.01972,.069561,
-.0315,.06508,
-.042322,.058621,
-.051859,.050382,
-.05982,.040611,
-.065963,.029606,
-.070102,.017702,
-.072111,.00526,
-.071929,-.007342,
-.069561,-.01972,
-.06508,-.0315,
-.058621,-.042322,
-.050382,-.051859,
-.040611,-.05982,
-.0315,-.06508,
-.0315,-.11024,
-.11024,-.11024,
0.0*
%
%ADD21MACRO21*%
%ADD15R,.022X.022*%
%ADD46R,.05X.04*%
%ADD18R,.022X.022*%
%ADD30R,.033X.032*%
%ADD36R,.032X.033*%
%ADD34R,.013X.08*%
%ADD22R,.03X.062*%
%ADD48R,.091X.02*%
%ADD43R,.024X.06*%
%ADD31R,.08X.013*%
%ADD19R,.031X.036*%
%ADD45R,.05X.063*%
%ADD20R,.026X.016*%
%ADD42R,.06X.055*%
%ADD26R,.056X.06*%
%ADD32C,.04*%
%ADD25R,.06X.056*%
%ADD39R,.028X.054*%
%ADD24C,.014*%
%ADD14C,.05*%
%ADD41R,.065X.054*%
%ADD11C,.06*%
%ADD17R,.054X.065*%
%ADD40C,.08*%
%ADD37R,.055X.047*%
%ADD23C,.018*%
%ADD12C,.027*%
%ADD16C,.092*%
%ADD29C,.058*%
%ADD44R,.038X.098*%
%ADD35R,.056X.03592*%
%ADD27C,.097*%
%ADD47R,.098X.079*%
%ADD28R,.058X.058*%
%ADD33R,.0689X.02953*%
%ADD49C,.006*%
G75*
%LPD*%
G75*
G36*
G01X100000Y175100D02*
Y169900D01*
X102000D01*
Y175100D01*
X100000D01*
G37*
G36*
G01Y166600D02*
Y161400D01*
X102000D01*
Y166600D01*
X100000D01*
G37*
G36*
G01Y184100D02*
Y178900D01*
X102000D01*
Y184100D01*
X100000D01*
G37*
G36*
G01X266000Y172100D02*
Y166900D01*
X268000D01*
Y172100D01*
X266000D01*
G37*
G36*
G01Y165100D02*
Y159900D01*
X268000D01*
Y165100D01*
X266000D01*
G37*
G36*
G01X430751Y77183D02*
X413429D01*
Y62616D01*
X430751D01*
Y77183D01*
G37*
G54D10*
X0Y0D03*
Y370000D03*
X470000Y0D03*
Y370000D03*
G54D11*
X-4200Y20300D03*
X118400Y259500D03*
X149500Y45700D03*
X174200Y-3000D03*
X216700Y85800D03*
X232200Y50800D03*
X259200Y99900D03*
X337100Y302300D03*
X393500Y359500D03*
X450800Y-7890D03*
X450200Y379900D03*
X464041Y319139D03*
Y336461D03*
G54D20*
X101000Y170000D03*
Y166500D03*
Y161500D03*
Y175000D03*
Y184000D03*
Y179000D03*
X267000Y172000D03*
Y167000D03*
Y165000D03*
Y160000D03*
G54D12*
X5900Y96300D03*
Y91300D03*
Y86300D03*
Y111300D03*
Y106300D03*
Y101300D03*
Y126300D03*
Y121300D03*
Y116300D03*
Y141300D03*
Y136300D03*
Y131300D03*
Y156300D03*
Y151300D03*
Y146300D03*
Y171300D03*
Y166300D03*
Y161300D03*
Y186300D03*
Y181300D03*
Y176300D03*
Y201300D03*
Y196300D03*
Y191300D03*
Y216300D03*
Y211300D03*
Y206300D03*
Y231300D03*
Y226300D03*
Y221300D03*
Y246300D03*
Y241300D03*
Y236300D03*
Y261300D03*
Y256300D03*
Y251300D03*
Y276300D03*
Y271300D03*
Y266300D03*
Y281300D03*
X20900Y96300D03*
Y91300D03*
Y86300D03*
X15900Y96300D03*
Y91300D03*
Y86300D03*
X10900Y96300D03*
Y91300D03*
Y86300D03*
X20900Y111300D03*
Y106300D03*
Y101300D03*
X15900Y111300D03*
Y106300D03*
Y101300D03*
X10900Y111300D03*
Y106300D03*
Y101300D03*
X20900Y126300D03*
Y121300D03*
Y116300D03*
X15900Y126300D03*
Y121300D03*
Y116300D03*
X10900Y126300D03*
Y121300D03*
Y116300D03*
X20900Y141300D03*
Y136300D03*
Y131300D03*
X15900Y141300D03*
Y136300D03*
Y131300D03*
X10900Y141300D03*
Y136300D03*
Y131300D03*
X20900Y156300D03*
Y151300D03*
Y146300D03*
X15900Y156300D03*
Y151300D03*
Y146300D03*
X10900Y156300D03*
Y151300D03*
Y146300D03*
X20900Y171300D03*
Y166300D03*
Y161300D03*
X15900Y171300D03*
Y166300D03*
Y161300D03*
X10900Y171300D03*
Y166300D03*
Y161300D03*
X20900Y186300D03*
Y181300D03*
Y176300D03*
X15900Y186300D03*
Y181300D03*
Y176300D03*
X10900Y186300D03*
Y181300D03*
Y176300D03*
X20900Y201300D03*
Y196300D03*
Y191300D03*
X15900Y201300D03*
Y196300D03*
Y191300D03*
X10900Y201300D03*
Y196300D03*
Y191300D03*
X20900Y216300D03*
Y211300D03*
Y206300D03*
X15900Y216300D03*
Y211300D03*
Y206300D03*
X10900Y216300D03*
Y211300D03*
Y206300D03*
X20900Y231300D03*
Y226300D03*
Y221300D03*
X15900Y231300D03*
Y226300D03*
Y221300D03*
X10900Y231300D03*
Y226300D03*
Y221300D03*
X20900Y246300D03*
Y241300D03*
Y236300D03*
X15900Y246300D03*
Y241300D03*
Y236300D03*
X10900Y246300D03*
Y241300D03*
Y236300D03*
X20900Y261300D03*
Y256300D03*
Y251300D03*
X15900Y261300D03*
Y256300D03*
Y251300D03*
X10900Y261300D03*
Y256300D03*
Y251300D03*
X20900Y276300D03*
Y271300D03*
Y266300D03*
X15900Y276300D03*
Y271300D03*
Y266300D03*
X10900Y276300D03*
Y271300D03*
Y266300D03*
X20900Y281300D03*
X15900D03*
X10900D03*
X35900Y96300D03*
Y91300D03*
Y86300D03*
X30900Y96300D03*
Y91300D03*
Y86300D03*
X25900Y96300D03*
Y91300D03*
Y86300D03*
X35900Y111300D03*
Y106300D03*
Y101300D03*
X30900Y111300D03*
Y106300D03*
Y101300D03*
X25900Y111300D03*
Y106300D03*
Y101300D03*
X35900Y126300D03*
Y121300D03*
Y116300D03*
X30900Y126300D03*
Y121300D03*
Y116300D03*
X25900Y126300D03*
Y121300D03*
Y116300D03*
X35900Y141300D03*
Y136300D03*
Y131300D03*
X30900Y141300D03*
Y136300D03*
Y131300D03*
X25900Y141300D03*
Y136300D03*
Y131300D03*
X35900Y156300D03*
Y151300D03*
Y146300D03*
X30900Y156300D03*
Y151300D03*
Y146300D03*
X25900Y156300D03*
Y151300D03*
Y146300D03*
X35900Y171300D03*
Y166300D03*
Y161300D03*
X30900Y171300D03*
Y166300D03*
Y161300D03*
X25900Y171300D03*
Y166300D03*
Y161300D03*
X35900Y186300D03*
Y181300D03*
Y176300D03*
X30900Y186300D03*
Y181300D03*
Y176300D03*
X25900Y186300D03*
Y181300D03*
Y176300D03*
X35900Y201300D03*
Y196300D03*
Y191300D03*
X30900Y201300D03*
Y196300D03*
Y191300D03*
X25900Y201300D03*
Y196300D03*
Y191300D03*
X35900Y216300D03*
Y211300D03*
Y206300D03*
X30900Y216300D03*
Y211300D03*
Y206300D03*
X25900Y216300D03*
Y211300D03*
Y206300D03*
X35900Y231300D03*
Y226300D03*
Y221300D03*
X30900Y231300D03*
Y226300D03*
Y221300D03*
X25900Y231300D03*
Y226300D03*
Y221300D03*
X35900Y246300D03*
Y241300D03*
Y236300D03*
X30900Y246300D03*
Y241300D03*
Y236300D03*
X25900Y246300D03*
Y241300D03*
Y236300D03*
X35900Y261300D03*
Y256300D03*
Y251300D03*
X30900Y261300D03*
Y256300D03*
Y251300D03*
X25900Y261300D03*
Y256300D03*
Y251300D03*
X35900Y276300D03*
Y271300D03*
Y266300D03*
X30900Y276300D03*
Y271300D03*
Y266300D03*
X25900Y276300D03*
Y271300D03*
Y266300D03*
X35900Y281300D03*
X30900D03*
X25900D03*
X50900Y96300D03*
Y91300D03*
Y86300D03*
X45900Y96300D03*
Y91300D03*
Y86300D03*
X40900Y96300D03*
Y91300D03*
Y86300D03*
X50900Y111300D03*
Y106300D03*
Y101300D03*
X45900Y111300D03*
Y106300D03*
Y101300D03*
X40900Y111300D03*
Y106300D03*
Y101300D03*
X50900Y126300D03*
Y121300D03*
Y116300D03*
X45900Y126300D03*
Y121300D03*
Y116300D03*
X40900Y126300D03*
Y121300D03*
Y116300D03*
X50900Y141300D03*
Y136300D03*
Y131300D03*
X45900Y141300D03*
Y136300D03*
Y131300D03*
X40900Y141300D03*
Y136300D03*
Y131300D03*
X50900Y156300D03*
Y151300D03*
Y146300D03*
X45900Y156300D03*
Y151300D03*
Y146300D03*
X40900Y156300D03*
Y151300D03*
Y146300D03*
X50900Y171300D03*
Y166300D03*
Y161300D03*
X45900Y171300D03*
Y166300D03*
Y161300D03*
X40900Y171300D03*
Y166300D03*
Y161300D03*
X50900Y186300D03*
Y181300D03*
Y176300D03*
X45900Y186300D03*
Y181300D03*
Y176300D03*
X40900Y186300D03*
Y181300D03*
Y176300D03*
X50900Y201300D03*
Y196300D03*
Y191300D03*
X45900Y201300D03*
Y196300D03*
Y191300D03*
X40900Y201300D03*
Y196300D03*
Y191300D03*
X50900Y216300D03*
Y211300D03*
Y206300D03*
X45900Y216300D03*
Y211300D03*
Y206300D03*
X40900Y216300D03*
Y211300D03*
Y206300D03*
X50900Y231300D03*
Y226300D03*
Y221300D03*
X45900Y231300D03*
Y226300D03*
Y221300D03*
X40900Y231300D03*
Y226300D03*
Y221300D03*
X50900Y246300D03*
Y241300D03*
Y236300D03*
X45900Y246300D03*
Y241300D03*
Y236300D03*
X40900Y246300D03*
Y241300D03*
Y236300D03*
X50900Y261300D03*
Y256300D03*
Y251300D03*
X45900Y261300D03*
Y256300D03*
Y251300D03*
X40900Y261300D03*
Y256300D03*
Y251300D03*
X50900Y276300D03*
Y271300D03*
Y266300D03*
X45900Y276300D03*
Y271300D03*
Y266300D03*
X40900Y276300D03*
Y271300D03*
Y266300D03*
X50900Y281300D03*
X45900D03*
X40900D03*
G54D30*
X303000Y21400D03*
Y15200D03*
X297900Y21400D03*
Y15200D03*
X422496Y306010D03*
Y312210D03*
X427600Y318700D03*
Y324900D03*
Y330200D03*
Y336400D03*
X451400Y277600D03*
Y271400D03*
G54D21*
X122500Y282500D03*
X162500D03*
X202500D03*
G54D40*
X417000Y138200D03*
Y163800D03*
X438500Y138200D03*
Y163800D03*
X460000Y138200D03*
Y163800D03*
G54D31*
X344754Y314836D03*
Y316805D03*
Y318773D03*
Y320742D03*
Y322710D03*
Y324679D03*
Y326647D03*
Y328616D03*
Y330584D03*
Y332553D03*
Y334521D03*
Y336490D03*
Y338458D03*
Y340427D03*
Y342395D03*
Y344364D03*
X389046Y314836D03*
Y316805D03*
Y318773D03*
Y320742D03*
Y322710D03*
Y324679D03*
Y326647D03*
Y328616D03*
Y330584D03*
Y332553D03*
Y334521D03*
Y336490D03*
Y338458D03*
Y340427D03*
Y342395D03*
Y344364D03*
G54D22*
X122500Y270295D03*
X162500D03*
X202500D03*
G54D13*
X20500Y59800D03*
Y307800D03*
X442500Y51400D03*
X455300Y32500D03*
G54D23*
X134487Y141798D03*
X138424D03*
X142361D03*
X134487Y137861D03*
X138424D03*
X142361D03*
X134487Y133924D03*
X138424D03*
X142361D03*
X138424Y129987D03*
X142361D03*
X134487Y157546D03*
X138424D03*
X142361D03*
X134487Y153609D03*
X138424D03*
X142361D03*
X134487Y149672D03*
X138424D03*
X142361D03*
X134487Y145735D03*
X138424D03*
X142361D03*
X134487Y173294D03*
X138424D03*
X142361D03*
X134487Y169358D03*
X138424D03*
X142361D03*
X134487Y165420D03*
X138424D03*
X142361D03*
X134487Y161484D03*
X138424D03*
X142361D03*
X134487Y189042D03*
X138424D03*
X142361D03*
X134487Y185106D03*
X138424D03*
X142361D03*
X134487Y181168D03*
X138424D03*
X142361D03*
X134487Y177232D03*
X138424D03*
X142361D03*
X134487Y200854D03*
X138424D03*
X142361D03*
X134487Y196916D03*
X138424D03*
X142361D03*
X134487Y192980D03*
X138424D03*
X142361D03*
X134487Y216602D03*
X138424D03*
X142361D03*
X134487Y212665D03*
X138424D03*
X142361D03*
X134487Y208728D03*
X138424D03*
X142361D03*
X134487Y204791D03*
X138424D03*
X142361D03*
X138424Y228413D03*
X142361D03*
X134487Y224476D03*
X138424D03*
X142361D03*
X134487Y220539D03*
X138424D03*
X142361D03*
X146298Y141798D03*
X150235D03*
X154172D03*
X146298Y137861D03*
X150235D03*
X154172D03*
X146298Y133924D03*
X150235D03*
X154172D03*
X146298Y129987D03*
X150235D03*
X154172D03*
X146298Y157546D03*
X150235D03*
X154172D03*
X146298Y153609D03*
X150235D03*
X154172D03*
X146298Y149672D03*
X150235D03*
X154172D03*
X146298Y145735D03*
X150235D03*
X154172D03*
X146298Y173294D03*
X150235D03*
X154172D03*
X146298Y169358D03*
X150235D03*
X154172D03*
X146298Y165420D03*
X150235D03*
X154172D03*
X146298Y161484D03*
X150235D03*
X154172D03*
X146298Y189042D03*
X150235D03*
X154172D03*
X146298Y185106D03*
X150235D03*
X154172D03*
X146298Y181168D03*
X150235D03*
X154172D03*
X146298Y177232D03*
X150235D03*
X154172D03*
X146298Y200854D03*
X150235D03*
X154172D03*
X146298Y196916D03*
X150235D03*
X154172D03*
X146298Y192980D03*
X150235D03*
X154172D03*
X146298Y216602D03*
X150235D03*
X154172D03*
X146298Y212665D03*
X150235D03*
X154172D03*
X146298Y208728D03*
X150235D03*
X154172D03*
X146298Y204791D03*
X150235D03*
X154172D03*
X146298Y228413D03*
X150235D03*
X154172D03*
X146298Y224476D03*
X150235D03*
X154172D03*
X146298Y220539D03*
X150235D03*
X154172D03*
X158109Y141798D03*
X162046D03*
X165984D03*
X169920D03*
X158109Y137861D03*
X162046D03*
X165984D03*
X169920D03*
X158109Y133924D03*
X162046D03*
X165984D03*
X169920D03*
X158109Y129987D03*
X162046D03*
X165984D03*
X169920D03*
X158109Y157546D03*
X162046D03*
X165984D03*
X169920D03*
X158109Y153609D03*
X162046D03*
X165984D03*
X169920D03*
X158109Y149672D03*
X162046D03*
X165984D03*
X169920D03*
X158109Y145735D03*
X162046D03*
X165984D03*
X169920D03*
X158109Y173294D03*
X162046D03*
X165984D03*
X169920D03*
X158109Y169358D03*
X162046D03*
X165984D03*
X169920D03*
X158109Y165420D03*
X162046D03*
X165984D03*
X169920D03*
X158109Y161484D03*
X162046D03*
X165984D03*
X169920D03*
X158109Y189042D03*
X162046D03*
X165984D03*
X169920D03*
X158109Y185106D03*
X162046D03*
X165984D03*
X169920D03*
X158109Y181168D03*
X162046D03*
X165984D03*
X169920D03*
X158109Y177232D03*
X162046D03*
X165984D03*
X169920D03*
X158109Y200854D03*
X162046D03*
X165984D03*
X169920D03*
X158109Y196916D03*
X162046D03*
X165984D03*
X169920D03*
X158109Y192980D03*
X162046D03*
X165984D03*
X169920D03*
X158109Y216602D03*
X162046D03*
X165984D03*
X169920D03*
X158109Y212665D03*
X162046D03*
X165984D03*
X169920D03*
X158109Y208728D03*
X162046D03*
X165984D03*
X169920D03*
X158109Y204791D03*
X162046D03*
X165984D03*
X169920D03*
X158109Y228413D03*
X162046D03*
X165984D03*
X169920D03*
X158109Y224476D03*
X162046D03*
X165984D03*
X169920D03*
X158109Y220539D03*
X162046D03*
X165984D03*
X169920D03*
X173858Y141798D03*
X177794D03*
X181732D03*
X185668D03*
X173858Y137861D03*
X177794D03*
X181732D03*
X185668D03*
X173858Y133924D03*
X177794D03*
X181732D03*
X185668D03*
X173858Y129987D03*
X177794D03*
X181732D03*
X185668D03*
X173858Y157546D03*
X177794D03*
X181732D03*
X185668D03*
X173858Y153609D03*
X177794D03*
X181732D03*
X185668D03*
X173858Y149672D03*
X177794D03*
X181732D03*
X185668D03*
X173858Y145735D03*
X177794D03*
X181732D03*
X185668D03*
X173858Y173294D03*
X177794D03*
X181732D03*
X185668D03*
X173858Y169358D03*
X177794D03*
X181732D03*
X185668D03*
X173858Y165420D03*
X177794D03*
X181732D03*
X185668D03*
X173858Y161484D03*
X177794D03*
X181732D03*
X185668D03*
X173858Y189042D03*
X177794D03*
X181732D03*
X185668D03*
X173858Y185106D03*
X177794D03*
X181732D03*
X185668D03*
X173858Y181168D03*
X177794D03*
X181732D03*
X185668D03*
X173858Y177232D03*
X177794D03*
X181732D03*
X185668D03*
X173858Y200854D03*
X177794D03*
X181732D03*
X185668D03*
X173858Y196916D03*
X177794D03*
X181732D03*
X185668D03*
X173858Y192980D03*
X177794D03*
X181732D03*
X185668D03*
X173858Y216602D03*
X177794D03*
X181732D03*
X185668D03*
X173858Y212665D03*
X177794D03*
X181732D03*
X185668D03*
X173858Y208728D03*
X177794D03*
X181732D03*
X185668D03*
X173858Y204791D03*
X177794D03*
X181732D03*
X185668D03*
X173858Y228413D03*
X177794D03*
X181732D03*
X185668D03*
X173858Y224476D03*
X177794D03*
X181732D03*
X185668D03*
X173858Y220539D03*
X177794D03*
X181732D03*
X185668D03*
X189606Y141798D03*
X193542D03*
X197480D03*
X201417D03*
X189606Y137861D03*
X193542D03*
X197480D03*
X201417D03*
X189606Y133924D03*
X193542D03*
X197480D03*
X201417D03*
X189606Y129987D03*
X193542D03*
X197480D03*
X201417D03*
X189606Y157546D03*
X193542D03*
X197480D03*
X201417D03*
X189606Y153609D03*
X193542D03*
X197480D03*
X201417D03*
X189606Y149672D03*
X193542D03*
X197480D03*
X201417D03*
X189606Y145735D03*
X193542D03*
X197480D03*
X201417D03*
X189606Y173294D03*
X193542D03*
X197480D03*
X201417D03*
X189606Y169358D03*
X193542D03*
X197480D03*
X201417D03*
X189606Y165420D03*
X193542D03*
X197480D03*
X201417D03*
X189606Y161484D03*
X193542D03*
X197480D03*
X201417D03*
X189606Y189042D03*
X193542D03*
X197480D03*
X201417D03*
X189606Y185106D03*
X193542D03*
X197480D03*
X201417D03*
X189606Y181168D03*
X193542D03*
X197480D03*
X201417D03*
X189606Y177232D03*
X193542D03*
X197480D03*
X201417D03*
X189606Y200854D03*
X193542D03*
X197480D03*
X201417D03*
X189606Y196916D03*
X193542D03*
X197480D03*
X201417D03*
X189606Y192980D03*
X193542D03*
X197480D03*
X201417D03*
X189606Y216602D03*
X193542D03*
X197480D03*
X201417D03*
X189606Y212665D03*
X193542D03*
X197480D03*
X201417D03*
X189606Y208728D03*
X193542D03*
X197480D03*
X201417D03*
X189606Y204791D03*
X193542D03*
X197480D03*
X201417D03*
X189606Y228413D03*
X193542D03*
X197480D03*
X201417D03*
X189606Y224476D03*
X193542D03*
X197480D03*
X201417D03*
X189606Y220539D03*
X193542D03*
X197480D03*
X201417D03*
X205354Y141798D03*
X209291D03*
X213228D03*
X217165D03*
X205354Y137861D03*
X209291D03*
X213228D03*
X217165D03*
X205354Y133924D03*
X209291D03*
X213228D03*
X217165D03*
X205354Y129987D03*
X209291D03*
X213228D03*
X217165D03*
X205354Y157546D03*
X209291D03*
X213228D03*
X217165D03*
X205354Y153609D03*
X209291D03*
X213228D03*
X217165D03*
X205354Y149672D03*
X209291D03*
X213228D03*
X217165D03*
X205354Y145735D03*
X209291D03*
X213228D03*
X217165D03*
X205354Y173294D03*
X209291D03*
X213228D03*
X217165D03*
X205354Y169358D03*
X209291D03*
X213228D03*
X217165D03*
X205354Y165420D03*
X209291D03*
X213228D03*
X217165D03*
X205354Y161484D03*
X209291D03*
X213228D03*
X217165D03*
X205354Y189042D03*
X209291D03*
X213228D03*
X217165D03*
X205354Y185106D03*
X209291D03*
X213228D03*
X217165D03*
X205354Y181168D03*
X209291D03*
X213228D03*
X217165D03*
X205354Y177232D03*
X209291D03*
X213228D03*
X217165D03*
X205354Y200854D03*
X209291D03*
X213228D03*
X217165D03*
X205354Y196916D03*
X209291D03*
X213228D03*
X217165D03*
X205354Y192980D03*
X209291D03*
X213228D03*
X217165D03*
X205354Y216602D03*
X209291D03*
X213228D03*
X217165D03*
X205354Y212665D03*
X209291D03*
X213228D03*
X217165D03*
X205354Y208728D03*
X209291D03*
X213228D03*
X217165D03*
X205354Y204791D03*
X209291D03*
X213228D03*
X217165D03*
X205354Y228413D03*
X209291D03*
X213228D03*
X217165D03*
X205354Y224476D03*
X209291D03*
X213228D03*
X217165D03*
X205354Y220539D03*
X209291D03*
X213228D03*
X217165D03*
X221102Y141798D03*
X225039D03*
X228976D03*
X221102Y137861D03*
X225039D03*
X228976D03*
X221102Y133924D03*
X225039D03*
X228976D03*
X221102Y129987D03*
X225039D03*
X228976D03*
X221102Y157546D03*
X225039D03*
X228976D03*
X221102Y153609D03*
X225039D03*
X228976D03*
X221102Y149672D03*
X225039D03*
X228976D03*
X221102Y145735D03*
X225039D03*
X228976D03*
X221102Y173294D03*
X225039D03*
X228976D03*
X221102Y169358D03*
X225039D03*
X228976D03*
X221102Y165420D03*
X225039D03*
X228976D03*
X221102Y161484D03*
X225039D03*
X228976D03*
X221102Y189042D03*
X225039D03*
X228976D03*
X221102Y185106D03*
X225039D03*
X228976D03*
X221102Y181168D03*
X225039D03*
X228976D03*
X221102Y177232D03*
X225039D03*
X228976D03*
X221102Y200854D03*
X225039D03*
X228976D03*
X221102Y196916D03*
X225039D03*
X228976D03*
X221102Y192980D03*
X225039D03*
X228976D03*
X221102Y216602D03*
X225039D03*
X228976D03*
X221102Y212665D03*
X225039D03*
X228976D03*
X221102Y208728D03*
X225039D03*
X228976D03*
X221102Y204791D03*
X225039D03*
X228976D03*
X221102Y228413D03*
X225039D03*
X228976D03*
X221102Y224476D03*
X225039D03*
X228976D03*
X221102Y220539D03*
X225039D03*
X228976D03*
X232913Y141798D03*
Y137861D03*
Y133924D03*
Y157546D03*
Y153609D03*
Y149672D03*
Y145735D03*
Y173294D03*
Y169358D03*
Y165420D03*
Y161484D03*
Y189042D03*
Y185106D03*
Y181168D03*
Y177232D03*
Y200854D03*
Y196916D03*
Y192980D03*
Y216602D03*
Y212665D03*
Y208728D03*
Y204791D03*
Y224476D03*
Y220539D03*
G54D41*
X440100Y70800D03*
Y82800D03*
G54D14*
X28400Y76749D03*
X40408Y290843D03*
G54D32*
X341900Y354600D03*
X391900Y304600D03*
G54D33*
X367367Y274800D03*
Y289800D03*
Y284800D03*
Y279800D03*
X388233Y274800D03*
Y279800D03*
Y284800D03*
Y289800D03*
G54D24*
X155378Y65301D03*
Y62151D03*
Y59002D03*
Y84198D03*
Y81049D03*
Y77899D03*
X171126Y65301D03*
Y62151D03*
Y59002D03*
X167976Y65301D03*
Y62151D03*
Y59002D03*
X164827Y65301D03*
Y62151D03*
Y59002D03*
X161677Y65301D03*
Y62151D03*
Y59002D03*
X158528Y65301D03*
Y62151D03*
Y59002D03*
X171126Y84198D03*
Y81049D03*
Y77899D03*
X167976Y84198D03*
Y81049D03*
Y77899D03*
X164827Y84198D03*
Y81049D03*
Y77899D03*
X161677Y84198D03*
Y81049D03*
Y77899D03*
X158528Y84198D03*
Y81049D03*
Y77899D03*
X186677Y17801D03*
Y14651D03*
Y11502D03*
X183528Y17801D03*
Y14651D03*
Y11502D03*
X180378Y17801D03*
Y14651D03*
Y11502D03*
X186677Y36698D03*
Y33549D03*
Y30399D03*
X183528Y36698D03*
Y33549D03*
Y30399D03*
X180378Y36698D03*
Y33549D03*
Y30399D03*
X186874Y65301D03*
Y62151D03*
Y59002D03*
X183724Y65301D03*
Y62151D03*
Y59002D03*
X180575Y65301D03*
Y62151D03*
Y59002D03*
X177425Y65301D03*
Y62151D03*
Y59002D03*
X174276Y65301D03*
Y62151D03*
Y59002D03*
X186874Y84198D03*
Y81049D03*
Y77899D03*
X183724Y84198D03*
Y81049D03*
Y77899D03*
X180575Y84198D03*
Y81049D03*
Y77899D03*
X177425Y84198D03*
Y81049D03*
Y77899D03*
X174276Y84198D03*
Y81049D03*
Y77899D03*
X199276Y17801D03*
Y14651D03*
Y11502D03*
X196126Y17801D03*
Y14651D03*
Y11502D03*
X192976Y17801D03*
Y14651D03*
Y11502D03*
X189827Y17801D03*
Y14651D03*
Y11502D03*
X199276Y36698D03*
Y33549D03*
Y30399D03*
X196126Y36698D03*
Y33549D03*
Y30399D03*
X192976Y36698D03*
Y33549D03*
Y30399D03*
X189827Y36698D03*
Y33549D03*
Y30399D03*
X199472Y65301D03*
Y62151D03*
Y59002D03*
X196323Y65301D03*
Y62151D03*
Y59002D03*
X193173Y65301D03*
Y62151D03*
Y59002D03*
X190024Y65301D03*
Y62151D03*
Y59002D03*
X199472Y84198D03*
Y81049D03*
Y77899D03*
X196323Y84198D03*
Y81049D03*
Y77899D03*
X193173Y84198D03*
Y81049D03*
Y77899D03*
X190024Y84198D03*
Y81049D03*
Y77899D03*
X215024Y17801D03*
Y14651D03*
Y11502D03*
X211874Y17801D03*
Y14651D03*
Y11502D03*
X208724Y17801D03*
Y14651D03*
Y11502D03*
X205575Y17801D03*
Y14651D03*
Y11502D03*
X202425Y17801D03*
Y14651D03*
Y11502D03*
X215024Y36698D03*
Y33549D03*
Y30399D03*
X211874Y36698D03*
Y33549D03*
Y30399D03*
X208724Y36698D03*
Y33549D03*
Y30399D03*
X205575Y36698D03*
Y33549D03*
Y30399D03*
X202425Y36698D03*
Y33549D03*
Y30399D03*
X202622Y65301D03*
Y62151D03*
Y59002D03*
Y84198D03*
Y81049D03*
Y77899D03*
X227622Y17801D03*
Y14651D03*
Y11502D03*
X224472Y17801D03*
Y14651D03*
Y11502D03*
X221323Y17801D03*
Y14651D03*
Y11502D03*
X218173Y17801D03*
Y14651D03*
Y11502D03*
X227622Y36698D03*
Y33549D03*
Y30399D03*
X224472Y36698D03*
Y33549D03*
Y30399D03*
X221323Y36698D03*
Y33549D03*
Y30399D03*
X218173Y36698D03*
Y33549D03*
Y30399D03*
G54D42*
X440750Y265600D03*
X430650D03*
G54D15*
X81800Y87100D03*
Y91100D03*
Y110600D03*
Y106600D03*
X97500Y229800D03*
Y225800D03*
X332900Y156900D03*
Y169900D03*
Y165900D03*
Y160900D03*
X424600Y277600D03*
Y281600D03*
X449500Y113500D03*
Y117500D03*
G54D16*
X102000Y28800D03*
X90500Y343000D03*
X103500Y2700D03*
X121000D03*
X126800Y28100D03*
X123000Y375500D03*
X138500Y2700D03*
X144000Y362500D03*
X156000Y2700D03*
X250000Y282500D03*
X283200Y16700D03*
X281900Y52000D03*
X295000Y85000D03*
Y140000D03*
X297900Y189800D03*
X300000Y227500D03*
X306000Y282500D03*
X324100Y17400D03*
X327100Y110400D03*
X342000Y36900D03*
X346300Y110400D03*
X346400Y131500D03*
X351100Y168900D03*
X343300Y280400D03*
X393700Y65800D03*
X392500Y247500D03*
X405800Y188600D03*
X419100Y216000D03*
X428600Y364100D03*
X474000Y70500D03*
X473500Y97000D03*
G54D25*
X166000Y362600D03*
Y371600D03*
X188000Y362600D03*
Y371600D03*
X210000Y362600D03*
Y371600D03*
X232000Y362600D03*
Y371600D03*
X254000Y362600D03*
Y371600D03*
X277000Y362600D03*
Y371600D03*
X299000Y362600D03*
Y371600D03*
X319500Y362600D03*
Y371600D03*
G54D43*
X432460Y277710D03*
X439940D03*
X432460Y291490D03*
X439940D03*
X436200D03*
G54D34*
X363947Y307454D03*
X361979D03*
X360010D03*
X358042D03*
X356073D03*
X354105D03*
X352136D03*
Y351746D03*
X354105D03*
X356073D03*
X358042D03*
X360010D03*
X361979D03*
X363947D03*
X379695Y307454D03*
X377727D03*
X375758D03*
X373790D03*
X371821D03*
X369853D03*
X367884D03*
X365916D03*
Y351746D03*
X367884D03*
X369853D03*
X371821D03*
X373790D03*
X375758D03*
X377727D03*
X379695D03*
X381664Y307454D03*
Y351746D03*
G54D35*
X399300Y115800D03*
Y110800D03*
Y105800D03*
Y120800D03*
X429300Y105800D03*
Y110800D03*
Y115800D03*
Y120800D03*
X437900Y201300D03*
Y196300D03*
Y211300D03*
Y206300D03*
X467900Y196300D03*
Y201300D03*
Y206300D03*
Y211300D03*
G54D44*
X448400Y84400D03*
X448410Y96670D03*
X459200Y84400D03*
X459210Y96670D03*
G54D17*
X93100Y84100D03*
X105100D03*
G54D26*
X235000Y89300D03*
X244000D03*
G54D27*
X240000Y272500D03*
Y292500D03*
X260000Y272500D03*
Y292500D03*
X285000Y75000D03*
Y95000D03*
Y130000D03*
Y150000D03*
X290000Y217500D03*
Y237500D03*
X305000Y75000D03*
Y95000D03*
Y130000D03*
Y150000D03*
X310000Y217500D03*
Y237500D03*
X296000Y272500D03*
Y292500D03*
X316000Y272500D03*
Y292500D03*
G54D45*
X455000Y119500D03*
X467000D03*
G54D36*
X406396Y298110D03*
X403300Y322600D03*
X409500D03*
X403300Y332600D03*
X409500D03*
X403300Y327600D03*
X409500D03*
X403300Y337600D03*
X409500D03*
X403800Y351600D03*
X410000D03*
X403300Y342600D03*
X409500D03*
X412596Y298110D03*
X439000Y324900D03*
X432800D03*
X439000Y330200D03*
X432800D03*
X448900Y105500D03*
X455100D03*
G54D18*
X95800Y94100D03*
X91800D03*
X95800Y104100D03*
X91800D03*
X111500Y73800D03*
Y81800D03*
Y77800D03*
Y85800D03*
X115500Y73800D03*
Y81800D03*
Y77800D03*
Y85800D03*
X354000Y275900D03*
X358000D03*
X354000Y289400D03*
X358000D03*
X354000Y284900D03*
X358000D03*
X354000Y280400D03*
X358000D03*
X405400Y347100D03*
X409400D03*
X413000D03*
X417000D03*
X453500Y110000D03*
X449500D03*
G54D28*
X239500Y329900D03*
X388773Y210500D03*
X413500Y232000D03*
Y267500D03*
X433500Y232000D03*
X453500D03*
X466000Y267500D03*
X473500Y232000D03*
G54D37*
X406166Y305264D03*
Y311957D03*
X414827Y305264D03*
Y311957D03*
G54D19*
X97732Y172500D03*
Y164000D03*
Y181500D03*
X104268Y172500D03*
Y164000D03*
Y181500D03*
X263732Y169500D03*
X270268D03*
X263732Y162500D03*
X270268D03*
G54D46*
X451400Y283000D03*
Y291000D03*
G54D47*
X453411Y310280D03*
Y345320D03*
X475065Y310280D03*
Y345320D03*
G54D29*
X239500Y339900D03*
X249500Y329900D03*
X259500D03*
X249500Y339900D03*
X259500D03*
X269500Y329900D03*
Y339900D03*
X279500Y329900D03*
Y339900D03*
X388773Y220500D03*
Y230500D03*
X413500Y242000D03*
Y252000D03*
Y277500D03*
Y287500D03*
X433500Y242000D03*
Y252000D03*
X453500Y242000D03*
Y252000D03*
X466000Y277500D03*
Y287500D03*
X473500Y242000D03*
Y252000D03*
G54D38*
X430700Y32500D03*
G54D39*
X414590Y62746D03*
X419590D03*
X424590D03*
Y84534D03*
X419590D03*
X414590D03*
X429590Y62746D03*
Y84534D03*
G54D48*
X453017Y321501D03*
Y334099D03*
Y330950D03*
Y324650D03*
Y327800D03*
G54D49*
G01X27550Y-93634D02*
X27950Y-94050D01*
X28400Y-94300D01*
X28800D01*
X29200Y-94050D01*
X29500Y-93634D01*
X29650Y-93050D01*
X29550Y-92467D01*
X29300Y-91967D01*
X28850Y-91633D01*
X28250Y-91467D01*
X27900Y-91133D01*
X27750Y-90550D01*
X27850Y-89967D01*
X28100Y-89550D01*
X28450Y-89300D01*
X28800D01*
X29150Y-89467D01*
X29450Y-89883D01*
G01X32100Y-94300D02*
X31700Y-94217D01*
X31350Y-93883D01*
X31050Y-93383D01*
X30850Y-92800D01*
X30750Y-92133D01*
Y-91467D01*
X30850Y-90800D01*
X31050Y-90217D01*
X31350Y-89717D01*
X31700Y-89383D01*
X32100Y-89300D01*
X32500Y-89383D01*
X32850Y-89717D01*
X33150Y-90217D01*
X33350Y-90800D01*
X33450Y-91467D01*
Y-92133D01*
X33350Y-92800D01*
X33150Y-93383D01*
X32850Y-93883D01*
X32500Y-94217D01*
X32100Y-94300D01*
G01X34600Y-89300D02*
Y-94300D01*
X36600D01*
G01X38000D02*
Y-89300D01*
X39000D01*
X39400Y-89550D01*
X39700Y-89883D01*
X39950Y-90383D01*
X40150Y-90967D01*
X40200Y-91800D01*
X40150Y-92633D01*
X39950Y-93217D01*
X39700Y-93717D01*
X39400Y-94050D01*
X39000Y-94300D01*
X38000D01*
G01X43600D02*
X41600D01*
Y-89300D01*
X43600D01*
G01X42800Y-91717D02*
X41600D01*
G01X45100Y-94300D02*
Y-89300D01*
X46350D01*
X46750Y-89550D01*
X47000Y-89883D01*
X47100Y-90550D01*
X47000Y-91217D01*
X46700Y-91633D01*
X46350Y-91883D01*
X45100D01*
G01X46350D02*
X47100Y-94300D01*
G01X48300D02*
Y-89300D01*
X49600Y-93467D01*
X50900Y-89300D01*
Y-94300D01*
G01X51850D02*
X53100Y-89300D01*
X54350Y-94300D01*
G01X53900Y-92550D02*
X52300D01*
G01X55550Y-93634D02*
X55950Y-94050D01*
X56400Y-94300D01*
X56800D01*
X57200Y-94050D01*
X57500Y-93634D01*
X57650Y-93050D01*
X57550Y-92467D01*
X57300Y-91967D01*
X56850Y-91633D01*
X56250Y-91467D01*
X55900Y-91133D01*
X55750Y-90550D01*
X55850Y-89967D01*
X56100Y-89550D01*
X56450Y-89300D01*
X56800D01*
X57150Y-89467D01*
X57450Y-89883D01*
G01X59000Y-94300D02*
Y-89300D01*
G01X60900D02*
X59000Y-92383D01*
G01X61200Y-94300D02*
X59850Y-90967D01*
G01X67100Y-89300D02*
Y-94300D01*
G01X65950Y-89300D02*
X68250D01*
G01X70600Y-94300D02*
X70200Y-94217D01*
X69850Y-93883D01*
X69550Y-93383D01*
X69350Y-92800D01*
X69250Y-92133D01*
Y-91467D01*
X69350Y-90800D01*
X69550Y-90217D01*
X69850Y-89717D01*
X70200Y-89383D01*
X70600Y-89300D01*
X71000Y-89383D01*
X71350Y-89717D01*
X71650Y-90217D01*
X71850Y-90800D01*
X71950Y-91467D01*
Y-92133D01*
X71850Y-92800D01*
X71650Y-93383D01*
X71350Y-93883D01*
X71000Y-94217D01*
X70600Y-94300D01*
G01X73100D02*
Y-89300D01*
X74300D01*
X74700Y-89550D01*
X75000Y-90133D01*
X75100Y-90800D01*
X75000Y-91467D01*
X74750Y-91967D01*
X74300Y-92217D01*
X73100D01*
M02*
