M48
INCH,TZ
T01C.006
T02C.008
T03C.008
T04C.01
T05C.01
T06C.012
T07C.012008
T08C.015
T09C.038
T10C.055
T11C.062
T12C.067
T13C.106
T14C.12
T15C.14
T16C.035
T17C.05
T18C.125
;LEADER: 12 
;HEADER: 
;CODE  : ASCII 
;FILE  : TSW14J50_B-1-14.drl for  ... layers TOP and BOTTOM
;T01 Holesize 1. = 6.000000 Tolerance = +3.000000/-3.000000 PLATED MILS Quantity = 31
;T02 Holesize 2. = 8.000000 Tolerance = +0.000000/-0.000000 PLATED MILS Quantity = 700
;T03 Holesize 3. = 8.000000 Tolerance = +3.000000/-8.000000 PLATED MILS Quantity = 27
;T04 Holesize 4. = 10.000000 Tolerance = +0.000000/-0.000000 PLATED MILS Quantity = 245
;T05 Holesize 5. = 10.000000 Tolerance = +3.000000/-10.000000 PLATED MILS Quantity = 971
;T06 Holesize 6. = 12.000000 Tolerance = +0.000000/-0.000000 PLATED MILS Quantity = 350
;T07 Holesize 7. = 12.008000 Tolerance = +0.000000/-0.000000 PLATED MILS Quantity = 25
;T08 Holesize 8. = 15.000000 Tolerance = +0.000000/-0.000000 PLATED MILS Quantity = 24
;T09 Holesize 9. = 38.000000 Tolerance = +0.000000/-0.000000 PLATED MILS Quantity = 31
;T10 Holesize 10. = 55.000000 Tolerance = +3.000000/-0.000000 PLATED MILS Quantity = 6
;T11 Holesize 11. = 62.000000 Tolerance = +0.000000/-0.000000 PLATED MILS Quantity = 31
;T12 Holesize 12. = 67.000000 Tolerance = +0.000000/-0.000000 PLATED MILS Quantity = 20
;T13 Holesize 13. = 106.000000 Tolerance = +0.000000/-0.000000 PLATED MILS Quantity = 2
;T14 Holesize 14. = 120.000000 Tolerance = +3.000000/-3.000000 PLATED MILS Quantity = 2
;T15 Holesize 15. = 140.000000 Tolerance = +3.000000/-3.000000 PLATED MILS Quantity = 1
;T16 Holesize 16. = 35.000000 Tolerance = +0.000000/-0.000000 NON_PLATED MILS Quantity = 2
;T17 Holesize 17. = 50.000000 Tolerance = +0.000000/-0.000000 NON_PLATED MILS Quantity = 2
;T18 Holesize 18. = 125.000000 Tolerance = +0.000000/-0.000000 NON_PLATED MILS Quantity = 4
%
G90
T01
X152048Y139548
X147948Y139748
X184800Y13300
X186700Y23800
X183600Y21700
X186700Y26200
X188000Y16100
X180400Y26100
X183600Y24100
X181700Y16000
X202500Y24100
X199400Y26000
X191200Y13300
X189900Y21800
X196200
X189900Y24200
X193100Y26100
X196200Y24200
X184800Y32000
X188000Y34900
X197500Y32300
X191200
X194300Y35000
X199300Y42900
X152552Y163248
X160251Y194648
X164351Y194849
Y179048
X160251Y186748
Y178849
X164351Y186948
T02
X125600Y208900
X49059Y347135
Y345513
X43921Y345489
X45634
X47346Y347111
Y345489
X43921Y347111
X45634
X199500Y33300
X206805Y32319
X208724Y19540
X200506Y13421
X218173Y9605
X215024Y7636
X205575Y9605
X189827Y7636
X183528
X221323
X229900Y16700
X183528Y38438
X189827
X211874Y40564
X227622Y38438
X225702Y32319
X221323Y38438
X219403Y32319
X224500Y17900
X221200
X208700Y30000
X212000
X227622Y26534
X225702Y13421
X228852Y34779
X227622Y19540
X222553Y34779
X221600Y14900
X221323Y26534
X218173Y21666
X205575
X210300Y35100
X206805Y13421
X206700Y28300
X213104Y13421
Y32319
X211874Y21666
X215024Y26534
X218173Y28502
X215024Y19540
X199276Y40564
Y28502
X192976
X191057Y15881
X197356Y34779
X202425Y26534
X196126
X194206Y32319
X178250Y28500
X190960Y19740
X181780Y19570
X194380Y19520
X183528Y26534
X181608Y13421
X184758Y34779
Y15881
X187907Y32319
Y13421
X186677Y28502
X191057Y34779
X186677Y21666
X189827Y26534
X199276Y9605
X181608Y32319
X198800Y18480
X203260Y18550
X194206Y13421
X205575Y40564
X197356Y15881
X180378Y9605
Y40564
X186677Y9605
Y40564
X192976Y9605
Y40564
X203655Y15881
Y34779
X208724Y7636
X209954Y15881
X209800Y38000
X211874Y9605
X216254Y15881
Y34779
X215024Y38438
X219403Y13421
X218173Y40564
X224472Y9605
Y28502
Y40564
X227622Y7636
X158528Y55136
X164827
X190024
X196323
X172800Y60700
X180575Y57105
X183724Y67040
X193173Y57105
X203852Y63381
X175506Y79819
X181805
X194403
X200702
X158528Y85938
X164827
X186874Y88064
X196323Y85938
X202622
Y74034
X200702Y60921
X203852Y82279
X202622Y67040
X197900Y82600
X197553Y63381
X196323Y74034
X193173Y69166
X180575
X184954Y82279
X181805Y60921
X180575Y76002
X188104Y60921
X187600Y80200
X186874Y69166
X190024Y74034
X187100Y77600
X183400
X196323Y67040
X199472Y69166
X190024Y67040
X193173Y76002
X174276Y88064
X174300Y77500
X167976Y76002
X166057Y63381
X172700Y82600
X177425Y74034
X171126
X169206Y79819
X155378Y76002
X164827Y67040
X158528
X171126
X158530Y75410
X156608Y60921
X159758Y82279
Y63381
X162907Y79819
Y60921
X161677Y76002
X166057Y82279
X161677Y69166
X164840Y75530
X174276Y57105
X156608Y79819
X174400Y65600
X177500
X169206Y60921
X180575Y88064
X172356Y63381
X155378Y57105
Y88064
X161677Y57105
Y88064
X167976Y57105
Y88064
X178655Y63381
Y82279
X183724Y55136
X184954Y63381
X183724Y85938
X186874Y57105
X191254Y63381
Y82279
X190024Y85938
X194403Y60921
X193100Y89200
X199472Y57105
X199600Y77400
X199472Y88064
X202622Y55136
X154172Y145735
X213228Y196916
X158109Y208728
X225039Y129987
X232913Y161484
Y157546
Y173294
Y177232
X154172Y216602
Y212665
X228976Y165420
X225039
X213228Y169358
X232913Y224476
X134487Y141798
X221102Y192980
X209291Y185106
R02X11811
X205354Y181168
X221102Y177232
X146298Y216602
X221102Y204791
Y145735
X225039Y137861
X228976
X221102
X154172Y165420
X150235
X154172Y177232
Y181168
X150235
X154172Y192980
X150235
X146298Y169358
X142361
X146298Y185106
X142361
X146298Y145735
X142361
X146298Y153609
X142361
X146298Y161484
X142361
X146298Y177232
X142361
X146298Y192980
X142361
X146298Y208728
X142361
X138424Y189042
X134487
X138424Y173294
X134487
X138424Y157546
X134487
X138424Y149672
X134487
X138424Y165420
X134487
X138424Y181168
X134487
X138424Y196916
X134487
X138424Y212665
X134487
X201416Y169358
X193542
X177794
X205354Y173294
X169920Y177232
Y185106
X205354Y189042
X201416Y192980
X193542
X177794
X154172Y173294
X150235
X154172Y185106
X150235Y189042
X197480Y173294
R03X-7874
X201416Y177232
R03X-7874
X201416Y181168
X197480
X189606
R02X-7874
X201416Y185106
R03X-7874
X197480Y189042
R03X-7874
X232913Y216602
X225039Y141798
X217165Y149672
X209291Y157546
X205354Y165420
X169920Y196916
X162046Y200854
X154172
X225039Y204791
X213228
X177794
X162046Y208728
X150235Y212665
X177794Y216602
X165984
X154172Y220539
X169920Y228413
X205354Y196916
X213228Y153609
Y189042
X189606Y161484
Y157546
X193542Y137861
X189606Y165420
X193542Y161484
Y149672
X197480Y137861
Y133924
X189606
Y137861
X185668Y153609
Y129987
Y133924
X181731Y137861
X177794Y129987
X181731
X185668Y141798
Y145735
X193542Y129987
X189606
X181731Y149672
X189606
X213228Y129987
X217165
X201416Y145735
Y141798
X213228
Y145735
X201416Y161484
X209291Y145735
Y149672
X217165Y137861
X213228Y133924
Y137861
X201416Y153609
Y157546
X197480Y145735
X205354Y137861
Y141798
Y129987
X197480Y153609
X162046Y177232
X197480Y157546
X165984Y185106
Y177232
X162046Y185106
X205354Y149672
X197480Y161484
X165984Y149672
X177794Y165420
X165984
X169920Y141798
X181731Y161484
X177794
Y133924
X165984Y137861
X173858Y157546
Y161484
Y149672
Y153609
X169920Y129987
X173858
Y141798
Y145735
Y133924
X169920Y137861
Y161484
Y149672
Y165420
X165984Y161484
X146298Y200854
X142361
X177794Y137861
X165984Y145735
X177794
Y141798
X134487Y204791
X138424
X154172Y161484
X150235Y137861
X146298
X225039Y220539
X228976Y212665
X225039Y216602
X197480Y149672
X169920Y153609
X185668Y157546
Y228413
X150235Y149672
X165984Y228413
X162046Y216602
R02Y3937
X146298Y129987
X150235Y133924
X154172Y137861
Y133924
X201416Y220539
Y224476
X197480Y204791
Y208728
X232913Y192980
X217165Y196916
X225039
X209291Y177232
X165984Y169358
X154172
X165984Y189042
X185668Y192980
X158109Y181168
X189606Y169358
X209291Y181168
X197480Y169358
X185668
X169920
X165984Y173294
Y181168
X197480Y192980
X181731
X169920
X158109Y189042
Y173294
X162046Y137861
X150235Y141798
X154172Y149672
X232913Y153609
X162046
X221102Y157546
X232913Y165420
X217165Y173294
X189606Y204791
X197480Y212665
X189606Y216602
X221102Y228413
X197480
X193542Y196916
X189606Y192980
X209291Y173294
Y169358
X162046Y165420
R02X11811
X201416
X221102Y216602
X209291Y224476
Y212665
X162046Y141798
R02Y3937
X177794Y153609
Y157546
X162046Y192980
X165984
X158109Y141798
Y137861
X154172Y153609
Y157546
X138424Y133924
X142361
X134487Y220539
X150235Y157546
X185668Y137861
X173858
X209291Y141798
X197480
X165984
X201416Y149672
X209291Y153609
X185668Y149672
X177794
X165984Y129987
X197480
X209291
X142361Y137861
X158109Y161484
X142361Y224476
X150235Y204791
X142361Y220539
X165984Y204791
Y200854
X169920Y204791
Y208728
X134487Y224476
X173858
Y220539
Y208728
X154172
X165984
X177794Y212665
Y200854
X165984Y224476
Y212665
X169920Y216602
X177794Y208728
X173858Y216602
Y212665
X165984Y220539
X177794Y196916
X169920Y220539
X193542Y228413
X189606
X177794
X173858
X158109Y165420
X138424Y129987
X142361
X173858Y196916
Y200854
X185668Y216602
Y212665
X189606Y224476
Y220539
Y200854
Y196916
X185668Y200854
Y196916
X162046Y212665
X158109Y220539
Y216602
X154172Y204791
X177794Y220539
Y224476
X181731Y204791
Y208728
X146298Y224476
Y220539
Y228413
X150235
X228976Y133924
X217165
X205354
R03X-11811
X146298
X134487
Y137861
X146298Y141798
X142361
X228976Y145735
X217165
X205354
R03X-11811
X150235
X138424
X134487
X146298Y149672
X142361
X217165Y153609
X150235
X138424
X134487
X228976Y157546
X217165
X205354
R03X-11811
X146298
X142361
X209291Y161484
X150235
X138424
X134487
X193542Y165420
X146298
X142361
X228976Y169358
X217165
X205354
X181731
X173858
X150235
X138424
X134487
X201416Y173294
R05X-7874
X146298
X142361
X205354Y177232
R04X-7874
X150235
X138424
X134487
X228976Y181168
X217165
X193542
R04X-7874
X146298
X142361
X205354Y185106
R04X-7874
X150235
X138424
X134487
X217165Y189042
X201416
X193542
R04X-7874
X154172
X146298
X142361
X228976Y192980
X209291
X205354
X173858
X138424
X134487
X209291Y196916
X165984
X162046
X154172
X150235
R02X-3937
X217165Y200854
X205354
X193542
R02X-11811
X150235
X138424
X134487
X228976Y204791
X205354
X173858
X146298
X142361
X189606Y208728
X150235
X138424
X134487
X217165Y212665
X205354
X193542
R02X-11811
X146298
X142361
X228976Y216602
X142361
X138424
X134487
X228976Y224476
X217165
X205354
R03X-11811
X158109
X150235
X228976Y228413
X158109Y212665
Y204791
Y200854
R04Y-7874
X162046
X158109Y157546
Y153609
Y145735
Y133924
X372366Y24189
X374079
X370654Y25811
Y24189
X372366Y25811
X374079
X368941Y25787
Y24165
T03
X154172Y145735
X225039Y129987
X213228Y173294
X209291Y185106
X205354Y181168
X221102Y185106
X221200Y177200
X232934Y184988
X221102Y192980
X225039Y189042
X221100Y145600
X225039Y137861
X229000Y137900
X221102Y137861
X228976Y189042
X209291Y173294
X193542Y196916
X189606Y192980
X209400Y169300
X201416Y165420
X185800Y165400
X173858Y165420
X162046
X177794Y157546
X162046Y204791
Y169358
X217165Y165420
T04
X5900Y186300
X45900Y101300
Y106300
Y121300
Y126300
X50900Y91300
Y96300
Y111300
Y116300
Y131300
Y136300
Y151300
Y156300
Y171300
Y176300
X40900Y271300
Y276300
Y251300
Y256300
X45900Y221300
Y226300
Y201300
Y206300
X50900Y191300
Y196300
Y211300
Y216300
Y231300
Y236300
Y251300
Y256300
Y271300
Y276300
X20900Y236300
Y241300
Y251300
Y256300
X5900Y261300
Y266300
X10900Y271300
Y276300
X15900Y201300
Y206300
X20900
Y211300
X5900Y176300
X15900Y276300
X10900Y176300
Y181300
X25900Y186300
Y191300
X15900Y131300
Y126300
X25900Y231300
Y236300
X20900Y226300
Y221300
X15900Y86300
X20900Y91300
X25900Y86300
X30900Y91300
X40900Y101300
Y111300
X35900Y86300
R02Y10000
X40900Y91300
X25900Y281300
X45900Y181300
X35900Y266300
X45900Y186300
X35900Y261300
Y241300
Y246300
X20900Y271300
Y276300
X15900Y261300
Y266300
X35900Y166300
Y171300
Y181300
Y186300
Y196300
Y201300
Y231300
Y226300
X5900Y91300
R12Y15000
Y276300
X10900Y86300
Y96300
Y111300
R10Y15000
Y266300
Y281300
X15900Y91300
R12Y15000
X20900Y86300
Y96300
Y111300
R10Y15000
Y266300
Y281300
X25900Y91300
R12Y15000
Y276300
X30900Y86300
Y96300
Y111300
R10Y15000
Y266300
Y281300
X35900Y91300
Y101300
Y146300
R07Y15000
Y256300
Y271300
Y276300
X40900Y86300
R02Y10000
Y121300
Y126300
Y141300
Y146300
Y161300
Y166300
Y181300
Y186300
Y201300
Y206300
Y221300
Y226300
Y241300
Y246300
Y261300
Y266300
Y281300
X45900Y91300
Y96300
Y111300
Y116300
Y131300
Y136300
Y151300
Y156300
Y171300
Y176300
Y191300
Y196300
Y211300
Y216300
Y231300
Y236300
Y251300
Y256300
Y271300
Y276300
X50900Y86300
Y101300
Y106300
Y121300
Y126300
Y141300
Y146300
Y161300
Y166300
Y181300
Y186300
Y201300
Y206300
Y221300
Y226300
Y241300
Y246300
Y261300
Y266300
Y281300
T05
X332900Y160900
Y156900
Y165900
Y169900
X97500Y229800
Y225800
X116800Y63600
X112901Y53799
X138500Y349500
X132500Y360000
X360000Y30000
Y13000
X349500Y100000
X342000Y93500
X57500Y358300
Y342300
X301100Y26200
X245400Y193200
X298500Y54700
X175300Y257100
X301937Y44737
X130500Y220500
X140800Y237900
X261700Y218400
X259259Y212859
X254800Y211300
X189500Y236100
X167800Y263000
X158400
X177200
X80800Y260500
X161000Y361500
X183500
X205000
R02X22000
X272000
X294000
X314500
X237300Y360600
X272000Y356700
X225100Y126000
X100300Y145100
Y153900
X427000Y223600
X433200Y157000
X452400Y154500
X91800Y104100
X81800Y106600
X455500Y147500
X433500
X72650Y199150
X69300Y197600
X88100Y229500
X250200Y262900
X246100Y253900
X246400Y258900
X76600Y238600
X78200Y233500
X104850Y219050
X108000Y213800
X111000Y213100
X102200Y209800
X108000Y209200
X111700Y207200
X101300Y204700
X102000Y214200
X468100Y211300
X467900Y206300
Y196300
Y201300
X292600Y43600
X168300Y9700
X167700Y23400
X167800Y19700
X170600Y17400
Y25800
X170800Y12200
X298000Y26200
X167700Y33400
X170600Y31000
X91800Y94100
X81800Y91100
X100300Y150400
X367884Y360216
X281400Y244100
X311800Y357400
X270200Y253600
X288100Y371600
X373800Y369300
X273700Y251400
X290000Y367700
X371821Y367021
X276400Y249300
X304600Y357600
X369853Y363353
X70387Y208813
X67462Y207238
X64937Y205663
X61312Y204088
X95100Y240100
X93400Y231800
X240762Y169750
X240732Y162000
X247298Y169750
X247268Y162000
X270268Y162500
Y169500
X263732
Y162500
X245800Y230438
X240600Y233200
X99900Y199800
X101100Y202000
X113000Y43000
X111000Y40000
X103500Y49000
X108000
X99000
X113232Y50232
X99300Y40500
X100500Y43000
X98000Y38000
X98500Y33000
X100500Y38000
X99300Y35500
X96000Y30500
Y35500
Y28000
Y33000
X94600Y82000
X91600Y86200
X93100Y84100
X95800Y94100
X131500Y102500
Y114500
X95800Y104100
X80600Y254400
X90600
X83000Y227500
X83500Y230000
X97200Y194000
X111600Y89100
X109100
X106100
X103600
X400000Y308400
X100800Y333500
X266100Y352900
X468900Y303200
X251000Y352400
X238200Y178700
X140800Y233900
X275100Y210300
X416500Y157100
X122500Y270295
X162500
X242000Y205800
X202500Y270295
X265600Y183000
X320800Y195700
X328800Y344900
X254700Y199200
X324050Y205700
X333800Y346600
X249500Y204500
X274400Y355100
X355900Y365400
X336900Y212600
X349300Y351900
X336200Y311900
X333800Y226600
X333100Y316100
X225200Y321500
X336000Y320200
X329600Y210900
X333900Y322200
X148300Y323700
X403600Y325300
X396100Y322300
X403400Y325100
X451400Y291000
X382884Y328616
X424700Y330200
X381664Y313164
X384700Y310100
X377100Y316600
X380200
X378700Y318600
X394490Y336490
X350300Y331300
X350400Y341800
X352310Y336490
X379695Y301405
X372400Y289800
X372600Y284800
X377600Y296300
X360010Y302090
X403300Y340200
X395900Y332500
X363947Y360053
X226400Y343300
X382400Y230700
X381664Y367464
X238200Y204900
X248700Y350100
X377727Y361027
X358042Y361742
X279200Y247300
X307500Y357500
X358042Y299242
X267300Y255700
X286150Y362750
X361979Y368179
X325700Y233700
X327821Y334521
X332600Y216300
X396000Y347800
X382800Y326100
X424500Y324900
X331900Y235400
X333900Y325800
X332800Y330700
X331400Y231800
X362900Y296900
X344754Y312746
X282800Y241400
X359800Y358000
X388233Y289800
Y279800
X414400Y325200
X354000Y280400
Y289400
Y284900
X354105Y315405
X360600Y318900
X356400Y321900
X358600Y320400
X352653Y326647
X350647
X354105Y343305
Y345305
X375758Y343958
X414400Y340100
X245900Y205700
X379695Y364305
X284100Y358800
X328100Y236400
X330353Y332553
X378800Y151700
X350189Y265489
X375100Y4400
X325400Y352800
X345100Y265700
X444600Y173200
X429000Y247500
X116500Y47700
X125700Y354000
X352158Y268242
X41200Y352500
X320300Y347200
X341700Y259900
X426500Y302700
X447800Y297900
X161000Y371600
X183400
X205000
X227000
X294100
X272000
X249000
X314500
X452100Y175400
X341474Y255826
X373000Y265500
X251700Y220600
X210000Y356890
X246900Y220500
X188000Y356890
X166000
X116000Y355000
X232000Y356890
X263400Y179400
X318200Y188200
X424800Y120800
X392100Y176500
X424800Y115800
X394500Y179600
X424800Y110800
X388200Y170800
X424800Y105800
X390100Y173600
X280300Y266400
X319500Y357500
X301800Y357200
X276000Y266400
X299000Y357400
X111000Y355000
X277000Y356890
X114100Y357200
X254000Y356890
X336700Y343100
X443100Y258600
X353600Y357600
X375600Y358500
X259500Y253700
X249000Y254700
X258332Y225632
X250500Y225400
X248100
X272841Y207741
X295100Y26300
X134800Y125900
X388100Y284800
Y274900
X409600Y342600
Y332700
Y327400
Y337700
Y322800
X414900Y305400
X412700Y298200
X422600Y306100
X406100Y312100
X384800Y303900
X368300Y316800
X365000Y316600
X366700Y318700
X360400Y330900
X356300Y333700
X358500Y332200
X354100Y300300
X338100Y336300
Y331300
Y325800
X475000Y305300
Y315500
X468820Y310280
X475000Y310300
X446900Y334100
X458700
X453000
X453400Y350600
Y340400
X459400Y345500
X447400
X453400
X453500Y304900
Y315600
X459500Y310300
X447100
X453500
X427600Y338800
Y316300
X76600Y250400
X88600Y241600
X86600Y250400
X89400Y239300
X91400Y229300
X79000Y229200
X72600Y219400
X92000Y219700
X82600Y219000
X90200Y204700
X83100Y203900
X418300Y105800
R03Y5000
X455600Y175400
X425100Y175000
X428800
X419200Y173200
X415500Y201600
X420000Y202800
X406900Y199500
X403200
X410500
X459300Y93200
X459200Y100200
X459210Y96670
X459200Y88100
Y84300
Y80800
X166000Y126000
X206900Y60400
X232249Y14051
X81800Y111100
X164800Y19600
X164700Y23500
X164800Y10000
X164700Y33200
X161100Y25800
X160900Y12200
X161000Y17400
X127500Y114500
Y102500
X161000Y31000
X85800Y116800
X72500Y111100
X244030Y167250
Y172250
X244000Y164500
Y159500
X267000Y167000
Y165000
Y160000
Y172000
X243000Y90600
X244800Y88100
X254400Y194400
X260400
X257300Y194300
X199400Y7100
X91000Y111100
X76800Y116800
X81800Y87100
X115500Y85800
R03Y-4000
X406200Y79000
X453500Y110000
X468500Y117500
X446100Y350300
X138500Y125900
X142400
X403100Y79000
X297800Y45500
X69300Y201600
X93200Y194000
X189500Y232600
X162400Y263000
R02X9400
X179300Y257100
X240600Y237200
X246400Y262900
X265700Y218400
X101000Y184000
Y175000
Y166500
X126800Y184100
X277500Y195500
X334000Y85000
X455859Y204059
X417000Y347100
X480900Y310300
X255500Y348900
X101000Y161500
X254800Y215100
X236934Y184988
X467000Y119500
X465500Y121600
X365916Y345916
X437400Y319300
X448600Y175400
X475000Y345500
X468800
X475000Y350600
Y340200
X455100Y105500
X480920Y345320
X18000Y-11000
R29X15000
X16000Y380500
X31000
X166000
R18X15000
X416000Y367500
X481500Y352000
R18Y-15000
X399000Y368000
X-10500Y354500
R19Y-15000
Y54000
R02Y-15000
X481500Y52500
R02Y-15000
X23500Y369000
X14500Y355500
X7000Y339500
X22000
X6500Y324500
X21500
X36500Y310000
X51500
X66000
X110500
X6000
Y294500
X51500Y293500
R02X15500
X67500Y279000
X82500Y279500
X98300Y280100
X64000Y251500
X73000Y244000
X97500Y245500
X102000Y259500
X67000Y227000
X86500Y206500
X82000Y167000
X92000Y182000
X71000
X59500Y161000
X57500Y139000
X68000
X76000Y144500
X91500Y142500
X57500Y129000
Y117500
X75000Y128500
X89500Y129000
X105000Y128500
X117500Y140000
X108000Y139500
X66000Y109500
X54000Y81500
X66500Y69000
X78000Y58000
X89000Y48000
X99000Y77000
X126000Y119500
X95500Y120500
X9000Y70000
X8500Y54500
X8000Y39000
Y24500
X25000
Y39000
X47500Y24500
X63000
X49500Y39500
X114000Y22000
X164500Y-2000
X155500Y22000
X145000Y33000
X134500Y44500
X108500Y68000
X119500Y70500
X144500
X137500Y59000
X132500Y85500
X139000Y119500
X128500Y129000
X117500Y165500
X119500Y184000
X121000Y241500
X131500
X148500Y242500
X143000Y250000
X147500Y260500
X132500
X191500Y269500
X123500Y284000
X136000Y310000
R05X15000
X227500
X241000
X136000Y293000
X203500Y282500
X221500Y269500
X191500Y293000
X211000
X187000Y258500
X232500Y260500
X257900Y281900
X258000Y302500
Y316500
X269000
X294000
X286500Y304000
Y278800
X276400Y282400
X276500Y303500
X311000Y316500
X292000Y255500
X210500Y262500
X225500Y263000
X220000Y287500
X246400Y237300
X278500Y204000
X246500Y201700
X335500Y204000
X336000Y241500
X362500Y236000
X375000
X361000Y268000
X386500Y198500
X398000
X393500Y187000
X373500Y178500
X256500Y171000
X257000Y161000
X280500Y173500
X304500
X241700Y151600
X258000Y149000
X273000
X243000Y134000
R02X15000
X316000Y151500
X315500Y135000
X324500Y126500
Y143500
X280500Y163500
X297000
X315000
X339000Y173500
X336000Y152000
X355000
X336500Y135000
X355000
X337000Y118000
X379000Y142000
X250000Y125000
X254800
X260100Y125100
X266000Y124000
X269500Y120500
X273500Y116000
X286900Y115700
X292000Y116000
Y124500
X297500
Y115500
Y108000
Y100500
X292500Y109500
Y101000
X272000Y109500
X278000
X285000
X240500Y119000
X236500
X246000
X251600
X257000
X262000
X266000Y115000
X321000Y95500
X311000Y66000
X339000
X350000Y75500
X342000Y82500
X321500Y80000
X331000Y76000
X356000Y65500
X375500
X375000Y83500
X293500Y61000
X244500Y95000
X259000Y95500
X273500
X244500Y79000
Y63500
X259500
X274500
X243000Y33000
R02X15000
X259500Y79000
R02X15000
X240000Y19500
R02X15000
X236500Y3500
R07X15000
X244000Y48500
X259000
X310500Y56500
X325500
X315000Y44000
X330000
X318000Y26500
X333000
X333500Y14000
X348500
X353500Y3500
X368500
X399500Y131000
X414500
X431000Y131500
X446000
X390500Y99500
R02X15000
X386000Y4000
R04X15000
X396000Y15000
R04X15000
X455500Y53000
X470500
X465000Y40500
X469500Y25000
X406000Y37500
X403000Y57500
X389000Y56000
X388000Y77000
X398500Y89000
X412000Y90000
X437000Y100000
X465000Y88500
X476000
X436500Y113000
X459000Y127500
X472000
X462000Y108500
X474500
X426000Y146000
X449500Y146500
X465000Y147000
X401500Y146500
Y159500
X384500
X401500Y175500
X413000
X417000Y192500
X426500Y166000
X450500Y169000
X468500
X472500Y157000
X468500Y185000
X453000Y215500
X467000
X459000Y223500
X475000Y224000
X399000Y232000
X405000Y261000
X387000Y256500
X422500Y262000
X456000Y263000
X465000Y249500
X442500Y248000
X400000Y275500
X399500Y291000
X386500Y298000
X422000
X438000Y298500
X460500
X434500Y312500
X470500Y282500
X444000Y284500
X343500Y302000
Y289000
X381000Y283000
X388000Y353500
X408500Y357500
X423500Y353000
X438000
X435000Y341000
X438500Y367500
X451000Y368000
X336000Y351500
X173700Y340600
X217500Y335000
X195000Y328000
X212000
X195500Y350500
X210500
X226000
X238500
X31000Y294500
X72000Y82500
X87000Y69500
X36000Y81000
X18000Y81500
X36000Y62000
X53000
X50000Y47500
X66500Y48500
X76500Y25000
X89500Y25500
X90500Y11000
X25000Y10000
R02X19000
X77500
X108000Y11000
X130500Y13500
X144000Y14000
X136000Y22500
X116500Y34000
X91500Y58500
X103500Y293500
X132500Y70500
X51000Y70000
X44000Y380500
R06X15000
X151000
X455000
X292500Y92500
X297500
X280600Y115800
X243800Y125000
X231300Y124900
X119800Y270300
X125100Y268600
Y272200
X165100Y270300
X159900Y272100
Y268500
X93000Y246200
X83400Y244700
X76700Y241500
X292600Y286200
X292400Y279000
X282300Y278200
X282200Y286200
X278400Y271000
X265800Y272300
X266700Y259400
X202500Y274800
X206000Y269700
X198700Y270100
X194600Y261000
X189800Y256400
X204500Y260400
X226700Y275700
X237600Y286300
X227200Y281800
X226700Y268600
X237800Y279200
X249400Y268700
X349736Y307454
X350254Y336490
X354105Y313396
X365916Y313596
X375758Y346246
X366000Y357600
X339600Y316800
X337754Y340427
X383600Y314800
X383100Y322800
Y331800
X383546Y334521
R02Y3937
X356073Y301854
X355158Y256858
X349158
X351158
X353157
X355158Y254858
R03X-2000
Y252858
R03X2000
Y250858
R03X-2000
X301150Y37175
X294850Y34025
X298000Y37175
X301150Y34025
X294850Y37175
X298000Y34025
X372700Y158500
R02X2200
T06
X303000Y21400
X309200Y25000
X306000Y23500
X304000Y25000
X308000Y22000
X305500Y20500
X355000Y50500
X347500Y40500
X345500Y42000
X349500Y39000
X353000Y40500
X351000Y42000
X355000Y39000
X356300Y53000
X367000Y38000
X357500Y55500
X360000Y34000
X355500Y33500
X351500Y36500
X353500Y35000
X367000Y30000
X126500Y158000
X97732Y164000
Y172500
X104268Y164000
Y172500
X51000Y340800
X52000Y333800
X57500Y338300
X64000Y336800
X53190Y321300
X72035Y315759
X73025Y318305
X73944Y320780
X55690Y316300
X50690
X55690Y326300
X50690
X60690Y316300
X65690
X58190Y318800
X63190
X60690Y321800
X65690
X375500Y127800
X373000Y128800
X370500Y129800
X375500Y131800
X370500Y133800
X373000Y132800
X368000Y131800
Y127800
X364500Y131800
Y127800
X361000Y131800
Y127800
X97732Y181500
X123532Y181600
X130068
X104268Y181500
X86600Y316200
X87700Y318700
X88800Y321200
X92200Y318700
X91100Y316200
X93300Y321200
X96700Y318700
X95600Y316200
X97800Y321200
Y324700
X93300
X88800
X97800Y328200
X93300
X380500Y108000
Y105000
Y114000
Y111000
X378000Y109500
Y106500
Y112500
Y115500
X245400Y180100
X302600Y54700
X310000Y47600
X399300Y105800
R03Y5000
X412500Y146500
X197900Y241900
X211400
X224700
X237900
X407000Y238200
X446800Y237700
X467000Y238200
X156000Y347000
R02X-3000
X153000Y344000
X156000
Y350000
X153000
X156000Y353000
X153000
X410600Y213600
X403000
X406900Y210300
X403100
X410700
X415500Y207800
X420000Y206800
X407000Y213500
Y217000
X410600Y217100
X403000
X399000Y213600
X399100Y210300
X399000Y217100
X440100Y70800
X438000Y72300
X442100Y69400
X414600Y82800
X284900Y41600
X281000Y41500
R02X-3500
Y44500
R02X3500
X274000Y47500
X277500
X276500Y16000
Y19000
X278000Y21500
X280000Y23500
X282000Y25500
X297900Y21400
X292800
X285000Y25600
X371000Y165000
X364500Y169000
X68000Y42500
Y39000
X71000Y42500
Y39000
X74500Y42500
Y39000
X78000
Y42500
X81500
Y39000
X334700Y53000
X336000Y50500
X333500Y55500
X338200Y53000
X339500Y50500
X337000Y55500
X340500
X341700Y53000
X343000Y50500
X405400Y347100
X451400Y277600
X440000Y293500
Y289500
X450000Y283900
X452700Y282100
X442400Y264100
X439100Y267100
X439900Y279500
Y276000
X378600Y6900
X125000Y55500
X128000Y57500
X120000Y55500
X122500Y54000
R02Y3500
X125000Y59500
X127500Y61000
X126500Y343000
X123500
X127000Y340000
X124000
X121000Y342500
R03Y-3000
X34500Y333800
X31500Y332800
X28500
Y335800
X31500Y336300
X28500Y338800
X42000Y340800
X35000Y338800
X365500Y149400
X371000Y152000
X364500Y146500
X368000
X364500Y143500
X367500
X368500Y149500
X376000Y30000
X387500Y30500
X390500Y33000
X384000
X390500Y29500
X393500
Y33000
X396500Y29500
Y33000
X429600Y84400
X448400Y100400
Y96900
Y88200
X449500Y110000
X445000Y81500
Y85500
X448500Y93000
Y81100
Y84300
X449500Y113500
X440100Y82800
X442100Y84300
X438100Y81400
X445000Y90000
X439700Y88400
X434500Y84500
X442000Y93000
X445000Y111500
R02Y-4500
Y97500
X365500Y80500
Y77500
X362500
Y80500
X359500Y77500
Y80500
X356500Y77500
Y80500
X422800Y183400
X428700Y181000
X425000Y181100
X419400Y184400
X422000Y186000
X426500Y184000
X430000
X350500Y233500
X354300Y233400
X336000Y256600
X424700Y84400
X419500
X57500Y346800
X62000Y347300
X35000Y348300
X31000Y351300
X33000Y349800
X48000Y352300
X45000
X373000Y19000
X369500Y18500
X119500Y50000
X377559Y165441
X284900Y35400
X292800Y15200
R02X5100
X310000Y41400
X312800Y37000
X309200Y36700
X291600Y54700
X412500Y153500
Y150000
X257000Y110500
X376100Y261000
R02Y-5000
X373000Y246500
X336000Y250400
X347000Y233500
X358100Y233400
X426300Y238000
X433500Y151000
X455500
X341389Y251889
X356095Y264595
X424600Y281600
X436200Y289800
X451400Y271400
X432300Y264100
X428800Y267100
X436200Y293300
X114500Y158000
X257400Y180100
X386000Y19500
X353500Y23000
X360000Y24500
X371500Y7000
X364500Y161000
X365500Y155600
X119000Y40000
X111000Y63500
X125000Y47500
X128000Y49500
X121000Y43000
X384000Y21000
X388000Y18000
X351500Y24500
X355500Y21500
X353500Y100000
X361500Y103600
X363000Y96500
X357100Y100100
X360700Y100200
X364300
X356700Y95300
X197900Y253900
X211400
X224700
X237900
X138500Y345500
X138100Y333700
X144100Y337000
X135800Y337400
X140900Y333600
X144200Y333400
Y340600
X140900Y337600
X140800Y341500
X66000Y350300
X440300Y172300
X244800Y110100
X429964Y67734
R04X-3937
X429964Y71671
X426027
X418153
X414216
X429964Y75609
R04X-3937
X422129Y71750
T07
X436488Y195988
X442000
X444756
X447512
Y198744
R03Y2756
X444756
X442000
X436488
R03Y-2756
X439244Y195988
Y207012
X442000Y201500
Y198744
X444756
R02Y2756
X442000
X439244Y198744
R02Y2756
T08
X115020Y274232
X129980
X114232Y287618
X113839Y278957
X130768Y287618
X126437Y291161
X118563
X131161Y278957
X155020Y274232
X169980
X158563Y291161
X154232Y287618
X153839Y278957
X170768Y287618
X166437Y291161
X171161Y278957
X195020Y274232
X209980
X198563Y291161
X194232Y287618
X193839Y278957
X210768Y287618
X206437Y291161
X211161Y278957
T09
X239500Y329900
Y339900
X249500Y329900
Y339900
X259500Y329900
Y339900
X269500Y329900
Y339900
X279500Y329900
Y339900
X388773Y210500
R02Y10000
X433500Y232000
R02Y10000
X413500Y232000
R02Y10000
X453500Y232000
R02Y10000
X466000Y267500
R02Y10000
X413500Y267500
R02Y10000
X473500Y232000
R02Y10000
T10
X460000Y138200
Y163800
X438500Y138200
Y163800
X417000
Y138200
T11
X90500Y343000
X123000Y375500
X144000Y362500
X138500Y2700
X121000
X102000Y28800
X156000Y2700
X103500
X126800Y28100
X250000Y282500
X300000Y227500
X306000Y282500
X343300Y280400
X295000Y140000
X346300Y110400
X351100Y168900
X297900Y189800
X346400Y131500
X327100Y110400
X295000Y85000
X283200Y16700
X281900Y52000
X342000Y36900
X324100Y17400
X393700Y65800
X405800Y188600
X419100Y216000
X392500Y247500
X428600Y364100
X474000Y70500
X473500Y97000
T12
X240000Y292500
X260000
Y272500
X240000
X290000Y237500
X310000
Y217500
X290000
X296000Y292500
X316000
Y272500
X296000
X285000Y130000
Y150000
X305000
Y130000
X285000Y75000
Y95000
X305000
Y75000
T13
X20500Y59800
Y307800
T14
X455300Y32500
X442500Y51400
T15
X430700Y32500
T16
X464041Y319139
Y336461
T17
X40408Y290843
X28400Y76749
T18
X0Y0
X0Y370000
X470000
Y0
M30
